<svg width="1919" height="351" viewBox="0 0 1919 351" fill="none" xmlns="http://www.w3.org/2000/svg">
<path d="M1246 0C1246 0 1306.11 3.9 1389.34 51.06C1472.57 98.22 1474.41 46 1453.14 28C1431.87 10 1480.88 14.59 1533.59 35.86C1586.3 57.13 1743.52 100.6 1729.64 0H1246Z" fill="#F1F2F5"/>
<path d="M104 0C104 0 331.29 155.1 368.1 100.56C388.19 70.79 272.67 0 272.67 0H104Z" fill="#F1F2F5"/>
<path d="M1918.27 350.002H1279.54C1297.88 345.462 1447 209.722 1521.42 113.862C1523.81 111.599 1526.91 110.22 1530.19 109.951C1533.47 109.682 1536.75 110.539 1539.48 112.382L1572.87 135.002L1583.47 120.392L1605.08 90.6319L1610.15 83.6319L1634.91 49.5219C1636.64 47.1478 1638.9 45.2121 1641.51 43.8704C1644.12 42.5288 1647.01 41.8188 1649.94 41.7974C1652.88 41.776 1655.78 42.4438 1658.41 43.7472C1661.04 45.0506 1663.33 46.9532 1665.09 49.3019C1679.97 69.1519 1694.57 88.0419 1709.09 106.362C1773.43 187.442 1836.6 257.372 1918.27 350.002Z" fill="#F3F4F7"/>
<path d="M1523.39 195.899C1510.39 231.019 1498.99 271.429 1488.71 271.159C1488.71 271.159 1481.62 270.239 1485.63 260.369C1489.64 250.499 1441.08 256.599 1429.3 349.999H1279.54C1297.88 345.459 1447 209.719 1521.42 113.859C1523.03 112.33 1524.97 111.193 1527.09 110.538C1529.21 109.882 1531.46 109.725 1533.65 110.079C1533.65 110.079 1544.81 121.199 1539.57 127.599C1534.33 133.999 1517.69 133.059 1518.3 138.299C1518.91 143.539 1540.52 137.769 1544.58 147.299C1548.51 156.489 1532.06 172.549 1523.39 195.899Z" fill="white"/>
<path d="M1626.81 108.401C1640.99 98.8511 1634.81 119.501 1644.38 116.731C1653.95 113.961 1667.86 62.5711 1648.56 41.8711C1645.86 42.0786 1643.25 42.8715 1640.89 44.1945C1638.53 45.5174 1636.49 47.3386 1634.91 49.5311L1610.15 83.6411L1605.08 90.6411L1583.47 120.401C1591.68 124.781 1599.65 129.401 1607.29 134.081C1612.66 124.171 1619.77 113.151 1626.81 108.401Z" fill="white"/>
<path d="M1657.51 185.849C1657.01 185.307 1656.74 184.597 1656.75 183.864C1656.77 183.13 1657.06 182.428 1657.57 181.901C1658.08 181.374 1658.77 181.061 1659.5 181.028C1660.23 180.994 1660.95 181.241 1661.51 181.719C1671.96 190.459 1681.43 198.149 1684.15 199.649C1704.91 211.109 1665.79 169.979 1607.29 134.059C1601.87 144.059 1598.21 152.879 1598.18 152.959C1616.39 166.579 1643.65 188.159 1677.36 218.449C1718.46 255.379 1685.9 217.489 1657.51 185.849Z" fill="#E9EBF2"/>
<path d="M1583.47 120.379L1572.87 134.999C1572.87 134.999 1581.92 140.809 1598.18 152.999C1598.18 152.919 1601.87 144.079 1607.29 134.099C1599.65 129.369 1591.68 124.759 1583.47 120.379Z" fill="#F1F2F5"/>
<path d="M1807.38 349.999H1617.04V305.609H1785.34L1807.38 315.089V349.999Z" fill="#F6F7F9"/>
<path d="M1728.93 254.359H1560.63V305.609H1785.34V296.359L1728.93 254.359Z" fill="#E9EBF2"/>
<path d="M1617.04 296.359L1560.63 254.359L1504.21 296.359V349.999H1617.04V296.359Z" fill="white"/>
<path d="M1482.48 349.999H1504.21V305.609L1482.48 315.089V349.999Z" fill="white"/>
<path d="M1638.77 349.999H1617.04V305.609L1638.77 315.089V349.999Z" fill="white"/>
<path d="M1565.37 268.219H1555.89V280.009H1565.37V268.219Z" fill="#F3F4F7"/>
<path d="M1557.7 268.219H1555.89V280.009H1557.7V268.219Z" fill="#E9EBF2"/>
<path d="M1535.65 291.5H1526.17V303.29H1535.65V291.5Z" fill="#F3F4F7"/>
<path d="M1527.98 291.5H1526.17V303.29H1527.98V291.5Z" fill="#E9EBF2"/>
<path d="M1555.07 291.5H1545.59V303.29H1555.07V291.5Z" fill="#F3F4F7"/>
<path d="M1547.4 291.5H1545.59V303.29H1547.4V291.5Z" fill="#E9EBF2"/>
<path d="M1574.49 291.5H1565.01V303.29H1574.49V291.5Z" fill="#F3F4F7"/>
<path d="M1566.82 291.5H1565.01V303.29H1566.82V291.5Z" fill="#E9EBF2"/>
<path d="M1593.91 291.5H1584.43V303.29H1593.91V291.5Z" fill="#F3F4F7"/>
<path d="M1586.24 291.5H1584.43V303.29H1586.24V291.5Z" fill="#E9EBF2"/>
<path d="M1535.65 311.621H1526.17V323.411H1535.65V311.621Z" fill="#F3F4F7"/>
<path d="M1527.98 311.621H1526.17V323.411H1527.98V311.621Z" fill="#E9EBF2"/>
<path d="M1555.07 311.621H1545.59V323.411H1555.07V311.621Z" fill="#F3F4F7"/>
<path d="M1547.4 311.621H1545.59V323.411H1547.4V311.621Z" fill="#E9EBF2"/>
<path d="M1574.49 311.621H1565.01V323.411H1574.49V311.621Z" fill="#F3F4F7"/>
<path d="M1566.82 311.621H1565.01V323.411H1566.82V311.621Z" fill="#E9EBF2"/>
<path d="M1593.91 311.621H1584.43V323.411H1593.91V311.621Z" fill="#F3F4F7"/>
<path d="M1586.24 311.621H1584.43V323.411H1586.24V311.621Z" fill="#E9EBF2"/>
<path d="M1535.65 331.73H1526.17V343.52H1535.65V331.73Z" fill="#F3F4F7"/>
<path d="M1527.98 331.73H1526.17V343.52H1527.98V331.73Z" fill="#E9EBF2"/>
<path d="M1555.07 331.73H1545.59V343.52H1555.07V331.73Z" fill="#F3F4F7"/>
<path d="M1547.4 331.73H1545.59V343.52H1547.4V331.73Z" fill="#E9EBF2"/>
<path d="M1574.49 331.73H1565.01V343.52H1574.49V331.73Z" fill="#F3F4F7"/>
<path d="M1566.82 331.73H1565.01V343.52H1566.82V331.73Z" fill="#E9EBF2"/>
<path d="M1593.91 331.73H1584.43V343.52H1593.91V331.73Z" fill="#F3F4F7"/>
<path d="M1586.24 331.73H1584.43V343.52H1586.24V331.73Z" fill="#E9EBF2"/>
<path d="M1629.06 321.91H1622.95V346.3H1629.06V321.91Z" fill="#F3F4F7"/>
<path d="M1624.12 321.91H1622.95V346.3H1624.12V321.91Z" fill="#E9EBF2"/>
<path d="M1498.05 321.91H1491.94V346.3H1498.05V321.91Z" fill="#F3F4F7"/>
<path d="M1493.11 321.91H1491.94V346.3H1493.11V321.91Z" fill="#E9EBF2"/>
<path d="M1617.04 305.609L1638.77 315.089H1807.38L1785.34 305.609H1617.04Z" fill="#E9EBF2"/>
<path d="M1833.79 321.91H1690.07V350H1798.15H1869.42L1833.79 321.91Z" fill="#E9EBF2"/>
<path d="M1690.07 321.91L1654.44 350H1725.71L1690.07 321.91Z" fill="white"/>
<path d="M1694.04 336.23H1686.1V346.11H1694.04V336.23Z" fill="#F3F4F7"/>
<path d="M1687.62 336.23H1686.1V346.11H1687.62V336.23Z" fill="#E9EBF2"/>
<path d="M697.25 350.001H0.669922C0.669922 350.001 26.6699 323.791 65.5799 280.761C111.58 229.931 175.58 155.621 236.24 73.3012C237.401 71.7268 238.912 70.4439 240.654 69.5539C242.396 68.6638 244.321 68.1909 246.278 68.1724C248.234 68.154 250.167 68.5906 251.926 69.4477C253.684 70.3048 255.219 71.559 256.41 73.1112C284.32 109.471 362.41 208.921 402.02 236.531C410.005 230.363 419.71 226.83 429.791 226.421C439.873 226.013 449.832 228.749 458.29 234.251C505.66 265.131 604.65 324.841 697.25 350.001Z" fill="#F3F4F7"/>
<path d="M194.87 213.821C113.87 266.021 66.5098 280.491 65.5898 280.761C111.59 229.931 175.59 155.621 236.25 73.3012C237.411 71.7268 238.922 70.4439 240.664 69.5539C242.406 68.6638 244.331 68.1909 246.287 68.1724C248.244 68.154 250.177 68.5906 251.936 69.4477C253.694 70.3048 255.229 71.559 256.42 73.1112C256.42 73.1112 257.75 91.1112 239.95 117.421C222.15 143.731 240 142.851 248.2 138.001C256.4 133.151 276.71 161.111 194.87 213.821Z" fill="white"/>
<path d="M402 236.532C402 236.532 348.81 286.652 289.17 310.232C229.53 333.812 319.95 286.632 348.93 251.232C377.91 215.832 355.06 229.032 346.04 226.952C337.02 224.872 358.33 195.852 358.33 195.852L402 236.532Z" fill="#E9EBF2"/>
<path d="M192.1 350C192.1 350 248.81 343 303.1 312.16C350.54 285.16 391.59 246.6 402.1 236.53C402.1 236.53 411.1 226.91 431.85 226.38C452.6 225.85 431 238.18 419 251.12C407 264.06 420.85 262.84 430.72 257.6C440.59 252.36 453.22 260.37 398.04 295.51C342.86 330.65 338.86 331.89 345.64 335.89C352.42 339.89 345.95 350 345.95 350H192.1Z" fill="white"/>
<path d="M182.24 237.471C176.24 233.631 196.43 223.471 205.8 216.601C230.21 198.791 239.08 190.691 244.55 182.731C249.05 176.181 256.23 180.241 236.34 202.491C215.52 225.781 189.58 242.181 182.24 237.471Z" fill="white"/>
<path d="M191.96 301.078H271.58V329.168H156.32L191.96 301.078Z" fill="#E9EBF2"/>
<path d="M271.579 301.078L307.219 329.168V349.998H235.939V329.168L271.579 301.078Z" fill="white"/>
<path d="M264.82 325.27H272.76V315.39H264.82V325.27Z" fill="#F3F4F7"/>
<path d="M271.24 325.27H272.76V315.39H271.24V325.27Z" fill="#E9EBF2"/>
<path d="M264.82 343.84H272.76V333.96H264.82V343.84Z" fill="#F3F4F7"/>
<path d="M271.24 343.84H272.76V333.96H271.24V343.84Z" fill="#E9EBF2"/>
<path d="M284.34 343.84H292.28V333.96H284.34V343.84Z" fill="#F3F4F7"/>
<path d="M290.76 343.84H292.28V333.96H290.76V343.84Z" fill="#E9EBF2"/>
<path d="M245.56 343.84H253.5V333.96H245.56V343.84Z" fill="#F3F4F7"/>
<path d="M251.98 343.84H253.5V333.96H251.98V343.84Z" fill="#E9EBF2"/>
<path d="M235.94 329.172H156.32V350.002H235.94V329.172Z" fill="#F6F7F9"/>
<path d="M269.4 302.798L303.77 329.878V349.998H307.22V329.168L271.58 301.078L269.4 302.798Z" fill="#F6F7F9"/>
<path d="M114.53 350H223.64V263.02H128.86L114.53 350Z" fill="#F6F7F9"/>
<path d="M180.19 114.34L140.64 334.28H218.32L180.19 114.34Z" fill="#E9EBF2"/>
<path d="M205.97 263.02H223.64L218.32 334.28H205.97V263.02Z" fill="#E9EBF2"/>
<path d="M155.74 263.02H128.86L140.06 334.28H152.41L155.74 263.02Z" fill="#E9EBF2"/>
<path d="M218.32 334.279L179.48 272.629L140.64 334.279V349.999H218.32V334.279Z" fill="white"/>
<path d="M191.52 327.568C191.52 330.573 190.326 333.455 188.202 335.58C186.077 337.705 183.195 338.898 180.19 338.898C179.651 338.898 179.113 338.858 178.58 338.778C181.271 338.383 183.731 337.034 185.509 334.976C187.287 332.917 188.265 330.288 188.265 327.568C188.265 324.848 187.287 322.219 185.509 320.161C183.731 318.103 181.271 316.753 178.58 316.358C179.113 316.278 179.651 316.238 180.19 316.238C183.195 316.238 186.077 317.432 188.202 319.557C190.326 321.682 191.52 324.563 191.52 327.568Z" fill="#E9EBF2"/>
<path d="M188.29 327.569C188.289 330.293 187.307 332.925 185.524 334.984C183.74 337.043 181.275 338.39 178.58 338.779C175.877 338.4 173.402 337.056 171.611 334.996C169.82 332.937 168.834 330.299 168.834 327.569C168.834 324.84 169.82 322.202 171.611 320.142C173.402 318.082 175.877 316.739 178.58 316.359C181.274 316.751 183.738 318.099 185.521 320.157C187.304 322.215 188.287 324.846 188.29 327.569Z" fill="#F3F4F7"/>
<path d="M179.48 272.629H172.85L145.15 317.469L140.64 334.279L179.48 272.629Z" fill="#F1F2F5"/>
<path d="M180.19 117.069C181.698 117.069 182.92 115.847 182.92 114.339C182.92 112.832 181.698 111.609 180.19 111.609C178.682 111.609 177.46 112.832 177.46 114.339C177.46 115.847 178.682 117.069 180.19 117.069Z" fill="#E9EBF2"/>
<path d="M134.76 0C134.76 0 242.34 67 260.53 39.35C267.72 28.41 230.94 0 230.94 0H134.76Z" fill="#F6F7F9"/>
<path d="M354.85 0C354.85 0 394.16 35.81 474.61 35.81C555.06 35.81 588.36 14.54 665.61 31.18C742.86 47.82 762.22 0 762.22 0H354.85Z" fill="#F1F2F5"/>
<path d="M358.34 50.5695C358.34 50.5695 324.89 32.5695 332.39 19.0895C339.89 5.60947 371.93 33.5395 377.58 50.9995C383.23 68.4595 358.34 50.5695 358.34 50.5695Z" fill="#F1F2F5"/>
<path d="M1517.87 0C1517.87 0 1639 40.28 1691.42 25.79C1699.42 23.58 1715.31 16.91 1713.92 0H1517.87Z" fill="#F6F7F9"/>
<path d="M1671.2 8.81159C1671.2 8.81159 1644.4 -0.608411 1640.74 10.2916C1637.08 21.1916 1668.61 24.8816 1681.09 19.2916C1693.57 13.7016 1671.2 8.81159 1671.2 8.81159Z" fill="#F1F2F5"/>
<path d="M1407.84 40.7094C1407.84 40.7094 1436.84 66.9994 1447.27 55.1294C1457.7 43.2594 1419.71 21.7094 1400.86 22.1794C1382.01 22.6494 1407.84 40.7094 1407.84 40.7094Z" fill="#F6F7F9"/>
<path d="M1488.43 30.7003C1489.74 35.3403 1514.63 46.4103 1546.85 57.9603C1579.07 69.5103 1587.59 65.7603 1586.85 62.1803C1586.11 58.6003 1561.85 55.8803 1537.57 45.7503C1513.29 35.6203 1485.75 21.1703 1488.43 30.7003Z" fill="#F1F2F5"/>
<path d="M1667.05 74.4991C1667.53 77.5473 1667.69 80.6374 1667.53 83.7191C1667.39 86.7748 1666.98 89.8126 1666.32 92.7991C1665.67 95.795 1664.73 98.7193 1663.51 101.529C1662.3 104.328 1660.75 106.968 1658.89 109.389C1658.78 109.539 1658.62 109.642 1658.44 109.681C1658.25 109.719 1658.06 109.689 1657.9 109.596C1657.74 109.504 1657.62 109.355 1657.56 109.179C1657.5 109.002 1657.51 108.81 1657.58 108.639C1658.75 106.001 1659.73 103.281 1660.5 100.499C1661.26 97.7449 1661.82 94.9415 1662.19 92.1091C1662.55 89.2791 1662.78 86.4291 1662.87 83.5791C1662.87 82.1491 1662.93 80.7291 1662.87 79.2991C1662.81 77.8691 1662.87 76.4191 1662.77 75.0991V74.9491C1662.76 74.4124 1662.94 73.8899 1663.3 73.4872C1663.65 73.0845 1664.15 72.8316 1664.68 72.7795C1665.22 72.7275 1665.75 72.8802 1666.18 73.2068C1666.61 73.5334 1666.89 74.0095 1666.98 74.5391L1667.05 74.4991Z" fill="white"/>
<path d="M1648.56 133.311C1651.04 132.242 1653.35 130.798 1655.39 129.031C1657.42 127.277 1659.25 125.294 1660.83 123.121C1661.6 122.024 1662.32 120.886 1662.97 119.711C1663.28 119.121 1663.67 118.571 1663.97 117.951L1664.83 116.131C1665.12 115.523 1665.39 114.899 1665.61 114.261L1666.36 112.381C1666.82 111.101 1667.19 109.791 1667.66 108.511L1667.73 108.331C1667.96 107.937 1668.31 107.631 1668.73 107.464C1669.15 107.297 1669.62 107.279 1670.06 107.413C1670.49 107.547 1670.87 107.825 1671.12 108.201C1671.38 108.577 1671.5 109.028 1671.46 109.481C1671.11 110.911 1670.72 112.341 1670.29 113.751C1669.86 115.161 1669.29 116.551 1668.62 117.881C1667.34 120.588 1665.74 123.128 1663.84 125.441C1661.91 127.734 1659.66 129.735 1657.16 131.381C1654.67 133.062 1651.87 134.228 1648.93 134.811C1648.75 134.836 1648.56 134.794 1648.41 134.694C1648.25 134.594 1648.14 134.442 1648.09 134.266C1648.04 134.089 1648.05 133.9 1648.13 133.733C1648.2 133.565 1648.33 133.43 1648.5 133.351L1648.56 133.311Z" fill="white"/>
<path d="M1597 186.521C1597 186.521 1609.89 199.591 1649.85 195.451C1649.85 195.451 1627.57 190.841 1617.16 178.141L1597 186.521Z" fill="#000D1A"/>
<path d="M1592 181.081C1592 181.081 1578.83 161.841 1604.79 144.621C1604.79 144.621 1594.3 161.381 1607.28 172.801L1592 181.081Z" fill="#000D1A"/>
<path d="M1600.11 183.85C1600.1 185.584 1599.41 187.245 1598.18 188.469C1596.96 189.693 1595.29 190.38 1593.56 190.38C1592.22 190.375 1590.92 189.962 1589.83 189.197C1588.73 188.433 1587.9 187.352 1587.43 186.1C1587.34 185.868 1587.27 185.631 1587.21 185.39C1587.09 184.888 1587.03 184.375 1587.03 183.86C1587.03 182.126 1587.72 180.462 1588.95 179.236C1590.17 178.009 1591.84 177.32 1593.57 177.32C1595.3 177.32 1596.97 178.009 1598.19 179.236C1599.42 180.462 1600.11 182.126 1600.11 183.86V183.85Z" fill="#4CC3FF"/>
<path d="M1588.83 188.341H1585.82L1587.03 185.731L1587.2 185.371L1587.21 185.381L1587.74 186.341L1588.83 188.341Z" fill="#4CC3FF"/>
<path d="M1620.67 169.73C1620.67 169.36 1630.67 154.48 1630.67 154.48L1629.38 166.91L1632.05 169.48L1649.23 173.7L1625.37 175.48L1620.67 169.73Z" fill="#4CC3FF"/>
<path d="M1626 175.46C1616 181.82 1609 185.37 1597.78 187.2C1595.17 185.29 1592.97 182.867 1591.33 180.08C1591.33 180.08 1598.45 170.91 1620.83 169.48L1626 175.46Z" fill="#4CC3FF"/>
<path d="M1598.16 181.09C1598.16 182.299 1597.82 183.483 1597.18 184.512C1596.55 185.54 1595.64 186.372 1594.56 186.916C1593.48 187.46 1592.27 187.694 1591.07 187.592C1589.87 187.491 1588.71 187.057 1587.74 186.34L1587.43 186.1C1587.29 185.991 1587.15 185.871 1587.03 185.74L1587.2 185.38C1587.08 184.878 1587.02 184.365 1587.02 183.85C1587.02 182.607 1587.37 181.389 1588.04 180.341C1588.71 179.292 1589.66 178.457 1590.79 177.931C1591.92 177.406 1593.17 177.214 1594.4 177.377C1595.64 177.539 1596.8 178.051 1597.75 178.85C1598.02 179.567 1598.16 180.325 1598.16 181.09Z" fill="#4CC3FF"/>
<path d="M1808.86 253.305C1817.01 252.123 1823.28 248.776 1822.85 245.83C1822.42 242.884 1815.47 241.454 1807.31 242.636C1799.16 243.819 1792.89 247.166 1793.32 250.112C1793.75 253.058 1800.7 254.487 1808.86 253.305Z" fill="#000D1A"/>
<path d="M1862.35 239.828C1870.51 238.646 1876.77 235.299 1876.34 232.353C1875.92 229.407 1868.96 227.977 1860.8 229.16C1852.65 230.342 1846.38 233.689 1846.81 236.635C1847.24 239.581 1854.2 241.011 1862.35 239.828Z" fill="#000D1A"/>
<path d="M1860.46 237.05L1860.98 240.68C1860.98 240.68 1846.32 242.93 1842.49 245.63C1838.66 248.33 1837.23 255.02 1830.17 256.05C1828.76 256.287 1827.32 256.318 1825.9 256.14C1822.2 255.6 1820.07 253.05 1818.27 247.81C1816.15 241.67 1803.27 238.73 1797.05 237.36L1796.98 232.82L1811.82 236.75C1815.95 237.848 1820.3 237.793 1824.4 236.59C1828.5 235.388 1832.2 233.084 1835.08 229.93C1838.74 225.93 1842.46 221.54 1844.39 218.23L1848.13 219.43L1839.87 230.88C1839.33 231.646 1839.01 232.545 1838.94 233.48C1838.87 234.415 1839.06 235.35 1839.49 236.186C1839.91 237.021 1840.56 237.725 1841.35 238.221C1842.15 238.717 1843.06 238.986 1844 239C1849.54 238.927 1855.06 238.274 1860.46 237.05Z" fill="#FFBF00"/>
<path d="M1809.89 251.329L1817.99 247.199L1820.56 251.729C1820.56 251.729 1814.56 251.119 1810.56 254.099L1809.89 251.329Z" fill="#FFBF00"/>
<path d="M1810.66 250.176L1806.25 250.816L1807.16 257.101L1811.57 256.461L1810.66 250.176Z" fill="#000D1A"/>
<path d="M1808.29 257.423C1809.51 257.251 1810.47 256.898 1810.43 256.636C1810.4 256.373 1809.38 256.3 1808.16 256.473C1806.94 256.645 1805.98 256.998 1806.02 257.26C1806.06 257.523 1807.07 257.596 1808.29 257.423Z" fill="#000D1A"/>
<path d="M1809.48 257.536C1810.7 257.359 1811.63 256.875 1811.57 256.454C1811.51 256.033 1810.47 255.835 1809.26 256.012C1808.04 256.189 1807.1 256.673 1807.16 257.094C1807.22 257.515 1808.26 257.713 1809.48 257.536Z" fill="#000D1A"/>
<path d="M1863.95 235.243L1859.53 235.883L1860.44 242.167L1864.86 241.527L1863.95 235.243Z" fill="#000D1A"/>
<path d="M1861.82 236.103C1863.04 235.926 1863.99 235.57 1863.96 235.308C1863.92 235.045 1862.9 234.976 1861.68 235.153C1860.46 235.329 1859.5 235.685 1859.54 235.948C1859.58 236.21 1860.6 236.279 1861.82 236.103Z" fill="#000D1A"/>
<path d="M1862.76 242.618C1863.98 242.441 1864.92 241.957 1864.86 241.536C1864.8 241.115 1863.76 240.917 1862.54 241.094C1861.32 241.271 1860.38 241.755 1860.45 242.176C1860.51 242.597 1861.54 242.795 1862.76 242.618Z" fill="#000D1A"/>
<path d="M1848.53 214.899L1844.11 215.539L1845.03 221.823L1849.44 221.183L1848.53 214.899Z" fill="#000D1A"/>
<path d="M1846.4 215.767C1847.62 215.59 1848.58 215.234 1848.54 214.972C1848.5 214.709 1847.48 214.64 1846.26 214.817C1845.04 214.993 1844.09 215.349 1844.12 215.612C1844.16 215.874 1845.18 215.944 1846.4 215.767Z" fill="#000D1A"/>
<path d="M1847.34 222.27C1848.56 222.094 1849.5 221.609 1849.44 221.188C1849.38 220.768 1848.34 220.57 1847.12 220.746C1845.9 220.923 1844.97 221.408 1845.03 221.828C1845.09 222.249 1846.13 222.447 1847.34 222.27Z" fill="#000D1A"/>
<path d="M1797.1 231.594L1792.68 232.234L1793.59 238.519L1798.01 237.879L1797.1 231.594Z" fill="#000D1A"/>
<path d="M1794.96 232.454C1796.17 232.278 1797.13 231.922 1797.09 231.659C1797.06 231.397 1796.04 231.328 1794.82 231.504C1793.6 231.681 1792.64 232.037 1792.68 232.299C1792.72 232.562 1793.74 232.631 1794.96 232.454Z" fill="#000D1A"/>
<path d="M1795.91 238.958C1797.13 238.781 1798.07 238.297 1798.01 237.876C1797.95 237.455 1796.91 237.257 1795.69 237.434C1794.47 237.611 1793.53 238.095 1793.59 238.516C1793.65 238.937 1794.69 239.135 1795.91 238.958Z" fill="#000D1A"/>
<path d="M1846.66 217.492C1854.81 216.31 1861.08 212.963 1860.65 210.017C1860.22 207.071 1853.27 205.642 1845.11 206.824C1836.96 208.006 1830.69 211.353 1831.12 214.299C1831.55 217.245 1838.5 218.675 1846.66 217.492Z" fill="#000D1A"/>
<path d="M1795.24 234.383C1803.4 233.201 1809.66 229.854 1809.24 226.908C1808.81 223.962 1801.85 222.532 1793.7 223.715C1785.54 224.897 1779.28 228.244 1779.71 231.19C1780.13 234.136 1787.09 235.565 1795.24 234.383Z" fill="#000D1A"/>
<path d="M1830.14 256.049C1828.73 256.286 1827.29 256.316 1825.87 256.139C1824.81 253.953 1824.14 251.602 1823.87 249.189C1823.82 248.722 1823.97 248.255 1824.26 247.891C1824.56 247.526 1824.98 247.292 1825.45 247.239C1825.69 247.207 1825.93 247.223 1826.15 247.285C1826.38 247.348 1826.6 247.456 1826.79 247.604C1826.97 247.751 1827.13 247.935 1827.24 248.144C1827.36 248.352 1827.43 248.582 1827.45 248.819C1827.62 250.839 1828.53 254.599 1830.14 256.049Z" fill="#000D1A"/>
<path d="M142.113 274.102C150.183 272.435 156.237 268.72 155.635 265.805C155.033 262.89 148.003 261.878 139.933 263.545C131.863 265.211 125.809 268.926 126.412 271.841C127.014 274.756 134.044 275.768 142.113 274.102Z" fill="#000D1A"/>
<path d="M78.3732 287.262C86.4429 285.595 92.4966 281.881 91.8945 278.965C91.2924 276.05 84.2624 275.038 76.1926 276.705C68.1229 278.371 62.0692 282.086 62.6713 285.001C63.2734 287.917 70.3034 288.929 78.3732 287.262Z" fill="#000D1A"/>
<path d="M124.92 272.189C123.979 272.123 123.075 271.799 122.305 271.254C121.536 270.709 120.931 269.963 120.556 269.097C120.182 268.231 120.052 267.28 120.182 266.345C120.311 265.411 120.695 264.53 121.29 263.799L130.29 252.879L126.62 251.449C124.5 254.639 120.53 258.799 116.62 262.569C114.066 265.025 110.989 266.871 107.62 267.969C104.099 268.29 100.551 267.812 97.2403 266.569C92.1703 264.649 86.8803 262.409 83.6603 260.309L80.8603 263.079L93.4003 269.559C94.234 269.996 94.9323 270.653 95.4195 271.459C95.9068 272.264 96.1643 273.188 96.1643 274.129C96.1643 275.071 95.9068 275.994 95.4195 276.8C94.9323 277.605 94.234 278.262 93.4003 278.699C88.4066 281.131 83.1712 283.032 77.7803 284.369L78.9503 287.839C78.9503 287.839 93.0503 283.249 97.6803 283.929C101.88 284.559 105.8 288.929 111.52 288.099L112.02 287.999C117.61 286.509 119.47 280.919 123.02 278.689C127.02 276.229 141.77 274.859 141.77 274.859L141.47 271.209C136.003 272.113 130.456 272.441 124.92 272.189Z" fill="#4CC3FF"/>
<path d="M128.766 255.047C136.836 253.38 142.889 249.666 142.287 246.751C141.685 243.835 134.655 242.823 126.585 244.49C118.515 246.157 112.462 249.871 113.064 252.786C113.666 255.702 120.696 256.714 128.766 255.047Z" fill="#000D1A"/>
<path d="M130.074 250.379L125.706 251.281L126.99 257.5L131.358 256.598L130.074 250.379Z" fill="#000D1A"/>
<path d="M127.997 251.368C129.203 251.119 130.138 250.706 130.084 250.447C130.03 250.187 129.009 250.179 127.803 250.428C126.597 250.677 125.663 251.089 125.716 251.349C125.77 251.609 126.791 251.617 127.997 251.368Z" fill="#000D1A"/>
<path d="M129.335 257.815C130.541 257.566 131.449 257.026 131.363 256.61C131.277 256.193 130.23 256.058 129.024 256.307C127.818 256.556 126.91 257.095 126.996 257.512C127.082 257.928 128.129 258.064 129.335 257.815Z" fill="#000D1A"/>
<path d="M82.9728 263.746C91.0425 262.079 97.0962 258.365 96.4941 255.45C95.892 252.534 88.862 251.522 80.7923 253.189C72.7225 254.856 66.6688 258.57 67.2709 261.486C67.8731 264.401 74.903 265.413 82.9728 263.746Z" fill="#000D1A"/>
<path d="M84.2809 259.082L79.9131 259.984L81.1975 266.203L85.5653 265.301L84.2809 259.082Z" fill="#000D1A"/>
<path d="M82.213 260.071C83.4192 259.822 84.3535 259.41 84.2999 259.15C84.2462 258.89 83.225 258.882 82.0189 259.131C80.8127 259.38 79.8784 259.792 79.932 260.052C79.9857 260.312 81.0069 260.32 82.213 260.071Z" fill="#000D1A"/>
<path d="M83.5413 266.518C84.7474 266.269 85.6555 265.729 85.5695 265.313C85.4834 264.896 84.4359 264.761 83.2298 265.01C82.0237 265.259 81.1156 265.799 81.2016 266.215C81.2877 266.631 82.3352 266.767 83.5413 266.518Z" fill="#000D1A"/>
<path d="M110 288.41C111.391 288.143 112.737 287.681 114 287.04C114.248 284.623 114.082 282.181 113.51 279.82C113.392 279.366 113.101 278.977 112.699 278.736C112.297 278.494 111.816 278.42 111.36 278.53C111.134 278.585 110.922 278.684 110.735 278.822C110.547 278.959 110.389 279.132 110.269 279.331C110.149 279.53 110.07 279.751 110.036 279.981C110.002 280.21 110.013 280.445 110.07 280.67C110.62 282.65 111 286.5 110 288.41Z" fill="#000D1A"/>
<path d="M79.691 282.598L75.3232 283.5L76.6077 289.719L80.9755 288.817L79.691 282.598Z" fill="#000D1A"/>
<path d="M77.6134 283.583C78.8196 283.334 79.7539 282.921 79.7003 282.662C79.6466 282.402 78.6254 282.394 77.4193 282.643C76.2131 282.892 75.2788 283.304 75.3324 283.564C75.3861 283.823 76.4073 283.832 77.6134 283.583Z" fill="#000D1A"/>
<path d="M78.9417 290.022C80.1478 289.773 81.0559 289.233 80.9698 288.817C80.8838 288.4 79.8363 288.265 78.6302 288.514C77.4241 288.763 76.516 289.302 76.602 289.719C76.6881 290.135 77.7356 290.271 78.9417 290.022Z" fill="#000D1A"/>
<path d="M143.422 269.438L139.054 270.34L140.338 276.559L144.706 275.656L143.422 269.438Z" fill="#000D1A"/>
<path d="M141.354 270.423C142.56 270.174 143.494 269.761 143.44 269.502C143.387 269.242 142.366 269.233 141.16 269.483C139.953 269.732 139.019 270.144 139.073 270.404C139.126 270.663 140.148 270.672 141.354 270.423Z" fill="#000D1A"/>
<path d="M142.683 276.862C143.889 276.613 144.797 276.073 144.711 275.657C144.625 275.24 143.578 275.104 142.371 275.354C141.165 275.603 140.257 276.142 140.343 276.559C140.429 276.975 141.477 277.111 142.683 276.862Z" fill="#000D1A"/>
<path d="M337.21 162.718C337.21 162.718 320.74 164.008 300.68 155.498C299.776 155.121 299.006 154.481 298.471 153.66C297.936 152.84 297.66 151.877 297.68 150.898C297.77 146.708 298.26 138.408 293.43 129.748L303.85 121.078L313.57 146.458C313.57 146.458 334.38 153.608 337.21 162.718Z" fill="#000D1A"/>
<path d="M272.53 79.3984C272.53 79.3984 267.19 95.0384 270.46 116.578C270.613 117.541 271.049 118.436 271.714 119.149C272.378 119.861 273.241 120.359 274.19 120.578C278.27 121.578 286.28 122.918 293.47 129.738L304.37 122.218L282.43 106.278C282.43 106.278 280.65 84.3984 272.53 79.3984Z" fill="#000D1A"/>
<path d="M305.23 124.49L314.1 119.65C314.389 119.491 314.64 119.273 314.838 119.01C315.037 118.747 315.177 118.446 315.251 118.125C315.324 117.804 315.329 117.471 315.266 117.148C315.202 116.825 315.07 116.519 314.88 116.25L311.47 111.46C311.28 111.194 311.035 110.972 310.753 110.806C310.471 110.64 310.157 110.536 309.832 110.499C309.507 110.462 309.178 110.494 308.866 110.593C308.554 110.691 308.266 110.854 308.02 111.07L300.36 117.89L305.23 124.49Z" fill="#FFBF00"/>
<path d="M285.53 140.841L287.64 137.441L285.38 137.121C285.38 137.121 284.41 140.651 285.53 140.841Z" fill="#000D1A"/>
<path d="M303.693 127.772C307.297 125.524 308.792 121.415 307.033 118.594C305.273 115.773 300.926 115.308 297.322 117.556C293.718 119.803 292.223 123.912 293.983 126.733C295.742 129.554 300.09 130.019 303.693 127.772Z" fill="#FFBF00"/>
<path d="M295.83 133.141L290.44 135.351C290.44 135.351 288.32 138.601 285.38 137.121C282.44 135.641 283.89 129.531 290.38 125.121L295.83 133.141Z" fill="#000D1A"/>
<path d="M287.9 126.829C287.9 126.829 292.81 119.319 298.51 116.889L282.43 106.289L278.17 121.769C281.613 123.041 284.882 124.741 287.9 126.829Z" fill="#FFBF00"/>
<path d="M294.16 133.819C294.16 133.819 303.1 130.589 306.41 125.379L313.61 146.459L296.89 142.279C296.278 139.371 295.363 136.536 294.16 133.819Z" fill="#FFBF00"/>
<path d="M287.36 126.431C287.36 126.431 292.66 130.351 294.58 134.861L306.35 130.941L306.41 125.381L298.51 116.891L289.88 120.101L287.36 126.431Z" fill="#FFBF00"/>
</svg>
