<svg width="22" height="22" viewBox="0 0 22 22" fill="none" xmlns="http://www.w3.org/2000/svg">
<path d="M11 22C17.0751 22 22 17.0751 22 11C22 4.92487 17.0751 0 11 0C4.92487 0 0 4.92487 0 11C0 17.0751 4.92487 22 11 22Z" fill="#F0F0F0"/>
<path fill-rule="evenodd" clip-rule="evenodd" d="M13.869 0.378906C15.2767 0.75832 16.5723 1.40986 17.6965 2.27391L13.869 6.10136V0.378906ZM19.7257 4.30249C20.5897 5.42668 21.2413 6.72241 21.6206 8.12998H15.8982L19.7257 4.30249ZM0.37793 8.13055C0.757301 6.72294 1.40884 5.42722 2.27289 4.30303L6.10042 8.13055H0.37793ZM0.37793 13.8695C0.757344 15.2771 1.40888 16.5728 2.27289 17.6969L6.10029 13.8695H0.37793ZM4.30205 19.7261C5.42624 20.5901 6.72197 21.2417 8.12954 21.6211V15.8987L4.30205 19.7261ZM4.30205 2.27387C5.4262 1.40986 6.72192 0.75832 8.12949 0.378906V6.10131L4.30205 2.27387ZM13.869 21.6211C15.2766 21.2417 16.5723 20.5901 17.6965 19.7261L13.869 15.8987V21.6211ZM19.7257 17.697L15.8982 13.8695H21.6206C21.2413 15.2771 20.5897 16.5728 19.7257 17.697Z" fill="#16389C"/>
<path d="M21.9069 9.56523H12.4349H12.4348V0.0931133C11.9651 0.0319688 11.4863 0 11 0C10.5136 0 10.0349 0.0319688 9.56523 0.0931133V9.56514V9.56519H0.0931133C0.0319688 10.0349 0 10.5137 0 11C0 11.4864 0.0319688 11.9651 0.0931133 12.4348H9.56514H9.56519V21.9069C10.0349 21.968 10.5136 22 11 22C11.4863 22 11.9651 21.9681 12.4348 21.9069V12.4349V12.4348H21.9069C21.968 11.9651 22 11.4864 22 11C22 10.5137 21.968 10.0349 21.9069 9.56523Z" fill="#FF1940"/>
<path d="M13.8691 13.8697L18.7777 18.7783C19.0035 18.5526 19.2188 18.3166 19.4243 18.0721L15.2219 13.8696H13.8691V13.8697Z" fill="#FF1940"/>
<path d="M8.13029 13.8696H8.13021L3.22168 18.7782C3.44735 19.0039 3.68329 19.2193 3.92787 19.4248L8.13029 15.2222V13.8696Z" fill="#FF1940"/>
<path d="M8.13037 8.13088V8.13079L3.22179 3.22217C2.99603 3.44784 2.78067 3.68378 2.5752 3.92836L6.77767 8.13084H8.13037V8.13088Z" fill="#FF1940"/>
<path d="M13.8691 8.13041L18.7778 3.22175C18.5521 2.99599 18.3161 2.78063 18.0716 2.5752L13.8691 6.77767V8.13041Z" fill="#FF1940"/>
</svg>
