<svg width="120" height="120" viewBox="0 0 120 120" fill="none" xmlns="http://www.w3.org/2000/svg">
<path d="M93.1579 26.4137C83.2105 26.4137 69.2105 23.7942 61.4737 15.5613C60.7368 14.8129 59.6316 14.8129 58.8947 15.5613C50.7895 23.7942 36.7895 26.4137 26.8421 26.4137C25.7368 26.4137 25 27.1621 25 28.2848V65.7068C25 79.9271 44.8947 100.135 59.2632 105C59.6316 105 59.6316 105 60 105C60.3684 105 60.3684 105 60.7368 105C75.4737 100.135 95 79.9271 95 65.7068V28.2848C95 27.1621 94.2632 26.4137 93.1579 26.4137Z" fill="#4CC3FF"/>
<path fill-rule="evenodd" clip-rule="evenodd" d="M95 49H25V65.7068C25 68.0109 25.5223 70.4722 26.4588 73H93.5655C94.4874 70.4722 95 68.0109 95 65.7068V49Z" fill="#08112B"/>
<path d="M53.0398 50C53.0398 50 52.0455 38 60 38C67.9545 38 66.9602 50 66.9602 50" stroke="white" stroke-width="4"/>
<path d="M45 52C45 50.3431 46.3431 49 48 49H72C73.6569 49 75 50.3431 75 52V70C75 71.6569 73.6569 73 72 73H48C46.3431 73 45 71.6569 45 70V52Z" fill="white"/>
<path fill-rule="evenodd" clip-rule="evenodd" d="M62.0612 61.4287C63.223 60.7288 64 59.4551 64 58C64 55.7909 62.2091 54 60 54C57.7909 54 56 55.7909 56 58C56 59.4551 56.777 60.7288 57.9388 61.4287L57.1631 66.8586C57.077 67.461 57.5445 68 58.153 68H61.847C62.4555 68 62.923 67.461 62.8369 66.8586L62.0612 61.4287Z" fill="#4CC2FF"/>
<path d="M5.57692 43.3846C5.30247 42.7259 5.78642 42 6.5 42H25V66H6.5C5.78642 66 5.30247 65.2741 5.57692 64.6154L9.51923 55.1538C9.82692 54.4154 9.82692 53.5846 9.51923 52.8462L5.57692 43.3846Z" fill="#D1D5E0"/>
<path d="M114.423 43.3846C114.698 42.7259 114.214 42 113.5 42H95V66H113.5C114.214 66 114.698 65.2741 114.423 64.6154L110.481 55.1538C110.173 54.4154 110.173 53.5846 110.481 52.8462L114.423 43.3846Z" fill="#D1D5E0"/>
</svg>
