<svg width="1920" height="501" viewBox="0 0 1920 501" fill="none" xmlns="http://www.w3.org/2000/svg">
<path d="M1133.88 0C1133.88 0 1219.76 5.57 1338.65 73C1457.54 140.43 1460.2 65.73 1429.81 40C1399.42 14.27 1469.44 20.85 1544.75 51.23C1620.06 81.61 1844.64 143.71 1824.82 0H1133.88Z" fill="#F1F2F5"/>
<path d="M-26.3203 0C-26.3203 0 298.32 221.57 350.9 143.66C379.6 101.13 214.57 0 214.57 0H-26.3203Z" fill="#F1F2F5"/>
<path d="M2094.28 500.002H1179.76C1181.49 498.302 1396.44 287.072 1527.36 162.672C1530.78 159.435 1535.2 157.461 1539.89 157.076C1544.58 156.69 1549.26 157.916 1553.16 160.552L1600.85 192.852L1616 172.002L1646.87 129.492L1654.11 119.492L1689.49 70.7719C1691.96 67.3795 1695.18 64.6135 1698.91 62.6966C1702.64 60.7796 1706.77 59.7652 1710.97 59.7351C1715.16 59.7049 1719.3 60.6598 1723.06 62.5229C1726.82 64.3861 1730.09 67.1053 1732.6 70.4619C1753.86 98.8119 1774.71 125.802 1795.48 151.972C1887.37 267.772 1977.61 367.672 2094.28 500.002Z" fill="#F3F4F7"/>
<path d="M1480.63 387.371C1480.63 387.371 1470.5 386.051 1476.22 371.961C1481.94 357.871 1412.59 366.571 1395.75 499.961H1179.75C1181.48 498.261 1396.43 287.031 1527.35 162.631C1529.65 160.447 1532.42 158.823 1535.45 157.884C1538.48 156.946 1541.69 156.719 1544.82 157.221C1544.82 157.221 1560.76 173.121 1553.28 182.221C1545.8 191.321 1522.01 190.031 1522.89 197.511C1523.77 204.991 1554.64 196.761 1560.43 210.341C1566.05 223.491 1542.54 246.441 1530.16 279.801C1511.55 330.001 1495.31 387.761 1480.63 387.371Z" fill="white"/>
<path d="M1677.91 154.859C1698.17 141.209 1689.36 170.709 1703.01 166.749C1716.66 162.789 1736.55 89.3886 1709.01 59.8086C1705.16 60.1127 1701.41 61.2545 1698.04 63.1544C1694.68 65.0543 1691.76 67.6665 1689.51 70.8086L1654.13 119.529L1646.89 129.529L1616 171.999C1627.73 178.259 1639.11 184.839 1650 191.539C1657.7 177.379 1667.85 161.639 1677.91 154.859Z" fill="white"/>
<path d="M1721.78 265.502C1718.36 261.702 1723.56 256.332 1727.48 259.602C1742.41 272.082 1755.94 283.072 1759.82 285.212C1789.48 301.582 1733.59 242.832 1650.02 191.512C1642.28 205.772 1637.02 218.392 1637.02 218.512C1663.02 237.972 1702.02 268.792 1750.14 312.072C1808.84 364.832 1762.32 310.712 1721.78 265.502Z" fill="#E9EBF2"/>
<path d="M1616 172L1600.85 192.87C1600.85 192.87 1613.79 201.18 1637.01 218.54C1637.01 218.42 1642.28 205.8 1650.01 191.54C1639.11 184.81 1627.73 178.23 1616 172Z" fill="#F1F2F5"/>
<path d="M1935.88 500H1663.95V436.59H1904.39L1935.88 450.13V500Z" fill="#F6F7F9"/>
<path d="M1823.81 363.371H1583.37V436.591H1904.39V423.371L1823.81 363.371Z" fill="#E9EBF2"/>
<path d="M1663.95 423.379L1583.36 363.379L1502.78 423.379V499.999H1663.95V423.379Z" fill="white"/>
<path d="M1471.73 500H1502.78V436.59L1471.73 450.13V500Z" fill="white"/>
<path d="M1695 500H1663.95V436.59L1695 450.13V500Z" fill="white"/>
<path d="M1590.13 383.172H1576.59V400.012H1590.13V383.172Z" fill="#F3F4F7"/>
<path d="M1579.18 383.172H1576.59V400.012H1579.18V383.172Z" fill="#E9EBF2"/>
<path d="M1547.68 416.43H1534.14V433.27H1547.68V416.43Z" fill="#F3F4F7"/>
<path d="M1536.73 416.43H1534.14V433.27H1536.73V416.43Z" fill="#E9EBF2"/>
<path d="M1575.42 416.43H1561.88V433.27H1575.42V416.43Z" fill="#F3F4F7"/>
<path d="M1564.47 416.43H1561.88V433.27H1564.47V416.43Z" fill="#E9EBF2"/>
<path d="M1603.16 416.43H1589.62V433.27H1603.16V416.43Z" fill="#F3F4F7"/>
<path d="M1592.21 416.43H1589.62V433.27H1592.21V416.43Z" fill="#E9EBF2"/>
<path d="M1630.9 416.43H1617.36V433.27H1630.9V416.43Z" fill="#F3F4F7"/>
<path d="M1619.95 416.43H1617.36V433.27H1619.95V416.43Z" fill="#E9EBF2"/>
<path d="M1547.68 445.172H1534.14V462.012H1547.68V445.172Z" fill="#F3F4F7"/>
<path d="M1536.73 445.172H1534.14V462.012H1536.73V445.172Z" fill="#E9EBF2"/>
<path d="M1575.42 445.172H1561.88V462.012H1575.42V445.172Z" fill="#F3F4F7"/>
<path d="M1564.47 445.172H1561.88V462.012H1564.47V445.172Z" fill="#E9EBF2"/>
<path d="M1603.16 445.172H1589.62V462.012H1603.16V445.172Z" fill="#F3F4F7"/>
<path d="M1592.21 445.172H1589.62V462.012H1592.21V445.172Z" fill="#E9EBF2"/>
<path d="M1630.9 445.172H1617.36V462.012H1630.9V445.172Z" fill="#F3F4F7"/>
<path d="M1619.95 445.172H1617.36V462.012H1619.95V445.172Z" fill="#E9EBF2"/>
<path d="M1547.68 473.898H1534.14V490.738H1547.68V473.898Z" fill="#F3F4F7"/>
<path d="M1536.73 473.898H1534.14V490.738H1536.73V473.898Z" fill="#E9EBF2"/>
<path d="M1575.42 473.898H1561.88V490.738H1575.42V473.898Z" fill="#F3F4F7"/>
<path d="M1564.47 473.898H1561.88V490.738H1564.47V473.898Z" fill="#E9EBF2"/>
<path d="M1603.16 473.898H1589.62V490.738H1603.16V473.898Z" fill="#F3F4F7"/>
<path d="M1592.21 473.898H1589.62V490.738H1592.21V473.898Z" fill="#E9EBF2"/>
<path d="M1630.9 473.898H1617.36V490.738H1630.9V473.898Z" fill="#F3F4F7"/>
<path d="M1619.95 473.898H1617.36V490.738H1619.95V473.898Z" fill="#E9EBF2"/>
<path d="M1681.12 459.871H1672.39V494.711H1681.12V459.871Z" fill="#F3F4F7"/>
<path d="M1674.06 459.871H1672.39V494.711H1674.06V459.871Z" fill="#E9EBF2"/>
<path d="M1493.97 459.871H1485.24V494.711H1493.97V459.871Z" fill="#F3F4F7"/>
<path d="M1486.91 459.871H1485.24V494.711H1486.91V459.871Z" fill="#E9EBF2"/>
<path d="M1663.95 436.59L1695 450.13H1935.88L1904.39 436.59H1663.95Z" fill="#E9EBF2"/>
<path d="M1973.59 459.871H1768.29V500.001H1922.68H2024.51L1973.59 459.871Z" fill="#E9EBF2"/>
<path d="M1768.29 459.879L1717.38 499.999H1819.2L1768.29 459.879Z" fill="white"/>
<path d="M1773.95 480.328H1762.61V494.438H1773.95V480.328Z" fill="#F3F4F7"/>
<path d="M1764.78 480.328H1762.61V494.438H1764.78V480.328Z" fill="#E9EBF2"/>
<path d="M821.11 500H-174C-174 500 -136.88 462.56 -81.27 401.09C-15.58 328.47 75.92 222.32 162.53 104.71C164.185 102.457 166.343 100.62 168.832 99.3458C171.32 98.0713 174.072 97.3942 176.867 97.368C179.663 97.3418 182.427 97.9673 184.939 99.1948C187.451 100.422 189.643 102.218 191.34 104.44C231.22 156.39 342.76 298.44 399.34 337.9C410.745 329.087 424.61 324.039 439.012 323.457C453.414 322.874 467.64 326.786 479.72 334.65C547.41 378.76 688.83 464.05 821.11 500Z" fill="#F3F4F7"/>
<path d="M103.43 305.46C-12.3498 380 -79.9498 400.7 -81.2598 401.09C-15.5698 328.47 75.9303 222.32 162.54 104.71C164.196 102.457 166.353 100.62 168.842 99.3458C171.33 98.0713 174.082 97.3942 176.878 97.368C179.674 97.3418 182.437 97.9673 184.949 99.1948C187.461 100.422 189.653 102.218 191.35 104.44C191.35 104.44 193.26 130.09 167.83 167.74C142.4 205.39 167.94 204.07 179.61 197.13C191.28 190.19 220.34 230.16 103.43 305.46Z" fill="white"/>
<path d="M399.37 337.899C399.37 337.899 323.37 409.499 238.18 443.189C152.99 476.879 282.18 409.469 323.56 358.969C364.94 308.469 332.31 327.259 319.43 324.289C306.55 321.319 337 279.859 337 279.859L399.37 337.899Z" fill="#E9EBF2"/>
<path d="M99.46 500.002C99.46 500.002 180.46 490.002 258 445.942C325.77 407.432 384.41 352.282 399.37 337.942C399.37 337.942 412.17 324.202 441.87 323.442C471.57 322.682 440.75 340.292 423.57 358.792C406.39 377.292 426.22 375.522 440.31 368.032C454.4 360.542 472.45 372.032 393.63 422.202C314.81 472.372 309.08 474.202 318.77 479.892C328.46 485.582 319.21 500.042 319.21 500.042L99.46 500.002Z" fill="white"/>
<path d="M85.3798 339.242C76.8098 333.752 105.65 319.192 119.05 309.422C153.92 283.992 166.59 272.422 174.4 261.052C180.83 251.682 191.08 257.492 162.67 289.272C132.93 322.552 95.8698 346.002 85.3798 339.242Z" fill="white"/>
<path d="M99.2703 430.109H213.02V470.239H48.3604L99.2703 430.109Z" fill="#E9EBF2"/>
<path d="M213.02 430.109L263.93 470.239V499.999H162.11V470.239L213.02 430.109Z" fill="white"/>
<path d="M203.35 464.672H214.69V450.562H203.35V464.672Z" fill="#F3F4F7"/>
<path d="M212.52 464.672H214.69V450.562H212.52V464.672Z" fill="#E9EBF2"/>
<path d="M203.35 491.199H214.69V477.089H203.35V491.199Z" fill="#F3F4F7"/>
<path d="M212.52 491.199H214.69V477.089H212.52V491.199Z" fill="#E9EBF2"/>
<path d="M231.25 491.199H242.59V477.089H231.25V491.199Z" fill="#F3F4F7"/>
<path d="M240.42 491.199H242.59V477.089H240.42V491.199Z" fill="#E9EBF2"/>
<path d="M175.84 491.199H187.18V477.089H175.84V491.199Z" fill="#F3F4F7"/>
<path d="M185.02 491.199H187.19V477.089H185.02V491.199Z" fill="#E9EBF2"/>
<path d="M162.1 470.238H48.3604V499.998H162.1V470.238Z" fill="#F6F7F9"/>
<path d="M209.9 432.569L259 471.259V499.999H263.93V470.239L213.02 430.109L209.9 432.569Z" fill="#F6F7F9"/>
<path d="M-11.3398 500H144.52V375.75H9.13016L-11.3398 500Z" fill="#F6F7F9"/>
<path d="M82.4602 163.34L25.9502 477.54H136.93L82.4602 163.34Z" fill="#E9EBF2"/>
<path d="M119.28 375.75H144.52L136.93 477.54H119.28V375.75Z" fill="#E9EBF2"/>
<path d="M47.5299 375.75H9.12988L25.1299 477.54H42.7799L47.5299 375.75Z" fill="#E9EBF2"/>
<path d="M136.93 477.539L81.4402 389.469L25.9502 477.539V499.999H136.93V477.539Z" fill="white"/>
<path d="M98.6404 467.999C98.6433 470.319 98.1462 472.613 97.183 474.724C96.2197 476.834 94.8128 478.713 93.0582 480.231C91.3036 481.75 89.2424 482.872 87.015 483.522C84.7876 484.172 82.4462 484.335 80.1504 483.999C83.9814 483.422 87.4786 481.491 90.0061 478.554C92.5336 475.618 93.9236 471.873 93.9236 467.999C93.9236 464.124 92.5336 460.379 90.0061 457.443C87.4786 454.507 83.9814 452.575 80.1504 451.999C82.4462 451.662 84.7876 451.825 87.015 452.475C89.2424 453.125 91.3036 454.247 93.0582 455.766C94.8128 457.284 96.2197 459.163 97.183 461.274C98.1462 463.384 98.6433 465.678 98.6404 467.999Z" fill="#E9EBF2"/>
<path d="M93.9997 468C93.9963 471.889 92.5926 475.646 90.0455 478.584C87.4985 481.522 83.9784 483.445 80.1297 484C76.2987 483.424 72.8015 481.492 70.274 478.556C67.7465 475.62 66.3564 471.874 66.3564 468C66.3564 464.126 67.7465 460.38 70.274 457.444C72.8015 454.508 76.2987 452.576 80.1297 452C83.9775 452.557 87.4964 454.48 90.0431 457.418C92.5898 460.356 93.9942 464.112 93.9997 468Z" fill="#F3F4F7"/>
<path d="M81.4402 389.469H71.9702L32.4002 453.529L25.9502 477.539L81.4402 389.469Z" fill="#F1F2F5"/>
<path d="M82.4596 167.241C84.6135 167.241 86.3596 165.495 86.3596 163.341C86.3596 161.187 84.6135 159.441 82.4596 159.441C80.3057 159.441 78.5596 161.187 78.5596 163.341C78.5596 165.495 80.3057 167.241 82.4596 167.241Z" fill="#E9EBF2"/>
<path d="M17.5596 0C17.5596 0 171.24 95.73 197.23 56.22C207.51 40.58 155 0 155 0H17.5596Z" fill="#F6F7F9"/>
<path d="M332 0C332 0 388.14 51.15 503.08 51.15C618.02 51.15 665.58 20.77 775.89 44.55C886.2 68.33 913.92 0 913.92 0H332Z" fill="#F1F2F5"/>
<path d="M337 72.2411C337 72.2411 289.22 46.4611 299.92 27.2411C310.62 8.02109 356.4 47.8911 364.48 72.7811C372.56 97.6711 337 72.2411 337 72.2411Z" fill="#F1F2F5"/>
<path d="M1522.29 0C1522.29 0 1695.35 57.54 1770.21 36.84C1781.63 33.68 1804.34 24.15 1802.36 0H1522.29Z" fill="#F6F7F9"/>
<path d="M1741.32 12.5903C1741.32 12.5903 1703 -0.869665 1697.81 14.7003C1692.62 30.2703 1737.63 35.5503 1755.46 27.5003C1773.29 19.4503 1741.32 12.5903 1741.32 12.5903Z" fill="#F1F2F5"/>
<path d="M1365.1 58.1608C1365.1 58.1608 1406.48 95.7108 1421.43 78.7508C1436.38 61.7908 1382.05 31.0108 1355.13 31.6908C1328.21 32.3708 1365.1 58.1608 1365.1 58.1608Z" fill="#F6F7F9"/>
<path d="M1480.23 43.8482C1482.1 50.4882 1517.66 66.2982 1563.68 82.7882C1609.7 99.2782 1621.89 93.9482 1620.87 88.7882C1619.85 83.6282 1585.12 79.7882 1550.47 65.3082C1515.82 50.8282 1476.4 30.2482 1480.23 43.8482Z" fill="#F1F2F5"/>
<path d="M1735.4 106.432C1735.77 108.621 1736 110.832 1736.09 113.052C1736.15 114.152 1736.15 115.242 1736.17 116.332C1736.19 117.422 1736.11 118.512 1736.09 119.602C1735.88 123.976 1735.3 128.325 1734.36 132.602C1733.45 136.881 1732.11 141.058 1730.36 145.072C1728.63 149.074 1726.41 152.848 1723.76 156.312C1723.6 156.52 1723.37 156.663 1723.11 156.716C1722.86 156.768 1722.59 156.726 1722.36 156.597C1722.13 156.468 1721.96 156.261 1721.87 156.014C1721.78 155.767 1721.78 155.496 1721.88 155.252V155.172C1722.28 154.172 1722.67 153.241 1723.09 152.291L1723.69 150.871L1724.19 149.401C1724.51 148.401 1724.9 147.482 1725.19 146.502C1725.48 145.522 1725.75 144.502 1726.04 143.552C1727.12 139.612 1727.93 135.603 1728.45 131.552C1728.97 127.505 1729.3 123.442 1729.45 119.362C1729.51 117.362 1729.55 115.292 1729.53 113.252C1729.51 111.212 1729.45 109.132 1729.39 107.252V107.082C1729.31 106.286 1729.54 105.49 1730.05 104.868C1730.55 104.246 1731.28 103.85 1732.08 103.767C1732.87 103.683 1733.67 103.919 1734.29 104.422C1734.91 104.926 1735.31 105.656 1735.39 106.451L1735.4 106.432Z" fill="white"/>
<path d="M1709 190.441C1710.77 189.703 1712.48 188.809 1714.1 187.771C1714.91 187.221 1715.73 186.721 1716.49 186.121L1717.65 185.261L1718.76 184.321C1721.67 181.825 1724.28 178.992 1726.53 175.881C1727.63 174.316 1728.66 172.694 1729.59 171.021C1730.04 170.171 1730.59 169.391 1730.97 168.501L1732.2 165.891C1732.62 165.027 1733 164.139 1733.32 163.231L1734.39 160.541C1735.05 158.721 1735.58 156.841 1736.25 155.011L1736.34 154.761C1736.59 154.095 1737.09 153.55 1737.73 153.237C1738.37 152.925 1739.1 152.868 1739.78 153.078C1740.47 153.288 1741.04 153.75 1741.39 154.369C1741.74 154.989 1741.85 155.719 1741.68 156.411C1741.17 158.451 1740.61 160.481 1740.01 162.501L1738.87 165.501C1738.51 166.504 1738.09 167.482 1737.61 168.431L1736.18 171.281C1735.71 172.281 1735.08 173.111 1734.54 174.031C1733.4 175.841 1732.15 177.578 1730.79 179.231C1728.03 182.508 1724.82 185.371 1721.25 187.731C1717.7 190.129 1713.7 191.789 1709.49 192.611C1709.35 192.637 1709.2 192.635 1709.06 192.605C1708.92 192.575 1708.79 192.517 1708.67 192.435C1708.55 192.353 1708.45 192.249 1708.38 192.128C1708.3 192.008 1708.25 191.873 1708.22 191.731C1708.17 191.486 1708.21 191.231 1708.33 191.012C1708.45 190.793 1708.65 190.623 1708.88 190.531L1709 190.441Z" fill="white"/>
<path d="M1656.07 272.778C1656.07 272.778 1668.96 285.848 1708.92 281.708C1708.92 281.708 1686.64 277.098 1676.24 264.398L1656.07 272.778Z" fill="#000D1A"/>
<path d="M1651 267.341C1651 267.341 1637.83 248.101 1663.8 230.891C1663.8 230.891 1653.3 247.641 1666.28 259.061L1651 267.341Z" fill="#000D1A"/>
<path d="M1659.15 270.109C1659.15 271.417 1658.76 272.693 1658.02 273.775C1657.29 274.857 1656.25 275.694 1655.03 276.178C1653.82 276.662 1652.49 276.772 1651.21 276.492C1649.93 276.213 1648.77 275.557 1647.87 274.609C1647.25 273.964 1646.78 273.198 1646.47 272.359C1646.38 272.131 1646.31 271.897 1646.26 271.659C1646.04 270.76 1646.01 269.824 1646.18 268.912C1646.35 268.001 1646.7 267.136 1647.23 266.374C1647.76 265.612 1648.44 264.971 1649.24 264.493C1650.03 264.015 1650.91 263.711 1651.83 263.601C1652.75 263.491 1653.69 263.578 1654.57 263.855C1655.45 264.133 1656.27 264.596 1656.96 265.212C1657.65 265.828 1658.21 266.584 1658.58 267.43C1658.96 268.276 1659.15 269.193 1659.15 270.119V270.109Z" fill="#4CC3FF"/>
<path d="M1647.87 274.609H1644.86L1646.07 271.999L1646.25 271.629L1646.26 271.649L1646.78 272.599L1647.87 274.609Z" fill="#4CC3FF"/>
<path d="M1679.72 256C1679.72 255.63 1689.72 240.75 1689.72 240.75L1688.43 253.18L1691.1 255.75L1708.27 259.97L1684.41 261.75L1679.72 256Z" fill="#4CC3FF"/>
<path d="M1685.08 261.718C1675.08 268.078 1668.08 271.628 1656.87 273.458C1654.26 271.55 1652.06 269.127 1650.42 266.338C1650.42 266.338 1657.54 257.168 1679.91 255.738L1685.08 261.718Z" fill="#4CC3FF"/>
<path d="M1657.2 267.349C1657.2 268.557 1656.86 269.742 1656.22 270.77C1655.59 271.799 1654.68 272.631 1653.6 273.175C1652.52 273.719 1651.31 273.953 1650.11 273.851C1648.91 273.749 1647.75 273.316 1646.78 272.599L1646.47 272.359C1646.33 272.249 1646.2 272.129 1646.07 272.009L1646.25 271.639C1645.92 270.302 1646.03 268.897 1646.55 267.623C1647.07 266.349 1647.98 265.272 1649.15 264.546C1650.32 263.82 1651.68 263.481 1653.06 263.579C1654.43 263.676 1655.74 264.205 1656.79 265.089C1657.06 265.811 1657.2 266.577 1657.2 267.349Z" fill="#4CC3FF"/>
<path d="M1774.66 386.876C1782.82 385.723 1789.09 382.399 1788.67 379.451C1788.26 376.504 1781.31 375.051 1773.15 376.204C1764.99 377.358 1758.72 380.682 1759.13 383.629C1759.55 386.576 1766.5 388.03 1774.66 386.876Z" fill="#000D1A"/>
<path d="M1828.79 366.453C1836.94 365.271 1843.21 361.924 1842.78 358.978C1842.35 356.032 1835.4 354.602 1827.24 355.785C1819.09 356.967 1812.82 360.314 1813.25 363.26C1813.68 366.206 1820.63 367.636 1828.79 366.453Z" fill="#000D1A"/>
<path d="M1826.89 363.679L1827.42 367.309C1827.42 367.309 1812.75 369.559 1808.93 372.259C1805.11 374.959 1803.67 381.649 1796.61 382.679C1795.2 382.916 1793.77 382.946 1792.35 382.769C1788.64 382.229 1786.52 379.679 1784.71 374.439C1782.59 368.299 1769.71 365.359 1763.5 363.989L1763.42 359.449L1778.26 363.379C1782.39 364.477 1786.74 364.421 1790.85 363.219C1794.95 362.016 1798.64 359.713 1801.53 356.559C1805.19 352.559 1808.9 348.169 1810.84 344.859L1814.58 346.059L1806.32 357.509C1805.77 358.274 1805.44 359.175 1805.36 360.115C1805.29 361.055 1805.47 361.997 1805.9 362.839C1806.32 363.68 1806.97 364.388 1807.77 364.886C1808.57 365.383 1809.5 365.651 1810.44 365.659C1815.98 365.576 1821.49 364.912 1826.89 363.679Z" fill="#FFBF00"/>
<path d="M1776.32 378.001L1784.42 373.871L1786.99 378.401C1786.99 378.401 1780.99 377.791 1776.99 380.771L1776.32 378.001Z" fill="#FFBF00"/>
<path d="M1777.1 376.801L1772.68 377.441L1773.59 383.726L1778.01 383.086L1777.1 376.801Z" fill="#000D1A"/>
<path d="M1774.97 377.661C1776.19 377.485 1777.14 377.129 1777.11 376.866C1777.07 376.604 1776.05 376.535 1774.83 376.711C1773.61 376.888 1772.65 377.244 1772.69 377.506C1772.73 377.769 1773.75 377.838 1774.97 377.661Z" fill="#000D1A"/>
<path d="M1775.91 384.173C1777.13 383.996 1778.07 383.512 1778.01 383.091C1777.95 382.67 1776.91 382.472 1775.69 382.649C1774.47 382.825 1773.53 383.31 1773.6 383.731C1773.66 384.152 1774.69 384.35 1775.91 384.173Z" fill="#000D1A"/>
<path d="M1830.38 361.88L1825.97 362.52L1826.88 368.804L1831.3 368.164L1830.38 361.88Z" fill="#000D1A"/>
<path d="M1828.25 362.739C1829.46 362.563 1830.42 362.207 1830.38 361.944C1830.35 361.682 1829.33 361.613 1828.11 361.789C1826.89 361.966 1825.93 362.322 1825.97 362.584C1826.01 362.847 1827.03 362.916 1828.25 362.739Z" fill="#000D1A"/>
<path d="M1829.2 369.239C1830.42 369.062 1831.36 368.578 1831.3 368.157C1831.23 367.736 1830.2 367.538 1828.98 367.715C1827.76 367.892 1826.82 368.376 1826.88 368.797C1826.94 369.218 1827.98 369.416 1829.2 369.239Z" fill="#000D1A"/>
<path d="M1814.95 341.532L1810.54 342.172L1811.45 348.456L1815.87 347.816L1814.95 341.532Z" fill="#000D1A"/>
<path d="M1812.84 342.4C1814.05 342.223 1815.01 341.867 1814.97 341.605C1814.94 341.342 1813.92 341.273 1812.7 341.45C1811.48 341.626 1810.52 341.982 1810.56 342.245C1810.6 342.507 1811.62 342.576 1812.84 342.4Z" fill="#000D1A"/>
<path d="M1813.26 355.966C1814.48 355.794 1815.42 355.313 1815.36 354.892C1815.3 354.471 1814.26 354.269 1813.04 354.442C1811.82 354.614 1810.88 355.095 1810.94 355.516C1811 355.937 1812.04 356.139 1813.26 355.966Z" fill="#000D1A"/>
<path d="M1763.53 358.219L1759.12 358.859L1760.03 365.144L1764.44 364.504L1763.53 358.219Z" fill="#000D1A"/>
<path d="M1761.39 359.087C1762.61 358.91 1763.57 358.554 1763.53 358.292C1763.49 358.03 1762.47 357.96 1761.26 358.137C1760.04 358.314 1759.08 358.67 1759.12 358.932C1759.16 359.194 1760.17 359.264 1761.39 359.087Z" fill="#000D1A"/>
<path d="M1762.34 365.591C1763.56 365.414 1764.5 364.93 1764.43 364.509C1764.37 364.088 1763.34 363.89 1762.12 364.067C1760.9 364.243 1759.96 364.728 1760.02 365.149C1760.08 365.57 1761.12 365.768 1762.34 365.591Z" fill="#000D1A"/>
<path d="M1813.09 344.129C1821.24 342.947 1827.51 339.6 1827.08 336.654C1826.65 333.708 1819.69 332.278 1811.54 333.461C1803.38 334.643 1797.12 337.99 1797.55 340.936C1797.97 343.882 1804.93 345.312 1813.09 344.129Z" fill="#000D1A"/>
<path d="M1761.67 361.02C1769.83 359.837 1776.09 356.491 1775.66 353.545C1775.24 350.599 1768.28 349.169 1760.13 350.351C1751.97 351.534 1745.71 354.88 1746.13 357.826C1746.56 360.772 1753.52 362.202 1761.67 361.02Z" fill="#000D1A"/>
<path d="M1796.57 382.68C1795.16 382.916 1793.73 382.946 1792.31 382.77C1791.26 380.581 1790.58 378.232 1790.31 375.82C1790.27 375.353 1790.41 374.89 1790.71 374.526C1791 374.163 1791.43 373.927 1791.89 373.87C1792.12 373.845 1792.36 373.866 1792.58 373.932C1792.8 373.998 1793.01 374.107 1793.19 374.254C1793.37 374.401 1793.53 374.582 1793.64 374.787C1793.75 374.992 1793.82 375.218 1793.84 375.45C1794.05 377.47 1795 381.23 1796.57 382.68Z" fill="#000D1A"/>
<path d="M125.712 382.59C133.782 380.923 139.835 377.209 139.233 374.293C138.631 371.378 131.601 370.366 123.532 372.033C115.462 373.7 109.408 377.414 110.01 380.329C110.612 383.245 117.642 384.257 125.712 382.59Z" fill="#000D1A"/>
<path d="M61.9718 395.75C70.0415 394.083 76.0952 390.369 75.4931 387.454C74.891 384.538 67.861 383.526 59.7913 385.193C51.7215 386.86 45.6678 390.574 46.2699 393.49C46.8721 396.405 53.902 397.417 61.9718 395.75Z" fill="#000D1A"/>
<path d="M108.51 380.69C107.569 380.624 106.665 380.3 105.895 379.755C105.126 379.21 104.521 378.463 104.146 377.598C103.772 376.732 103.642 375.78 103.771 374.846C103.901 373.912 104.284 373.031 104.88 372.3L113.83 361.38L110.17 360C108.04 363.19 104.07 367.35 100.17 371.12C97.6171 373.578 94.5398 375.424 91.1699 376.52C87.6477 376.843 84.0983 376.361 80.7899 375.11C75.7199 373.2 70.4299 370.95 67.2099 368.86L64.4099 371.63L76.9999 378.06C77.8336 378.497 78.5319 379.154 79.0191 379.96C79.5064 380.765 79.7639 381.689 79.7639 382.63C79.7639 383.571 79.5064 384.495 79.0191 385.3C78.5319 386.106 77.8336 386.763 76.9999 387.2C72.0062 389.632 66.7708 391.532 61.3799 392.87L62.5499 396.34C62.5499 396.34 76.6499 391.75 81.2799 392.43C85.4799 393.06 89.3999 397.43 95.1199 396.6L95.6199 396.5C101.21 395.01 103.07 389.42 106.67 387.19C110.67 384.73 125.43 383.36 125.43 383.36L125.12 379.71C119.633 380.618 114.066 380.946 108.51 380.69Z" fill="#4CC3FF"/>
<path d="M112.355 363.535C120.424 361.869 126.478 358.154 125.876 355.239C125.274 352.324 118.244 351.311 110.174 352.978C102.104 354.645 96.0506 358.359 96.6528 361.275C97.2549 364.19 104.285 365.202 112.355 363.535Z" fill="#000D1A"/>
<path d="M113.682 358.867L109.314 359.77L110.599 365.988L114.967 365.086L113.682 358.867Z" fill="#000D1A"/>
<path d="M111.606 359.852C112.812 359.603 113.746 359.191 113.692 358.931C113.639 358.672 112.618 358.663 111.411 358.912C110.205 359.161 109.271 359.574 109.325 359.833C109.378 360.093 110.399 360.102 111.606 359.852Z" fill="#000D1A"/>
<path d="M112.934 366.303C114.14 366.054 115.048 365.515 114.962 365.098C114.876 364.682 113.829 364.546 112.622 364.795C111.416 365.044 110.508 365.584 110.594 366C110.68 366.417 111.728 366.552 112.934 366.303Z" fill="#000D1A"/>
<path d="M66.5714 372.235C74.6412 370.568 80.6949 366.853 80.0927 363.938C79.4906 361.023 72.4607 360.011 64.3909 361.677C56.3211 363.344 50.2674 367.059 50.8696 369.974C51.4717 372.889 58.5017 373.901 66.5714 372.235Z" fill="#000D1A"/>
<path d="M67.8795 367.571L63.5117 368.473L64.7962 374.691L69.164 373.789L67.8795 367.571Z" fill="#000D1A"/>
<path d="M65.8019 368.559C67.008 368.31 67.9423 367.898 67.8887 367.638C67.8351 367.379 66.8139 367.37 65.6077 367.619C64.4016 367.868 63.4673 368.281 63.5209 368.54C63.5745 368.8 64.5958 368.809 65.8019 368.559Z" fill="#000D1A"/>
<path d="M67.1399 375.006C68.3461 374.757 69.2541 374.218 69.1681 373.801C69.0821 373.385 68.0346 373.249 66.8284 373.498C65.6223 373.747 64.7143 374.287 64.8003 374.703C64.8863 375.12 65.9338 375.255 67.1399 375.006Z" fill="#000D1A"/>
<path d="M93.6201 396.909C95.011 396.642 96.3574 396.181 97.6201 395.539C97.8686 393.122 97.7029 390.681 97.1301 388.319C97.0174 387.863 96.7281 387.47 96.3258 387.228C95.9236 386.985 95.4413 386.912 94.9851 387.024C94.5289 387.137 94.1362 387.426 93.8934 387.829C93.6505 388.231 93.5774 388.713 93.6901 389.169C94.2101 391.149 94.6301 394.999 93.6201 396.909Z" fill="#000D1A"/>
<path d="M63.2799 391.086L58.9121 391.988L60.1966 398.207L64.5644 397.305L63.2799 391.086Z" fill="#000D1A"/>
<path d="M61.2121 392.071C62.4182 391.822 63.3525 391.41 63.2989 391.15C63.2453 390.89 62.224 390.882 61.0179 391.131C59.8117 391.38 58.8774 391.792 58.9311 392.052C58.9847 392.312 60.0059 392.32 61.2121 392.071Z" fill="#000D1A"/>
<path d="M62.5403 398.51C63.7465 398.261 64.6545 397.722 64.5685 397.305C64.4825 396.889 63.435 396.753 62.2288 397.002C61.0227 397.251 60.1147 397.791 60.2007 398.207C60.2867 398.624 61.3342 398.759 62.5403 398.51Z" fill="#000D1A"/>
<path d="M127.02 377.926L122.652 378.828L123.937 385.047L128.305 384.145L127.02 377.926Z" fill="#000D1A"/>
<path d="M124.943 378.911C126.149 378.662 127.083 378.249 127.029 377.99C126.976 377.73 125.954 377.722 124.748 377.971C123.542 378.22 122.608 378.632 122.662 378.892C122.715 379.152 123.736 379.16 124.943 378.911Z" fill="#000D1A"/>
<path d="M126.271 385.35C127.477 385.101 128.385 384.561 128.299 384.145C128.213 383.728 127.165 383.593 125.959 383.842C124.753 384.091 123.845 384.631 123.931 385.047C124.017 385.464 125.065 385.599 126.271 385.35Z" fill="#000D1A"/>
<path d="M232.46 233.138C232.46 233.138 215.99 234.428 195.94 225.918C195.036 225.542 194.265 224.902 193.73 224.081C193.195 223.261 192.92 222.298 192.94 221.318C193.02 217.128 193.51 208.828 188.69 200.158L199.1 191.488L208.82 216.868C208.82 216.868 229.64 223.998 232.46 233.138Z" fill="#000D1A"/>
<path d="M167.78 149.82C167.78 149.82 162.45 165.45 165.72 186.99C165.87 187.952 166.305 188.847 166.967 189.56C167.63 190.272 168.491 190.771 169.44 190.99C173.52 191.99 181.53 193.33 188.73 200.15L199.62 192.64L177.69 176.7C177.69 176.7 175.91 154.81 167.78 149.82Z" fill="#000D1A"/>
<path d="M200.48 194.899L209.35 190.069C209.64 189.911 209.892 189.694 210.092 189.431C210.291 189.168 210.432 188.866 210.506 188.545C210.579 188.223 210.584 187.89 210.519 187.567C210.455 187.243 210.322 186.937 210.13 186.669L206.72 181.879C206.531 181.612 206.287 181.388 206.004 181.222C205.722 181.055 205.408 180.95 205.083 180.913C204.757 180.876 204.427 180.909 204.115 181.008C203.803 181.107 203.515 181.271 203.27 181.489L195.61 188.309L200.48 194.899Z" fill="#FFBF00"/>
<path d="M180.79 211.259L182.9 207.849L180.64 207.539C180.64 207.539 179.67 211.059 180.79 211.259Z" fill="#000D1A"/>
<path d="M198.94 198.197C202.544 195.95 204.039 191.841 202.28 189.02C200.52 186.199 196.173 185.734 192.569 187.981C188.965 190.229 187.47 194.338 189.23 197.159C190.989 199.98 195.337 200.445 198.94 198.197Z" fill="#FFBF00"/>
<path d="M191.08 203.549L185.69 205.759C185.69 205.759 183.57 209.009 180.64 207.539C177.71 206.069 179.14 199.949 185.64 195.539L191.08 203.549Z" fill="#000D1A"/>
<path d="M183.16 197.241C183.16 197.241 188.07 189.741 193.77 187.311L177.69 176.711L173.43 192.191C176.872 193.458 180.142 195.155 183.16 197.241Z" fill="#FFBF00"/>
<path d="M189.41 204.239C189.41 204.239 198.35 200.999 201.66 195.789L208.86 216.869L192.14 212.689C191.533 209.783 190.617 206.951 189.41 204.239Z" fill="#FFBF00"/>
<path d="M182.62 196.839C182.62 196.839 187.91 200.769 189.83 205.269L201.6 201.359L201.66 195.789L193.77 187.309L185.13 190.509L182.62 196.839Z" fill="#FFBF00"/>
</svg>
