<svg width="36" height="36" viewBox="0 0 36 36" fill="none" xmlns="http://www.w3.org/2000/svg">
<circle cx="18" cy="18" r="18" fill="#FFBF00"/>
<path fill-rule="evenodd" clip-rule="evenodd" d="M24.0174 11.1132C24.7185 10.8467 25.4632 10.7544 26.1081 10.8982C27.0618 11.1098 27.7094 11.7709 27.9316 12.7581C28.2216 14.047 27.5832 15.5246 26.1341 16.9197C24.9923 18.0185 23.4603 18.9326 21.8428 19.4972C21.1728 20.4503 20.3145 21.2181 19.2259 21.6849C19.3845 22.2697 19.9414 23.9635 21.2879 25H17.9999H14.7121C16.0583 23.9635 16.6155 22.2697 16.7741 21.6849C15.6855 21.2181 14.8275 20.4503 14.1572 19.4974C12.5395 18.9326 11.0077 18.0185 9.86594 16.9197C8.41683 15.5248 7.77839 14.047 8.06839 12.7581C8.29039 11.7709 8.93794 11.1098 9.89171 10.8982C10.5368 10.7544 11.2813 10.8467 11.9824 11.1132C11.9761 10.7311 11.9781 10.3579 11.9888 10H17.9999H24.011C24.0216 10.3579 24.0234 10.7311 24.0174 11.1132ZM9.43105 13.0701C9.25927 13.8334 9.7826 14.8912 10.8306 15.9006C11.4688 16.5151 12.2515 17.0611 13.1037 17.508C12.5115 16.0109 12.195 14.3236 12.0601 12.7079C11.4664 12.3375 10.7455 12.1506 10.1928 12.2736C9.77416 12.3668 9.53194 12.6196 9.43105 13.0701ZM22.8961 17.5082C23.7483 17.0611 24.531 16.5149 25.1692 15.9006C26.2172 14.8915 26.7405 13.8336 26.5687 13.0703C26.4678 12.6199 26.2256 12.3671 25.807 12.2738C25.2543 12.151 24.5334 12.3379 23.9396 12.7082C23.805 14.3238 23.4885 16.0111 22.8961 17.5082ZM14 26H22V28H14V26Z" fill="#08112B"/>
</svg>
