<svg viewBox="0 0 16 10" xmlns="http://www.w3.org/2000/svg">
<path d="M8.63443 4.83354C8.25382 5.10485 7.74322 5.10423 7.36393 4.83292L0.63947 0.0656392C0.752122 0.0243803 0.87344 0 1.00076 0H14.9989C15.1269 0 15.2482 0.0250054 15.3609 0.0656392L8.63443 4.83354Z" fill="white"/>
<path d="M15.8719 0.487229C15.9513 0.621644 15.9999 0.77294 15.9999 0.936739V9.06419C15.9999 9.23299 15.9479 9.38991 15.8646 9.52683L9.50488 5.00046L15.8719 0.487229Z" fill="white"/>
<path d="M0.127994 0.487229C0.0493312 0.621644 0 0.773565 0 0.937364V9.06481C0 9.23361 0.0513311 9.38991 0.135327 9.52683L6.49505 5.00109L0.127994 0.487229Z" fill="white"/>
<path d="M7.99966 5.66085C8.32828 5.66085 8.65557 5.5652 8.9442 5.38516L15.342 9.93864C15.2347 9.97615 15.1201 9.99928 14.9987 9.99928H1.00056C0.879244 9.99928 0.763926 9.97553 0.655273 9.93864L7.05444 5.38516C7.34441 5.56582 7.67103 5.66085 7.99966 5.66085Z" fill="white"/>
</svg>
