<svg xmlns="http://www.w3.org/2000/svg" viewBox="0 0 12 22"><defs/><path d="M11.8809 6.5725c-.0419-.04831-.0933-.08716-.1509-.11401-.0577-.02684-.1202-.0411-.1837-.04182H8.13759v-1.2925c0-.25667.05425-.55.46113-.55h2.71248c.0596.00257.1189-.00845.1737-.03225.0548-.0238.1036-.05977.1428-.10525.0797-.08382.125-.19525.1266-.31167V.458333c0-.121557-.0476-.238136-.1324-.32409C11.5371.0482886 11.4221 0 11.3022 0H7.38712C3.04707 0 2.71253 3.75833 2.71253 4.90417v1.5125H.452088c-.119901 0-.234891.04829-.319674.13424C.0476307 6.63686 0 6.75344 0 6.875v3.6667c0 .1215.0476307.2381.132414.3241.084783.0859.199773.1342.319674.1342H2.71253v10.5417c0 .1215.04763.2381.13241.3241.08478.0859.19978.1342.31968.1342H7.6855c.1199 0 .23489-.0483.31967-.1342.08479-.086.13242-.2026.13242-.3241V11h3.02901c.1124.0006.2211-.0414.3047-.1177.0836-.0762.1361-.1814.1474-.2948l.3797-3.66667c.0052-.06314-.0025-.1267-.0227-.18665-.0203-.05996-.0525-.11501-.0948-.16168z"/></svg>
