<svg viewBox="0 0 12 20" xmlns="http://www.w3.org/2000/svg">
<path d="M10.9986 6.23701C10.9631 6.19595 10.9194 6.16293 10.8704 6.14011C10.8214 6.11729 10.7682 6.10518 10.7143 6.10456H7.81685V5.00593C7.81685 4.78777 7.86296 4.53843 8.20881 4.53843H10.5145C10.5651 4.54062 10.6155 4.53125 10.6621 4.51102C10.7086 4.49079 10.7501 4.46022 10.7835 4.42156C10.8512 4.35031 10.8897 4.2556 10.891 4.15664V1.03997C10.891 0.93665 10.8506 0.837558 10.7785 0.764497C10.7064 0.691436 10.6087 0.650391 10.5068 0.650391H7.17895C3.48991 0.650391 3.20555 3.84497 3.20555 4.81893V6.10456H1.28418C1.18226 6.10456 1.08452 6.1456 1.01245 6.21866C0.940388 6.29172 0.899902 6.39082 0.899902 6.49414V9.61081C0.899902 9.71413 0.940388 9.81322 1.01245 9.88628C1.08452 9.95934 1.18226 10.0004 1.28418 10.0004H3.20555V18.9608C3.20555 19.0641 3.24604 19.1632 3.3181 19.2363C3.39017 19.3093 3.48791 19.3504 3.58983 19.3504H7.43258C7.53449 19.3504 7.63223 19.3093 7.7043 19.2363C7.77636 19.1632 7.81685 19.0641 7.81685 18.9608V10.0004H10.3915C10.4871 10.0009 10.5794 9.96522 10.6505 9.90039C10.7215 9.83555 10.7662 9.74619 10.7758 9.64976L11.0986 6.5331C11.103 6.47942 11.0964 6.4254 11.0792 6.37444C11.062 6.32348 11.0346 6.27668 10.9986 6.23701Z" fill="white"/>
</svg>
