<svg viewBox="0 0 24 23" xmlns="http://www.w3.org/2000/svg">
<path d="M12 0.949219C5.89483 0.949219 0.949951 5.82741 0.949951 11.8438C0.949951 16.6583 4.11578 20.741 8.50539 22.1804C9.05789 22.283 9.26047 21.9458 9.26047 21.6566C9.26047 21.3979 9.25126 20.7123 9.24666 19.8042C6.17292 20.461 5.52465 18.3425 5.52465 18.3425C5.02188 17.0851 4.29534 16.7488 4.29534 16.7488C3.29439 16.0734 4.37269 16.0873 4.37269 16.0873C5.48229 16.1631 6.06518 17.2098 6.06518 17.2098C7.05047 18.8756 8.6518 18.3943 9.28349 18.1162C9.38294 17.4113 9.66748 16.9318 9.98333 16.6592C7.52931 16.3867 4.95005 15.4498 4.95005 11.2756C4.95005 10.0866 5.37824 9.11464 6.08728 8.35242C5.96297 8.0771 5.59003 6.96935 6.18397 5.46893C6.18397 5.46893 7.10941 5.17698 9.22272 6.58593C10.1067 6.34387 11.046 6.22376 11.9852 6.21822C12.9245 6.22376 13.8637 6.34387 14.7477 6.58593C16.8472 5.17698 17.7727 5.46893 17.7727 5.46893C18.3666 6.96935 17.9937 8.0771 17.8832 8.35242C18.5876 9.11464 19.0158 10.0866 19.0158 11.2756C19.0158 15.4609 16.4328 16.382 13.9742 16.65C14.361 16.977 14.7201 17.645 14.7201 18.6659C14.7201 20.1238 14.7063 21.2953 14.7063 21.6492C14.7063 21.9347 14.8997 22.2756 15.466 22.1666C19.8869 20.7364 23.0499 16.6509 23.0499 11.8438C23.0499 5.82741 18.1023 0.949219 12 0.949219Z" fill="white"/>
</svg>
