<svg xmlns="http://www.w3.org/2000/svg" viewBox="0 0 26 25"><defs/><path d="M13 0C5.8175 0 0 5.73904 0 12.8172c0 5.664 3.7245 10.4672 8.88875 12.1607.65.1206.88833-.2761.88833-.6163 0-.3044-.01083-1.1109-.01625-2.1793-3.61616.7728-4.37883-1.7196-4.37883-1.7196-.5915-1.4793-1.44625-1.8749-1.44625-1.8749-1.17758-.7946.091-.7783.091-.7783 1.30542.0891 1.99117 1.3206 1.99117 1.3206 1.15916 1.9598 3.04308 1.3935 3.78625 1.0663.117-.8293.45173-1.3934.82333-1.7141-2.88708-.3206-5.9215-1.4228-5.9215-6.3336 0-1.3989.50375-2.54232 1.33792-3.43905-.14625-.32391-.585-1.62715.11375-3.39234 0 0 1.08875-.34347 3.575 1.31411 1.04003-.28478 2.14503-.42608 3.25003-.4326 1.105.00652 2.21.14782 3.25.4326 2.47-1.65758 3.5587-1.31411 3.5587-1.31411.6988 1.76519.26 3.06843.13 3.39234.8288.89673 1.3325 2.04015 1.3325 3.43905 0 4.9239-3.0387 6.0075-5.9312 6.3228.455.3847.8775 1.1706.8775 2.3717 0 1.7152-.0163 3.0934-.0163 3.5097 0 .3359.2275.7369.8938.6087C22.2788 23.279 26 18.4725 26 12.8172 26 5.73904 20.1793 0 13 0z"/></svg>
