<svg viewBox="0 0 22 20" xmlns="http://www.w3.org/2000/svg">
<path d="M11.0011 19.3973L10.9992 19.3947L11.0001 19.3975L1.12079 12.2195C0.987939 12.123 0.889061 11.9868 0.838328 11.8306C0.787596 11.6744 0.787615 11.5062 0.838382 11.35L4.24216 0.875542C4.3585 0.517267 4.86531 0.517267 4.98166 0.875542L7.24496 7.84088L7.24531 7.83449H14.7563L17.0186 0.872222C17.135 0.513947 17.6418 0.513947 17.7581 0.872222L20.0205 7.83449H20.0216L21.1627 11.3471C21.2135 11.5033 21.2135 11.6716 21.1627 11.8278C21.112 11.984 21.0131 12.1201 20.8803 12.2167L11.0023 19.3968L11.0011 19.3973Z" fill="white"/>
</svg>
