<svg xmlns="http://www.w3.org/2000/svg" viewBox="0 0 20 20"><defs/><path d="M14.5833 0H5.41667C3.98075.00220401 2.60428.573595 1.58894 1.58894.573595 2.60428.00220401 3.98075 0 5.41667v9.16663c.00220401 1.4359.573595 2.8124 1.58894 3.8278C2.60428 19.4264 3.98075 19.9978 5.41667 20h9.16663c1.4359-.0022 2.8124-.5736 3.8278-1.5889 1.0153-1.0154 1.5867-2.3919 1.5889-3.8278V5.41667c-.0022-1.43592-.5736-2.81239-1.5889-3.82773C17.3957.573595 16.0192.00220401 14.5833 0zM10 14.5833c-.9065 0-1.79264-.2688-2.54636-.7724-.75373-.5036-1.34119-1.2194-1.68809-2.0569-.3469-.8375-.43766-1.75908-.26082-2.64816.17685-.88908.61337-1.70576 1.25436-2.34675.64099-.64099 1.45767-1.07751 2.34675-1.25436.88908-.17684 1.81066-.08608 2.64816.26082.8375.3469 1.5533.93436 2.0569 1.68809.5036.75372.7724 1.63986.7724 2.54636 0 1.2156-.4829 2.3814-1.3424 3.2409-.8595.8595-2.0253 1.3424-3.2409 1.3424zm5.4167-9.16663c-.2473 0-.4889-.07331-.6945-.21067-.2056-.13735-.3658-.33257-.4604-.56098-.0946-.22841-.1193-.47974-.0711-.72222.0482-.24247.1673-.4652.3421-.64002.1748-.17481.3975-.29386.64-.34209.2425-.04824.4938-.02348.7222.07113.2284.09461.4237.25482.561.46038.1374.20557.2107.44724.2107.69447 0 .33152-.1317.64946-.3662.88388-.2344.23442-.5523.36612-.8838.36612z"/></svg>
