<svg viewBox="0 0 18 18" xmlns="http://www.w3.org/2000/svg">
<path d="M12.8958 0.5H5.10417C3.88364 0.501873 2.71364 0.987555 1.8506 1.8506C0.987555 2.71364 0.501873 3.88364 0.5 5.10417L0.5 12.8958C0.501873 14.1164 0.987555 15.2864 1.8506 16.1494C2.71364 17.0124 3.88364 17.4981 5.10417 17.5H12.8958C14.1164 17.4981 15.2864 17.0124 16.1494 16.1494C17.0124 15.2864 17.4981 14.1164 17.5 12.8958V5.10417C17.4981 3.88364 17.0124 2.71364 16.1494 1.8506C15.2864 0.987555 14.1164 0.501873 12.8958 0.5V0.5ZM9 12.8958C8.22948 12.8958 7.47626 12.6673 6.83559 12.2393C6.19492 11.8112 5.69559 11.2027 5.40072 10.4909C5.10585 9.779 5.0287 8.99568 5.17902 8.23996C5.32935 7.48424 5.70039 6.79007 6.24523 6.24523C6.79007 5.70039 7.48424 5.32935 8.23996 5.17902C8.99568 5.0287 9.779 5.10585 10.4909 5.40072C11.2027 5.69559 11.8112 6.19492 12.2393 6.83559C12.6673 7.47626 12.8958 8.22948 12.8958 9C12.8958 10.0332 12.4854 11.0242 11.7548 11.7548C11.0242 12.4854 10.0332 12.8958 9 12.8958ZM13.6042 5.10417C13.394 5.10417 13.1886 5.04185 13.0139 4.9251C12.8391 4.80835 12.703 4.64241 12.6225 4.44827C12.5421 4.25412 12.5211 4.04049 12.5621 3.83438C12.6031 3.62828 12.7043 3.43896 12.8529 3.29037C13.0015 3.14177 13.1908 3.04058 13.3969 2.99958C13.603 2.95859 13.8166 2.97963 14.0108 3.06004C14.2049 3.14046 14.3709 3.27665 14.4876 3.45137C14.6044 3.6261 14.6667 3.83152 14.6667 4.04167C14.6667 4.32346 14.5547 4.59371 14.3555 4.79297C14.1562 4.99223 13.886 5.10417 13.6042 5.10417Z" fill="white"/>
</svg>
