<svg viewBox="0 0 14 14" xmlns="http://www.w3.org/2000/svg">
<path d="M13.7083 0H11.9583C11.9199 8.12845e-06 11.8819 0.0075864 11.8465 0.0223007C11.811 0.0370149 11.7789 0.058576 11.7518 0.0857487L6.19246 5.64541C5.25952 5.21941 4.20657 5.13469 3.21752 5.40604C2.22846 5.6774 1.36617 6.28758 0.781265 7.13C0.196355 7.97243 -0.0739993 8.99357 0.0174238 10.015C0.108847 11.0365 0.556236 11.9934 1.28145 12.7186C2.00666 13.4438 2.9636 13.8912 3.98512 13.9826C5.00664 14.074 6.02782 13.8037 6.87028 13.2188C7.71275 12.6339 8.32295 11.7716 8.59431 10.7826C8.86568 9.79361 8.78095 8.7407 8.35493 7.8078L9.70364 6.45857L10.8313 6.83423C10.9259 6.86523 11.0269 6.87148 11.1246 6.85239C11.2224 6.8333 11.3136 6.78951 11.3896 6.72518C11.4657 6.66086 11.524 6.57814 11.559 6.48491C11.594 6.39168 11.6045 6.29104 11.5896 6.19257L11.379 4.78326L11.8025 4.35977L12.6519 4.74593C12.7531 4.79211 12.8653 4.8084 12.9755 4.79288C13.0856 4.77736 13.189 4.73068 13.2735 4.65834C13.358 4.586 13.4201 4.49101 13.4523 4.38457C13.4846 4.27814 13.4858 4.16469 13.4557 4.0576L13.1606 3.00237L13.9148 2.24813C13.9419 2.221 13.9634 2.18879 13.978 2.15336C13.9926 2.11793 14.0001 2.07996 14 2.04164V0.291662C14 0.214309 13.9693 0.140123 13.9146 0.0854259C13.8599 0.0307286 13.7857 0 13.7083 0V0ZM4.08307 10.7915C4.08307 10.9646 4.03175 11.1337 3.9356 11.2776C3.83946 11.4215 3.7028 11.5337 3.54291 11.5999C3.38302 11.6661 3.20708 11.6834 3.03734 11.6497C2.8676 11.6159 2.71169 11.5326 2.58931 11.4102C2.46694 11.2878 2.3836 11.1319 2.34984 10.9622C2.31608 10.7925 2.3334 10.6165 2.39963 10.4567C2.46586 10.2968 2.57802 10.1601 2.72191 10.064C2.86581 9.96783 3.03499 9.91651 3.20805 9.91651C3.44012 9.91651 3.66269 10.0087 3.82678 10.1728C3.99088 10.3369 4.08307 10.5594 4.08307 10.7915Z" fill="white"/>
</svg>
