<svg viewBox="0 0 17 18" xmlns="http://www.w3.org/2000/svg">
<path d="M2.35269 4.84839C3.45869 4.84839 4.35528 3.9423 4.35528 2.82459C4.35528 1.70687 3.45869 0.800781 2.35269 0.800781C1.24669 0.800781 0.350098 1.70687 0.350098 2.82459C0.350098 3.9423 1.24669 4.84839 2.35269 4.84839Z" fill="white"/>
<path d="M3.98383 6.46743H0.753846C0.530862 6.46743 0.350098 6.64865 0.350098 6.8722V17.396C0.350098 17.6195 0.530862 17.8007 0.753846 17.8007H3.98383C4.20682 17.8007 4.38758 17.6195 4.38758 17.396V6.8722C4.38758 6.64865 4.20682 6.46743 3.98383 6.46743Z" fill="white"/>
<path d="M16.0963 17.8008H13.6739C13.5668 17.8008 13.4641 17.7581 13.3884 17.6822C13.3126 17.6063 13.2701 17.5034 13.2701 17.396V11.3246C13.2701 10.7879 13.0574 10.2731 12.6788 9.89356C12.3002 9.51402 11.7868 9.3008 11.2514 9.3008C10.716 9.3008 10.2025 9.51402 9.8239 9.89356C9.44531 10.2731 9.23263 10.7879 9.23263 11.3246V17.396C9.23263 17.5034 9.19009 17.6063 9.11437 17.6822C9.03865 17.7581 8.93596 17.8008 8.82888 17.8008H6.40639C6.29931 17.8008 6.19661 17.7581 6.12089 17.6822C6.04518 17.6063 6.00264 17.5034 6.00264 17.396V6.87223C6.00264 6.76488 6.04518 6.66193 6.12089 6.58602C6.19661 6.51012 6.29931 6.46747 6.40639 6.46747H8.82888C8.93596 6.46747 9.03865 6.51012 9.11437 6.58602C9.19009 6.66193 9.23263 6.76488 9.23263 6.87223C9.23235 6.94003 9.25279 7.00628 9.29119 7.06208C9.3296 7.11788 9.38413 7.16056 9.44745 7.18436C9.51077 7.20817 9.57984 7.21196 9.64538 7.19523C9.71091 7.17851 9.76977 7.14207 9.81402 7.0908C10.1454 6.74968 10.5444 6.48196 10.9853 6.30488C11.4261 6.1278 11.8992 6.04531 12.3738 6.06271C14.7801 6.06271 16.5001 7.54414 16.5001 10.596V17.396C16.5001 17.5034 16.4576 17.6063 16.3818 17.6822C16.3061 17.7581 16.2034 17.8008 16.0963 17.8008Z" fill="white"/>
</svg>
