<svg xmlns="http://www.w3.org/2000/svg" viewBox="0 0 19 20"><defs/><path d="M2.35599 4.76189c1.30118 0 2.35599-1.06598 2.35599-2.38094S3.65717 0 2.35599 0C1.05481 0 0 1.06599 0 2.38095s1.05481 2.38094 2.35599 2.38094zM4.27498 6.66665H.474998C.212664 6.66665 0 6.87985 0 7.14284V19.5238c0 .263.212664.4762.474998.4762H4.27498c.26234 0 .475-.2132.475-.4762V7.14284c0-.26299-.21266-.47619-.475-.47619zM18.525 20h-2.85c-.126 0-.2468-.0502-.3359-.1395-.089-.0893-.1391-.2104-.1391-.3367V12.381c0-.6315-.2502-1.2371-.6956-1.6836C14.059 10.2509 13.4549 10 12.825 10c-.6299 0-1.2339.2509-1.6793.6974s-.6957 1.0521-.6957 1.6836v7.1428c0 .1263-.05.2474-.1391.3367-.0891.0893-.2099.1395-.33586.1395H7.12505c-.12598 0-.2468-.0502-.33588-.1395-.08908-.0893-.13912-.2104-.13912-.3367V7.14288c0-.12629.05004-.24741.13912-.33671.08908-.0893.2099-.13947.33588-.13947h2.84999c.12596 0 .24676.05017.33586.13947.0891.0893.1391.21042.1391.33671-.0003.07976.0238.15771.0689.22336.0452.06565.1094.11585.1839.14385.0745.02801.1557.03247.2328.0128.0771-.01968.1464-.06256.1984-.12286.3899-.40132.8593-.71629 1.378-.92462.5186-.20832 1.0751-.30538 1.6335-.2849 2.831 0 4.8545 1.74285 4.8545 5.33329v8c0 .1263-.05.2474-.1391.3367-.0891.0893-.2099.1395-.3359.1395z"/></svg>
