<svg viewBox="0 0 12 15" xmlns="http://www.w3.org/2000/svg">
<path d="M10.7368 5.9375H10.2632V4.21875C10.2632 3.09987 9.814 2.02681 9.01451 1.23564C8.21501 0.444474 7.13066 0 6 0C4.86934 0 3.78499 0.444474 2.98549 1.23564C2.18599 2.02681 1.73684 3.09987 1.73684 4.21875V5.9375H1.26316C0.928148 5.9375 0.606858 6.0692 0.36997 6.30362C0.133082 6.53804 0 6.85598 0 7.1875V13.75C0 14.0815 0.133082 14.3995 0.36997 14.6339C0.606858 14.8683 0.928148 15 1.26316 15H10.7368C11.0719 15 11.3931 14.8683 11.63 14.6339C11.8669 14.3995 12 14.0815 12 13.75V7.1875C12 6.85598 11.8669 6.53804 11.63 6.30362C11.3931 6.0692 11.0719 5.9375 10.7368 5.9375ZM6 11.5625C5.75017 11.5625 5.50595 11.4892 5.29823 11.3518C5.0905 11.2145 4.9286 11.0193 4.83299 10.7909C4.73739 10.5624 4.71237 10.3111 4.76111 10.0686C4.80985 9.82616 4.93016 9.60343 5.10681 9.42862C5.28347 9.2538 5.50854 9.13475 5.75357 9.08652C5.9986 9.03829 6.25258 9.06304 6.48339 9.15765C6.7142 9.25226 6.91148 9.41248 7.05028 9.61804C7.18907 9.8236 7.26316 10.0653 7.26316 10.3125C7.26316 10.644 7.13007 10.962 6.89319 11.1964C6.6563 11.4308 6.33501 11.5625 6 11.5625ZM8.68421 5.625C8.68421 5.70788 8.65094 5.78737 8.59172 5.84597C8.5325 5.90458 8.45217 5.9375 8.36842 5.9375H3.63158C3.54783 5.9375 3.4675 5.90458 3.40828 5.84597C3.34906 5.78737 3.31579 5.70788 3.31579 5.625V4.21875C3.31579 3.51427 3.59859 2.83864 4.10198 2.3405C4.60536 1.84235 5.2881 1.5625 6 1.5625C6.7119 1.5625 7.39464 1.84235 7.89802 2.3405C8.40141 2.83864 8.68421 3.51427 8.68421 4.21875V5.625Z" fill="white"/>
</svg>
