<?xml version="1.0" encoding="UTF-8" standalone="no"?>
<svg
   width="17"
   height="18"
   viewBox="0 0 15.953846 18"
   fill="none"
   id="svg193"
   sodipodi:docname="mastodon.inline.svg"
   inkscape:version="1.2.2 (b0a8486541, 2022-12-01)"
   version="1.1"
   xmlns:inkscape="http://www.inkscape.org/namespaces/inkscape"
   xmlns:sodipodi="http://sodipodi.sourceforge.net/DTD/sodipodi-0.dtd"
   xmlns="http://www.w3.org/2000/svg"
   xmlns:svg="http://www.w3.org/2000/svg">
  <sodipodi:namedview
     id="namedview195"
     pagecolor="#ffffff"
     bordercolor="#000000"
     borderopacity=".25"
     inkscape:showpageshadow="2"
     inkscape:pageopacity="0"
     inkscape:pagecheckerboard="0"
     inkscape:deskcolor="#d1d1d1"
     showgrid="false"
     inkscape:zoom="8.08"
     inkscape:cx="-5.0742574"
     inkscape:cy="11.819307"
     inkscape:window-width="1920"
     inkscape:window-height="1016"
     inkscape:window-x="0"
     inkscape:window-y="0"
     inkscape:window-maximized="1"
     inkscape:current-layer="svg193" />
  <path
     id="path182"
     style="fill:#ffffff;fill-opacity:1;stroke-width:0.264536"
     d="m 7.823317,0.40262454 c -2.8272537,0 -3.4334908,0.17394991 -3.7555366,0.22162243 C 2.2121358,0.89855843 0.51742962,2.2068674 0.10627937,4.0762572 c -0.19775824,0.9206376 -0.21981717,1.9412334 -0.1830794,2.8774783 0.05237098,1.3426518 0.06355027,2.6821399 0.18548834,4.0193155 0.0842991,0.888233 0.230918,1.770323 0.43963145,2.637789 0.39082793,1.602108 1.97305024,2.934571 3.52307404,3.478509 1.6595126,0.567244 3.4439132,0.661659 5.1539263,0.27221 0.188111,-0.04375 0.3742405,-0.09511 0.557669,-0.152968 0.4158239,-0.132056 0.9030839,-0.278941 1.2610799,-0.538398 0.0049,-0.0036 0.008,-0.0091 0.01084,-0.01446 0.0028,-0.0054 0.0046,-0.01075 0.0048,-0.01686 v -1.29601 c -1.06e-4,-0.0057 -0.0011,-0.01173 -0.0036,-0.01686 -0.0025,-0.0051 -0.0063,-0.0097 -0.01084,-0.01325 -0.0045,-0.0035 -0.01008,-0.006 -0.01566,-0.0072 -0.0056,-0.0012 -0.0113,-8.2e-5 -0.01686,0.0012 -1.0956007,0.261678 -2.2183919,0.392311 -3.3448117,0.390248 -1.9384919,0 -2.4596042,-0.920295 -2.6088816,-1.303236 -0.1200198,-0.330961 -0.1959921,-0.675487 -0.2264403,-1.026208 -3.175e-4,-0.0059 2.86e-5,-0.01267 0.00241,-0.01807 0.00238,-0.0054 0.00626,-0.0095 0.01084,-0.01325 0.00456,-0.0037 0.00989,-0.006 0.015658,-0.0072 0.00574,-0.0013 0.012357,-0.0015 0.018067,0 1.0773223,0.25988 2.1811344,0.390539 3.2894069,0.390248 0.2665198,0 0.5332209,9.86e-4 0.7997679,-0.006 1.1146208,-0.03127 2.2891038,-0.08938 3.3857638,-0.303526 0.02735,-0.0055 0.05485,-0.0098 0.07829,-0.01686 1.729801,-0.332151 3.375053,-1.374536 3.542346,-4.0144979 0.0062,-0.1039366 0.02289,-1.0881875 0.02289,-1.196039 7.4e-4,-0.3665405 0.117162,-2.6000085 -0.01807,-3.972341 C 15.731428,2.3624406 14.121188,0.90637546 12.212404,0.62424697 11.890358,0.57657445 10.670252,0.40262454 7.8437929,0.40262454 Z M 5.4649653,3.2162658 c 0.930954,0 1.6340085,0.3580894 2.1030044,1.0731826 L 8.0208504,5.0482643 8.473731,4.2894484 C 8.9427263,3.5743552 9.6461366,3.2162658 10.57553,3.2162658 c 0.803554,0 1.452073,0.2825179 1.947628,0.8334931 0.478387,0.5517423 0.717188,1.2971609 0.716659,2.2354958 V 10.87549 H 11.421068 V 6.4201553 c 0,-0.9378323 -0.390242,-1.4164564 -1.185199,-1.4164564 -0.8738932,0 -1.3116668,0.5662641 -1.3116668,1.6838486 V 9.1253942 H 7.1162935 V 6.6875475 c 0,-1.1175845 -0.4389786,-1.6838486 -1.3128722,-1.6838486 -0.7902479,0 -1.1851982,0.4786241 -1.1851982,1.4164564 V 10.87549 H 2.8006782 V 6.2852547 c 0,-0.9378323 0.2389748,-1.6832244 0.717864,-2.2354958 C 4.0125627,3.4987837 4.6606439,3.2162658 5.4649653,3.2162658 Z" />
  <defs
     id="defs191">
    <linearGradient
       id="paint0_linear_89_8"
       x1="30.5"
       y1="0"
       x2="30.5"
       y2="65"
       gradientUnits="userSpaceOnUse"
       gradientTransform="scale(0.42896221)">
      <stop
         stop-color="#6364ff"
         id="stop186" />
      <stop
         offset="1"
         stop-color="#563acc"
         id="stop188" />
    </linearGradient>
  </defs>
</svg>
