<svg width="120" height="120" viewBox="0 0 120 120" fill="none" xmlns="http://www.w3.org/2000/svg">
<path d="M78.3294 50.1914C78.3294 47.2467 74.9064 45.6038 72.6095 47.4525C65.8424 52.8999 65.6484 56.4844 60.0013 56.4844C54.3517 56.4844 54.2202 52.9479 47.3934 47.4525C45.0993 45.6063 41.6734 47.2423 41.6734 50.1914C41.6734 61.8063 33.4023 64.0481 33.4023 77.5008C33.4023 78.6349 33.9496 79.6997 34.8719 80.3597C34.9975 80.4497 35.3802 80.7234 35.429 81.7498C36.1865 97.5312 43.6326 104.229 37.7085 110.348C36.0393 112.072 36.5523 114.931 38.7194 115.966C44.0901 118.53 51.8472 120 60.0013 120C68.1611 120 75.9184 118.529 81.2842 115.965C83.4484 114.931 83.9643 112.073 82.2941 110.348C76.3729 104.232 83.8164 97.523 84.5739 81.7481C84.6224 80.7234 85.0051 80.4497 85.1308 80.3597C86.0533 79.6997 86.6003 78.6349 86.6003 77.5008C86.6003 64.0697 78.3294 61.7843 78.3294 50.1914Z" fill="#D1D5E0"/>
<path d="M94.2676 30.3656C93.3781 11.0505 79.1708 0 60.0012 0C40.8289 0 26.6244 11.0531 25.7349 30.3661C24.6577 53.8029 8.43522 64.3587 18.4726 86.5861C19.963 89.8858 29.8233 91.8286 29.0138 83.7082C28.7061 80.6147 33.3427 79.2607 34.8655 80.3552C37.186 82.0247 40.4335 80.3616 40.4335 77.501C40.4335 66.4781 48.7046 64.1189 48.7046 50.1916C48.7046 49.1306 48.2253 48.1261 47.4005 47.4586C46.2565 46.5328 44.8721 45.4941 43.2837 44.3695C44.3431 44.1066 45.4442 43.8607 46.5561 43.638C49.3051 43.0882 50.3323 39.6893 48.3554 37.7079C46.9981 36.3473 46.1879 34.0425 46.1879 31.5424C46.1879 28.1613 47.99 24.3799 50.4017 24.3799C52.8134 24.3799 54.6155 28.1613 54.6155 31.5424C54.6155 33.1552 54.282 34.6823 53.6637 35.9484C50.6909 37.9303 52.2512 42.6206 55.8425 42.3839C58.5755 42.2039 61.2347 42.1912 64.1605 42.3839C67.7513 42.619 69.312 37.9303 66.3392 35.9484C65.7209 34.6823 65.3876 33.1552 65.3876 31.5424C65.3876 28.1613 67.1898 24.3799 69.6015 24.3799C72.0132 24.3799 73.8153 28.1613 73.8153 31.5424C73.8153 34.0425 73.0051 36.3473 71.6478 37.7079C69.6678 39.6923 70.7023 43.0889 73.4471 43.638C74.5583 43.8605 75.6584 44.1063 76.7194 44.3695C75.1322 45.4931 73.7471 46.5326 72.6026 47.4586C71.7776 48.1261 71.2986 49.1304 71.2986 50.1916C71.2986 64.1775 79.5697 66.4284 79.5697 77.501C79.5697 80.3592 82.8153 82.0256 85.1377 80.3552C86.663 79.2588 91.2969 80.6156 90.9894 83.7082C90.1786 91.8424 100.052 89.8605 101.531 86.5861C111.571 64.3509 95.345 53.813 94.2676 30.3656Z" fill="#000D1A"/>
<path d="M69.6013 17.3484C65.4899 17.3484 61.9607 19.9999 60.0013 24.0506C58.042 19.9999 54.5127 17.3484 50.4013 17.3484C44.2804 17.3484 39.1562 23.4667 39.1562 31.5421C39.1562 35.9273 40.6947 39.9846 43.3773 42.6735C44.2049 43.503 45.3948 43.8691 46.5538 43.6385C49.8098 42.9953 52.5217 42.603 56.2687 42.3557C57.3491 42.2847 58.3368 41.7196 58.9457 40.8241C59.339 40.2454 59.6901 39.6278 60.0016 38.9814C60.313 39.6278 60.6641 40.2454 61.0574 40.8241C61.6663 41.7196 62.6538 42.2847 63.7345 42.3557C67.5039 42.6044 70.146 42.9958 73.4493 43.6385C74.6076 43.8691 75.7982 43.5032 76.6258 42.6735C79.3082 39.9846 80.8469 35.9273 80.8469 31.5421C80.8464 23.4063 75.6784 17.3484 69.6013 17.3484Z" fill="white"/>
<path d="M42.4521 81.4144C42.0802 73.59 33.8048 70.8443 27.2876 74.6049C24.4927 76.2174 22.6849 78.7034 22.1402 81.5489C19.188 80.4373 14.1052 78.9563 10.0573 83.0046C6.02695 87.0352 7.42875 91.9711 8.59922 95.0864C1.66617 96.4031 -1.84359 105.001 0.978048 110.72C2.36508 113.532 5.09391 115.238 8.46445 115.4C18.848 115.9 25.4433 119.995 32.2144 119.995C35.9475 119.995 39.4631 118.68 42.7601 115.238C52.238 105.45 43.1763 96.5121 42.4521 81.4144Z" fill="#4CC3FF"/>
<path d="M111.403 95.0865C112.573 91.9712 113.975 87.0352 109.945 83.0047C105.897 78.9568 100.814 80.4373 97.8619 81.549C97.3175 78.7032 95.5095 76.2174 92.7146 74.6049C86.1879 70.8395 77.9213 73.5976 77.5501 81.4128C76.8188 96.6479 67.6329 105.51 77.476 115.475C80.8819 118.883 84.3038 119.995 87.789 119.995C94.5605 119.995 101.154 115.901 111.538 115.4H111.537C114.908 115.238 117.637 113.532 119.024 110.72C121.831 105.031 118.365 96.4084 111.403 95.0865Z" fill="#4CC3FF"/>
<path d="M78.4215 37.5474C66.1461 34.5001 54.2764 34.396 41.5829 37.5469C35.7435 38.9926 34.3124 46.6388 39.2202 50.1078C43.8392 53.3769 45.129 54.7297 47.334 57.0863C50.2916 60.2473 53.35 63.5157 60.0013 63.5157C66.6526 63.5157 69.711 60.2473 72.6685 57.0863C74.8194 54.7873 76.1204 53.4073 80.7824 50.1078C85.6904 46.636 84.2581 38.9923 78.4215 37.5474Z" fill="#4CC3FF"/>
<path d="M70.1155 32.4737C72.1536 32.4737 73.8058 30.8216 73.8058 28.7835C73.8058 26.7454 72.1536 25.0933 70.1155 25.0933C68.0775 25.0933 66.4253 26.7454 66.4253 28.7835C66.4253 30.8216 68.0775 32.4737 70.1155 32.4737Z" fill="#000D1A"/>
<path d="M49.8841 32.4737C51.9221 32.4737 53.5743 30.8216 53.5743 28.7835C53.5743 26.7454 51.9221 25.0933 49.8841 25.0933C47.846 25.0933 46.1938 26.7454 46.1938 28.7835C46.1938 30.8216 47.846 32.4737 49.8841 32.4737Z" fill="#000D1A"/>
</svg>
