<svg viewBox="0 0 16 14" xmlns="http://www.w3.org/2000/svg">
<path d="M14.8645 6.45346L8.69692 0.285875C8.32184 -0.0897916 7.66559 -0.090375 7.28934 0.285875L1.07859 6.49663C0.995174 6.58004 0.97009 6.70546 1.01559 6.81454C1.06051 6.92363 1.16726 6.99479 1.28509 6.99479H2.16009V13.7031C2.16009 13.8641 2.29076 13.9948 2.45176 13.9948H5.95176C6.11276 13.9948 6.24342 13.8641 6.24342 13.7031V8.74479H9.74342V13.7031C9.74342 13.8641 9.87409 13.9948 10.0351 13.9948H13.5351C13.6961 13.9948 13.8268 13.8641 13.8268 13.7031V6.99421H14.7076C14.8797 6.99246 15.0057 6.86588 15.0051 6.70254C15.0045 6.59696 14.9485 6.50479 14.8645 6.45346Z" fill="white"/>
</svg>
