<svg viewBox="0 0 20 16" xmlns="http://www.w3.org/2000/svg">
<path d="M19.2039 3.48534C19.2615 3.43754 19.3047 3.37472 19.3286 3.30387C19.3526 3.23303 19.3564 3.15693 19.3396 3.08405C19.3228 3.01117 19.2861 2.94437 19.2336 2.89109C19.1811 2.8378 19.1148 2.80011 19.0421 2.78223L18.4029 2.62059C18.3447 2.60606 18.2906 2.57881 18.2443 2.54082C18.198 2.50283 18.1607 2.45504 18.1352 2.40091C18.1096 2.34678 18.0964 2.28766 18.0965 2.22781C18.0967 2.16797 18.1101 2.1089 18.1358 2.05487L18.4919 1.33559C18.5255 1.26589 18.5384 1.18801 18.529 1.11121C18.5196 1.0344 18.4884 0.961907 18.4389 0.902328C18.3895 0.84275 18.324 0.798597 18.2502 0.775115C18.1764 0.751633 18.0974 0.74981 18.0226 0.769862L16.4042 1.22244C16.3439 1.24001 16.2804 1.24331 16.2186 1.23209C16.1568 1.22087 16.0984 1.19543 16.0482 1.15779C15.3479 0.633191 14.4961 0.349609 13.6207 0.349609C12.5477 0.349609 11.5186 0.775345 10.7599 1.53316C10.0011 2.29097 9.57489 3.31879 9.57489 4.3905V4.68145C9.57525 4.73108 9.5573 4.77912 9.52447 4.81638C9.49164 4.85365 9.44622 4.87753 9.39688 4.88349C7.12313 5.15019 4.94648 3.99449 2.59991 1.29518C2.54893 1.23903 2.48344 1.198 2.41064 1.17661C2.33783 1.15523 2.26053 1.15431 2.18723 1.17395C2.1212 1.20427 2.06457 1.25178 2.02328 1.31151C1.98198 1.37124 1.95756 1.44097 1.95258 1.51339C1.62847 2.84312 1.75951 4.24295 2.32479 5.48962C2.34152 5.52269 2.34882 5.55971 2.3459 5.59664C2.34298 5.63357 2.32995 5.66899 2.30823 5.69903C2.28651 5.72906 2.25695 5.75255 2.22276 5.76693C2.18858 5.78131 2.1511 5.78603 2.11441 5.78057L1.20815 5.60277C1.14379 5.59243 1.07788 5.59778 1.01604 5.61836C0.954194 5.63894 0.898245 5.67414 0.852953 5.72097C0.807661 5.76779 0.774368 5.82485 0.755907 5.88729C0.737446 5.94974 0.734364 6.01571 0.746924 6.07959C0.816786 6.69983 1.02542 7.29643 1.35737 7.82523C1.68933 8.35404 2.13611 8.8015 2.66464 9.13451C2.69884 9.15105 2.72769 9.17688 2.74787 9.20904C2.76805 9.24121 2.77875 9.27839 2.77875 9.31635C2.77875 9.3543 2.76805 9.39149 2.74787 9.42365C2.72769 9.45581 2.69884 9.48164 2.66464 9.49819L2.23578 9.66791C2.1837 9.68876 2.13653 9.72021 2.09727 9.76025C2.05801 9.80029 2.02752 9.84805 2.00774 9.90049C1.98795 9.95293 1.97931 10.0089 1.98235 10.0649C1.98539 10.1208 2.00005 10.1756 2.0254 10.2255C2.26256 10.7439 2.62204 11.197 3.07302 11.5461C3.524 11.8951 4.05302 12.1298 4.61472 12.2298C4.65378 12.244 4.68752 12.2698 4.71136 12.3038C4.73521 12.3378 4.748 12.3783 4.748 12.4198C4.748 12.4612 4.73521 12.5017 4.71136 12.5357C4.68752 12.5697 4.65378 12.5955 4.61472 12.6097C3.51456 13.0641 2.33391 13.2923 1.14341 13.2805C1.03611 13.259 0.92468 13.281 0.833632 13.3417C0.742583 13.4023 0.679377 13.4966 0.657916 13.6037C0.636456 13.7109 0.6585 13.8222 0.719199 13.9131C0.779898 14.0041 0.87428 14.0672 0.981581 14.0886C3.04296 15.0651 5.28729 15.5966 7.56817 15.6484C9.57445 15.679 11.545 15.1167 13.2323 14.0321C14.6202 13.1067 15.7573 11.8528 16.5423 10.3821C17.3273 8.91132 17.7357 7.26943 17.7313 5.60277V4.89965C17.7317 4.84097 17.745 4.7831 17.7702 4.73006C17.7953 4.67703 17.8318 4.6301 17.8769 4.59255L19.2039 3.48534Z" fill="white"/>
</svg>