<svg xmlns="http://www.w3.org/2000/svg" viewBox="0 0 22 18"><defs/><path d="M21.8283 3.6891c.0677-.05624.1185-.13014.1467-.21349.0282-.08335.0326-.17288.0129-.25862-.0197-.08574-.0629-.16433-.1247-.22702-.0618-.06269-.1398-.10702-.2253-.12807l-.7521-.19016c-.0683-.0171-.1321-.04915-.1865-.09385-.0545-.04469-.0983-.10091-.1284-.16459-.0301-.06369-.0456-.13324-.0454-.20365.0001-.0704.0159-.1399.0462-.20347l.4189-.84621c.0395-.082.0547-.173617.0437-.263973-.0111-.090356-.0479-.175647-.106-.245739-.0582-.070092-.1352-.122037-.2221-.149663-.0868-.027626-.1798-.029771-.2678-.00618l-1.9039.532445c-.0709.02067-.1457.02455-.2184.01135-.0727-.0132-.1413-.04313-.2005-.087412C17.2917.333625 16.2896 0 15.2598 0c-1.2624 0-2.4731.500865-3.3657 1.39241-.8926.89155-1.3941 2.10074-1.3941 3.36158v.34229c.0004.0584-.0207.1149-.0593.15875-.0387.04384-.0921.07194-.1501.07895-2.67504.31376-5.2358-1.04588-7.99648-4.22155-.05997-.06606-.13702-.114321-.22267-.139482C1.9858.947786 1.89486.946702 1.80863.969814c-.07769.035666-.14432.091566-.1929.161836-.04857.07027-.07731.15231-.08317.2375-.3813 1.56439-.22714 3.21125.4379 4.67793.01968.0389.02827.08245.02483.1259-.00344.04345-.01877.08512-.04432.12045-.02555.03534-.06033.06297-.10055.07989-.04021.01692-.08431.02247-.12747.01604L.656759 6.18019c-.075717-.01216-.153254-.00587-.226012.01835-.072757.02421-.138579.06562-.191864.12071-.053284.05508-.092453.12221-.114172.19567-.021719.07346-.025344.15108-.010568.22624.082191.72969.327639 1.43157.718175 2.05369.390532.62212.916162 1.14856 1.537962 1.54035.04024.0194.07417.0498.09792.0877.02374.0378.03633.0816.03633.1262 0 .0447-.01259.0884-.03633.1262-.02375.0379-.05768.0683-.09792.0877l-.50454.1997c-.06127.0245-.11676.0615-.16295.1086-.04619.0471-.08206.1033-.10534.165-.02327.0617-.03345.1276-.02987.1934.00358.0659.02083.1302.05065.1891.27902.6097.70194 1.1428 1.2325 1.5535.53057.4107 1.15294.6867 1.81377.8044.04594.0167.08564.0471.11369.087.02805.04.0431.0877.0431.1365 0 .0488-.01505.0964-.0431.1364-.02805.04-.06775.0704-.11369.087-1.29432.5347-2.68332.8031-4.083898.7892-.126237-.0252-.257334.0007-.36445.072-.107115.0713-.1814764.1822-.20672382.3083-.02524748.1261.00068672.257.07209732.364.0714105.107.1824485.1813.3086855.2065 2.425149 1.1488 5.065539 1.774 7.748929 1.835 2.36036.036 4.67866-.6256 6.66366-1.9016 1.6328-1.0886 2.9706-2.5638 3.8941-4.2941.9235-1.7303 1.4041-3.66193 1.3988-5.62271v-.8272c.0006-.06903.0162-.13712.0458-.19951.0296-.0624.0724-.11761.1256-.16179l1.5612-1.30259z"/></svg>
