<svg viewBox="0 0 16 18" xmlns="http://www.w3.org/2000/svg">
<path d="M11.8124 0.508065C11.9549 0.217742 12.1687 0 12.5251 0H15.0906C15.2331 0 15.3756 0.0725807 15.4469 0.145161C15.5182 0.290323 15.5182 0.435484 15.4469 0.580645L9.81699 10.7419L13.3802 17.4194C13.4515 17.5645 13.4515 17.7097 13.3802 17.8548C13.309 17.9274 13.1664 18 13.0239 18H10.4584C10.1021 18 9.88826 17.7097 9.74573 17.4919L6.11123 10.7419C6.32502 10.4516 11.8124 0.508065 11.8124 0.508065Z" fill="white"/>
<path d="M1.47989 3.69895C1.55116 3.62637 1.69369 3.55379 1.83622 3.55379H4.40174C4.75807 3.55379 4.97186 3.84411 5.11439 4.06185L6.89601 7.18282C6.75348 7.32798 4.11668 12.1183 4.11668 12.1183C3.97415 12.336 3.76036 12.6264 3.40404 12.6264H0.909772C0.767243 12.6264 0.624713 12.5538 0.553449 12.4812C0.482184 12.336 0.482184 12.1909 0.553449 12.0457L3.19024 7.18282L1.47989 4.13443C1.40863 3.98927 1.40863 3.84411 1.47989 3.69895Z" fill="white"/>
</svg>
