<svg viewBox="0 0 20 14" xmlns="http://www.w3.org/2000/svg">
<path fill-rule="evenodd" clip-rule="evenodd" d="M18.7092 1.24043C19.0128 1.54197 19.2315 1.91725 19.3437 2.32889C19.9894 4.91065 19.8402 8.98816 19.3562 11.6696C19.2441 12.0812 19.0253 12.4565 18.7217 12.758C18.4182 13.0596 18.0403 13.2768 17.6259 13.3882C16.1088 13.7992 10.0027 13.7992 10.0027 13.7992C10.0027 13.7992 3.89667 13.7992 2.37956 13.3882C1.96514 13.2768 1.58733 13.0596 1.28376 12.758C0.980184 12.4565 0.761435 12.0812 0.649295 11.6696C-0.000180393 9.099 0.177861 5.019 0.636757 2.34134C0.748897 1.9297 0.967646 1.55442 1.27122 1.25288C1.5748 0.951337 1.9526 0.734051 2.36702 0.622662C3.88413 0.211673 9.99021 0.199219 9.99021 0.199219C9.99021 0.199219 16.0963 0.199219 17.6134 0.610208C18.0278 0.721597 18.4056 0.938882 18.7092 1.24043ZM13.451 6.99919L8.41953 9.91348V4.0849L13.451 6.99919Z" fill="white"/>
</svg>
