<svg xmlns="http://www.w3.org/2000/svg" viewBox="0 0 831.94 800.46"><defs><style>.cls-1{fill:#ffbf00;}.cls-2{fill:#08112b;}.cls-3{fill:#fff;}.cls-4{fill:#4cc3ff;}.cls-5{fill:#73798c;}.cls-6{isolation:isolate;}.cls-7{fill:#f6f7f9;}.cls-8{fill:#d3d6de;}.cls-10,.cls-11,.cls-12,.cls-13,.cls-14,.cls-15,.cls-16,.cls-17,.cls-18,.cls-19,.cls-20,.cls-9{fill:none;}.cls-12,.cls-9{stroke:#f6f7f9;}.cls-11,.cls-12,.cls-20,.cls-9{stroke-linecap:round;}.cls-9{stroke-linejoin:round;}.cls-10,.cls-11,.cls-17,.cls-20{stroke:#08112b;}.cls-10,.cls-11,.cls-12,.cls-13,.cls-14,.cls-15,.cls-16,.cls-17,.cls-18,.cls-19,.cls-20{stroke-miterlimit:10;}.cls-13,.cls-14,.cls-15{stroke:#4cc3ff;}.cls-14{stroke-dasharray:3.13 3.13;}.cls-15{stroke-dasharray:3 3;}.cls-16,.cls-18,.cls-19{stroke:#fff;}.cls-17,.cls-20{stroke-width:0.75px;}.cls-18{stroke-width:0.5px;}.cls-19{stroke-width:0.76px;}</style></defs><g id="Layer_2" data-name="Layer 2"><g id="illustration"><path class="cls-1" d="M322.62,435.91v23.52c-1.06,0-2.07-.06-3-.12-4.58-.26-7.49-.86-7.54-1.69V438.86a.59.59,0,0,1,0-.13C312.46,437.76,316.59,436.7,322.62,435.91Z"/><rect class="cls-2" x="282.78" y="488.88" width="19.86" height="23.58" transform="translate(585.43 1001.35) rotate(-180)"/><rect class="cls-3" x="265.81" y="488.88" width="16.97" height="23.58" transform="translate(548.6 1001.35) rotate(-180)"/><rect class="cls-2" x="255.88" y="488.88" width="19.86" height="23.58" transform="translate(531.63 1001.35) rotate(-180)"/><rect class="cls-3" x="238.91" y="488.88" width="16.97" height="23.58" transform="translate(494.79 1001.35) rotate(-180)"/><rect class="cls-4" x="263.69" y="493.74" width="4.25" height="13.88" rx="2.12" transform="translate(531.63 1001.35) rotate(-180)"/><rect class="cls-2" x="228.98" y="488.88" width="19.86" height="23.58" transform="translate(477.82 1001.35) rotate(-180)"/><rect class="cls-3" x="212.01" y="488.88" width="16.97" height="23.58" transform="translate(440.99 1001.35) rotate(-180)"/><rect class="cls-4" x="236.79" y="493.74" width="4.25" height="13.88" rx="2.12" transform="translate(477.82 1001.35) rotate(-180)"/><rect class="cls-2" x="202.48" y="488.88" width="19.86" height="23.58" transform="translate(424.82 1001.35) rotate(-180)"/><rect class="cls-3" x="185.51" y="488.88" width="16.97" height="23.58" transform="translate(387.99 1001.35) rotate(-180)"/><rect class="cls-4" x="210.29" y="493.74" width="4.25" height="13.88" rx="2.12" transform="translate(424.82 1001.35) rotate(-180)"/><rect class="cls-2" x="175.85" y="488.88" width="19.86" height="23.58" transform="translate(371.57 1001.35) rotate(-180)"/><rect class="cls-3" x="158.88" y="488.88" width="16.97" height="23.58" transform="translate(334.74 1001.35) rotate(-180)"/><rect class="cls-4" x="183.66" y="493.74" width="4.25" height="13.88" rx="2.12" transform="translate(371.57 1001.35) rotate(-180)"/><polygon class="cls-4" points="306.15 509.86 306.15 530.9 183.22 535.92 152.6 537.12 152.6 512.39 183.22 511.92 306.15 509.86"/><polygon class="cls-3" points="183.22 511.92 183.22 535.92 177.78 536.07 152.6 537.12 152.6 512.39 183.22 511.92"/><path class="cls-2" d="M200.11,535.25l5.42-9.89a11.3,11.3,0,0,1,9.58-5.87l63.66-1.86a11.32,11.32,0,0,1,9.47,4.64l6.7,9.18Z"/><path class="cls-3" d="M140.69,508.8l-72.5-.65a3,3,0,0,1-3-3V401.65a3,3,0,0,1,3.29-3l72.5,6.87a3,3,0,0,1,2.71,3V505.8A3,3,0,0,1,140.69,508.8Z"/><path class="cls-1" d="M195.29,477.61l-17.8-.15a1,1,0,0,1-1-1V430.83a1,1,0,0,1,1.08-1l17.81,1.41a1,1,0,0,1,.92,1v44.36A1,1,0,0,1,195.29,477.61Z"/><rect class="cls-2" x="76.88" y="431" width="1" height="20"/><path class="cls-2" d="M109.15,439c-2.86-3.35-7.6-8.81-8.13-9.19l.24-.33v-.6c.29,0,.56,0,8.65,9.47Z"/><path class="cls-3" d="M446.89,499.46l72.5-.64a3,3,0,0,0,3-3v-95.5a3,3,0,0,0-3.28-3l-72.5,6.87a3,3,0,0,0-2.72,3v89.27A3,3,0,0,0,446.89,499.46Z"/><path class="cls-1" d="M661.46,435.83l-88.52-.12a4,4,0,0,0-4,4v53.5h92.53Z"/><rect class="cls-2" x="421.74" y="658.74" width="10" height="48.59"/><polygon class="cls-2" points="84.82 618.38 84.82 625.73 421.74 664.85 421.74 654.85 84.82 618.38"/><polygon class="cls-2" points="157.02 743.1 157.02 751.85 370.9 800.46 370.9 791.71 157.02 743.1"/><polygon class="cls-4" points="157.02 743.11 387.1 699.75 591.3 730.04 370.9 791.71 157.02 743.11"/><polygon class="cls-2" points="591.3 730.04 591.3 736.09 370.9 800.46 370.9 791.71 591.3 730.04"/><polygon class="cls-5" points="285.29 652.67 362.45 664.81 285.29 652.67 285.29 652.67"/><polygon class="cls-5" points="362.45 664.81 421.74 654.85 421.74 654.85 362.45 664.81"/><polygon class="cls-4" points="421.74 654.85 637.21 623.42 351.52 596.91 84.82 618.4 252.78 636.46 188.41 643.42 269.65 653.32 334.2 645.37 421.74 654.85"/><polygon class="cls-2" points="334.2 655.27 334.2 645.37 269.65 653.32 269.63 663.08 334.2 655.27"/><polygon class="cls-3" points="202.88 605.83 370.94 619.83 370.94 558.16 181.8 552.08 202.88 605.83"/><polygon class="cls-2" points="637.21 623.42 637.21 630.89 421.74 664.85 421.74 654.85 637.21 623.42"/><polygon class="cls-2" points="188.41 643.43 188.41 652.46 269.63 663.34 269.63 653.34 188.41 643.43"/><g class="cls-6"><polygon class="cls-4" points="669.19 347.64 669.19 358.94 408.13 296.96 408.13 279.18 669.19 347.64"/><polygon class="cls-3" points="408.13 279.18 408.13 296.96 46.86 361.55 46.86 349.47 408.13 279.18"/><polygon class="cls-2" points="669.19 358.94 344.65 394.51 46.86 361.55 408.13 296.96 669.19 358.94"/></g><polygon class="cls-4" points="173.65 542.52 370.94 546.83 370.94 558.16 173.53 552.73 173.65 542.52"/><polygon class="cls-3" points="46.86 541.34 308.94 530.83 669.19 538.43 370.94 546.83 176.38 542.32 131.17 543.44 46.86 541.34"/><polygon class="cls-2" points="669.19 538.43 669.19 546.83 370.94 558.16 370.94 546.83 669.19 538.43"/><path class="cls-4" d="M307.44,470.14l3.7,4c.62.66,1.24,1.31,1.86,1.94l.89.9.4.37.1.1-.09,0-.19-.07a1.89,1.89,0,0,0-.67-.1l-1.7.68a15.35,15.35,0,0,0,1.25-1.12l1.24-1.23c.83-.83,1.63-1.67,2.45-2.55l.05-.06a1.29,1.29,0,0,1,1.8-.07,1.31,1.31,0,0,1,.38,1.16,12.72,12.72,0,0,1-1.44,3.89,19.25,19.25,0,0,1-1.08,1.73c-.41.56-.78,1.07-1.29,1.67a1.91,1.91,0,0,1-1.47.68h-.22a2.7,2.7,0,0,1-.85-.14,2.44,2.44,0,0,1-.34-.14,2.75,2.75,0,0,1-.39-.2c-.19-.11-.34-.21-.47-.3s-.47-.34-.67-.5c-.42-.32-.8-.62-1.17-.94-.72-.64-1.42-1.27-2.11-1.91-1.39-1.27-2.71-2.58-4-3.94a2.77,2.77,0,1,1,4-3.83Z"/><path class="cls-4" d="M298.15,474.28c-1.06,1.55-2.15,3.06-3.32,4.53-.58.74-1.17,1.48-1.79,2.22-.3.38-.63.74-1,1.12-.18.19-.37.39-.59.6l-.41.37-.35.26a2.69,2.69,0,0,1-.32.19,3.2,3.2,0,0,1-.81.28l-.26,0a2.26,2.26,0,0,1-2.43-3.11l.57-1.33c.18-.46.38-.91.58-1.36a23.38,23.38,0,0,1,1.44-2.69h0a1.3,1.3,0,0,1,1.8-.4,1.26,1.26,0,0,1,.59.93,15.31,15.31,0,0,1,.05,3.17c-.05.52-.11,1-.19,1.54l-.27,1.56-2.69-3.06a1.84,1.84,0,0,0-.65.21,1,1,0,0,0-.17.1l-.08.05s0-.06.08-.12l.33-.43.75-1c.51-.71,1-1.46,1.51-2.21l3-4.52a2.77,2.77,0,1,1,4.6,3.07Z"/><path class="cls-4" d="M307.86,470.74l-3.14-2.06-5.48-.65-1.48.9a10.24,10.24,0,0,0-4.86,9.95l1.62,13.62h14.24l-.25-16A20,20,0,0,0,307.86,470.74Z"/><path class="cls-7" d="M294.52,492.5c-2,6.91-2.8,23.61-2.28,37.78l2.8.2,8.09-38Z"/><path class="cls-7" d="M308.76,492.5c1.1,11.37-.21,20.87-.3,37.54h-2.58l-6.43-37.54Z"/><path class="cls-1" d="M320.73,471.43a5.26,5.26,0,0,1-1.53,2.12l-1.66-1.87.64-1.35Z"/><circle class="cls-1" cx="319.39" cy="470.98" r="1.41"/><circle class="cls-1" cx="318.34" cy="472.65" r="1.25"/><circle class="cls-1" cx="321.64" cy="469.46" r="0.44"/><path class="cls-1" d="M322.05,469.64a5.19,5.19,0,0,1-1.6,2.28l-.65-1.13s.69-.23,1.44-1.52Z"/><circle class="cls-1" cx="320.35" cy="468.03" r="0.59"/><path class="cls-1" d="M321,468.09a6.91,6.91,0,0,1-1.13,3.53l-1.27-1.18a4.26,4.26,0,0,0,1.22-2.49Z"/><circle class="cls-1" cx="319.34" cy="468.06" r="0.44"/><path class="cls-1" d="M319,467.83a5.23,5.23,0,0,0-.88,2.65l1.29-.15a3.25,3.25,0,0,1,.37-2.06Z"/><circle class="cls-1" cx="317.2" cy="469.99" r="0.44"/><path class="cls-1" d="M316.75,470a5.24,5.24,0,0,0,.52,2.75l1.05-.77a3.17,3.17,0,0,1-.67-2Z"/><path class="cls-1" d="M289.57,472.68a5.2,5.2,0,0,0,.23,2.6l2.38-.75.15-1.5Z"/><circle class="cls-1" cx="290.95" cy="472.97" r="1.41"/><circle class="cls-1" cx="291" cy="474.95" r="1.25"/><circle class="cls-1" cx="289.8" cy="470.52" r="0.44"/><path class="cls-1" d="M289.35,470.46a5.22,5.22,0,0,0,.21,2.78l1.14-.64a3.18,3.18,0,0,1-.46-2Z"/><circle class="cls-1" cx="291.64" cy="469.95" r="0.59"/><path class="cls-1" d="M291.1,469.69a7,7,0,0,0-.85,3.61l1.7-.36a4.18,4.18,0,0,1,.23-2.76Z"/><circle class="cls-1" cx="292.5" cy="470.5" r="0.44"/><path class="cls-1" d="M292.94,470.5a5.17,5.17,0,0,1-.6,2.73l-1-.8a3.15,3.15,0,0,0,.74-1.95Z"/><circle class="cls-1" cx="293.34" cy="473.25" r="0.44"/><path class="cls-1" d="M293.73,473.47a5.21,5.21,0,0,1-1.85,2.1l-.52-1.2A3.21,3.21,0,0,0,293,473Z"/><path class="cls-2" d="M312.84,536.23s-.27-1.59-3.5-2.48l-.88-3.71-2.86-1.78s.33,5.61.49,7.44C307.4,536.08,311.84,537.05,312.84,536.23Z"/><path class="cls-2" d="M297.45,537a3.21,3.21,0,0,0-2.34-2.65l-.07-3.89-2.87-1.77s-.28,4.43-.29,7.18C292.49,536.48,296.45,537.83,297.45,537Z"/><path class="cls-7" d="M308.76,492.5V469.64l-2.48-.31-.39,2.83a3.83,3.83,0,0,1-3.95,3.32h0a3.84,3.84,0,0,1-3.49-2.55L297.07,469l-2.14.37s-1.52,17.4-.41,23.11Z"/><circle class="cls-1" cx="302.25" cy="464.27" r="4.88"/><path class="cls-7" d="M298.59,467.49l.91-3.13a2.2,2.2,0,0,1,2.41-1.55l1.81.26a11.3,11.3,0,0,0,1.84.11l1.12,0a1.34,1.34,0,0,0,1.31-1.34h0a3.53,3.53,0,0,0-2.49-3.37,17.46,17.46,0,0,0-3.63-.74,5.15,5.15,0,0,0-4.32,1.84l0,0a5.22,5.22,0,0,0-1.09,4.51l.5,2.18a1.56,1.56,0,0,0,1.67,1.21Z"/><ellipse class="cls-1" cx="299.33" cy="464.76" rx="1.04" ry="1.54" transform="translate(-97 79.37) rotate(-13.02)"/><circle class="cls-2" cx="509.02" cy="656.23" r="1.55"/><path class="cls-2" d="M496,662.11l1.29-2.26a10.8,10.8,0,0,1,12.35-5h0l-.84,2.94h0a8,8,0,0,0-4.45,5.38l-.62,2.56Z"/><circle class="cls-2" cx="499.68" cy="664.39" r="4.3"/><path class="cls-4" d="M518.07,669.94c1.26,1.54,2.56,3.08,3.87,4.59.66.75,1.32,1.49,2,2.21.33.35.66.7,1,1l.45.43.14.13h-.06l-.15-.06a2.12,2.12,0,0,0-.61-.09l-.88.17h0c.57-.19,1.27-.42,1.9-.66s1.29-.5,1.92-.78a18.82,18.82,0,0,0,3.56-2l0,0a1,1,0,0,1,1.44.22,1.06,1.06,0,0,1,0,1.19,18.17,18.17,0,0,1-3.26,3.46,21.36,21.36,0,0,1-1.86,1.43,16.81,16.81,0,0,1-2,1.26h0a1.65,1.65,0,0,1-.74.18h-.13a2.72,2.72,0,0,1-.8-.14,2.26,2.26,0,0,1-.33-.13l-.39-.2-.48-.3c-.27-.18-.51-.36-.73-.53-.46-.34-.87-.67-1.29-1-.82-.67-1.61-1.34-2.39-2-1.56-1.36-3.08-2.73-4.6-4.13a3.06,3.06,0,1,1,4.15-4.49A2.87,2.87,0,0,1,518.07,669.94Z"/><path class="cls-4" d="M519.51,694.54H503.85l.3-14.49c.11-3.55-.71-6.08-.18-8,.36-1.3,1.66-2.28,3.1-3.23l.34-.22,1.63-1,6,.71,1,.63,2.49,1.63a21.77,21.77,0,0,1,.72,6.32Z"/><path class="cls-2" d="M503.85,694.54c-2.91,7.22-.06,15.1-2.51,41.58l3.08.23a408.11,408.11,0,0,0,8.91-41.81Z"/><path class="cls-2" d="M519.52,694.54c1.22,12.52-.23,23-.33,41.32h-2.84l-7.07-41.32Z"/><path class="cls-1" d="M535.51,674.7a5.68,5.68,0,0,1-2.44,1.5l-.9-2.59,1.22-1.11Z"/><circle class="cls-1" cx="534.35" cy="673.67" r="1.55"/><circle class="cls-1" cx="532.57" cy="674.92" r="1.38"/><circle class="cls-1" cx="536.74" cy="672.29" r="0.49"/><path class="cls-1" d="M537.18,672.52a5.89,5.89,0,0,1-1.95,2.38l-.62-1.3s.77-.19,1.7-1.55Z"/><circle class="cls-1" cx="536.57" cy="671.08" r="0.65"/><path class="cls-1" d="M537.15,671.39a7.68,7.68,0,0,1-2.63,3.12l-.8-1.74s1-.24,2.29-2Z"/><circle class="cls-1" cx="535.52" cy="670.68" r="0.49"/><path class="cls-1" d="M535.23,670.29a5.76,5.76,0,0,0-2,2.32l1.38.39a3.55,3.55,0,0,1,1.24-1.94Z"/><circle class="cls-1" cx="532.9" cy="671.72" r="0.49"/><path class="cls-1" d="M532.49,671.45a5.85,5.85,0,0,0-1.11,2.87l1.43-.11a3.54,3.54,0,0,1,.51-2.24Z"/><path class="cls-8" d="M524,742.68s-.3-1.75-3.85-2.74l-1-4.08-3.15-2s.36,6.16.54,8.18C518,742.51,522.91,743.58,524,742.68Z"/><path class="cls-8" d="M507.08,743.54a3.54,3.54,0,0,0-2.58-2.91l-.08-4.28-3.16-2s-.31,4.88-.32,7.91C501.61,743,506,744.44,507.08,743.54Z"/><circle class="cls-1" cx="512.35" cy="663.47" r="5.37"/><path class="cls-2" d="M508.33,667l.95-3.25a2.62,2.62,0,0,1,2.9-1.87h0a7.49,7.49,0,0,0,2.41,0l2.43-.44a2,2,0,0,0,1.65-2h0a2,2,0,0,0-1.28-1.87,20,20,0,0,0-5.46-1.33,5.63,5.63,0,0,0-4.74,2l0,0a5.74,5.74,0,0,0-1.21,5l.55,2.41a1.72,1.72,0,0,0,1.84,1.33Z"/><ellipse class="cls-1" cx="509.14" cy="664.01" rx="1.14" ry="1.7" transform="translate(-136.49 131.75) rotate(-13.02)"/><circle class="cls-4" cx="516.81" cy="679.01" r="3.39"/><path class="cls-1" d="M516,669a4.68,4.68,0,0,1-9-.14l.34-.22,1.63-1,6,.71Z"/><polygon class="cls-2" points="517.15 687.44 513.59 687.83 516.57 680.06 520.14 679.67 517.15 687.44"/><path class="cls-1" d="M514.15,685.37a5.15,5.15,0,0,0-2.59.28l.28,2.44,2,.07Z"/><circle class="cls-1" cx="513.89" cy="686.76" r="1.41"/><circle class="cls-1" cx="511.92" cy="686.85" r="1.25"/><circle class="cls-1" cx="514.64" cy="685.09" r="0.44"/><path class="cls-1" d="M514.58,684.65a5.23,5.23,0,0,0-2.64.93l.92.92a3.17,3.17,0,0,1,1.85-1Z"/><circle class="cls-1" cx="516.31" cy="686.25" r="0.62"/><path class="cls-1" d="M515.88,685.79a1.9,1.9,0,0,1-1.32-.25l-.21,2.55a5.76,5.76,0,0,0,2.46-1.47Z"/><path class="cls-4" d="M508.31,674.47a36.09,36.09,0,0,0-2.64,5c-.75,1.73-1.37,3.57-2,5.48h0l-.84-2.18a6.84,6.84,0,0,0,.76.49c.29.18.61.34.93.5a21.21,21.21,0,0,0,2,.84,27.76,27.76,0,0,0,4.32,1.18h0a1.11,1.11,0,0,1-.23,2.2,32.24,32.24,0,0,1-4.87-.42,24.13,24.13,0,0,1-2.46-.55q-.62-.16-1.23-.39a10.78,10.78,0,0,1-1.33-.56,1.74,1.74,0,0,1-.89-1.94l.06-.24h0c.45-2,.92-4,1.58-6A42.17,42.17,0,0,1,504,672h0a2.51,2.51,0,1,1,4.47,2.27Z"/><path class="cls-4" d="M669.19,347.64l-42.92-11.25c-6.31-1.12-12.43-2.25-18.42-3.4-22-4.24-42.06-8.75-61.72-13.69-10.42-2.62-20.72-5.36-31.15-8.25-32.21-8.94-65.57-19.31-106.85-31.87l-143.87,28L195.1,320.62l-9.29,1.81-75.57,14.71C96,339.91,49.43,347.58,49.43,347.58A8.37,8.37,0,0,1,48,342.51a11,11,0,0,1,.42-2.33,13.81,13.81,0,0,1,2.42-4.67l99-123.41,15.75-14.27,63.25-60.48L345.29,0l0,0,36.58,33.83,9.71,8.27,19.62-8.27.11.09,104.58,87.94.36.3,74.79,106,73.27,103.88a26.76,26.76,0,0,1,4.79,13.46C669.17,346.24,669.2,346.94,669.19,347.64Z"/><path class="cls-2" d="M348.64,475.75c-17.18.67-29,2.08-29,3.7,0,2,18.61,3.74,43,4.06v-91l-14,1.54Z"/><path class="cls-1" d="M422.26,355.71c0-4.51-8.56-8.5-21.67-10.92v21.83C413.7,364.2,422.26,360.21,422.26,355.71Z"/><path class="cls-4" d="M416.59,359.89v9.68a52.1,52.1,0,0,0-7.72-2.61v-9.69a53.64,53.64,0,0,1,7.59,2.56Z"/><path class="cls-3" d="M400.59,476.11V388.38l-21.33,2.34v92.79c24.38-.32,43-2,43-4.06C422.26,478.07,413.7,476.85,400.59,476.11Z"/><path class="cls-1" d="M405.64,443.29H394.06l-1.18-2c-.43-.65-.82-.91-1.32-.91h-8.35a.92.92,0,0,0-.92.91v16.43a2.21,2.21,0,0,0,2.21,2.21h21.14a2.21,2.21,0,0,0,2.21-2.21V445.5A2.21,2.21,0,0,0,405.64,443.29Z"/><polyline class="cls-9" points="385.63 456.7 392.02 450.3 397.14 455.42 399.99 452.58 404.11 456.7"/><circle class="cls-7" cx="397.93" cy="448.37" r="1.59"/><ellipse class="cls-2" cx="370.94" cy="538.01" rx="51.28" ry="2.99"/><circle class="cls-3" cx="371.78" cy="468.19" r="18.44"/><rect class="cls-4" x="353.38" y="462.04" width="25.13" height="23.58"/><rect class="cls-2" x="378.51" y="462.04" width="11.71" height="23.58"/><rect class="cls-2" x="363.82" y="466.89" width="4.25" height="13.87" rx="2.12"/><path class="cls-1" d="M400.59,366.62a155.07,155.07,0,0,1-21.33,2.28v21.82l21.33-2.34Z"/><path class="cls-4" d="M348.64,367.75v26.33l14-1.54V368.9C357.68,368.69,353,368.3,348.64,367.75Z"/><path class="cls-2" d="M422.26,386v93.44c0-1.38-8.56-2.6-21.67-3.34V388.38Z"/><path class="cls-4" d="M400.59,366.62v21.76L422.26,386v-30.3C422.26,360.21,413.7,364.2,400.59,366.62Z"/><path class="cls-4" d="M348.64,367.75V343.66c-17.18,2.16-29,6.74-29,12S331.46,365.59,348.64,367.75Z"/><path class="cls-3" d="M348.64,394.08v81.67c-17.18.67-29,2.08-29,3.7V391.74l5.65.62,1.49.17,14.49,1.6,3.41.38Z"/><path class="cls-1" d="M348.64,367.75v26.33l-4,.43-3.41-.38-14.49-1.6-1.49-.17-5.65-.62v-36C319.61,361,331.46,365.59,348.64,367.75Z"/><ellipse class="cls-3" cx="370.94" cy="485.96" rx="25.63" ry="1.34"/><path class="cls-3" d="M403.91,494a24.14,24.14,0,0,0-7.3-8l-.05,0H345.31a24,24,0,0,0-7.17,7.78l-.61,1.06c0,.74,15,1.34,33.41,1.34s33.4-.6,33.4-1.34Z"/><ellipse class="cls-1" cx="370.94" cy="537.46" rx="46.66" ry="1.56"/><ellipse class="cls-8" cx="370.94" cy="519.96" rx="46.66" ry="3.31"/><rect class="cls-1" x="324.28" y="519.96" width="93.31" height="17.5"/><ellipse class="cls-2" cx="370.94" cy="512.25" rx="59.57" ry="3.31"/><polygon class="cls-2" points="417.59 519.96 429.36 512.9 312.51 512.9 324.28 519.96 417.59 519.96"/><ellipse class="cls-3" cx="370.94" cy="495.37" rx="41.78" ry="4.1"/><path class="cls-3" d="M430.51,512.25l-101.64-.13-17.44,0a44.94,44.94,0,0,1,6-6.94,140,140,0,0,1,11.81-10.11l.06-.05,0,0h83.15a71.43,71.43,0,0,1,11.74,10.19c3.44,3.6,5.88,6.63,6.21,7Z"/><path class="cls-10" d="M380.51,505.16H357.35a3,3,0,0,0-2.77,1.86l-2.12,5.13,33,.1L383.28,507A3,3,0,0,0,380.51,505.16Z"/><path class="cls-11" d="M430.47,512.2,413,512.15l2.13-5.13a3,3,0,0,1,2.77-1.86h6.35"/><path class="cls-11" d="M317.46,505.16H324a3,3,0,0,1,2.77,1.86l2.12,5.1-17.44,0"/><rect class="cls-10" x="386.68" y="519.96" width="25.08" height="6.63"/><rect class="cls-10" x="328.87" y="519.96" width="22.64" height="6.63"/><ellipse class="cls-2" cx="412.73" cy="380.59" rx="2.73" ry="3.43" transform="translate(-60.41 78.37) rotate(-10.11)"/><path class="cls-2" d="M416.58,361.83v7.74a51.94,51.94,0,0,0-7.71-2.61v-2.25A45.1,45.1,0,0,0,416.58,361.83Z"/><path class="cls-3" d="M407.85,445.23v12.64a2,2,0,0,1-2,2h-5.25V443.21h5.25A2,2,0,0,1,407.85,445.23Z"/><path class="cls-1" d="M404.31,457a.52.52,0,0,1-.35.14.51.51,0,0,1-.36-.15l-3-3.07v-1.44l3.74,3.81A.5.5,0,0,1,404.31,457Z"/><polygon class="cls-2" points="131.17 552.97 131.17 543.44 46.86 541.36 46.86 550.06 131.17 552.97"/><polygon class="cls-2" points="370.94 558.13 370.94 619.83 479.46 608.71 479.46 553.34 370.94 558.13"/><polygon class="cls-2" points="333.42 645.37 387.1 699.75 328.1 710.87 269.65 653.32 333.42 645.37"/><polygon class="cls-7" points="421.74 664.85 421.74 704.85 387.1 699.75 343.7 655.79 421.74 664.85"/><path class="cls-1" d="M425.36,462.86a5.17,5.17,0,0,0,2.1,1.54l1-2.29-1-1.09Z"/><circle class="cls-1" cx="426.49" cy="462.01" r="1.41"/><circle class="cls-1" cx="424.47" cy="459.87" r="0.44"/><circle class="cls-1" cx="428" cy="463.27" r="1.25"/><path class="cls-1" d="M424.59,459.43a5.27,5.27,0,0,1,2.48,1.28l-1,.79a3.19,3.19,0,0,0-1.7-1.21Z"/><path class="cls-4" d="M440.28,466.79l3.34-2.93,2.38-.28a6.7,6.7,0,0,1,5.88,2.28l2.08,2.43-1.12,20.4-8.63.95-5-.95Z"/><circle class="cls-1" cx="445.98" cy="459.1" r="5.53"/><path class="cls-1" d="M455,523.64c0,2.57-.07,5.35,0,8.36v.73h-2.38l-.15-.74-1-4.81-7.69-38.49h9C458.8,493.82,455.54,498.46,455,523.64Z"/><path class="cls-1" d="M449.32,488.69l-6.49,36L441.51,532l-.09.48-2.3.12c0-.29,0-.58,0-.88,0-1.08,0-2.19,0-3.32-.05-17.6.15-39.71.15-39.71Z"/><path class="cls-8" d="M442.1,536a1.6,1.6,0,0,1-1.59,1.74H433c.09-.62.72-1.23,1.72-1.66a8.1,8.1,0,0,0,4.21-3.9l.2-.42v0l2.3-.13s0,.16.09.43C441.66,532.78,442,534.47,442.1,536Z"/><path class="cls-8" d="M455.56,536A1.61,1.61,0,0,1,454,537.7h-7.53c.09-.62.72-1.23,1.72-1.66a8.1,8.1,0,0,0,4.21-3.9l.07-.15.14-.29,2.3-.13s0,.16.09.43C455.12,532.78,455.43,534.47,455.56,536Z"/><path class="cls-4" d="M444.71,469.73c-1.72.91-3.36,2-5.31,3.06a15.72,15.72,0,0,1-3.3,1.37,10.42,10.42,0,0,1-3.76.29l-.22,0a1.67,1.67,0,0,1-1.26-.82c-.46-.8-.79-1.48-1.13-2.22s-.64-1.47-.94-2.21q-.85-2.24-1.5-4.5a1.33,1.33,0,0,1,.91-1.62,1.31,1.31,0,0,1,1.55.73h0a43.61,43.61,0,0,0,2,4c.36.64.74,1.27,1.13,1.89s.82,1.24,1.21,1.72l-1.48-.84a7.64,7.64,0,0,0,4.52-1.59c1.54-1,3.21-2.35,5-3.53h0a2.5,2.5,0,1,1,2.74,4.19Z"/><circle class="cls-2" cx="451.18" cy="453.81" r="4.3"/><path class="cls-2" d="M439.57,459.59h7.77l2.7,2.82a.86.86,0,0,0,1.3-.07h0a4.72,4.72,0,0,0,.73-4.44h0a6.89,6.89,0,0,0-6.5-4.62h-.86a4.8,4.8,0,0,0-3.95,2.09h0a1.55,1.55,0,0,0-1.46,1.71Z"/><ellipse class="cls-1" cx="448.63" cy="460.17" rx="1.88" ry="1.38" transform="translate(-124.55 750.84) rotate(-72.62)"/><circle class="cls-4" cx="441.03" cy="473.83" r="3.06"/><rect class="cls-2" x="445.2" y="471.55" width="10.24" height="14.58" transform="translate(-207 478.12) rotate(-46.7)"/><path class="cls-2" d="M455.56,536A1.61,1.61,0,0,1,454,537.7h-7.53c.09-.62.72-1.23,1.72-1.66a8.1,8.1,0,0,0,4.21-3.9l.07-.15-1-4.81,3.54-3.54c0,2.57-.07,5.35,0,8.36C455.12,532.78,455.43,534.47,455.56,536Z"/><path class="cls-2" d="M441.51,532c.15.78.46,2.47.59,4a1.6,1.6,0,0,1-1.59,1.74H433c.09-.62.72-1.23,1.72-1.66a8.1,8.1,0,0,0,4.21-3.9l.2-.42c0-1.08,0-2.19,0-3.32l3.73-3.73Z"/><path class="cls-1" d="M446.77,484.25a5.18,5.18,0,0,0,2.57-.4l-.91-2.33-1.49,0Z"/><circle class="cls-1" cx="446.97" cy="482.85" r="1.41"/><circle class="cls-1" cx="448.93" cy="482.67" r="1.25"/><path class="cls-4" d="M452.28,466.3a40.81,40.81,0,0,1,3.93,5c1.17,1.77,2.16,3.59,3.11,5.34h0l.12.22a1.74,1.74,0,0,1-.34,2.11,11.6,11.6,0,0,1-1.13.9c-.36.25-.72.48-1.09.7a23.62,23.62,0,0,1-2.22,1.17,31.38,31.38,0,0,1-4.59,1.71,1.11,1.11,0,0,1-.8-2.07h0a30.06,30.06,0,0,0,3.85-2.29,21.17,21.17,0,0,0,1.71-1.35c.27-.24.53-.48.77-.72a6.79,6.79,0,0,0,.59-.68l-.22,2.33h0c-1.12-1.68-2.2-3.29-3.38-4.76a36.54,36.54,0,0,0-3.87-4.1,2.5,2.5,0,0,1,3.38-3.69l.16.15Z"/><polygon class="cls-4" points="220.04 607.53 174.84 611.25 174.84 601.71 220.04 598.53 220.04 607.53"/><polygon class="cls-4" points="211.31 595.66 166.1 598.75 166.1 589.21 211.31 586.66 211.31 595.66"/><polygon class="cls-4" points="202.57 583.31 157.36 585.82 157.36 576.29 202.57 574.14 202.57 583.31"/><polygon class="cls-4" points="193.84 571.03 148.63 573.03 148.63 563.5 193.84 561.87 193.84 571.03"/><polygon class="cls-4" points="185.11 559.87 139.9 561.87 139.9 552.33 185.11 550.7 185.11 559.87"/><polygon class="cls-4" points="176.38 551.49 131.17 552.97 131.17 543.44 176.38 542.32 176.38 551.49"/><polygon class="cls-3" points="211.31 595.66 220.04 598.53 174.84 601.71 166.1 598.75 211.31 595.66"/><polygon class="cls-3" points="211.31 586.66 202.57 583.31 157.36 585.82 166.1 589.21 211.31 586.66"/><polygon class="cls-3" points="193.84 571.03 202.57 574.14 157.36 576.29 148.63 573.03 193.84 571.03"/><polygon class="cls-3" points="193.84 561.87 185.11 559.87 139.9 561.87 148.63 563.5 193.84 561.87"/><polygon class="cls-2" points="328.1 710.87 269.65 653.32 269.63 663.34 318.67 712.64 328.1 710.87"/><polygon class="cls-2" points="341.11 557.34 231.46 554.41 231.46 608.21 341.11 617.35 341.11 557.34"/><path class="cls-2" d="M516.07,535.2l91.06,1.92,40.59-45.42L585,491.37c-21-.34-41.35,6-57.6,19.27h0L516.07,529Z"/><path class="cls-1" d="M270.38,703.73l9.93-6.69a2.54,2.54,0,1,1,2.84,4.22,2.93,2.93,0,0,1-.39.21l-10.93,4.87a1.5,1.5,0,0,1-1.45-2.61Z"/><path class="cls-1" d="M267.45,704.26a6.71,6.71,0,0,1,3.27-.94l.87,3.09-2.33,1.05Z"/><circle class="cls-1" cx="268.45" cy="705.8" r="1.84"/><circle class="cls-1" cx="270.88" cy="704.94" r="1.63"/><circle class="cls-1" cx="266.73" cy="704.16" r="0.58"/><path class="cls-1" d="M266.58,703.59a6.82,6.82,0,0,1,3.64-.17l-.65,1.57a4.23,4.23,0,0,0-2.71-.27Z"/><circle class="cls-1" cx="265.28" cy="706.38" r="0.82"/><path class="cls-1" d="M265.58,705.62a2.52,2.52,0,0,0,1.47-1l1.5,3a7.51,7.51,0,0,1-3.69-.57Z"/><path class="cls-4" d="M282.11,701.6a3,3,0,0,1-1.34-5.69c3.7-1.84,5.19-5.59,4.45-11.16a3,3,0,1,1,5.94-.8c1.1,8.16-1.64,14.31-7.72,17.33A2.89,2.89,0,0,1,282.11,701.6Z"/><path class="cls-2" d="M287.76,748l-2-23.77v4.56a58.5,58.5,0,0,0,4.51-4.39c1.4-1.52,2.78-3.08,4.08-4.68s2.6-3.2,3.84-4.85,2.44-3.32,3.55-5.05l-9.94-7c-1.26,1.64-2.44,3.32-3.57,5s-2.23,3.47-3.28,5.25-2.08,3.58-3.05,5.42a56.92,56.92,0,0,0-2.61,5.71l-.56,1.48a3,3,0,0,0,.55,3.07l5.16,21.79Z"/><path class="cls-2" d="M304.63,703c3.73,5.57-.4,21.47-2.79,44.08l-3.59,2.22c-.52-18-3.46-30.16-4-46.53Z"/><path class="cls-4" d="M289,705.78l16.56-.52-.4-6.94a36,36,0,0,0-4.73-15.8h0c-.7-1.15-2.21-1.75-3.85-2.27a2.52,2.52,0,0,0-.39-.12l-1.83-.51-5.6,2.3-.76.87-2,2.23a21.68,21.68,0,0,0,1,6.27Z"/><path class="cls-3" d="M294.15,756.1s.17-1.68,3.47-2.86l.63-3.94,3.59-2.22s0,7.38-.67,7.95C299.83,755.53,295.27,756.88,294.15,756.1Z"/><path class="cls-3" d="M281,753.7s.16-1.68,3.47-2.86l-.85-3.76,3.89-2.41s1.17,7.39.5,8C286.64,753.13,282.08,754.48,281,753.7Z"/><circle class="cls-1" cx="290.11" cy="676.52" r="5.36"/><path class="cls-3" d="M294.93,678.86,293.14,676a2.64,2.64,0,0,0-3.29-1h0a7.5,7.5,0,0,1-2.33.61l-2.45.22a2,2,0,0,1-2.11-1.45h0a2,2,0,0,1,.73-2.14,20.22,20.22,0,0,1,4.88-2.74,5.64,5.64,0,0,1,5.11.68l.05,0a5.71,5.71,0,0,1,2.49,4.45l.12,2.46a1.73,1.73,0,0,1-1.41,1.78Z"/><path class="cls-1" d="M288,682.79a4.68,4.68,0,0,0,8.58-2.54,2.52,2.52,0,0,0-.39-.12l-1.83-.51-5.6,2.3Z"/><circle class="cls-3" cx="284.73" cy="672.44" r="3.31"/><path class="cls-1" d="M286.22,707.52l8.14-8.78a2.54,2.54,0,0,1,3.73,3.46,2.3,2.3,0,0,1-.33.3l-9.54,7.23a1.5,1.5,0,0,1-2-2.21Z"/><path class="cls-1" d="M283.48,708.7a6.81,6.81,0,0,1,3-1.66l1.55,2.81-2,1.56Z"/><circle class="cls-1" cx="284.81" cy="709.98" r="1.84"/><circle class="cls-1" cx="286.98" cy="708.58" r="1.63"/><circle class="cls-1" cx="282.76" cy="708.77" r="0.58"/><path class="cls-1" d="M282.49,708.25a6.87,6.87,0,0,1,3.5-1l-.27,1.68a4.23,4.23,0,0,0-2.71.36Z"/><circle class="cls-1" cx="281.85" cy="711.26" r="0.82"/><path class="cls-1" d="M282,710.45a2.47,2.47,0,0,0,1.21-1.26l2.15,2.56a7.6,7.6,0,0,1-3.73.29Z"/><path class="cls-4" d="M296.47,702.85a3,3,0,0,1-1.62-5.53c4.83-3.1,5.19-5.4,1.72-11.19a3,3,0,0,1,5.15-3.08c3.42,5.72,6.1,13.08-3.63,19.32A2.94,2.94,0,0,1,296.47,702.85Z"/><path class="cls-3" d="M286.09,669.42h0a2.19,2.19,0,0,0,2.1.22l.7-.28-.73,1.86S285.76,671.72,286.09,669.42Z"/><circle class="cls-3" cx="295.63" cy="678.29" r="1.94"/><ellipse class="cls-1" cx="293.34" cy="676.18" rx="1.98" ry="1.33" transform="translate(-414.11 883.04) rotate(-82.85)"/><polygon class="cls-1" points="341.11 597.75 341.11 617.35 231.46 608.21 231.46 606.58 341.11 597.75"/><polygon class="cls-7" points="247.12 605.32 247.12 584 269.25 585.32 269.25 607.08 247.12 605.32"/><polygon class="cls-2" points="269.25 607.08 341.11 601.16 341.11 580.92 269.25 585.32 269.25 607.08"/><polyline class="cls-7" points="247.12 584 269.25 585.32 341.11 580.92 341.11 578.47 247.12 584"/><polygon class="cls-4" points="269.25 562.26 247.12 561.28 267.21 560.79 285.5 561.62 269.25 562.26"/><polygon class="cls-2" points="269.25 562.26 285.5 561.62 285.5 583.33 269.25 584.02 269.25 562.26"/><polygon class="cls-7" points="247.12 582.6 247.12 561.28 269.25 562.26 269.25 584.02 247.12 582.6"/><polygon class="cls-4" points="266.04 578.81 266.04 580.11 261.14 579.83 257.62 579.63 255.54 579.51 253.59 579.4 251.58 579.28 249.63 579.17 249.63 577.77 251.58 577.89 253.59 578.02 255.54 578.14 257.62 578.27 261.14 578.5 266.04 578.81"/><polygon class="cls-1" points="251.58 577.89 251.58 579.28 249.63 579.17 249.63 577.77 251.58 577.89"/><polygon class="cls-1" points="255.54 578.14 255.54 579.51 253.59 579.4 253.59 578.02 255.54 578.14"/><polygon class="cls-1" points="261.14 578.5 261.14 579.83 257.62 579.63 257.62 578.27 261.14 578.5"/><polygon class="cls-4" points="266.04 575.3 266.04 576.6 265.06 576.54 263.11 576.42 261.14 576.3 257.62 576.09 255.54 575.96 253.59 575.84 251.58 575.72 249.63 575.6 249.63 574.2 251.58 574.33 253.59 574.46 255.54 574.59 257.62 574.73 261.14 574.97 263.11 575.1 265.06 575.23 266.04 575.3"/><polygon class="cls-1" points="265.06 575.23 265.06 576.54 263.11 576.42 263.11 575.1 265.06 575.23"/><polygon class="cls-1" points="261.14 574.97 261.14 576.3 257.62 576.09 257.62 574.73 261.14 574.97"/><polygon class="cls-7" points="282.8 612.49 278.8 612.16 278.8 555.67 282.8 555.78 282.8 612.49"/><polygon class="cls-4" points="237.46 608.71 231.46 608.21 231.46 554.41 237.46 554.57 237.46 608.71"/><polygon class="cls-2" points="285.5 612.74 282.8 612.5 282.8 555.78 285.5 555.86 285.5 612.74"/><polygon class="cls-1" points="358.03 594.84 346.46 594.11 346.46 572.2 358.03 572.72 358.03 594.84"/><ellipse class="cls-7" cx="352.25" cy="577.77" rx="1.13" ry="1.66"/><ellipse class="cls-7" cx="373.63" cy="466.79" rx="1.29" ry="1.66"/><ellipse class="cls-7" cx="373.63" cy="473.83" rx="1.29" ry="1.66"/><ellipse class="cls-7" cx="373.63" cy="480.87" rx="1.29" ry="1.66"/><ellipse class="cls-7" cx="358.41" cy="466.79" rx="1.29" ry="1.66"/><ellipse class="cls-7" cx="358.41" cy="473.83" rx="1.29" ry="1.66"/><ellipse class="cls-7" cx="358.41" cy="480.87" rx="1.29" ry="1.66"/><polygon class="cls-2" points="356.45 593.05 348.04 592.52 348.04 581.79 356.45 582.24 356.45 593.05"/><path class="cls-1" d="M356.46,585.15h0l-8.42-.45a.5.5,0,0,1-.47-.53.48.48,0,0,1,.52-.47l8.42.46a.49.49,0,0,1,.47.52A.5.5,0,0,1,356.46,585.15Z"/><path class="cls-1" d="M356.46,588.16h0L348,587.7a.49.49,0,0,1-.47-.52.47.47,0,0,1,.52-.47l8.42.45a.5.5,0,0,1,0,1Z"/><path class="cls-1" d="M356.52,591.17h0l-8.42-.45a.5.5,0,0,1-.47-.53.49.49,0,0,1,.52-.47l8.42.46a.5.5,0,0,1,0,1Z"/><path class="cls-1" d="M350.59,593.71a.5.5,0,0,1-.5-.5v-11.6a.5.5,0,0,1,1,0v11.6A.5.5,0,0,1,350.59,593.71Z"/><path class="cls-1" d="M353.85,593.71a.51.51,0,0,1-.5-.5v-11.6a.51.51,0,0,1,.5-.5.5.5,0,0,1,.5.5v11.6A.5.5,0,0,1,353.85,593.71Z"/><path class="cls-7" d="M650.63,491.77,591,510.45c-8.69-.15-18-.23-27.59-.23-12.81,0-25,.15-36,.41l12.43-10.11a45,45,0,0,1,29.14-10.09Z"/><path class="cls-4" d="M664.77,436.24v56.19l-40-1.1V435.85a4,4,0,0,1,4.49-4Z"/><path class="cls-1" d="M579.77,454.1v12.09a2,2,0,0,1-2,2H548a2,2,0,0,1-2-2V454.1a2,2,0,0,1,2-2h29.73A2,2,0,0,1,579.77,454.1Z"/><path class="cls-3" d="M643.67,392.49v25.29a2.64,2.64,0,0,1-2.53,2.62l-35.86,1.23a2.3,2.3,0,0,1-2.36-2.36V394.94a2.58,2.58,0,0,1,2.36-2.58l8.9-.56,27-1.68A2.35,2.35,0,0,1,643.67,392.49Z"/><polygon class="cls-2" points="574.8 732.42 590.23 687.54 529.63 702.13 513.25 749.79 574.8 732.42"/><polygon class="cls-4" points="590.66 683.68 602.71 648.61 543.94 660.44 531.31 697.18 590.66 683.68"/><path class="cls-3" d="M438.91,733.31,445.56,713a1,1,0,0,0-1.12-1.29l-17,2.79a2,2,0,0,0-1.57,1.35L419,736.75a1,1,0,0,0,1.17,1.29l18-4.07A1,1,0,0,0,438.91,733.31Z"/><polygon class="cls-2" points="245.08 743.82 245.08 713.44 271.64 707.14 271.64 736.35 245.08 743.82"/><polygon class="cls-8" points="245.08 713.44 245.08 743.82 219.54 738.01 219.54 708.5 245.08 713.44"/><polygon class="cls-4" points="271.64 707.14 244.8 702.86 219.54 708.5 245.08 713.44 271.64 707.14"/><path class="cls-2" d="M231.74,736h0a2.46,2.46,0,0,1-1.86-2.28v-16a1.44,1.44,0,0,1,1.86-1.45h0a2.47,2.47,0,0,1,1.87,2.28v16A1.45,1.45,0,0,1,231.74,736Z"/><polygon class="cls-2" points="203.44 750.41 203.44 720.04 230 713.73 230 742.95 203.44 750.41"/><polygon class="cls-7" points="203.44 720.04 203.44 750.41 177.9 744.61 177.9 715.09 203.44 720.04"/><polygon class="cls-4" points="230 713.73 203.16 709.46 177.9 715.09 203.44 720.04 230 713.73"/><path class="cls-2" d="M190.1,742.64h0a2.46,2.46,0,0,1-1.86-2.28v-16a1.44,1.44,0,0,1,1.86-1.45h0a2.46,2.46,0,0,1,1.86,2.28v16A1.44,1.44,0,0,1,190.1,742.64Z"/><polygon class="cls-2" points="235.04 757.55 235.04 726.25 262.4 719.76 262.4 749.86 235.04 757.55"/><polygon class="cls-7" points="235.04 726.25 235.04 757.55 208.72 751.57 208.72 721.16 235.04 726.25"/><polygon class="cls-4" points="262.4 719.76 234.75 715.35 208.72 721.16 235.04 726.25 262.4 719.76"/><path class="cls-2" d="M221.29,749.54h0a2.53,2.53,0,0,1-1.92-2.35V730.67a1.5,1.5,0,0,1,1.92-1.5h0a2.54,2.54,0,0,1,1.92,2.35v16.53A1.49,1.49,0,0,1,221.29,749.54Z"/><polygon class="cls-2" points="224.79 723.2 224.79 695.22 249.25 689.2 249.25 716.11 224.79 723.2"/><polygon class="cls-7" points="224.79 695.22 224.79 723.2 201.26 718.07 201.26 690.88 224.79 695.22"/><polygon class="cls-4" points="249.25 689.2 224.53 685.48 201.26 690.88 224.79 695.22 249.25 689.2"/><path class="cls-2" d="M214.22,700v14.77a2.83,2.83,0,0,1,0,.3,2,2,0,0,1-.08.26,1.34,1.34,0,0,1-1.61.8,2.23,2.23,0,0,1-1.72-2.08V699.29a1.34,1.34,0,0,1,1.72-1.34,2.21,2.21,0,0,1,1.71,2.07Z"/><path class="cls-1" d="M214.22,710.25v4.54a2.83,2.83,0,0,1,0,.3,2,2,0,0,1-.08.26,1.34,1.34,0,0,1-1.61.8,2.23,2.23,0,0,1-1.72-2.08v-4.51Z"/><polygon class="cls-2" points="266.31 764.51 266.31 732.3 294.46 725.62 294.46 756.6 266.31 764.51"/><polygon class="cls-7" points="266.31 732.3 266.31 764.51 239.22 758.36 239.22 727.06 266.31 732.3"/><polygon class="cls-4" points="294.46 725.62 266.01 721.09 239.22 727.06 266.31 732.3 294.46 725.62"/><path class="cls-2" d="M254.14,737.72v17a1.54,1.54,0,0,1-2,1.54,2.63,2.63,0,0,1-2-2.42v-17a1.53,1.53,0,0,1,2-1.53,2.57,2.57,0,0,1,1.4.89A2.4,2.4,0,0,1,254.14,737.72Z"/><polygon class="cls-2" points="300.88 772.16 300.88 739.13 329.76 732.27 329.76 764.05 300.88 772.16"/><polygon class="cls-7" points="300.88 739.13 300.88 772.16 273.1 765.85 273.1 733.75 300.88 739.13"/><polygon class="cls-4" points="329.76 732.27 300.57 727.62 273.1 733.75 300.88 739.13 329.76 732.27"/><path class="cls-2" d="M288.39,744.69v17.44a1.57,1.57,0,0,1-2,1.58,2.68,2.68,0,0,1-2-2.48V743.79a1.58,1.58,0,0,1,2-1.58,2.66,2.66,0,0,1,2,2.48Z"/><polygon class="cls-2" points="337.02 779.98 337.02 746.06 366.67 739.02 366.67 771.65 337.02 779.98"/><polygon class="cls-7" points="337.02 746.06 337.02 779.98 308.49 773.5 308.49 740.54 337.02 746.06"/><polygon class="cls-4" points="366.67 739.02 336.7 734.25 308.49 740.54 337.02 746.06 366.67 739.02"/><path class="cls-2" d="M322.12,771.3h0a2.74,2.74,0,0,1-2.08-2.54V750.84a1.62,1.62,0,0,1,2.08-1.62h0a2.76,2.76,0,0,1,2.08,2.55v17.91A1.61,1.61,0,0,1,322.12,771.3Z"/><polygon class="cls-2" points="370.99 787.77 370.99 752.73 401.63 745.46 401.63 779.16 370.99 787.77"/><polygon class="cls-7" points="370.99 752.73 370.99 787.77 341.52 781.08 341.52 747.03 370.99 752.73"/><polygon class="cls-4" points="401.63 745.46 370.67 740.53 341.52 747.03 370.99 752.73 401.63 745.46"/><path class="cls-2" d="M357.75,758.63v18.5a1.66,1.66,0,0,1-2.15,1.67,2.83,2.83,0,0,1-2.15-2.62V757.67A1.66,1.66,0,0,1,355.6,756a2.73,2.73,0,0,1,1.52,1A2.64,2.64,0,0,1,357.75,758.63Z"/><path class="cls-1" d="M529.63,702.13h0a10.4,10.4,0,0,0-10.73,6.15l-8,18.3h0a7.66,7.66,0,0,0-8.44,3.84l-8.23,15.29,19.05,4.08Z"/><ellipse class="cls-1" cx="427.99" cy="624.51" rx="5.22" ry="1.17"/><polygon class="cls-1" points="432.23 623.03 433.17 624.35 422.81 624.37 423.75 623.05 432.23 623.03"/><ellipse class="cls-4" cx="427.99" cy="623.16" rx="4.28" ry="0.96"/><ellipse class="cls-7" cx="427.99" cy="623.09" rx="2.78" ry="0.39"/><rect class="cls-7" x="425.21" y="605.93" width="5.57" height="17.16"/><ellipse class="cls-8" cx="427.99" cy="573.76" rx="3.71" ry="0.89"/><path class="cls-4" d="M424.28,573.76V610c0,.29,1.66.53,3.71.53s3.71-.24,3.71-.53V573.76Z"/><ellipse class="cls-1" cx="386.68" cy="621.03" rx="5.22" ry="1.17"/><polygon class="cls-1" points="390.92 619.55 391.86 620.87 381.5 620.89 382.44 619.57 390.92 619.55"/><ellipse class="cls-4" cx="386.68" cy="619.69" rx="4.28" ry="0.96"/><ellipse class="cls-7" cx="386.68" cy="619.61" rx="2.78" ry="0.39"/><rect class="cls-7" x="383.9" y="602.46" width="5.57" height="17.16"/><ellipse class="cls-8" cx="386.68" cy="570.28" rx="3.71" ry="0.89"/><path class="cls-4" d="M383,570.28v36.28c0,.29,1.66.52,3.71.52s3.71-.23,3.71-.52V570.28Z"/><ellipse class="cls-1" cx="523.23" cy="615.39" rx="5.22" ry="1.17"/><polygon class="cls-1" points="527.46 613.91 528.4 615.23 518.04 615.25 518.98 613.93 527.46 613.91"/><ellipse class="cls-4" cx="523.23" cy="614.05" rx="4.28" ry="0.96"/><ellipse class="cls-7" cx="523.23" cy="613.97" rx="2.78" ry="0.39"/><rect class="cls-7" x="520.44" y="596.82" width="5.57" height="17.16"/><ellipse class="cls-8" cx="523.23" cy="564.64" rx="3.71" ry="0.89"/><path class="cls-4" d="M519.51,564.64v36.28c0,.29,1.67.52,3.72.52s3.71-.23,3.71-.52V564.64Z"/><ellipse class="cls-1" cx="481.92" cy="611.92" rx="5.22" ry="1.17"/><polygon class="cls-1" points="486.15 610.43 487.09 611.76 476.73 611.77 477.67 610.46 486.15 610.43"/><ellipse class="cls-4" cx="481.92" cy="610.57" rx="4.28" ry="0.96"/><ellipse class="cls-7" cx="481.92" cy="610.5" rx="2.78" ry="0.39"/><rect class="cls-7" x="479.13" y="593.34" width="5.57" height="17.16"/><ellipse class="cls-8" cx="481.92" cy="561.17" rx="3.71" ry="0.89"/><path class="cls-4" d="M478.21,561.17v36.27c0,.29,1.66.53,3.71.53s3.71-.24,3.71-.53V561.17Z"/><polygon class="cls-4" points="379.96 618.9 376.05 619.31 376.05 546.62 379.96 546.62 379.96 618.9"/><polygon class="cls-4" points="476.6 609 472.68 609.4 472.68 543.96 476.6 543.96 476.6 609"/><polygon class="cls-7" points="376.19 576.24 472.68 570.78 530.18 572.36 432.77 578.78 376.19 576.24"/><polygon class="cls-4" points="530.18 572.36 530.18 537.49 472.68 536.38 472.68 570.78 530.18 572.36"/><polygon class="cls-2" points="432.77 581.62 432.77 578.78 530.18 572.36 530.18 575.19 432.77 581.62"/><polygon class="cls-2" points="530.18 572.36 527.36 572.67 527.36 537.49 530.18 537.49 530.18 572.36"/><polygon class="cls-2" points="474.62 573.05 495.63 571.79 495.63 547.47 474.62 548.11 474.62 573.05"/><polygon class="cls-4" points="456.67 571.79 474.62 573.05 474.62 548.11 456.67 547.5 456.67 571.79"/><rect class="cls-1" x="483.26" y="551.98" width="3.74" height="14.68" rx="1.87" transform="translate(970.25 1118.64) rotate(180)"/><polygon class="cls-7" points="456.67 547.5 474.62 548.11 495.63 547.47 474.88 546.99 456.67 547.5"/><polygon class="cls-2" points="447.7 574.78 469.73 573.46 469.73 547.95 447.7 548.62 447.7 574.78"/><polygon class="cls-4" points="428.88 573.46 447.7 574.78 447.7 548.62 428.88 547.98 428.88 573.46"/><rect class="cls-1" x="456.76" y="552.69" width="3.92" height="15.39" rx="1.87" transform="translate(917.44 1120.76) rotate(180)"/><polygon class="cls-7" points="428.88 547.98 447.7 548.62 469.73 547.95 447.97 547.45 428.88 547.98"/><polygon class="cls-4" points="432.77 581.62 432.77 539.38 376.05 538.04 376.05 579.06 432.77 581.62"/><polygon class="cls-2" points="435.58 578.61 432.77 578.78 432.77 539.38 435.58 539.38 435.58 578.61"/><path class="cls-3" d="M446.17,316.86,571.43,347c3.8.92,5.93,3.14,4.74,5s-5.07,2.53-8.81,1.7l-125.8-29c-4.48-1-7.06-3.62-5.75-5.77S441.72,315.87,446.17,316.86Z"/><path class="cls-3" d="M158.38,358.32l130.67,15.42c2.79.32,4.86,1.73,4.65,3.13s-2.6,2.27-5.36,2L157.62,364.36c-3.31-.38-5.79-2-5.58-3.68S155.09,358,158.38,358.32Z"/><circle class="cls-2" cx="368.46" cy="524.58" r="2"/><rect class="cls-4" x="229.87" y="456.41" width="33.73" height="16.09" rx="2"/><polygon class="cls-4" points="229.87 469.55 229.87 476.16 234.72 472.5 229.87 469.55"/><polygon class="cls-2" points="449.85 709.56 446.84 709.7 446.92 711.13 449.85 709.56"/><path class="cls-3" d="M435.45,728.88l7.61-16.52a4.59,4.59,0,0,1,6.39-2.1h0a4.58,4.58,0,0,1,2,5.71l-4,10-9.19,2.52Z"/><path class="cls-2" d="M438.29,728.51l7.47-16.28a4.59,4.59,0,0,1,6.4-2.09h0a4.58,4.58,0,0,1,2,5.71l-4.11,10.39Z"/><ellipse class="cls-5" cx="450.01" cy="714.65" rx="3.5" ry="2.73" transform="translate(-277.89 1142.9) rotate(-88.27)"/><path class="cls-2" d="M399.65,720.73l5.75-10.8.16,1.82L397,703.36l2.32,1.21-16.77-1.27,2.32-.93-7.65,6.47.33-1.71,3.86,10.43a1.68,1.68,0,1,1-3.14,1.17l-3.86-10.44a1.66,1.66,0,0,1,.2-1.52l.14-.2,5.83-8.15a2.29,2.29,0,0,1,1.93-1l.39,0,16.8.71.3,0a2.49,2.49,0,0,1,2,1.19l6.17,10.28.12.2a1.64,1.64,0,0,1,0,1.62l-5.75,10.81a1.67,1.67,0,1,1-3-1.58Z"/><ellipse class="cls-4" cx="391.52" cy="699.23" rx="1.85" ry="8.88" transform="translate(-329.63 1048.75) rotate(-86.61)"/><polygon class="cls-4" points="400.17 694.76 400.38 699.76 382.66 698.71 382.45 693.72 400.17 694.76"/><ellipse class="cls-2" cx="391.31" cy="694.33" rx="1.71" ry="8.88" transform="translate(-324.92 1043.92) rotate(-86.61)"/><ellipse class="cls-2" cx="458.2" cy="679.8" rx="3.52" ry="4.51" transform="translate(-21.66 15.11) rotate(-1.85)"/><ellipse class="cls-2" cx="386.48" cy="686.4" rx="6.1" ry="7.82" transform="translate(-21.91 12.81) rotate(-1.85)"/><path class="cls-1" d="M391.54,693.76a6,6,0,0,1-4.73-9.68L427,632.51a6,6,0,1,1,9.47,7.37l-40.14,51.57A6,6,0,0,1,391.54,693.76Z"/><ellipse class="cls-2" cx="433.09" cy="637.31" rx="5.18" ry="6.19" transform="translate(-20.31 14.28) rotate(-1.85)"/><path class="cls-1" d="M470.5,681.14l-.11.33-14.55,43.75v0a3.28,3.28,0,0,1-3.09,2.19l-5,.1a8.26,8.26,0,0,1-7.58-4.35,4.31,4.31,0,0,1-.41-3.32c.09-.26.19-.52.3-.76l17.14-38.66.25-.56-.29-.43L431.4,642a8,8,0,0,1,.89-9.74h0a6.17,6.17,0,0,1,3.73-1.08h.05a6.19,6.19,0,0,1,4.89,2.7l28.74,41.77A6.22,6.22,0,0,1,470.5,681.14Z"/><ellipse class="cls-2" cx="396.69" cy="686.92" rx="6.31" ry="8.09" transform="translate(-21.92 13.14) rotate(-1.85)"/><ellipse class="cls-2" cx="468.38" cy="679.8" rx="3.52" ry="4.51" transform="translate(-21.66 15.44) rotate(-1.85)"/><ellipse class="cls-2" cx="437.76" cy="636.77" rx="2.19" ry="2.81" transform="translate(-20.29 14.43) rotate(-1.85)"/><ellipse class="cls-7" cx="397.61" cy="687.05" rx="2.19" ry="2.81" transform="translate(-21.93 13.17) rotate(-1.85)"/><path class="cls-2" d="M465.62,681h0l-8.48-.51a.5.5,0,0,1-.47-.53.48.48,0,0,1,.53-.47l8.48.51a.49.49,0,0,1,.47.53A.51.51,0,0,1,465.62,681Z"/><ellipse class="cls-1" cx="469.23" cy="679.77" rx="2.21" ry="2.83" transform="translate(-21.66 15.47) rotate(-1.85)"/><path class="cls-2" d="M445.7,717.86a.39.39,0,0,1-.18,0,.5.5,0,0,1-.29-.64l15-37.15a.49.49,0,0,1,.65-.28.5.5,0,0,1,.28.64l-15,37.15A.48.48,0,0,1,445.7,717.86Z"/><path class="cls-2" d="M461.23,680.21a.51.51,0,0,1,0,.17.14.14,0,0,1,0,.06.55.55,0,0,1-.16.18l-.12.06a.51.51,0,0,1-.17,0,.5.5,0,0,1-.21-.05h0a.58.58,0,0,1-.19-.16l-.15-.21-.46-.67-.81-1.16-.5-.74-26.59-38.33a6.42,6.42,0,0,1,.22-6.72l.26-.36h0a6.17,6.17,0,0,1,3.73-1.08,4.64,4.64,0,0,0-3.17,2,5.34,5.34,0,0,0-.19,5.64L461,679.68l.16.24A.52.52,0,0,1,461.23,680.21Z"/><path class="cls-2" d="M447.55,728a.49.49,0,0,1-.37-.16l-2.11-2.33a5.41,5.41,0,0,1-1-5.75l1.34-3.15a.5.5,0,0,1,.66-.26.5.5,0,0,1,.26.65L445,720.2a4.39,4.39,0,0,0,.78,4.68l2.11,2.33a.49.49,0,0,1,0,.7A.46.46,0,0,1,447.55,728Z"/><path class="cls-2" d="M481.73,753.06l0,.59a4.72,4.72,0,0,1-5.62,4.79L458.29,755a9,9,0,0,1-7.27-8.54,4.7,4.7,0,0,1,4.56-4.88,4.69,4.69,0,0,1,.91.06l17.68,2.84a9,9,0,0,1,7.56,8.59Z"/><polygon class="cls-2" points="478.28 758.36 452.14 764.98 449.25 765.71 445.81 766.59 437.74 768.63 437.42 764.96 437.33 763.89 436.59 755.32 446.61 752.97 448.27 752.57 477.49 745.71 478.28 758.36"/><path class="cls-1" d="M477.59,745.78l-24.78,5.77-16.22,3.77-21.85-3.52,39.91-10.11a4.77,4.77,0,0,1,1.84-.06l17.68,2.84A9,9,0,0,1,477.59,745.78Z"/><polygon class="cls-2" points="438.34 754.07 437.54 729.21 473.65 722.21 474.41 745.69 438.34 754.07"/><path class="cls-1" d="M438.34,754.07,421,750.86l-.16-4.66a4.69,4.69,0,0,1,4.53-4.83h0a4.65,4.65,0,0,0,4.36-3.46l2.22-8.33,5.56-.37Z"/><path class="cls-1" d="M441.76,763.17l0,.59a4.72,4.72,0,0,1-5.62,4.79l-17.84-3.45a9,9,0,0,1-7.28-8.53h0a4.73,4.73,0,0,1,5.48-4.82l17.68,2.83A9,9,0,0,1,441.76,763.17Z"/><ellipse class="cls-3" cx="417.26" cy="758.47" rx="1.55" ry="1.98" transform="translate(-197.33 148.84) rotate(-16.42)"/><ellipse class="cls-3" cx="426.42" cy="760.24" rx="1.55" ry="1.98" transform="translate(-197.46 151.49) rotate(-16.42)"/><ellipse class="cls-3" cx="436.38" cy="762.12" rx="1.55" ry="1.98" transform="translate(-171.65 128.44) rotate(-14.02)"/><path class="cls-1" d="M448.31,752.59l-1.67.39a8.67,8.67,0,0,1,5.68,7.85l0,.61a4.29,4.29,0,0,1-1.51,3.41,4.22,4.22,0,0,1-1.58.86l2.89-.73a5.19,5.19,0,0,0,1.23-3.58l0-.61A9.72,9.72,0,0,0,448.31,752.59Z"/><path class="cls-1" d="M469.63,747.61,468,748a8.39,8.39,0,0,1,5.5,7.61l0,.59a4.14,4.14,0,0,1-1.46,3.31,4,4,0,0,1-1.53.83l2.8-.7a5.07,5.07,0,0,0,1.2-3.47l0-.59A9.43,9.43,0,0,0,469.63,747.61Z"/><polygon class="cls-3" points="431.99 729.58 467.47 722.54 473.65 722.21 437.54 729.21 431.99 729.58"/><polygon class="cls-2" points="460.74 707.99 457.72 708.13 457.81 709.56 460.74 707.99"/><path class="cls-4" d="M446.62,726.68l7.33-15.9a4.58,4.58,0,0,1,6.39-2.09h0a4.6,4.6,0,0,1,2,5.71l-4,10-9.19,2.52Z"/><path class="cls-2" d="M449.09,727.05l7.56-16.39a4.58,4.58,0,0,1,6.39-2.09h0a4.59,4.59,0,0,1,2,5.7L461,724.67Z"/><ellipse class="cls-1" cx="460.89" cy="713.08" rx="3.5" ry="2.73" transform="translate(-265.76 1152.26) rotate(-88.27)"/><path class="cls-2" d="M473.65,722.21v-.15a8,8,0,0,0-9.44-7.9h0l-5.5,11.17Z"/><rect class="cls-2" x="405.44" y="664.91" width="8.33" height="5.18" transform="translate(-369.13 584.44) rotate(-52.38)"/><polygon class="cls-2" points="412.8 659.13 416.89 662.29 415.78 663.74 411.68 660.58 412.8 659.13"/><polygon class="cls-2" points="419.54 658.86 418.47 660.25 414.38 657.09 415.45 655.7 419.54 658.86"/><path class="cls-3" d="M467.63,743.71a.51.51,0,0,1-.5-.49l-.56-17.34a.5.5,0,0,1,.48-.51.51.51,0,0,1,.52.48l.56,17.34a.5.5,0,0,1-.49.52Z"/><path class="cls-3" d="M471.19,743.12a.5.5,0,0,1-.5-.48l-.56-17.34a.49.49,0,0,1,.48-.51.53.53,0,0,1,.52.48l.56,17.34a.5.5,0,0,1-.49.51Z"/><path class="cls-1" d="M357.75,766.62v10.51a1.66,1.66,0,0,1-2.15,1.67,2.83,2.83,0,0,1-2.15-2.62V765.71Z"/><path class="cls-1" d="M288.39,753.35v8.78a1.57,1.57,0,0,1-2,1.58,2.68,2.68,0,0,1-2-2.48v-8.57Z"/><polygon class="cls-1" points="288.39 749.52 288.39 751.62 284.34 751.01 284.34 748.91 288.39 749.52"/><polygon class="cls-1" points="254.14 752.12 254.14 754.22 250.18 753.51 250.18 751.41 254.14 752.12"/><path class="cls-1" d="M526.66,746.5l-.16,0a.5.5,0,0,1-.31-.63l9.33-27.12a.52.52,0,0,1,.36-.33l39.92-9.61a.51.51,0,0,1,.48.15.49.49,0,0,1,.11.5l-8.7,25.29a.51.51,0,0,1-.64.31.5.5,0,0,1-.31-.63l8.4-24.43-38.76,9.33-9.24,26.86A.5.5,0,0,1,526.66,746.5Z"/><ellipse class="cls-2" cx="186.99" cy="454.58" rx="1.61" ry="2.03" transform="matrix(1, -0.04, 0.04, 1, -16.38, 7.09)"/><path class="cls-2" d="M187,450a1.64,1.64,0,0,1-1.5-1.6V437.49a1.39,1.39,0,0,1,1.5-1.4,1.65,1.65,0,0,1,1.5,1.61v10.87A1.39,1.39,0,0,1,187,450Z"/><line class="cls-12" x1="180.61" y1="462.04" x2="192.7" y2="462.26"/><line class="cls-12" x1="235.33" y1="461.24" x2="245.52" y2="461.47"/><line class="cls-12" x1="235.33" y1="464.82" x2="245.52" y2="465.04"/><line class="cls-12" x1="235.33" y1="468.39" x2="240.9" y2="468.5"/><line class="cls-12" x1="180.61" y1="465.87" x2="192.7" y2="466.1"/><line class="cls-12" x1="180.61" y1="469.7" x2="189.03" y2="469.86"/><rect class="cls-7" x="249.4" y="460.25" width="2.55" height="8.42" rx="1.27"/><rect class="cls-7" x="253.81" y="460.24" width="2.54" height="8.42" rx="1.27"/><path class="cls-7" d="M260.76,461.52v5.88a1.27,1.27,0,0,1-2.54,0v-5.88a1.27,1.27,0,0,1,2.54,0Z"/><path class="cls-2" d="M260.76,463.21v4.19a1.27,1.27,0,0,1-2.54,0v-4.19Z"/><path class="cls-2" d="M252,466.74v.66a1.27,1.27,0,0,1-1.27,1.27h0a1.27,1.27,0,0,1-1.27-1.27v-.66Z"/><path class="cls-1" d="M135.43,467.25l-15.23-.63a1,1,0,0,1-1-1V412.87a1,1,0,0,1,1.08-1l15.22,1.23a1,1,0,0,1,.92,1v52.15A1,1,0,0,1,135.43,467.25Z"/><polygon class="cls-4" points="93.21 459.87 73.15 459.17 73.15 449.3 93.21 449.99 93.21 459.87"/><polygon class="cls-1" points="112.46 443.67 106.59 443.36 106.59 437.49 112.46 437.8 112.46 443.67"/><polygon class="cls-4" points="111.22 471.45 107.83 471.27 107.83 467.88 111.22 468.06 111.22 471.45"/><polygon class="cls-4" points="102.56 468.66 99.16 468.48 99.16 465.09 102.56 465.27 102.56 468.66"/><polygon class="cls-4" points="101.93 493.38 98.54 493.2 98.54 489.81 101.93 489.99 101.93 493.38"/><polygon class="cls-4" points="91.39 478.09 88 477.91 88 474.51 91.39 474.69 91.39 478.09"/><polygon class="cls-2" points="126.48 419.25 121.98 418.93 121.98 414.43 126.48 414.75 126.48 419.25"/><polygon class="cls-2" points="126.48 426.7 121.98 426.38 121.98 421.88 126.48 422.2 126.48 426.7"/><polygon class="cls-2" points="126.48 434.16 121.98 433.84 121.98 429.34 126.48 429.66 126.48 434.16"/><polygon class="cls-2" points="126.48 441.62 121.98 441.3 121.98 436.8 126.48 437.12 126.48 441.62"/><path class="cls-3" d="M133.39,464l-10.77-.39a.66.66,0,0,1-.64-.66v-3.18a.66.66,0,0,1,.68-.66l10.77.39a.66.66,0,0,1,.64.66v3.18A.66.66,0,0,1,133.39,464Z"/><path class="cls-1" d="M102.46,426c-.16,9.4-6.86,16.79-14.95,16.49a13.21,13.21,0,0,1-6.68-2.14c-4.66-3-7.79-8.82-7.68-15.41.14-7.9,4.9-14.38,11.21-16.07a12.29,12.29,0,0,1,3.74-.43,13.67,13.67,0,0,1,9.27,4.25A18.49,18.49,0,0,1,102.46,426Z"/><path class="cls-4" d="M97.37,412.7,87.8,425.48l-3.44-16.6a12.29,12.29,0,0,1,3.74-.43A13.67,13.67,0,0,1,97.37,412.7Z"/><path class="cls-2" d="M87.8,425.48l-7,14.88c-4.66-3-7.79-8.82-7.68-15.41.14-7.9,4.9-14.38,11.21-16.07Z"/><path class="cls-1" d="M90.88,466.33l-16.51-.7a1.29,1.29,0,0,1-1.22-1.27h0a1.16,1.16,0,0,1,1.22-1.16l16.51.7a1.29,1.29,0,0,1,1.22,1.27h0A1.16,1.16,0,0,1,90.88,466.33Z"/><path class="cls-1" d="M90.88,494.48l-16.51-.36a1.25,1.25,0,0,1-1.22-1.24h0a1.18,1.18,0,0,1,1.22-1.19l16.51.35a1.26,1.26,0,0,1,1.22,1.25h0A1.19,1.19,0,0,1,90.88,494.48Z"/><circle class="cls-2" cx="102.43" cy="476.66" r="4.5"/><path class="cls-1" d="M90.88,500.25l-16.51-.36a1.25,1.25,0,0,1-1.22-1.24h0a1.19,1.19,0,0,1,1.22-1.19l16.51.36a1.25,1.25,0,0,1,1.22,1.24h0A1.19,1.19,0,0,1,90.88,500.25Z"/><path class="cls-4" d="M128.78,474.36a11.52,11.52,0,0,1,2.2,2.55,17.46,17.46,0,0,1,1.46,2.72,18,18,0,0,1,1.42,5.88h0v.41a1.59,1.59,0,0,1-1,1.47,14.77,14.77,0,0,1-2,.68,18.68,18.68,0,0,1-2,.43,10.85,10.85,0,0,1-4.2-.15,1.09,1.09,0,0,1,.29-2.14h.07a8.19,8.19,0,0,0,3.11-.63,14.62,14.62,0,0,0,1.51-.69,11.71,11.71,0,0,0,1.35-.84l-1,1.88h0a13.58,13.58,0,0,0-1.55-4.4,12.67,12.67,0,0,0-1.27-1.91,7.28,7.28,0,0,0-1.44-1.38,2.46,2.46,0,0,1,2.69-4.11,1.44,1.44,0,0,1,.25.18Z"/><path class="cls-1" d="M108.94,540.83c-.13-1.58,1.76-1.94,4-2.06l1.41-3.6H117s.37,2.34.45,4.23a1.37,1.37,0,0,1-1.36,1.43Z"/><circle class="cls-1" cx="120.82" cy="466.56" r="5.6"/><path class="cls-4" d="M115.63,473.87l3.13-2.05,5.48-.65,3.84,2.7a6,6,0,0,1,2.52,5.56L129,494.74H114.73L113,479.61A6,6,0,0,1,115.63,473.87Z"/><path class="cls-2" d="M129,494.74c1.85,15.25.8,26.5.29,40.67h-2.2l-8.12-40.67Z"/><path class="cls-2" d="M114.73,494.74c-1.93,15.11-.51,23.88-.42,40.55l2.65-.12L124,494.74Z"/><path class="cls-1" d="M123.32,540.14c.15-1-.13-1.25,2.14-1.37l1.65-3.48,2.12-.12a35.6,35.6,0,0,1,.66,4.49,1.1,1.1,0,0,1-1.11,1.17A14,14,0,0,1,123.32,540.14Z"/><path class="cls-4" d="M118,479a6.66,6.66,0,0,0-1.5,1.67c-.51.75-1,1.64-1.57,2.56a30.87,30.87,0,0,1-4,5.53l-.21.22a1.85,1.85,0,0,1-2.1.42,17.18,17.18,0,0,1-2.1-1.13,17.83,17.83,0,0,1-1.89-1.33,12.26,12.26,0,0,1-3.12-3.58,1.23,1.23,0,0,1,2-1.42l0,.06a9.3,9.3,0,0,0,2.92,2.09,15.32,15.32,0,0,0,1.73.71,12.8,12.8,0,0,0,1.74.48l-2.3.65a26.15,26.15,0,0,0,2.89-5c.44-.93.88-1.91,1.45-3a12,12,0,0,1,2.43-3.21l.07-.07a2.78,2.78,0,0,1,3.74,4.11A2.65,2.65,0,0,1,118,479Z"/><path class="cls-2" d="M116.31,465.37l1-.18a1.73,1.73,0,0,1,2,1.42c.13.8.3,1.77.52,2.69a3.39,3.39,0,0,0,3.32,2.62h0a3.43,3.43,0,0,0,3.39-2.93l.57-3.9a4.85,4.85,0,0,0-4.67-4.84l-2.81-.1a4.73,4.73,0,0,0-4.76,3.56l0,.09A1.27,1.27,0,0,0,116.31,465.37Z"/><path class="cls-1" d="M101.25,479.72a5.18,5.18,0,0,0-.06,2.6l2.45-.48.31-1.47Z"/><circle class="cls-1" cx="102.59" cy="480.16" r="1.41"/><circle class="cls-1" cx="103.2" cy="477.28" r="0.44"/><circle class="cls-1" cx="102.43" cy="482.13" r="1.25"/><path class="cls-1" d="M103.62,477.13a5.16,5.16,0,0,1,.38,2.76l-1.24-.39a3.28,3.28,0,0,0,0-2.09Z"/><path class="cls-1" d="M499.23,429.26a8.79,8.79,0,0,1-8.74-8.25,8.69,8.69,0,0,1,8.17-9.24,8.78,8.78,0,0,1,9.25,8.24h0a8.69,8.69,0,0,1-8.17,9.24Zm-.07-16.51h-.44a7.6,7.6,0,0,0-5.3,2.57,7.7,7.7,0,0,0-1.94,5.62,7.79,7.79,0,0,0,8.2,7.3,7.7,7.7,0,0,0,7.23-8.18h0A7.8,7.8,0,0,0,499.16,412.75Z"/><path class="cls-2" d="M499.25,435A14.53,14.53,0,0,1,486,414.67l3.57,1.55a10.64,10.64,0,0,0,10.33,14.86,10.49,10.49,0,0,0,9.86-11.17,10.64,10.64,0,0,0-11.18-10l-.22-3.88A14.51,14.51,0,0,1,510,430.16a14.31,14.31,0,0,1-9.92,4.8C499.8,435,499.52,435,499.25,435Z"/><path class="cls-4" d="M471.75,415.4a3.43,3.43,0,0,0-3.69-3.47,3.9,3.9,0,0,0-2.52,1.15A4.51,4.51,0,0,0,460.9,410a5.26,5.26,0,0,0-4.8,4.28,2.7,2.7,0,0,0-1-.11,3.2,3.2,0,0,0-3,3.16,2.76,2.76,0,0,0,3,2.79l13-.8h0A4,4,0,0,0,471.75,415.4Z"/><line class="cls-13" x1="462.51" y1="445.63" x2="464" y2="445.56"/><line class="cls-14" x1="467.13" y1="445.42" x2="509.36" y2="443.47"/><line class="cls-13" x1="510.93" y1="443.4" x2="512.43" y2="443.33"/><line class="cls-15" x1="462.51" y1="445.63" x2="462.51" y2="422.51"/><line class="cls-15" x1="499.71" y1="439.5" x2="499.71" y2="455.33"/><circle class="cls-4" cx="453.66" cy="439.88" r="2.03"/><circle class="cls-4" cx="476.81" cy="429.08" r="1.44"/><circle class="cls-4" cx="462.51" cy="423.43" r="1.38"/><circle class="cls-4" cx="499.71" cy="455.33" r="1.38"/><path class="cls-2" d="M485.39,480c-1.12,0-1.49-2-2.19-7.41-.31-2.34-.76-5.82-1.25-6.5-.37.47-.69,3.13-.88,4.74-.44,3.61-.75,5.64-1.91,5.67h0c-1.15,0-1.57-2-2.22-5.58-.28-1.56-.75-4.11-1.19-4.68-.44.79-.75,4.16-1,6.44l-.08.89h-6.59v-1h5.68c.5-5.36.8-7.39,1.9-7.41s1.58,2,2.23,5.58c.3,1.61.78,4.25,1.24,4.72.42-.5.74-3.14.93-4.75.44-3.6.75-5.64,1.91-5.66s1.5,2,2.21,7.41c.29,2.25.73,5.58,1.19,6.41.44-.85.75-4.19,1-6.45.51-5.42.81-7.47,1.94-7.49h0c1.15,0,1.59,2.06,2.33,6,.35,1.83.93,4.88,1.42,5.18.31-.21.6-2.41.75-3.59.33-2.47.59-4.43,1.8-4.45h0c1.15,0,1.54,2,2.18,5.78.28,1.62.73,4.27,1.17,4.86.45-.77.77-4.19,1-6.5.51-5.41.81-7.46,1.94-7.48h0c1.11,0,1.48,2,2.19,7.41.29,2.26.72,5.58,1.19,6.41.43-.85.75-4.18,1-6.45.52-5.42.81-7.46,1.94-7.48s1.5,2,2.21,7.41v.12h3.46v1h-4.33l-.13-1c-.3-2.26-.73-5.58-1.2-6.42-.43.85-.75,4.19-1,6.45-.51,5.42-.81,7.47-1.94,7.49h0c-1.11,0-1.48-2.05-2.19-7.41-.29-2.26-.72-5.58-1.19-6.42-.43.85-.75,4.19-1,6.46-.52,5.41-.81,7.46-1.94,7.48h0c-1.15,0-1.54-2-2.18-5.78-.3-1.74-.79-4.65-1.26-4.95-.32.21-.61,2.41-.76,3.59-.33,2.47-.58,4.42-1.8,4.45h0c-1.14,0-1.59-2.06-2.33-6-.32-1.71-.85-4.49-1.32-5.09-.45.77-.77,4.19-1,6.5-.51,5.42-.81,7.46-1.94,7.49Z"/><polygon class="cls-3" points="415.51 396.63 410.36 395.57 407.56 399.86 410.36 405.02 415.51 405.58 417.89 401.48 415.51 396.63"/><path class="cls-1" d="M327.43,436.67V453a1.25,1.25,0,0,1-1.1,1.23c-1.16.11-2.94.3-3.66.39h-.05c-5.9.77-10,1.8-10.49,2.76a.16.16,0,0,0-.06.05V438.81a.59.59,0,0,1,0-.13.05.05,0,0,1,0,0,.21.21,0,0,1,.06-.1c.79-1.12,6.33-2.31,13.9-3.09A1.23,1.23,0,0,1,327.43,436.67Z"/><path class="cls-2" d="M322.62,454.63v3.54a1.25,1.25,0,0,1-1.29,1.23c-.59,0-1.17,0-1.72-.09v-4.25C320.55,454.92,321.56,454.77,322.62,454.63Z"/><path class="cls-1" d="M315.71,419.92l-7.27,2.29a1.41,1.41,0,0,0-1,1.32v9.76a1.1,1.1,0,0,0,1.48,1l7.27-2.3a1.41,1.41,0,0,0,1-1.32V421A1.09,1.09,0,0,0,315.71,419.92Z"/><path class="cls-4" d="M305.58,439.48l-4.22,1c-.33.08-.57.55-.57,1.14v7.3c0,.78.42,1.42.86,1.31l4.22-1c.33-.07.57-.55.57-1.14v-7.3C306.44,440,306,439.38,305.58,439.48Z"/><path class="cls-3" d="M322.62,441.62v13c-5.9.77-10,1.8-10.49,2.76a.16.16,0,0,0-.06.05V438.86a.17.17,0,0,1,0-.07c0,.81,3.73,1.37,9.35,1.6A1.23,1.23,0,0,1,322.62,441.62Z"/><path class="cls-4" d="M422.26,456v6.79a3.39,3.39,0,0,1-2.73-3.13c-.24-1.88.79-3.52,2.29-3.67A2.14,2.14,0,0,1,422.26,456Z"/><path class="cls-3" d="M421.39,452.68a4.22,4.22,0,0,1,.87,0v-2.74a6.22,6.22,0,0,0-1.22,0c-4.19.41-7.05,5-6.38,10.24.61,4.74,3.88,8.4,7.6,8.75v-2.74c-2.64-.26-5-2.85-5.4-6.22C416.38,456.24,418.41,453,421.39,452.68Z"/><path class="cls-4" d="M481.5,455l-18.54.68a1,1,0,0,1-1-1h0a1,1,0,0,1,1-1L481.5,453a1,1,0,0,1,1,1h0A1,1,0,0,1,481.5,455Z"/><path class="cls-4" d="M481.5,459.76l-18.54.68a1,1,0,0,1-1-1h0a1,1,0,0,1,1-1l18.54-.68a1,1,0,0,1,1,1h0A1,1,0,0,1,481.5,459.76Z"/><path class="cls-4" d="M471,489.32l-8,.15a1,1,0,0,1-1-1h0a1,1,0,0,1,1-1l8-.15a1,1,0,0,1,1,1h0A1,1,0,0,1,471,489.32Z"/><path class="cls-4" d="M486.5,489l-8,.15a1,1,0,0,1-1-1h0a1,1,0,0,1,1-1l8-.15a1,1,0,0,1,1,1h0A1,1,0,0,1,486.5,489Z"/><path class="cls-4" d="M501.84,488.84l-8,.15a1,1,0,0,1-1-1h0a1,1,0,0,1,1-1l8-.15a1,1,0,0,1,1,1h0A1,1,0,0,1,501.84,488.84Z"/><path class="cls-1" d="M416.45,498.48c-1-1.26-17.3-3-45.51-3s-44.56,1.75-45.52,3a.18.18,0,0,0,0-.11h-1c0-3.86,44.59-3.9,46.49-3.9s46.48,0,46.48,3.9h-1A.18.18,0,0,0,416.45,498.48Z"/><circle class="cls-2" cx="554.28" cy="460.15" r="5.15"/><polyline class="cls-16" points="556.52 458.85 553.92 461.45 552.55 460.09"/><path class="cls-2" d="M579.77,454.1v12.09a2,2,0,0,1-2,2h-8.84V452.1h8.84A2,2,0,0,1,579.77,454.1Z"/><path class="cls-3" d="M576.4,457.36a.81.81,0,0,1-.81.81H563.72a.81.81,0,1,1,0-1.62h11.87A.81.81,0,0,1,576.4,457.36Z"/><path class="cls-3" d="M572.77,462.52a.81.81,0,0,1-.81.81h-8.24a.82.82,0,0,1-.82-.81.82.82,0,0,1,.82-.82H572A.82.82,0,0,1,572.77,462.52Z"/><path class="cls-1" d="M572.77,462.52a.81.81,0,0,1-.81.81h-3V461.7h3A.82.82,0,0,1,572.77,462.52Z"/><path class="cls-1" d="M576.4,457.36a.81.81,0,0,1-.81.81h-6.66v-1.62h6.66A.81.81,0,0,1,576.4,457.36Z"/><path class="cls-1" d="M614.19,391.12A12.63,12.63,0,0,1,602.1,403.9a11.79,11.79,0,0,1-11.81-12.09A12.65,12.65,0,0,1,602.1,379,11.77,11.77,0,0,1,614.19,391.12Z"/><path class="cls-2" d="M614.18,391.8a12.67,12.67,0,0,1-11.26,12.06v-8.92a2.58,2.58,0,0,1,2.36-2.58Z"/><path class="cls-3" d="M608.12,395.55v.19a1.69,1.69,0,0,1-1.6,1.57h-.14a1.6,1.6,0,0,1-1.49-1.64,1.7,1.7,0,0,1,1.61-1.72A1.6,1.6,0,0,1,608.12,395.55Z"/><path class="cls-3" d="M605,387.58a6.9,6.9,0,0,0-6.49,7,7.1,7.1,0,0,0,.19,1.61l2.47-.06a4.51,4.51,0,0,1-.29-1.61,4.39,4.39,0,0,1,4.12-4.44,4.29,4.29,0,0,1,1.52.25v-2.58A5.49,5.49,0,0,0,605,387.58Z"/><path class="cls-3" d="M605,383.1a11.46,11.46,0,0,0-10.72,11.57,11.9,11.9,0,0,0,.11,1.59l2.38-.05a8.61,8.61,0,0,1-.14-1.61,8.93,8.93,0,0,1,8.37-9,7.17,7.17,0,0,1,1.54.1v-2.51A8.74,8.74,0,0,0,605,383.1Z"/><path class="cls-4" d="M597.85,449.66h-22.5a1,1,0,0,1-1-1v-5.88a1,1,0,0,1,1-1l22.5.35a1,1,0,0,1,1,1v5.53A1,1,0,0,1,597.85,449.66Z"/><path class="cls-4" d="M597.85,480.53h-22.5a1,1,0,0,1-1-1v-5.89a1,1,0,0,1,1-1l22.5.35a1,1,0,0,1,1,1v5.54A1,1,0,0,1,597.85,480.53Z"/><path class="cls-4" d="M496.88,423.5a.55.55,0,0,1-.4-.16.6.6,0,0,1-.18-.42v-4.63a.57.57,0,0,1,.55-.58l4.64-.22a.58.58,0,0,1,.43.16.59.59,0,0,1,.17.42v4.64a.57.57,0,0,1-.55.57l-4.63.22Zm4.64-.79h0Zm-4.06-3.87v3.48l3.48-.17v-3.47Z"/><path class="cls-4" d="M498.06,418.81a.58.58,0,0,1-.58-.58V417a.58.58,0,0,1,1.16,0v1.25A.58.58,0,0,1,498.06,418.81Z"/><path class="cls-4" d="M500.16,418.72a.58.58,0,0,1-.58-.58v-1.25a.58.58,0,0,1,1.16,0v1.25A.58.58,0,0,1,500.16,418.72Z"/><path class="cls-4" d="M498.06,424.85a.58.58,0,0,1-.58-.58V423a.58.58,0,0,1,1.16,0v1.25A.58.58,0,0,1,498.06,424.85Z"/><path class="cls-4" d="M500.16,424.75a.58.58,0,0,1-.58-.58v-1.25a.58.58,0,0,1,1.16,0v1.25A.58.58,0,0,1,500.16,424.75Z"/><path class="cls-4" d="M501,419.45a.6.6,0,0,1,.58-.6l1.25-.05a.54.54,0,0,1,.58.55.6.6,0,0,1-.58.6l-1.25.06A.56.56,0,0,1,501,419.45Z"/><path class="cls-4" d="M501.06,421.55a.6.6,0,0,1,.58-.6l1.25-.06a.56.56,0,0,1,.58.56.6.6,0,0,1-.58.6l-1.25.05A.54.54,0,0,1,501.06,421.55Z"/><path class="cls-4" d="M494.93,419.71a.62.62,0,0,1,.58-.61l1.25-.05a.56.56,0,0,1,.58.56.6.6,0,0,1-.58.6l-1.25.05A.54.54,0,0,1,494.93,419.71Z"/><path class="cls-4" d="M495,421.81a.61.61,0,0,1,.58-.61l1.25-.05a.54.54,0,0,1,.58.55.62.62,0,0,1-.58.61l-1.25.05A.55.55,0,0,1,495,421.81Z"/><path class="cls-4" d="M627.39,400.17a3.08,3.08,0,0,1-4.4.09,3.21,3.21,0,0,1,0-4.47,3.07,3.07,0,0,1,4.4-.11A3.21,3.21,0,0,1,627.39,400.17Z"/><polygon class="cls-4" points="620.48 405.02 618.35 405.2 618.48 403.02 623.7 397.59 625.71 399.59 620.48 405.02"/><path class="cls-3" d="M626.65,398.24a1.24,1.24,0,0,1-1.76,0,1.28,1.28,0,0,1,0-1.78,1.23,1.23,0,0,1,1.76-.05A1.29,1.29,0,0,1,626.65,398.24Z"/><path class="cls-2" d="M639.23,415.89l-31.61,1.38a1.1,1.1,0,0,1-1.12-1.12V411a1.12,1.12,0,0,1,1-1.14l31.61-1.6a1.13,1.13,0,0,1,1.19,1.14v5.27A1.18,1.18,0,0,1,639.23,415.89Z"/><path class="cls-1" d="M616.73,413.17a1.08,1.08,0,0,1-1.05,1.09,1.08,1.08,0,0,1,0-2.15A1,1,0,0,1,616.73,413.17Z"/><path class="cls-1" d="M620.35,413a1.09,1.09,0,0,1-1.06,1.09,1.07,1.07,0,0,1-1.06-1.07,1.08,1.08,0,0,1,1.06-1.09A1.06,1.06,0,0,1,620.35,413Z"/><path class="cls-1" d="M623.88,412.85a1.08,1.08,0,0,1-1.07,1.09,1.06,1.06,0,0,1-1.06-1.07,1.09,1.09,0,0,1,1.06-1.1A1.07,1.07,0,0,1,623.88,412.85Z"/><path class="cls-1" d="M627.49,412.68a1.08,1.08,0,0,1-1.07,1.1,1.07,1.07,0,0,1-1.07-1.08,1.08,1.08,0,0,1,1.07-1.09A1.06,1.06,0,0,1,627.49,412.68Z"/><path class="cls-1" d="M630.88,412.51a1.1,1.1,0,0,1-1.08,1.1,1.08,1.08,0,0,1-1.08-1.08,1.09,1.09,0,0,1,1.08-1.1A1.08,1.08,0,0,1,630.88,412.51Z"/><polyline class="cls-15" points="469.34 422.08 469.34 429.7 475.54 429.17"/><path class="cls-3" d="M590.64,662l-7.91,1.62c-2,.4-3.05-.71-2.41-2.49h0a7,7,0,0,1,4.74-4l7.91-1.61c2-.41,3,.71,2.41,2.49h0A7,7,0,0,1,590.64,662Z"/><ellipse class="cls-1" cx="591.8" cy="658.74" rx="2.91" ry="1.63" transform="translate(-279.76 502.06) rotate(-37.87)"/><path class="cls-3" d="M579.47,672.6l7.91-1.62a7,7,0,0,0,4.74-4h0c.64-1.78-.44-2.89-2.41-2.49l-7.91,1.62a7,7,0,0,0-4.74,4h0C576.41,671.89,577.49,673,579.47,672.6Z"/><ellipse class="cls-2" cx="580.64" cy="669.38" rx="2.91" ry="1.63" transform="translate(-288.64 497.44) rotate(-37.87)"/><path class="cls-3" d="M576.21,681.62l7.9-1.61a7.05,7.05,0,0,0,4.75-4h0c.64-1.78-.44-2.89-2.42-2.49l-7.9,1.62a7,7,0,0,0-4.74,4h0C573.15,680.91,574.23,682,576.21,681.62Z"/><ellipse class="cls-2" cx="577.37" cy="678.4" rx="2.91" ry="1.63" transform="translate(-294.87 497.34) rotate(-37.87)"/><path class="cls-2" d="M650.61,444v-1.47a2.66,2.66,0,0,0-2.38-2.6l-2.2-.21a2.13,2.13,0,0,0-2.38,2.16v1.48h0a.59.59,0,0,0-.67.6v5.64a.74.74,0,0,0,.67.72l7,.64a.59.59,0,0,0,.67-.6v-5.63a.75.75,0,0,0-.67-.73ZM645,442a1,1,0,0,1,1.06-1l2.2.21a1.18,1.18,0,0,1,1.06,1.15v1.47l-4.32-.4Z"/><path class="cls-4" d="M648.29,448.92l-.68-1.84a1,1,0,0,0,.54-1.13,1.18,1.18,0,0,0-.76-.83,1,1,0,0,0-1.31.9,1.14,1.14,0,0,0,.57,1l-.68,1.72a.32.32,0,0,0,.28.39l1.76.16A.26.26,0,0,0,648.29,448.92Z"/><path class="cls-1" d="M319.61,413.23a14.92,14.92,0,0,0,5,1,15.15,15.15,0,0,0,15.48-13.61.93.93,0,0,0-.9-1l-13.33-.42a.77.77,0,0,1-.75-.8l.19-6-5.65-.62Z"/><path class="cls-4" d="M326.62,396.71a1,1,0,0,0,1,1.05l13,.4a1,1,0,0,0,1-1.06,14.57,14.57,0,0,0-.43-3l-14.47-1.6Z"/><path class="cls-3" d="M324.52,384.11a14.88,14.88,0,0,0-4.91,1v6.61l5.65.62.22-7.29A.92.92,0,0,0,324.52,384.11Z"/><path class="cls-2" d="M328.15,382.72a1,1,0,0,0-1.12,1l-.27,8.83,14.47,1.6A15.11,15.11,0,0,0,328.15,382.72Z"/><path class="cls-7" d="M320.27,361.36v2a6.27,6.27,0,0,1,2.54-3l-.8-.61A9.39,9.39,0,0,0,320.27,361.36Z"/><path class="cls-2" d="M328.77,356.5a24.34,24.34,0,0,0-6.76,3.26l.8.61a23.73,23.73,0,0,1,6-2.83Z"/><path class="cls-2" d="M332.27,356.5a84.11,84.11,0,0,1,9.39-1.84v-1a88.19,88.19,0,0,0-9.39,1.82Z"/><path class="cls-7" d="M320.27,369.28v2c.85-2.65,5.12-5,11.89-6.81l-1.74-.56C325.45,365.38,322,367.21,320.27,369.28Z"/><path class="cls-2" d="M341.66,361.57a79.14,79.14,0,0,0-11.24,2.34l1.74.56a84.93,84.93,0,0,1,9.5-1.88Z"/><path class="cls-7" d="M334.34,371.22c-7.08,1.21-12,3.14-14.07,5.6v2c.94-2.87,6-5.17,14.07-6.56Z"/><path class="cls-3" d="M647.88,482h-1v-3h1Zm0-6h-1v-3h1Zm0-6h-1v-3h1Zm0-6h-1v-3h1Zm0-6h-1v-3h1Z"/><path class="cls-3" d="M660.15,456.39l-2.55-.15.06-1,2.55.15Zm-5.55-.34-3-.18.06-1,3,.19Zm-6-.36-3-.19.06-1,3,.18Zm-6-.37-3-.18.06-1,3,.18Zm-6-.36-3-.19.06-1,3,.19Z"/><rect class="cls-3" x="659.38" y="457.66" width="1" height="3"/><rect class="cls-3" x="633.17" y="456.13" width="1" height="3"/><path class="cls-2" d="M604,440.5h20.8a0,0,0,0,1,0,0v40a0,0,0,0,1,0,0H604a1,1,0,0,1-1-1v-38A1,1,0,0,1,604,440.5Z"/><path class="cls-3" d="M609.61,449.85l-.7-.7L611.1,447l-2.19-2.19.7-.71,2.55,2.54a.52.52,0,0,1,.14.36.5.5,0,0,1-.14.35Z"/><rect class="cls-3" x="608.68" y="450.94" width="3.69" height="1"/><path class="cls-3" d="M595.65,445.8a.8.8,0,0,1-.81.8L583,446.46a.81.81,0,1,1,0-1.62l11.87.14A.83.83,0,0,1,595.65,445.8Z"/><circle class="cls-3" cx="578.01" cy="445.69" r="1.06"/><path class="cls-3" d="M595.72,476.83a.8.8,0,0,1-.81.8L583,477.58a.85.85,0,0,1-.84-.81.81.81,0,0,1,.82-.8l12,0A.82.82,0,0,1,595.72,476.83Z"/><ellipse class="cls-3" cx="577.95" cy="476.84" rx="1.07" ry="1.06" transform="translate(-1.65 2.01) rotate(-0.2)"/><path class="cls-2" d="M610.26,502.79h0L565,502.06a.34.34,0,0,1-.34-.35.35.35,0,0,1,.35-.35h0l45.27.73a.34.34,0,0,1,.34.35A.35.35,0,0,1,610.26,502.79Z"/><path class="cls-2" d="M612.46,499.67h0L567.18,499a.36.36,0,0,1-.34-.36.35.35,0,0,1,.35-.34h0l45.26.72a.36.36,0,0,1,.35.36A.35.35,0,0,1,612.46,499.67Z"/><path class="cls-2" d="M614.65,496.56h0l-45.26-.73a.35.35,0,0,1-.35-.35.35.35,0,0,1,.35-.35h0l45.26.73a.35.35,0,0,1,.35.35A.35.35,0,0,1,614.65,496.56Z"/><path class="cls-2" d="M616.84,493.44h0l-45.27-.72a.35.35,0,0,1-.34-.36.35.35,0,0,1,.35-.34h0l45.27.72a.34.34,0,0,1,.34.36A.35.35,0,0,1,616.84,493.44Z"/><path class="cls-1" d="M578.8,503.68a5.26,5.26,0,0,1-2.57.44l.13-2.5,1.4-.51Z"/><circle class="cls-1" cx="578.17" cy="502.42" r="1.41"/><circle class="cls-1" cx="576.25" cy="502.87" r="1.25"/><path class="cls-4" d="M560.63,538.79c.13-1.58-1.76-1.93-4-2l-1.44-3.58h-2.58s-.35,2.33-.42,4.23a1.36,1.36,0,0,0,1.36,1.42Z"/><circle class="cls-1" cx="556.51" cy="481.93" r="5.15"/><path class="cls-4" d="M560.91,490.83,557.54,487l-5.15-2-4.12,1.56a6.51,6.51,0,0,0-4.13,5.15L542,506.7l11.9,3.06Z"/><path class="cls-4" d="M561,491c1.2,1.86,2,3.69,2.94,5.37a47.36,47.36,0,0,0,2.84,4.85l-1.46-.84c1.6.35,3.26.67,4.89.93.82.13,1.64.24,2.45.33a19.19,19.19,0,0,0,2.34.13h0a1.23,1.23,0,0,1,.3,2.43,19.57,19.57,0,0,1-2.72.36c-.89.07-1.76.11-2.63.13-1.75,0-3.46,0-5.22,0a1.73,1.73,0,0,1-1.26-.62l-.2-.23a53.63,53.63,0,0,1-3.63-4.95c-1.11-1.68-2.12-3.32-3.19-4.65a2.77,2.77,0,0,1,4.31-3.49,1.46,1.46,0,0,1,.17.24Z"/><path class="cls-1" d="M569.93,494.31a5.25,5.25,0,0,1-2.22,1.36l-.81-2.37,1.12-1Z"/><circle class="cls-1" cx="568.88" cy="493.37" r="1.41"/><circle class="cls-1" cx="567.26" cy="494.5" r="1.25"/><path class="cls-4" d="M548.7,489a60.73,60.73,0,0,1,4.71,3.92,49.88,49.88,0,0,0,4.43,3.46l-1.67-.25c1.62-.26,3.28-.58,4.89-.93.81-.18,1.61-.38,2.4-.59a19.24,19.24,0,0,0,2.22-.74l.05,0A1.23,1.23,0,0,1,566.9,496a20,20,0,0,1-2.4,1.34c-.79.39-1.59.75-2.39,1.08-1.61.69-3.2,1.31-4.86,1.91a1.7,1.7,0,0,1-1.4-.11l-.27-.14a54.2,54.2,0,0,1-5.2-3.27c-1.65-1.16-3.19-2.31-4.68-3.15a2.78,2.78,0,0,1,2.73-4.84l.25.16Z"/><path class="cls-3" d="M560.8,481.9l-.86-.39a1.58,1.58,0,0,0-2.12.81c-.3.68-.68,1.5-1.08,2.28a3.14,3.14,0,0,1-3.56,1.57h0a3.14,3.14,0,0,1-2.35-3.38l.38-3.61a4.47,4.47,0,0,1,5.27-3.25l2.53.56a4.34,4.34,0,0,1,3.42,4.26v.09A1.16,1.16,0,0,1,560.8,481.9Z"/><circle class="cls-1" cx="570.48" cy="494.24" r="0.44"/><path class="cls-1" d="M570.71,494.63a5.29,5.29,0,0,1-2.66.86l.17-1.29a3.21,3.21,0,0,0,2.06-.35Z"/><circle class="cls-1" cx="571.11" cy="492.3" r="0.62"/><path class="cls-1" d="M571,492.93a1.9,1.9,0,0,0-.89,1L568.43,492a5.78,5.78,0,0,1,2.85-.33Z"/><path class="cls-4" d="M555.16,533.17l3.78-19.78-10.33-5.78-12.71-.91-.16,1.19a6.58,6.58,0,0,0,5.44,7.36l11,1.83.39,16.1Z"/><path class="cls-4" d="M579.58,535.41c-.52-1.5-2.39-1-4.52-.24l-2.75-2.7L570,533.53s.62,2.27,1.32,4a1.37,1.37,0,0,0,1.82.75Z"/><path class="cls-4" d="M572.31,532.47l-4-17.15a4.8,4.8,0,0,0-2.91-3.4l-10.78-4.31L542,506.7l5.27,8.55,15.86,3.7L570,533.53Z"/><path class="cls-1" d="M518.13,481.75l7.74-.27a14.33,14.33,0,0,1,13.66,8.61l6.6,15.19a14.76,14.76,0,0,0,11.79,8.77h0a9,9,0,0,1,8,9h0a5.85,5.85,0,0,1-5.85,5.86h-16.3a9.24,9.24,0,0,1-8-4.56l-21.16-36.17A4.25,4.25,0,0,1,518.13,481.75Z"/><path class="cls-3" d="M669.19,538.43v-45.8L633,491a45,45,0,0,0-30.68,10.21l-14,11.51-13.42,20.54v8Z"/><path class="cls-2" d="M630.85,476.86l-1.38-.08a.81.81,0,0,1-.76-.8V463.26a.71.71,0,0,1,.76-.72l8.63.48a.81.81,0,0,1,.76.8v1.65Z"/><path class="cls-3" d="M630.87,478.24V465.68a.6.6,0,0,1,.64-.61l8.86.49a.69.69,0,0,1,.65.68V478.8a.6.6,0,0,1-.65.61l-8.86-.49A.69.69,0,0,1,630.87,478.24Z"/><line class="cls-17" x1="632.84" y1="467.46" x2="638.93" y2="467.8"/><line class="cls-17" x1="632.84" y1="469.69" x2="638.93" y2="470.03"/><line class="cls-17" x1="632.84" y1="471.9" x2="638.93" y2="472.23"/><path class="cls-2" d="M642.85,471.16l-2.79-.15a.63.63,0,0,1-.59-.63V467.6a.55.55,0,0,1,.59-.56l2.79.15a.64.64,0,0,1,.59.63v2.78A.55.55,0,0,1,642.85,471.16Z"/><line class="cls-18" x1="641.52" y1="467.77" x2="641.52" y2="470.31"/><line class="cls-18" x1="642.79" y1="469.11" x2="640.25" y2="468.97"/><path class="cls-2" d="M664.77,465.62v12.13H655.9a1.31,1.31,0,0,1-.73-.22,1.32,1.32,0,0,1-.58-1.09v-12a.54.54,0,0,1,.54-.54h4.93c.3,0,.53.15.78.54l.7,1.2Z"/><path class="cls-3" d="M664.77,467.44v10.4H655.9a.91.91,0,0,1-.73-.31,1,1,0,0,1-.11-1l2.74-7.79a2,2,0,0,1,1.73-1.31Z"/><ellipse class="cls-2" cx="647.38" cy="482.72" rx="1.55" ry="1.53" transform="translate(-1.67 2.25) rotate(-0.2)"/><path class="cls-4" d="M547.24,405.94a2.26,2.26,0,0,1-2,2.19l-24.93,2.74c-1.1.12-4.28,5.06-4.28,2.76V393.71a2.27,2.27,0,0,1,2-2.2l27.23-3a1.74,1.74,0,0,1,2,1.76Z"/><ellipse class="cls-2" cx="539.96" cy="398.73" rx="2.07" ry="1.87" transform="translate(-119.38 272.96) rotate(-25.64)"/><ellipse class="cls-2" cx="531.27" cy="399.84" rx="2.07" ry="1.87" transform="translate(-120.71 269.3) rotate(-25.64)"/><ellipse class="cls-2" cx="522.76" cy="400.92" rx="2.07" ry="1.87" transform="translate(-122.02 265.72) rotate(-25.64)"/><path class="cls-1" d="M278.24,445.71l-46.17-.58a2.35,2.35,0,0,1-2.34-2.3V428.7a2.24,2.24,0,0,1,2.34-2.21l46.17,1.17a2.26,2.26,0,0,1,2.19,2.25v13.64A2.15,2.15,0,0,1,278.24,445.71Z"/><path class="cls-3" d="M246.13,436.25a5.3,5.3,0,0,1-5.48,5.25,5.56,5.56,0,0,1-5.53-5.46,5.32,5.32,0,0,1,5.53-5.25A5.56,5.56,0,0,1,246.13,436.25Z"/><path class="cls-2" d="M240,438.73c-.44.27-.8.08-.8-.43v-3.89c0-.51.36-.7.8-.41l2.9,1.91a.56.56,0,0,1,0,1Z"/><path class="cls-19" d="M245.71,436.65l2,0s2.12,0,3-.79c1.27-1.18,1.64-2.67,2.91-2.67,2,0,1.71,7.22,4.19,7.26,2.18,0,2.7-9.63,4.86-9.58,1.42,0,1.95,2.89,2.53,4.9a2.71,2.71,0,0,0,2.56,2l7.6.14"/><path class="cls-20" d="M572.31,667.21l-23.58,4.66c-.54.11-.83-.21-.65-.72l2.08-5.81a1.92,1.92,0,0,1,1.32-1.11l23.58-4.66c.54-.11.83.21.65.72l-2.08,5.81A1.9,1.9,0,0,1,572.31,667.21Z"/><ellipse class="cls-3" cx="558.7" cy="665.41" rx="0.98" ry="0.55" transform="translate(-294.79 502.68) rotate(-39.19)"/><ellipse class="cls-3" cx="555.73" cy="666.01" rx="0.98" ry="0.55" transform="translate(-295.83 500.94) rotate(-39.19)"/><ellipse class="cls-3" cx="552.74" cy="666.58" rx="0.98" ry="0.55" transform="translate(-296.86 499.18) rotate(-39.19)"/><ellipse class="cls-3" cx="552.31" cy="683.93" rx="0.98" ry="0.55" transform="matrix(0.78, -0.63, 0.63, 0.78, -307.92, 502.81)"/><ellipse class="cls-3" cx="549.34" cy="684.53" rx="0.98" ry="0.55" transform="translate(-308.97 501.07) rotate(-39.19)"/><ellipse class="cls-3" cx="546.35" cy="685.1" rx="0.98" ry="0.55" transform="translate(-310 499.3) rotate(-39.19)"/><path class="cls-20" d="M565.68,685.72l-23.58,4.66c-.55.11-.84-.21-.66-.72l2.09-5.81a1.88,1.88,0,0,1,1.31-1.11l23.58-4.67c.54-.1.84.22.65.72L567,684.61A2,2,0,0,1,565.68,685.72Z"/><path class="cls-20" d="M569,676.45l-23.58,4.66c-.54.11-.84-.22-.65-.72l2.08-5.82a2,2,0,0,1,1.31-1.11l23.58-4.66c.55-.11.84.22.66.72l-2.09,5.82A1.93,1.93,0,0,1,569,676.45Z"/><path class="cls-3" d="M549,676.26a.38.38,0,0,1-.07-.75l5.3-.92a.37.37,0,1,1,.13.73l-5.3.93Z"/><path class="cls-3" d="M548,678.36a.37.37,0,0,1-.36-.31.36.36,0,0,1,.29-.43l5.15-1a.37.37,0,0,1,.44.3.37.37,0,0,1-.3.43l-5.15,1Z"/><polygon class="cls-2" points="549.04 673.29 549.61 671.7 571.81 667.31 571.24 668.9 549.04 673.29"/><polygon class="cls-2" points="545.73 682.54 546.3 680.95 568.5 676.56 567.93 678.15 545.73 682.54"/><path class="cls-3" d="M417.21,426.38a5.29,5.29,0,0,0-4.49-5.08h0a3.84,3.84,0,0,0-4.49,3.89Z"/><ellipse class="cls-3" cx="412.72" cy="417.61" rx="1.51" ry="1.72" transform="translate(-173.97 394.59) rotate(-43.09)"/><path class="cls-2" d="M395.49,376.14l-5.65.34-.57-1c-.21-.31-.4-.43-.64-.41l-4.07.25a.48.48,0,0,0-.45.47v8a1,1,0,0,0,1.08,1l10.3-.63a1.15,1.15,0,0,0,1.07-1.14v-5.93A1,1,0,0,0,395.49,376.14Z"/><path class="cls-3" d="M480.27,624.66a8.58,8.58,0,0,1-.14,1.35,9,9,0,0,1-7.13,7.2l-17.85,3.45a4.73,4.73,0,0,1-5.62-4.8l0-.59a9,9,0,0,1,3.89-7.1,2.4,2.4,0,0,1,.26-.18,8.93,8.93,0,0,1,3.42-1.31l24-3.86a5.65,5.65,0,0,1,.8-.07H482a5,5,0,0,1,.57.06l.35.07C485.06,619.38,480.35,622.34,480.27,624.66Z"/><polygon class="cls-4" points="480.83 631.75 510.55 634.64 510.86 630.98 510.96 629.91 511.69 621.34 480.92 619.23 480.83 631.75"/><polygon class="cls-3" points="453.7 636.71 483.42 639.61 483.74 635.94 483.83 634.87 484.57 626.3 453.8 624.19 453.7 636.71"/><path class="cls-1" d="M512.74,621.75l-28.18,4.55-4.43-.29-26.69-1.84a2.4,2.4,0,0,1,.26-.18,8.93,8.93,0,0,1,3.42-1.31l24-3.86a5.65,5.65,0,0,1,.8-.07h0l.66.06Z"/><ellipse class="cls-2" cx="511.32" cy="628.11" rx="6.53" ry="5.09" transform="translate(-235.68 941.08) rotate(-73.58)"/><ellipse class="cls-2" cx="484.92" cy="632.98" rx="6.87" ry="5.36" transform="translate(-259.3 919.25) rotate(-73.58)"/><path class="cls-2" d="M511,621.7l-24,3.86a9,9,0,0,0-7.56,8.59l0,.59a4.73,4.73,0,0,0,5.54,4.81V636a3.44,3.44,0,0,1-.82-2.35v-.44a6.71,6.71,0,0,1,5.64-6.4L507.63,624a3.52,3.52,0,0,1,4,2.63l.31-.05-.18,7.58a9,9,0,0,0,4.71-7.61A4.72,4.72,0,0,0,511,621.7Z"/><path class="cls-1" d="M471,634.52l.07.62a5.37,5.37,0,0,0,1.77,3.43l3,.3a4.22,4.22,0,0,1-1.72-.63,4.37,4.37,0,0,1-2-3.22l-.07-.62a8.82,8.82,0,0,1,4.57-8.74l-1.73-.14A9.89,9.89,0,0,0,471,634.52Z"/><path class="cls-1" d="M455.23,633.13l.07.6A5.09,5.09,0,0,0,457,637l2.91.29a4.11,4.11,0,0,1-1.66-.6,4.2,4.2,0,0,1-1.94-3.1l-.07-.6a8.51,8.51,0,0,1,4.4-8.42l-1.67-.14A9.57,9.57,0,0,0,455.23,633.13Z"/><path class="cls-2" d="M322.35,654.86l-.12,0-19.07,1.92-11,1.1-.3-3.5-.09-1-2.3-8.15,0-.07h0l.3,0,30.31-3,.35,0Z"/><path class="cls-5" d="M323.16,654.7a3.87,3.87,0,0,1-.81.16l-.12,0c-2.43.19-4.9-1.8-5.8-4.85-1-3.43.34-6.91,3-7.77a3.56,3.56,0,0,1,.61-.14l.35,0a4.79,4.79,0,0,1,3.27,1.1,6.63,6.63,0,0,1,1,.93h0a7.71,7.71,0,0,1,1.49,2.81C327.21,650.37,325.85,653.85,323.16,654.7Z"/><polygon class="cls-4" points="344.51 675.91 314.34 678.94 314.04 675.43 313.95 674.41 311.63 666.18 342.58 663.11 344.51 675.91"/><ellipse class="cls-4" cx="343.47" cy="669.52" rx="5.12" ry="6.49" transform="translate(-158.87 109.27) rotate(-14.72)"/><path class="cls-3" d="M322.5,665.47l-1.66.14a8.43,8.43,0,0,1,4.37,8.35l-.06.6a4.19,4.19,0,0,1-1.93,3.07,4,4,0,0,1-1.65.61l2.89-.3a5.1,5.1,0,0,0,1.69-3.27l.06-.59A9.43,9.43,0,0,0,322.5,665.47Z"/><path class="cls-3" d="M340.23,664.13l-1.6.14a8.1,8.1,0,0,1,4.21,8.05l-.06.56a4,4,0,0,1-1.86,3,3.87,3.87,0,0,1-1.59.58l2.79-.28a4.93,4.93,0,0,0,1.62-3.16l.07-.57A9.16,9.16,0,0,0,340.23,664.13Z"/><path class="cls-3" d="M346.62,664.83l-30.52,2.93-12.94-11-13.67-11.58-.07-.06h.05l.3,0,30.31-3,.35,0a4.79,4.79,0,0,1,3.27,1.1c.31.28.64.6,1,.93h0Z"/><ellipse class="cls-1" cx="290.85" cy="651.48" rx="5.12" ry="6.49" transform="translate(-156.02 95.3) rotate(-14.72)"/><ellipse class="cls-1" cx="312.96" cy="672.49" rx="5.19" ry="6.66" transform="translate(-177.29 115.85) rotate(-16.42)"/><path class="cls-1" d="M317.94,671a8.12,8.12,0,0,0-1.71-3.1h0l0,0a6.17,6.17,0,0,0-.79-.75L294,646.82a6.17,6.17,0,0,0-.53-.5h0a4.68,4.68,0,0,0-4.42-1c-2.69.86-4.06,4.34-3,7.77a7.5,7.5,0,0,0,2.1,3.41v-6.1l5.74.61a2.5,2.5,0,0,1,.47,0h0a3.57,3.57,0,0,1,1.59.77h0a2.82,2.82,0,0,1,.36.33l14.46,13.7a3.64,3.64,0,0,1,.53.51h0a5.46,5.46,0,0,1,1.32,4.33h0l0,.06a4,4,0,0,1-.67,1.79l-1.84,4.91,0,0h0a4.94,4.94,0,0,0,4.77,1.42C317.59,678.07,319,674.55,317.94,671Z"/><polygon class="cls-1" points="330.13 642.75 317.77 663.11 301.61 647.91 313.62 628.13 330.13 642.75"/><path class="cls-2" d="M311.7,652.4h0a1.93,1.93,0,0,1-.36-2.3l6.53-10.75a1.17,1.17,0,0,1,1.88-.2h0a1.91,1.91,0,0,1,.36,2.29l-6.53,10.75A1.17,1.17,0,0,1,311.7,652.4Z"/><polygon class="cls-2" points="317.77 663.11 334.2 661.52 347.5 641.88 330.13 642.75 317.77 663.11"/><polygon class="cls-3" points="330.13 642.75 347.5 641.88 330.98 627.26 313.62 628.13 330.13 642.75"/><circle class="cls-1" cx="184.98" cy="519.96" r="2.91"/><circle class="cls-1" cx="191.06" cy="518.39" r="2.91"/><circle class="cls-1" cx="187.28" cy="517.62" r="2.31"/><circle class="cls-1" cx="184.37" cy="522.76" r="2.31"/><path class="cls-3" d="M199.48,542.52a4.87,4.87,0,0,0-2.39.47l.46,2.26,1.83-.09Z"/><circle class="cls-3" cx="199.35" cy="543.84" r="1.32"/><circle class="cls-3" cx="197.52" cy="544.08" r="1.17"/><circle class="cls-3" cx="199.91" cy="542.22" r="0.42"/><path class="cls-3" d="M199.82,541.81a4.89,4.89,0,0,0-2.38,1.08l.93.8a3,3,0,0,1,1.65-1.07Z"/><circle class="cls-3" cx="201.57" cy="543.16" r="0.59"/><path class="cls-3" d="M201.13,542.78a1.83,1.83,0,0,1-1.25-.13v2.4a5.42,5.42,0,0,0,2.18-1.58Z"/><path class="cls-2" d="M181.7,580.46l9-14.88v3.74a48.6,48.6,0,0,1-3.71-3.6c-1.15-1.25-2.28-2.53-3.35-3.84s-2.14-2.64-3.16-4-2-2.73-2.92-4.15l8.17-5.77c1,1.34,2,2.73,2.94,4.14s1.83,2.85,2.7,4.32,1.7,2.94,2.49,4.45a46.42,46.42,0,0,1,2.15,4.69l.47,1.22a2.49,2.49,0,0,1-.46,2.52l-11.59,13.25Z"/><path class="cls-1" d="M185.16,588.56a3.31,3.31,0,0,0-2-3l1.32-3-1-5s-3.64,5-3.53,7.08l.87,2.79c.33.18.69.36,1.07.53C183.11,588.53,184.54,588.93,185.16,588.56Z"/><path class="cls-2" d="M175.48,549c-3.5,5.23.37,20.17,2.63,41.4l3.37,2.1c.48-16.92,3.24-28.34,3.75-43.72Z"/><path class="cls-1" d="M192.66,531.36a16.63,16.63,0,0,1,.93,2.86,27.08,27.08,0,0,1,.5,2.7c.13.89.22,1.77.29,2.66l.08,1.33c0,.47,0,.84,0,1.5h0l-1-1.8a8.56,8.56,0,0,0,.91.64c.35.22.7.45,1.08.65a14.41,14.41,0,0,0,2.37,1l.05,0a1,1,0,0,1-.17,1.88,13.34,13.34,0,0,1-3.1.09,10.46,10.46,0,0,1-1.56-.22,8,8,0,0,1-1.62-.5,1.77,1.77,0,0,1-1-1.62v-.18h0l-.19-1-.25-1.16c-.19-.77-.39-1.53-.62-2.28s-.49-1.47-.77-2.15a10,10,0,0,0-.92-1.8,2.88,2.88,0,0,1,4.76-3.23,2.32,2.32,0,0,1,.24.43Z"/><path class="cls-1" d="M188.39,551.57,173.62,550l3.92-13c1-3.18.9-5.67,1.85-7.27.66-1.09,2.07-1.65,3.62-2.14l.36-.11,1.72-.47,5.27,2.16.7.81,1.84,2.1A20.38,20.38,0,0,1,192,538Z"/><path class="cls-1" d="M185.32,598.84s-.15-1.58-3.25-2.69l-.59-3.69-3.37-2.1s0,6.94.63,7.47C180,598.3,184.28,599.57,185.32,598.84Z"/><circle class="cls-7" cx="189.13" cy="524.08" r="5.03"/><path class="cls-1" d="M184.6,526.28l1.67-2.7a2.46,2.46,0,0,1,3.09-1h0a7.27,7.27,0,0,0,2.2.56l2.3.22a1.87,1.87,0,0,0,2-1.37h0a1.88,1.88,0,0,0-.68-2,19.18,19.18,0,0,0-4.59-2.57,5.33,5.33,0,0,0-4.8.63l0,0a5.37,5.37,0,0,0-2.35,4.19l-.11,2.31a1.62,1.62,0,0,0,1.33,1.67Z"/><ellipse class="cls-7" cx="186.08" cy="523.76" rx="1.25" ry="1.86" transform="translate(-63.78 27.25) rotate(-7.15)"/><path class="cls-7" d="M191.06,530a4.39,4.39,0,0,1-8.05-2.39l.36-.11,1.72-.47,5.27,2.16Z"/><polygon class="cls-2" points="198 546.24 184.1 546.39 188.75 540.13 202.65 539.97 198 546.24"/><path class="cls-3" d="M185.23,544.31a4.91,4.91,0,0,0-2.41-.4l-.36,2.27,1.75.57Z"/><circle class="cls-3" cx="184.65" cy="545.5" r="1.32"/><circle class="cls-3" cx="182.84" cy="545.08" r="1.17"/><circle class="cls-3" cx="185.74" cy="544.18" r="0.42"/><path class="cls-3" d="M185.8,543.76a5,5,0,0,0-2.61.18l.59,1.07a3,3,0,0,1,1.91-.42Z"/><circle class="cls-3" cx="186.96" cy="545.65" r="0.59"/><path class="cls-3" d="M186.68,545.13a1.83,1.83,0,0,1-1.12-.56l-.83,2.25a5.39,5.39,0,0,0,2.58-.71Z"/><path class="cls-1" d="M182.81,533.11a34.32,34.32,0,0,0-3.37,4c-1,1.42-1.93,3-2.89,4.58h0l-.3-3.12s.09.18.15.27.17.24.27.36.41.49.63.73a19.46,19.46,0,0,0,1.46,1.39,27,27,0,0,0,3.41,2.46h0a1.13,1.13,0,0,1-.82,2.06,30.08,30.08,0,0,1-4.49-1.31,24,24,0,0,1-2.22-1c-.37-.19-.73-.39-1.1-.61-.19-.11-.37-.24-.56-.36a4.78,4.78,0,0,1-.64-.5,2.32,2.32,0,0,1-.4-2.94l.11-.18h0c1-1.58,2-3.25,3.23-4.87a39.88,39.88,0,0,1,4-4.52,2.5,2.5,0,0,1,3.54,3.53Z"/><circle class="cls-1" cx="193.98" cy="520.45" r="2.91"/><ellipse class="cls-3" cx="544.34" cy="562.52" rx="4.5" ry="0.81" transform="translate(-235.51 630.11) rotate(-50.89)"/><path class="cls-2" d="M530.77,558.43c-.86.91-1.72,1.71-2.58,2.52s-1.75,1.58-2.64,2.34-1.8,1.53-2.73,2.28c-.47.37-1,.73-1.47,1.11l-.82.57c-.15.1-.32.21-.53.33a3.66,3.66,0,0,1-.41.22c-.12.05-.24.11-.37.15a3.23,3.23,0,0,1-.44.12,2.67,2.67,0,0,1-.56.06h-.15a2.24,2.24,0,0,1-1.75-.77,21.93,21.93,0,0,1-1.42-1.86c-.44-.62-.83-1.27-1.21-1.93a14.35,14.35,0,0,1-1.6-4.33,1.41,1.41,0,0,1,2.42-1.22l.06.07c.91,1,1.81,1.91,2.73,2.84.45.47.92.92,1.39,1.37s1,.9,1.39,1.24l-1.9-.77a1.75,1.75,0,0,0-.45,0,1.73,1.73,0,0,0-.33.09.67.67,0,0,0-.18.07h0l.19-.15.55-.47,1.2-1.09c.81-.75,1.63-1.53,2.43-2.32l2.41-2.38c.79-.79,1.58-1.6,2.31-2.36v0a3.09,3.09,0,0,1,4.48,4.25Z"/><rect class="cls-3" x="519.68" y="555.45" width="9.01" height="9.17" transform="translate(-235.31 452.43) rotate(-38.83)"/><path class="cls-2" d="M525.81,554.86l3.49-2.29,6.11-.72,1.65,1a11.38,11.38,0,0,1,5.41,11.08l-1.8,15.17H524.81l.28-17.85A21.91,21.91,0,0,1,525.81,554.86Z"/><path class="cls-1" d="M540.67,579.1c2.23,7.7,3.11,26.29,2.54,42.08l-3.12.23-9-42.31Z"/><path class="cls-1" d="M524.81,579.1c-1.24,12.67.23,23.25.33,41.82H528l7.16-41.82Z"/><path class="cls-2" d="M520.26,627.81s.3-1.77,3.9-2.77l1-4.12,3.19-2s-.37,6.24-.55,8.28C526.32,627.65,521.38,628.72,520.26,627.81Z"/><path class="cls-2" d="M537.4,628.69a3.58,3.58,0,0,1,2.61-3l.08-4.33,3.19-2s.32,4.94.33,8C542.93,628.08,538.52,629.59,537.4,628.69Z"/><path class="cls-3" d="M524.81,579.1V553.64l2.76-.34h0a4.23,4.23,0,0,0,4.22,2.74h.09a4.24,4.24,0,0,0,2-.63l4-2.46,2.38.41a59.83,59.83,0,0,1,2,12.88s-1,10.23-1.52,12.86Z"/><circle class="cls-2" cx="532.06" cy="547.65" r="5.43"/><path class="cls-1" d="M536.13,551.25l-1-3.49a2.44,2.44,0,0,0-2.68-1.73l-2,.29a11.7,11.7,0,0,1-2,.12l-1.25,0a1.49,1.49,0,0,1-1.45-1.49h0a3.92,3.92,0,0,1,2.76-3.75,19.14,19.14,0,0,1,4.05-.83,5.69,5.69,0,0,1,4.81,2l.05.06a5.8,5.8,0,0,1,1.21,5L538,549.9a1.74,1.74,0,0,1-1.86,1.35Z"/><ellipse class="cls-2" cx="535.31" cy="548.2" rx="1.72" ry="1.15" transform="translate(-119.39 946.27) rotate(-76.98)"/><path class="cls-2" d="M540.19,584.61l2.69-11.72a3,3,0,1,1,5.89,1.35,3.15,3.15,0,0,1-.26.71L543,585.63a1.5,1.5,0,0,1-2.8-1Z"/><path class="cls-2" d="M538.32,586.92a6.75,6.75,0,0,1,1.86-2.84l2.67,1.76-1.06,2.32Z"/><circle class="cls-2" cx="540.09" cy="587.44" r="1.84"/><circle class="cls-2" cx="541.36" cy="585.2" r="1.63"/><circle class="cls-2" cx="537.71" cy="587.32" r="0.58"/><path class="cls-2" d="M537.23,587a6.8,6.8,0,0,1,2.64-2.51l.53,1.61a4.14,4.14,0,0,0-2.22,1.58Z"/><circle class="cls-2" cx="538.07" cy="589.95" r="0.82"/><path class="cls-2" d="M537.8,589.18a2.53,2.53,0,0,0,.49-1.68l3.08,1.26a7.44,7.44,0,0,1-3.16,2Z"/><path class="cls-2" d="M513.48,553.79a6.84,6.84,0,0,1,1,3.25l-3.06.94-1.11-2.3Z"/><circle class="cls-2" cx="511.95" cy="554.83" r="1.84"/><circle class="cls-2" cx="512.88" cy="557.24" r="1.63"/><circle class="cls-2" cx="513.56" cy="553.07" r="0.58"/><path class="cls-2" d="M514.12,552.91a6.86,6.86,0,0,1,.26,3.63l-1.59-.61a4.17,4.17,0,0,0,.21-2.72Z"/><circle class="cls-2" cx="511.3" cy="551.67" r="0.82"/><path class="cls-2" d="M512.07,552a2.53,2.53,0,0,0,1,1.45L510.12,555a7.46,7.46,0,0,1,.47-3.7Z"/><path class="cls-2" d="M545.7,576.05h-.25a3,3,0,0,1-2.75-3.24c.25-3-2.21-9.85-4.22-12.82a3,3,0,0,1,5-3.37c2.4,3.55,5.64,11.81,5.23,16.69A3,3,0,0,1,545.7,576.05Z"/><rect class="cls-3" x="536.3" y="555.17" width="9.01" height="9.17" transform="translate(607.39 1335.23) rotate(-140.89)"/><polygon class="cls-1" points="512.98 556.31 509.59 557.39 509.59 547.55 512.98 548.2 512.98 556.31"/><path class="cls-3" d="M290.87,177.14c-7.13,11.09-14.19,21.41-20.77,30.5s-12.72,16.93-18,23.07c0,0-1.23,35.47-57,89.91l-9.29,1.81-.75.15-20,3.88-3.94.77-50.92,9.91-53.7,10.44-9.68,1.89.2-5.41a29.63,29.63,0,0,1,4.83-15.21l85.71-131h28l44.67-66.46L345.29,0c-.89,16.87-6.66,39-17,61.77q-1.6,3.54-3.29,6.94h0c-12.88,23.36-19.74,40.34-16.43,42.46,1.64,1.06,5.6-1.71,11.11-7.39h0c4.71-4.62,8.09-6.8,9.58-5.84C334.19,101.09,317,136.54,290.87,177.14Z"/><path class="cls-4" d="M242.8,200.35c-1.73,4.6-3.61,9.16-5.53,13.73l-1.48,3.41c-.5,1.13-1.06,2.22-1.58,3.33-1.06,2.22-2.18,4.41-3.28,6.62l-3.36,6.61c-.55,1.12-1.16,2.17-1.77,3.24l-1.82,3.2c-2.45,4.25-4.9,8.54-7.46,12.74a552.26,552.26,0,0,1-33.87,48c-7,8.84-21.07,21.63-32.81,28.23l-11,2.14-28.62,5.57L69.91,345l-13.37,2.59a30.92,30.92,0,0,1,5.9-6.89c.37-.32.75-.63,1.12-.93l.22-.16,21.5-16.86c7.25-5.74,14.58-11.45,21.8-17.29q21.8-17.38,43.25-35.31c14.2-12,28.13-24.37,42.1-36.82s27.4-25.42,41.19-38.78l.13-.12a5.54,5.54,0,0,1,9.05,5.93Z"/><path class="cls-3" d="M359.14,95.24a1.18,1.18,0,0,0-1.66.21l0,0a75,75,0,0,0-5.28,8.12c-1.37,2.48-2.71,5-3.94,7.5l.4-.86-1.17,2.4-.56,1.12a2.5,2.5,0,0,1-1.26,1.18h0a2.49,2.49,0,0,1-3.42-2.56s0-.1,0-.14l.08-.76,0,.08c.09-.93.18-1.86.19-2.82a1.85,1.85,0,0,0-3.26-1.22l0,.06a88.46,88.46,0,0,0-7.7,11c-2.27,3.78-4.32,7.63-6.31,11.52s-3.93,7.82-5.82,11.8-3.7,8-5.23,12.34v.05a2.2,2.2,0,0,0,.42,2.2,2.23,2.23,0,0,0,3.13.21A65.5,65.5,0,0,0,327,146.55a90.79,90.79,0,0,0,7.4-11.54c.36-.67.7-1.34,1.05-2v0l.39-.78c.08-.16.16-.33.25-.49.76-1.53,2-4.09,2.79-5.64.56-1.16,2.39-.55,1.53,1.41-.2.44-.72,1.78-.72,1.78a1.45,1.45,0,0,0,.27,1.47,1.44,1.44,0,0,0,2,.1,46.31,46.31,0,0,0,6.59-7.42,63.26,63.26,0,0,0,5.2-8.39,54.92,54.92,0,0,0,3.93-9,37,37,0,0,0,1.93-9.8A1.21,1.21,0,0,0,359.14,95.24Z"/><path class="cls-3" d="M386.48,163.78a2.85,2.85,0,0,0-4-.16,164.68,164.68,0,0,0-11.53,11.84l0,0a59.76,59.76,0,0,1-5.46,5.45,2.21,2.21,0,0,1-3.55-2.4l0-.05c.29-.85.83-2.38.83-2.38a70.5,70.5,0,0,0,2.56-9.93,1.82,1.82,0,0,0-3.11-1.57l-.05.05c-6,6.29-11.11,12.9-16.23,19.44s-9.93,13.19-14.79,19.8-10,13-15,19.48S305.58,236,300.17,242.57l-.06.07a2.2,2.2,0,0,0,2.65,3.37c2-.94,3.9-2,5.82-3a53,53,0,0,0,5.57-3.48c.83-.57,3.51-2.65,4-3.1a88.36,88.36,0,0,1,10.74-8.12l.07,0a1.84,1.84,0,0,1,2.54.6,1.87,1.87,0,0,1,.18,1.57c-.44,1.27-7.57,16.41-9.92,23.26l0,.09a3.81,3.81,0,0,0,5.9,4.27c7.72-5.76,13.94-12.62,19.77-19.68A211.34,211.34,0,0,0,363.18,216c4.79-7.74,9.31-15.65,13.35-23.85a176,176,0,0,0,10.57-25.58A2.87,2.87,0,0,0,386.48,163.78Z"/><ellipse class="cls-3" cx="291.78" cy="217.99" rx="24.43" ry="4.65" transform="translate(-60.74 309.55) rotate(-51.32)"/><path class="cls-3" d="M138.86,331.57l-28.62,5.57L69.91,345c4.87-4.28,10-8.61,15.4-12.94,39.69-31.94,76.8-51.71,82.88-44.15C172.46,293.21,160.27,310.61,138.86,331.57Z"/><ellipse class="cls-3" cx="334.94" cy="172.03" rx="10.86" ry="3.18" transform="translate(-8.68 326.01) rotate(-51.32)"/><path class="cls-3" d="M381.89,33.83s5.32,9.75,1.32,26.5,28-26.5,28-26.5Z"/><path class="cls-4" d="M137.6,197.83s-3.3,23.83,10.2,16.83,17.8-16.83,17.8-16.83Z"/><path class="cls-4" d="M230.25,256c-3.67,7.41-7.71,14.57-12,21.64s-8.83,14-13.64,20.71-10,13.27-15.43,19.62c-1.35,1.57-2.74,3.11-4.14,4.64l-20,3.88a193.9,193.9,0,0,0,17.55-14.78c5.78-5.57,11.43-11.36,16.71-17.52s10.43-12.45,15.3-19,9.54-13.25,13.83-20.16l0,0a1,1,0,0,1,1.74,1Z"/><path class="cls-3" d="M223.91,228.77a107.78,107.78,0,0,1-7.46,14.79,150.33,150.33,0,0,1-9.23,13.73A143,143,0,0,1,196.56,270a98.43,98.43,0,0,1-12.31,11.13,1,1,0,0,1-1.4-1.42v0c3.36-4.32,6.8-8.49,10.1-12.78s6.59-8.56,9.77-12.94l9.62-13.09c3.2-4.38,6.44-8.76,9.82-13.06v0a1,1,0,0,1,1.73,1Z"/><path class="cls-3" d="M349.76,23.52a63.9,63.9,0,0,1-.38,8.43c-.15,1.39-.37,2.78-.55,4.17l-.74,4.14a100.64,100.64,0,0,1-4.7,16.17A90.64,90.64,0,0,1,336,71.61c-.76,1.19-1.5,2.39-2.28,3.56s-1.67,2.28-2.53,3.4l-1.29,1.66c-.46.54-.94,1.06-1.42,1.58-1,1-1.91,2.07-2.89,3.06a1,1,0,0,1-1.6-1.19l0-.06c.67-1.21,1.36-2.39,2.06-3.56l1.05-1.74,1-1.8c.63-1.2,1.32-2.36,1.94-3.56s1.19-2.43,1.8-3.63c2.3-4.88,4.5-9.8,6.33-14.88s3.6-10.18,5.16-15.38,3-10.47,4.45-15.75v0a1,1,0,0,1,1.23-.71A1,1,0,0,1,349.76,23.52Z"/><path class="cls-3" d="M395.41,143.26a24.19,24.19,0,0,1,3.34,9.94,35.21,35.21,0,0,1-.3,10.45c-.16.86-.37,1.71-.57,2.55-.11.43-.2.85-.32,1.27l-.41,1.24c-.27.82-.54,1.65-.86,2.46s-.71,1.58-1.06,2.36l-.56,1.17c-.21.38-.43.75-.65,1.12-.45.73-.88,1.48-1.34,2.2a42.94,42.94,0,0,1-3.16,4,1,1,0,0,1-1.74-.94l0-.09c.45-1.62,1.06-3.12,1.56-4.65.23-.78.49-1.53.73-2.29.12-.38.24-.76.38-1.13l.3-1.15c.22-.76.43-1.52.66-2.27l.55-2.28c.41-1.51.61-3,.94-4.57a79.19,79.19,0,0,0,.91-9.24,74.53,74.53,0,0,0-.27-9.43v-.13a1,1,0,0,1,.91-1.1A1,1,0,0,1,395.41,143.26Z"/><path class="cls-2" d="M607.85,333c-22-4.24-42.06-8.75-61.72-13.69-10.42-2.62-20.72-5.36-31.15-8.25l-27.56-42a77,77,0,0,1-11.87-31.62,63.26,63.26,0,0,0-6.43-20.33l-21.55-41.82a12.45,12.45,0,0,1-1.39-5.72,12.6,12.6,0,0,1,.29-2.66,1.31,1.31,0,0,1,2.35-.5C485.51,217.58,554.65,284.48,607.85,333Z"/><ellipse class="cls-2" cx="510.14" cy="232.03" rx="7.71" ry="44.68" transform="translate(-30.09 381.12) rotate(-39.89)"/><ellipse class="cls-2" cx="609.26" cy="288.97" rx="7.71" ry="44.68" transform="translate(-43.55 457.93) rotate(-39.89)"/><ellipse class="cls-2" cx="484.57" cy="122.77" rx="8.02" ry="44.68" transform="translate(55.11 378.6) rotate(-45)"/><ellipse class="cls-2" cx="487.47" cy="182.28" rx="2.52" ry="9.61" transform="translate(-3.47 355) rotate(-39.89)"/><path class="cls-2" d="M505.42,189.8a38.74,38.74,0,0,1,9.92,5.72,57.93,57.93,0,0,1,8.25,7.71,65.56,65.56,0,0,1,6.76,9.05,46.46,46.46,0,0,1,4.81,10.29,1.46,1.46,0,0,1-.95,1.84,1.43,1.43,0,0,1-1.41-.29l0,0c-2.84-2.47-5.28-5.11-7.8-7.68s-4.89-5.2-7.29-7.82-4.8-5.24-7.12-8-4.66-5.51-6.79-8.52l-.06-.07a1.48,1.48,0,0,1,1.72-2.24Z"/><path class="cls-4" d="M252.61,177.66A24,24,0,0,1,256,187.6a34.61,34.61,0,0,1-.3,10.46c-.16.86-.36,1.7-.57,2.55-.1.43-.19.85-.31,1.27l-.41,1.24c-.28.82-.55,1.65-.86,2.45s-.71,1.59-1.07,2.37l-.55,1.17c-.21.38-.44.75-.66,1.12-.45.73-.87,1.48-1.33,2.2a42.68,42.68,0,0,1-3.17,4,1,1,0,0,1-1.43.09,1,1,0,0,1-.31-1l0-.09c.44-1.63,1.05-3.12,1.55-4.65.23-.78.49-1.53.73-2.29.13-.38.25-.76.38-1.13l.31-1.15c.22-.76.42-1.52.66-2.27l.54-2.28c.42-1.51.62-3,.94-4.57a74.49,74.49,0,0,0,.65-18.67l0-.13a1,1,0,0,1,.92-1.1A1,1,0,0,1,252.61,177.66Z"/><ellipse class="cls-4" cx="252.57" cy="603.3" rx="0.71" ry="0.91" transform="translate(-12.74 5.49) rotate(-1.22)"/><ellipse class="cls-1" cx="255.77" cy="603.55" rx="0.71" ry="0.91" transform="translate(-12.75 5.56) rotate(-1.22)"/><ellipse class="cls-1" cx="258.84" cy="603.79" rx="0.71" ry="0.91" transform="translate(-12.75 5.63) rotate(-1.22)"/><ellipse class="cls-1" cx="262.17" cy="604.05" rx="0.71" ry="0.91" transform="translate(-12.75 5.7) rotate(-1.22)"/><ellipse class="cls-1" cx="252.55" cy="599.82" rx="0.71" ry="0.91" transform="translate(-12.67 5.49) rotate(-1.22)"/><ellipse class="cls-1" cx="255.74" cy="600.07" rx="0.71" ry="0.91" transform="translate(-12.67 5.56) rotate(-1.22)"/><ellipse class="cls-4" cx="258.81" cy="600.31" rx="0.71" ry="0.91" transform="translate(-12.68 5.63) rotate(-1.22)"/><ellipse class="cls-1" cx="262.14" cy="600.57" rx="0.71" ry="0.91" transform="translate(-12.68 5.7) rotate(-1.22)"/><polygon class="cls-4" points="274.02 587.68 274.02 603.24 272.02 603.4 272.02 587.8 274.02 587.68"/><polygon class="cls-4" points="290.02 586.64 290.02 601.96 288.02 602.12 288.02 586.76 290.02 586.64"/><polygon class="cls-4" points="296.71 586.23 296.71 601.43 294.71 601.6 294.71 586.36 296.71 586.23"/><polygon class="cls-4" points="303.31 585.81 303.31 600.91 301.3 601.08 301.3 585.93 303.31 585.81"/><polygon class="cls-4" points="316.29 584.97 316.29 599.89 314.28 600.05 314.28 585.1 316.29 584.97"/><polygon class="cls-4" points="328.03 584.24 328.03 598.96 326.03 599.13 326.03 584.36 328.03 584.24"/><polygon class="cls-4" points="333.95 583.9 333.95 598.5 331.95 598.67 331.95 584.02 333.95 583.9"/><polygon class="cls-4" points="308.97 586.41 308.97 601.17 306.97 601.33 306.97 586.53 308.97 586.41"/><polygon class="cls-7" points="306.97 586.53 301.3 586.23 301.3 600.93 306.97 601.33 306.97 586.53"/><polygon class="cls-4" points="304.13 591 304.13 596.49 306.97 597.75 306.97 590 304.13 591"/><polygon class="cls-4" points="308.97 586.41 303.31 586.05 301.3 586.23 306.97 586.53 308.97 586.41"/><polygon class="cls-4" points="321.95 585.55 321.95 600.31 319.95 600.48 319.95 585.67 321.95 585.55"/><polygon class="cls-7" points="319.95 585.67 314.28 585.38 314.28 600.07 319.95 600.48 319.95 585.67"/><polygon class="cls-4" points="317.12 590.15 317.12 595.63 319.95 596.9 319.95 589.15 317.12 590.15"/><polygon class="cls-4" points="321.95 585.55 316.29 585.2 314.28 585.38 319.95 585.67 321.95 585.55"/><polygon class="cls-4" points="269.25 585.32 269.25 584.02 247.12 582.6 247.12 584 269.25 585.32"/><circle class="cls-1" cx="468.09" cy="473.06" r="1.44"/><circle class="cls-3" cx="586.43" cy="94.99" r="3.98"/><circle class="cls-3" cx="719.04" cy="242.22" r="3.13"/><circle class="cls-3" cx="800.82" cy="557.24" r="3.98"/><circle class="cls-3" cx="747.86" cy="482.01" r="2"/><circle class="cls-3" cx="14.63" cy="315.64" r="2"/><circle class="cls-3" cx="827.96" cy="326.46" r="3.98"/><circle class="cls-3" cx="727.65" cy="107.62" r="1.62"/><circle class="cls-3" cx="2.64" cy="215.95" r="2.64"/><circle class="cls-3" cx="90.86" cy="111.61" r="3.98"/><circle class="cls-3" cx="136.1" cy="143.64" r="1.13"/></g></g></svg>