<svg width="835" height="700" viewBox="0 0 835 700" fill="none" xmlns="http://www.w3.org/2000/svg">
<path d="M276.107 87.2493C195.544 69.1068 0 0 0 0V700C0 700 82.3226 560.844 162.061 513.49C255.028 458.28 369.062 431.072 477.399 401.917C539.854 385.109 602.397 368.168 663.336 348.139L663.637 348.04C700.124 336.047 737.096 323.895 768.119 304.156C800.688 283.433 839.624 251.263 834.551 215.113C828.839 174.402 758.471 155.912 717.026 146.739C645.303 130.866 570.7 125.242 497.316 116.471C420.888 107.336 350.639 104.034 276.107 87.2493Z" fill="#F3F4F7"/>
</svg>
