<svg width="165" height="59" viewBox="0 0 165 59" fill="none" xmlns="http://www.w3.org/2000/svg">
<path d="M97.2194 31.2615C96.9924 31.5991 96.8476 31.8306 96.6896 32.0536C95.2139 34.1341 93.5579 36.0337 91.3006 37.3483C88.2748 39.1091 84.9953 39.8354 81.577 39.1061C79.8231 38.7315 78.1912 37.7652 76.5393 36.9942C76.1586 36.8174 75.9505 36.8129 75.6121 37.0095C74.1952 37.8321 72.8171 38.7542 71.3169 39.3938C68.6541 40.5285 65.8504 41.1643 62.9524 40.4096C61.136 39.9366 59.5647 38.9292 58.1451 37.7174C57.1384 36.8583 57.0737 36.8591 56.0526 37.6858C54.2166 39.173 52.097 40.132 49.879 40.9241C47.1277 41.9076 44.2903 42.5103 41.3882 42.7932C37.8474 43.1383 34.5641 42.5464 32.1679 39.6812C30.2473 37.3855 29.7336 34.7223 30.9086 31.9539C32.1956 28.9225 33.6837 25.9728 35.0811 22.9876C35.8097 21.4323 36.5431 19.8785 37.2499 18.3139C37.3791 18.0265 37.4314 17.6912 37.4461 17.3739C37.4738 16.7906 37.5944 16.1518 36.9092 15.8008C36.2091 15.4434 35.3832 15.5079 34.87 16.147C34.2267 16.9466 33.6576 17.8225 33.1788 18.7279C31.5928 21.7246 30.0582 24.7489 28.5111 27.7652C27.3505 30.0271 26.2122 32.299 25.041 34.5549C23.9314 36.6947 21.8457 37.51 19.5854 36.6779C18.8241 36.3965 18.3465 35.8437 18.2182 35.0027C18.0367 33.8097 18.4342 32.7412 18.8641 31.6732C19.8031 29.337 20.7543 27.0051 21.6929 24.6681C22.1956 23.4151 22.6985 22.161 23.1704 20.8964C23.501 20.0122 23.6003 19.0745 23.2147 18.206C22.9163 17.5364 22.3289 17.0525 21.505 17.1243C20.6052 17.2029 19.8973 17.6656 19.5581 18.4879C18.3646 21.3885 17.2198 24.3081 16.0456 27.2162C14.6411 30.6969 13.2599 34.1871 11.7969 37.6443C11.2553 38.9219 10.4384 40.0852 9.06404 40.6321C8.36829 40.9097 7.58058 41.0815 6.83139 41.0918C4.4939 41.1219 2.47515 40.3532 1.0964 38.4004C7.55847e-05 36.8473 -0.26807 35.1189 0.261797 33.2904C0.751814 31.5977 1.24192 29.9051 1.75595 28.219C2.243 26.6213 2.76076 25.0321 3.26635 23.4392C3.73757 21.9562 4.17811 20.4619 4.68906 18.9922C5.69462 16.0991 6.50548 13.1191 8.09902 10.4653C9.18928 8.6494 10.9554 7.66767 12.9809 7.05866C15.0986 6.42287 16.9026 7.22327 18.7106 8.10885C19.3962 8.44379 20.0728 8.802 20.7765 9.09381C21.7583 9.49957 22.6535 9.2427 23.4465 8.60691C24.0955 8.08684 24.7504 7.56719 25.3486 6.9921C26.8432 5.55588 30.0717 5.28974 31.6494 6.96115C32.0128 7.34605 32.4417 7.67073 32.8429 8.01952C33.6688 8.73762 34.0104 8.81089 34.9659 8.28007C37.2384 7.01702 39.5925 7.19191 41.9066 8.00157C43.2491 8.47177 44.0528 9.59447 44.5659 10.9242C45.3207 12.8819 45.0042 14.7722 44.2479 16.6124C42.8566 19.9976 41.3412 23.3328 39.9836 26.7307C39.1789 28.7465 38.4993 30.8192 37.921 32.9083C37.6855 33.7597 37.6839 34.7693 37.9036 35.6247C38.2361 36.9195 39.4409 37.3437 40.6594 37.4957C42.5151 37.7272 44.336 37.3878 46.1138 36.9038C47.6321 36.4921 49.127 35.9839 50.6099 35.4564C51.3254 35.2018 51.9921 34.811 52.6751 34.4696C53.2593 34.1788 53.3044 33.753 52.9965 33.2177C52.3676 32.1251 51.7061 31.0463 51.1521 29.9161C49.9806 27.5273 49.0166 25.0623 49.2737 22.3381C49.4984 19.9537 50.3731 17.8829 52.6081 16.628C55.9076 14.7767 58.5851 15.2879 61.0103 18.0537C63.1077 20.4463 63.7994 23.3264 62.899 26.4121C62.3952 28.1375 61.6745 29.8052 60.9869 31.4738C60.7967 31.9357 60.9071 32.2317 61.204 32.5037C62.5931 33.7809 64.1768 34.7731 65.935 35.4751C66.5979 35.7409 67.2987 35.9389 68.0013 36.0778C69.5124 36.3759 70.9144 36.0219 72.1733 35.1814C72.7727 34.7815 72.7859 34.4079 72.3699 33.8499C69.4743 29.9623 68.328 25.6352 69.1982 20.8803C69.5242 19.1002 70.3607 17.4187 72.3019 16.9061C73.5018 16.5889 74.858 16.6023 76.1056 16.7587C78.1333 17.0125 79.9697 17.8092 81.2154 19.5276C82.71 21.5895 83.0916 23.8461 82.4484 26.3112C81.9865 28.0817 81.043 29.5879 80.0042 31.0508C79.5927 31.6308 79.5769 32.1654 80.1377 32.5533C81.0014 33.1508 81.8792 33.8059 82.8552 34.1518C84.9761 34.903 87.1767 34.8375 89.3133 34.1615C91.6512 33.4202 93.2939 31.8937 94.2308 29.6285C95.3497 26.9196 95.3634 24.0822 95.3067 21.2345C95.2617 19.0094 95.1827 16.7845 95.1157 14.5587C95.0919 13.7639 94.9618 13.7178 94.1921 13.8719C92.1644 14.2752 90.1265 14.6321 88.0915 14.9984C87.4497 15.1131 86.8022 15.1909 86.1609 15.3048C84.7628 15.5524 83.6094 14.9869 83.5303 13.3772C83.4498 11.7549 83.2112 10.1404 83.0417 8.52175C83.0319 8.43065 83.0243 8.33902 83.0194 8.24705C82.9248 6.34226 83.3931 5.30621 85.7162 5.38921C88.1153 5.476 90.5144 5.55378 92.9105 5.6777C94.0892 5.73803 94.5038 5.44578 94.5813 4.29443C94.6411 3.4006 94.6664 2.50607 94.7231 1.61262C94.8082 0.272545 95.1186 -0.0457888 96.5016 0.00745631C97.3284 0.039485 98.1591 0.181326 98.9678 0.360355C100.106 0.612387 100.703 1.40159 100.782 2.51645C100.846 3.42998 100.819 4.35062 100.805 5.2671C100.792 5.91557 100.997 6.26363 101.736 6.33701C103.867 6.55063 105.991 6.84253 108.118 7.09116C109.123 7.20884 109.686 7.60907 109.822 8.34421C110.058 9.62104 109.777 10.4955 108.798 10.8443C107.429 11.3319 106.013 11.7035 104.597 12.047C103.606 12.2879 102.58 12.391 101.573 12.5731C100.897 12.6949 100.53 13.0444 100.536 13.7926C100.561 17.4876 100.476 21.186 100.585 24.8775C100.642 26.8146 100.937 28.7545 101.776 30.564C102.453 32.0296 103.61 32.607 105.218 32.3415C107.578 31.9518 109.742 31.1358 111.626 29.6658C112.672 28.8502 113.36 27.8521 113.412 26.4737C113.506 23.9512 113.633 21.4296 113.783 18.9109C113.827 18.1842 113.91 17.4307 114.156 16.7529C114.294 16.3769 114.795 15.8796 115.144 15.8695C117.072 15.8121 119.013 15.7932 120.931 15.957C122.138 16.0597 122.968 17.1713 122.904 18.4292C122.817 20.1903 122.586 21.9451 122.416 23.7026C122.205 25.871 122.012 28.0408 121.777 30.2063C121.54 32.3982 123.321 33.4851 125.084 33.5063C126.562 33.5238 127.435 32.9807 128.063 31.4407C128.713 29.8467 129.1 28.1186 129.38 26.4144C129.777 23.9948 129.965 21.5419 130.258 19.1054C130.377 18.1104 131.008 17.3454 131.793 17.1794C132.7 16.9877 133.891 17.35 134.188 18.1663C134.437 18.8486 134.38 19.6821 134.293 20.4303C133.973 23.2052 133.51 25.9662 133.246 28.7466C133.084 30.4545 134.056 31.6703 135.742 32.1751C136.582 32.426 137.453 32.6244 138.323 32.7234C139.851 32.8954 140.933 31.7976 141.252 30.0882C141.522 28.6509 141.558 27.1711 141.689 25.7093C141.843 23.9734 141.865 22.2153 142.167 20.5044C142.61 17.9716 144.272 15.674 147.351 14.9368C149.2 14.4939 151.063 14.441 152.909 14.6509C155.723 14.9696 158.666 16.8525 159.566 20.0342C160.249 22.4531 159.978 24.7898 159.174 27.1168C158.243 29.8134 156.541 31.9148 154.164 33.5152C153.944 33.6626 153.816 33.9425 153.648 34.1614C153.946 34.2913 154.247 34.5381 154.544 34.5329C157.385 34.4901 160.064 33.8506 162.517 32.3858C163.071 32.0559 163.674 31.8061 164.258 31.5325C164.795 31.282 165.112 31.5787 164.963 32.0347C164.713 32.7989 164.413 33.6053 163.917 34.2227C161.815 36.8387 158.947 38.0928 155.63 38.3125C154.223 38.4055 152.796 38.2205 151.378 38.1434C150.308 38.0845 149.24 37.993 148.171 37.9216C147.628 37.8866 147.314 38.111 147.178 38.6635C146.326 42.1237 145.876 45.6422 145.434 49.1702C145.155 51.3914 144.734 53.6052 144.194 55.7789C143.902 56.9582 142.966 57.7712 141.671 57.9767C140.897 58.0995 140.324 57.7697 140.064 57.0594C139.845 56.4605 139.641 55.8318 139.589 55.2042C139.333 52.1066 139.438 49.0164 139.856 45.9337C140.067 44.3654 140.209 42.7881 140.391 41.2164C140.52 40.1231 140.687 39.0335 140.791 37.938C140.873 37.0532 140.669 36.8443 139.808 36.6757C138.028 36.3261 136.247 35.9825 134.474 35.5962C133.27 35.3326 132.332 35.7524 131.515 36.5692C130.431 37.6551 129.233 38.5988 127.811 39.2089C126.094 39.9463 124.273 39.7914 122.507 39.516C119.959 39.1166 117.924 37.7977 116.477 35.6814C116.027 35.0248 115.702 34.2839 115.35 33.568C115.153 33.1671 114.976 33.0112 114.498 33.2509C112.805 34.0997 111.117 34.9711 109.369 35.6981C107.422 36.5082 105.355 36.7929 103.286 36.2249C101.269 35.6702 99.7217 34.3919 98.437 32.7941C98.0922 32.366 97.7534 31.9349 97.2194 31.2615ZM155.32 23.3152C155.297 23.0405 155.297 22.7639 155.251 22.4937C154.993 20.9286 153.397 20.2281 152.111 21.1718C151.529 21.5984 151.001 22.1586 150.604 22.758C149.279 24.7574 148.68 27.0479 148.082 29.3257C147.932 29.8979 147.827 30.5029 147.839 31.0902C147.861 32.1843 148.515 32.506 149.446 31.9148C151.378 30.6878 152.809 28.9859 154.017 27.094C154.751 25.9448 155.353 24.7324 155.32 23.3152ZM79.5042 24.4189C79.5212 23.3315 79.2633 22.3254 78.4498 21.5433C77.9988 21.1099 77.4349 20.9212 76.7882 21.1196C76.0038 21.3589 75.5799 21.9319 75.5209 22.8826C75.4068 24.7245 76.2104 26.307 77.0374 27.8649C77.4633 28.6672 77.8679 28.6418 78.4181 27.9003C79.1877 26.8636 79.488 25.685 79.5042 24.4189ZM60.4291 24.0671C60.2246 23.4011 60.0893 22.7036 59.7972 22.0763C59.4243 21.2781 58.463 20.9189 57.6129 21.1378C56.7132 21.3701 56.3574 21.7923 56.4508 22.8833C56.5328 23.833 56.7545 24.78 57.0112 25.7024C57.1995 26.3804 57.4896 27.0448 57.8326 27.6624C58.294 28.4944 58.7762 28.5026 59.23 27.697C59.8554 26.5881 60.3388 25.4233 60.4291 24.0671Z" fill="#F64060"/>
</svg>
