<svg width="140" height="140" viewBox="0 0 140 140" fill="none" xmlns="http://www.w3.org/2000/svg">
<g opacity="0.9">
<circle cx="70" cy="70" r="70" fill="#08112B"/>
<path d="M73.9202 55.7615C66.0279 53.7044 57.8753 58.4113 55.7107 66.2748L48.5656 64.4124C51.8124 52.6172 64.0414 45.5567 75.8798 48.6425L73.9202 55.7615Z" fill="#FFBF00"/>
<path d="M91.4362 75.5869L84.2911 73.7245C82.1265 81.588 73.9738 86.2949 66.0816 84.2377L64.1219 91.3568C75.9603 94.4425 88.1893 87.3821 91.4362 75.5869Z" fill="#FFBF00"/>
<path d="M71.9599 62.881C75.906 63.9096 78.2276 67.9307 77.1453 71.8625C76.063 75.7942 71.9867 78.1477 68.0406 77.1191C64.0944 76.0905 61.7728 72.0694 62.8551 68.1376C63.9374 64.2059 68.0137 61.8524 71.9599 62.881Z" fill="#FFBF00"/>
<path opacity="0.5" d="M48.5648 64.4123L43.6657 82.21C43.1246 84.1758 44.2854 86.1864 46.2584 86.7007L64.1212 91.3567C66.0943 91.871 68.1324 90.6943 68.6736 88.7284C68.674 88.7269 68.6744 88.7254 68.6748 88.724L69.7769 84.7203C68.5553 84.7155 67.3163 84.5595 66.0837 84.2384C66.0827 84.2382 66.0818 84.2379 66.0808 84.2377L66.0725 84.2355L51.7906 80.5128L55.7078 66.2825L55.71 66.2748L55.711 66.2708C56.0493 65.0432 56.5336 63.8925 57.14 62.8326L53.1172 61.784C51.1442 61.2697 49.106 62.4465 48.5648 64.4123Z" fill="#FFBF00"/>
<path opacity="0.5" d="M73.9113 55.7597C72.6803 55.4396 71.4431 55.284 70.2233 55.2792L71.3266 51.2711C71.8677 49.3052 73.9059 48.1285 75.8789 48.6428L93.7417 53.2988C95.7148 53.8131 96.8756 55.8237 96.3344 57.7895L91.4353 75.5872C90.8941 77.553 88.856 78.7298 86.8829 78.2155L82.8602 77.1669C83.4661 76.1078 83.95 74.9581 84.2883 73.7316L88.2095 59.4867L73.9238 55.763L73.9193 55.7618C73.9166 55.7611 73.914 55.7604 73.9113 55.7597Z" fill="#FFBF00"/>
<circle cx="70" cy="70" r="48" stroke="#FFBF00" stroke-width="3"/>
<path fill-rule="evenodd" clip-rule="evenodd" d="M74.9521 14.0237L73.5541 13.8932L73.3323 16.301L70.7694 16.0616L71.6044 7L75.7464 7.38684C76.5661 7.4634 77.2653 7.66797 77.8439 8.00055C78.4233 8.3245 78.8535 8.75637 79.1345 9.29618C79.4163 9.82735 79.5257 10.4338 79.4629 11.1156C79.4025 11.7715 79.1943 12.3309 78.8383 12.7938C78.4917 13.2489 78.021 13.5879 77.426 13.8109L79.1181 16.8413L76.374 16.5851L74.9521 14.0237ZM76.8742 10.8738C76.9131 10.4509 76.8096 10.1105 76.5636 9.85252C76.3176 9.59452 75.9313 9.44094 75.405 9.39178L73.9812 9.2588L73.7366 11.9126L75.1604 12.0455C75.6868 12.0947 76.0941 12.0196 76.3823 11.8202C76.6712 11.6122 76.8352 11.2967 76.8742 10.8738ZM90.8776 18.1618L90.2525 20.05L83.3186 17.7483L86.1783 9.10931L92.9519 11.3578L92.3268 13.246L87.9715 11.8003L87.4894 13.2566L91.3266 14.5303L90.7219 16.3568L86.8848 15.0831L86.3619 16.6628L90.8776 18.1618ZM104.182 17.7069C103.808 17.1541 103.27 16.6634 102.567 16.2347L99.0153 14.0688L94.2843 21.8424L96.482 23.1825L97.7188 21.1503L99.0728 21.976C99.7758 22.4047 100.456 22.6622 101.114 22.7486C101.776 22.8275 102.378 22.738 102.921 22.4801C103.463 22.2222 103.912 21.8008 104.268 21.2159C104.624 20.631 104.792 20.0382 104.772 19.4373C104.757 18.829 104.56 18.2522 104.182 17.7069ZM101.191 20.4964C100.844 20.549 100.445 20.4377 99.994 20.1624L98.7731 19.4179L100.159 17.1414L101.379 17.8859C101.831 18.1611 102.11 18.4686 102.218 18.8084C102.326 19.1482 102.269 19.4995 102.049 19.8622C101.828 20.225 101.542 20.4364 101.191 20.4964ZM107.909 32.1655C107.235 31.4789 106.773 30.7175 106.523 29.8814C106.279 29.0515 106.259 28.2266 106.462 27.4068C106.672 26.5931 107.098 25.8703 107.74 25.2384C108.383 24.6064 109.113 24.1929 109.929 23.9978C110.752 23.8089 111.575 23.8438 112.4 24.1026C113.23 24.3675 113.983 24.8432 114.657 25.5299C115.33 26.2165 115.789 26.9747 116.033 27.8047C116.283 28.6408 116.303 29.4657 116.094 30.2793C115.89 31.0991 115.467 31.825 114.825 32.457C114.182 33.0889 113.449 33.4994 112.627 33.6883C111.81 33.8833 110.987 33.8484 110.156 33.5835C109.332 33.3248 108.582 32.8521 107.909 32.1655ZM109.429 30.6706C109.75 30.9985 110.119 31.2194 110.535 31.3335C110.95 31.4476 111.373 31.4452 111.803 31.3264C112.239 31.2015 112.639 30.9598 113.003 30.6013C113.368 30.2428 113.614 29.8495 113.74 29.4214C113.872 28.9872 113.885 28.5612 113.779 28.1433C113.672 27.7254 113.458 27.3525 113.136 27.0247C112.815 26.6969 112.446 26.4759 112.031 26.3618C111.615 26.2478 111.189 26.2532 110.753 26.3781C110.323 26.4969 109.926 26.7355 109.562 27.094C109.197 27.4526 108.948 27.8489 108.816 28.2831C108.69 28.7112 108.68 29.1341 108.786 29.552C108.893 29.9699 109.107 30.3428 109.429 30.6706ZM117.58 40.2996L118.281 41.5073L117.027 44.1375L118.404 46.5082L119.882 43.3885C120.407 43.7418 120.953 43.9275 121.522 43.9456C122.103 43.9668 122.676 43.8126 123.242 43.483C123.831 43.1404 124.259 42.7017 124.527 42.1669C124.802 41.6277 124.903 41.03 124.831 40.3737C124.767 39.7131 124.529 39.0286 124.117 38.3204L122.039 34.7419L114.215 39.2953L115.501 41.5095L117.58 40.2996ZM122.592 40.4054C122.525 40.7536 122.309 41.034 121.943 41.2464C121.578 41.4589 121.228 41.5082 120.893 41.3941C120.565 41.2758 120.269 40.9892 120.004 40.5345L119.29 39.3043L121.581 37.9708L122.296 39.2009C122.56 39.6557 122.658 40.0572 122.592 40.4054ZM127.361 50.0648L126.524 47.4093L128.462 46.7965L130.906 54.5406L128.967 55.1535L128.133 52.5103L121.427 54.63L120.656 52.1845L127.361 50.0648ZM132.784 72.4275L132.999 68.1245L123.899 67.669L123.684 71.9721C123.635 72.9687 123.777 73.8621 124.111 74.652C124.445 75.442 124.944 76.0665 125.607 76.5254C126.271 76.9844 127.062 77.2368 127.981 77.2828C128.899 77.3288 129.711 77.1566 130.417 76.7662C131.123 76.3758 131.682 75.8042 132.093 75.0515C132.504 74.2989 132.735 73.4242 132.784 72.4275ZM126.313 73.876C125.895 73.3859 125.705 72.7509 125.744 71.9709L125.825 70.3459L130.817 70.5957L130.736 72.2207C130.697 73.0007 130.444 73.6137 129.979 74.0595C129.513 74.5141 128.89 74.7218 128.11 74.6828C127.33 74.6438 126.731 74.3748 126.313 73.876ZM122.516 89.0204L120.606 88.463L122.65 81.4487L131.385 83.999L129.389 90.8511L127.48 90.2937L128.763 85.8879L127.291 85.4579L126.16 89.3395L124.313 88.8003L125.444 84.9187L123.847 84.4524L122.516 89.0204ZM116.446 97.1209L122.474 104.979L123.72 102.756L119.784 97.6532L126.16 98.4009L127.52 95.974L117.685 94.9094L116.446 97.1209ZM109.245 106.607C109.908 105.905 110.655 105.412 111.484 105.13C112.307 104.854 113.133 104.803 113.963 104.977C114.787 105.157 115.527 105.558 116.185 106.181C116.843 106.803 117.285 107.521 117.511 108.334C117.731 109.153 117.726 109.982 117.498 110.82C117.263 111.665 116.814 112.438 116.15 113.141C115.487 113.844 114.744 114.333 113.921 114.609C113.091 114.891 112.265 114.942 111.441 114.762C110.612 114.588 109.868 114.19 109.21 113.567C108.553 112.945 108.114 112.224 107.894 111.405C107.668 110.592 107.672 109.763 107.907 108.919C108.135 108.08 108.582 107.31 109.245 106.607ZM110.801 108.079C110.484 108.415 110.276 108.793 110.177 109.215C110.078 109.637 110.096 110.061 110.231 110.489C110.373 110.922 110.63 111.316 111.003 111.669C111.376 112.022 111.78 112.254 112.214 112.365C112.654 112.482 113.082 112.479 113.497 112.356C113.912 112.234 114.278 112.005 114.595 111.669C114.912 111.334 115.119 110.955 115.218 110.533C115.317 110.111 115.296 109.684 115.154 109.25C115.019 108.823 114.765 108.433 114.392 108.08C114.019 107.727 113.612 107.492 113.172 107.375C112.738 107.264 112.313 107.269 111.898 107.392C111.483 107.515 111.117 107.744 110.801 108.079ZM101.801 123.863C102.461 123.768 103.136 123.498 103.827 123.054L107.321 120.806L102.41 113.159L100.249 114.55L101.532 116.549L100.2 117.406C99.509 117.851 98.9811 118.35 98.6166 118.904C98.2568 119.465 98.0743 120.045 98.069 120.646C98.0637 121.246 98.2457 121.834 98.6152 122.409C98.9846 122.985 99.4433 123.394 99.9911 123.639C100.544 123.89 101.147 123.965 101.801 123.863ZM100.604 119.956C100.708 119.622 100.982 119.312 101.426 119.026L102.627 118.253L104.065 120.492L102.864 121.265C102.42 121.551 102.022 121.668 101.67 121.617C101.318 121.565 101.028 121.361 100.799 121.004C100.569 120.647 100.504 120.298 100.604 119.956ZM88.406 120.43C89.0995 120.182 89.8032 120.026 90.5172 119.964C91.2312 119.902 91.8432 119.94 92.3533 120.08L92.1967 122.152C91.7228 122.036 91.2052 121.991 90.6439 122.018C90.0826 122.044 89.5572 122.144 89.0677 122.32C88.1376 122.653 87.7556 123.052 87.9219 123.517C88.0095 123.762 88.2083 123.893 88.5184 123.911C88.8232 123.94 89.2927 123.915 89.9268 123.835C90.621 123.743 91.212 123.697 91.6998 123.697C92.1906 123.705 92.6538 123.829 93.0892 124.069C93.5247 124.309 93.849 124.727 94.0619 125.322C94.2487 125.845 94.2736 126.365 94.1369 126.884C94.003 127.41 93.6983 127.897 93.2229 128.343C92.7393 128.793 92.0855 129.165 91.2614 129.46C90.6984 129.662 90.1203 129.795 89.527 129.861C88.9365 129.934 88.3895 129.923 87.8859 129.827L87.9891 127.76C88.9626 127.909 89.8328 127.845 90.5997 127.571C91.0811 127.398 91.4057 127.199 91.5735 126.973C91.7441 126.756 91.7887 126.533 91.707 126.304C91.6253 126.076 91.4335 125.951 91.1315 125.93C90.8296 125.91 90.3671 125.942 89.7441 126.027C89.0417 126.122 88.4493 126.164 87.9667 126.153C87.4788 126.152 87.0171 126.032 86.5816 125.793C86.1409 125.564 85.814 125.152 85.6011 124.556C85.4173 124.042 85.3938 123.525 85.5305 123.007C85.6673 122.488 85.976 122 86.4567 121.543C86.9403 121.093 87.5901 120.723 88.406 120.43ZM71.9596 132.98L74.5336 132.851L74.079 123.751L71.505 123.88L71.9596 132.98ZM57.1057 131.786L58.3784 122.777L60.4762 123.074L63.7748 128.437L64.4529 123.637L66.9497 123.99L65.6769 132.999L63.5792 132.703L60.2806 127.339L59.6024 132.14L57.1057 131.786ZM46.5327 118.673C46.0104 118.182 45.4257 117.761 44.7785 117.409C44.0171 116.995 43.3079 116.757 42.6509 116.696C41.9898 116.642 41.4206 116.737 40.9433 116.981C40.466 117.224 40.0971 117.586 39.8367 118.066C39.535 118.622 39.4458 119.141 39.5691 119.622C39.6807 120.107 39.899 120.532 40.224 120.896C40.5373 121.263 40.9633 121.677 41.5022 122.138C41.9808 122.546 42.3129 122.87 42.4987 123.109C42.6845 123.348 42.7195 123.574 42.6038 123.788C42.488 124.001 42.2922 124.117 42.0164 124.134C41.7364 124.16 41.3718 124.05 40.9226 123.806C40.2069 123.417 39.5799 122.809 39.0417 121.984L37.4336 123.285C37.6979 123.725 38.0542 124.14 38.5023 124.532C38.9463 124.931 39.431 125.274 39.9563 125.559C40.7253 125.977 41.4383 126.217 42.0953 126.278C42.7447 126.336 43.3101 126.238 43.7915 125.987C44.2688 125.744 44.6397 125.378 44.9043 124.891C45.206 124.335 45.3011 123.814 45.1895 123.329C45.0779 122.844 44.8617 122.416 44.5408 122.044C44.2158 121.68 43.7877 121.27 43.2565 120.813C42.7744 120.393 42.4425 120.06 42.2609 119.813C42.0675 119.57 42.0328 119.334 42.1568 119.105C42.3924 118.671 42.9442 118.69 43.8122 119.162C44.269 119.411 44.6942 119.735 45.0878 120.137C45.4813 120.538 45.7929 120.954 46.0226 121.385L47.6702 120.12C47.4342 119.647 47.055 119.164 46.5327 118.673ZM20.9832 110.084L29.4611 105.659L31.4262 107.591L28.7894 112.765L33.966 110.088L35.9311 112.021L31.6613 120.585L29.7704 118.725L32.5336 113.293L27.0916 116.091L25.4046 114.432L28.2042 108.962L22.735 111.807L20.9832 110.084ZM15.9998 102.422L17.3631 104.611L25.096 99.7846L23.7327 97.5961L15.9998 102.422ZM14.1296 94.511L15.1907 97.1108L13.2929 97.8871L10.1985 90.3055L12.0963 89.5291L13.1524 92.1168L19.7163 89.4319L20.6935 91.8261L14.1296 94.511ZM16.3349 75.4698L14.3238 75.8179L15.138 80.5321L8.98978 76.9391L7.4014 77.2141L8.73559 84.9387L10.7467 84.5906L9.98555 80.1838L16.1338 83.7768L17.7222 83.5019L16.3349 75.4698ZM14.4381 63.9408L16.425 64.0309L16.0907 71.3293L7 70.9169L7.32662 63.7874L9.31358 63.8775L9.10357 68.4617L10.636 68.5312L10.821 64.4925L12.743 64.5797L12.558 68.6184L14.2203 68.6938L14.4381 63.9408ZM15.4464 56.5357L15.8251 55.1878L18.5915 54.2562L19.3349 51.6102L16.06 52.7219C15.9481 52.0978 15.7001 51.5745 15.316 51.1521C14.926 50.7191 14.4148 50.4135 13.7825 50.2355C13.1253 50.0504 12.511 50.0481 11.9397 50.2284C11.36 50.4064 10.8594 50.7503 10.4379 51.2601C10.008 51.7676 9.68205 52.4166 9.45998 53.2071L8.33792 57.201L17.0732 59.6605L17.7675 57.1893L15.4464 56.5357ZM12.0241 52.8516C12.3212 52.6569 12.6736 52.6169 13.0813 52.7317C13.4889 52.8465 13.7688 53.0644 13.921 53.3856C14.0648 53.7045 14.0654 54.1177 13.9228 54.6252L13.5371 55.9981L10.9789 55.2779L11.3646 53.905C11.5072 53.3974 11.7271 53.0463 12.0241 52.8516ZM12.9574 43.2908L14.1731 41.0219L20.3921 44.3616L22.4428 40.5344L24.2409 41.5L20.9745 47.596L12.9574 43.2908ZM26.6052 35.2335L29.1363 32.3351L30.937 32.9609L32.6985 30.9438L23.1998 27.9863L21.5324 29.8957L25.7381 38.9144L27.4654 36.9365L26.6052 35.2335ZM24.2511 30.6166L27.212 31.6531L25.6729 33.4156L24.2511 30.6166ZM37.4788 16.0243L42.6623 23.4888L40.9253 24.6974L34.8704 23.0112L37.6325 26.9887L35.5651 28.4272L30.3816 20.9628L32.1186 19.7541L38.1735 21.4403L35.4115 17.4629L37.4788 16.0243ZM47.9278 11.0974L43.8855 12.5723L46.997 21.1238L51.0394 19.6489C51.9757 19.3073 52.7424 18.8292 53.3396 18.2146C53.9367 17.6 54.3178 16.8982 54.4826 16.1093C54.6474 15.3203 54.5728 14.4942 54.2587 13.6309C53.9445 12.7676 53.471 12.087 52.8379 11.5892C52.2049 11.0914 51.4623 10.7995 50.6103 10.7137C49.7583 10.6279 48.8641 10.7558 47.9278 11.0974ZM51.7712 16.4897C51.4827 17.0654 50.9721 17.487 50.2393 17.7544L48.7128 18.3114L47.0059 13.6203L48.5324 13.0633C49.2652 12.7959 49.9269 12.7897 50.5177 13.0446C51.1166 13.2966 51.5495 13.7891 51.8162 14.5221C52.0829 15.2551 52.0679 15.9109 51.7712 16.4897Z" fill="#FFBF00"/>
</g>
</svg>
