<svg width="50" height="40" viewBox="0 0 50 40" fill="none" xmlns="http://www.w3.org/2000/svg">
<path d="M16.317 18.7059C18.2595 19.5686 19.7747 20.8627 20.8625 22.5882C21.9503 24.3137 22.4942 26.3529 22.4942 28.7059C22.4942 32.0784 21.4452 34.8235 19.3473 36.9412C17.2494 38.9804 14.5688 40 11.3054 40C8.04196 40 5.32245 38.9412 3.14685 36.8235C1.04895 34.7059 0 32 0 28.7059C0 27.1373 0.19425 25.5686 0.58275 24C0.971251 22.4314 1.82595 20.0784 3.14685 16.9412L9.90676 0H21.4452L16.317 18.7059ZM43.8228 18.7059C45.7654 19.5686 47.2805 20.8627 48.3683 22.5882C49.4561 24.3137 50 26.3529 50 28.7059C50 32.0784 48.951 34.8235 46.8531 36.9412C44.7552 38.9804 42.0746 40 38.8112 40C35.5478 40 32.8283 38.9412 30.6527 36.8235C28.5548 34.7059 27.5058 32 27.5058 28.7059C27.5058 27.1373 27.7001 25.5686 28.0886 24C28.4771 22.4314 29.3318 20.0784 30.6527 16.9412L37.4126 0H48.9511L43.8228 18.7059Z" fill="#FFBF00"/>
</svg>
