<svg width="38" height="30" viewBox="0 0 38 30" fill="none" xmlns="http://www.w3.org/2000/svg">
<path d="M12.4009 14.0294C13.8772 14.6765 15.0288 15.6471 15.8555 16.9412C16.6822 18.2353 17.0956 19.7647 17.0956 21.5294C17.0956 24.0588 16.2984 26.1176 14.704 27.7059C13.1096 29.2353 11.0723 30 8.59208 30C6.11189 30 4.04507 29.2059 2.39161 27.6176C0.797202 26.0294 0 24 0 21.5294C0 20.3529 0.14763 19.1765 0.44289 18C0.738151 16.8235 1.38772 15.0588 2.39161 12.7059L7.52914 0H16.2984L12.4009 14.0294ZM33.3054 14.0294C34.7817 14.6765 35.9332 15.6471 36.7599 16.9412C37.5866 18.2353 38 19.7647 38 21.5294C38 24.0588 37.2028 26.1176 35.6084 27.7059C34.014 29.2353 31.9767 30 29.4965 30C27.0163 30 24.9495 29.2059 23.296 27.6176C21.7016 26.0294 20.9044 24 20.9044 21.5294C20.9044 20.3529 21.0521 19.1765 21.3473 18C21.6426 16.8235 22.2922 15.0588 23.296 12.7059L28.4336 0H37.2028L33.3054 14.0294Z" fill="#4CC3FF"/>
</svg>
