<svg width="1920" height="350" viewBox="0 0 1920 350" fill="none" xmlns="http://www.w3.org/2000/svg">
<g clip-path="url(#clip0)">
<path d="M1330.64 0C1330.64 0 1327.88 52.79 1425.87 38.79C1523.85 24.79 1548.29 18.79 1585.72 30.79C1623.15 42.79 1620.2 81.46 1667.33 84.79C1714.46 88.12 1801.81 34.79 1782.46 94.12C1877.22 132.79 1919.14 142.37 1986.93 127.12C2049 112.985 2106.71 83.9649 2155.08 42.56L2205 0H1330.64Z" fill="#EBECF2"/>
<path d="M2183.02 350H1446.52C1446.52 350 1458.73 341.29 1478.24 327.07C1511.31 303 1565.34 263.18 1616.48 223.35C1692.89 163.83 1760.01 93.4499 1808.34 58.0699C1809.89 56.9294 1811.63 56.0821 1813.49 55.5699C1815.68 54.9557 1817.99 54.8163 1820.24 55.1612C1822.5 55.506 1824.65 56.3271 1826.57 57.5699L2183.02 350Z" fill="#F7F8FA"/>
<path d="M1813.53 55.5703C1813.02 63.4403 1812.1 71.2503 1810.9 79.0003C1808.13 96.4147 1803.87 113.56 1798.18 130.25C1797.5 132.35 1796.74 134.42 1795.99 136.49C1795.24 138.56 1794.53 140.63 1793.7 142.67L1791.28 148.79C1790.47 150.79 1789.57 152.79 1788.72 154.86C1787.02 158.86 1785.14 162.86 1783.24 166.86C1781.35 170.86 1779.25 174.67 1777.13 178.48C1775.01 182.29 1772.8 186.1 1770.4 189.77C1769.24 191.61 1768.06 193.46 1766.84 195.27C1765.62 197.08 1764.34 198.86 1763.08 200.65C1760.6 204.23 1757.84 207.65 1755.08 211.05C1752.32 214.45 1749.37 217.7 1746.37 220.86C1746.1 221.159 1745.77 221.399 1745.41 221.567C1745.04 221.735 1744.64 221.828 1744.24 221.839C1743.84 221.85 1743.43 221.78 1743.06 221.632C1742.68 221.485 1742.34 221.263 1742.05 220.98C1741.69 220.636 1741.41 220.204 1741.25 219.726C1741.1 219.247 1741.06 218.736 1741.15 218.24C1741.14 218.167 1741.14 218.093 1741.15 218.02C1741.17 217.938 1741.19 217.857 1741.22 217.78C1744.01 206.78 1744.22 198.31 1741.22 197.26C1738.95 196.45 1735.37 200.21 1731.66 206.68C1730.95 208.07 1730.24 209.48 1729.52 210.88L1728.52 212.77C1723.19 223.03 1717.42 233.32 1711.22 243.64C1685.99 285.85 1657.58 322.2 1629.43 350.06H1446.47C1446.47 350.06 1458.68 341.35 1478.19 327.13C1511.26 303.06 1565.29 263.24 1616.43 223.41C1692.84 163.89 1759.96 93.5103 1808.29 58.1303C1809.86 56.9586 1811.64 56.0904 1813.53 55.5703Z" fill="white"/>
<path d="M1838.82 111.24C1839.09 113.849 1839.13 116.475 1838.94 119.09C1838.79 121.656 1838.49 124.21 1838.04 126.74C1836.21 136.981 1832.41 146.768 1826.84 155.56C1823.98 159.994 1820.46 163.969 1816.41 167.351C1815.88 167.856 1815.19 168.152 1814.46 168.183C1813.73 168.214 1813.01 167.978 1812.45 167.519C1811.88 167.06 1811.5 166.41 1811.37 165.691C1811.25 164.971 1811.4 164.232 1811.78 163.61L1811.86 163.44C1814.02 159.326 1815.97 155.101 1817.69 150.78C1819.3 146.45 1820.77 142.09 1822.05 137.62C1823.33 133.15 1824.39 128.62 1825.56 124.09L1827.32 117.27L1828.27 113.86C1828.6 112.74 1828.93 111.55 1829.27 110.53L1829.42 110.13C1829.8 109.101 1830.51 108.229 1831.44 107.654C1832.37 107.079 1833.47 106.837 1834.55 106.965C1835.64 107.094 1836.65 107.586 1837.42 108.362C1838.19 109.139 1838.68 110.153 1838.8 111.24H1838.82Z" fill="white"/>
<path d="M1825.18 210C1824.03 209.396 1822.7 209.267 1821.46 209.642C1820.23 210.017 1819.19 210.864 1818.58 212L1818.44 212.26C1818.18 212.75 1817.93 213.26 1817.67 213.75C1817.61 213.87 1817.55 213.99 1817.5 214.11L1817.2 214.68C1817.18 214.718 1817.17 214.755 1817.15 214.79C1816.28 216.4 1815.52 217.3 1815.02 217.15C1814.23 216.91 1814.29 214.23 1815.02 210.53C1815.02 210.36 1815.09 210.21 1815.13 210.05C1815.17 209.89 1815.21 209.68 1815.25 209.49C1815.29 209.3 1815.38 208.9 1815.43 208.61C1815.43 208.556 1815.43 208.503 1815.43 208.45C1816.49 203.582 1817.13 198.629 1817.34 193.65C1817.34 193.065 1817.14 192.497 1816.77 192.042C1816.4 191.588 1815.89 191.275 1815.32 191.157C1814.75 191.04 1814.15 191.124 1813.63 191.396C1813.11 191.668 1812.71 192.111 1812.48 192.65L1812.43 192.76C1810.43 197.62 1808.52 202.6 1806.54 207.46C1804.56 212.32 1802.59 217.16 1800.54 221.93C1798.49 226.7 1796.26 231.34 1794.07 236C1791.88 240.66 1789.4 245.11 1787.07 249.8L1786.97 249.99C1786.63 250.719 1786.55 251.545 1786.75 252.327C1786.95 253.109 1787.41 253.796 1788.06 254.271C1788.72 254.745 1789.51 254.977 1790.32 254.925C1791.12 254.874 1791.89 254.543 1792.47 253.99C1794.53 252.059 1796.43 249.977 1798.17 247.76C1798.76 246.98 1799.39 246.2 1799.98 245.4C1800.07 245.27 1800.15 245.14 1800.24 245.02C1800.29 244.966 1800.34 244.905 1800.37 244.84L1800.69 244.38C1800.75 244.29 1800.8 244.2 1800.87 244.11L1800.97 243.96C1802.48 241.88 1803.73 240.71 1804.3 240.96C1804.87 241.21 1804.56 243.55 1803.37 246.64C1803.24 246.97 1803.11 247.3 1802.96 247.64L1802.55 248.64L1802.43 248.91L1800.92 252.6C1800.25 254.3 1799.54 255.986 1798.78 257.66L1796.6 262.73C1795.07 266.06 1793.66 269.47 1792.08 272.8C1789.08 279.57 1785.75 286.17 1782.69 293.15V293.24C1782.43 293.793 1782.36 294.425 1782.51 295.022C1782.66 295.619 1783.02 296.143 1783.52 296.502C1784.02 296.861 1784.63 297.032 1785.24 296.984C1785.86 296.936 1786.44 296.672 1786.87 296.24C1792.56 290.939 1797.69 285.079 1802.2 278.75C1804.55 275.64 1806.56 272.34 1808.67 269.07C1810.78 265.8 1812.67 262.38 1814.35 258.91C1816.03 255.44 1817.77 251.96 1819.35 248.41C1820.07 246.61 1820.81 244.81 1821.49 243C1822.17 241.19 1822.78 239.34 1823.38 237.5C1824.57 233.797 1825.57 230.035 1826.38 226.23C1827.18 222.35 1827.67 218.41 1827.84 214.45C1827.85 213.533 1827.61 212.631 1827.14 211.844C1826.67 211.057 1825.99 210.418 1825.18 210Z" fill="white"/>
<path d="M1780.43 238.06C1780.1 237.832 1779.72 237.67 1779.33 237.586C1778.94 237.501 1778.53 237.495 1778.14 237.568C1777.74 237.64 1777.37 237.79 1777.03 238.008C1776.69 238.227 1776.4 238.509 1776.18 238.84L1776.11 238.94C1773.43 242.83 1770.93 246.8 1768.32 250.68C1765.71 254.56 1763.14 258.47 1760.44 262.26C1755.2 269.97 1749.67 277.45 1744.17 284.88C1738.67 292.31 1732.9 299.49 1727.18 306.65C1726.38 307.65 1725.58 308.65 1724.77 309.65L1724.61 309.85C1724.48 310.01 1724.35 310.16 1724.23 310.32C1721.45 313.61 1718.49 315.47 1717.23 314.56C1715.97 313.65 1716.9 310.39 1719.17 306.85L1719.27 306.7C1719.43 306.45 1719.61 306.2 1719.77 305.96L1720.1 305.48L1720.21 305.32L1721.89 302.8C1725.29 297.579 1728.41 292.174 1731.22 286.61C1734.05 281.045 1736.47 275.284 1738.48 269.37C1738.84 268.3 1738.83 267.14 1738.44 266.077C1738.06 265.014 1737.33 264.112 1736.37 263.517C1735.41 262.922 1734.28 262.67 1733.16 262.801C1732.04 262.932 1730.99 263.44 1730.2 264.24L1730.1 264.34C1727.91 266.53 1725.89 268.79 1723.9 271.05C1721.91 273.31 1719.9 275.59 1717.98 277.85C1714.09 282.39 1710.3 286.94 1706.52 291.46C1702.74 295.98 1698.97 300.46 1695.38 305.03C1693.58 307.3 1691.83 309.61 1690.1 311.91C1689.24 313.07 1688.39 314.233 1687.56 315.4L1686.35 317.14C1685.96 317.669 1685.61 318.22 1685.29 318.79L1684.46 320.45C1683.69 322.019 1683.46 323.794 1683.8 325.507C1684.14 327.219 1685.03 328.773 1686.33 329.933C1687.63 331.093 1689.28 331.795 1691.02 331.932C1692.76 332.068 1694.5 331.632 1695.96 330.69C1696.86 330.1 1697.49 329.69 1698.2 329.19L1700.2 327.71C1701.38 326.77 1702.53 325.82 1703.63 324.83L1703.7 324.76L1703.89 324.59L1704.12 324.37C1704.35 324.17 1704.59 323.95 1704.82 323.72C1707.53 321.38 1710.15 320.3 1711.26 321.28C1712.37 322.26 1711.67 324.89 1709.76 327.79C1709.5 328.107 1709.27 328.441 1709.05 328.79C1709 328.853 1708.96 328.924 1708.93 329C1707.73 331.077 1707.31 333.518 1707.76 335.876C1708.21 338.234 1709.49 340.352 1711.37 341.844C1713.25 343.336 1715.6 344.102 1718 344.002C1720.4 343.902 1722.68 342.943 1724.43 341.3C1724.98 340.76 1725.43 340.3 1725.84 339.87C1726.25 339.44 1726.71 338.98 1727.13 338.51C1727.97 337.6 1728.79 336.69 1729.6 335.77C1730.41 334.85 1731.2 333.92 1731.99 332.99C1732.78 332.06 1733.57 331.13 1734.31 330.17C1735.81 328.26 1737.31 326.39 1738.75 324.42C1740.2 322.45 1741.66 320.56 1743.02 318.56C1745.79 314.607 1748.46 310.583 1751.02 306.49C1752.26 304.43 1753.57 302.4 1754.77 300.32L1758.34 294.04C1760.69 289.85 1762.96 285.62 1765.09 281.31C1766.15 279.16 1767.25 277.02 1768.27 274.86C1769.29 272.7 1770.27 270.49 1771.27 268.31C1773.27 263.97 1775.04 259.5 1776.82 255.06C1777.72 252.86 1778.52 250.58 1779.31 248.33C1780.1 246.08 1780.88 243.81 1781.65 241.55C1781.86 240.916 1781.86 240.227 1781.64 239.595C1781.42 238.962 1780.99 238.422 1780.43 238.06Z" fill="white"/>
<path d="M1747.54 247.21C1748.53 245.177 1749.63 243.201 1750.84 241.29C1752.04 239.37 1753.31 237.49 1754.61 235.63C1755.91 233.77 1757.28 231.94 1758.71 230.13C1760.16 228.276 1761.73 226.516 1763.4 224.86C1763.59 224.662 1763.84 224.532 1764.11 224.488C1764.38 224.445 1764.66 224.492 1764.9 224.621C1765.14 224.75 1765.34 224.954 1765.45 225.203C1765.57 225.452 1765.6 225.732 1765.54 226C1765.13 228.378 1764.48 230.708 1763.59 232.95C1762.74 235.164 1761.74 237.316 1760.59 239.39C1759.45 241.474 1758.18 243.478 1756.77 245.39C1755.36 247.344 1753.74 249.141 1751.94 250.75C1751.45 251.181 1750.83 251.429 1750.17 251.453C1749.52 251.477 1748.88 251.276 1748.36 250.882C1747.84 250.489 1747.47 249.928 1747.31 249.293C1747.16 248.659 1747.22 247.99 1747.5 247.4L1747.54 247.21Z" fill="white"/>
<path d="M1783.3 203.32C1783.95 201.161 1784.78 199.06 1785.77 197.04C1786.77 195.04 1787.77 193.04 1788.95 191.04C1790.13 189.04 1791.31 187.16 1792.65 185.27C1794.01 183.304 1795.53 181.461 1797.2 179.76C1797.36 179.604 1797.54 179.48 1797.74 179.396C1797.95 179.311 1798.16 179.268 1798.38 179.268C1798.6 179.268 1798.82 179.311 1799.02 179.396C1799.22 179.48 1799.41 179.604 1799.56 179.76C1799.71 179.909 1799.84 180.086 1799.92 180.281C1800 180.477 1800.05 180.687 1800.05 180.9C1800.07 183.358 1799.79 185.809 1799.22 188.2C1798.69 190.532 1797.95 192.813 1797.03 195.02C1796.13 197.229 1795.06 199.362 1793.82 201.4C1792.57 203.498 1791.07 205.43 1789.33 207.15C1788.75 207.713 1788 208.068 1787.2 208.162C1786.39 208.256 1785.58 208.082 1784.88 207.668C1784.19 207.254 1783.65 206.623 1783.35 205.871C1783.04 205.12 1783 204.29 1783.21 203.51L1783.3 203.32Z" fill="white"/>
<path d="M1851.74 205.08C1851.81 206.415 1851.77 207.753 1851.62 209.08C1851.48 210.369 1851.26 211.648 1850.97 212.91C1850.39 215.422 1849.57 217.873 1848.53 220.23C1847.51 222.595 1846.26 224.853 1844.79 226.97C1843.33 229.126 1841.59 231.074 1839.6 232.76C1839.38 232.95 1839.1 233.066 1838.8 233.092C1838.51 233.118 1838.21 233.053 1837.95 232.906C1837.7 232.759 1837.49 232.537 1837.36 232.27C1837.24 232.002 1837.19 231.702 1837.24 231.41V231.35C1837.69 228.81 1838.38 226.51 1839 224.2C1839.62 221.89 1840.31 219.65 1841 217.42L1843.07 210.76C1843.44 209.66 1843.79 208.56 1844.18 207.46C1844.57 206.36 1844.96 205.22 1845.39 204.27L1845.55 203.91C1845.85 203.254 1846.36 202.717 1847 202.383C1847.64 202.05 1848.37 201.94 1849.08 202.071C1849.79 202.202 1850.44 202.566 1850.92 203.106C1851.4 203.646 1851.68 204.33 1851.73 205.05L1851.74 205.08Z" fill="white"/>
<path d="M1817.69 308.668C1823.8 301.414 1827.82 294.741 1826.66 293.762C1825.5 292.782 1819.6 297.869 1813.48 305.122C1807.37 312.376 1803.35 319.05 1804.51 320.029C1805.67 321.008 1811.57 315.921 1817.69 308.668Z" fill="white"/>
<path d="M1645.56 100.28C1647.04 100.28 1648.25 99.076 1648.25 97.5904C1648.25 96.1047 1647.04 94.9004 1645.56 94.9004C1644.07 94.9004 1642.87 96.1047 1642.87 97.5904C1642.87 99.076 1644.07 100.28 1645.56 100.28Z" fill="white"/>
<path d="M1721.4 24.9308C1722.88 24.9308 1724.09 23.7264 1724.09 22.2408C1724.09 20.7551 1722.88 19.5508 1721.4 19.5508C1719.91 19.5508 1718.71 20.7551 1718.71 22.2408C1718.71 23.7264 1719.91 24.9308 1721.4 24.9308Z" fill="white"/>
<path d="M1885.54 62.5099C1886.6 62.5099 1887.46 61.6503 1887.46 60.5899C1887.46 59.5295 1886.6 58.6699 1885.54 58.6699C1884.48 58.6699 1883.62 59.5295 1883.62 60.5899C1883.62 61.6503 1884.48 62.5099 1885.54 62.5099Z" fill="white"/>
<path d="M1202.97 47.09C1204.03 47.09 1204.89 46.2304 1204.89 45.17C1204.89 44.1096 1204.03 43.25 1202.97 43.25C1201.91 43.25 1201.05 44.1096 1201.05 45.17C1201.05 46.2304 1201.91 47.09 1202.97 47.09Z" fill="white"/>
<path d="M1541.39 47.09C1542.45 47.09 1543.31 46.2304 1543.31 45.17C1543.31 44.1096 1542.45 43.25 1541.39 43.25C1540.33 43.25 1539.47 44.1096 1539.47 45.17C1539.47 46.2304 1540.33 47.09 1541.39 47.09Z" fill="white"/>
<path d="M400.956 167.25C391.608 181.37 335.85 161.74 266.396 122.06C265.313 121.434 264.068 121.148 262.82 121.237C261.573 121.326 260.381 121.787 259.398 122.56C253.719 127.01 241.921 121.44 233.063 110.12C231.375 107.82 229.867 105.393 228.554 102.86C227.911 101.672 226.843 100.771 225.564 100.337C224.285 99.9035 222.889 99.9687 221.656 100.52H221.606C212.918 104.39 201.131 96.88 195.282 83.74V83.66C195.137 83.3229 194.894 83.0377 194.583 82.8422C194.273 82.6467 193.911 82.5501 193.544 82.5653C193.178 82.5805 192.824 82.7067 192.531 82.9272C192.238 83.1477 192.019 83.4521 191.903 83.8C191.385 85.5169 190.402 87.0571 189.063 88.25C181.895 94.51 166.229 88.25 154.071 74.38C151.993 72.0139 150.098 69.4933 148.403 66.84C144.751 61.0453 139.898 56.1027 134.172 52.3468C128.445 48.5909 121.979 46.1093 115.21 45.07C87.708 40.9055 60.5601 34.6677 33.9983 26.41C29.0794 24.89 24.2305 23.3233 19.4515 21.71L18.8317 21.49C16.2123 20.63 14.3027 20.49 13.8328 21.32C13.4729 21.95 14.0327 23.04 15.2625 24.37C15.5224 24.6 15.7724 24.84 16.0123 25.07L16.5722 25.63C20.5013 29.52 22.3809 32.78 21.3511 34.56C20.0314 36.84 14.2727 36.2 6.45445 33.36H6.39447L5.49467 33.02C5.22474 32.92 4.95479 32.82 4.67485 32.7L4.50491 32.64C1.50558 31.64 -0.643936 31.26 -0.963863 31.92C-1.18382 32.38 -0.483974 33.23 0.845726 34.29L3.32518 35.9L5.32473 37.15C12.6564 41.8167 20.1514 46.1933 27.8097 50.28C33.4984 53.28 39.2671 56.21 45.1458 58.86C49.6647 60.86 54.2337 62.86 58.8627 64.7C60.2524 65.24 61.642 65.77 63.0417 66.29C70.1801 69 77.4685 71.36 84.8568 73.35C89.9823 74.75 95.1579 75.9667 100.383 77C101.012 77.1094 101.573 77.4588 101.949 77.9745C102.325 78.4902 102.486 79.1318 102.398 79.7638C102.309 80.3959 101.979 80.9689 101.476 81.3619C100.974 81.7549 100.338 81.9371 99.7035 81.87C94.7379 81.4633 89.7791 80.8967 84.8268 80.17C76.5423 78.9754 68.3261 77.3465 60.2124 75.29L58.8627 75C52.864 73.48 46.8654 71.71 40.9267 69.8C34.5381 67.8 28.2395 65.43 21.981 62.98C9.4646 58.0235 -2.77095 52.385 -14.6708 46.09C-20.6294 42.95 -26.5181 39.6367 -32.3368 36.15C-35.2428 34.41 -38.1288 32.6167 -40.9949 30.77C-42.4345 29.85 -43.8642 28.91 -45.3039 27.95L-47.4534 26.49C-48.1932 25.98 -48.8631 25.49 -49.7129 24.89L-49.9228 24.74C-52.3835 22.9352 -54.0266 20.2266 -54.4906 17.2101C-54.9547 14.1936 -54.2017 11.1162 -52.3973 8.655C-50.5929 6.19379 -47.8849 4.55034 -44.8691 4.08619C-41.8532 3.62204 -38.7766 4.3752 -36.3159 6.18C-35.9402 6.46404 -35.5797 6.7678 -35.2362 7.09C-34.8062 7.49 -34.1764 8.04 -33.6165 8.54L-31.8469 10.06L-30.3073 11.35C-34.9462 7 -37.3057 3.35 -36.156 1.35C-35.8367 0.869166 -35.3592 0.515354 -34.8063 0.35L-35.5461 0H247.55C249.736 5.12939 250.506 10.7516 249.78 16.28C249.572 17.4961 249.716 18.7463 250.194 19.8836C250.672 21.0208 251.465 21.9979 252.479 22.7C346.268 84.74 412.723 149.44 400.956 167.25Z" fill="#EBECF2"/>
<path d="M435.918 349.14L235.753 349.45L194.122 349.51H176.286H141.114L51.1344 349.65H29.0193H12.0232L-36.4359 349.73L-69.8084 349.78L-122.437 349.86C-122.437 349.86 -28.9576 301.17 43.0262 230.67C90.3456 184.32 117.359 161.75 130.317 151.72C133.066 149.595 136.41 148.38 139.883 148.243C143.356 148.107 146.784 149.057 149.692 150.96C166.758 162.13 203.07 186.26 231.484 207.67C269.955 236.81 435.918 349.14 435.918 349.14Z" fill="#F7F8FA"/>
<path d="M141.804 165.939C141.804 167.699 141.644 169.449 141.514 171.209C141.384 172.969 141.254 174.709 141.104 176.459C140.954 178.209 140.684 179.949 140.434 181.689C140.184 183.429 139.974 185.189 139.664 186.929C139.005 190.389 138.335 193.869 137.505 197.309C135.829 204.231 133.691 211.033 131.106 217.669C129.837 221.019 128.377 224.319 126.897 227.579C126.157 229.229 125.288 230.819 124.488 232.429C123.688 234.039 122.838 235.649 121.928 237.219C118.392 243.599 114.322 249.667 109.761 255.359C107.492 258.229 105.032 260.979 102.483 263.629C99.9334 266.279 97.204 268.789 94.3546 271.159C88.6726 275.95 82.4279 280.03 75.7588 283.309C72.3909 284.933 68.9051 286.3 65.3312 287.399C63.5287 287.941 61.7001 288.391 59.8524 288.749C58.9226 288.929 57.9728 289.069 57.023 289.189L55.5634 289.349L53.9737 289.459C53.2414 289.513 52.509 289.355 51.8635 289.005C51.218 288.655 50.6864 288.127 50.3318 287.484C49.9771 286.841 49.8143 286.109 49.8626 285.377C49.911 284.644 50.1684 283.94 50.6045 283.349L51.6042 281.989C51.8352 281.724 52.0823 281.474 52.3441 281.239L52.4941 281.109L53.2339 280.409L53.4639 280.199C53.9837 279.719 54.4636 279.199 54.9935 278.739C55.1335 278.609 55.2834 278.469 55.4134 278.329C60.4922 273.099 63.0317 268.039 61.3021 265.869C59.0826 263.119 50.8144 266.059 42.6963 272.459L40.1468 274.599C36.261 277.839 32.2919 281.072 28.2395 284.299C-7.2625 312.679 -41.9147 335.529 -69.8084 349.909L-122.437 349.989C-122.437 349.989 -28.9576 301.299 43.0262 230.799C90.3456 184.449 117.359 161.879 130.317 151.849C133.096 149.699 136.483 148.481 139.994 148.369C141.266 150.411 141.829 152.815 141.594 155.209C141.594 155.209 141.594 155.309 141.594 155.349C141.824 158.889 141.844 162.409 141.804 165.939Z" fill="white"/>
<path d="M83.4571 321.64C78.4804 327.654 72.8952 333.136 66.7908 338L65.4411 339L51.1044 349.68H28.9893C37.4974 343.41 42.9162 336.48 41.1366 334C39.357 331.52 30.639 334.59 21.7609 341C18.1756 343.515 14.9002 346.446 12.0032 349.73L-36.4559 349.81C-15.2128 344.459 5.01517 335.677 23.4306 323.81C29.6705 319.749 35.5268 315.126 40.9267 310C47.3852 303.92 53.6838 300.92 56.2632 303.1C57.5729 304.21 57.7329 306.47 56.9331 309.39C56.9286 309.417 56.9286 309.444 56.9331 309.47C56.8731 309.68 56.8131 309.89 56.7431 310.11C56.6031 310.57 56.4332 311.04 56.2432 311.53C55.0535 315.53 55.1335 318.53 56.7431 319.74C59.4125 321.69 65.5211 318.14 72.0597 311.38V311.46L72.5895 310.83C72.6513 310.772 72.7082 310.708 72.7595 310.64C73.7593 309.49 74.759 308.38 75.7588 307.3L75.8188 307.24C86.4164 295.74 96.4242 288.72 99.2935 291.14C102.513 293.79 95.4244 307.48 83.4571 321.64Z" fill="white"/>
<path d="M130.497 251.42C130.677 250.97 130.986 250.42 131.226 249.87L131.996 248.25C132.486 247.16 132.996 246.09 133.506 244.99C134.016 243.89 134.506 242.81 134.956 241.7C135.405 240.59 135.905 239.51 136.355 238.4C138.175 233.99 139.874 229.57 141.434 225.09C142.144 222.82 142.974 220.61 143.644 218.32C143.994 217.19 144.383 216.07 144.753 214.93C145.123 213.79 145.423 212.65 145.753 211.51C146.543 209.24 147.123 206.92 147.933 204.62C148.742 202.32 149.352 199.97 150.332 197.62L150.442 197.38C150.804 196.515 151.445 195.796 152.261 195.335C153.078 194.874 154.025 194.699 154.952 194.837C155.88 194.974 156.735 195.417 157.383 196.095C158.031 196.773 158.434 197.647 158.53 198.58C158.66 199.9 158.71 201.22 158.75 202.58C158.79 203.94 158.82 205.23 158.75 206.58C158.68 207.93 158.55 209.21 158.42 210.52C158.34 211.18 158.28 211.84 158.19 212.52L157.85 214.47C157.62 215.77 157.361 217.07 157.101 218.37C156.841 219.67 156.441 220.93 156.101 222.2L155.561 224.11L154.901 225.9C154.461 227.15 154.011 228.39 153.521 229.62C151.531 234.556 149.038 239.274 146.083 243.7L144.903 245.35L143.704 246.95C142.904 248.01 142.044 249.04 141.154 250.04C140.724 250.55 140.254 251.04 139.794 251.53C139.335 252.02 138.875 252.53 138.375 252.96C137.875 253.39 137.375 253.9 136.875 254.35C136.375 254.8 135.875 255.21 135.205 255.71C134.647 256.137 133.963 256.369 133.26 256.371C132.557 256.373 131.872 256.144 131.311 255.72C130.75 255.296 130.343 254.7 130.152 254.023C129.962 253.345 129.999 252.624 130.257 251.97L130.497 251.42Z" fill="white"/>
<path d="M186.554 207.91C184.664 211.67 174.677 211.06 158.72 206.91C155.461 206.05 151.962 205.05 148.223 203.91C144.61 202.803 140.794 201.563 136.775 200.19C124.048 195.84 109.321 190.19 93.1249 183.51C81.6575 178.77 69.4503 173.51 56.6931 167.7L50.7745 165L48.1351 163.79C36.8076 159.15 27.8396 157.79 26.14 160.88C24.9703 163.06 27.6097 167.01 32.7685 171.55L32.9685 171.71C35.018 173.26 36.8676 174.71 38.5272 176.12C45.9655 182.32 49.5247 186.82 48.405 189.07C45.8356 194.16 19.8014 186.72 -18.8499 170.95C-35.6361 164.1 -54.8418 155.67 -75.4771 146.01C-83.2254 142.39 -91.1936 138.6 -99.3218 134.65C-99.089 136.052 -99.4196 137.49 -100.242 138.65C-104.301 143.78 -119.887 138.22 -135.054 126.23C-140.221 122.204 -144.932 117.623 -149.101 112.57C-149.415 113.057 -149.787 113.504 -150.21 113.9C-156.349 119.61 -171.526 113.28 -184.103 99.76C-184.783 99.03 -185.432 98.29 -186.102 97.55C-186.167 99.7488 -187.072 101.839 -188.632 103.39C-194.76 109.1 -209.937 102.77 -222.524 89.25C-224.394 87.2404 -226.15 85.1271 -227.783 82.92C-241.053 65.0339 -256.214 48.6323 -273.003 34C-279.071 28.68 -281.911 24.79 -280.881 22.75C-280.211 21.42 -277.882 20.94 -274.212 21.25C-273.322 21.313 -272.433 21.1104 -271.658 20.6678C-270.883 20.2253 -270.257 19.5626 -269.859 18.7639C-269.461 17.9651 -269.308 17.0661 -269.421 16.1806C-269.534 15.2952 -269.907 14.4632 -270.493 13.79L-270.563 13.71C-275.762 9.12 -280.591 4.52 -285 0H-115.938C-46.5436 45.43 36.7576 105.59 36.7576 105.59C70.52 123.21 100.863 140.51 125.288 155.81C131.14 159.47 136.638 163.01 141.784 166.43C172.217 186.64 189.513 202 186.554 207.91Z" fill="#EBECF2"/>
<path d="M205.46 319.141C203.36 322.141 201.111 325.081 198.801 327.961C196.492 330.841 193.962 333.531 191.363 336.161C188.763 338.791 186.134 341.401 183.285 343.791C181.875 345.011 180.485 346.241 179.036 347.411L176.276 349.541H141.104C143.104 348.541 145.043 347.541 147.013 346.541C149.932 344.931 152.861 343.311 155.741 341.541C157.2 340.711 158.61 339.771 160.05 338.881C161.49 337.991 162.929 337.111 164.329 336.151L168.588 333.331C169.998 332.331 171.377 331.331 172.787 330.391C175.636 328.491 178.356 326.391 181.195 324.391C182.625 323.391 183.974 322.391 185.364 321.301L189.583 318.211C192.383 316.111 195.142 313.961 198.111 311.971L198.321 311.831C199.321 311.153 200.527 310.846 201.729 310.964C202.932 311.083 204.055 311.619 204.903 312.479C205.751 313.34 206.272 314.47 206.373 315.674C206.475 316.879 206.152 318.08 205.46 319.071V319.141Z" fill="white"/>
<path d="M176.206 308.001C176.746 307.451 177.466 306.801 178.106 306.181L180.105 304.291L182.105 302.381C182.745 301.721 183.395 301.091 184.035 300.441C186.614 297.861 189.087 295.194 191.453 292.441C192.683 291.101 193.762 289.651 194.962 288.281C196.162 286.911 197.262 285.461 198.311 283.981C200.601 281.101 202.58 278.041 204.95 274.981L205.04 274.861C205.362 274.451 205.81 274.159 206.314 274.029C206.819 273.898 207.352 273.937 207.832 274.139C208.312 274.342 208.713 274.696 208.973 275.148C209.232 275.6 209.336 276.124 209.269 276.641C209.139 277.641 208.929 278.641 208.729 279.641C208.527 280.656 208.264 281.658 207.939 282.641L206.939 285.561C206.569 286.561 206.13 287.451 205.7 288.391C204.831 290.256 203.849 292.066 202.76 293.811C201.651 295.539 200.453 297.208 199.171 298.811C196.635 302.03 193.778 304.982 190.643 307.621C189.068 308.929 187.427 310.154 185.724 311.291C184.854 311.841 184.015 312.421 183.095 312.911C182.175 313.401 181.305 313.911 180.225 314.371C179.423 314.741 178.516 314.817 177.662 314.587C176.809 314.358 176.063 313.836 175.554 313.113C175.046 312.39 174.806 311.512 174.878 310.631C174.95 309.75 175.328 308.922 175.946 308.291L176.206 308.001Z" fill="white"/>
<path d="M213.028 291.339C213.308 289.449 213.708 287.419 214.028 285.479C214.348 283.539 214.718 281.569 215.028 279.609C215.337 277.649 215.567 275.699 215.797 273.729C216.027 271.759 216.187 269.789 216.507 267.729V267.629C216.557 267.322 216.704 267.04 216.927 266.823C217.15 266.606 217.437 266.467 217.745 266.425C218.053 266.384 218.366 266.442 218.638 266.593C218.911 266.743 219.127 266.977 219.257 267.259C220.162 269.314 220.746 271.497 220.986 273.729C221.231 275.936 221.231 278.163 220.986 280.369C220.778 282.566 220.367 284.739 219.756 286.859C219.167 289.01 218.321 291.081 217.237 293.029C216.97 293.492 216.551 293.847 216.051 294.035C215.551 294.222 215.001 294.229 214.496 294.055C213.992 293.881 213.563 293.537 213.284 293.082C213.005 292.627 212.893 292.088 212.968 291.559L213.028 291.339Z" fill="white"/>
<path d="M241.042 327.001C240.251 334.674 238.474 342.213 235.753 349.431L194.122 349.491L195.712 348.491C200.658 345.108 205.176 341.139 209.169 336.671C211.274 334.321 213.238 331.846 215.048 329.261C215.527 328.611 215.967 327.941 216.407 327.261L217.767 325.261C218.587 323.851 219.497 322.451 220.276 320.981C223.614 314.878 226.476 308.526 228.834 301.981L228.894 301.831C229.372 300.624 230.228 299.604 231.334 298.925C232.441 298.246 233.737 297.944 235.029 298.065C236.322 298.186 237.54 298.722 238.501 299.594C239.463 300.466 240.116 301.626 240.362 302.901C241.667 310.868 241.895 318.973 241.042 327.001Z" fill="white"/>
<path d="M139.135 97.4991C140.62 97.4991 141.824 96.2948 141.824 94.8091C141.824 93.3235 140.62 92.1191 139.135 92.1191C137.649 92.1191 136.445 93.3235 136.445 94.8091C136.445 96.2948 137.649 97.4991 139.135 97.4991Z" fill="white"/>
<path d="M739.849 40.6593C741.335 40.6593 742.539 39.4549 742.539 37.9693C742.539 36.4837 741.335 35.2793 739.849 35.2793C738.364 35.2793 737.16 36.4837 737.16 37.9693C737.16 39.4549 738.364 40.6593 739.849 40.6593Z" fill="white"/>
<path d="M222.746 148.369C223.807 148.369 224.666 147.51 224.666 146.449C224.666 145.389 223.807 144.529 222.746 144.529C221.686 144.529 220.826 145.389 220.826 146.449C220.826 147.51 221.686 148.369 222.746 148.369Z" fill="white"/>
<path d="M379.011 35.0099C380.071 35.0099 380.931 34.1503 380.931 33.0899C380.931 32.0295 380.071 31.1699 379.011 31.1699C377.951 31.1699 377.091 32.0295 377.091 33.0899C377.091 34.1503 377.951 35.0099 379.011 35.0099Z" fill="white"/>
<path d="M622.576 65.0099C623.637 65.0099 624.496 64.1503 624.496 63.0899C624.496 62.0295 623.637 61.1699 622.576 61.1699C621.516 61.1699 620.656 62.0295 620.656 63.0899C620.656 64.1503 621.516 65.0099 622.576 65.0099Z" fill="white"/>
<path d="M654.619 39.8908C655.68 39.8908 656.539 39.0312 656.539 37.9708C656.539 36.9104 655.68 36.0508 654.619 36.0508C653.559 36.0508 652.699 36.9104 652.699 37.9708C652.699 39.0312 653.559 39.8908 654.619 39.8908Z" fill="white"/>
<path d="M15.8427 229.43C16.9031 229.43 17.7627 228.57 17.7627 227.51C17.7627 226.449 16.9031 225.59 15.8427 225.59C14.7824 225.59 13.9227 226.449 13.9227 227.51C13.9227 228.57 14.7824 229.43 15.8427 229.43Z" fill="white"/>
<path d="M1036.63 37.1994C1037.69 37.1994 1038.55 36.3398 1038.55 35.2794C1038.55 34.219 1037.69 33.3594 1036.63 33.3594C1035.57 33.3594 1034.71 34.219 1034.71 35.2794C1034.71 36.3398 1035.57 37.1994 1036.63 37.1994Z" fill="white"/>
<path d="M147.023 0L107.602 58.81L84.8568 61.47V96.25L83.3972 99.06C53.024 157.82 -14.2609 218.84 -17.0603 221.41L-18.7899 219.49V349.92H-75.4671V94.81L-148.281 72.81V0H-127.285V57.21L-75.4671 72.87V0H-18.8399V187.08C2.08542 166.29 38.8272 127.08 58.8627 89.87V0H84.8568V50.4L101.283 48.47L133.776 0H147.023Z" fill="#EBECF2"/>
<path d="M222.853 50.0937C224.579 47.054 214.163 37.8758 199.587 29.5937C185.011 21.3116 171.795 17.0618 170.069 20.1016C168.342 23.1413 178.759 32.3194 193.335 40.6015C207.911 48.8836 221.126 53.1334 222.853 50.0937Z" fill="#F3F4F7"/>
<path d="M22.7105 119.671C23.946 117.495 18.1599 111.875 9.78696 107.118C1.41401 102.36 -6.37518 100.267 -7.61067 102.442C-8.84616 104.617 -3.06009 110.238 5.31286 114.995C13.6858 119.753 21.475 121.846 22.7105 119.671Z" fill="#F3F4F7"/>
<path d="M231.268 45.7018C233.11 42.7309 227.604 35.9803 218.971 30.6239C210.337 25.2674 201.844 23.3335 200.002 26.3044C198.16 29.2752 203.665 36.0259 212.299 41.3823C220.933 46.7388 229.425 48.6727 231.268 45.7018Z" fill="#F3F4F7"/>
<path d="M46.2455 110.58C29.9091 134.84 9.03384 158.33 -7.40247 175.45C2.67527 179.38 11.6632 182.62 19.3415 185.08C23.4706 180.63 27.7696 175.89 32.1386 170.9C34.938 167.7 37.7607 164.403 40.6067 161.01C50.836 148.882 60.3852 136.196 69.2103 123.01C61.7853 118.903 54.1304 114.76 46.2455 110.58Z" fill="#F3F4F7"/>
<path d="M84.8568 73.3805V80.2105C76.5723 79.0159 68.3561 77.387 60.2424 75.3305L58.8627 75.0005V64.7305C60.2524 65.2705 61.642 65.8005 63.0417 66.3205C70.1801 69.0005 77.4685 71.3905 84.8568 73.3805Z" fill="#F3F4F7"/>
<path d="M141.784 166.431C141.734 168.021 141.634 169.611 141.514 171.211C141.414 172.961 141.254 174.711 141.104 176.461C140.954 178.211 140.684 179.951 140.434 181.691C140.184 183.431 139.974 185.191 139.665 186.931C139.005 190.391 138.335 193.871 137.505 197.311C137.265 198.251 137.025 199.191 136.775 200.131C124.048 195.781 109.321 190.131 93.1249 183.451C107.332 170.631 117.859 161.781 125.288 155.811C131.14 159.471 136.639 163.011 141.784 166.431Z" fill="#F3F4F7"/>
<path d="M158.75 206.519V206.859C155.491 205.999 151.992 204.999 148.253 203.859C148.902 201.799 149.532 199.719 150.402 197.649L150.512 197.409C150.874 196.544 151.515 195.825 152.331 195.364C153.148 194.904 154.095 194.728 155.022 194.866C155.95 195.004 156.805 195.446 157.453 196.124C158.101 196.802 158.504 197.676 158.6 198.609C158.73 199.929 158.78 201.249 158.82 202.609C158.86 203.969 158.9 205.209 158.75 206.519Z" fill="#F3F4F7"/>
<path d="M1722.09 165.709L1747.88 149.789L1658.53 144.039L1722.09 165.709Z" fill="#FFBF00"/>
<path d="M1710.76 173.039L1657.86 144.789L1686.6 196.289L1710.76 173.039Z" fill="#FFBF00"/>
<path d="M1722.09 165.709L1725.01 185.379L1710.76 173.039L1657.86 144.789L1658.53 144.039L1722.09 165.709Z" fill="#08112B"/>
<path d="M1704.36 179.209L1725.01 185.379L1710.76 173.039L1704.36 179.209Z" fill="#08112B"/>
<path d="M253.264 106.09L237.978 99.9199L227.88 112C230.599 114.133 233.265 116.25 235.878 118.35L253.264 106.09Z" fill="#4CC3FF"/>
<path d="M240.677 122.23L253.874 115L253.284 106.09L235.878 118.34C237.491 119.64 239.091 120.937 240.677 122.23Z" fill="#08112B"/>
<path d="M235.878 118.34C233.252 116.234 230.586 114.117 227.88 111.99L203.195 141.37L235.878 118.34Z" fill="#4CC3FF"/>
<path d="M235.879 118.34L203.166 141.34L204.246 142.2L240.688 122.2C239.095 120.927 237.492 119.64 235.879 118.34Z" fill="#08112B"/>
<path d="M204.235 142.23L253.914 133.22L262.952 110L204.235 142.23Z" fill="#08112B"/>
<path d="M262.952 110L240.677 122.23L240.887 122.39L240.677 122.23L204.235 142.23L247.536 127.86L258.763 124.14L280.288 117L262.952 110Z" fill="#4CC3FF"/>
<path d="M201.891 240.521C200.188 241.135 198.391 241.447 196.582 241.441C195.291 241.438 194.006 241.28 192.753 240.971L178.666 238.591L165.079 236.281L143.084 251.071L141.144 250.071L133.216 243.581L159.68 226.251C160.528 225.696 161.499 225.358 162.508 225.266C163.518 225.174 164.534 225.33 165.469 225.721L201.891 240.521Z" fill="#FFBF00"/>
<path d="M129.407 252.63L109.481 255L99.0136 266.52L88.296 278.35C90.9355 269.478 94.6559 260.964 99.3735 253C100.733 250.7 101.953 248.88 102.893 247.54C103.47 246.725 104.234 246.061 105.121 245.603C106.009 245.145 106.993 244.908 107.992 244.91H125.548L129.407 252.63Z" fill="#FFBF00"/>
<path d="M129.397 253.49C133.461 253.49 136.755 250.194 136.755 246.13C136.755 242.065 133.461 238.77 129.397 238.77C125.333 238.77 122.038 242.065 122.038 246.13C122.038 250.194 125.333 253.49 129.397 253.49Z" fill="#FFBF00"/>
<path d="M154.582 261.46C155.609 261.46 156.442 260.628 156.442 259.6C156.442 258.573 155.609 257.74 154.582 257.74C153.554 257.74 152.722 258.573 152.722 259.6C152.722 260.628 153.554 261.46 154.582 261.46Z" fill="#FFBF00"/>
<path d="M132.906 239.66C132.906 239.66 148.902 249.38 155.801 258.22L153.701 261.22C153.701 261.22 137.215 258.56 125.548 252.4L132.906 239.66Z" fill="#FFBF00"/>
<path d="M201.891 240.521C200.188 241.136 198.391 241.447 196.582 241.441C195.291 241.438 194.006 241.28 192.753 240.971L178.666 238.591C172.147 233.511 161.67 225.341 162.119 225.301L163.179 225.211C163.966 225.222 164.744 225.385 165.469 225.691L201.891 240.521Z" fill="#08112B"/>
<path d="M99.3835 253C99.3835 253 99.1536 260.82 99.0136 266.5L88.296 278.33C90.937 269.465 94.6574 260.957 99.3735 253H99.3835Z" fill="#08112B"/>
<path d="M1826.83 233.551C1826.88 233.941 1805.75 304.941 1779.66 327.201C1781.21 328.039 1782.96 328.467 1784.73 328.444C1786.49 328.421 1788.23 327.949 1789.76 327.071C1803.25 319.351 1837.48 294.251 1831.38 241.071C1831.21 239.589 1830.73 238.16 1829.96 236.881C1829.19 235.601 1828.16 234.5 1826.93 233.651L1826.83 233.551Z" fill="#08112B"/>
<path d="M1794.08 284.42C1794.48 285.326 1794.96 286.191 1795.53 287C1798.29 291 1805.47 298.76 1821.68 302.8L1826.39 291.27C1826.39 291.27 1815.5 281.71 1797.27 283.89C1796.26 284 1795.18 284.21 1794.08 284.42Z" fill="#4CC3FF"/>
<path d="M1838.77 290.32L1821.32 291.18L1817.49 298.75L1827.77 313.35C1827.77 313.35 1838.26 305.91 1838.77 290.32Z" fill="#4CC3FF"/>
<path d="M1794.08 284.421C1794.48 285.327 1794.96 286.192 1795.53 287.001L1797.27 283.891C1796.26 284.001 1795.18 284.211 1794.08 284.421Z" fill="#08112B"/>
</g>
<defs>
<clipPath id="clip0">
<rect width="2490" height="350" fill="white" transform="translate(-285)"/>
</clipPath>
</defs>
</svg>
