<svg width="1920" height="350" viewBox="0 0 1920 350" fill="none" xmlns="http://www.w3.org/2000/svg">
<g clip-path="url(#clip0)">
<path d="M1330.64 0C1330.64 0 1327.88 52.7885 1425.87 38.7889C1523.85 24.7893 1548.29 18.7895 1585.72 30.7891C1623.15 42.7888 1620.2 81.4577 1667.33 84.7876C1714.46 88.1175 1801.81 34.789 1782.47 94.1173C1877.22 132.786 1919.14 142.366 1986.93 127.116C2049 112.982 2106.71 83.9625 2155.08 42.5588L2205 0H1330.64Z" fill="#EBECF2"/>
<path d="M400.955 167.245C391.607 181.365 335.85 161.735 266.396 122.057C265.313 121.431 264.067 121.144 262.82 121.233C261.572 121.323 260.38 121.783 259.397 122.556C253.718 127.006 241.921 121.437 233.063 110.117C231.374 107.817 229.867 105.39 228.554 102.857C227.911 101.669 226.842 100.768 225.563 100.334C224.284 99.9006 222.889 99.9659 221.656 100.517H221.606C212.918 104.387 201.13 96.8772 195.282 83.7376V83.6576C195.137 83.3205 194.893 83.0353 194.583 82.8398C194.273 82.6443 193.91 82.5477 193.544 82.5629C193.177 82.5781 192.824 82.7043 192.531 82.9248C192.238 83.1453 192.019 83.4497 191.902 83.7976C191.384 85.5145 190.402 87.0546 189.063 88.2475C181.895 94.5073 166.228 88.2475 154.071 74.3779C151.993 72.0118 150.098 69.4913 148.402 66.8381C144.751 61.0435 139.898 56.1011 134.171 52.3453C128.445 48.5895 121.978 46.108 115.21 45.0687C87.7076 40.9043 60.5597 34.6667 33.9978 26.4092C29.0789 24.8893 24.23 23.3227 19.451 21.7094L18.8312 21.4894C16.2118 20.6294 14.3022 20.4894 13.8323 21.3194C13.4724 21.9494 14.0323 23.0393 15.262 24.3693C15.5219 24.5993 15.7719 24.8393 16.0118 25.0693L16.5717 25.6293C20.5008 29.5192 22.3804 32.7791 21.3506 34.559C20.0309 36.8389 14.2722 36.199 6.45396 33.359H6.39398L5.49419 33.0191C5.22425 32.9191 4.9543 32.8191 4.67436 32.6991L4.50442 32.6391C1.50509 31.6391 -0.644424 31.2591 -0.964352 31.9191C-1.1843 32.3791 -0.484463 33.229 0.845238 34.289L3.32469 35.899L5.32424 37.1489C12.6559 41.8155 20.1509 46.192 27.8092 50.2786C33.4979 53.2785 39.2666 56.2084 45.1453 58.8583C49.6643 60.8583 54.2332 62.8582 58.8622 64.6981C60.2519 65.2381 61.6415 65.7681 63.0412 66.2881C70.1796 68.998 77.468 71.358 84.8563 73.3479C89.9819 74.7479 95.1574 75.9645 100.383 76.9978C101.011 77.1071 101.573 77.4566 101.949 77.9722C102.325 78.4879 102.485 79.1295 102.397 79.7615C102.309 80.3936 101.979 80.9666 101.476 81.3595C100.973 81.7525 100.338 81.9347 99.703 81.8677C94.7375 81.461 89.7786 80.8943 84.8264 80.1677C76.5418 78.9731 68.3257 77.3443 60.2119 75.2878L58.8622 74.9979C52.8635 73.4779 46.8649 71.708 40.9262 69.798C34.5377 67.7981 28.2391 65.4281 21.9805 62.9782C9.46411 58.0218 -2.77144 52.3835 -14.6713 46.0887C-20.6299 42.9488 -26.5186 39.6355 -32.3373 36.149C-35.2433 34.409 -38.1293 32.6157 -40.9954 30.7691C-42.435 29.8491 -43.8647 28.9092 -45.3044 27.9492L-47.4539 26.4892C-48.1937 25.9793 -48.8636 25.4893 -49.7134 24.8893L-49.9233 24.7393C-52.384 22.9345 -54.0271 20.226 -54.4911 17.2096C-54.9552 14.1932 -54.2022 11.1159 -52.3978 8.65475C-50.5934 6.19361 -47.8854 4.55021 -44.8696 4.08607C-41.8537 3.62193 -38.7771 4.37508 -36.3164 6.17982C-35.9407 6.46385 -35.5802 6.7676 -35.2366 7.0898C-34.8067 7.48979 -34.1769 8.03977 -33.617 8.53976L-31.8474 10.0597L-30.3078 11.3497C-34.9467 6.9998 -37.3062 3.3499 -36.1564 1.34996C-35.8372 0.869141 -35.3596 0.515339 -34.8067 0.34999L-35.5466 0H247.55C249.736 5.12925 250.506 10.7512 249.779 16.2795C249.572 17.4956 249.715 18.7458 250.193 19.883C250.671 21.0202 251.464 21.9973 252.479 22.6994C346.267 84.7376 412.723 149.436 400.955 167.245Z" fill="#EBECF2"/>
<path d="M2183.02 349.99H1446.52C1446.52 349.99 1458.73 341.27 1478.24 327.061C1511.31 302.991 1565.34 263.163 1616.48 223.334C1692.89 163.825 1760.01 93.4474 1808.34 58.0584C1810.97 56.1375 1814.12 55.0602 1817.37 54.9692C1820.63 54.8781 1823.83 55.7775 1826.57 57.5484L2183.02 349.99Z" fill="#F7F8FA"/>
<path d="M1813.53 55.5684C1813.02 63.4381 1812.1 71.2479 1810.9 79.0077C1808.13 96.4213 1803.87 113.566 1798.18 130.256C1797.5 132.346 1796.74 134.416 1795.99 136.486C1795.24 138.556 1794.53 140.626 1793.7 142.666L1791.28 148.786C1790.47 150.786 1789.57 152.786 1788.72 154.856C1787.02 158.855 1785.14 162.855 1783.25 166.855C1781.35 170.855 1779.25 174.675 1777.13 178.485C1775.01 182.295 1772.8 186.095 1770.4 189.765C1769.24 191.614 1768.06 193.454 1766.84 195.264C1765.62 197.074 1764.34 198.854 1763.08 200.644C1760.6 204.224 1757.84 207.644 1755.08 211.054C1752.32 214.464 1749.37 217.694 1746.37 220.864C1746.1 221.156 1745.77 221.391 1745.4 221.555C1745.04 221.719 1744.64 221.81 1744.24 221.821C1743.84 221.832 1743.44 221.764 1743.06 221.62C1742.69 221.476 1742.35 221.26 1742.05 220.984C1741.69 220.639 1741.41 220.208 1741.25 219.729C1741.1 219.25 1741.06 218.739 1741.15 218.244C1741.14 218.167 1741.14 218.09 1741.15 218.014C1741.17 217.931 1741.19 217.851 1741.22 217.774C1744.01 206.774 1744.22 198.294 1741.22 197.254C1738.96 196.444 1735.37 200.254 1731.66 206.664C1730.94 208.064 1730.23 209.464 1729.52 210.864C1729.19 211.504 1728.85 212.134 1728.52 212.764C1723.19 223.017 1717.42 233.307 1711.22 243.633C1685.99 285.832 1657.58 322.191 1629.43 350.05H1477.76C1477.41 342.406 1477.55 334.746 1478.19 327.121C1511.26 303.051 1565.29 263.222 1616.43 223.394C1692.84 163.885 1759.96 93.5073 1808.29 58.1183C1809.87 56.9547 1811.64 56.0904 1813.53 55.5684Z" fill="white"/>
<path d="M1838.82 111.237C1839.09 113.845 1839.13 116.471 1838.94 119.087C1838.79 121.652 1838.49 124.206 1838.04 126.737C1836.21 136.977 1832.41 146.764 1826.85 155.556C1823.98 159.989 1820.46 163.964 1816.41 167.345C1815.88 167.851 1815.19 168.146 1814.46 168.178C1813.73 168.209 1813.01 167.973 1812.45 167.514C1811.88 167.055 1811.5 166.405 1811.37 165.686C1811.25 164.966 1811.4 164.227 1811.78 163.605L1811.86 163.435C1814.02 159.322 1815.97 155.096 1817.69 150.776C1819.3 146.446 1820.77 142.086 1822.05 137.616C1823.33 133.146 1824.39 128.616 1825.56 124.087L1827.33 117.267L1828.27 113.857C1828.6 112.737 1828.93 111.547 1829.27 110.527L1829.42 110.127C1829.8 109.098 1830.51 108.225 1831.44 107.651C1832.37 107.076 1833.47 106.833 1834.55 106.962C1835.64 107.09 1836.65 107.583 1837.42 108.359C1838.19 109.135 1838.68 110.149 1838.8 111.237H1838.82Z" fill="white"/>
<path d="M1825.18 209.994C1824.03 209.39 1822.7 209.262 1821.46 209.636C1820.23 210.011 1819.19 210.858 1818.58 211.994L1818.44 212.254C1818.18 212.744 1817.93 213.254 1817.67 213.744C1817.61 213.864 1817.55 213.984 1817.5 214.104L1817.2 214.674C1817.18 214.712 1817.17 214.749 1817.15 214.784C1816.28 216.394 1815.52 217.294 1815.02 217.144C1814.23 216.904 1814.29 214.224 1815.02 210.524C1815.02 210.354 1815.09 210.204 1815.13 210.044C1815.17 209.884 1815.21 209.674 1815.25 209.484C1815.29 209.294 1815.38 208.894 1815.43 208.604C1815.43 208.551 1815.43 208.497 1815.43 208.444C1816.49 203.576 1817.13 198.624 1817.34 193.644C1817.34 193.059 1817.14 192.491 1816.77 192.037C1816.4 191.583 1815.89 191.27 1815.32 191.152C1814.74 191.034 1814.15 191.118 1813.63 191.39C1813.11 191.663 1812.71 192.106 1812.48 192.644L1812.43 192.754C1810.43 197.614 1808.52 202.594 1806.54 207.454C1804.56 212.314 1802.59 217.154 1800.54 221.923C1798.49 226.693 1796.26 231.333 1794.07 235.993C1791.88 240.653 1789.4 245.103 1787.07 249.793L1786.97 249.983C1786.63 250.711 1786.55 251.538 1786.75 252.32C1786.95 253.102 1787.41 253.789 1788.06 254.263C1788.72 254.738 1789.51 254.97 1790.32 254.918C1791.12 254.867 1791.89 254.536 1792.47 253.983C1794.53 252.052 1796.43 249.97 1798.17 247.753C1798.76 246.973 1799.39 246.193 1799.98 245.393C1800.07 245.263 1800.15 245.133 1800.24 245.013C1800.29 244.959 1800.34 244.898 1800.37 244.833L1800.69 244.373C1800.75 244.283 1800.8 244.193 1800.87 244.103L1800.97 243.953C1802.48 241.873 1803.73 240.703 1804.3 240.953C1804.87 241.203 1804.56 243.543 1803.37 246.633C1803.24 246.963 1803.11 247.293 1802.96 247.633L1802.55 248.633L1802.43 248.903L1800.92 252.593C1800.25 254.293 1799.54 255.979 1798.78 257.652L1796.6 262.722C1795.07 266.052 1793.66 269.462 1792.08 272.792C1789.08 279.562 1785.75 286.162 1782.69 293.141V293.231C1782.43 293.785 1782.36 294.416 1782.51 295.013C1782.66 295.61 1783.02 296.135 1783.52 296.494C1784.02 296.853 1784.63 297.024 1785.24 296.976C1785.86 296.927 1786.44 296.664 1786.87 296.231C1792.56 290.931 1797.69 285.071 1802.2 278.742C1804.55 275.632 1806.56 272.332 1808.67 269.062C1810.78 265.792 1812.67 262.372 1814.35 258.902C1816.03 255.432 1817.77 251.953 1819.35 248.403C1820.07 246.603 1820.81 244.803 1821.49 242.993C1822.17 241.183 1822.78 239.333 1823.38 237.493C1824.57 233.79 1825.57 230.029 1826.38 226.223C1827.18 222.344 1827.67 218.404 1827.83 214.444C1827.85 213.527 1827.61 212.625 1827.14 211.838C1826.67 211.052 1825.99 210.413 1825.18 209.994Z" fill="white"/>
<path d="M1780.43 238.053C1780.1 237.825 1779.72 237.664 1779.33 237.579C1778.94 237.495 1778.53 237.488 1778.14 237.561C1777.74 237.633 1777.37 237.783 1777.03 238.001C1776.69 238.22 1776.4 238.502 1776.18 238.833L1776.11 238.933C1773.43 242.823 1770.93 246.793 1768.32 250.673C1765.71 254.553 1763.14 258.463 1760.44 262.253C1755.2 269.962 1749.67 277.442 1744.17 284.872C1738.67 292.302 1732.9 299.481 1727.18 306.641C1726.38 307.641 1725.58 308.641 1724.77 309.641L1724.61 309.841C1724.48 310.001 1724.35 310.151 1724.23 310.311C1721.45 313.601 1718.49 315.461 1717.23 314.551C1715.97 313.641 1716.9 310.381 1719.17 306.841L1719.27 306.691C1719.43 306.441 1719.61 306.191 1719.77 305.951L1720.1 305.471L1720.21 305.311L1721.89 302.791C1725.29 297.571 1728.41 292.166 1731.22 286.602C1734.05 281.037 1736.47 275.276 1738.47 269.362C1738.84 268.293 1738.83 267.132 1738.44 266.069C1738.06 265.006 1737.33 264.104 1736.37 263.509C1735.41 262.915 1734.28 262.662 1733.16 262.794C1732.04 262.925 1730.99 263.432 1730.2 264.232L1730.1 264.332C1727.91 266.522 1725.89 268.782 1723.9 271.042C1721.91 273.302 1719.9 275.582 1717.98 277.842C1714.09 282.382 1710.3 286.932 1706.52 291.452C1702.74 295.972 1698.97 300.451 1695.38 305.021C1693.58 307.291 1691.83 309.601 1690.1 311.901C1689.24 313.061 1688.39 314.224 1687.56 315.391L1686.35 317.131C1685.96 317.66 1685.61 318.211 1685.29 318.781L1684.46 320.441C1683.69 322.009 1683.46 323.785 1683.8 325.497C1684.14 327.209 1685.03 328.764 1686.33 329.924C1687.63 331.084 1689.28 331.786 1691.02 331.922C1692.76 332.059 1694.5 331.623 1695.96 330.681C1696.86 330.091 1697.49 329.681 1698.2 329.181L1700.2 327.701C1701.38 326.761 1702.53 325.811 1703.63 324.821L1703.7 324.751L1703.89 324.581L1704.12 324.361C1704.35 324.161 1704.59 323.941 1704.82 323.711C1707.53 321.371 1710.15 320.291 1711.26 321.271C1712.37 322.251 1711.67 324.881 1709.76 327.781C1709.5 328.098 1709.27 328.432 1709.05 328.781C1709 328.844 1708.96 328.915 1708.93 328.991C1707.73 331.068 1707.31 333.508 1707.76 335.866C1708.21 338.224 1709.49 340.342 1711.37 341.834C1713.25 343.326 1715.6 344.092 1718 343.992C1720.4 343.892 1722.68 342.933 1724.43 341.29C1724.98 340.75 1725.43 340.29 1725.84 339.86C1726.25 339.43 1726.71 338.97 1727.13 338.5C1727.97 337.59 1728.79 336.68 1729.6 335.76C1730.41 334.84 1731.2 333.91 1731.99 332.98C1732.78 332.051 1733.57 331.121 1734.31 330.161C1735.81 328.251 1737.3 326.381 1738.75 324.411C1740.2 322.441 1741.66 320.551 1743.02 318.551C1745.79 314.598 1748.46 310.574 1751.02 306.481C1752.26 304.421 1753.57 302.391 1754.77 300.311L1758.34 294.032C1760.69 289.842 1762.96 285.612 1765.09 281.302C1766.15 279.152 1767.25 277.012 1768.27 274.852C1769.29 272.692 1770.27 270.482 1771.27 268.302C1773.27 263.962 1775.04 259.493 1776.82 255.053C1777.72 252.853 1778.52 250.573 1779.31 248.323C1780.1 246.073 1780.88 243.803 1781.65 241.543C1781.86 240.909 1781.86 240.22 1781.64 239.588C1781.42 238.955 1780.99 238.415 1780.43 238.053Z" fill="white"/>
<path d="M1747.54 247.203C1748.53 245.171 1749.63 243.194 1750.84 241.283C1752.04 239.363 1753.31 237.483 1754.61 235.623C1755.91 233.763 1757.28 231.933 1758.71 230.123C1760.16 228.27 1761.73 226.509 1763.4 224.853C1763.59 224.656 1763.84 224.525 1764.11 224.482C1764.38 224.439 1764.66 224.485 1764.9 224.614C1765.14 224.743 1765.34 224.948 1765.45 225.197C1765.57 225.446 1765.6 225.725 1765.54 225.993C1765.13 228.372 1764.48 230.702 1763.59 232.943C1762.74 235.157 1761.74 237.309 1760.59 239.383C1759.45 241.467 1758.18 243.472 1756.77 245.383C1755.36 247.338 1753.74 249.135 1751.94 250.743C1751.45 251.174 1750.83 251.423 1750.17 251.447C1749.52 251.471 1748.88 251.269 1748.36 250.876C1747.84 250.482 1747.47 249.921 1747.31 249.287C1747.16 248.653 1747.22 247.984 1747.5 247.393L1747.54 247.203Z" fill="white"/>
<path d="M1783.3 203.315C1783.95 201.156 1784.78 199.055 1785.77 197.035C1786.77 195.035 1787.77 193.035 1788.95 191.035C1790.13 189.035 1791.31 187.155 1792.65 185.265C1794.01 183.299 1795.53 181.455 1797.2 179.755C1797.36 179.599 1797.54 179.475 1797.74 179.39C1797.94 179.306 1798.16 179.262 1798.38 179.262C1798.6 179.262 1798.82 179.306 1799.02 179.39C1799.22 179.475 1799.41 179.599 1799.56 179.755C1799.71 179.903 1799.84 180.08 1799.92 180.276C1800 180.471 1800.05 180.682 1800.05 180.895C1800.07 183.353 1799.79 185.804 1799.22 188.195C1798.69 190.526 1797.95 192.808 1797.03 195.015C1796.13 197.223 1795.06 199.357 1793.82 201.395C1792.57 203.492 1791.07 205.424 1789.33 207.145C1788.75 207.707 1788 208.063 1787.2 208.157C1786.39 208.25 1785.58 208.077 1784.88 207.663C1784.19 207.249 1783.65 206.618 1783.35 205.866C1783.04 205.115 1783 204.285 1783.21 203.505L1783.3 203.315Z" fill="white"/>
<path d="M1851.74 205.074C1851.81 206.408 1851.77 207.746 1851.62 209.074C1851.48 210.363 1851.26 211.641 1850.97 212.904C1850.39 215.416 1849.57 217.867 1848.53 220.224C1847.51 222.589 1846.26 224.847 1844.79 226.964C1843.33 229.12 1841.59 231.068 1839.6 232.754C1839.37 232.944 1839.09 233.059 1838.8 233.086C1838.51 233.112 1838.21 233.047 1837.95 232.9C1837.7 232.753 1837.49 232.531 1837.36 232.263C1837.24 231.996 1837.19 231.696 1837.24 231.404V231.344C1837.69 228.804 1838.38 226.504 1839 224.194C1839.62 221.884 1840.31 219.644 1841 217.414L1843.07 210.754C1843.44 209.654 1843.79 208.554 1844.18 207.454C1844.57 206.354 1844.96 205.214 1845.39 204.264L1845.55 203.904C1845.85 203.248 1846.36 202.71 1847 202.377C1847.64 202.044 1848.37 201.934 1849.08 202.065C1849.79 202.196 1850.44 202.56 1850.92 203.1C1851.4 203.639 1851.68 204.324 1851.73 205.044L1851.74 205.074Z" fill="white"/>
<path d="M1817.69 308.66C1823.8 301.406 1827.82 294.733 1826.66 293.753C1825.5 292.774 1819.6 297.861 1813.48 305.114C1807.37 312.368 1803.35 319.041 1804.51 320.02C1805.67 320.999 1811.57 315.913 1817.69 308.66Z" fill="white"/>
<path d="M435.918 349.13L235.753 349.44L194.122 349.5H176.286H141.114L51.1344 349.64H29.0194H12.0232L-36.4359 349.72L-69.8084 349.77L-122.437 349.85C-122.437 349.85 -28.9575 301.161 43.0263 230.663C90.3456 184.315 117.36 161.745 130.317 151.715C133.067 149.59 136.41 148.375 139.883 148.238C143.356 148.102 146.784 149.052 149.692 150.955C166.758 162.125 203.07 186.254 231.484 207.664C269.955 236.803 435.918 349.13 435.918 349.13Z" fill="#F7F8FA"/>
<path d="M141.804 165.935C141.804 167.695 141.644 169.445 141.514 171.205C141.384 172.965 141.254 174.705 141.104 176.455C140.954 178.205 140.684 179.945 140.434 181.685C140.184 183.425 139.974 185.185 139.665 186.925C139.005 190.385 138.335 193.864 137.505 197.304C135.829 204.226 133.691 211.028 131.106 217.664C129.837 221.014 128.377 224.314 126.897 227.573C126.158 229.223 125.288 230.813 124.488 232.423C123.688 234.033 122.838 235.643 121.928 237.213C118.392 243.593 114.322 249.661 109.761 255.353C107.492 258.223 105.032 260.973 102.483 263.622C99.9335 266.272 97.2041 268.782 94.3547 271.152C88.6726 275.943 82.428 280.023 75.7589 283.302C72.391 284.926 68.9052 286.293 65.3312 287.392C63.5287 287.933 61.7002 288.384 59.8525 288.742C58.9227 288.922 57.9729 289.062 57.0231 289.182L55.5634 289.342L53.9738 289.452C53.2414 289.505 52.5091 289.348 51.8636 288.998C51.218 288.648 50.6865 288.12 50.3318 287.477C49.9772 286.833 49.8144 286.102 49.8627 285.369C49.911 284.636 50.1685 283.933 50.6045 283.342L51.6043 281.982C51.8352 281.717 52.0823 281.466 52.3442 281.232L52.4941 281.102L53.2339 280.402L53.4639 280.192C53.9838 279.712 54.4637 279.192 54.9936 278.732C55.1335 278.602 55.2835 278.462 55.4135 278.322C60.4923 273.092 63.0318 268.032 61.3021 265.862C59.0826 263.112 50.8145 266.052 42.6963 272.452L40.1469 274.592C36.2611 277.832 32.292 281.065 28.2396 284.292C-7.26244 312.671 -41.9146 335.52 -69.8084 349.9L-122.437 349.98C-122.437 349.98 -28.9576 301.291 43.0263 230.793C90.3456 184.445 117.36 161.875 130.317 151.846C133.096 149.695 136.483 148.478 139.994 148.366C141.266 150.407 141.829 152.812 141.594 155.206C141.594 155.206 141.594 155.306 141.594 155.346C141.824 158.885 141.844 162.405 141.804 165.935Z" fill="white"/>
<path d="M83.457 321.631C78.4802 327.644 72.8951 333.126 66.7907 337.99L65.441 338.99L51.1042 349.67H28.9892C37.4973 343.4 42.9161 336.47 41.1365 333.99C39.3569 331.51 30.6388 334.58 21.7608 340.99C18.1754 343.505 14.9001 346.435 12.003 349.72L-36.4561 349.8C-15.2129 344.449 5.01505 335.667 23.4305 323.801C29.6704 319.739 35.5267 315.117 40.9265 309.991C47.3851 303.911 53.6837 300.911 56.2631 303.091C57.5728 304.201 57.7328 306.461 56.9329 309.381C56.9285 309.408 56.9285 309.435 56.9329 309.461C56.8729 309.671 56.813 309.881 56.743 310.101C56.603 310.561 56.433 311.031 56.2431 311.521C55.0534 315.521 55.1333 318.521 56.743 319.731C59.4124 321.681 65.521 318.131 72.0595 311.371V311.451L72.5894 310.821C72.6512 310.762 72.7081 310.699 72.7594 310.631C73.7591 309.481 74.7589 308.371 75.7587 307.291L75.8187 307.231C86.4163 295.731 96.424 288.712 99.2934 291.132C102.513 293.781 95.4243 307.471 83.457 321.631Z" fill="white"/>
<path d="M130.496 251.413C130.676 250.963 130.986 250.413 131.226 249.863L131.996 248.243C132.486 247.153 132.996 246.083 133.506 244.983C134.016 243.883 134.506 242.803 134.955 241.693C135.405 240.583 135.905 239.503 136.355 238.393C138.175 233.983 139.874 229.564 141.434 225.084C142.144 222.814 142.974 220.604 143.644 218.314C143.993 217.184 144.383 216.064 144.753 214.924C145.123 213.784 145.423 212.644 145.753 211.504C146.543 209.234 147.123 206.914 147.933 204.614C148.742 202.314 149.352 199.964 150.332 197.615L150.442 197.375C150.804 196.51 151.444 195.79 152.261 195.33C153.078 194.869 154.025 194.694 154.952 194.831C155.88 194.969 156.735 195.412 157.383 196.089C158.031 196.767 158.434 197.642 158.53 198.575C158.66 199.894 158.71 201.214 158.75 202.574C158.79 203.934 158.82 205.224 158.75 206.574C158.68 207.924 158.55 209.204 158.42 210.514C158.34 211.174 158.28 211.834 158.19 212.514L157.85 214.464C157.62 215.764 157.36 217.064 157.101 218.364C156.841 219.664 156.441 220.924 156.101 222.194L155.561 224.104L154.901 225.894C154.461 227.144 154.011 228.384 153.521 229.614C151.531 234.549 149.038 239.267 146.083 243.693L144.903 245.343L143.704 246.943C142.904 248.003 142.044 249.033 141.154 250.033C140.724 250.543 140.254 251.033 139.794 251.523C139.335 252.013 138.875 252.523 138.375 252.953C137.875 253.383 137.375 253.893 136.875 254.343C136.375 254.793 135.875 255.203 135.205 255.703C134.646 256.13 133.963 256.362 133.26 256.364C132.557 256.366 131.872 256.137 131.311 255.713C130.75 255.289 130.343 254.693 130.152 254.015C129.962 253.338 129.999 252.617 130.257 251.963L130.496 251.413Z" fill="white"/>
<path d="M186.554 207.904C184.664 211.664 174.677 211.054 158.72 206.904C155.461 206.044 151.962 205.044 148.223 203.904C144.61 202.798 140.794 201.558 136.775 200.184C124.048 195.834 109.321 190.185 93.1249 183.505C81.6575 178.765 69.4503 173.505 56.6931 167.695L50.7745 164.995L48.1351 163.785C36.8076 159.145 27.8396 157.786 26.14 160.875C24.9703 163.055 27.6097 167.005 32.7685 171.545L32.9685 171.705C35.018 173.255 36.8676 174.705 38.5272 176.115C45.9655 182.315 49.5247 186.815 48.405 189.065C45.8356 194.154 19.8014 186.715 -18.8499 170.945C-35.6361 164.095 -54.8418 155.666 -75.4771 146.006C-83.2254 142.386 -91.1936 138.596 -99.3218 134.646C-99.089 136.049 -99.4196 137.486 -100.242 138.646C-104.301 143.776 -119.887 138.216 -135.054 126.226C-140.221 122.201 -144.932 117.62 -149.101 112.567C-149.415 113.054 -149.787 113.501 -150.21 113.897C-156.349 119.607 -171.526 113.277 -184.103 99.7572C-184.783 99.0272 -185.432 98.2872 -186.102 97.5472C-186.167 99.746 -187.072 101.836 -188.632 103.387C-194.76 109.097 -209.937 102.767 -222.524 89.2475C-224.394 87.2379 -226.15 85.1246 -227.783 82.9176C-241.053 65.032 -256.214 48.6309 -273.003 33.999C-279.071 28.6792 -281.911 24.7893 -280.881 22.7493C-280.211 21.4194 -277.882 20.9394 -274.212 21.2494C-273.322 21.3124 -272.433 21.1098 -271.658 20.6672C-270.883 20.2247 -270.257 19.5621 -269.859 18.7633C-269.461 17.9646 -269.308 17.0656 -269.421 16.1802C-269.534 15.2948 -269.907 14.4628 -270.493 13.7896L-270.563 13.7096C-275.762 9.11974 -280.591 4.51987 -285 0H-115.938C-46.5436 45.4287 36.7576 105.587 36.7576 105.587C70.52 123.206 100.863 140.506 125.288 155.806C131.14 159.465 136.638 163.005 141.784 166.425C172.217 186.635 189.513 201.994 186.554 207.904Z" fill="#EBECF2"/>
<path d="M205.46 319.131C203.36 322.131 201.111 325.071 198.802 327.951C196.492 330.831 193.963 333.521 191.363 336.15C188.764 338.78 186.134 341.39 183.285 343.78C181.875 345 180.486 346.23 179.036 347.4L176.277 349.53H141.104C143.104 348.53 145.044 347.53 147.013 346.53C149.932 344.92 152.862 343.3 155.741 341.53C157.201 340.7 158.611 339.76 160.05 338.87C161.49 337.98 162.93 337.1 164.329 336.14L168.588 333.32C169.998 332.321 171.378 331.321 172.787 330.381C175.637 328.481 178.356 326.381 181.195 324.381C182.625 323.381 183.975 322.381 185.365 321.291L189.584 318.201C192.383 316.101 195.142 313.951 198.112 311.961L198.322 311.821C199.321 311.143 200.527 310.836 201.73 310.955C202.932 311.073 204.055 311.609 204.903 312.469C205.752 313.33 206.272 314.46 206.374 315.664C206.475 316.869 206.152 318.07 205.46 319.061V319.131Z" fill="white"/>
<path d="M176.206 307.991C176.746 307.441 177.466 306.791 178.106 306.171L180.105 304.281L182.105 302.371C182.745 301.711 183.394 301.081 184.034 300.431C186.614 297.851 189.086 295.185 191.453 292.432C192.682 291.092 193.762 289.642 194.962 288.272C196.162 286.902 197.261 285.452 198.311 283.972C200.601 281.092 202.58 278.032 204.95 274.972L205.04 274.852C205.362 274.443 205.81 274.15 206.314 274.02C206.819 273.89 207.352 273.929 207.832 274.131C208.312 274.333 208.713 274.687 208.972 275.139C209.232 275.591 209.336 276.115 209.269 276.632C209.139 277.632 208.929 278.632 208.729 279.632C208.527 280.647 208.263 281.649 207.939 282.632L206.939 285.552C206.569 286.552 206.129 287.442 205.699 288.382C204.831 290.246 203.849 292.056 202.76 293.801C201.651 295.529 200.453 297.198 199.171 298.801C196.635 302.02 193.778 304.972 190.643 307.611C189.068 308.919 187.426 310.144 185.724 311.281C184.854 311.831 184.014 312.411 183.094 312.901C182.175 313.391 181.305 313.901 180.225 314.361C179.422 314.731 178.515 314.807 177.662 314.578C176.809 314.348 176.063 313.826 175.554 313.103C175.045 312.381 174.806 311.502 174.878 310.621C174.949 309.74 175.327 308.912 175.946 308.281L176.206 307.991Z" fill="white"/>
<path d="M213.028 291.333C213.308 289.443 213.708 287.413 214.028 285.473C214.348 283.533 214.717 281.563 215.027 279.603C215.337 277.643 215.567 275.693 215.797 273.723C216.027 271.753 216.187 269.783 216.507 267.723V267.623C216.557 267.316 216.704 267.033 216.927 266.816C217.15 266.599 217.437 266.46 217.745 266.418C218.053 266.377 218.366 266.435 218.638 266.586C218.91 266.736 219.127 266.97 219.256 267.253C220.162 269.307 220.746 271.49 220.986 273.723C221.231 275.929 221.231 278.156 220.986 280.363C220.778 282.559 220.367 284.732 219.756 286.853C219.167 289.003 218.321 291.074 217.237 293.023C216.97 293.485 216.551 293.841 216.051 294.028C215.551 294.215 215.001 294.222 214.496 294.048C213.991 293.875 213.563 293.53 213.284 293.075C213.005 292.62 212.893 292.081 212.968 291.553L213.028 291.333Z" fill="white"/>
<path d="M241.042 326.991C240.251 334.664 238.474 342.203 235.753 349.42L194.122 349.48L195.712 348.48C200.657 345.098 205.176 341.129 209.169 336.661C211.274 334.31 213.237 331.836 215.047 329.251C215.527 328.601 215.967 327.931 216.407 327.251L217.767 325.251C218.587 323.841 219.496 322.441 220.276 320.971C223.614 314.868 226.476 308.516 228.834 301.972L228.894 301.822C229.372 300.615 230.228 299.595 231.334 298.916C232.44 298.237 233.737 297.935 235.029 298.056C236.321 298.176 237.54 298.713 238.501 299.585C239.463 300.457 240.115 301.617 240.362 302.892C241.666 310.858 241.895 318.964 241.042 326.991Z" fill="white"/>
<path d="M1645.56 100.277C1647.04 100.277 1648.24 99.0731 1648.24 97.5875C1648.24 96.1018 1647.04 94.8975 1645.56 94.8975C1644.07 94.8975 1642.87 96.1018 1642.87 97.5875C1642.87 99.0731 1644.07 100.277 1645.56 100.277Z" fill="white"/>
<path d="M139.135 97.4972C140.62 97.4972 141.824 96.2928 141.824 94.8072C141.824 93.3215 140.62 92.1172 139.135 92.1172C137.649 92.1172 136.445 93.3215 136.445 94.8072C136.445 96.2928 137.649 97.4972 139.135 97.4972Z" fill="white"/>
<path d="M739.85 40.6588C741.335 40.6588 742.539 39.4545 742.539 37.9688C742.539 36.4832 741.335 35.2788 739.85 35.2788C738.364 35.2788 737.16 36.4832 737.16 37.9688C737.16 39.4545 738.364 40.6588 739.85 40.6588Z" fill="white"/>
<path d="M1721.4 24.9298C1722.88 24.9298 1724.09 23.7255 1724.09 22.2398C1724.09 20.7542 1722.88 19.5498 1721.4 19.5498C1719.91 19.5498 1718.71 20.7542 1718.71 22.2398C1718.71 23.7255 1719.91 24.9298 1721.4 24.9298Z" fill="white"/>
<path d="M1885.54 62.5085C1886.6 62.5085 1887.46 61.6488 1887.46 60.5885C1887.46 59.5281 1886.6 58.6685 1885.54 58.6685C1884.48 58.6685 1883.62 59.5281 1883.62 60.5885C1883.62 61.6488 1884.48 62.5085 1885.54 62.5085Z" fill="white"/>
<path d="M222.746 148.366C223.807 148.366 224.666 147.506 224.666 146.446C224.666 145.385 223.807 144.526 222.746 144.526C221.686 144.526 220.826 145.385 220.826 146.446C220.826 147.506 221.686 148.366 222.746 148.366Z" fill="white"/>
<path d="M379.011 35.0099C380.071 35.0099 380.931 34.1503 380.931 33.0899C380.931 32.0295 380.071 31.1699 379.011 31.1699C377.95 31.1699 377.091 32.0295 377.091 33.0899C377.091 34.1503 377.95 35.0099 379.011 35.0099Z" fill="white"/>
<path d="M622.576 65.0085C623.637 65.0085 624.496 64.1488 624.496 63.0885C624.496 62.0281 623.637 61.1685 622.576 61.1685C621.516 61.1685 620.656 62.0281 620.656 63.0885C620.656 64.1488 621.516 65.0085 622.576 65.0085Z" fill="white"/>
<path d="M654.619 39.8888C655.68 39.8888 656.539 39.0292 656.539 37.9688C656.539 36.9084 655.68 36.0488 654.619 36.0488C653.559 36.0488 652.699 36.9084 652.699 37.9688C652.699 39.0292 653.559 39.8888 654.619 39.8888Z" fill="white"/>
<path d="M15.8429 229.423C16.9033 229.423 17.7628 228.564 17.7628 227.503C17.7628 226.443 16.9033 225.583 15.8429 225.583C14.7825 225.583 13.9229 226.443 13.9229 227.503C13.9229 228.564 14.7825 229.423 15.8429 229.423Z" fill="white"/>
<path d="M1202.97 47.0885C1204.03 47.0885 1204.89 46.2289 1204.89 45.1685C1204.89 44.1081 1204.03 43.2485 1202.97 43.2485C1201.91 43.2485 1201.05 44.1081 1201.05 45.1685C1201.05 46.2289 1201.91 47.0885 1202.97 47.0885Z" fill="white"/>
<path d="M1541.39 47.0885C1542.45 47.0885 1543.31 46.2289 1543.31 45.1685C1543.31 44.1081 1542.45 43.2485 1541.39 43.2485C1540.33 43.2485 1539.47 44.1081 1539.47 45.1685C1539.47 46.2289 1540.33 47.0885 1541.39 47.0885Z" fill="white"/>
<path d="M1036.63 37.1999C1037.69 37.1999 1038.55 36.3402 1038.55 35.2799C1038.55 34.2195 1037.69 33.3599 1036.63 33.3599C1035.57 33.3599 1034.71 34.2195 1034.71 35.2799C1034.71 36.3402 1035.57 37.1999 1036.63 37.1999Z" fill="white"/>
<path d="M147.023 0L107.602 58.8083L84.8573 61.4682V96.2472L83.3976 99.0572C53.0245 157.815 -14.2604 218.834 -17.0598 221.404L-18.7894 219.484V349.91H-75.4666V94.8073L-148.28 72.8079V0H-127.285V57.2084L-75.4666 72.8679V0H-18.8394V187.075C2.08591 166.285 38.8277 127.076 58.8631 89.8674V0H84.8573V50.3986L101.284 48.4686L133.776 0H147.023Z" fill="#EBECF2"/>
<path d="M222.853 50.0947C224.58 47.055 214.163 37.8768 199.587 29.5947C185.011 21.3126 171.796 17.0628 170.069 20.1025C168.343 23.1422 178.759 32.3204 193.335 40.6025C207.911 48.8846 221.127 53.1344 222.853 50.0947Z" fill="#F3F4F7"/>
<path d="M22.7108 119.667C23.9463 117.492 18.1602 111.872 9.78723 107.115C1.41422 102.357 -6.37504 100.264 -7.61056 102.439C-8.84607 104.614 -3.05999 110.235 5.31303 114.992C13.686 119.75 21.4753 121.843 22.7108 119.667Z" fill="#F3F4F7"/>
<path d="M231.267 45.7018C233.11 42.7309 227.604 35.9803 218.97 30.6239C210.337 25.2674 201.844 23.3335 200.002 26.3044C198.16 29.2752 203.665 36.0259 212.299 41.3823C220.933 46.7388 229.425 48.6727 231.267 45.7018Z" fill="#F3F4F7"/>
<path d="M46.2456 110.577C29.9093 134.836 9.03396 158.325 -7.40234 175.445C2.67539 179.375 11.6634 182.615 19.3416 185.075C23.4707 180.625 27.7697 175.885 32.1387 170.895C34.9381 167.695 37.7608 164.398 40.6068 161.005C50.8361 148.877 60.3853 136.192 69.2104 123.006C61.7854 118.9 54.1305 114.757 46.2456 110.577Z" fill="#F3F4F7"/>
<path d="M84.8564 73.378V80.208C76.5719 79.0134 68.3558 77.3845 60.242 75.328L58.8623 74.998V64.728C60.252 65.268 61.6417 65.798 63.0414 66.318C70.1797 68.998 77.4681 71.388 84.8564 73.378Z" fill="#F3F4F7"/>
<path d="M141.784 166.425C141.734 168.015 141.634 169.605 141.514 171.205C141.414 172.955 141.254 174.705 141.104 176.455C140.954 178.205 140.684 179.945 140.434 181.685C140.184 183.425 139.974 185.185 139.665 186.925C139.005 190.385 138.335 193.865 137.505 197.304C137.265 198.244 137.025 199.184 136.775 200.124C124.048 195.775 109.321 190.125 93.125 183.445C107.332 170.625 117.859 161.775 125.288 155.806C131.14 159.466 136.639 163.005 141.784 166.425Z" fill="#F3F4F7"/>
<path d="M158.751 206.514V206.854C155.491 205.994 151.992 204.994 148.253 203.854C148.903 201.794 149.533 199.714 150.402 197.644L150.512 197.404C150.875 196.54 151.515 195.82 152.332 195.359C153.148 194.899 154.095 194.724 155.023 194.861C155.95 194.999 156.805 195.441 157.453 196.119C158.101 196.797 158.505 197.672 158.601 198.604C158.731 199.924 158.781 201.244 158.821 202.604C158.861 203.964 158.901 205.204 158.751 206.514Z" fill="#F3F4F7"/>
</g>
<defs>
<clipPath id="clip0">
<rect width="2490" height="350" fill="white" transform="translate(-285)"/>
</clipPath>
</defs>
</svg>
