<svg width="1920" height="300" viewBox="0 0 1920 300" preserveAspectRatio="none" fill="none" xmlns="http://www.w3.org/2000/svg">
<path d="M0 0H1920V300H0V0Z" fill="#F6F7F9"/>
<path d="M1605.94 99.9879C1605.94 99.9879 1566.1 92.7008 1546.57 92.6406C1546.57 92.6406 1550.34 127.734 1535.85 151.307C1535.72 151.521 1535.64 151.765 1535.63 152.016C1535.61 152.267 1535.66 152.518 1535.76 152.747C1535.87 152.976 1536.02 153.176 1536.22 153.33C1536.42 153.484 1536.65 153.587 1536.9 153.63L1597.4 164.513C1597.76 164.573 1598.13 164.505 1598.45 164.321C1598.76 164.138 1599 163.849 1599.13 163.507C1601.35 157.252 1610.94 128.095 1605.94 99.9879Z" fill="white"/>
<path d="M1850.14 183.983C1850.14 183.983 1851.23 248.766 1803.61 249.635C1756 250.504 1757.33 286.759 1757.33 286.759L1657.36 241.643L1657.12 241.195C1657.3 235.663 1660.2 205.741 1703.4 204.949C1751.02 204.089 1749.93 139.297 1749.93 139.297C1784.52 151.358 1818.04 166.306 1850.14 183.983Z" fill="#E9EBF2"/>
<path d="M1220 0C1220 0 1236.67 28.3912 1274.2 30.3097C1311.74 32.2283 1339.75 20.3556 1365.14 20.0803C1399.61 19.7104 1400.41 46.9831 1475.39 52.2828C1550.36 57.5824 1624.27 0 1624.27 0H1220Z" fill="#F9FAFB"/>
<path d="M1719.07 295.638L1670.22 296.929C1651.48 288.859 1632.65 280.97 1613.74 273.261C1603.72 269.14 1593.64 265.174 1583.58 261.13C1573.52 257.087 1563.42 253.172 1553.29 249.352C1533.08 241.549 1512.71 234.141 1492.3 226.828C1491.3 226.48 1490.48 225.752 1490.01 224.802C1489.54 223.853 1489.46 222.756 1489.79 221.75C1490.12 220.743 1490.83 219.906 1491.77 219.419C1492.72 218.932 1493.81 218.834 1494.82 219.146C1515.66 225.375 1536.49 231.707 1557.18 238.443C1567.55 241.73 1577.82 245.214 1588.15 248.621C1598.47 252.028 1608.8 255.564 1619.05 259.169C1639.62 266.275 1660.11 273.605 1680.55 281.159C1693.42 285.896 1706.26 290.723 1719.07 295.638Z" fill="white"/>
<path d="M1591.73 298.994L1553.29 300.001L1552.17 299.553C1542.07 295.622 1532 291.604 1521.86 287.775C1501.65 279.963 1481.28 272.565 1460.88 265.243C1459.86 264.908 1459.02 264.181 1458.53 263.224C1458.05 262.266 1457.97 261.156 1458.3 260.137C1458.64 259.118 1459.36 258.274 1460.32 257.791C1461.28 257.308 1462.39 257.225 1463.41 257.56C1484.25 263.798 1505.07 270.121 1525.75 276.858C1536.14 280.144 1546.4 283.637 1556.77 287.027C1567.14 290.417 1577.42 293.978 1587.67 297.575L1591.73 298.994Z" fill="white"/>
<path d="M1920 0V162.268C1920 202.635 1876.53 228.119 1841.33 208.348L1841.1 208.228C1816.56 194.548 1790.12 182.512 1762.94 171.939C1750.16 166.957 1737.21 162.294 1724.23 157.932C1704.58 151.342 1684.85 145.449 1665.45 140.184C1651.59 136.424 1637.91 132.983 1624.55 129.859C1603.46 124.895 1583.15 120.68 1564.26 117.118C1553.6 115.105 1543.39 113.298 1533.74 111.681C1510.12 107.712 1488.65 95.5955 1473.04 77.4375C1457.43 59.2796 1448.67 36.2272 1448.29 12.2856C1448.17 4.54259 1447.91 0.0172068 1447.91 0.0172068L1920 0Z" fill="#E9EBF2"/>
<path d="M1849.56 66.425L1852.01 159.729C1828.91 146.376 1780.77 124.524 1749.35 118.527L1747.05 31.1855C1782.45 36.0637 1819.65 49.3817 1849.56 66.425Z" fill="#F9FAFB"/>
<path d="M1849.56 66.425L1851.22 129.471C1824.33 125.642 1837.71 96.7347 1825.2 94.4118C1814.66 92.4588 1819.84 109.64 1807.88 108.237C1794.12 106.629 1804.32 71.1052 1792.4 70.2535C1780.61 69.3932 1785.89 86.2386 1774.33 85.5675C1762.36 84.8707 1767.54 57.6496 1758.09 56.5569C1748.63 55.4643 1748.21 74.3143 1748.21 74.3143L1747.07 31.1855C1782.45 36.0637 1819.65 49.3817 1849.56 66.425Z" fill="white"/>
<path d="M1850.13 183.985C1850.05 193.289 1848.76 202.544 1846.3 211.516C1815.76 193.526 1781.64 178.418 1746.38 165.746C1748.66 157.126 1749.85 148.256 1749.93 139.342C1784.52 151.389 1818.04 166.323 1850.13 183.985Z" fill="#F9FAFB"/>
<path d="M1709.53 126.66C1709.53 126.66 1670.94 114.417 1651.53 111.896C1651.53 111.896 1650.85 147.489 1633.28 169.023C1633.14 169.188 1633.06 169.383 1633.02 169.59C1632.98 169.797 1632.99 170.01 1633.05 170.212C1633.11 170.414 1633.22 170.597 1633.37 170.747C1633.52 170.896 1633.7 171.007 1633.9 171.071L1693.11 189.654C1693.4 189.747 1693.71 189.734 1693.99 189.617C1694.28 189.501 1694.51 189.288 1694.65 189.017C1697.46 183.52 1710.97 155.507 1709.53 126.66Z" fill="white"/>
<path d="M1707.3 152.718C1687.51 146.644 1667.6 141.276 1648.07 136.518C1649.85 129.052 1650.98 121.447 1651.46 113.788C1651.47 113.545 1651.53 113.308 1651.64 113.091C1651.74 112.875 1651.9 112.683 1652.09 112.53C1652.27 112.376 1652.49 112.264 1652.72 112.201C1652.96 112.137 1653.2 112.124 1653.44 112.162C1671.23 114.855 1702.01 124.318 1708.37 126.297C1708.71 126.401 1709.02 126.611 1709.24 126.896C1709.46 127.182 1709.58 127.529 1709.59 127.889C1709.81 136.226 1709.04 144.561 1707.3 152.718Z" fill="#F9FAFB"/>
<path d="M1607.04 125.694C1585.87 121.057 1565.5 117.16 1546.56 113.891C1547.04 107.86 1547.11 101.804 1546.78 95.7633C1546.76 95.3622 1546.82 94.9602 1546.96 94.5832C1547.09 94.2063 1547.31 93.8628 1547.59 93.5749C1547.87 93.2871 1548.21 93.0613 1548.58 92.9122C1548.96 92.763 1549.36 92.6938 1549.76 92.7091C1567.26 93.3371 1596.11 98.2411 1603.96 99.5918C1604.55 99.6927 1605.1 99.9762 1605.52 100.402C1605.94 100.828 1606.21 101.375 1606.3 101.966C1607.43 109.823 1607.68 117.782 1607.04 125.694Z" fill="#F9FAFB"/>
<path d="M1652.08 162.689C1652.08 162.689 1674.99 169.469 1688.04 173.676" stroke="#F9FAFB" stroke-width="4" stroke-linecap="round" stroke-linejoin="round"/>
<path d="M1656.75 150.645C1656.75 150.645 1679.67 157.415 1692.71 161.622" stroke="#F9FAFB" stroke-width="4" stroke-linecap="round" stroke-linejoin="round"/>
<path d="M1753.45 18.6521C1755.64 18.4093 1757.13 15.7663 1756.8 12.7487C1756.46 9.73107 1754.42 7.48165 1752.24 7.72445C1750.06 7.96724 1748.56 10.6103 1748.9 13.6279C1749.23 16.6455 1751.27 18.8949 1753.45 18.6521Z" fill="#F9FAFB"/>
<path d="M1769.13 14.8066C1769.13 14.8066 1806.81 21.0183 1848.92 41.133" stroke="#F9FAFB" stroke-width="6" stroke-linecap="round" stroke-linejoin="round"/>
<path d="M1684.37 32.6923C1666.1 30.2575 1651.57 39.1534 1651.92 52.5661C1652.27 65.9788 1667.49 76.2684 1685.65 81.267C1693.49 83.435 1696.03 89.294 1698.71 89.1305C1701.38 88.967 1696.35 81.9897 1701.82 80.3034C1711.67 77.275 1718.33 70.4697 1718.09 61.376C1717.7 47.9375 1702.6 35.0926 1684.37 32.6923Z" fill="#F9FAFB"/>
<path d="M1688.18 59.9103C1689.5 58.6246 1689.35 56.3236 1687.84 54.7708C1686.33 53.2181 1684.03 53.0015 1682.71 54.2872C1681.39 55.573 1681.54 57.874 1683.05 59.4267C1684.56 60.9795 1686.86 61.196 1688.18 59.9103Z" fill="#E9EBF2"/>
<path d="M1702.72 61.8536C1704.05 60.5679 1703.89 58.2669 1702.38 56.7141C1700.87 55.1614 1698.57 54.9449 1697.25 56.2306C1695.93 57.5163 1696.08 59.8173 1697.6 61.3701C1699.11 62.9229 1701.4 63.1393 1702.72 61.8536Z" fill="#E9EBF2"/>
<path d="M1673.66 57.9708C1674.98 56.6851 1674.82 54.3841 1673.31 52.8313C1671.8 51.2786 1669.5 51.0621 1668.18 52.3478C1666.86 53.6335 1667.02 55.9345 1668.53 57.4873C1670.04 59.04 1672.33 59.2565 1673.66 57.9708Z" fill="#E9EBF2"/>
<path d="M1550.68 67.9668C1543.29 74.7843 1535.34 80.9663 1526.92 86.4469C1525.58 87.3143 1524.62 88.6571 1524.24 90.2033C1523.86 91.7496 1524.07 93.3838 1524.85 94.7749C1525.62 96.1702 1526.9 97.2107 1528.42 97.6743C1529.18 97.9035 1529.97 97.9721 1530.75 97.8758C1531.53 97.7795 1532.29 97.5203 1532.96 97.1151C1540.97 92.3437 1548.59 86.9681 1555.77 81.0353" fill="#FFBF00"/>
<path d="M1553.37 65.4276C1557.86 61.1374 1562.19 56.5489 1566.36 51.6622C1565.37 46.612 1566.19 41.1919 1569.05 37.2515C1571.91 33.3112 1576.12 31.9088 1580.23 33.3542C1578.33 36.2621 1576.37 39.0927 1574.37 41.8457C1575.16 44.7135 1575.89 47.5813 1576.57 50.4491C1578.71 51.5331 1580.84 52.6516 1582.97 53.8044C1585.17 51.1718 1587.31 48.4589 1589.41 45.6656C1590.52 51.2492 1589.34 57.2286 1586.07 60.9625C1584.72 62.6564 1582.83 63.8286 1580.71 64.2777C1578.59 64.7267 1576.39 64.4245 1574.47 63.423C1570.67 67.501 1566.75 71.3668 1562.73 75.0204" fill="#FFBF00"/>
<path d="M1551.53 84.426C1550.53 79.654 1549.36 74.9709 1548 70.3767C1548.56 69.8777 1549.13 69.3787 1549.72 68.8711C1552.31 72.3124 1554.79 75.9201 1557.18 79.6941C1555.3 81.3231 1553.42 82.9003 1551.53 84.426Z" fill="#000D1A"/>
<path d="M1571.15 88.0467C1562.23 72.574 1551.05 58.5143 1537.99 46.3289C1537.79 45.2019 1537.59 44.0835 1537.36 42.9564C1534.7 41.3046 1532.02 39.7416 1529.32 38.2676C1528.01 40.0915 1526.68 41.8724 1525.32 43.6103C1527.43 45.8386 1529.52 48.1529 1531.54 50.5532H1534.66C1547.43 62.7004 1558.31 76.6964 1566.92 92.0731C1568.36 90.7654 1569.77 89.4233 1571.15 88.0467Z" fill="#000D1A"/>
<path d="M1572.75 109.261C1566.08 94.1433 1557.4 79.9972 1546.94 67.2079C1549.28 64.7129 1551.57 62.1319 1553.82 59.4648C1564.8 72.3424 1574.01 86.6231 1581.22 101.931C1581.42 102.383 1581.48 102.885 1581.39 103.373C1581.3 103.86 1581.07 104.309 1580.72 104.658C1578.75 106.414 1576.77 108.134 1574.76 109.82C1574.61 109.96 1574.42 110.058 1574.22 110.105C1574.01 110.153 1573.8 110.149 1573.6 110.093C1573.4 110.037 1573.22 109.932 1573.07 109.786C1572.92 109.641 1572.81 109.46 1572.75 109.261Z" fill="#FFBF00"/>
<path d="M1626.13 249.438C1626.13 249.438 1629.14 246.978 1626.19 227.68C1622.74 205.045 1635.82 196.76 1635.82 196.76C1643.34 198.46 1651.06 199.12 1658.75 198.721C1658.75 198.721 1668.45 211.136 1676.08 215.928C1676.08 215.928 1679.63 226.527 1666.75 238.065C1653.87 249.602 1634.79 252.303 1626.13 249.438Z" fill="#000D1A"/>
<path d="M1624.71 246.917C1624.71 246.917 1627.7 244.456 1624.71 225.159C1621.26 202.523 1634.34 194.238 1634.34 194.238C1641.86 195.939 1649.58 196.599 1657.28 196.2C1657.28 196.2 1666.98 208.615 1674.6 213.407C1674.6 213.407 1678.15 224.006 1665.27 235.543C1652.39 247.08 1633.36 249.773 1624.71 246.917Z" fill="#4CC3FF"/>
<path d="M1634.91 223.591C1634.22 220.935 1633.38 218.323 1632.38 215.77C1632.27 215.449 1632.29 215.1 1632.43 214.792C1632.57 214.484 1632.82 214.238 1633.13 214.101C1635.91 212.725 1638.63 211.305 1641.21 209.877L1642.33 212.019C1640.08 213.275 1637.71 214.514 1635.29 215.727C1636.15 218.019 1636.88 220.353 1637.49 222.722L1634.91 223.591Z" fill="#000D1A"/>
<path d="M1651.35 230.923L1650.24 228.764C1652.57 227.499 1654.85 226.183 1657.06 224.858C1656.4 222.036 1655.64 219.283 1654.77 216.659L1657.35 215.652C1658.37 218.708 1659.23 221.815 1659.93 224.961C1659.98 225.242 1659.94 225.53 1659.82 225.787C1659.7 226.044 1659.5 226.257 1659.25 226.398C1656.66 227.938 1654.03 229.461 1651.35 230.923Z" fill="#000D1A"/>
<path d="M1642.38 224.333L1640.87 222.44C1644.31 219.799 1647.58 217.072 1650.56 214.336L1652.28 216.057C1649.24 218.844 1645.91 221.632 1642.38 224.333Z" fill="#000D1A"/>
<path d="M1757.44 188.035C1757.44 188.035 1793.02 202.558 1815.75 216.306" stroke="#F9FAFB" stroke-width="4" stroke-linecap="round" stroke-linejoin="round"/>
<path d="M1744.2 205.338C1744.2 205.338 1776.51 215.911 1799.74 230.787" stroke="#F9FAFB" stroke-width="4" stroke-linecap="round" stroke-linejoin="round"/>
<path d="M1506.58 25.0927C1509.72 25.0099 1512.19 22.0164 1512.1 18.4065C1512 14.7966 1509.38 11.9373 1506.24 12.0201C1503.1 12.1028 1500.63 15.0963 1500.73 18.7062C1500.82 22.3161 1503.44 25.1754 1506.58 25.0927Z" fill="#F9FAFB"/>
<path d="M1507.62 64.3759C1510.76 64.2931 1513.23 61.2996 1513.13 57.6897C1513.04 54.0798 1510.41 51.2205 1507.28 51.3033C1504.14 51.386 1501.67 54.3795 1501.76 57.9894C1501.86 61.5993 1504.48 64.4586 1507.62 64.3759Z" fill="#F9FAFB"/>
</svg>
