<svg width="138" height="30" viewBox="0 0 138 30" fill="none" xmlns="http://www.w3.org/2000/svg">
<path d="M123.557 22.8259C123.557 22.8259 126.242 25.8898 129.833 25.8898C131.459 25.8898 132.707 25.2173 132.707 23.8348C132.707 20.8829 121.591 20.9203 121.591 14.1946C121.591 10.0097 125.41 8.10407 129.796 8.10407C132.669 8.10407 137.206 9.03819 137.206 12.4384V14.6056H132.556V13.5967C132.556 12.6252 131.081 12.1395 129.909 12.1395C128.056 12.1395 126.771 12.8121 126.771 14.0077C126.771 17.2959 138 16.6233 138 23.5732C138 27.4965 134.484 29.9626 129.871 29.9626C124.087 29.9626 121.1 26.2261 121.1 26.2261L123.557 22.8259ZM117.432 29.4395H114.975C113.047 29.4395 112.215 28.6175 112.215 26.6745V13.933C112.215 13.3352 111.875 13.0363 111.307 13.0363H109.644V8.62718H114.635C116.563 8.62718 117.395 9.48657 117.395 11.3922V29.4395H117.432ZM105.258 13.7462L99.2088 29.4395H92.9705L86.9211 13.7462L84.9929 8.58981H88.3201C90.0592 8.58981 90.891 9.11292 91.4203 10.5702L95.3902 21.5181C95.8439 22.7512 96.1842 24.5073 96.1842 24.5073H96.2598C96.2598 24.5073 96.6 22.7512 97.0159 21.5181L100.986 10.5702C101.515 9.15029 102.385 8.58981 104.086 8.58981H107.186L105.258 13.7462ZM35.1617 12.5131C38.5645 12.5131 41.0598 14.8298 41.0598 14.8298L43.2527 11.2427C43.2527 11.2427 40.039 8.10407 34.7837 8.10407C27.7891 8.10407 23.4412 13.111 23.4412 19.0147V19.052C23.4412 24.9931 27.7891 29.9626 34.7837 29.9626C40.039 29.9626 43.2527 26.824 43.2527 26.824L41.0598 23.2369C41.0598 23.2369 38.5267 25.5535 35.1617 25.5535C31.9858 25.5535 29.2258 23.6479 28.8478 19.9488C28.81 19.6125 28.7722 19.3136 28.7722 19.0147V19.0894C28.7722 18.7905 28.81 18.4542 28.8478 18.1553C29.2258 14.4188 31.9858 12.5131 35.1617 12.5131ZM78.1118 16.3244C78.0362 13.8209 76.2971 12.1021 74.142 12.1021C71.4576 12.1021 69.5672 13.7088 68.9623 16.3244H78.1118ZM74.142 8.10407C80.1913 8.10407 83.4806 12.4758 83.4806 18.0058C83.4806 18.6037 83.3672 19.9114 83.3672 19.9114H68.811C69.2269 23.6106 71.9491 25.5162 75.125 25.5162C78.5277 25.5162 81.0609 23.1996 81.0609 23.1996L83.2537 26.7866C83.2537 26.7866 80.0401 29.9253 74.7847 29.9253C67.7902 29.9253 63.4423 24.9557 63.4423 19.0147C63.4423 12.5879 67.828 8.10407 74.142 8.10407ZM48.6971 13.8957C48.6971 13.2978 48.3568 12.9989 47.7897 12.9989H46.1261V8.58981H50.9277C52.7803 8.58981 53.7256 9.37448 53.7256 11.1306V12.3637C53.7256 13.1484 53.6499 13.6715 53.6499 13.6715H53.7256C54.6708 10.6823 57.2039 8.32826 60.4176 8.32826C60.8713 8.32826 61.3628 8.40299 61.3628 8.40299V13.4846C61.3628 13.4846 60.8335 13.4099 60.0773 13.4099C57.8466 13.4099 55.2757 14.6803 54.3305 17.7816C54.028 18.7905 53.8768 19.9488 53.8768 21.1818V29.4395H48.6593V13.8957H48.6971ZM8.43134 25.8898C11.2292 25.8898 13.233 22.938 13.233 20.3972V19.9114H12.3256C9.6034 19.9114 5.25546 20.2851 5.25546 23.1622C5.25546 24.5821 6.27628 25.8898 8.43134 25.8898ZM12.5146 16.3617H13.1952V16.2123C13.1952 13.2231 11.9853 12.1395 9.30093 12.1395C8.35573 12.1395 6.50313 12.4011 6.50313 13.522V14.643H1.58806V12.4384C1.58806 8.55245 7.14587 8.14143 9.33874 8.14143C16.3711 8.14143 18.4505 11.7658 18.4505 16.4365V24.2084C18.4505 24.7689 18.7908 25.1052 19.3579 25.1052H21.0215V29.4769H16.2954C14.3672 29.4769 13.6111 28.4307 13.6111 27.1976C13.6111 26.6745 13.6489 26.3008 13.6489 26.3008H13.5733C13.5733 26.3008 11.9475 30 7.18367 30C3.40285 30 0.000117305 27.6834 0.000117305 23.4985C-0.0376909 16.8849 9.07408 16.3617 12.5146 16.3617ZM113.727 0.107943C115.353 -0.303073 116.941 0.481595 117.395 2.08829C117.848 3.69499 116.865 5.15223 115.239 5.60061C113.614 6.01162 112.026 5.22696 111.61 3.62026C111.118 2.01356 112.101 0.556324 113.727 0.107943Z" fill="white"/>
</svg>
