<svg width="56" height="56" viewBox="0 0 56 56" fill="none" xmlns="http://www.w3.org/2000/svg">
<circle opacity="0.25" cx="28" cy="28" r="28" fill="#FFBF00"/>
<circle opacity="0.25" cx="28" cy="28" r="23" fill="#FFBF00"/>
<circle cx="28" cy="28" r="18" fill="#FFBF00"/>
<path fill-rule="evenodd" clip-rule="evenodd" d="M34.0174 21.1132C34.7185 20.8467 35.4632 20.7544 36.1081 20.8982C37.0618 21.1098 37.7094 21.7709 37.9316 22.7581C38.2216 24.047 37.5832 25.5246 36.1341 26.9197C34.9923 28.0185 33.4603 28.9326 31.8428 29.4972C31.1728 30.4503 30.3145 31.2181 29.2259 31.6849C29.3845 32.2697 29.9414 33.9635 31.2879 35H27.9999H24.7121C26.0583 33.9635 26.6155 32.2697 26.7741 31.6849C25.6855 31.2181 24.8275 30.4503 24.1572 29.4974C22.5395 28.9326 21.0077 28.0185 19.8659 26.9197C18.4168 25.5248 17.7784 24.047 18.0684 22.7581C18.2904 21.7709 18.9379 21.1098 19.8917 20.8982C20.5368 20.7544 21.2813 20.8467 21.9824 21.1132C21.9761 20.7311 21.9781 20.3579 21.9888 20H27.9999H34.011C34.0216 20.3579 34.0234 20.7311 34.0174 21.1132ZM19.431 23.0701C19.2593 23.8334 19.7826 24.8912 20.8306 25.9006C21.4688 26.5151 22.2515 27.0611 23.1037 27.508C22.5115 26.0109 22.195 24.3236 22.0601 22.7079C21.4664 22.3375 20.7455 22.1506 20.1928 22.2736C19.7742 22.3668 19.5319 22.6196 19.431 23.0701ZM32.8961 27.5082C33.7483 27.0611 34.531 26.5149 35.1692 25.9006C36.2172 24.8915 36.7405 23.8336 36.5687 23.0703C36.4678 22.6199 36.2256 22.3671 35.807 22.2738C35.2543 22.151 34.5334 22.3379 33.9396 22.7082C33.805 24.3238 33.4885 26.0111 32.8961 27.5082ZM24 36H32V38H24V36Z" fill="#08112B"/>
</svg>
