<svg width="134" height="120" viewBox="0 0 134 120" fill="none" xmlns="http://www.w3.org/2000/svg">
<path d="M54 98.3545C50.5052 99.352 46.815 99.886 43 99.886C20.9086 99.886 3 81.9774 3 59.886C3 43.2907 13.1063 29.0557 27.5 23" stroke="#D1D5E0" stroke-width="4" stroke-linecap="round" stroke-linejoin="round"/>
<path d="M50.5002 92.4555L58.1612 97.5747L53.042 105.236" stroke="#D1D5E0" stroke-width="4" stroke-linecap="round" stroke-linejoin="round"/>
<path d="M80.4321 21.8818C83.9269 20.8843 87.6172 20.3503 91.4321 20.3503C113.524 20.3503 131.432 38.2589 131.432 60.3503C131.432 76.9457 121.326 91.1806 106.932 97.2363" stroke="#D1D5E0" stroke-width="4" stroke-linecap="round" stroke-linejoin="round"/>
<path d="M83.9319 27.7808L76.2709 22.6616L81.3901 15.0006" stroke="#D1D5E0" stroke-width="4" stroke-linecap="round" stroke-linejoin="round"/>
<circle cx="43" cy="59.8867" r="30" fill="#4CC3FF"/>
<path d="M57.4807 63.1742L54.6489 61.018C54.6849 60.6855 54.7157 60.2967 54.7157 59.8855C54.7157 59.4742 54.6862 59.0855 54.6489 58.753L57.4832 56.5955C58.0095 56.1905 58.1533 55.4717 57.8183 54.873L54.8736 49.9117C54.5591 49.3517 53.8698 49.0642 53.1702 49.3155L49.8289 50.6217C49.1883 50.1717 48.517 49.7917 47.8225 49.488L47.3142 46.0367C47.2308 45.3817 46.6454 44.8867 45.9535 44.8867H40.0488C39.3569 44.8867 38.7728 45.3817 38.6907 46.0267L38.1811 49.4905C37.5084 49.7855 36.8474 50.1605 36.1786 50.6242L32.8283 49.3142C32.2006 49.078 31.4496 49.343 31.1377 49.9005L28.1892 54.868C27.8413 55.4405 27.9851 56.1842 28.5229 56.5992L31.3546 58.7555C31.3097 59.1767 31.2879 59.543 31.2879 59.8867C31.2879 60.2305 31.3097 60.5967 31.3546 61.0192L28.5204 63.1767C27.9941 63.583 27.8516 64.3017 28.1866 64.8992L31.1313 69.8605C31.4458 70.4192 32.1287 70.7092 32.8347 70.4567L36.176 69.1505C36.8153 69.5992 37.4866 69.9792 38.1811 70.2842L38.6894 73.7342C38.7728 74.3917 39.3569 74.8867 40.0501 74.8867H45.9548C46.6467 74.8867 47.232 74.3917 47.3142 73.7467L47.8238 70.2842C48.4964 69.988 49.1562 69.6142 49.8263 69.1492L53.1766 70.4592C53.3383 70.5205 53.5065 70.5517 53.6798 70.5517C54.1778 70.5517 54.6361 70.2867 54.8672 69.8742L57.8247 64.8867C58.1533 64.3017 58.0095 63.583 57.4807 63.1742ZM43.0012 64.8867C40.1694 64.8867 37.8666 62.6442 37.8666 59.8867C37.8666 57.1292 40.1694 54.8867 43.0012 54.8867C45.8329 54.8867 48.1357 57.1292 48.1357 59.8867C48.1357 62.6442 45.8329 64.8867 43.0012 64.8867Z" fill="white"/>
<circle cx="93" cy="59.8867" r="30" fill="#4CC3FF"/>
<path d="M103.897 69.9723L102.523 66.6891C102.72 66.4191 102.941 66.0978 103.147 65.7417C103.352 65.3855 103.521 65.0341 103.655 64.7275L107.188 64.2762C107.847 64.1886 108.331 63.6381 108.34 62.952L108.27 57.1831C108.278 56.5409 107.825 55.9472 107.093 55.815L103.546 55.2756C103.217 54.5656 102.825 53.9009 102.376 53.2906L103.661 50.0476C103.916 49.4386 103.657 48.7172 103.058 48.3713L97.9442 45.4189C97.345 45.073 96.5917 45.2096 96.198 45.7271L94.0248 48.472C93.2948 48.3912 92.5348 48.3854 91.7237 48.4526L89.4773 45.643C89.0518 45.1245 88.269 44.9786 87.7201 45.3054L82.6828 48.1331C82.0953 48.455 81.8479 49.171 82.1062 49.7993L83.4804 53.0825C83.2309 53.4249 83.0289 53.7312 82.857 54.0289C82.6851 54.3266 82.5209 54.6546 82.3486 55.043L78.8153 55.4943C78.1563 55.583 77.6736 56.1342 77.665 56.8192L77.7345 62.5881C77.7275 63.2292 78.1739 63.8218 78.9116 63.9561L82.4584 64.4956C82.7876 65.2038 83.179 65.8686 83.6279 66.4799L82.3431 69.7219C82.0867 70.333 82.345 71.0537 82.9453 71.4003L88.0589 74.3527C88.6581 74.6986 89.4126 74.5626 89.8062 74.0451L91.9788 71.3013C92.7094 71.3811 93.4677 71.3873 94.2805 71.3196L96.5269 74.1293C96.6364 74.2632 96.7664 74.3743 96.9165 74.461C97.3478 74.71 97.8772 74.7096 98.2835 74.4679L103.339 71.6274C103.916 71.2851 104.151 70.5907 103.897 69.9723ZM90.501 64.2156C88.0486 62.7998 87.1756 59.7063 88.5543 57.3182C89.9331 54.9301 93.0486 54.1395 95.501 55.5554C97.9533 56.9712 98.8264 60.0647 97.4477 62.4528C96.0689 64.8408 92.9533 65.6315 90.501 64.2156Z" fill="white"/>
<path d="M68 76.4748C71.1592 71.7233 73 66.0195 73 59.8858C73 53.7522 71.1592 48.0484 68 43.2969C64.8408 48.0484 63 53.7522 63 59.8858C63 66.0195 64.8408 71.7233 68 76.4748Z" fill="#000D1A"/>
</svg>
