<svg width="139" height="30" viewBox="0 0 139 30" fill="none" xmlns="http://www.w3.org/2000/svg">
<circle cx="26.5009" cy="15.0005" r="9.5" fill="#4081CB"/>
<path d="M15.7969 3.24569V7.53123L18.4057 5.94447C23.3919 2.91173 29.6322 2.91173 34.6184 5.94447L34.9297 6.1338V6.1365L35 6.17556V1.98025L34.9311 1.9458C29.085 -0.907761 22.1572 -0.622829 16.5274 2.80137L15.7969 3.24569Z" fill="#4081CB"/>
<path d="M37.2182 26.7543V22.4688L34.6094 24.0555C29.6232 27.0883 23.3829 27.0883 18.3967 24.0555L18.084 23.8653V23.8633L18 23.8203V28.0156L18.084 28.0547C23.9301 30.9082 30.8579 30.6228 36.4877 27.1986L37.2182 26.7543Z" fill="#4081CB"/>
<path d="M15.7857 7.53114V3.24561L0 12.8469V17.1538L15.7857 26.7551V22.4696L3.50541 15.0004L15.7857 7.53114Z" fill="#444444"/>
<path d="M37.2161 26.7551L53.0018 17.1538V12.8469L37.2161 3.24561V7.53114L49.4964 15.0004L37.2161 22.4696V26.7551Z" fill="#444444"/>
<path d="M100.747 18.0787C100.747 20.6617 98.5233 22.8694 93.9385 22.8694C91.3939 22.8694 88.8264 22.1408 87.4051 21.0812L88.6659 18.3878C90.0184 19.3371 92.0358 19.9994 93.9614 19.9994C96.1621 19.9994 97.0562 19.2929 97.0562 18.3436C97.0562 17.143 95.4482 16.7832 93.5673 16.3624C90.9175 15.7696 87.726 15.0556 87.726 11.6985C87.726 9.07135 89.9268 6.88574 94.4887 6.88574C96.506 6.88574 98.5692 7.34936 100.059 8.25451L98.913 10.97C97.423 10.1531 95.887 9.75573 94.4657 9.75573C92.265 9.75573 91.4168 10.5505 91.4168 11.5219C91.4168 12.7029 93.0213 13.0562 94.8995 13.4699C97.5505 14.0538 100.747 14.7578 100.747 18.0787Z" fill="#444444"/>
<path d="M76.8946 18.1894L81.8462 7.15101H85.537L78.591 22.6048H74.9231L68 7.15101H72.0117L76.8946 18.1894Z" fill="#444444"/>
<path d="M134.333 16.5338V7.1511H138.001V22.6049H134.952L126.952 13.2222V22.6049H123.284V7.1511H126.356L134.333 16.5338Z" fill="#444444"/>
<path d="M115.384 7.1511V13.2443H108.094V7.1511H104.38V22.6049H108.094V16.2688H115.384V22.6049H119.098V7.1511H115.384Z" fill="#444444"/>
</svg>
