<svg width="139" height="30" viewBox="0 0 139 30" fill="none" xmlns="http://www.w3.org/2000/svg">
<circle cx="26.501" cy="15.001" r="9.5" fill="#4CC3FF"/>
<path opacity="0.25" fill-rule="evenodd" clip-rule="evenodd" d="M33.9167 20.9379C35.2202 19.3116 35.9999 17.2473 35.9999 15.001C35.9999 9.75427 31.7466 5.50098 26.4999 5.50098C24.0181 5.50098 21.7586 6.4526 20.0664 8.01086C27.2891 8.28836 33.1574 13.8489 33.9167 20.9379Z" fill="#000D1A"/>
<path fill-rule="evenodd" clip-rule="evenodd" d="M15.7969 3.24591V7.53145L18.4057 5.94469C23.3919 2.91195 29.6322 2.91195 34.6184 5.94469L34.9297 6.13402V6.13672L35 6.17578V1.98047L34.9311 1.94602V1.94564C29.085 -0.907927 22.1572 -0.622612 16.5274 2.80159L15.7969 3.24591Z" fill="#4CC3FF"/>
<path fill-rule="evenodd" clip-rule="evenodd" d="M37.2182 26.7543V22.4688L34.6094 24.0555C29.6232 27.0883 23.3829 27.0883 18.3967 24.0555L18.084 23.8653V23.8633L18 23.8203V28.0156L18.084 28.0547V28.0546C23.9301 30.9081 30.8579 30.6228 36.4877 27.1986L37.2182 26.7543Z" fill="#4CC3FF"/>
<path d="M15.7857 7.53163V3.2461L0 12.8474V17.1543L15.7857 26.7556V22.4701L3.50541 15.0009L15.7857 7.53163Z" fill="#000D1A"/>
<path d="M37.2161 26.7556L53.0018 17.1543V12.8474L37.2161 3.24609V7.53163L49.4964 15.0009L37.2161 22.4701V26.7556Z" fill="#000D1A"/>
<path fill-rule="evenodd" clip-rule="evenodd" d="M100.747 18.2044C100.747 20.7901 98.5233 23 93.9385 23C91.3939 23 88.8264 22.2707 87.4051 21.2099L88.6659 18.5138C90.0184 19.4641 92.0358 20.1271 93.9614 20.1271C96.1621 20.1271 97.0562 19.4199 97.0562 18.4696C97.0562 17.2678 95.4482 16.9076 93.5673 16.4864C90.9175 15.8929 87.726 15.1782 87.726 11.8177C87.726 9.18784 89.9267 7 94.4887 7C96.506 7 98.5692 7.46409 100.059 8.37016L98.913 11.0884C97.423 10.2707 95.887 9.87293 94.4657 9.87293C92.265 9.87293 91.4168 10.6685 91.4168 11.6409C91.4168 12.8231 93.0213 13.1768 94.8995 13.5909C97.5505 14.1754 100.747 14.8801 100.747 18.2044ZM76.8946 18.3153L81.8462 7.26553H85.537L78.591 22.7351H74.9231L68 7.26553H72.0117L76.8946 18.3153ZM134.333 16.6579V7.26562H138.001V22.7352H134.952L126.952 13.343V22.7352H123.284V7.26562H126.356L134.333 16.6579ZM115.384 7.26562V13.3651H108.094V7.26562H104.38V22.7352H108.094V16.3927H115.384V22.7352H119.098V7.26562H115.384Z" fill="#000D1A"/>
</svg>
