<svg width="124" height="30" viewBox="0 0 124 30" fill="none" xmlns="http://www.w3.org/2000/svg">
<circle cx="26.731" cy="15" r="9.5" fill="#4081CB"/>
<path d="M16.0269 3.24569V7.53123L18.6357 5.94447C23.6219 2.91173 29.8622 2.91173 34.8484 5.94447L35.1597 6.1338V6.1365L35.23 6.17556V1.98025L35.1611 1.9458C29.315 -0.907761 22.3872 -0.622829 16.7574 2.80137L16.0269 3.24569Z" fill="#4081CB"/>
<path d="M37.4482 26.7543V22.4688L34.8394 24.0555C29.8532 27.0883 23.6129 27.0883 18.6267 24.0555L18.314 23.8653V23.8633L18.23 23.8203V28.0156L18.314 28.0547C24.1601 30.9082 31.0879 30.6228 36.7177 27.1986L37.4482 26.7543Z" fill="#4081CB"/>
<path d="M16.0157 7.53163V3.2461L0.22998 12.8474V17.1543L16.0157 26.7556V22.4701L3.73539 15.0009L16.0157 7.53163Z" fill="#444444"/>
<path d="M37.446 26.7556L53.2318 17.1543V12.8474L37.446 3.24609V7.53163L49.7264 15.0009L37.446 22.4701V26.7556Z" fill="#444444"/>
<path d="M84.1754 20.5509C83.817 20.6405 83.3689 20.6903 82.8213 20.6903C81.726 20.6903 80.8001 20.5807 80.0533 20.3617C79.2966 20.1426 78.6693 19.8838 78.1515 19.605L77.0563 22.6916C77.2853 22.821 77.574 22.9604 77.9126 23.1098C78.2511 23.2492 78.6494 23.3886 79.1273 23.528C79.6052 23.6674 80.1429 23.7769 80.7602 23.8665C81.3776 23.9561 82.0646 24.0059 82.8313 24.0059C85.1014 24.0059 86.804 23.5579 87.9292 22.6717C89.0543 21.7855 89.6218 20.5409 89.6218 18.9279C89.6218 18.1015 89.5223 17.3946 89.3032 16.8171C89.0842 16.2396 88.7556 15.7318 88.3175 15.3036C87.8794 14.8655 87.3318 14.4872 86.6646 14.1685C85.9975 13.84 85.2209 13.5114 84.3248 13.1828C83.8867 13.0334 83.4984 12.8841 83.1399 12.7447C82.7815 12.5953 82.4728 12.446 82.194 12.2668C81.9152 12.0875 81.7061 11.8984 81.5568 11.6793C81.4174 11.4603 81.3377 11.2014 81.3377 10.8828C81.3377 10.3451 81.5369 9.95678 81.9451 9.6979C82.3533 9.43902 83.0204 9.30958 83.9464 9.30958C84.7828 9.30958 85.4897 9.40915 86.0772 9.59833C86.6646 9.78751 87.2023 10.0066 87.6802 10.2555L88.7954 7.19873C88.2478 6.90002 87.5408 6.64114 86.7045 6.38227C85.8681 6.12339 84.8625 6.00391 83.6975 6.00391C82.7217 6.00391 81.8356 6.12339 81.0589 6.36235C80.2823 6.60132 79.6251 6.94981 79.0676 7.39787C78.51 7.84593 78.0918 8.39355 77.7931 9.03079C77.4944 9.66803 77.345 10.3849 77.345 11.1815C77.345 11.978 77.4844 12.6551 77.7632 13.2127C78.042 13.7603 78.4104 14.2382 78.8585 14.6265C79.2966 15.0248 79.8044 15.3434 80.3719 15.6023C80.9395 15.8612 81.497 16.0902 82.0646 16.2893C83.359 16.7175 84.275 17.1158 84.8027 17.4941C85.3304 17.8625 85.5993 18.3305 85.5993 18.898C85.5993 19.1569 85.5594 19.3959 85.4798 19.6149C85.4001 19.824 85.2508 20.0132 85.0317 20.1725C84.8226 20.3318 84.5339 20.4613 84.1754 20.5509Z" fill="#444444"/>
<path d="M64.5206 19.1369C65.1877 20.6901 65.8647 22.1936 66.5518 23.6473V23.6374H70.2458C70.9328 22.1936 71.5999 20.7001 72.267 19.1369C72.9341 17.5736 73.5614 16.0303 74.1588 14.5069C74.7562 12.9736 75.3038 11.5199 75.8116 10.1259C76.3194 8.74191 76.7575 7.4973 77.1459 6.39209H73.0138C72.6951 7.39773 72.3367 8.47307 71.9384 9.62807C71.5501 10.7831 71.1419 11.9281 70.7336 13.0731C70.3254 14.2182 69.9271 15.3134 69.5388 16.3589C69.1505 17.4044 68.802 18.3105 68.4734 19.0672C68.1349 18.3005 67.7665 17.3944 67.3981 16.3489C67.1764 15.7199 66.944 15.0729 66.705 14.4078L66.7038 14.4046C66.546 13.9653 66.3854 13.5182 66.2232 13.0632C65.815 11.9181 65.4167 10.7731 65.0184 9.61811C64.6201 8.46312 64.2617 7.38778 63.9431 6.39209H59.6616C60.03 7.48734 60.4681 8.73195 60.966 10.1259C61.4638 11.5199 62.0214 12.9835 62.6188 14.5069C63.2162 16.0403 63.8535 17.5836 64.5206 19.1369Z" fill="#444444"/>
<path d="M101.769 6.40234H105.652V23.6476H101.769V16.3293H95.2474V23.6476H91.3643V6.40234H95.2474V12.9938H101.769V6.40234Z" fill="#444444"/>
<path d="M116.356 17.793C117.65 19.7246 118.845 21.6762 119.96 23.6476H123.226V6.40234H119.363V16.5683C118.766 15.6722 118.128 14.7462 117.451 13.7704C116.774 12.8046 116.087 11.8687 115.4 10.9626C114.713 10.0565 114.036 9.21018 113.369 8.41363C112.712 7.61708 112.104 6.94997 111.557 6.40234H108.391V23.6476H112.224V12.3366C113.688 14.0492 115.062 15.8713 116.356 17.793Z" fill="#444444"/>
</svg>
