<svg width="1272" height="302" viewBox="0 0 1272 302" fill="none" xmlns="http://www.w3.org/2000/svg">
<g clip-path="url(#clip0)">
<path d="M164.16 264.17L0 169.29V128.63L163.16 33.2402L162.55 75.4902L34.64 149.71L164.34 222.5L164.16 264.17Z" fill="#444444"/>
<path d="M365.87 28V66.41C365.87 66.41 325.08 36.41 275.69 36.41C222.26 36.36 162.55 75.47 162.55 75.47V33.31C203.85 11.22 240.49 0 276.14 0C319.69 0 365.87 28 365.87 28Z" fill="#4081CB"/>
<path d="M277.03 247.57C290.103 247.57 303.048 244.995 315.126 239.992C327.204 234.99 338.178 227.657 347.422 218.413C356.667 209.169 363.999 198.194 369.002 186.116C374.005 174.038 376.58 161.093 376.58 148.02C376.58 134.947 374.005 122.002 369.002 109.924C363.999 97.8461 356.667 86.8718 347.422 77.6277C338.178 68.3837 327.204 61.0509 315.126 56.048C303.048 51.0451 290.103 48.4702 277.03 48.4702C221.91 48.4702 177.22 93.0402 177.22 148.01C177.236 161.101 179.83 174.061 184.855 186.149C189.879 198.238 197.236 209.218 206.504 218.463C215.772 227.708 226.771 235.037 238.872 240.031C250.973 245.026 263.939 247.587 277.03 247.57Z" fill="#4081CB"/>
<path d="M389.91 36.8198L554.07 131.7V172.36L390.91 267.75L391.51 225.5L519.43 151.28L389.73 78.4898L389.91 36.8198Z" fill="#444444"/>
<path d="M188.13 273.27V234.86C188.13 234.86 228.93 264.91 278.32 264.91C331.75 264.91 391.45 225.78 391.45 225.78V267.96C350.16 290.05 313.51 301.27 277.87 301.27C234.32 301.27 188.13 273.27 188.13 273.27Z" fill="#4081CB"/>
<path d="M623.19 72.1099H667.51L706.89 186.18L746.49 72.1099H788.79L727.14 229.84H684.39L623.19 72.1099Z" fill="#444444"/>
<path d="M885.42 107.47C875.9 104.323 867.9 102.747 861.42 102.74C856.32 102.74 852.32 103.677 849.42 105.55C848.022 106.404 846.879 107.617 846.109 109.063C845.338 110.508 844.969 112.134 845.04 113.77C845.009 115.405 845.334 117.026 845.994 118.522C846.654 120.017 847.632 121.351 848.86 122.43C851.627 124.884 854.833 126.791 858.31 128.05C862.063 129.477 867.613 131.317 874.96 133.57C884.196 136.116 893.253 139.273 902.07 143.02C909.294 146.23 915.599 151.198 920.41 157.47C925.51 163.99 928.06 172.503 928.06 183.01C928.06 193.517 925.287 202.477 919.74 209.89C914.187 217.323 906.573 222.91 896.9 226.65C886.58 230.516 875.63 232.425 864.61 232.28C851.314 232.228 838.125 229.909 825.61 225.42C813.356 221.243 801.961 214.876 791.98 206.63L807.98 174.46C816.358 181.773 825.904 187.628 836.22 191.78C847.087 196.28 856.723 198.53 865.13 198.53C871.277 198.53 876.113 197.403 879.64 195.15C881.328 194.128 882.709 192.67 883.64 190.93C884.571 189.19 885.016 187.232 884.93 185.26C884.968 183.564 884.635 181.879 883.954 180.325C883.274 178.77 882.262 177.383 880.99 176.26C878.108 173.703 874.741 171.751 871.09 170.52C867.09 169.087 861.503 167.4 854.33 165.46C845.208 163.037 836.264 159.99 827.56 156.34C820.464 153.229 814.242 148.421 809.44 142.34C804.42 136.12 801.91 127.833 801.91 117.48C801.725 108.325 804.442 99.3471 809.67 91.8301C814.837 84.4967 822.17 78.8301 831.67 74.8301C841.17 70.8301 852.233 68.8301 864.86 68.8301C876.283 68.833 887.647 70.4627 898.61 73.6701C908.932 76.554 918.783 80.9122 927.86 86.6101L912.33 119.46C903.813 114.516 894.792 110.497 885.42 107.47Z" fill="#444444"/>
<path d="M949.03 72.1099H990.2V136.47H1053.88V72.1099H1095.03V229.84H1053.86V169.31H990.18V229.84H949.03V72.1099Z" fill="#444444"/>
<path d="M1233.38 72.1099H1271.63V229.84H1235.63L1164.08 135.56V229.84H1125.61V72.1099H1161.83L1233.61 167.11L1233.38 72.1099Z" fill="#444444"/>
</g>
<defs>
<clipPath id="clip0">
<rect width="1271.63" height="301.28" fill="white"/>
</clipPath>
</defs>
</svg>
