<svg width="111" height="30" viewBox="0 0 111 30" fill="none" xmlns="http://www.w3.org/2000/svg">
<path d="M27.5712 7.92893C23.666 4.02369 17.3343 4.02369 13.4291 7.92893L9.89355 4.3934C15.7514 -1.46447 25.2489 -1.46447 31.1068 4.3934L27.5712 7.92893Z" fill="#4CC3FF"/>
<path d="M31.1068 25.6066L27.5712 22.0711C23.666 25.9763 17.3343 25.9763 13.4291 22.0711L9.89355 25.6066C15.7514 31.4645 25.2489 31.4645 31.1068 25.6066Z" fill="#4CC3FF"/>
<path d="M24.0355 11.4645C25.9882 13.4171 25.9882 16.5829 24.0355 18.5355C22.0829 20.4882 18.9171 20.4882 16.9645 18.5355C15.0118 16.5829 15.0118 13.4171 16.9645 11.4645C18.9171 9.51184 22.0829 9.51184 24.0355 11.4645Z" fill="#4CC3FF"/>
<path d="M9.89333 4.39336L1.0545 13.2322C0.0781882 14.2085 0.0781878 15.7914 1.0545 16.7677L9.89333 25.6066C10.8696 26.5829 12.4526 26.5829 13.4289 25.6066C13.4296 25.6058 13.4303 25.6051 13.4311 25.6044L15.4194 23.616C14.7095 23.1968 14.0403 22.6822 13.4303 22.0724C13.4298 22.072 13.4293 22.0715 13.4289 22.071L13.4247 22.0669L6.3578 15L13.425 7.93272L13.4289 7.9289L13.4308 7.92692C14.0407 7.31738 14.7097 6.80304 15.4194 6.3839L13.4289 4.39337C12.4526 3.41706 10.8696 3.41706 9.89333 4.39336Z" fill="#08112B"/>
<path d="M27.5667 7.92495C26.9573 7.31627 26.289 6.80258 25.5801 6.3839L27.5706 4.39336C28.5469 3.41705 30.1298 3.41706 31.1061 4.39337L39.945 13.2322C40.9213 14.2085 40.9213 15.7914 39.945 16.7677L31.1062 25.6066C30.1298 26.5829 28.5469 26.5829 27.5706 25.6066L25.5801 23.616C26.2892 23.1972 26.9577 22.6834 27.5672 22.0744L34.6417 15L27.5728 7.93111L27.5706 7.92889C27.5693 7.92758 27.568 7.92626 27.5667 7.92495Z" fill="#08112B"/>
<path d="M62.8681 8.23242L58.6239 17.9009L54.4386 8.23242H51L56.9341 21.7683H60.0779L66.0316 8.23242H62.8681Z" fill="#08112B"/>
<path d="M107.856 8.23242V16.4507L101.018 8.23242H98.3848V21.7683H101.529V13.5501L108.386 21.7683H111V8.23242H107.856Z" fill="#08112B"/>
<path d="M91.6152 8.23242V13.5694H85.3668V8.23242H82.1836V21.7683H85.3668V16.2186H91.6152V21.7683H94.7984V8.23242H91.6152Z" fill="#08112B"/>
<path d="M73.2338 22C77.1636 22 79.0696 20.0663 79.0696 17.8039C79.0696 12.8343 71.0724 14.5552 71.0724 12.0608C71.0724 11.2099 71.7994 10.5138 73.6857 10.5138C74.904 10.5138 76.2205 10.8619 77.4977 11.5773L78.4801 9.19889C77.2029 8.40608 75.4345 8 73.7054 8C69.7952 8 67.9089 9.91436 67.9089 12.2155C67.9089 17.2431 75.9061 15.5028 75.9061 18.0359C75.9061 18.8674 75.1398 19.4862 73.2535 19.4862C71.6029 19.4862 69.8738 18.9061 68.7145 18.0746L67.6338 20.4337C68.852 21.3619 71.0527 22 73.2338 22Z" fill="#08112B"/>
</svg>
