<svg width="20" height="20" viewBox="0 0 20 20" fill="none" xmlns="http://www.w3.org/2000/svg">
<path d="M13.75 0C12.125 0 10.5 0.625 9.375 1.875L7.875 3.25C7.375 3.75 7.375 4.5 7.875 5C8.375 5.5 9.125 5.5 9.625 5L11.125 3.5C12.5 2.125 15 2.125 16.375 3.5C17.125 4.25 17.5 5.25 17.5 6.25C17.5 7.25 17.125 8.25 16.375 8.875L15 10.375C14.5 10.875 14.5 11.625 15 12.125C15.25 12.375 15.625 12.5 15.875 12.5C16.125 12.5 16.5 12.375 16.75 12.125L18.25 10.625C19.375 9.5 20 7.875 20 6.25C20 4.625 19.375 3 18.125 1.875C17 0.625 15.375 0 13.75 0Z" fill="#000D1A"/>
<path d="M10.375 15L8.875 16.5C7.5 17.875 5 17.875 3.625 16.5C2.875 15.75 2.5 14.75 2.5 13.75C2.5 12.75 2.875 11.75 3.625 11.125L5 9.625C5.5 9.125 5.5 8.375 5 7.875C4.5 7.375 3.75 7.375 3.25 7.875L1.875 9.375C0.625 10.5 0 12.125 0 13.75C0 15.375 0.625 17 1.875 18.125C3 19.375 4.625 20 6.25 20C7.875 20 9.5 19.375 10.625 18.125L12.125 16.625C12.625 16.125 12.625 15.375 12.125 14.875C11.625 14.375 10.875 14.5 10.375 15Z" fill="#000D1A"/>
<path d="M11.75 6.5L6.5 11.75C6 12.25 6 13 6.5 13.5C6.75 13.75 7.125 13.875 7.375 13.875C7.625 13.875 8 13.75 8.25 13.5L13.5 8.25C14 7.75 14 7 13.5 6.5C13 6 12.25 6 11.75 6.5Z" fill="#000D1A"/>
</svg>
