<svg width="1788" height="236" viewBox="0 0 1788 236" fill="none" xmlns="http://www.w3.org/2000/svg">
<path d="M207.72 115.308H157.997V164.985H207.72V115.308Z" fill="#4CC3FF"/>
<path d="M187.152 127.135V153.158C187.099 154.26 186.623 155.299 185.824 156.061C185.024 156.822 183.962 157.246 182.858 157.246C181.753 157.246 180.691 156.822 179.892 156.061C179.092 155.299 178.617 154.26 178.563 153.158V127.135C178.617 126.033 179.092 124.994 179.892 124.233C180.691 123.472 181.753 123.047 182.858 123.047C183.962 123.047 185.024 123.472 185.824 124.233C186.623 124.994 187.099 126.033 187.152 127.135Z" fill="#08112B"/>
<path d="M157.987 115.308H133.49V164.985H157.987V115.308Z" fill="white"/>
<path d="M121.672 66.1299H73.7891V113.969H121.672V66.1299Z" fill="#4CC3FF"/>
<path d="M101.866 77.5278V102.581C101.813 103.642 101.355 104.641 100.585 105.373C99.8158 106.105 98.7938 106.514 97.7312 106.514C96.6686 106.514 95.6466 106.105 94.877 105.373C94.1074 104.641 93.649 103.642 93.5968 102.581V77.5278C93.5692 76.9682 93.6558 76.409 93.8511 75.8838C94.0464 75.3587 94.3465 74.8787 94.7332 74.473C95.1198 74.0673 95.5849 73.7442 96.1002 73.5235C96.6156 73.3028 97.1705 73.189 97.7312 73.189C98.2919 73.189 98.8468 73.3028 99.3621 73.5235C99.8775 73.7442 100.343 74.0673 100.729 74.473C101.116 74.8787 101.416 75.3587 101.611 75.8838C101.807 76.409 101.893 76.9682 101.866 77.5278Z" fill="#08112B"/>
<path d="M73.789 66.1299H50.1924V113.969H73.789V66.1299Z" fill="white"/>
<path d="M151.138 113.82H99.0654V165.844H151.138V113.82Z" fill="#4CC3FF"/>
<path d="M129.601 126.216V153.458C129.601 154.65 129.127 155.793 128.283 156.636C127.44 157.479 126.295 157.953 125.102 157.953C123.909 157.953 122.764 157.479 121.92 156.636C121.077 155.793 120.603 154.65 120.603 153.458V126.216C120.603 125.024 121.077 123.881 121.92 123.038C122.764 122.195 123.909 121.721 125.102 121.721C126.295 121.721 127.44 122.195 128.283 123.038C129.127 123.881 129.601 125.024 129.601 126.216Z" fill="#08112B"/>
<path d="M99.0655 113.82H73.4092V165.844H99.0655V113.82Z" fill="white"/>
<path d="M91.7964 110.283H36.1045V165.924H91.7964V110.283Z" fill="#4CC3FF"/>
<path d="M68.7602 123.539V152.678C68.7602 153.309 68.6358 153.934 68.3941 154.517C68.1524 155.1 67.7982 155.63 67.3516 156.076C66.905 156.522 66.3748 156.876 65.7913 157.117C65.2078 157.359 64.5825 157.483 63.9509 157.483C63.3193 157.483 62.694 157.359 62.1105 157.117C61.527 156.876 60.9968 156.522 60.5502 156.076C60.1036 155.63 59.7494 155.1 59.5077 154.517C59.266 153.934 59.1416 153.309 59.1416 152.678V123.539C59.1416 122.265 59.6483 121.043 60.5502 120.141C61.4521 119.24 62.6754 118.734 63.9509 118.734C65.2264 118.734 66.4497 119.24 67.3516 120.141C68.2535 121.043 68.7602 122.265 68.7602 123.539Z" fill="#FFBF00"/>
<path d="M36.105 110.283H8.66895V165.924H36.105V110.283Z" fill="white"/>
<path d="M42.3242 216.97L221.007 216.99V164.885L42.3242 164.795V216.97Z" fill="#D3D6DE"/>
<path d="M129.601 133.289V153.457C129.601 154.65 129.127 155.793 128.283 156.636C127.44 157.479 126.295 157.953 125.102 157.953C123.909 157.953 122.764 157.479 121.92 156.636C121.077 155.793 120.603 154.65 120.603 153.457V133.289H129.601Z" fill="#FFBF00"/>
<path d="M187.152 143.318V153.158C187.099 154.26 186.623 155.299 185.824 156.06C185.024 156.821 183.962 157.246 182.858 157.246C181.753 157.246 180.691 156.821 179.892 156.06C179.092 155.299 178.617 154.26 178.563 153.158V143.318H187.152Z" fill="#FFBF00"/>
<path d="M187.152 138.134H178.563V141.19H187.152V138.134Z" fill="#FFBF00"/>
<path d="M42.3238 164.885H0V216.97H42.3238V164.885Z" fill="#F6F7F9"/>
<path d="M64.8308 171.798H55.3722C53.0087 171.798 51.0928 173.712 51.0928 176.074C51.0928 178.435 53.0087 180.349 55.3722 180.349H64.8308C67.1942 180.349 69.1102 178.435 69.1102 176.074C69.1102 173.712 67.1942 171.798 64.8308 171.798Z" fill="#08112B"/>
<path d="M66.8521 178.053C67.9715 176.924 67.9788 175.118 66.8685 174.02C65.7582 172.921 63.9507 172.945 62.8314 174.074C61.7121 175.203 61.7048 177.009 62.8151 178.108C63.9254 179.206 65.7328 179.182 66.8521 178.053Z" fill="#4CC3FF"/>
<path d="M210.478 171.798H201.02C198.656 171.798 196.74 173.712 196.74 176.074C196.74 178.435 198.656 180.349 201.02 180.349H210.478C212.842 180.349 214.758 178.435 214.758 176.074C214.758 173.712 212.842 171.798 210.478 171.798Z" fill="#08112B"/>
<path d="M212.488 178.045C213.607 176.916 213.614 175.11 212.504 174.011C211.394 172.912 209.586 172.936 208.467 174.065C207.348 175.194 207.34 177 208.451 178.099C209.561 179.198 211.369 179.174 212.488 178.045Z" fill="#FFBF00"/>
<path d="M362.035 43.5837H264.619V216.98H362.035V43.5837Z" fill="#D3D6DE"/>
<path d="M362.045 43.5837H390.901V205.922L362.045 216.98V43.5837Z" fill="#F6F7F9"/>
<path d="M345.227 201.486H281.427L307.043 87.9268H345.227V201.486Z" fill="#08112B"/>
<path d="M381.972 172.118C388.262 172.118 393.361 149.313 393.361 121.182C393.361 93.0504 388.262 70.2456 381.972 70.2456C375.683 70.2456 370.584 93.0504 370.584 121.182C370.584 149.313 375.683 172.118 381.972 172.118Z" fill="#08112B"/>
<path d="M681.837 142.959V216.96C681.837 220.157 663.84 222.734 641.523 222.734C619.207 222.734 601.2 220.157 601.2 216.96V179.64C601.183 177.007 600.614 174.407 599.53 172.008C599.173 171.246 598.765 170.508 598.31 169.8C597.732 168.879 597.062 168.019 596.31 167.233C594.788 165.604 592.978 164.27 590.971 163.297C590.004 162.844 589.001 162.473 587.972 162.188C586.375 161.733 584.723 161.504 583.062 161.509H382.793C379.603 161.509 377.023 143.468 377.023 121.222C377.023 98.9751 379.603 80.8743 382.793 80.8743H619.757C628.066 80.864 636.292 82.525 643.944 85.7583C651.597 88.9916 658.52 93.7312 664.3 99.6944C665.12 100.533 665.9 101.393 666.67 102.272C676.489 113.552 681.878 128.009 681.837 142.959Z" fill="white"/>
<path d="M342.148 71.1445H284.506C282.806 71.1445 281.427 72.522 281.427 74.2213V75.0404C281.427 76.7397 282.806 78.1172 284.506 78.1172H342.148C343.849 78.1172 345.227 76.7397 345.227 75.0404V74.2213C345.227 72.522 343.849 71.1445 342.148 71.1445Z" fill="white"/>
<path d="M519.998 156.249H410.998V217.052H519.998V156.249Z" fill="#08112B"/>
<path d="M519.831 216.98L527.24 201.486V125.827L519.831 156.035V216.98Z" fill="#F6F7F9"/>
<path d="M527.241 125.827H421.367L411.078 156.035H519.832L527.241 125.827Z" fill="#D3D6DE"/>
<path d="M521.142 48.998H427.856C424.488 48.998 421.757 51.7262 421.757 55.0916V110.233C421.757 113.599 424.488 116.327 427.856 116.327H521.142C524.511 116.327 527.242 113.599 527.242 110.233V55.0916C527.242 51.7262 524.511 48.998 521.142 48.998Z" fill="#FFBF00"/>
<path d="M421.757 163.976H510.874" stroke="white" stroke-width="3.4" stroke-linecap="round" stroke-linejoin="round"/>
<path d="M512.263 218.299V191.487C512.263 190.162 511.736 188.892 510.798 187.955C509.861 187.019 508.589 186.492 507.263 186.492H482.267C480.941 186.492 479.669 187.019 478.732 187.955C477.794 188.892 477.268 190.162 477.268 191.487V218.299" stroke="#F6F7F9" stroke-width="2.17" stroke-linejoin="round"/>
<path d="M453.752 218.299V191.487C453.752 190.162 453.225 188.892 452.288 187.955C451.35 187.019 450.078 186.492 448.752 186.492H423.756C422.43 186.492 421.159 187.019 420.221 187.955C419.284 188.892 418.757 190.162 418.757 191.487V218.299" stroke="#F6F7F9" stroke-width="2.17" stroke-linejoin="round"/>
<path d="M595.27 121.182C595.27 140.811 593.45 157.463 590.911 163.257C589.944 162.805 588.94 162.434 587.911 162.148C590.221 155.545 591.851 139.702 591.851 121.192C591.851 103.281 590.321 87.8672 588.131 80.9045H591.561C593.75 87.8672 595.27 103.291 595.27 121.182Z" fill="#F6F7F9"/>
<path d="M681.837 171.898V175.324C675.388 177.692 659.341 179.37 640.573 179.37C623.116 179.37 607.998 177.922 600.779 175.804L599.529 172.008C606.118 174.335 622.016 176.004 640.593 176.004C659.351 175.934 675.388 174.265 681.837 171.898Z" fill="#F6F7F9"/>
<path d="M666.629 102.292C663.389 108.975 651.501 123.27 636.103 138.693C619.536 155.256 604.188 167.782 598.289 169.78C597.711 168.859 597.041 167.999 596.289 167.213C602.458 164.806 617.496 152.509 633.714 136.246C649.261 120.732 661.2 106.278 664.299 99.6946C665.079 100.554 665.899 101.413 666.629 102.292Z" fill="#F6F7F9"/>
<path d="M1688.72 125.947C1723.54 125.947 1751.76 97.7525 1751.76 62.9733C1751.76 28.1941 1723.54 0 1688.72 0C1653.91 0 1625.69 28.1941 1625.69 62.9733C1625.69 97.7525 1653.91 125.947 1688.72 125.947Z" fill="white"/>
<path d="M1652.07 105.348H1615.92V43.6838L1652.07 41.0366V105.348Z" fill="#F6F7F9"/>
<path d="M1721.13 168.332H1611.99C1598.24 168.332 1587.09 179.468 1587.09 193.205C1587.09 206.943 1598.24 218.079 1611.99 218.079H1721.13C1734.88 218.079 1746.03 206.943 1746.03 193.205C1746.03 179.468 1734.88 168.332 1721.13 168.332Z" fill="#F6F7F9"/>
<path d="M1634.02 181.298V231.125L1629.22 228.828H1629.21L1610.19 219.757L1604.38 216.98L1603.68 216.661L1598.97 214.403L1598.95 214.393L1601.86 211.646L1604.3 209.338L1634.02 181.298Z" fill="#F6F7F9"/>
<path d="M1768.92 182.327L1743.16 181.607L1731.95 181.298L1730.06 173.856L1729.28 170.829L1728.97 169.6L1728.92 169.39L1733.36 170.829L1742.73 173.856L1768.92 182.327Z" fill="#F6F7F9"/>
<path d="M1733.36 170.829H1630.62C1625.24 170.832 1619.95 172.258 1615.29 174.961C1610.63 177.664 1606.77 181.55 1604.1 186.223C1601.43 190.897 1600.04 196.193 1600.07 201.575C1600.11 206.957 1601.57 212.234 1604.31 216.87L1604.38 216.98L1610.19 219.757C1609.64 219.148 1609.11 218.509 1608.61 217.849C1605.05 213.085 1603.11 207.303 1603.1 201.357C1603.1 194.066 1606.01 187.075 1611.17 181.919C1616.33 176.764 1623.32 173.864 1630.62 173.856H1742.74L1733.36 170.829Z" fill="#08112B"/>
<path d="M1754.45 41.0366H1652.06V105.348H1754.45V41.0366Z" fill="#4CC3FF"/>
<path d="M1657.21 178.771L1617.6 170.28V155.595L1657.21 165.295V178.771Z" fill="#08112B"/>
<path d="M1638.5 103.331H1768.27C1770.15 103.331 1771.95 104.076 1773.28 105.402C1774.61 106.728 1775.35 108.527 1775.35 110.403V158.222C1775.35 160.098 1774.61 161.897 1773.28 163.223C1771.95 164.55 1770.15 165.295 1768.27 165.295H1638.5V103.361V103.331Z" fill="#4CC3FF"/>
<path d="M1749.4 165.295H1657.21V178.771H1749.4V165.295Z" fill="#08112B"/>
<path d="M1638.5 165.295L1601.76 160.61C1600.35 160.433 1599.07 159.75 1598.13 158.691C1597.2 157.632 1596.68 156.268 1596.68 154.856V104.529C1596.68 103.974 1596.79 103.424 1597.01 102.915C1597.23 102.406 1597.56 101.949 1597.97 101.573C1598.38 101.197 1598.86 100.91 1599.39 100.731C1599.92 100.552 1600.47 100.485 1601.03 100.534L1638.48 103.361L1638.5 165.295Z" fill="#FFBF00"/>
<path d="M1761.62 181.298H1646C1631.43 181.298 1619.62 193.096 1619.62 207.65C1619.62 222.204 1631.43 234.002 1646 234.002H1761.62C1776.19 234.002 1788 222.204 1788 207.65C1788 193.096 1776.19 181.298 1761.62 181.298Z" fill="#4CC3FF"/>
<path d="M1760.62 187.162H1647.75C1636.45 187.162 1627.29 196.312 1627.29 207.6V207.7C1627.29 218.988 1636.45 228.138 1647.75 228.138H1760.62C1771.92 228.138 1781.08 218.988 1781.08 207.7V207.6C1781.08 196.312 1771.92 187.162 1760.62 187.162Z" fill="#08112B"/>
<path d="M1589.75 192.126L1620.64 204.124" stroke="#08112B" stroke-width="3.03" stroke-linecap="round" stroke-linejoin="round"/>
<path d="M1753.34 99.0051H1638.49V103.331H1769.45L1753.34 99.0051Z" fill="#F6F7F9"/>
<path d="M1600.75 100.494L1615.92 98.4158L1652.07 99.0051L1638.49 103.331L1600.75 100.494Z" fill="#F6F7F9"/>
<path d="M1712.24 66.3496V99.005H1698.06V66.3496C1698.06 64.4712 1698.81 62.6697 1700.14 61.3415C1701.47 60.0133 1703.27 59.2671 1705.15 59.2671C1707.03 59.2671 1708.83 60.0133 1710.16 61.3415C1711.49 62.6697 1712.24 64.4712 1712.24 66.3496Z" fill="#08112B"/>
<path d="M1630.91 111.832V156.694" stroke="#F6F7F9" stroke-width="3.03" stroke-linecap="round" stroke-linejoin="round"/>
<path d="M1623.08 111.832V155.695" stroke="#F6F7F9" stroke-width="3.03" stroke-linecap="round" stroke-linejoin="round"/>
<path d="M1615.27 111.832V154.596" stroke="#F6F7F9" stroke-width="3.03" stroke-linecap="round" stroke-linejoin="round"/>
<path d="M1708.53 113.1H1647.6V124.438H1708.53V113.1Z" fill="#FFBF00"/>
<path d="M1765.11 113.1H1734.06V118.874H1765.11V113.1Z" fill="#08112B"/>
<path d="M1765.11 124.438H1734.06V130.212H1765.11V124.438Z" fill="#08112B"/>
<path d="M1765.11 135.766H1734.06V141.54H1765.11V135.766Z" fill="#08112B"/>
<path d="M1651.34 139.512C1653.41 139.512 1655.09 137.835 1655.09 135.766C1655.09 133.697 1653.41 132.02 1651.34 132.02C1649.27 132.02 1647.59 133.697 1647.59 135.766C1647.59 137.835 1649.27 139.512 1651.34 139.512Z" fill="#FFBF00"/>
<path d="M1704.78 139.512C1706.85 139.512 1708.53 137.835 1708.53 135.766C1708.53 133.697 1706.85 132.02 1704.78 132.02C1702.71 132.02 1701.03 133.697 1701.03 135.766C1701.03 137.835 1702.71 139.512 1704.78 139.512Z" fill="white"/>
<path d="M1691.42 139.512C1693.49 139.512 1695.17 137.835 1695.17 135.766C1695.17 133.697 1693.49 132.02 1691.42 132.02C1689.35 132.02 1687.67 133.697 1687.67 135.766C1687.67 137.835 1689.35 139.512 1691.42 139.512Z" fill="#FFBF00"/>
<path d="M1678.07 139.512C1680.14 139.512 1681.82 137.835 1681.82 135.766C1681.82 133.697 1680.14 132.02 1678.07 132.02C1676 132.02 1674.32 133.697 1674.32 135.766C1674.32 137.835 1676 139.512 1678.07 139.512Z" fill="#FFBF00"/>
<path d="M1664.7 139.512C1666.77 139.512 1668.45 137.835 1668.45 135.766C1668.45 133.697 1666.77 132.02 1664.7 132.02C1662.63 132.02 1660.95 133.697 1660.95 135.766C1660.95 137.835 1662.63 139.512 1664.7 139.512Z" fill="white"/>
<path d="M1647.6 157.014H1660.96" stroke="#08112B" stroke-width="3.03" stroke-linecap="round" stroke-linejoin="round"/>
<path d="M1670.35 157.014H1683.72" stroke="#08112B" stroke-width="3.03" stroke-linecap="round" stroke-linejoin="round"/>
<path d="M1693.1 157.014H1706.46" stroke="white" stroke-width="3.03" stroke-linecap="round" stroke-linejoin="round"/>
<path d="M1715.86 157.014H1729.22" stroke="#08112B" stroke-width="3.03" stroke-linecap="round" stroke-linejoin="round"/>
<path d="M1751.76 200.717H1657.21V215.532H1751.76V200.717Z" fill="#4CC3FF"/>
<path d="M1597.09 119.124H1601.67V144.926H1597.09C1595.76 144.926 1594.49 144.4 1593.55 143.464C1592.61 142.527 1592.09 141.256 1592.09 139.932V124.118C1592.09 122.794 1592.61 121.523 1593.55 120.587C1594.49 119.65 1595.76 119.124 1597.09 119.124Z" fill="#EBECF2"/>
<path d="M1761.68 222.304H1647.01V234.182H1761.68V222.304Z" fill="#08112B"/>
<path d="M1647.01 234.002C1661.58 234.002 1673.39 222.204 1673.39 207.65C1673.39 193.096 1661.58 181.298 1647.01 181.298C1632.44 181.298 1620.63 193.096 1620.63 207.65C1620.63 222.204 1632.44 234.002 1647.01 234.002Z" fill="#4CC3FF"/>
<path d="M1647.01 228.138C1658.34 228.138 1667.52 218.966 1667.52 207.65C1667.52 196.335 1658.34 187.162 1647.01 187.162C1635.69 187.162 1626.5 196.335 1626.5 207.65C1626.5 218.966 1635.69 228.138 1647.01 228.138Z" fill="#08112B"/>
<path d="M1664.49 218.349C1662.43 221.703 1659.45 224.394 1655.9 226.101C1654.51 219.238 1650.9 214.353 1646.61 214.353C1642.32 214.353 1638.84 219.068 1637.39 225.741C1634.01 223.949 1631.19 221.242 1629.27 217.929C1636.27 216.561 1641.27 212.935 1641.27 208.609C1641.27 204.114 1635.84 200.328 1628.39 199.109C1630.26 195.026 1633.42 191.671 1637.39 189.559C1638.46 197.421 1642.39 203.235 1647.01 203.235C1651.63 203.235 1655.58 197.411 1656.65 189.549C1660.73 191.711 1663.96 195.185 1665.82 199.409C1658.09 200.518 1652.39 204.404 1652.39 208.989C1652.36 213.324 1657.43 217.01 1664.49 218.349Z" fill="#4CC3FF"/>
<path d="M1761.61 234.002C1776.18 234.002 1787.99 222.204 1787.99 207.65C1787.99 193.096 1776.18 181.298 1761.61 181.298C1747.05 181.298 1735.24 193.096 1735.24 207.65C1735.24 222.204 1747.05 234.002 1761.61 234.002Z" fill="#4CC3FF"/>
<path d="M1761.61 228.138C1772.94 228.138 1782.12 218.966 1782.12 207.65C1782.12 196.335 1772.94 187.162 1761.61 187.162C1750.29 187.162 1741.11 196.335 1741.11 207.65C1741.11 218.966 1750.29 228.138 1761.61 228.138Z" fill="#08112B"/>
<path d="M1779.1 218.349C1777.04 221.701 1774.06 224.391 1770.51 226.101C1769.11 219.238 1765.51 214.353 1761.22 214.353C1756.93 214.353 1753.45 219.068 1751.99 225.741C1748.61 223.952 1745.8 221.244 1743.89 217.929C1750.88 216.561 1755.88 212.935 1755.88 208.609C1755.88 204.114 1750.44 200.328 1743.01 199.109C1744.88 195.025 1748.04 191.67 1752 189.559C1753.07 197.421 1757 203.235 1761.63 203.235C1766.26 203.235 1770.2 197.411 1771.27 189.549C1775.35 191.711 1778.58 195.185 1780.43 199.409C1772.7 200.518 1767.01 204.404 1767.01 208.989C1766.97 213.324 1772.04 217.01 1779.1 218.349Z" fill="#4CC3FF"/>
<path d="M827.986 123.02L851.882 197.321L845.583 198.729L820.807 127.185L827.986 123.02Z" fill="#F6F7F9"/>
<path d="M1048.33 142.399H871.268V145.726H1048.33V142.399Z" fill="white"/>
<path d="M1037.4 182.656H847.492V197.381H1065.41L1037.4 182.656Z" fill="white"/>
<path d="M929.799 145.736H876.387V199.099H929.799V145.736Z" fill="#FFBF00"/>
<path d="M903.104 153.837H903.094C900.548 153.837 898.484 155.899 898.484 158.442V186.392C898.484 188.936 900.548 190.998 903.094 190.998H903.104C905.649 190.998 907.713 188.936 907.713 186.392V158.442C907.713 155.899 905.649 153.837 903.104 153.837Z" fill="#08112B"/>
<path d="M951.366 104.979H910.572V145.736H951.366V104.979Z" fill="#FFBF00"/>
<path d="M930.979 111.162H930.969C929.025 111.162 927.449 112.737 927.449 114.679V136.026C927.449 137.968 929.025 139.542 930.969 139.542H930.979C932.922 139.542 934.498 137.968 934.498 136.026V114.679C934.498 112.737 932.922 111.162 930.979 111.162Z" fill="#08112B"/>
<path d="M988.34 145.736H934.928V199.099H988.34V145.736Z" fill="#4CC3FF"/>
<path d="M961.645 153.837H961.635C959.089 153.837 957.025 155.899 957.025 158.442V186.392C957.025 188.936 959.089 190.998 961.635 190.998H961.645C964.19 190.998 966.254 188.936 966.254 186.392V158.442C966.254 155.899 964.19 153.837 961.645 153.837Z" fill="#08112B"/>
<path d="M1048.33 145.736H994.92V199.099H1048.33V145.736Z" fill="#FFBF00"/>
<path d="M1021.63 153.837H1021.62C1019.07 153.837 1017.01 155.899 1017.01 158.442V186.392C1017.01 188.936 1019.07 190.998 1021.62 190.998H1021.63C1024.17 190.998 1026.23 188.936 1026.23 186.392V158.442C1026.23 155.899 1024.17 153.837 1021.63 153.837Z" fill="#08112B"/>
<path d="M935.619 145.736H929.119V199.099H935.619V145.736Z" fill="white"/>
<path d="M994.91 145.736H988.34V198.38H994.91V145.736Z" fill="white"/>
<path d="M1062.68 197.381H850.223C845.441 197.381 841.564 201.254 841.564 206.032V208.319C841.564 213.097 845.441 216.97 850.223 216.97H1062.68C1067.46 216.97 1071.34 213.097 1071.34 208.319V206.032C1071.34 201.254 1067.46 197.381 1062.68 197.381Z" fill="white"/>
<path d="M1062.08 204.174H852.472C850.638 204.174 849.152 205.658 849.152 207.49V207.5C849.152 209.332 850.638 210.817 852.472 210.817H1062.08C1063.91 210.817 1065.4 209.332 1065.4 207.5V207.49C1065.4 205.658 1063.91 204.174 1062.08 204.174Z" fill="#08112B"/>
<path d="M814.887 127.185H820.806L847.492 204.234H841.563L814.887 127.185Z" fill="white"/>
<path d="M820.806 127.185L827.985 123.02H823.365L814.887 127.185H820.806Z" fill="white"/>
<path d="M876.386 142.399H863.758V197.321H876.386V142.399Z" fill="white"/>
<path d="M910.582 104.979H897.574V145.736H910.582V104.979Z" fill="white"/>
<path d="M741.688 212.934C741.727 213.445 741.659 213.959 741.489 214.443C741.32 214.926 741.052 215.37 740.703 215.745C740.353 216.12 739.93 216.419 739.46 216.623C738.989 216.827 738.481 216.932 737.969 216.93H720.451C720.661 215.492 722.131 214.023 724.451 213.034C728.69 211.236 734.219 210.867 734.279 203.994L741.068 202.456C741.068 202.456 741.398 209.468 741.688 212.934Z" fill="#FFBF00"/>
<path d="M790.571 217.01H781.082C781.022 215.482 782.222 214.573 783.762 214.513C784.459 214.492 785.122 214.212 785.623 213.728C786.125 213.244 786.427 212.591 786.471 211.896C786.643 208.875 787.03 205.87 787.631 202.905L785.912 200.308L791.911 194.314L793.91 196.842C793.91 196.842 797.84 197.741 799.52 201.047L790.571 217.01Z" fill="#FFBF00"/>
<path d="M740.358 122.76L740.568 124.478C740.648 125.048 740.718 125.627 740.828 126.136C741.018 127.185 741.198 128.264 741.438 129.243C741.678 130.222 741.888 131.241 742.148 132.24C742.408 133.239 742.658 134.158 742.928 135.087C744.028 138.823 745.278 142.379 746.607 145.876C747.937 149.372 749.377 152.798 750.927 156.195C751.927 158.422 752.987 160.62 754.136 162.838C754.726 164.006 755.366 165.185 756.026 166.364L756.536 167.363L756.926 167.852C759.126 170.709 761.315 173.436 763.565 176.183C765.935 179.09 768.334 181.957 770.794 184.794C773.254 187.631 775.793 190.438 778.413 193.185L787.022 202.036L793.441 196.322C793.441 196.322 787.541 187.931 786.632 186.562C784.632 183.566 782.762 180.569 780.902 177.452C779.043 174.335 777.253 171.229 775.493 168.062C773.813 165.065 772.134 161.998 770.574 159.012L770.504 158.872L770.574 158.992L770.854 159.511L770.534 158.512C769.624 155.805 768.784 152.938 768.024 150.051C767.184 146.825 766.435 143.548 765.795 140.291C765.155 137.035 764.625 133.768 764.265 130.602C764.155 129.813 764.105 129.033 764.025 128.264C763.945 127.495 763.915 126.746 763.875 125.997C763.835 125.247 763.875 124.568 763.875 123.869C763.852 123.536 763.852 123.203 763.875 122.87V121.941V121.831C764.014 118.952 763.095 116.122 761.29 113.873C759.485 111.624 756.919 110.113 754.076 109.624C753.601 109.535 753.12 109.482 752.637 109.464C749.927 109.34 747.256 110.149 745.072 111.757C742.888 113.364 741.323 115.672 740.638 118.295C740.548 118.644 740.468 118.994 740.408 119.364C740.348 119.733 740.298 120.253 740.268 120.702C740.247 121.389 740.277 122.077 740.358 122.76Z" fill="#D3D6DE"/>
<path d="M757.427 110.583L741.249 205.672L734 204.843C734 204.204 730.641 114.179 730.641 114.179L757.427 110.583Z" fill="#D3D6DE"/>
<path d="M740.028 74.5409C738.368 76.4289 736.688 78.1871 735.028 79.9552C733.369 81.7233 731.619 83.4515 729.879 85.1597C728.139 86.8679 726.35 88.5561 724.51 90.2443C723.59 91.0834 722.65 91.9125 721.65 92.7516C721.15 93.1712 720.65 93.5907 720.041 94.0403C719.751 94.27 719.431 94.4998 719.041 94.7695C718.841 94.9093 718.601 95.0592 718.271 95.249L717.981 95.3988C717.848 95.4697 717.711 95.5331 717.571 95.5886C717.359 95.681 717.142 95.761 716.921 95.8284L716.731 95.8783L716.361 95.9582C716.114 96.0078 715.863 96.0379 715.611 96.0481H715.351C714.747 96.076 714.143 95.9746 713.581 95.7507C713.019 95.5267 712.511 95.1854 712.092 94.7495C711.452 94.0902 711.002 93.5408 710.492 92.9314C709.982 92.3221 709.492 91.7227 709.042 91.1134C708.102 89.8931 707.225 88.6261 706.413 87.3174C705.598 85.9975 704.87 84.626 704.233 83.2117C703.583 81.7738 703.068 80.2791 702.693 78.7465C702.563 78.2 702.615 77.6259 702.843 77.1121C703.071 76.5984 703.461 76.1735 703.953 75.9025C704.446 75.6315 705.014 75.5294 705.57 75.6119C706.126 75.6943 706.64 75.9568 707.032 76.359L707.152 76.4889C708.152 77.4878 709.012 78.4867 709.962 79.4257C710.912 80.3647 711.842 81.3437 712.822 82.2727C713.801 83.2017 714.761 84.1308 715.751 85.0298C716.241 85.4793 716.751 85.9288 717.251 86.3484C717.751 86.768 718.301 87.2275 718.711 87.5371L715.191 86.2585C714.977 86.267 714.763 86.2904 714.551 86.3284L714.241 86.3984H714.111C713.941 86.4483 713.701 86.5482 713.661 86.5582L713.461 86.6481L713.361 86.698C713.291 86.698 713.361 86.698 713.361 86.698L713.781 86.3284C714.131 86.0188 714.521 85.6392 714.911 85.2596C715.691 84.4804 716.491 83.6413 717.301 82.8022C718.921 81.1239 720.52 79.3758 722.12 77.6276L726.92 72.3632L731.609 67.0988C732.615 66.044 733.991 65.4196 735.448 65.3568C736.905 65.294 738.33 65.7976 739.423 66.762C740.517 67.7264 741.194 69.0764 741.312 70.5287C741.43 71.9811 740.981 73.4227 740.058 74.5509L740.028 74.5409Z" fill="#4CC3FF"/>
<path d="M704.814 67.6484C706.132 69.6045 706.93 71.8628 707.134 74.2115L700.895 76.3692L698.445 71.7341L704.814 67.6484Z" fill="#08112B"/>
<path d="M701.764 73.6619C703.851 73.6619 705.543 71.9713 705.543 69.8859C705.543 67.8004 703.851 66.1099 701.764 66.1099C699.676 66.1099 697.984 67.8004 697.984 69.8859C697.984 71.9713 699.676 73.6619 701.764 73.6619Z" fill="#08112B"/>
<path d="M703.834 78.0873C705.679 78.0873 707.174 76.5935 707.174 74.7508C707.174 72.9081 705.679 71.4143 703.834 71.4143C701.99 71.4143 700.494 72.9081 700.494 74.7508C700.494 76.5935 701.99 78.0873 703.834 78.0873Z" fill="#08112B"/>
<path d="M704.924 67.3487C705.576 67.3487 706.104 66.821 706.104 66.17C706.104 65.5189 705.576 64.9912 704.924 64.9912C704.272 64.9912 703.744 65.5189 703.744 66.17C703.744 66.821 704.272 67.3487 704.924 67.3487Z" fill="#08112B"/>
<path d="M706.064 65.7905C706.999 68.1465 707.276 70.7119 706.864 73.2127L703.574 72.0739C703.574 72.0739 704.574 70.4156 703.784 66.4898L706.064 65.7905Z" fill="#08112B"/>
<path d="M700.195 65.1312C701.118 65.1312 701.865 64.3843 701.865 63.4629C701.865 62.5416 701.118 61.7947 700.195 61.7947C699.273 61.7947 698.525 62.5416 698.525 63.4629C698.525 64.3843 699.273 65.1312 700.195 65.1312Z" fill="#08112B"/>
<path d="M701.795 63.9823C702.124 65.1714 702.869 66.2031 703.895 66.8892L697.995 70.3355C697.579 67.7767 697.82 65.1541 698.695 62.7136L701.795 63.9823Z" fill="#08112B"/>
<path d="M703.974 72.8429L697.115 75.3003L696.385 55.1516L703.384 56.2405L703.974 72.8429Z" fill="#D3D6DE"/>
<path d="M761.965 69.4165L760.615 113.1L730.619 114.179L731.349 67.1689L736.958 61.8845L738.548 60.3761L743.847 59.557C746.269 59.1805 748.746 59.4055 751.06 60.2122C753.374 61.0188 755.454 62.3822 757.115 64.1821L761.965 69.4165Z" fill="#4CC3FF"/>
<path d="M750.003 73.8769L734.955 91.0259L762.375 115.042L777.422 97.8931L750.003 73.8769Z" fill="white"/>
<path d="M747.227 105.498C749.188 105.624 751.15 105.249 752.927 104.41L750.717 99.3049H747.377L747.227 105.498Z" fill="#08112B"/>
<path d="M747.558 105.518C749.298 105.518 750.708 104.109 750.708 102.372C750.708 100.634 749.298 99.2249 747.558 99.2249C745.818 99.2249 744.408 100.634 744.408 102.372C744.408 104.109 745.818 105.518 747.558 105.518Z" fill="#08112B"/>
<path d="M751.927 104.599C753.468 104.599 754.717 103.351 754.717 101.812C754.717 100.273 753.468 99.0249 751.927 99.0249C750.386 99.0249 749.137 100.273 749.137 101.812C749.137 103.351 750.386 104.599 751.927 104.599Z" fill="#08112B"/>
<path d="M758.885 64.2621C762.225 67.704 765.291 71.4013 768.054 75.3204C770.814 79.2363 773.143 83.262 775.373 87.0979L775.673 87.6174C776.199 88.5263 776.417 89.5813 776.293 90.6242C776.168 91.667 775.709 92.6414 774.983 93.4012C774.751 93.6432 774.508 93.8733 774.253 94.0905C774.043 94.2803 773.843 94.4302 773.633 94.61C773.223 94.9396 772.823 95.2493 772.413 95.539C771.613 96.1383 770.794 96.6778 769.984 97.1872C768.344 98.1862 766.684 99.1152 764.984 99.9543C763.285 100.793 761.605 101.513 759.895 102.172C758.185 102.831 756.456 103.431 754.726 103.97C754.009 104.24 753.215 104.225 752.508 103.928C751.802 103.632 751.236 103.076 750.926 102.376C750.616 101.675 750.587 100.883 750.844 100.161C751.1 99.4399 751.624 98.844 752.306 98.4958H752.366C753.826 97.6567 755.256 96.7976 756.626 95.8686C757.995 94.9396 759.325 93.9806 760.625 92.9717C761.925 91.9628 763.095 90.8939 764.204 89.7951C764.754 89.2456 765.284 88.6862 765.774 88.1168C766.024 87.8371 766.244 87.5574 766.464 87.2877C766.684 87.018 766.684 87.008 766.764 86.8882C766.844 86.7683 766.984 86.5885 766.924 86.6184L766.534 92.9318C763.875 89.3156 761.315 85.8592 758.535 82.7625C755.784 79.668 752.799 76.7892 749.607 74.1516C748.924 73.5823 748.36 72.8842 747.947 72.0972C747.535 71.3101 747.281 70.4496 747.201 69.5646C747.121 68.6797 747.217 67.7877 747.482 66.9396C747.747 66.0915 748.177 65.3039 748.747 64.6217C749.898 63.2441 751.549 62.3796 753.338 62.2185C754.224 62.1387 755.117 62.234 755.965 62.499C756.814 62.7639 757.603 63.1933 758.285 63.7626C758.475 63.9186 758.655 64.0854 758.825 64.2621H758.885Z" fill="#4CC3FF"/>
<path d="M742.908 61.9243C749.535 61.9243 754.907 56.5574 754.907 49.937C754.907 43.3166 749.535 37.9497 742.908 37.9497C736.282 37.9497 730.91 43.3166 730.91 49.937C730.91 56.5574 736.282 61.9243 742.908 61.9243Z" fill="#08112B"/>
<path d="M754.067 54.3425L749.608 48.229C748.772 47.0853 747.552 46.2809 746.171 45.9635C744.79 45.646 743.341 45.8368 742.089 46.5008C740.49 47.3484 738.765 47.9321 736.98 48.229L731.54 49.148C730.5 49.3312 729.429 49.1421 728.515 48.6141C727.6 48.0861 726.901 47.2529 726.541 46.2611C726.237 45.4096 726.197 44.4865 726.425 43.6118C726.653 42.7371 727.14 41.9512 727.821 41.3563C730.966 38.5787 734.482 36.2521 738.269 34.4436C740.103 33.6282 742.105 33.2626 744.109 33.3773C746.112 33.492 748.06 34.0836 749.788 35.1029L749.898 35.1629C751.618 36.1516 753.084 37.5264 754.181 39.1786C755.277 40.8308 755.974 42.7151 756.217 44.6828L756.877 50.157C756.991 51.0814 756.765 52.0159 756.241 52.786C755.717 53.5562 754.93 54.1095 754.027 54.3425H754.067Z" fill="#FFBF00"/>
<path d="M730.229 49.1378C734.327 49.1378 737.648 45.8192 737.648 41.7256C737.648 37.632 734.327 34.3135 730.229 34.3135C726.132 34.3135 722.811 37.632 722.811 41.7256C722.811 45.8192 726.132 49.1378 730.229 49.1378Z" fill="#FFBF00"/>
<path d="M732.759 34.7634C733.475 35.1783 734.283 35.4093 735.11 35.4354C735.937 35.4616 736.758 35.2821 737.499 34.9132L739.009 34.1541L737.699 38.4395C737.699 38.4395 732.409 39.9179 732.759 34.7634Z" fill="#FFBF00"/>
<path d="M755.536 57.2793C757.927 57.2793 759.866 55.3427 759.866 52.9538C759.866 50.565 757.927 48.6284 755.536 48.6284C753.145 48.6284 751.207 50.565 751.207 52.9538C751.207 55.3427 753.145 57.2793 755.536 57.2793Z" fill="#FFBF00"/>
<path d="M753.107 48.8003C753.231 46.3539 751.999 44.3033 750.355 44.2201C748.711 44.1369 747.278 46.0527 747.154 48.4991C747.03 50.9455 748.262 52.9961 749.906 53.0793C751.55 53.1625 752.983 51.2468 753.107 48.8003Z" fill="#FFBF00"/>
<path d="M751.886 60.5159C751.112 61.7348 750.068 62.76 748.835 63.5127C747.602 64.2653 746.213 64.7255 744.774 64.8576C743.335 64.9898 741.885 64.7905 740.535 64.2751C739.185 63.7597 737.972 62.9418 736.988 61.8845L738.578 60.3761L743.877 59.557C746.585 59.1471 749.352 59.4785 751.886 60.5159Z" fill="#08112B"/>
<path d="M307.043 87.9268H281.427V201.486L307.043 194.814V87.9268Z" fill="#4CC3FF"/>
<path d="M1517.39 155.445H1455.81V216.97H1517.39V155.445Z" fill="#4CC3FF"/>
<path d="M1491.93 170.1V202.316C1491.93 203.725 1491.37 205.077 1490.37 206.074C1489.37 207.07 1488.02 207.63 1486.61 207.63C1485.2 207.63 1483.84 207.07 1482.85 206.074C1481.85 205.077 1481.29 203.725 1481.29 202.316V170.1C1481.29 168.691 1481.85 167.339 1482.85 166.342C1483.84 165.346 1485.2 164.786 1486.61 164.786C1488.02 164.786 1489.37 165.346 1490.37 166.342C1491.37 167.339 1491.93 168.691 1491.93 170.1Z" fill="#08112B"/>
<path d="M1455.82 155.445H1435.6V216.97H1455.82V155.445Z" fill="white"/>
<path d="M1517.4 150.59H1435.6V155.445H1517.4V150.59Z" fill="white"/>
<path d="M1445.74 155.445H1384.16V216.97H1445.74V155.445Z" fill="#4CC3FF"/>
<path d="M1420.27 170.1C1420.27 167.165 1417.88 164.786 1414.95 164.786C1412.01 164.786 1409.63 167.165 1409.63 170.1V202.316C1409.63 205.251 1412.01 207.63 1414.95 207.63C1417.88 207.63 1420.27 205.251 1420.27 202.316V170.1Z" fill="#08112B"/>
<path d="M1384.16 155.445H1363.94V216.97H1384.16V155.445Z" fill="white"/>
<path d="M1445.74 150.59H1363.94V155.445H1445.74V150.59Z" fill="white"/>
<path d="M1374.43 155.445H1312.85V216.97H1374.43V155.445Z" fill="#4CC3FF"/>
<path d="M1348.96 170.1V202.316C1348.96 203.725 1348.4 205.077 1347.4 206.074C1346.4 207.07 1345.05 207.63 1343.64 207.63C1342.23 207.63 1340.87 207.07 1339.88 206.074C1338.88 205.077 1338.32 203.725 1338.32 202.316V170.1C1338.32 169.049 1338.63 168.022 1339.22 167.149C1339.8 166.276 1340.63 165.595 1341.6 165.193C1342.57 164.791 1343.64 164.686 1344.67 164.891C1345.71 165.096 1346.65 165.601 1347.4 166.344C1347.89 166.835 1348.29 167.42 1348.56 168.065C1348.82 168.71 1348.96 169.402 1348.96 170.1Z" fill="#08112B"/>
<path d="M1312.85 155.445H1292.63V216.97H1312.85V155.445Z" fill="white"/>
<path d="M1374.43 150.59H1292.63V155.445H1374.43V150.59Z" fill="white"/>
<path d="M1470.16 96.3779H1414.47V152.019H1470.16V96.3779Z" fill="#4CC3FF"/>
<path d="M1447.12 109.624V138.813C1447.12 140.087 1446.62 141.309 1445.71 142.21C1444.81 143.112 1443.59 143.618 1442.31 143.618C1441.04 143.618 1439.81 143.112 1438.91 142.21C1438.01 141.309 1437.5 140.087 1437.5 138.813V109.624C1437.5 108.349 1438.01 107.127 1438.91 106.226C1439.81 105.325 1441.04 104.819 1442.31 104.819C1443.59 104.819 1444.81 105.325 1445.71 106.226C1446.62 107.127 1447.12 108.349 1447.12 109.624Z" fill="#08112B"/>
<path d="M1414.47 96.3779H1396.19V152.019H1414.47V96.3779Z" fill="white"/>
<path d="M1470.16 91.9927H1396.19V96.378H1470.16V91.9927Z" fill="white"/>
<path d="M1409.17 96.3779H1353.47V152.019H1409.17V96.3779Z" fill="#4CC3FF"/>
<path d="M1386.13 109.624C1386.13 106.97 1383.98 104.819 1381.32 104.819C1378.66 104.819 1376.51 106.97 1376.51 109.624V138.763C1376.51 141.417 1378.66 143.568 1381.32 143.568C1383.98 143.568 1386.13 141.417 1386.13 138.763V109.624Z" fill="#08112B"/>
<path d="M1353.47 96.3779H1335.2V152.019H1353.47V96.3779Z" fill="white"/>
<path d="M1409.17 91.9927H1335.2V96.378H1409.17V91.9927Z" fill="white"/>
<path d="M1348.96 190.998V202.316C1348.96 203.725 1348.4 205.077 1347.4 206.074C1346.4 207.07 1345.05 207.63 1343.64 207.63C1342.23 207.63 1340.87 207.07 1339.88 206.074C1338.88 205.077 1338.32 203.725 1338.32 202.316V190.998H1348.96Z" fill="#FFBF00"/>
<path d="M1491.93 196.991V202.316C1491.93 203.725 1491.37 205.077 1490.37 206.073C1489.37 207.07 1488.02 207.63 1486.61 207.63C1485.2 207.63 1483.84 207.07 1482.85 206.073C1481.85 205.077 1481.29 203.725 1481.29 202.316V196.991H1491.93Z" fill="#FFBF00"/>
<path d="M1491.93 190.089H1481.29V193.795H1491.93V190.089Z" fill="#FFBF00"/>
<path d="M1447.12 111.042V138.813C1447.12 140.087 1446.62 141.31 1445.71 142.211C1444.81 143.112 1443.59 143.618 1442.31 143.618C1441.04 143.618 1439.81 143.112 1438.91 142.211C1438.01 141.31 1437.5 140.087 1437.5 138.813V111.042H1447.12Z" fill="#FFBF00"/>
<path d="M1302.7 161.459H1247.01V217.1H1302.7V161.459Z" fill="#4CC3FF"/>
<path d="M1279.67 174.705V203.844C1279.67 204.475 1279.54 205.1 1279.3 205.683C1279.06 206.266 1278.7 206.795 1278.26 207.242C1277.81 207.688 1277.28 208.042 1276.7 208.283C1276.11 208.525 1275.49 208.649 1274.86 208.649C1274.22 208.649 1273.6 208.525 1273.02 208.283C1272.43 208.042 1271.9 207.688 1271.46 207.242C1271.01 206.795 1270.65 206.266 1270.41 205.683C1270.17 205.1 1270.05 204.475 1270.05 203.844V174.705C1270.05 173.43 1270.55 172.208 1271.46 171.307C1272.36 170.406 1273.58 169.9 1274.86 169.9C1276.13 169.9 1277.35 170.406 1278.26 171.307C1279.16 172.208 1279.67 173.43 1279.67 174.705Z" fill="#08112B"/>
<path d="M1247 161.459H1228.72V217.1H1247V161.459Z" fill="white"/>
<path d="M1302.69 157.073H1228.72V161.459H1302.69V157.073Z" fill="white"/>
<path d="M1279.67 184.015V203.844C1279.67 204.475 1279.54 205.1 1279.3 205.683C1279.06 206.266 1278.7 206.796 1278.26 207.242C1277.81 207.688 1277.28 208.042 1276.7 208.283C1276.11 208.525 1275.49 208.649 1274.86 208.649C1274.22 208.649 1273.6 208.525 1273.02 208.283C1272.43 208.042 1271.9 207.688 1271.46 207.242C1271.01 206.796 1270.65 206.266 1270.41 205.683C1270.17 205.1 1270.05 204.475 1270.05 203.844V184.015H1279.67Z" fill="#FFBF00"/>
<path d="M666.44 212.465C666.44 214.327 666.073 216.17 665.36 217.89C664.647 219.609 663.602 221.172 662.284 222.488C660.967 223.805 659.403 224.849 657.681 225.561C655.96 226.273 654.115 226.64 652.252 226.64H564.915C562.514 226.64 560.153 226.032 558.053 224.873C555.952 223.714 554.179 222.041 552.902 220.011C551.624 217.981 550.883 215.66 550.747 213.266C550.612 210.872 551.086 208.483 552.126 206.322C552.206 206.162 552.286 206.012 552.356 205.862C553.031 204.6 553.895 203.448 554.916 202.446C556.471 200.879 558.376 199.705 560.475 199.019C561.916 198.539 563.426 198.296 564.945 198.3H652.302C654.165 198.299 656.011 198.665 657.733 199.376C659.455 200.088 661.019 201.132 662.337 202.449C663.655 203.765 664.7 205.329 665.412 207.049C666.125 208.769 666.491 210.613 666.49 212.475L666.44 212.465Z" fill="#08112B"/>
<path d="M639.693 205.682V234.082L642.433 232.773H642.443L653.281 227.609L656.591 226.021L656.991 225.841L659.681 224.552H659.69L658.031 222.984L656.641 221.675L639.693 205.682Z" fill="#08112B"/>
<path d="M560.456 198.899L560.426 199.009V199.019L560.246 199.729L559.806 201.447L558.726 205.682L552.347 205.872H552.337L537.659 206.282L552.587 201.447L557.926 199.729L560.456 198.899Z" fill="#FFBF00"/>
<path d="M657.442 199.269L637.095 206.461L552.107 206.321C552.187 206.162 552.267 206.012 552.337 205.862L537.659 206.272L552.587 201.447L557.916 199.748L560.446 198.929V199.039C561.887 198.559 563.396 198.316 564.915 198.32H652.273C654.04 198.312 655.793 198.634 657.442 199.269Z" fill="#F6F7F9"/>
<path d="M541.818 235.73H632.875C641.174 235.73 647.902 229.008 647.902 220.716V220.706C647.902 212.414 641.174 205.692 632.875 205.692H541.818C533.518 205.692 526.79 212.414 526.79 220.706V220.716C526.79 229.008 533.518 235.73 541.818 235.73Z" fill="#4CC3FF"/>
<path d="M530.73 220.726C530.73 222.255 531.031 223.769 531.617 225.182C532.203 226.595 533.062 227.878 534.145 228.959C535.228 230.04 536.513 230.897 537.927 231.481C539.342 232.065 540.857 232.365 542.388 232.364H631.905C634.991 232.359 637.948 231.13 640.129 228.948C642.309 226.766 643.533 223.809 643.533 220.726C643.54 219.195 643.244 217.677 642.663 216.26C642.082 214.843 641.227 213.555 640.147 212.468C639.067 211.382 637.783 210.519 636.369 209.929C634.954 209.338 633.438 209.033 631.905 209.029H542.418C540.88 209.025 539.357 209.325 537.936 209.911C536.514 210.498 535.223 211.36 534.137 212.447C533.051 213.534 532.19 214.826 531.606 216.247C531.021 217.667 530.723 219.19 530.73 220.726Z" fill="#08112B"/>
<path d="M550.707 212.475C550.707 216.234 552.202 219.84 554.863 222.498C557.523 225.156 561.132 226.65 564.895 226.65C568.658 226.65 572.267 225.156 574.927 222.498C577.588 219.84 579.083 216.234 579.083 212.475C579.083 211.313 578.942 210.156 578.663 209.029H551.127C550.848 210.156 550.707 211.313 550.707 212.475Z" fill="#08112B"/>
<path d="M652.902 219.158C652.907 220.702 652.678 222.238 652.222 223.713C651.695 225.459 650.866 227.099 649.773 228.558C649.483 228.938 649.173 229.297 648.863 229.647L652.172 228.059C652.172 228.059 652.172 228.059 652.172 227.999C652.736 227.048 653.205 226.044 653.572 225.002C655.005 221.009 654.926 216.63 653.35 212.692C651.773 208.753 648.807 205.528 645.013 203.625L642.684 204.474C645.682 205.589 648.267 207.594 650.093 210.218C651.919 212.842 652.9 215.962 652.902 219.158Z" fill="#F6F7F9"/>
<path d="M661.04 215.931C661.044 217.387 660.828 218.835 660.4 220.227C659.898 221.869 659.117 223.414 658.091 224.792C657.821 225.141 657.531 225.491 657.231 225.791L660.36 224.302C660.36 224.302 660.36 224.302 660.36 224.242C660.892 223.353 661.334 222.412 661.68 221.435C662.335 219.667 662.674 217.797 662.68 215.911C662.674 212.696 661.723 209.554 659.946 206.874C658.168 204.195 655.642 202.095 652.681 200.837L650.682 201.566C653.673 202.613 656.27 204.552 658.122 207.121C659.975 209.69 660.993 212.765 661.04 215.931Z" fill="#F6F7F9"/>
<path d="M541.777 236H631.604V229.517H541.777V236Z" fill="#08112B"/>
<path d="M632.293 235.72C640.593 235.72 647.321 228.998 647.321 220.706C647.321 212.414 640.593 205.692 632.293 205.692C623.994 205.692 617.266 212.414 617.266 220.706C617.266 228.998 623.994 235.72 632.293 235.72Z" fill="#4CC3FF"/>
<path d="M632.294 232.384C638.749 232.384 643.982 227.156 643.982 220.706C643.982 214.257 638.749 209.029 632.294 209.029C625.838 209.029 620.605 214.257 620.605 220.706C620.605 227.156 625.838 232.384 632.294 232.384Z" fill="#08112B"/>
<path d="M622.336 226.81C623.51 228.718 625.207 230.25 627.225 231.225C628.025 227.309 630.094 224.522 632.524 224.522C634.954 224.522 636.953 227.219 637.783 231.015C639.71 229.996 641.31 228.455 642.403 226.57C638.403 225.791 635.584 223.703 635.584 221.256C635.584 218.808 638.683 216.531 642.923 215.841C641.856 213.514 640.054 211.601 637.793 210.397C637.183 214.872 634.964 218.189 632.314 218.189C629.664 218.189 627.425 214.872 626.815 210.387C624.492 211.623 622.653 213.604 621.596 216.011C626.005 216.641 629.245 218.848 629.245 221.465C629.245 224.083 626.355 226.041 622.336 226.81Z" fill="#4CC3FF"/>
<path d="M548.647 234.082L571.584 224.872V209.029H551.277L548.647 234.082Z" fill="#08112B"/>
<path d="M541.818 235.72C550.118 235.72 556.846 228.998 556.846 220.706C556.846 212.414 550.118 205.692 541.818 205.692C533.518 205.692 526.79 212.414 526.79 220.706C526.79 228.998 533.518 235.72 541.818 235.72Z" fill="#4CC3FF"/>
<path d="M541.818 232.384C548.273 232.384 553.506 227.156 553.506 220.706C553.506 214.257 548.273 209.029 541.818 209.029C535.363 209.029 530.13 214.257 530.13 220.706C530.13 227.156 535.363 232.384 541.818 232.384Z" fill="#08112B"/>
<path d="M531.86 226.81C533.034 228.718 534.731 230.25 536.749 231.225C537.549 227.309 539.619 224.522 542.049 224.522C544.478 224.522 546.478 227.219 547.308 231.015C549.234 229.996 550.835 228.455 551.927 226.57C547.928 225.791 545.108 223.703 545.108 221.256C545.108 218.808 548.208 216.531 552.447 215.841C551.381 213.514 549.579 211.601 547.318 210.397C546.708 214.872 544.488 218.189 541.839 218.189C539.189 218.189 536.959 214.872 536.339 210.387C534.016 211.623 532.178 213.604 531.12 216.011C535.529 216.641 538.769 218.848 538.769 221.465C538.769 224.083 535.919 226.041 531.86 226.81Z" fill="#4CC3FF"/>
<path d="M568.383 202.506H609.967V160.96H568.383V202.506Z" fill="#FFBF00"/>
<path d="M609.967 160.97V202.516L626.045 196.502V158.762L609.967 160.97Z" fill="#08112B"/>
<path d="M609.969 160.969H568.385L588.422 158.642L626.046 158.762L609.969 160.969Z" fill="white"/>
<path d="M589.17 196.202H589.18C591.162 196.202 592.77 194.597 592.77 192.616V170.859C592.77 168.878 591.162 167.273 589.18 167.273H589.17C587.188 167.273 585.581 168.878 585.581 170.859V192.616C585.581 194.597 587.188 196.202 589.17 196.202Z" fill="#08112B"/>
<path d="M1110.34 47.8793C1113.4 47.8793 1115.88 45.4016 1115.88 42.3452C1115.88 39.2887 1113.4 36.811 1110.34 36.811C1107.28 36.811 1104.8 39.2887 1104.8 42.3452C1104.8 45.4016 1107.28 47.8793 1110.34 47.8793Z" fill="#08112B"/>
<path d="M1098.96 44.1532C1102.02 44.1532 1104.5 41.6755 1104.5 38.6191C1104.5 35.5627 1102.02 33.085 1098.96 33.085C1095.91 33.085 1093.43 35.5627 1093.43 38.6191C1093.43 41.6755 1095.91 44.1532 1098.96 44.1532Z" fill="#EBECF2"/>
<path d="M1106.25 42.0256C1108.68 42.0256 1110.65 40.0577 1110.65 37.6302C1110.65 35.2027 1108.68 33.2349 1106.25 33.2349C1103.82 33.2349 1101.85 35.2027 1101.85 37.6302C1101.85 40.0577 1103.82 42.0256 1106.25 42.0256Z" fill="#08112B"/>
<path d="M1111.14 52.1447C1113.57 52.1447 1115.54 50.1768 1115.54 47.7493C1115.54 45.3219 1113.57 43.354 1111.14 43.354C1108.71 43.354 1106.74 45.3219 1106.74 47.7493C1106.74 50.1768 1108.71 52.1447 1111.14 52.1447Z" fill="#08112B"/>
<path d="M1074.84 87.3975C1076.7 87.4107 1078.53 87.8954 1080.15 88.806L1078.79 93.8007L1074.68 93.3312L1074.84 87.3975Z" fill="#FFBF00"/>
<path d="M1074.97 93.3411C1076.61 93.3411 1077.95 92.0084 1077.95 90.3643C1077.95 88.7202 1076.61 87.3875 1074.97 87.3875C1073.32 87.3875 1071.99 88.7202 1071.99 90.3643C1071.99 92.0084 1073.32 93.3411 1074.97 93.3411Z" fill="#FFBF00"/>
<path d="M1079.05 93.8108C1080.5 93.8108 1081.68 92.6346 1081.68 91.1836C1081.68 89.7326 1080.5 88.5564 1079.05 88.5564C1077.6 88.5564 1076.42 89.7326 1076.42 91.1836C1076.42 92.6346 1077.6 93.8108 1079.05 93.8108Z" fill="#FFBF00"/>
<path d="M1073.95 87.587C1074.46 87.587 1074.88 87.1711 1074.88 86.658C1074.88 86.1449 1074.46 85.729 1073.95 85.729C1073.43 85.729 1073.02 86.1449 1073.02 86.658C1073.02 87.1711 1073.43 87.587 1073.95 87.587Z" fill="#FFBF00"/>
<path d="M1074.22 85.7593C1076.17 86.1995 1077.96 87.1592 1079.41 88.5363L1077.2 90.1746C1077.2 90.1746 1076.55 88.7961 1073.66 87.5474L1074.22 85.7593Z" fill="#FFBF00"/>
<path d="M1070.1 89.855C1070.83 89.855 1071.42 89.2646 1071.42 88.5364C1071.42 87.8081 1070.83 87.2178 1070.1 87.2178C1069.37 87.2178 1068.78 87.8081 1068.78 88.5364C1068.78 89.2646 1069.37 89.855 1070.1 89.855Z" fill="#FFBF00"/>
<path d="M1071.14 87.7271C1072.06 88.0333 1073.07 87.9978 1073.97 87.6272L1073.58 92.9915C1071.73 92.1276 1070.13 90.8033 1068.94 89.1456L1071.14 87.7271Z" fill="#FFBF00"/>
<path d="M1091.83 63.3828C1090.8 65.3921 1089.96 67.4921 1089.32 69.6562C1088.7 71.6541 1088.2 73.652 1087.79 75.6498C1087.38 77.6477 1087.04 79.5857 1086.79 81.5536L1086.42 84.5504C1086.31 85.6093 1086.22 86.4384 1086.15 87.9069L1088.78 84.021C1088.08 84.5019 1087.37 84.9421 1086.63 85.3396C1085.82 85.7691 1084.99 86.2386 1084.13 86.6382C1082.36 87.4659 1080.52 88.1346 1078.64 88.6361H1078.54C1078.07 88.7697 1077.66 89.0554 1077.37 89.4483C1077.08 89.8412 1076.93 90.319 1076.94 90.8064C1076.95 91.2939 1077.13 91.7633 1077.44 92.1408C1077.75 92.5183 1078.17 92.7824 1078.65 92.8916C1080.92 93.3764 1083.24 93.591 1085.57 93.5309C1086.75 93.5252 1087.93 93.435 1089.11 93.2612C1090.37 93.1056 1091.61 92.8143 1092.81 92.3921C1093.54 92.1237 1094.17 91.6517 1094.63 91.0331C1095.09 90.4144 1095.36 89.6756 1095.41 88.9058V88.5062L1095.98 86.2886L1096.72 83.7413C1097.24 82.0431 1097.82 80.3549 1098.44 78.7466C1099.06 77.1383 1099.75 75.51 1100.44 74.0316C1101.08 72.6583 1101.86 71.3531 1102.76 70.1357C1103.81 68.7832 1104.29 67.0688 1104.07 65.3696C1103.86 63.6705 1102.98 62.1258 1101.62 61.0753C1100.27 60.0248 1098.55 59.5546 1096.85 59.7682C1095.15 59.9818 1093.61 60.8616 1092.55 62.2141C1092.33 62.5066 1092.13 62.8174 1091.95 63.1431L1091.83 63.3828Z" fill="#D3D6DE"/>
<path d="M1098.63 111.732L1129.54 109.544L1124.9 78.2173C1123.13 70.9549 1123.72 65.3709 1121.81 61.6548C1120.5 59.1275 1117.41 57.659 1114.01 56.3404C1113.75 56.221 1113.48 56.1176 1113.21 56.0308L1109.43 54.7122L1098.04 58.2185L1095.59 60.496L1091.16 64.9313C1091.16 64.9313 1090.73 73.2425 1092.41 78.2672L1098.63 111.732Z" fill="#4CC3FF"/>
<path d="M1101.94 59.2473C1107.24 59.2473 1111.53 54.9583 1111.53 49.6675C1111.53 44.3767 1107.24 40.0876 1101.94 40.0876C1096.65 40.0876 1092.36 44.3767 1092.36 49.6675C1092.36 54.9583 1096.65 59.2473 1101.94 59.2473Z" fill="#FFBF00"/>
<path d="M1110.27 54.3923L1107.43 49.058C1106.9 48.0624 1106.02 47.2921 1104.96 46.887C1103.91 46.4819 1102.74 46.4689 1101.67 46.8503C1100.32 47.3473 1098.89 47.6206 1097.44 47.6595L1093.03 47.7793C1092.2 47.804 1091.38 47.5332 1090.72 47.0145C1090.06 46.4958 1089.61 45.7622 1089.44 44.9424C1089.29 44.2361 1089.36 43.5018 1089.63 42.8353C1089.91 42.1687 1090.38 41.601 1090.99 41.2063C1093.77 39.3586 1096.8 37.9094 1099.98 36.9009C1101.52 36.4646 1103.13 36.3992 1104.7 36.7101C1106.26 37.0211 1107.73 37.6993 1108.98 38.689L1109.06 38.7589C1110.31 39.7322 1111.32 40.9827 1112 42.4113C1112.68 43.84 1113.02 45.4076 1112.99 46.9902L1112.91 51.3955C1112.9 52.1412 1112.62 52.8568 1112.11 53.4084C1111.61 53.9601 1110.92 54.3099 1110.18 54.3923H1110.27Z" fill="#08112B"/>
<path d="M1110.16 49.9076C1110.53 47.9844 1109.79 46.2241 1108.5 45.9758C1107.21 45.7275 1105.86 47.0852 1105.49 49.0084C1105.12 50.9316 1105.86 52.692 1107.16 52.9403C1108.45 53.1887 1109.79 51.8309 1110.16 49.9076Z" fill="#FFBF00"/>
<path d="M1095.6 60.496C1096.64 62.3325 1098.25 63.7843 1100.19 64.6374C1102.12 65.4905 1104.28 65.6996 1106.35 65.234C1108.41 64.7685 1110.27 63.6528 1111.65 62.0515C1113.03 60.4503 1113.86 58.4482 1114.01 56.3404C1113.75 56.221 1113.49 56.1176 1113.21 56.0308L1109.43 54.7122L1098.05 58.2185L1095.6 60.496Z" fill="#FFBF00"/>
<path d="M1108.81 98.3258L1096.11 97.3568L1077.65 95.9383L1068.13 81.2239L1093.29 82.8022L1102.37 83.3716L1108.81 98.3258Z" fill="#08112B"/>
<path d="M1093.19 47.7094C1096.24 47.7094 1098.72 45.2317 1098.72 42.1752C1098.72 39.1188 1096.24 36.6411 1093.19 36.6411C1090.13 36.6411 1087.65 39.1188 1087.65 42.1752C1087.65 45.2317 1090.13 47.7094 1093.19 47.7094Z" fill="#08112B"/>
<path d="M1101.53 22.4145C1105.04 21.627 1108.72 22.2653 1111.76 24.1888C1114.8 26.1123 1116.95 29.1635 1117.74 32.6712L1118 33.8068L1091.54 39.7405L1091.28 38.6049C1090.5 35.0973 1091.13 31.4204 1093.06 28.3833C1094.99 25.3461 1098.04 23.1975 1101.55 22.4101L1101.53 22.4145Z" fill="#4CC3FF"/>
<path d="M1106.57 93.491C1108.32 92.8486 1110.2 92.6629 1112.03 92.9516L1112.52 98.1061L1108.52 99.1051L1106.57 93.491Z" fill="#FFBF00"/>
<path d="M1107.71 99.2149C1109.36 99.2149 1110.69 97.8821 1110.69 96.2381C1110.69 94.594 1109.36 93.2612 1107.71 93.2612C1106.07 93.2612 1104.73 94.594 1104.73 96.2381C1104.73 97.8821 1106.07 99.2149 1107.71 99.2149Z" fill="#FFBF00"/>
<path d="M1111.82 98.2059C1113.28 98.2059 1114.45 97.0296 1114.45 95.5786C1114.45 94.1277 1113.28 92.9514 1111.82 92.9514C1110.37 92.9514 1109.19 94.1277 1109.19 95.5786C1109.19 97.0296 1110.37 98.2059 1111.82 98.2059Z" fill="#FFBF00"/>
<path d="M1105.45 94.0604C1105.97 94.0604 1106.38 93.6445 1106.38 93.1314C1106.38 92.6183 1105.97 92.2024 1105.45 92.2024C1104.94 92.2024 1104.52 92.6183 1104.52 93.1314C1104.52 93.6445 1104.94 94.0604 1105.45 94.0604Z" fill="#FFBF00"/>
<path d="M1105.38 92.1923C1107.36 91.9155 1109.38 92.185 1111.21 92.9715L1109.72 95.2691C1109.72 95.2691 1108.63 94.2102 1105.49 94.0604L1105.38 92.1923Z" fill="#FFBF00"/>
<path d="M1102.5 97.5566C1103.23 97.5566 1103.82 96.9663 1103.82 96.238C1103.82 95.5098 1103.23 94.9194 1102.5 94.9194C1101.77 94.9194 1101.18 95.5098 1101.18 96.238C1101.18 96.9663 1101.77 97.5566 1102.5 97.5566Z" fill="#FFBF00"/>
<path d="M1103.2 95.1094C1104.18 95.0725 1105.1 94.6898 1105.81 94.0305L1107.33 99.185C1105.3 99.0155 1103.33 98.3278 1101.63 97.1872L1103.2 95.1094Z" fill="#FFBF00"/>
<path d="M1113.65 68.7472C1116.23 71.7166 1118.57 74.883 1120.65 78.2171C1122.71 81.5336 1124.54 85.1298 1126.47 88.9058L1127.58 81.9132C1127.67 81.9132 1127.36 82.2928 1127.2 82.5026C1127.04 82.7124 1126.79 83.0021 1126.55 83.2618C1126.09 83.7812 1125.55 84.2607 1125.04 84.7902C1123.94 85.8188 1122.78 86.7891 1121.57 87.6971C1119.04 89.5723 1116.37 91.2425 1113.57 92.6918C1113.28 92.8446 1113.02 93.0541 1112.8 93.3082C1112.59 93.5624 1112.43 93.8562 1112.33 94.1727C1112.23 94.4893 1112.19 94.8224 1112.22 95.1528C1112.25 95.4833 1112.35 95.8046 1112.5 96.0982C1112.75 96.559 1113.13 96.9335 1113.59 97.1711C1114.06 97.4087 1114.58 97.498 1115.1 97.4268C1118.57 96.9425 1122 96.1842 1125.35 95.1592C1127.09 94.6182 1128.8 93.9881 1130.48 93.2712C1131.33 92.9016 1132.19 92.502 1133.05 92.0525L1134.36 91.3233C1134.88 91.0281 1135.38 90.6942 1135.85 90.3243C1136.8 89.5632 1137.46 88.4931 1137.7 87.2997C1137.95 86.1064 1137.76 84.8651 1137.19 83.7912L1136.97 83.3717C1134.97 79.6756 1132.9 75.7897 1130.43 71.9838C1127.97 68.2051 1125.21 64.6246 1122.19 61.2751C1121.21 60.1662 1119.82 59.4912 1118.34 59.3975C1116.86 59.3037 1115.4 59.7988 1114.29 60.7747C1113.17 61.7505 1112.49 63.128 1112.38 64.6066C1112.28 66.0852 1112.76 67.5449 1113.73 68.6673L1113.65 68.7472Z" fill="#D3D6DE"/>
<path d="M1133.6 185.843C1133.49 191.537 1133.45 197.69 1133.49 204.353V205.962H1128.22L1127.88 204.323L1125.76 193.685L1108.76 108.495H1128.76C1134.25 115.138 1134.75 130.112 1133.6 185.843Z" fill="#4CC3FF"/>
<path d="M1120.97 108.495L1106.59 188.131L1103.67 204.354L1103.47 205.412L1098.38 205.682C1098.38 205.033 1098.38 204.393 1098.38 203.734C1098.38 201.337 1098.38 198.879 1098.38 196.382C1098.27 157.423 1098.7 108.475 1098.7 108.475L1120.97 108.495Z" fill="#4CC3FF"/>
<path d="M1104.98 213.114C1105.02 213.603 1104.96 214.095 1104.81 214.559C1104.65 215.023 1104.39 215.449 1104.06 215.811C1103.73 216.172 1103.33 216.461 1102.88 216.659C1102.43 216.856 1101.94 216.959 1101.45 216.96H1084.78C1084.98 215.592 1086.37 214.243 1088.58 213.294C1092.64 211.647 1095.96 208.578 1097.91 204.663L1098.35 203.734V203.684L1103.45 203.395C1103.45 203.395 1103.52 203.754 1103.65 204.393C1104 206.072 1104.69 209.818 1104.98 213.114Z" fill="#D3D6DE"/>
<path d="M1134.83 213.114C1134.87 213.603 1134.81 214.094 1134.65 214.557C1134.49 215.021 1134.24 215.446 1133.91 215.807C1133.57 216.168 1133.17 216.457 1132.72 216.656C1132.28 216.854 1131.79 216.958 1131.3 216.96H1114.62C1114.82 215.592 1116.22 214.243 1118.43 213.294C1122.49 211.647 1125.81 208.578 1127.76 204.663L1127.91 204.324L1128.22 203.684L1133.32 203.395C1133.32 203.395 1133.39 203.754 1133.52 204.393C1133.83 206.072 1134.51 209.818 1134.83 213.114Z" fill="#D3D6DE"/>
<path d="M1134.76 213.232C1134.8 213.717 1134.73 214.205 1134.58 214.665C1134.42 215.125 1134.17 215.548 1133.84 215.907C1133.51 216.265 1133.12 216.552 1132.67 216.749C1132.23 216.946 1131.75 217.049 1131.26 217.051H1114.77C1114.97 215.692 1116.35 214.353 1118.54 213.411C1122.55 211.775 1125.83 208.728 1127.76 204.84L1127.91 204.503L1125.81 193.939L1133.57 186.152C1133.43 191.806 1134.44 209.959 1134.76 213.232Z" fill="#08112B"/>
<path d="M1105.06 213.195C1105.1 213.685 1105.04 214.179 1104.88 214.644C1104.72 215.109 1104.46 215.537 1104.13 215.899C1103.79 216.261 1103.39 216.551 1102.94 216.749C1102.48 216.948 1101.99 217.051 1101.5 217.052H1084.7C1084.9 215.679 1086.3 214.327 1088.54 213.376C1092.62 211.724 1095.96 208.647 1097.93 204.722L1098.38 203.79C1098.38 201.387 1098.38 198.923 1098.38 196.419L1106.7 188.146C1106.7 188.146 1104.76 209.89 1105.06 213.195Z" fill="#08112B"/>
<path d="M460.83 106.997L459.83 94.0105C462.743 93.782 465.464 92.466 467.45 90.3244C469.436 88.1827 470.542 85.3724 470.549 82.4527L483.547 82.3828V82.4527C483.532 88.6449 481.188 94.6052 476.98 99.1515C472.772 103.698 467.008 106.498 460.83 106.997Z" fill="white"/>
<path d="M446.702 103.79C442.96 101.628 439.851 98.5219 437.688 94.7826C435.524 91.0433 434.382 86.8019 434.374 82.4828C434.368 78.8137 435.192 75.1906 436.784 71.884L448.512 77.4981C447.757 79.0547 447.367 80.7629 447.372 82.4928C447.376 84.5304 447.915 86.5313 448.937 88.295C449.958 90.0587 451.425 91.5233 453.191 92.5421L446.702 103.79Z" fill="#08112B"/>
<path d="M468.549 75.8797C466.893 73.469 464.386 71.7724 461.531 71.1297C458.675 70.4869 455.683 70.9454 453.151 72.4134L446.612 61.1853C451.977 58.0726 458.321 57.0986 464.374 58.4581C470.426 59.8176 475.742 63.4103 479.258 68.5175L468.549 75.8797Z" fill="#08112B"/>
<path d="M512.712 60.2063H497.794C495.425 60.2063 493.505 62.1227 493.505 64.4868C493.505 66.8508 495.425 68.7672 497.794 68.7672H512.712C515.081 68.7672 517.001 66.8508 517.001 64.4868C517.001 62.1227 515.081 60.2063 512.712 60.2063Z" fill="white"/>
<path d="M512.723 67.968C514.65 67.968 516.212 66.4071 516.212 64.4817C516.212 62.5562 514.65 60.9954 512.723 60.9954C510.796 60.9954 509.233 62.5562 509.233 64.4817C509.233 66.4071 510.796 67.968 512.723 67.968Z" fill="#08112B"/>
<path d="M497.805 107.386H512.722C515.091 107.386 517.012 105.47 517.012 103.106C517.012 100.742 515.091 98.8253 512.722 98.8253H497.805C495.436 98.8253 493.515 100.742 493.515 103.106C493.515 105.47 495.436 107.386 497.805 107.386Z" fill="white"/>
<path d="M497.795 106.587C499.722 106.587 501.285 105.026 501.285 103.101C501.285 101.175 499.722 99.6145 497.795 99.6145C495.868 99.6145 494.306 101.175 494.306 103.101C494.306 105.026 495.868 106.587 497.795 106.587Z" fill="#4CC3FF"/>
<path d="M497.805 88.656H512.722C515.091 88.656 517.012 86.7396 517.012 84.3755C517.012 82.0115 515.091 80.0951 512.722 80.0951H497.805C495.436 80.0951 493.515 82.0115 493.515 84.3755C493.515 86.7396 495.436 88.656 497.805 88.656Z" fill="white"/>
<path d="M497.795 87.8569C499.722 87.8569 501.285 86.296 501.285 84.3706C501.285 82.4452 499.722 80.8843 497.795 80.8843C495.868 80.8843 494.306 82.4452 494.306 84.3706C494.306 86.296 495.868 87.8569 497.795 87.8569Z" fill="#4CC3FF"/>
<path d="M186.973 186.023H89.2472C86.1222 186.024 83.0781 187.016 80.5535 188.856C78.0289 190.696 76.1541 193.289 75.1993 196.262L68.4902 217.17H207.72L200.971 196.262C200.019 193.297 198.152 190.71 195.637 188.871C193.122 187.031 190.089 186.034 186.973 186.023Z" fill="#08112B"/>
</svg>
