<svg width="120" height="120" viewBox="0 0 120 120" fill="none" xmlns="http://www.w3.org/2000/svg">
<rect x="25" y="25" width="90" height="50" rx="2" fill="#08112B"/>
<rect x="15" y="35" width="90" height="50" rx="2" fill="#D1D5E0"/>
<rect x="5" y="45" width="90" height="50" rx="2" fill="#4CC3FF"/>
<circle cx="19" cy="70" r="4" fill="white"/>
<circle cx="81" cy="70" r="4" fill="white"/>
<circle cx="50" cy="70" r="17" fill="white"/>
<path d="M46.8056 61.4053C45.86 60.4768 44.7356 60 43.3811 60C42.0267 60 40.8767 60.4768 39.9311 61.4053C38.9856 62.3338 38.5 63.4379 38.5 64.7679C38.5 66.0979 38.9856 67.2271 39.9311 68.1556C40.8767 69.0841 42.0267 69.5358 43.3811 69.5358C44.7356 69.5358 45.86 69.0841 46.8056 68.1556C47.7511 67.2271 48.2367 66.0979 48.2367 64.7679C48.2367 63.4379 47.7511 62.3338 46.8056 61.4053ZM54.5233 60.2008L41.4133 79.8494H45.4767L58.5867 60.2008H54.5233ZM43.3811 66.2233C41.5156 66.3237 41.5156 63.212 43.3811 63.3124C44.2244 63.3124 44.8122 63.9649 44.8122 64.7679C44.8122 65.5709 44.1989 66.2233 43.3811 66.2233ZM51.7633 75.2321C51.7633 76.5621 52.2489 77.6913 53.1944 78.6198C54.14 79.5483 55.29 80 56.6444 80C57.9989 80 59.1233 79.5483 60.0689 78.6198C61.0144 77.6913 61.5 76.5621 61.5 75.2321C61.5 73.9021 61.0144 72.7729 60.0689 71.8444C59.1233 70.9159 57.9989 70.4391 56.6444 70.4391C55.29 70.4391 54.1144 70.9159 53.1689 71.8444C52.2233 72.7729 51.7633 73.9021 51.7633 75.2321ZM56.6444 73.7516C57.4622 73.7516 58.0756 74.4291 58.0756 75.2321C58.0756 76.0351 57.4622 76.6876 56.6444 76.6876C54.7789 76.788 54.7789 73.6763 56.6444 73.7516Z" fill="#4CC2FF"/>
</svg>
