<svg width="180" height="80" viewBox="0 0 180 80" fill="none" xmlns="http://www.w3.org/2000/svg">
<path d="M174.988 0H5.01594C2.23417 0 0 2.24262 0 5.00546L1.10395 61.1803C1.10395 63.9432 3.34688 66.1858 6.11551 66.1858H133.538V80L144.025 66.1858H174.988C177.748 66.1858 180 63.9432 180 61.1803V5.00546C180 2.24262 177.722 0 174.962 0" fill="#FFD301"/>
<path fill-rule="evenodd" clip-rule="evenodd" d="M21.1151 31.6738L26.3545 18.8782L31.5851 31.6738H21.1151ZM23.9626 11.1711L10.8336 42.5809H16.7914L19.3585 36.3164H33.333L35.9176 42.5809H41.8316L28.7376 11.1711H23.9626ZM56.8094 26.4935H50.7201V16.264H56.8094C59.0654 16.264 61.7245 17.8465 61.7245 21.405C61.7245 24.9022 59.0654 26.5197 56.8094 26.5197V26.4935ZM57.0722 11.2192H45.0778V42.6509H50.7158V31.5864H57.0766C62.2897 31.5864 67.2837 27.3984 67.2837 21.4006C67.2837 15.053 62.0268 11.1711 57.0328 11.1711L57.0722 11.2192ZM76.4832 16.2683H82.5725C84.8066 16.2683 87.4789 17.8421 87.4789 21.405C87.4789 24.9022 84.8066 26.5197 82.5725 26.5197H76.4832V16.2858V16.2683ZM76.4832 31.5864H82.8353C88.0484 31.5864 93.0424 27.3984 93.0424 21.4006C93.0424 15.053 87.7855 11.1711 82.7915 11.1711H70.7883V42.5809H76.4394V31.5864H76.4832ZM121.868 11.1711H116.26V29.9689C116.26 35.5514 113.413 37.9864 109.164 37.9864C104.87 37.9864 102.023 35.5514 102.023 29.9645V11.1667H96.4156V30.5328C96.4156 38.8826 102.023 43.0356 109.164 43.0356C116.217 43.0356 121.868 38.8826 121.868 30.4891V11.1711ZM126.862 42.5809H132.298V19.8705H126.91L126.862 42.5809ZM129.617 10.8214C127.865 10.8214 126.375 12.2115 126.375 14.0126C126.375 15.8181 127.865 17.2126 129.617 17.2126C131.326 17.2126 132.815 15.8137 132.815 14.0126C132.815 12.2115 131.326 10.8214 129.617 10.8214ZM152.734 15.7263C158.999 15.7263 163.787 20.6837 163.787 26.9481C163.787 33.2432 159.012 38.0957 152.747 38.0957C146.483 38.0957 141.69 33.2432 141.69 26.9044C141.69 20.5656 146.465 15.6694 152.743 15.6694L152.734 15.7263ZM152.743 43.123C161.986 43.123 169.39 36.0847 169.39 26.8607C169.39 17.5929 161.986 10.5547 152.743 10.5547C143.544 10.5547 136.14 17.6367 136.14 26.8607C136.14 36.0847 143.544 43.123 152.743 43.123ZM11.3154 53.1776C11.6571 53.8334 12.2923 54.3143 13.1992 54.3143C14.2418 54.3143 14.4696 53.7022 14.4696 53.3525C14.4696 52.653 13.8563 52.3908 12.9363 52.041C11.736 51.5602 10.7897 51.0793 10.7897 49.7678C10.7897 48.5438 11.8411 47.7569 13.1115 47.7569C14.2505 47.7569 14.9821 48.2815 15.4246 48.9372L14.4608 49.5929C14.198 49.1558 13.8037 48.9372 13.1466 48.9372C12.5771 48.9372 12.139 49.2432 12.139 49.7241C12.139 50.3929 12.7523 50.511 13.8475 50.9612C15.2055 51.5164 15.8626 52.0979 15.8626 53.2345C15.8626 54.5022 15.0303 55.464 13.2342 55.464C11.8324 55.464 10.8248 54.7864 10.3867 53.7591L11.3943 53.1208L11.3154 53.1776ZM16.3401 47.9317H17.6544L19.1745 52.9591L20.7253 47.9317H21.7328L23.3099 52.9591L24.8431 47.9317H26.1574L23.9232 55.4072H22.828L21.2466 50.3842L19.6695 55.4115H18.6181L16.3401 47.9317ZM27.2482 55.4115H28.5974V47.9361H27.2394L27.2482 55.4115ZM30.7878 53.2082C31.1383 53.8858 31.7516 54.3449 32.6715 54.3449C33.7229 54.3449 33.9419 53.7328 33.9419 53.37C33.9419 52.688 33.3286 52.4301 32.4087 52.0847C31.1996 51.6039 30.2621 51.123 30.2621 49.8115C30.2621 48.5875 31.3135 47.8006 32.5839 47.8006C33.7229 47.8006 34.4501 48.3252 34.9057 48.9809L33.9419 49.6367C33.6791 49.1995 33.241 48.9372 32.6058 48.9372C31.9925 48.9372 31.572 49.252 31.572 49.7241C31.572 50.4235 32.1853 50.5285 33.2804 50.9918C34.6385 51.5296 35.2737 52.1285 35.2737 53.2651C35.2737 54.5328 34.3975 55.4727 32.6452 55.4727C31.2127 55.4727 30.2227 54.817 29.7539 53.7678L30.7615 53.1427L30.7878 53.2082ZM37.1399 53.2082C37.4903 53.8858 38.1036 54.3449 39.0236 54.3449C40.075 54.3449 40.294 53.7328 40.294 53.37C40.294 52.688 39.6807 52.4301 38.7607 52.0847C37.5473 51.6039 36.6142 51.123 36.6142 49.8115C36.6142 48.5875 37.6656 47.8006 38.936 47.8006C40.075 47.8006 40.7978 48.3252 41.2578 48.9809L40.294 49.6367C40.0312 49.1995 39.5931 48.9372 38.9491 48.9372C38.3796 48.9372 37.9415 49.252 37.9415 49.7241C37.9415 50.4235 38.5548 50.5285 39.65 50.9918C41.0081 51.5296 41.6652 52.1285 41.6652 53.2651C41.6652 54.5328 40.789 55.4727 39.0367 55.4727C37.5911 55.4727 36.6273 54.817 36.1454 53.7678L37.153 53.1427L37.1399 53.2082ZM51.0706 47.805C52.2534 47.805 53.3048 48.3208 54.0495 49.147L53.1295 49.9339C52.6214 49.3656 51.9029 49.0159 51.0706 49.0159C49.5812 49.0159 48.4422 50.1525 48.4422 51.6826C48.4422 53.2126 49.5812 54.3492 51.0706 54.3492C51.9029 54.3492 52.6477 53.9995 53.1427 53.405L54.0626 54.1919C53.3617 55.0662 52.3104 55.547 51.0837 55.547C48.8934 55.547 47.0973 53.9296 47.0973 51.7C47.0973 49.4705 48.8934 47.8531 51.0837 47.8531L51.0706 47.805ZM58.6624 54.4104C60.1519 54.4104 61.2909 53.2738 61.2909 51.7438C61.2909 50.2574 60.1519 49.0771 58.6624 49.0771C57.173 49.0771 56.034 50.2574 56.034 51.7438C56.034 53.2301 57.173 54.4104 58.6931 54.4104H58.6624ZM58.6931 47.8531C60.8834 47.8531 62.6576 49.5143 62.6576 51.7438C62.6576 53.9296 60.8922 55.5908 58.6887 55.5908C56.4983 55.5908 54.746 53.9296 54.746 51.7438C54.746 49.5317 56.4983 47.8531 58.6887 47.8531H58.6931ZM64.0551 47.9842H65.2379L69.2244 53.1864V47.9842H70.5211V55.4596H69.4259L65.2729 50.0782V55.3678H63.9587V47.8924L64.0551 47.9842ZM73.5219 49.1077H71.4892V47.8968H76.8775V49.1208H74.8186V55.4159H73.4605V49.1645L73.5219 49.1077ZM81.5211 52.8804L80.2507 49.8203L78.9803 52.8804H81.4773H81.5211ZM79.6812 47.9842H80.8202L83.9305 55.5033H82.4848L81.8715 54.017H78.5422L77.9289 55.5033H76.4832L79.6111 48.0104L79.6812 47.9842ZM85.0257 55.5033H86.3399V48.0279H84.995L85.0257 55.5033ZM88.1754 48.0279H89.3582L93.3447 53.2301V48.0279H94.6458V55.5033H93.5506L89.4984 50.2137V55.5033H88.1842V48.0279H88.1754ZM96.4638 48.0279H101.239V49.2082H97.8043V51.0006H101.046V52.2246H97.8262V54.2793H101.331V55.5033H96.4682L96.4638 48.0279ZM105.624 51.6126C106.351 51.6126 106.851 51.088 106.851 50.3886C106.851 49.6891 106.369 49.2082 105.725 49.2082H104.261V51.6126H105.69H105.624ZM102.842 47.9842H105.764C107.087 47.9842 108.187 48.9897 108.187 50.3449C108.187 51.3066 107.617 52.1372 106.829 52.4432L108.642 55.4334H107.328L105.725 52.7667H104.393V55.4334H103.048V47.958L102.842 47.9842ZM117.123 51.6126C117.649 51.6126 118.306 51.2192 118.306 50.3886C118.306 49.5361 117.675 49.1645 117.123 49.1645H115.651V51.6126H117.097H117.123ZM114.32 47.9405H117.202C118.398 47.9405 119.655 48.8585 119.655 50.3886C119.655 51.8137 118.455 52.8148 117.202 52.8148H115.669V55.4377H114.337V47.9623L114.32 47.9405ZM120.803 47.9405H122.161V54.2268H125.14V55.4509H120.908L120.803 47.9405ZM131.028 52.8498L129.801 49.7897L128.561 52.8498H131.058H131.028ZM129.232 47.9536H130.371L133.512 55.4552H132.088L131.475 53.9689H128.145L127.532 55.4552H126.165L129.297 47.9536H129.232ZM135.308 49.1776H133.266V47.9536H138.698V49.1776H136.679V55.4596H135.365V49.2082L135.308 49.1776ZM139.807 47.9929H144.345V49.1864H141.147V51.0662H144.065V52.2902H141.152V55.4815H139.837L139.807 47.9929ZM149.212 54.4323C150.702 54.4323 151.841 53.2957 151.841 51.7656C151.841 50.2793 150.702 49.0989 149.212 49.0989C147.723 49.0989 146.584 50.2793 146.584 51.7656C146.584 53.252 147.723 54.4323 149.256 54.4323H149.212ZM149.256 47.8749C151.446 47.8749 153.242 49.5798 153.242 51.7656C153.242 53.9514 151.49 55.6563 149.3 55.6563C147.109 55.6563 145.344 53.982 145.344 51.7787C145.344 49.5755 147.096 47.888 149.287 47.888L149.256 47.8749ZM157.422 51.6476C158.166 51.6476 158.648 51.1405 158.648 50.4235C158.648 49.7241 158.166 49.2432 157.509 49.2432H155.954V51.6476H157.4H157.422ZM154.653 48.0192H157.588C158.902 48.0192 159.998 49.0421 159.998 50.3929C159.998 51.3722 159.428 52.1853 158.626 52.5088L160.453 55.5033H158.92L157.299 52.8367H155.985V55.5033H154.627V48.0279L154.653 48.0192ZM161.618 48.0192H162.801L165.491 52.2159L168.163 48.0192H169.32V55.4946H168.049V50.3842L165.495 54.3405L162.937 50.3973V55.4552H161.649" fill="#002F47"/>
</svg>
