<svg width="107" height="60" viewBox="0 0 107 60" fill="none" xmlns="http://www.w3.org/2000/svg">
<circle cx="53.0019" cy="30" r="19" fill="#4CC3FF"/>
<path opacity="0.25" d="M67.8326 41.874C70.4397 38.6214 71.9991 34.4928 71.9991 30C71.9991 19.5066 63.4925 11 52.9992 11C48.035 11 43.5155 12.9038 40.1309 16.0211C54.5765 16.5754 66.3134 27.6961 67.8326 41.874Z" fill="#000D1A"/>
<path d="M31.5938 6.49132V15.0624L36.8114 11.8889C46.7837 5.82339 59.2643 5.82339 69.2367 11.8889L69.8591 12.2674V12.2729L69.9998 12.3511V3.96046L69.8621 3.89163C58.1699 -1.81548 44.3143 -1.2457 33.0548 5.60268L31.5938 6.49132Z" fill="#4CC3FF"/>
<path d="M74.436 53.5085V44.9375L69.2184 48.111C59.246 54.1765 46.7655 54.1765 36.7931 48.111L36.168 47.7308V47.726L36 47.64V56.0306L36.1677 56.1086C47.8599 61.8157 61.7154 61.2456 72.975 54.3972L74.436 53.5085Z" fill="#4CC3FF"/>
<path d="M31.5714 15.0632V6.49219L0 25.6948V34.3086L31.5714 53.5111V44.9401L7.0108 30.0017L31.5714 15.0632Z" fill="#000D1A"/>
<path d="M74.4319 53.5111L106.003 34.3086V25.6948L74.4319 6.49219V15.0632L98.9925 30.0017L74.4319 44.9401V53.5111Z" fill="#000D1A"/>
</svg>
