<svg width="204" height="245" viewBox="0 0 204 245" fill="none" xmlns="http://www.w3.org/2000/svg">
<path d="M52 0H152V245L102 230L52 245V0Z" fill="#FFBF00"/>
<g filter="url(#filter0_d)">
<circle cx="102" cy="115" r="90" fill="#040816"/>
<circle cx="102" cy="115" r="90" stroke="#FFBF00" stroke-width="4"/>
</g>
<path d="M34.3726 102.378C34.227 103.158 33.9893 103.897 33.6595 104.595C33.3297 105.294 32.9614 105.842 32.5545 106.242L30.7117 104.975C31.0767 104.597 31.3995 104.139 31.6801 103.603C31.9607 103.066 32.1524 102.522 32.2551 101.972C32.4504 100.926 32.2865 100.355 31.7634 100.258C31.4881 100.207 31.2579 100.321 31.0729 100.6C30.8804 100.868 30.6491 101.319 30.3789 101.952C30.0875 102.648 29.8093 103.223 29.5441 103.677C29.2698 104.129 28.9027 104.493 28.443 104.769C27.9833 105.045 27.4184 105.12 26.7485 104.996C26.1611 104.888 25.6634 104.63 25.2553 104.222C24.838 103.812 24.5508 103.266 24.3937 102.582C24.2383 101.889 24.2471 101.079 24.4201 100.152C24.5383 99.5189 24.7282 98.9086 24.9898 98.321C25.2423 97.7318 25.5498 97.2287 25.9125 96.8117L27.7794 98.0257C27.1125 98.8515 26.6986 99.6956 26.5375 100.558C26.4365 101.099 26.4454 101.509 26.5643 101.787C26.6741 102.064 26.8575 102.226 27.1144 102.274C27.3714 102.321 27.5916 102.21 27.7749 101.94C27.9582 101.67 28.1795 101.223 28.4388 100.597C28.7318 99.8915 29.0147 99.3174 29.2873 98.8742C29.5525 98.4203 29.9149 98.0554 30.3746 97.7798C30.8269 97.4933 31.388 97.4121 32.058 97.5361C32.6362 97.6431 33.1293 97.9004 33.5374 98.3081C33.9455 98.7159 34.2318 99.2672 34.3964 99.9621C34.5518 100.655 34.5439 101.461 34.3726 102.378Z" fill="#FFBF00"/>
<path d="M33.6939 74.9338L41.2841 81.8895L40.0459 84.5868L33.8372 83.8164L38.4455 88.073L37.2073 90.7704L26.9654 89.5911L28.1569 86.9956L34.674 87.7989L29.8449 83.3185L30.9079 81.0028L37.4759 81.8295L32.59 77.3385L33.6939 74.9338Z" fill="#FFBF00"/>
<path d="M37.9407 69.1737L39.5991 66.9525L47.4693 72.792L45.8109 75.0132L37.9407 69.1737Z" fill="#FFBF00"/>
<path d="M53.9675 65.7733C53.3954 66.3278 52.7715 66.7954 52.0956 67.1764C51.4198 67.5573 50.7991 67.7934 50.2336 67.8847L49.4567 65.7793C49.9759 65.6807 50.5062 65.4929 51.0478 65.216C51.5895 64.9391 52.0622 64.6049 52.466 64.2136C53.2332 63.47 53.4303 62.9069 53.0573 62.5245C52.861 62.3232 52.606 62.2832 52.2923 62.4045C51.9788 62.5126 51.5274 62.7478 50.9381 63.1101C50.2952 63.5113 49.7332 63.821 49.2522 64.0393C48.7646 64.2508 48.2522 64.3362 47.7151 64.2955C47.178 64.2549 46.6706 63.9897 46.1929 63.4998C45.7741 63.0704 45.5156 62.5705 45.4174 62C45.3127 61.4227 45.3943 60.8085 45.6624 60.1571C45.9372 59.4992 46.4145 58.8408 47.0942 58.182C47.5586 57.732 48.0686 57.3421 48.6242 57.0124C49.1733 56.676 49.7176 56.4421 50.2572 56.3108L51.0843 58.3871C50.0579 58.6771 49.2284 59.1286 48.5958 59.7418C48.1987 60.1266 47.9682 60.4675 47.9042 60.7644C47.8338 61.0546 47.8902 61.2936 48.0734 61.4815C48.2566 61.6694 48.5017 61.7059 48.8087 61.5911C49.1157 61.4763 49.5572 61.2377 50.1332 60.8752C50.7828 60.4674 51.3481 60.1611 51.8289 59.9561C52.3099 59.7378 52.819 59.6491 53.3562 59.6897C53.8935 59.7171 54.401 59.9758 54.8787 60.4656C55.2909 60.8883 55.5462 61.3849 55.6443 61.9554C55.7425 62.5259 55.6575 63.1434 55.3892 63.808C55.1144 64.4659 54.6405 65.121 53.9675 65.7733Z" fill="#FFBF00"/>
<path d="M64.1836 57.6537C63.5199 58.0884 62.8219 58.4285 62.0895 58.674C61.357 58.9195 60.7057 59.0338 60.1355 59.0168L59.7718 56.8115C60.298 56.8127 60.8519 56.7288 61.4336 56.5598C62.0152 56.3907 62.5403 56.1528 63.0087 55.8459C63.8987 55.2629 64.1973 54.7493 63.9045 54.3051C63.7504 54.0713 63.5086 53.9843 63.1791 54.0439C62.8522 54.0907 62.3666 54.2359 61.7223 54.4794C61.0182 54.751 60.4104 54.9483 59.899 55.0713C59.3825 55.1865 58.8655 55.1737 58.3479 55.033C57.8304 54.8923 57.3841 54.5375 57.0091 53.9686C56.6804 53.4699 56.5216 52.9323 56.5329 52.3559C56.539 51.7716 56.7344 51.1862 57.119 50.5995C57.5114 50.0077 58.1019 49.4536 58.8904 48.937C59.4291 48.5841 60.0011 48.2987 60.6064 48.0807C61.2066 47.8549 61.7828 47.7285 62.335 47.7014L62.7533 49.8877C61.6952 49.9783 60.7992 50.264 60.0653 50.7448C59.6047 51.0465 59.3152 51.3366 59.1969 51.6149C59.0734 51.8855 59.0836 52.1299 59.2274 52.3481C59.3712 52.5663 59.604 52.6481 59.9258 52.5935C60.2475 52.539 60.7241 52.3886 61.3554 52.1423C62.0674 51.8656 62.6777 51.6723 63.1864 51.5622C63.6978 51.4392 64.2122 51.448 64.7298 51.5888C65.25 51.7166 65.6976 52.0649 66.0726 52.6338C66.3962 53.1247 66.5524 53.6584 66.5411 54.2348C66.5298 54.8113 66.3305 55.3993 65.9433 55.9988C65.5509 56.5906 64.9643 57.1423 64.1836 57.6537Z" fill="#FFBF00"/>
<path d="M77.6639 40.0023L82.1598 38.8472C83.2011 38.5796 84.175 38.5369 85.0816 38.7191C85.9881 38.9013 86.7557 39.2929 87.3842 39.894C88.0128 40.495 88.4511 41.2753 88.6992 42.2348C88.9472 43.1942 88.9418 44.0885 88.683 44.9176C88.4242 45.7466 87.9421 46.4593 87.2369 47.0556C86.5316 47.6519 85.6583 48.0838 84.6169 48.3513L80.1211 49.5065L77.6639 40.0023ZM83.9537 46.234C84.7686 46.0247 85.3609 45.6263 85.7305 45.0391C86.1092 44.4495 86.1933 43.7474 85.9826 42.9327C85.772 42.1181 85.358 41.5439 84.7407 41.2103C84.1323 40.8743 83.4207 40.8109 82.6057 41.0203L80.9079 41.4566L82.2558 46.6703L83.9537 46.234Z" fill="#FFBF00"/>
<path d="M94.8107 36.7057L97.5754 36.5058L98.2868 46.2799L95.5221 46.4799L94.8107 36.7057Z" fill="#FFBF00"/>
<path d="M111.475 41.5725L113.925 41.8168L113.518 45.8766C112.917 46.2221 112.243 46.4659 111.493 46.608C110.743 46.7501 110.005 46.7848 109.277 46.7123C108.25 46.6099 107.347 46.3031 106.569 45.7919C105.792 45.2714 105.209 44.6006 104.82 43.7794C104.431 42.9582 104.285 42.0577 104.384 41.0777C104.482 40.0977 104.803 39.2437 105.348 38.5156C105.892 37.7874 106.601 37.2501 107.475 36.9036C108.35 36.5478 109.31 36.422 110.355 36.5262C111.27 36.6174 112.076 36.8532 112.773 37.2338C113.47 37.6144 114.032 38.1182 114.459 38.7452L112.535 40.1653C111.946 39.3712 111.189 38.9282 110.265 38.8361C109.425 38.7523 108.722 38.9415 108.157 39.4037C107.593 39.8565 107.269 40.5075 107.184 41.3568C107.129 41.8981 107.197 42.3951 107.388 42.8477C107.579 43.2909 107.872 43.6548 108.268 43.9393C108.665 44.2145 109.134 44.3791 109.675 44.4331C110.207 44.4861 110.717 44.4286 111.205 44.2604L111.475 41.5725Z" fill="#FFBF00"/>
<path d="M121.727 38.8719L124.398 39.6114L121.768 49.052L119.097 48.3124L121.727 38.8719Z" fill="#FFBF00"/>
<path d="M132.704 44.9339L129.963 43.6729L130.888 41.6738L138.881 45.3511L137.955 47.3502L135.227 46.0951L132.026 53.0091L129.502 51.8479L132.704 44.9339Z" fill="#FFBF00"/>
<path d="M145.173 58.8926L141.816 56.463L140.071 57.5506L137.78 55.8925L147.054 50.5071L149.265 52.1077L147.012 62.574L144.676 60.8831L145.173 58.8926ZM145.718 56.7642L146.544 53.4905L143.677 55.2868L145.718 56.7642Z" fill="#FFBF00"/>
<path d="M157.818 59.2851L159.706 61.3335L154.072 66.4941L157.257 69.9494L155.628 71.4415L150.555 65.9378L157.818 59.2851Z" fill="#FFBF00"/>
<path d="M168.245 88.9018L166.3 89.799L162.988 82.6622L171.887 78.5575L175.123 85.5292L173.178 86.4263L171.097 81.9436L169.597 82.6356L171.43 86.5849L169.548 87.4528L167.715 83.5034L166.088 84.254L168.245 88.9018Z" fill="#FFBF00"/>
<path d="M169.06 99.8675C168.825 98.8681 168.823 97.9197 169.053 97.0226C169.295 96.1324 169.739 95.3721 170.387 94.7416C171.035 94.1112 171.836 93.6846 172.79 93.4618C173.744 93.2391 174.652 93.2668 175.513 93.5449C176.374 93.8231 177.107 94.3087 177.711 95.0015C178.326 95.7014 178.75 96.551 178.985 97.5505C179.19 98.4228 179.22 99.2448 179.076 100.017C178.931 100.788 178.622 101.474 178.149 102.073L176.192 100.719C176.792 99.9267 176.988 99.0901 176.781 98.2088C176.66 97.6909 176.437 97.254 176.114 96.8982C175.793 96.5514 175.397 96.3133 174.925 96.1837C174.465 96.0612 173.967 96.0625 173.43 96.1876C172.894 96.3128 172.443 96.5333 172.076 96.8489C171.72 97.1716 171.476 97.5593 171.342 98.0121C171.211 98.474 171.206 98.9639 171.328 99.4818C171.535 100.363 172.084 101.026 172.974 101.47L171.823 103.55C171.133 103.222 170.551 102.745 170.078 102.117C169.604 101.49 169.265 100.74 169.06 99.8675Z" fill="#FFBF00"/>
<path d="M170.707 113.872C170.69 112.836 170.894 111.899 171.319 111.061C171.745 110.233 172.341 109.575 173.107 109.086C173.874 108.607 174.743 108.36 175.714 108.344C176.684 108.328 177.561 108.547 178.343 109.001C179.125 109.465 179.742 110.104 180.194 110.918C180.646 111.741 180.881 112.671 180.898 113.707C180.914 114.743 180.71 115.675 180.285 116.503C179.86 117.341 179.264 117.999 178.497 118.478C177.73 118.967 176.862 119.219 175.891 119.234C174.92 119.25 174.044 119.026 173.262 118.563C172.48 118.109 171.862 117.47 171.41 116.647C170.958 115.832 170.724 114.907 170.707 113.872ZM173.003 113.834C173.011 114.329 173.135 114.775 173.375 115.173C173.614 115.57 173.946 115.882 174.37 116.109C174.803 116.335 175.295 116.444 175.845 116.435C176.396 116.426 176.879 116.301 177.295 116.061C177.721 115.821 178.047 115.498 178.274 115.093C178.501 114.688 178.61 114.238 178.602 113.744C178.594 113.249 178.47 112.803 178.23 112.406C177.99 112.008 177.654 111.696 177.221 111.47C176.797 111.243 176.31 111.135 175.759 111.144C175.209 111.152 174.721 111.277 174.295 111.517C173.879 111.757 173.558 112.08 173.331 112.485C173.104 112.89 172.995 113.34 173.003 113.834Z" fill="#FFBF00"/>
<path d="M177.993 135.925L168.409 133.881L168.888 131.649L174.903 128.509L169.796 127.42L170.366 124.764L179.95 126.809L179.471 129.04L173.456 132.18L178.563 133.27L177.993 135.925Z" fill="#FFBF00"/>
<path d="M164.248 143.916C164.689 142.979 165.285 142.227 166.036 141.661C166.783 141.104 167.608 140.774 168.513 140.671C169.413 140.577 170.303 140.735 171.182 141.146C172.062 141.557 172.753 142.138 173.256 142.888C173.755 143.647 174.029 144.491 174.077 145.42C174.121 146.357 173.922 147.294 173.481 148.232C173.04 149.169 172.446 149.917 171.699 150.474C170.948 151.04 170.123 151.37 169.222 151.465C168.318 151.567 167.426 151.413 166.547 151.002C165.667 150.591 164.978 150.006 164.479 149.248C163.976 148.497 163.702 147.653 163.658 146.716C163.61 145.787 163.807 144.854 164.248 143.916ZM166.328 144.889C166.117 145.336 166.032 145.791 166.073 146.253C166.114 146.715 166.274 147.14 166.556 147.529C166.845 147.922 167.24 148.235 167.738 148.469C168.237 148.702 168.727 148.802 169.206 148.768C169.695 148.739 170.13 148.592 170.512 148.328C170.894 148.063 171.191 147.707 171.401 147.26C171.612 146.812 171.697 146.357 171.656 145.895C171.616 145.433 171.45 145.006 171.161 144.613C170.88 144.224 170.49 143.913 169.991 143.68C169.492 143.447 168.998 143.345 168.51 143.374C168.03 143.407 167.599 143.556 167.217 143.821C166.835 144.085 166.538 144.441 166.328 144.889Z" fill="#FFBF00"/>
<path d="M153.673 160.478L157.747 163.722L156.036 159.101L156.814 158.141L161.588 158.759L157.641 155.581L159.258 153.585L166.912 159.747L165.471 161.525L158.88 160.652L161.177 166.826L159.736 168.604L152.065 162.463L153.673 160.478Z" fill="#FFBF00"/>
<path d="M145.702 172.543L143.519 169.77L145.711 168.055L147.92 170.861L154.756 173.475L152.441 175.285L148.185 173.653L148.765 178.162L146.639 179.825L145.702 172.543Z" fill="#FFBF00"/>
<path d="M123.506 182.115L127.403 180.751L127.497 178.709L130.156 177.778L129.331 188.411L126.764 189.309L119.44 181.528L122.152 180.579L123.506 182.115ZM124.946 183.769L127.169 186.301L127.316 182.939L124.946 183.769Z" fill="#FFBF00"/>
<path d="M100.833 193.754L103.153 183.717L106.11 183.463L108.494 189.243L109.932 183.133L112.889 182.879L116.901 192.369L114.056 192.614L111.549 186.549L110.025 192.962L107.486 193.18L104.974 187.059L103.469 193.526L100.833 193.754Z" fill="#FFBF00"/>
<path d="M88.5145 184.218L92.6049 184.883L93.672 183.127L96.4634 183.58L90.6132 192.559L87.9185 192.121L85.2147 181.754L88.0614 182.216L88.5145 184.218ZM88.9864 186.366L89.7245 189.663L91.4739 186.77L88.9864 186.366Z" fill="#FFBF00"/>
<path d="M75.6363 181.179L77.0431 181.733L78.0026 179.312L80.5817 180.328L76.9707 189.439L72.8024 187.797C71.9774 187.472 71.316 187.051 70.8182 186.534C70.3169 186.025 70.0028 185.45 69.8757 184.808C69.7451 184.175 69.8157 183.516 70.0874 182.83C70.3488 182.171 70.7338 181.655 71.2424 181.284C71.739 180.918 72.3288 180.709 73.012 180.657L72.18 177.019L74.9415 178.107L75.6363 181.179ZM72.6926 183.856C72.5241 184.282 72.528 184.664 72.7043 185.005C72.8807 185.345 73.2337 185.619 73.7635 185.828L75.1963 186.392L76.2538 183.724L74.821 183.16C74.2912 182.951 73.8471 182.907 73.4884 183.026C73.1264 183.155 72.8611 183.431 72.6926 183.856Z" fill="#FFBF00"/>
<path d="M61.909 182.655L58.0591 180.066C57.1673 179.466 56.489 178.767 56.0241 177.97C55.5592 177.174 55.3437 176.342 55.3775 175.475C55.4114 174.608 55.7059 173.764 56.2611 172.944C56.8163 172.123 57.4908 171.535 58.2845 171.179C59.0783 170.824 59.9328 170.711 60.8482 170.843C61.7635 170.974 62.6671 171.34 63.5588 171.94L67.4088 174.529L61.909 182.655ZM62.4105 173.836C61.7126 173.367 61.0207 173.189 60.3349 173.302C59.6413 173.41 59.0588 173.812 58.5874 174.508C58.1159 175.205 57.9599 175.894 58.1193 176.575C58.2709 177.252 58.6956 177.825 59.3935 178.294L60.8474 179.272L63.8644 174.814L62.4105 173.836Z" fill="#FFBF00"/>
<path d="M43.1171 154.887L44.8645 153.554L49.5111 159.606L48.1309 160.659L43.1703 159.83C42.6872 159.753 42.3159 159.737 42.0565 159.782C41.7897 159.833 41.5599 159.932 41.3669 160.079C41.1147 160.272 40.9834 160.507 40.9731 160.785C40.9629 161.063 41.0828 161.364 41.3329 161.69C41.5546 161.979 41.826 162.194 42.1471 162.337C42.4551 162.477 42.7912 162.532 43.1555 162.501L43.4961 164.829C42.7585 164.911 42.0347 164.788 41.3247 164.461C40.6147 164.134 39.9727 163.597 39.3986 162.849C38.9439 162.257 38.6396 161.661 38.4859 161.062C38.3264 160.456 38.3318 159.889 38.5021 159.36C38.6594 158.829 38.9754 158.382 39.4503 158.02C39.8732 157.697 40.345 157.484 40.8655 157.38C41.3729 157.275 42.063 157.3 42.9358 157.456L45.4191 157.886L43.1171 154.887Z" fill="#FFBF00"/>
<path d="M40.4626 145.5C40.8394 146.25 40.9948 147.007 40.9287 147.77C40.8626 148.533 40.5709 149.253 40.0535 149.928C39.5235 150.599 38.7867 151.17 37.8429 151.641C36.8991 152.111 36.0031 152.355 35.155 152.371C34.2943 152.383 33.5378 152.187 32.8856 151.782C32.2334 151.377 31.7189 150.799 31.3421 150.049C30.9695 149.306 30.8163 148.554 30.8823 147.79C30.9484 147.027 31.2464 146.31 31.7764 145.639C32.2938 144.964 33.0244 144.391 33.9682 143.92C34.912 143.45 35.8142 143.208 36.6749 143.196C37.523 143.18 38.2732 143.374 38.9254 143.779C39.5776 144.184 40.09 144.757 40.4626 145.5ZM38.4331 146.512C38.2237 146.095 37.8579 145.865 37.3356 145.823C36.8008 145.777 36.0948 145.973 35.2179 146.41C34.3409 146.848 33.7648 147.292 33.4895 147.742C33.2016 148.188 33.1624 148.619 33.3717 149.036C33.5852 149.462 33.9594 149.698 34.4942 149.744C35.0166 149.786 35.7162 149.588 36.5932 149.151C37.4701 148.713 38.0525 148.271 38.3404 147.825C38.6157 147.375 38.6466 146.937 38.4331 146.512Z" fill="#FFBF00"/>
<path d="M26.0667 135.877L35.4494 133.048L36.2543 135.7L28.9224 137.911L29.4509 139.653L27.4001 140.271L26.0667 135.877Z" fill="#FFBF00"/>
<path d="M23.721 125.309C23.5438 123.911 23.8163 122.757 24.5383 121.848C25.2604 120.938 26.3947 120.386 27.9411 120.192C29.0523 120.052 30.0383 120.148 30.8991 120.482C31.7495 120.808 32.4329 121.338 32.9493 122.073C33.4646 122.798 33.7874 123.674 33.9176 124.702C33.9868 125.248 33.9883 125.78 33.922 126.296C33.865 126.811 33.7477 127.259 33.57 127.639L31.4709 126.887C31.7444 126.373 31.8354 125.755 31.7439 125.032C31.6559 124.338 31.395 123.802 30.9614 123.423C30.5173 123.037 29.9248 122.853 29.1839 122.871C29.7265 123.367 30.0548 124.064 30.1686 124.963C30.246 125.574 30.192 126.15 30.0065 126.69C29.8118 127.232 29.5023 127.685 29.078 128.049C28.6433 128.405 28.1249 128.621 27.523 128.696C26.8656 128.779 26.2657 128.685 25.7234 128.415C25.1707 128.137 24.7236 127.727 24.3823 127.187C24.0306 126.639 23.8102 126.013 23.721 125.309ZM28.1135 124.558C28.063 124.16 27.9108 123.85 27.6569 123.628C27.3937 123.407 27.0769 123.32 26.7065 123.367C26.3454 123.412 26.0695 123.574 25.8789 123.852C25.6779 124.122 25.6038 124.465 25.6566 124.882C25.7059 125.271 25.8575 125.576 26.1115 125.798C26.3642 126.011 26.6804 126.093 27.0601 126.046C27.4305 125.999 27.7116 125.841 27.9033 125.572C28.0939 125.294 28.1639 124.956 28.1135 124.558Z" fill="#FFBF00"/>
<circle cx="102" cy="115" r="60" fill="#FFBF00"/>
<path opacity="0.3" d="M146.998 119.873L120.645 81.844L57.0479 99.4697L86.2985 135.943L146.998 119.873Z" fill="#08112B"/>
<path opacity="0.6" d="M147 119.873L86.3008 135.943L114.402 150L147 119.873Z" fill="#08112B"/>
<path opacity="0.75" d="M86.3003 135.943L114.402 150L71.6875 147.03L86.3003 135.943Z" fill="#08112B"/>
<path opacity="0.6" d="M86.2985 135.943L57.0479 99.4697L71.6857 147.03L86.2985 135.943Z" fill="#08112B"/>
<path opacity="0.1" d="M120.622 81.844L74.4355 80L57 99.4697L120.622 81.844Z" fill="#08112B"/>
<path opacity="0.75" d="M120.647 81.844L134.311 89.7468L147 119.873L120.647 81.844Z" fill="#08112B"/>
<defs>
<filter id="filter0_d" x="0" y="13" width="204" height="204" filterUnits="userSpaceOnUse" color-interpolation-filters="sRGB">
<feFlood flood-opacity="0" result="BackgroundImageFix"/>
<feColorMatrix in="SourceAlpha" type="matrix" values="0 0 0 0 0 0 0 0 0 0 0 0 0 0 0 0 0 0 127 0"/>
<feOffset/>
<feGaussianBlur stdDeviation="5"/>
<feColorMatrix type="matrix" values="0 0 0 0 0.0313726 0 0 0 0 0.0666667 0 0 0 0 0.168627 0 0 0 0.5 0"/>
<feBlend mode="normal" in2="BackgroundImageFix" result="effect1_dropShadow"/>
<feBlend mode="normal" in="SourceGraphic" in2="effect1_dropShadow" result="shape"/>
</filter>
</defs>
</svg>
