<svg width="204" height="245" viewBox="0 0 204 245" fill="none" xmlns="http://www.w3.org/2000/svg">
<path d="M52 0H152V245L102 230L52 245V0Z" fill="#FFBF00"/>
<g filter="url(#filter0_d)">
<circle cx="102" cy="115" r="90" fill="#040816"/>
<circle cx="102" cy="115" r="90" stroke="#FFBF00" stroke-width="4"/>
</g>
<path d="M22.5264 113.842L22.6438 110.304L33.138 110.653L33.0207 114.191L22.5264 113.842Z" fill="#FFBF00"/>
<path d="M36.1439 95.155C35.9007 95.9903 35.5718 96.7798 35.1574 97.5234C34.7362 98.2546 34.2931 98.8284 33.8281 99.2447L31.6704 97.4267C32.0885 97.028 32.4707 96.5562 32.8168 96.0114C33.1533 95.4638 33.4013 94.9164 33.5606 94.3691C33.6976 93.8986 33.7523 93.55 33.7246 93.3231C33.6873 93.0934 33.5775 92.952 33.3951 92.8987C33.184 92.837 32.9864 92.9251 32.8026 93.1631C32.6215 93.3915 32.3805 93.7899 32.0796 94.3584C31.6899 95.0884 31.3284 95.686 30.9951 96.1512C30.6521 96.6136 30.2135 96.9751 29.6794 97.2357C29.1356 97.4936 28.4989 97.516 27.7694 97.3029C27.1359 97.1178 26.6117 96.7719 26.1968 96.2653C25.7819 95.7586 25.5278 95.1113 25.4343 94.3235C25.3436 93.5261 25.4451 92.6233 25.7386 91.6152C25.9399 90.9239 26.2138 90.2695 26.5603 89.6519C26.9 89.0218 27.2879 88.4945 27.7241 88.0697L29.8884 89.8115C29.1013 90.6546 28.5791 91.5178 28.3219 92.4011C28.0675 93.2748 28.1515 93.7734 28.5738 93.8968C28.7754 93.9557 28.9667 93.8709 29.1478 93.6425C29.3193 93.4113 29.5493 93.0149 29.8378 92.4533C30.2054 91.7273 30.5621 91.1283 30.9079 90.6563C31.244 90.1815 31.6792 89.8138 32.2134 89.5531C32.7504 89.2828 33.3836 89.2542 34.1131 89.4674C34.7466 89.6524 35.2708 89.9983 35.6857 90.505C36.091 91.0088 36.3438 91.6609 36.4441 92.4611C36.5375 93.2489 36.4375 94.1469 36.1439 95.155Z" fill="#FFBF00"/>
<path d="M41.2485 71.7298L42.9509 69.1691L46.6447 71.6327C46.6592 72.3876 46.5351 73.1703 46.2724 73.9808C46.0098 74.7913 45.6598 75.5255 45.2224 76.1833C44.6023 77.116 43.8545 77.8253 42.9791 78.3112C42.0953 78.7916 41.167 79.0138 40.1942 78.978C39.2185 78.9283 38.2898 78.6093 37.4079 78.0211C36.5261 77.433 35.8783 76.7004 35.4646 75.8235C35.0482 74.9327 34.8977 73.9849 35.0133 72.9802C35.1262 71.9616 35.4981 70.9777 36.1293 70.0283C36.6996 69.1706 37.3545 68.5016 38.0941 68.0212C38.831 67.527 39.6234 67.2382 40.4715 67.1547L40.8772 70.1479C39.8712 70.2703 39.1163 70.7103 38.6124 71.4681C38.1806 72.1177 38.0328 72.7644 38.1692 73.4083C38.3055 74.0521 38.7106 74.5988 39.3845 75.0482C40.0417 75.4866 40.6945 75.6516 41.343 75.5432C41.997 75.4264 42.5344 75.0516 42.9552 74.4187C43.2043 74.044 43.3717 73.6387 43.4572 73.203L41.2485 71.7298Z" fill="#FFBF00"/>
<path d="M67.1598 43.4573C68.0274 43.0235 68.8546 42.7887 69.6413 42.7531C70.428 42.7175 71.1296 42.881 71.7461 43.2436C72.3626 43.6061 72.8492 44.1454 73.2061 44.8614C73.563 45.5774 73.7009 46.2911 73.6197 47.0025C73.5385 47.7139 73.2473 48.3738 72.7461 48.9822C72.2449 49.5906 71.5605 50.1118 70.6929 50.5456L69.3378 51.2231L70.4888 53.5322L67.3225 55.1154L62.6386 45.7181L67.1598 43.4573ZM69.2738 48.2029C69.7031 47.9882 69.9783 47.7332 70.0993 47.438C70.2158 47.1337 70.187 46.8071 70.0131 46.458C69.8391 46.109 69.5979 45.8942 69.2896 45.8136C68.9768 45.724 68.6057 45.7866 68.1764 46.0012L67.0226 46.5782L68.12 48.7798L69.2738 48.2029Z" fill="#FFBF00"/>
<path d="M90.6529 44.1908L89.7052 44.3435L90.1239 46.9501L86.629 47.5133L84.9637 37.1462L89.9543 36.342C90.9119 36.1877 91.7715 36.2112 92.5331 36.4126C93.2947 36.614 93.9156 36.9799 94.3958 37.5102C94.876 38.0406 95.1795 38.7007 95.3064 39.4906C95.4253 40.2311 95.3614 40.9049 95.1145 41.5119C94.8677 42.1189 94.4545 42.6362 93.875 43.0638L96.5658 45.912L92.8339 46.5134L90.6529 44.1908ZM91.7819 40.0586C91.72 39.6735 91.554 39.3964 91.2837 39.2272C91.0119 39.0482 90.639 38.9969 90.1651 39.0732L88.8916 39.2785L89.2817 41.7073L90.5553 41.5021C91.0292 41.4257 91.3679 41.2648 91.5716 41.0193C91.7736 40.7639 91.8437 40.4436 91.7819 40.0586Z" fill="#FFBF00"/>
<path d="M112.873 47.0424C111.756 46.8706 110.789 46.484 109.97 45.8826C109.152 45.2812 108.554 44.5316 108.176 43.6336C107.799 42.7258 107.69 41.7529 107.849 40.7151C108.008 39.6772 108.403 38.7868 109.033 38.0439C109.664 37.2912 110.46 36.7509 111.421 36.4231C112.381 36.0954 113.42 36.0174 114.537 36.1892C115.654 36.3609 116.622 36.7475 117.44 37.3489C118.258 37.9503 118.856 38.7049 119.233 39.6127C119.611 40.5107 119.72 41.4786 119.561 42.5165C119.402 43.5543 119.007 44.4497 118.376 45.2024C117.746 45.9453 116.95 46.4806 115.99 46.8084C115.029 47.1362 113.99 47.2141 112.873 47.0424ZM113.307 44.2105C113.742 44.2773 114.149 44.2336 114.526 44.0792C114.916 43.9165 115.243 43.6583 115.51 43.3048C115.778 42.9413 115.953 42.4976 116.033 41.9738C116.113 41.4499 116.079 40.9792 115.931 40.5618C115.784 40.1345 115.548 39.7897 115.224 39.5274C114.912 39.2567 114.538 39.088 114.103 39.0211C113.668 38.9542 113.256 39.0021 112.867 39.1649C112.489 39.3192 112.166 39.5781 111.898 39.9416C111.631 40.2952 111.458 40.7339 111.378 41.2578C111.297 41.7816 111.331 42.2572 111.478 42.6845C111.626 43.102 111.857 43.446 112.169 43.7167C112.493 43.979 112.873 44.1436 113.307 44.2105Z" fill="#FFBF00"/>
<path d="M143.53 46.976L134.859 54.3248L131.762 52.7566L132.531 41.4059L135.922 43.1229L135.393 49.7147L140.433 45.4077L143.53 46.976Z" fill="#FFBF00"/>
<path d="M153.845 54.5684L156.497 56.9414L149.471 64.819L146.819 62.446L153.845 54.5684Z" fill="#FFBF00"/>
<path d="M166.221 67.9812L169.007 72.3419C169.637 73.3278 170.011 74.3118 170.128 75.2938C170.259 76.2789 170.124 77.191 169.723 78.0303C169.327 78.8779 168.679 79.5905 167.778 80.168C166.877 80.7454 165.959 81.0366 165.025 81.0417C164.096 81.0551 163.209 80.7987 162.362 80.2723C161.529 79.749 160.798 78.9944 160.168 78.0085L157.381 73.6478L166.221 67.9812ZM162.41 76.3926C162.82 77.033 163.326 77.4268 163.931 77.5739C164.549 77.7241 165.19 77.586 165.856 77.1597C166.521 76.7333 166.91 76.2103 167.025 75.5906C167.153 74.974 167.012 74.3454 166.603 73.705L165.803 72.4537L161.611 75.1413L162.41 76.3926Z" fill="#FFBF00"/>
<path d="M172.351 101.04L169.773 101.734L167.512 93.3014L177.652 90.5744L179.862 98.8183L177.284 99.5118L175.975 94.6292L174.787 94.9486L175.937 99.2372L173.474 99.8995L172.324 95.6109L170.992 95.9693L172.351 101.04Z" fill="#FFBF00"/>
<path d="M173.466 117.594L173.499 116.634L170.86 116.545L170.979 113.007L181.473 113.361L181.303 118.413C181.271 119.383 181.082 120.222 180.738 120.931C180.394 121.64 179.916 122.179 179.303 122.548C178.69 122.918 177.984 123.089 177.185 123.062C176.435 123.037 175.786 122.845 175.238 122.486C174.69 122.127 174.261 121.623 173.953 120.972L170.641 123.066L170.768 119.289L173.466 117.594ZM177.305 119.494C177.694 119.507 177.998 119.398 178.216 119.165C178.444 118.932 178.566 118.576 178.582 118.097L178.626 116.807L176.167 116.724L176.124 118.014C176.108 118.493 176.2 118.857 176.402 119.104C176.614 119.351 176.915 119.481 177.305 119.494Z" fill="#FFBF00"/>
<path d="M171.837 152.972L170.016 156.007L163.371 152.009L160.933 156.073L158.581 154.658L162.84 147.558L171.837 152.972Z" fill="#FFBF00"/>
<path d="M147.004 170.945L145.192 168.983L151.595 163.049L158.72 170.761L152.461 176.563L150.649 174.602L154.356 171.166L153.522 170.262L150.265 173.281L148.535 171.408L151.791 168.389L150.855 167.376L147.004 170.945Z" fill="#FFBF00"/>
<path d="M130.986 189.272L126.488 179.784L129.116 178.534L134.763 181.13L132.72 176.82L135.835 175.339L140.333 184.826L137.705 186.076L132.059 183.48L134.102 187.79L130.986 189.272Z" fill="#FFBF00"/>
<path d="M111.417 183.158C112.278 183.037 113.133 183.012 113.981 183.084C114.821 183.167 115.527 183.335 116.097 183.588L115.328 186.302C114.793 186.085 114.206 185.93 113.567 185.839C112.929 185.757 112.328 185.756 111.764 185.836C111.278 185.905 110.938 185.998 110.743 186.117C110.549 186.245 110.465 186.403 110.492 186.592C110.522 186.809 110.684 186.953 110.977 187.023C111.259 187.094 111.722 187.15 112.363 187.191C113.189 187.246 113.883 187.329 114.444 187.442C115.006 187.564 115.516 187.816 115.974 188.195C116.433 188.585 116.715 189.156 116.821 189.909C116.913 190.562 116.814 191.182 116.523 191.769C116.232 192.355 115.746 192.853 115.067 193.262C114.377 193.673 113.513 193.951 112.473 194.098C111.76 194.199 111.051 194.218 110.345 194.156C109.631 194.106 108.991 193.969 108.424 193.746L109.121 191.057C110.213 191.428 111.215 191.549 112.126 191.42C113.027 191.293 113.447 191.012 113.386 190.576C113.356 190.368 113.2 190.228 112.918 190.157C112.636 190.096 112.18 190.049 111.55 190.017C110.737 189.981 110.044 189.902 109.471 189.781C108.9 189.669 108.386 189.424 107.929 189.044C107.461 188.666 107.175 188.1 107.069 187.348C106.977 186.694 107.076 186.074 107.367 185.488C107.66 184.911 108.15 184.413 108.838 183.992C109.518 183.583 110.377 183.305 111.417 183.158Z" fill="#FFBF00"/>
<path d="M72.7165 180.734L73.6688 178.159L81.5581 181.087L80.8035 183.127L76.0278 185.099C75.6109 185.274 75.3127 185.446 75.1333 185.615C74.9538 185.783 74.8277 185.965 74.7548 186.162C74.6646 186.406 74.6796 186.625 74.7998 186.819C74.9071 187.019 75.1155 187.176 75.4248 187.291C75.7249 187.402 76.0356 187.427 76.3571 187.365C76.6786 187.303 76.9634 187.152 77.2116 186.914L79.2516 189.095C78.6164 189.659 77.8633 190.009 76.9922 190.144C76.1176 190.289 75.1694 190.172 74.1475 189.793C73.3694 189.504 72.7271 189.121 72.2208 188.646C71.7144 188.17 71.3792 187.635 71.2152 187.04C71.0512 186.446 71.0819 185.844 71.3074 185.235C71.5086 184.691 71.8149 184.223 72.2262 183.832C72.6247 183.446 73.2678 183.077 74.1555 182.724L76.0353 181.965L72.7165 180.734Z" fill="#FFBF00"/>
<path d="M60.6994 170.017C61.4453 170.573 61.9787 171.238 62.2997 172.013C62.6068 172.791 62.6803 173.631 62.5202 174.534C62.3462 175.44 61.9193 176.35 61.2397 177.265C60.5601 178.181 59.8154 178.848 59.0058 179.267C58.1822 179.689 57.3575 179.86 56.5318 179.781C55.6921 179.704 54.8993 179.388 54.1535 178.832C53.4077 178.277 52.8813 177.61 52.5742 176.833C52.2531 176.057 52.1796 175.217 52.3537 174.312C52.5138 173.409 52.9336 172.499 53.6132 171.584C54.2929 170.669 55.0445 170 55.8681 169.579C56.6777 169.16 57.5024 168.988 58.3421 169.065C59.1679 169.144 59.9536 169.461 60.6994 170.017ZM59.0093 172.293C58.3677 171.815 57.5194 172.287 56.4641 173.708C55.4089 175.129 55.2021 176.078 55.8436 176.556C56.4852 177.034 57.3336 176.563 58.3888 175.142C59.444 173.72 59.6509 172.771 59.0093 172.293Z" fill="#FFBF00"/>
<path d="M38.121 162.282L46.3079 155.764L48.501 158.527L42.396 163.388L43.5111 164.793L41.4293 166.451L38.121 162.282Z" fill="#FFBF00"/>
<path d="M28.8216 146.672C28.4224 145.745 28.2535 144.859 28.315 144.015C28.3726 143.163 28.6719 142.391 29.2128 141.7C29.7536 141.009 30.5382 140.441 31.5665 139.997C32.6681 139.522 33.7198 139.335 34.7214 139.436C35.7191 139.528 36.603 139.887 37.3732 140.513C38.1395 141.13 38.7519 141.971 39.2105 143.036C39.4596 143.615 39.6279 144.196 39.7155 144.779C39.8123 145.358 39.8205 145.883 39.7399 146.353L36.9636 146.163C37.0977 145.539 37.0165 144.882 36.72 144.193C36.4789 143.633 36.1435 143.233 35.7139 142.994C35.2712 142.749 34.7598 142.687 34.1799 142.807C34.7554 143.157 35.2092 143.718 35.5412 144.49C35.7943 145.078 35.9009 145.68 35.8613 146.296C35.8217 146.912 35.633 147.473 35.2952 147.978C34.9575 148.483 34.4856 148.867 33.8797 149.128C33.2095 149.418 32.5442 149.504 31.8838 149.386C31.2195 149.259 30.6211 148.956 30.0887 148.478C29.5563 148 29.134 147.398 28.8216 146.672ZM32.9407 144.632C32.8142 144.338 32.6242 144.137 32.3707 144.029C32.108 143.924 31.8252 143.938 31.5223 144.068C31.2193 144.199 31.0201 144.394 30.9248 144.653C30.8294 144.912 30.845 145.189 30.9715 145.483C31.098 145.777 31.288 145.978 31.5415 146.086C31.795 146.194 32.0732 146.183 32.3762 146.052C32.6791 145.922 32.8829 145.725 32.9874 145.462C33.0828 145.203 33.0672 144.926 32.9407 144.632Z" fill="#FFBF00"/>
<circle cx="102" cy="115" r="60" fill="#FFBF00"/>
<rect opacity="0.15" x="67" y="80" width="70" height="70" rx="8" fill="#08112B"/>
<path opacity="0.3" fill-rule="evenodd" clip-rule="evenodd" d="M78.4655 107.405H87.0013V124.718H89.4896V129.882H78.4655V124.718H80.9985V112.567H78.4655V107.405ZM81.2421 104.611L78.3385 102.497L80.4424 99.3747L77 98.2484L78.0193 94.7125L81.5613 95.8103V92H85.22V95.8103L88.762 94.7125L89.7813 98.2484L86.3389 99.3747L88.4428 102.497L85.5392 104.611L83.3907 101.617L81.2421 104.611ZM97.4837 113.761C97.4837 114.694 98.7158 115.208 100.727 115.942L100.729 115.943C103.372 116.909 106.991 118.231 106.991 122.486C106.991 126.981 103.703 130 98.8153 130C94.7139 130 92.1158 128.777 92.1158 128.777V122.361H96.5089L96.8144 124.785C97.4772 124.944 98.1558 125.021 98.8359 125.013C101.331 125.013 101.331 123.523 101.331 123.035C101.331 121.987 100.106 121.527 98.1117 120.815L98.1115 120.814C95.4756 119.898 91.8652 118.644 91.8652 114.156C91.8652 109.907 95.0846 107.159 100.068 107.159C103.826 107.159 105.93 108.09 105.93 108.09V114.527H101.637L101.293 112.103C100.885 112.024 100.47 111.983 100.054 111.978C98.4447 111.978 97.4837 112.645 97.4837 113.761ZM122.339 112.545C121.713 112.41 121.075 112.34 120.434 112.335L120.458 112.346C116.8 112.346 114.624 114.719 114.624 118.701C114.624 122.604 116.573 124.76 120.115 124.76C120.692 124.763 121.267 124.705 121.831 124.586V121.641L119.319 121.253V117.254H126.986V128.542C126.986 128.542 124.423 129.968 119.618 129.968C113.018 129.968 108.899 125.783 108.899 119.05C108.899 111.953 113.615 107.191 120.651 107.191C124.632 107.191 127 108.14 127 108.14V115.097H122.7L122.339 112.545Z" fill="#08112B"/>
<defs>
<filter id="filter0_d" x="0" y="13" width="204" height="204" filterUnits="userSpaceOnUse" color-interpolation-filters="sRGB">
<feFlood flood-opacity="0" result="BackgroundImageFix"/>
<feColorMatrix in="SourceAlpha" type="matrix" values="0 0 0 0 0 0 0 0 0 0 0 0 0 0 0 0 0 0 127 0"/>
<feOffset/>
<feGaussianBlur stdDeviation="5"/>
<feColorMatrix type="matrix" values="0 0 0 0 0.0313726 0 0 0 0 0.0666667 0 0 0 0 0.168627 0 0 0 0.5 0"/>
<feBlend mode="normal" in2="BackgroundImageFix" result="effect1_dropShadow"/>
<feBlend mode="normal" in="SourceGraphic" in2="effect1_dropShadow" result="shape"/>
</filter>
</defs>
</svg>
