<svg width="204" height="245" viewBox="0 0 204 245" fill="none" xmlns="http://www.w3.org/2000/svg">
<path d="M52 0H152V245L102 230L52 245V0Z" fill="#FFBF00"/>
<g filter="url(#filter0_d)">
<circle cx="102" cy="115" r="90" fill="#040816"/>
<circle cx="102" cy="115" r="90" stroke="#FFBF00" stroke-width="4"/>
</g>
<path d="M29.7442 110.149L30.7775 111.262L33.2275 111.433L33.0348 114.177L23.2347 113.493L23.4274 110.749L27.5014 111.033L23.6938 106.955L23.9081 103.903L27.967 108.21L33.723 104.377L33.4969 107.597L29.7442 110.149Z" fill="#FFBF00"/>
<path d="M36.801 93.6352C36.347 95.0186 35.6164 95.9724 34.6094 96.4968C33.6052 97.0123 32.4114 97.0433 31.0278 96.5897L25.8661 94.8976L26.7305 92.2638L31.8124 93.9298C33.3024 94.4182 34.2409 94.0727 34.628 92.8933C35.0122 91.7227 34.4593 90.8932 32.9693 90.4048L27.8874 88.7388L28.7387 86.1449L33.9004 87.8371C35.2839 88.2906 36.226 89.0267 36.7267 90.0454C37.2303 91.0552 37.255 92.2518 36.801 93.6352Z" fill="#FFBF00"/>
<path d="M41.1711 72.9217C41.6363 72.5532 42.1313 72.3472 42.656 72.3035C43.1728 72.2549 43.6797 72.3877 44.1767 72.7019C44.9025 73.1608 45.2779 73.8068 45.3029 74.6397C45.3279 75.4727 44.991 76.4412 44.2921 77.5453L41.4616 82.0167L33.1785 76.7793L35.8593 72.5444C36.5282 71.4877 37.2346 70.808 37.9785 70.5054C38.7145 70.1978 39.4138 70.2534 40.0764 70.6724C40.4708 70.9218 40.7634 71.2449 40.9542 71.6416C41.142 72.0254 41.2143 72.4521 41.1711 72.9217ZM36.3383 75.5307L37.9358 76.5408L38.9541 74.932C39.4533 74.1434 39.4347 73.5795 38.8983 73.2403C38.3698 72.9061 37.8559 73.1333 37.3567 73.9219L36.3383 75.5307ZM42.4802 76.6646C42.9993 75.8445 42.9789 75.2573 42.4188 74.9032C41.8587 74.549 41.3191 74.782 40.7999 75.6022L39.5569 77.5658L41.2371 78.6283L42.4802 76.6646Z" fill="#FFBF00"/>
<path d="M55.4521 61.3391L56.9477 62.8725L51.3123 68.3631L44.4695 61.3476L49.9746 55.984L51.4702 57.5174L47.9305 60.9661L49.084 62.1488L52.2026 59.1104L53.6493 60.5936L50.5308 63.632L51.782 64.9149L55.4521 61.3391Z" fill="#FFBF00"/>
<path d="M65.2959 53.6664L63.9954 54.4523L65.35 56.6914L62.9657 58.1323L57.8677 49.7055L61.721 47.3769C62.4837 46.916 63.2237 46.6442 63.941 46.5614C64.6534 46.4706 65.3054 46.5698 65.897 46.8589C66.4836 47.14 66.9687 47.5976 67.3523 48.2316C67.7213 48.8416 67.8997 49.4626 67.8874 50.0947C67.8784 50.7139 67.6866 51.312 67.3121 51.889L70.7327 53.4386L68.1798 54.9813L65.2959 53.6664ZM64.944 49.687C64.706 49.2938 64.3971 49.064 64.0172 48.9977C63.6372 48.9314 63.2024 49.0462 62.7127 49.3422L61.3881 50.1426L62.8811 52.6105L64.2057 51.81C64.6954 51.5141 65.0015 51.1866 65.1242 50.8275C65.2419 50.4604 65.1819 50.0803 64.944 49.687Z" fill="#FFBF00"/>
<path d="M83.5986 38.4551L86.449 47.8314L84.2654 48.4945L78.6072 44.7552L80.126 49.7514L77.5272 50.5406L74.6769 41.1642L76.8604 40.5012L82.5186 44.2405L80.9998 39.2442L83.5986 38.4551Z" fill="#FFBF00"/>
<path d="M102.115 43.9041L102.244 46.0461L94.3756 46.5179L93.7873 36.7179L101.473 36.257L101.602 38.399L96.6599 38.6953L96.759 40.3473L101.113 40.0862L101.237 42.1582L96.8834 42.4193L96.991 44.2113L102.115 43.9041Z" fill="#FFBF00"/>
<path d="M113.183 39.4194L110.213 38.9301L110.571 36.7614L119.232 38.1883L118.875 40.357L115.918 39.87L114.681 47.3706L111.946 46.9201L113.183 39.4194Z" fill="#FFBF00"/>
<path d="M132.691 50.8107L131.877 52.8026L124.559 49.8142L128.285 40.7009L135.433 43.6202L134.619 45.6121L130.022 43.7351L129.394 45.2713L133.444 46.925L132.656 48.8518L128.607 47.1981L127.925 48.8645L132.691 50.8107Z" fill="#FFBF00"/>
<path d="M141.216 58.6782C140.565 58.224 139.99 57.7029 139.49 57.1148C138.99 56.5266 138.642 55.9651 138.447 55.4302L140.364 54.2759C140.558 54.7642 140.841 55.2467 141.214 55.7233C141.587 56.1999 142.003 56.5986 142.462 56.9192C143.335 57.5283 143.923 57.6149 144.228 57.1788C144.388 56.9493 144.38 56.6929 144.202 56.4095C144.038 56.1237 143.722 55.7273 143.257 55.2202C142.743 54.668 142.335 54.1777 142.031 53.7491C141.732 53.3129 141.552 52.8288 141.491 52.2969C141.431 51.7649 141.595 51.2197 141.986 50.6613C142.328 50.1717 142.769 49.8253 143.31 49.6222C143.856 49.4115 144.473 49.3757 145.161 49.5149C145.857 49.6594 146.592 50.0015 147.365 50.5412C147.893 50.9099 148.37 51.3345 148.798 51.8149C149.23 52.2876 149.561 52.775 149.791 53.277L147.912 54.4748C147.435 53.5274 146.837 52.8025 146.118 52.3003C145.667 51.985 145.289 51.8241 144.987 51.8175C144.689 51.8033 144.465 51.9033 144.316 52.1175C144.166 52.3316 144.176 52.5778 144.346 52.8559C144.516 53.1339 144.833 53.5201 145.296 54.0142C145.817 54.5717 146.223 55.0659 146.514 55.4967C146.818 55.9253 147.001 56.4055 147.061 56.9375C147.135 57.4672 146.977 58.0112 146.587 58.5696C146.25 59.0516 145.811 59.3941 145.271 59.5972C144.73 59.8003 144.109 59.8334 143.408 59.6965C142.711 59.552 141.981 59.2125 141.216 58.6782Z" fill="#FFBF00"/>
<path d="M159.768 77.879C159.203 77.022 158.873 76.1326 158.78 75.2108C158.699 74.2916 158.853 73.4242 159.243 72.6084C159.633 71.7926 160.237 71.115 161.055 70.5758C161.874 70.0365 162.735 69.7485 163.639 69.7118C164.542 69.675 165.397 69.8774 166.203 70.3189C167.021 70.7631 167.713 71.4137 168.279 72.2707C168.772 73.0186 169.084 73.7798 169.215 74.5543C169.346 75.3288 169.293 76.079 169.056 76.805L166.752 76.2108C167.042 75.2599 166.937 74.4066 166.439 73.6509C166.146 73.2069 165.786 72.8738 165.36 72.6516C164.939 72.4372 164.485 72.3507 163.998 72.3922C163.524 72.4364 163.057 72.6099 162.597 72.9129C162.137 73.216 161.79 73.5791 161.555 74.0023C161.333 74.4282 161.237 74.8767 161.269 75.3479C161.305 75.8269 161.47 76.2884 161.763 76.7324C162.261 77.4881 163.005 77.9203 163.993 78.0289L163.632 80.3796C162.871 80.3109 162.16 80.064 161.5 79.6387C160.839 79.2135 160.262 78.6269 159.768 77.879Z" fill="#FFBF00"/>
<path d="M170.158 94.5609L168.146 95.2956L165.445 87.9059L174.65 84.5445L177.289 91.7633L175.277 92.498L173.58 87.8564L172.028 88.423L173.523 92.5124L171.577 93.2231L170.082 89.1337L168.399 89.7484L170.158 94.5609Z" fill="#FFBF00"/>
<path d="M173.008 106.674L172.832 105.173L170.245 105.476L169.922 102.723L179.655 101.58L180.178 106.03C180.281 106.91 180.223 107.692 180.003 108.376C179.792 109.059 179.433 109.608 178.928 110.025C178.432 110.44 177.817 110.691 177.085 110.777C176.38 110.859 175.744 110.765 175.177 110.493C174.62 110.23 174.157 109.81 173.788 109.233L170.976 111.691L170.629 108.744L173.008 106.674ZM176.758 107.996C177.212 107.943 177.548 107.758 177.764 107.441C177.981 107.124 178.056 106.683 177.989 106.118L177.809 104.588L174.959 104.923L175.139 106.452C175.205 107.018 175.376 107.43 175.651 107.689C175.935 107.947 176.304 108.049 176.758 107.996Z" fill="#FFBF00"/>
<path d="M179.089 122.004L179.421 119.024L181.597 119.266L180.631 127.956L178.454 127.715L178.784 124.749L171.258 123.913L171.563 121.168L179.089 122.004Z" fill="#FFBF00"/>
<path d="M177.753 136.674L176.949 139.335L167.54 136.494L168.344 133.833L177.753 136.674Z" fill="#FFBF00"/>
<path d="M170.031 150.12L168.126 149.11L166.099 152.932L164.206 151.929L166.234 148.107L163.265 146.534L164.564 144.086L173.223 148.674L169.621 155.464L167.729 154.461L170.031 150.12Z" fill="#FFBF00"/>
<path d="M164.297 163.164L162.55 165.326L154.904 159.154L156.651 156.992L164.297 163.164Z" fill="#FFBF00"/>
<path d="M144.775 171.871L143.382 170.243L149.363 165.131L155.735 172.577L149.892 177.571L148.5 175.944L152.256 172.733L151.182 171.477L147.872 174.307L146.525 172.732L149.835 169.903L148.67 168.541L144.775 171.871Z" fill="#FFBF00"/>
<path d="M141.425 183.243L137.278 185.31C136.317 185.789 135.376 186.034 134.453 186.046C133.53 186.057 132.7 185.835 131.961 185.379C131.223 184.924 130.633 184.253 130.191 183.368C129.749 182.483 129.568 181.608 129.648 180.745C129.728 179.881 130.05 179.084 130.615 178.354C131.179 177.625 131.941 177.02 132.902 176.541L137.049 174.474L141.425 183.243ZM133.99 178.471C133.238 178.845 132.743 179.358 132.504 180.009C132.257 180.664 132.322 181.367 132.697 182.119C133.072 182.87 133.595 183.345 134.267 183.542C134.931 183.743 135.639 183.656 136.39 183.281L137.957 182.5L135.556 177.69L133.99 178.471Z" fill="#FFBF00"/>
<path d="M107.231 183.433C108.022 183.375 108.797 183.417 109.556 183.558C110.315 183.699 110.939 183.916 111.428 184.208L110.669 186.313C110.211 186.056 109.686 185.86 109.096 185.725C108.506 185.591 107.932 185.544 107.374 185.584C106.312 185.662 105.801 185.966 105.84 186.496C105.86 186.775 106.029 186.969 106.345 187.077C106.653 187.195 107.148 187.304 107.829 187.404C108.576 187.509 109.203 187.631 109.709 187.772C110.216 187.923 110.661 188.185 111.044 188.559C111.427 188.934 111.643 189.461 111.692 190.14C111.736 190.736 111.612 191.283 111.321 191.782C111.03 192.29 110.574 192.706 109.952 193.033C109.321 193.359 108.535 193.557 107.595 193.625C106.953 193.672 106.314 193.644 105.68 193.54C105.046 193.446 104.482 193.277 103.986 193.032L104.688 190.917C105.656 191.352 106.577 191.538 107.452 191.474C108.001 191.434 108.396 191.321 108.635 191.135C108.875 190.959 108.985 190.74 108.966 190.479C108.947 190.219 108.784 190.034 108.476 189.926C108.169 189.817 107.68 189.717 107.009 189.625C106.252 189.521 105.625 189.394 105.128 189.243C104.622 189.102 104.177 188.844 103.794 188.47C103.402 188.105 103.182 187.583 103.132 186.904C103.09 186.318 103.214 185.775 103.505 185.277C103.796 184.778 104.257 184.361 104.887 184.025C105.519 183.698 106.3 183.501 107.231 183.433Z" fill="#FFBF00"/>
<path d="M87.4282 184.576L87.7435 182.457L95.526 183.614L94.0835 193.307L86.481 192.177L86.7963 190.058L91.6846 190.785L91.9278 189.151L87.6211 188.511L87.9261 186.461L92.2328 187.102L92.4965 185.329L87.4282 184.576Z" fill="#FFBF00"/>
<path d="M75.407 181.296L76.8105 181.859L77.7801 179.442L80.3531 180.473L76.704 189.569L72.5456 187.902C71.7225 187.572 71.0634 187.147 70.5681 186.627C70.0694 186.115 69.758 185.538 69.6338 184.895C69.5062 184.261 69.5796 183.601 69.8542 182.917C70.1183 182.259 70.5054 181.745 71.0153 181.376C71.5132 181.013 72.1036 180.807 72.7866 180.759L71.9712 177.114L74.7262 178.218L75.407 181.296ZM72.4532 183.959C72.283 184.383 72.2852 184.766 72.4599 185.108C72.6346 185.449 72.9862 185.726 73.5147 185.938L74.9442 186.51L76.0129 183.847L74.5834 183.274C74.0549 183.062 73.6112 183.015 73.2523 183.133C72.8899 183.259 72.6235 183.534 72.4532 183.959Z" fill="#FFBF00"/>
<path d="M51.6993 175.661L60.8315 170.154L63.0489 171.747L60.7282 182.145L58.2947 180.398L59.8608 173.663L53.9281 177.262L51.6993 175.661Z" fill="#FFBF00"/>
<path d="M45.4458 169.61L43.5558 167.582L50.7285 160.904L52.6185 162.932L45.4458 169.61Z" fill="#FFBF00"/>
<path d="M43.176 150.341C43.7143 151.215 44.016 152.114 44.081 153.038C44.1331 153.96 43.9516 154.822 43.5364 155.625C43.1213 156.428 42.4964 157.087 41.6616 157.6C40.8269 158.114 39.9573 158.375 39.0527 158.383C38.1482 158.392 37.3002 158.163 36.5088 157.696C35.7045 157.227 35.0331 156.555 34.4948 155.68C34.025 154.918 33.7368 154.147 33.6303 153.369C33.5237 152.591 33.6001 151.842 33.8593 151.124L36.1436 151.79C35.8245 152.731 35.9023 153.587 36.3771 154.358C36.656 154.811 37.005 155.156 37.4239 155.391C37.838 155.618 38.2891 155.719 38.7771 155.693C39.2523 155.663 39.7244 155.504 40.1935 155.216C40.6625 154.927 41.0211 154.575 41.2694 154.16C41.5048 153.741 41.6142 153.296 41.5976 152.824C41.5761 152.344 41.4259 151.877 41.1469 151.424C40.6722 150.653 39.9425 150.198 38.9579 150.059L39.3923 147.721C40.1507 147.813 40.8535 148.082 41.5006 148.528C42.1477 148.973 42.7062 149.578 43.176 150.341Z" fill="#FFBF00"/>
<path d="M33.3248 133.334L35.3592 132.664L37.8244 140.136L28.5169 143.203L26.1087 135.904L28.143 135.234L29.6915 139.927L31.2605 139.41L29.8963 135.275L31.8641 134.627L33.2283 138.761L34.9303 138.2L33.3248 133.334Z" fill="#FFBF00"/>
<circle cx="102" cy="115" r="60" fill="#FFBF00"/>
<path opacity="0.15" d="M137.477 92.2372C136.985 90.6851 135.805 89.4241 134.33 88.648L104.334 74.485C103.548 74.097 102.663 74 101.876 74C101.089 74 100.204 74 99.4172 74.194L69.422 88.454C67.9469 89.133 66.8651 90.3941 66.4717 92.0432L59.0958 123.958C58.8008 125.608 59.1942 127.257 60.1776 128.615L80.9284 153.933C82.1085 155.098 83.7804 155.874 85.4522 155.971H118.496C120.266 156.165 121.938 155.389 123.02 153.933L143.771 128.615C144.754 127.257 145.148 125.608 144.951 123.958L137.477 92.2372Z" fill="#08112B"/>
<path opacity="0.3" d="M133.212 121.859C133.112 121.859 133.013 121.859 133.013 121.763C133.013 121.667 132.814 121.667 132.616 121.667C132.218 121.571 131.821 121.571 131.424 121.571C131.225 121.571 131.026 121.571 130.827 121.476H130.728C129.635 121.38 128.443 121.188 127.35 120.901C127.052 120.805 126.754 120.518 126.655 120.23C126.754 120.23 126.655 120.23 126.655 120.23L125.86 120.039C126.257 117.26 126.059 114.386 125.463 111.608C124.767 108.83 123.575 106.148 121.986 103.753L122.582 103.178V103.082C122.582 102.795 122.681 102.412 122.88 102.22C123.774 101.454 124.668 100.879 125.661 100.304C125.86 100.208 126.059 100.113 126.257 100.017C126.655 99.8251 126.953 99.6335 127.35 99.4419C127.45 99.3461 127.549 99.3461 127.648 99.2503C127.748 99.1545 127.648 99.1545 127.648 99.0587C128.542 98.3881 128.741 97.2386 128.046 96.3764C127.748 95.9932 127.152 95.7058 126.655 95.7058C126.158 95.7058 125.661 95.8974 125.264 96.1848L125.165 96.2806C125.065 96.3764 124.966 96.4722 124.867 96.4722C124.569 96.7596 124.271 97.047 124.072 97.3344C123.973 97.5259 123.774 97.6217 123.674 97.7175C122.979 98.4839 122.085 99.2503 121.191 99.8251C120.992 99.9209 120.793 100.017 120.595 100.017C120.495 100.017 120.297 100.017 120.197 99.9209H120.098L119.303 100.4C118.508 99.6335 117.614 98.8671 116.82 98.1007C113.144 95.3226 108.574 93.5982 103.904 93.1192L103.805 92.3528V92.4486C103.507 92.257 103.408 91.9696 103.308 91.6822C103.308 90.6285 103.308 89.5747 103.507 88.4251V88.3293C103.507 88.1377 103.606 87.9461 103.606 87.7545C103.706 87.3713 103.706 86.9881 103.805 86.6049V86.0301C103.904 85.0721 103.11 84.1142 102.116 84.0184C101.52 83.9226 100.924 84.21 100.427 84.6889C100.03 85.0721 99.8313 85.5511 99.8313 86.0301V86.5091C99.8313 86.8923 99.9306 87.2755 100.03 87.6587C100.129 87.8503 100.129 88.0419 100.129 88.2335V88.3293C100.328 89.3831 100.328 90.4369 100.328 91.5864C100.229 91.8738 100.129 92.1612 99.8313 92.3528V92.5444L99.7319 93.3108C98.6391 93.4066 97.5463 93.5982 96.3542 93.7898C91.6849 94.7478 87.413 97.1428 84.1345 100.496L83.5384 100.113H83.4391C83.3397 100.113 83.2404 100.208 83.0417 100.208C82.843 100.208 82.6443 100.113 82.4456 100.017C81.5515 99.3461 80.6574 98.5797 79.962 97.8133C79.8626 97.6217 79.6639 97.5259 79.5646 97.4301C79.2665 97.1428 79.0678 96.8554 78.7698 96.568C78.6705 96.4722 78.5711 96.4722 78.4718 96.3764C78.3724 96.2806 78.3724 96.2806 78.3724 96.2806C77.975 95.9932 77.4783 95.8016 76.9816 95.8016C76.3855 95.8016 75.8887 95.9932 75.5907 96.4722C74.9946 97.3344 75.1933 98.4839 75.9881 99.1545C76.0874 99.1545 76.0874 99.2503 76.0874 99.2503C76.0874 99.2503 76.2861 99.4419 76.3855 99.4419C76.6835 99.6335 77.0809 99.8251 77.4783 100.017C77.677 100.113 77.8757 100.208 78.0744 100.304C79.0678 100.879 80.0613 101.454 80.8561 102.22C81.0548 102.412 81.2535 102.795 81.1541 103.082V102.986L81.7502 103.561C81.6509 103.753 81.5515 103.849 81.4522 104.04C78.3724 108.734 77.0809 114.291 77.975 119.751L77.1803 119.943C77.1803 120.039 77.0809 120.039 77.0809 120.039C76.9816 120.326 76.6835 120.518 76.3855 120.709C75.2927 120.997 74.1999 121.188 73.0077 121.284C72.809 121.284 72.6103 121.284 72.4116 121.38C72.0142 121.38 71.6168 121.476 71.2195 121.476C71.1201 121.476 71.0208 121.571 70.8221 121.571C70.7227 121.571 70.7227 121.571 70.6234 121.667C69.5306 121.859 68.8351 122.817 69.0338 123.871C69.2325 124.733 70.1266 125.308 71.0208 125.212C71.2195 125.212 71.3188 125.212 71.5175 125.116C71.6168 125.116 71.6168 125.116 71.6168 125.02C71.6168 124.924 71.9149 125.02 72.0142 125.02C72.4116 124.924 72.809 124.733 73.107 124.637C73.3057 124.541 73.5044 124.445 73.7031 124.445H73.8025C74.8953 124.062 75.8887 123.775 77.0809 123.583H77.1803C77.4783 123.583 77.7763 123.679 77.975 123.871C78.0744 123.871 78.0744 123.966 78.0744 123.966L78.9685 123.871C80.4587 128.277 83.2404 132.205 87.1149 135.079C88.009 135.75 88.8038 136.324 89.7973 136.803L89.3005 137.474C89.3005 137.57 89.3999 137.57 89.3999 137.57C89.5986 137.857 89.5986 138.24 89.4992 138.528C89.1019 139.486 88.5058 140.444 87.9097 141.306V141.402C87.8103 141.593 87.711 141.689 87.5123 141.881C87.3136 142.072 87.1149 142.455 86.8169 142.839C86.7175 142.934 86.7175 143.03 86.6182 143.126C86.6182 143.126 86.6182 143.222 86.5188 143.222C86.0221 144.18 86.4195 145.329 87.3136 145.808C87.5123 145.904 87.8103 146 88.009 146C88.8038 146 89.4992 145.521 89.8966 144.85C89.8966 144.85 89.8966 144.755 89.996 144.755C89.996 144.659 90.0953 144.563 90.1947 144.467C90.294 144.084 90.4927 143.797 90.5921 143.413L90.7907 142.839C91.0888 141.785 91.5855 140.827 92.0823 139.869C92.2809 139.581 92.579 139.39 92.877 139.294C92.9764 139.294 92.9764 139.294 92.9764 139.198L93.3738 138.432C96.1555 139.486 99.0365 139.965 102.017 139.965C103.805 139.965 105.593 139.773 107.382 139.294C108.474 139.103 109.567 138.719 110.561 138.432L110.958 139.103C111.057 139.103 111.057 139.103 111.057 139.198C111.355 139.294 111.654 139.486 111.852 139.773C112.349 140.731 112.846 141.689 113.144 142.743V142.839L113.342 143.413C113.442 143.797 113.541 144.18 113.74 144.467C113.839 144.563 113.839 144.659 113.939 144.755C113.939 144.755 113.939 144.85 114.038 144.85C114.435 145.521 115.131 146 115.925 146C116.223 146 116.422 145.904 116.72 145.808C117.118 145.617 117.515 145.234 117.614 144.755C117.714 144.276 117.714 143.797 117.515 143.318C117.515 143.222 117.416 143.222 117.416 143.222C117.416 143.126 117.316 143.03 117.217 142.934C117.018 142.551 116.82 142.264 116.522 141.976C116.422 141.785 116.323 141.689 116.124 141.497V141.306C115.429 140.444 114.932 139.486 114.535 138.528C114.435 138.24 114.435 137.857 114.634 137.57C114.634 137.474 114.733 137.474 114.733 137.474L114.435 136.708C119.502 133.738 123.376 129.139 125.165 123.679L125.959 123.775C126.059 123.775 126.059 123.679 126.059 123.679C126.257 123.487 126.556 123.392 126.854 123.392H126.953C128.046 123.583 129.139 123.871 130.132 124.254H130.231C130.43 124.35 130.629 124.445 130.827 124.445C131.225 124.637 131.523 124.829 131.92 124.924C132.02 124.924 132.119 125.02 132.318 125.02C132.417 125.02 132.417 125.02 132.516 125.116C132.715 125.212 132.814 125.212 133.013 125.212C133.907 125.212 134.702 124.637 135 123.871C134.901 122.817 134.106 122.05 133.212 121.859ZM104.501 118.889L101.818 120.134L99.1359 118.889L98.4404 116.111L100.328 113.812H103.308L105.196 116.111L104.501 118.889ZM120.694 112.662C121.191 114.674 121.29 116.686 121.091 118.697L111.654 116.111C110.759 115.919 110.263 115.057 110.461 114.195C110.561 113.907 110.66 113.716 110.859 113.524L118.31 107.01C119.403 108.734 120.197 110.65 120.694 112.662ZM115.329 103.465L107.183 109.022C106.488 109.405 105.494 109.309 104.997 108.639C104.799 108.447 104.699 108.255 104.699 107.968L104.103 98.2923C108.474 98.7713 112.349 100.591 115.329 103.465ZM97.3476 98.5797L99.3346 98.1965L98.8378 107.776C98.8378 108.639 98.043 109.309 97.1489 109.309C96.8509 109.309 96.6522 109.213 96.3542 109.118L88.1084 103.465C90.6914 101.07 93.8705 99.3461 97.3476 98.5797ZM85.2273 107.01L92.579 113.333C93.2744 113.907 93.3738 114.865 92.7777 115.536C92.579 115.823 92.3803 115.919 91.9829 116.015L82.3463 118.697C82.0482 114.674 83.0417 110.555 85.2273 107.01ZM83.5384 123.2L93.3738 121.571C94.1685 121.571 94.9633 122.05 95.0626 122.817C95.162 123.104 95.162 123.487 94.9633 123.775L91.1881 132.588C87.711 130.385 84.9293 127.032 83.5384 123.2ZM106.09 135.079C104.699 135.366 103.308 135.558 101.818 135.558C99.7319 135.558 97.5463 135.175 95.5594 134.6L100.427 126.074C100.924 125.499 101.719 125.308 102.414 125.691C102.712 125.882 102.911 126.074 103.209 126.361L107.978 134.696C107.382 134.792 106.786 134.887 106.09 135.079ZM118.21 126.744C116.72 129.044 114.634 131.055 112.25 132.492L108.375 123.487C108.176 122.721 108.574 121.955 109.269 121.667C109.567 121.571 109.865 121.476 110.163 121.476L120.098 123.104C119.601 124.445 119.005 125.691 118.21 126.744Z" fill="#08112B"/>
<defs>
<filter id="filter0_d" x="0" y="13" width="204" height="204" filterUnits="userSpaceOnUse" color-interpolation-filters="sRGB">
<feFlood flood-opacity="0" result="BackgroundImageFix"/>
<feColorMatrix in="SourceAlpha" type="matrix" values="0 0 0 0 0 0 0 0 0 0 0 0 0 0 0 0 0 0 127 0"/>
<feOffset/>
<feGaussianBlur stdDeviation="5"/>
<feColorMatrix type="matrix" values="0 0 0 0 0.0313726 0 0 0 0 0.0666667 0 0 0 0 0.168627 0 0 0 0.5 0"/>
<feBlend mode="normal" in2="BackgroundImageFix" result="effect1_dropShadow"/>
<feBlend mode="normal" in="SourceGraphic" in2="effect1_dropShadow" result="shape"/>
</filter>
</defs>
</svg>
