<svg width="1905" height="501" viewBox="0 0 1905 501" fill="none" xmlns="http://www.w3.org/2000/svg">
<path d="M85.7109 99.1489C85.7109 99.1489 333.791 74.7789 328.271 144.389L320.621 284.209L143.231 298.559C143.231 298.559 137.281 218.329 85.7109 99.1489Z" fill="#F3F4F7"/>
<path d="M561.021 0C561.021 0 467.891 29.28 352.291 92.7C339.291 99.82 324.901 107.45 309.531 115.24C251.361 144.73 179.461 176.42 119.611 190.63C54.4511 206.11 3.54115 200.86 0.221148 149.51C-7.04885 38.54 167.341 0 167.341 0H561.021Z" fill="#F1F2F5"/>
<path d="M647.711 0C644.411 3.52 541.361 41.17 578.351 74.2C615.341 107.23 711.121 16.3 854.461 0H647.711Z" fill="#F1F2F5"/>
<path d="M1139.82 0C1139.82 0 1326.09 22.54 1401.4 59.53C1476.71 96.52 1452.92 118.98 1435.75 126.91C1418.58 134.84 1369.69 190.32 1464.81 240.52C1559.93 290.72 1762.06 399.05 1871.71 270.91C1981.36 142.77 1787.93 17.17 1706.96 0H1139.82Z" fill="#F1F2F5"/>
<path d="M1779.01 316.37L1702.13 475.2L1634.9 443.2C1634.9 443.2 1669.48 298.24 1779.01 316.37Z" fill="#EBECF2"/>
<path d="M1785.84 154.48L1751.84 209.66L1616.1 163.09C1630.11 148.648 1642.55 132.763 1653.21 115.7C1661.55 102.584 1668.37 88.5644 1673.54 73.9102C1688.49 78.0001 1703.22 82.8667 1717.67 88.4902C1754.54 102.87 1798.97 126.69 1785.84 154.48Z" fill="#F6F7F9"/>
<path d="M1520.3 132.729C1525.3 121.799 1562.24 114.209 1644.48 144.619C1741.88 178.619 1777.91 166.999 1785.84 154.479L1730.35 271.929C1730.35 271.929 1495.42 195.889 1520.3 132.729Z" fill="#EBECF2"/>
<path d="M1520.3 132.73L1401.4 398.28C1401.4 398.28 1462.17 424.701 1558.61 500H1618.06L1678.83 386.39C1678.83 386.39 1684.77 362.61 1729.69 352.7C1774.61 342.79 1791.07 310.05 1773.89 287.59C1760.37 269.91 1724.41 238.42 1641.89 208.04C1561.26 178.38 1511.05 162.46 1520.3 132.73Z" fill="#F3F4F7"/>
<path d="M1783.07 374.201C1778.85 379.077 1774.16 383.529 1769.07 387.491C1766.57 389.581 1763.81 391.271 1761.07 393.121C1759.68 393.971 1758.26 394.761 1756.86 395.581C1756.15 395.981 1755.45 396.421 1754.73 396.791L1752.54 397.881C1747.34 400.526 1741.92 402.737 1736.35 404.491L1734.35 405.111C1732.78 405.581 1731.18 405.971 1729.59 406.411C1728 406.851 1726.38 407.161 1724.76 407.491C1723.14 407.821 1721.49 408.111 1719.82 408.341C1719 408.481 1718.14 408.571 1717.29 408.671L1715.98 408.811C1715.53 408.811 1715.12 408.891 1714.52 408.911H1713.98C1712.94 408.95 1711.91 408.774 1710.94 408.395C1709.98 408.016 1709.1 407.442 1708.37 406.708C1707.63 405.975 1707.06 405.098 1706.68 404.132C1706.3 403.166 1706.12 402.133 1706.16 401.095C1706.19 400.058 1706.44 399.04 1706.89 398.104C1707.34 397.168 1707.98 396.334 1708.76 395.655C1709.55 394.976 1710.46 394.467 1711.45 394.158C1712.45 393.849 1713.49 393.748 1714.52 393.861C1714.69 393.861 1715.04 393.861 1715.37 393.861H1716.37C1717.06 393.861 1717.75 393.861 1718.46 393.861C1719.87 393.861 1721.29 393.711 1722.72 393.601C1724.15 393.491 1725.59 393.301 1727.02 393.121C1728.45 392.941 1729.89 392.711 1731.31 392.441C1735.5 391.7 1739.63 390.674 1743.68 389.371C1745.18 388.891 1746.67 388.371 1748.15 387.811L1750.21 387.051C1750.9 386.791 1751.55 386.471 1752.21 386.181C1753.54 385.581 1754.9 385.021 1756.21 384.391C1758.78 383.001 1761.47 381.751 1763.91 380.121C1768.96 377.018 1773.69 373.431 1778.04 369.411L1778.21 369.261C1778.88 368.694 1779.73 368.399 1780.6 368.437C1781.48 368.474 1782.3 368.84 1782.92 369.462C1783.53 370.084 1783.89 370.915 1783.91 371.788C1783.94 372.662 1783.64 373.513 1783.06 374.171L1783.07 374.201Z" fill="#EBECF2"/>
<path d="M1767.88 423.079C1763.66 427.955 1758.97 432.406 1753.88 436.369C1751.38 438.459 1748.62 440.149 1745.88 441.999C1744.49 442.849 1743.07 443.639 1741.67 444.459C1740.96 444.859 1740.26 445.299 1739.54 445.669L1737.35 446.759C1731.52 449.732 1725.42 452.156 1719.14 453.999C1717.57 454.469 1715.97 454.869 1714.38 455.299C1713.38 455.529 1712.43 455.759 1711.44 455.969C1710.81 456.119 1710.18 456.249 1709.55 456.379C1707.91 456.689 1706.28 456.999 1704.61 457.229C1703.79 457.369 1702.93 457.469 1702.08 457.559C1701.66 457.619 1701.23 457.659 1700.77 457.699C1700.31 457.739 1699.91 457.779 1699.31 457.799H1698.77C1697.78 457.84 1696.79 457.686 1695.86 457.345C1694.93 457.004 1694.07 456.483 1693.34 455.811C1692.61 455.14 1692.02 454.332 1691.61 453.432C1691.19 452.532 1690.95 451.559 1690.91 450.569C1690.87 449.578 1691.02 448.588 1691.36 447.657C1691.71 446.726 1692.23 445.871 1692.9 445.141C1693.57 444.411 1694.38 443.821 1695.28 443.403C1696.18 442.986 1697.15 442.75 1698.14 442.709C1698.53 442.683 1698.92 442.683 1699.31 442.709C1699.48 442.709 1699.83 442.709 1700.16 442.709H1701.16C1701.85 442.709 1702.54 442.709 1703.25 442.709C1704.66 442.709 1706.08 442.559 1707.51 442.449C1708.94 442.339 1710.38 442.149 1711.81 441.969C1713.24 441.789 1714.68 441.559 1716.1 441.299C1716.99 441.139 1717.88 440.969 1718.76 440.779C1723.59 439.783 1728.33 438.406 1732.94 436.659L1735 435.899C1735.69 435.649 1736.34 435.319 1737 435.029C1738.33 434.429 1739.69 433.869 1741 433.239C1743.57 431.849 1746.26 430.599 1748.7 428.969C1753.75 425.866 1758.48 422.279 1762.83 418.259L1763 418.109C1763.67 417.542 1764.52 417.247 1765.39 417.284C1766.27 417.322 1767.09 417.688 1767.71 418.31C1768.32 418.931 1768.68 419.763 1768.7 420.636C1768.73 421.509 1768.43 422.361 1767.85 423.019L1767.88 423.079Z" fill="#EBECF2"/>
<path d="M1716.1 441.36C1716.99 441.2 1717.88 441.03 1718.76 440.84L1711.44 456C1710.81 456.15 1710.18 456.28 1709.55 456.41C1707.91 456.72 1706.28 457.03 1704.61 457.26C1703.79 457.4 1702.93 457.5 1702.08 457.59C1701.66 457.65 1701.23 457.69 1700.77 457.73C1700.31 457.77 1699.91 457.81 1699.31 457.83H1698.77C1696.77 457.913 1694.82 457.199 1693.34 455.843C1691.87 454.487 1690.99 452.601 1690.91 450.6C1690.83 448.599 1691.54 446.646 1692.9 445.172C1694.25 443.698 1696.14 442.823 1698.14 442.74C1698.53 442.715 1698.92 442.715 1699.31 442.74C1699.48 442.74 1699.83 442.74 1700.16 442.74H1701.16C1701.85 442.74 1702.54 442.74 1703.25 442.74C1704.66 442.74 1706.08 442.59 1707.51 442.48C1708.94 442.37 1710.38 442.18 1711.81 442C1713.24 441.82 1714.68 441.62 1716.1 441.36Z" fill="#F6F7F9"/>
<path d="M1743.66 389.398L1736.36 404.488L1734.36 405.108C1732.79 405.578 1731.19 405.968 1729.6 406.408C1728.01 406.848 1726.39 407.158 1724.77 407.488C1723.15 407.818 1721.5 408.108 1719.83 408.338C1719.01 408.478 1718.15 408.568 1717.3 408.668L1715.99 408.808C1715.54 408.808 1715.13 408.888 1714.53 408.908H1713.99C1712.95 408.947 1711.92 408.771 1710.95 408.392C1709.99 408.014 1709.11 407.439 1708.38 406.706C1707.64 405.973 1707.07 405.096 1706.69 404.13C1706.3 403.164 1706.13 402.13 1706.17 401.093C1706.2 400.056 1706.45 399.037 1706.9 398.101C1707.35 397.165 1707.99 396.332 1708.77 395.653C1709.56 394.974 1710.47 394.464 1711.46 394.155C1712.46 393.847 1713.5 393.746 1714.53 393.858C1714.7 393.858 1715.05 393.858 1715.38 393.858H1716.38C1717.07 393.858 1717.76 393.858 1718.47 393.858C1719.88 393.858 1721.3 393.708 1722.73 393.598C1724.16 393.488 1725.6 393.298 1727.03 393.118C1728.46 392.938 1729.9 392.708 1731.32 392.438C1735.5 391.706 1739.62 390.69 1743.66 389.398Z" fill="white"/>
<path d="M1678.83 386.391C1678.83 386.391 1661.66 439.591 1780.54 500.001H1618.04L1678.83 386.391Z" fill="white"/>
<path d="M1673.54 120.381C1699.21 120.381 1720.01 99.5761 1720.01 73.9114C1720.01 48.2467 1699.21 27.4414 1673.54 27.4414C1647.88 27.4414 1627.07 48.2467 1627.07 73.9114C1627.07 99.5761 1647.88 120.381 1673.54 120.381Z" fill="#F6F7F9"/>
<path d="M1717.67 88.4902C1715.59 94.782 1712.19 100.556 1707.69 105.425C1703.19 110.295 1697.71 114.147 1691.6 116.724C1685.5 119.3 1678.91 120.542 1672.29 120.365C1665.66 120.189 1659.15 118.598 1653.19 115.7C1661.53 102.585 1668.36 88.5652 1673.54 73.9102C1688.49 78.0001 1703.22 82.8667 1717.67 88.4902Z" fill="white"/>
<path d="M309.541 115.25C251.371 144.74 179.471 176.43 119.621 190.64C110.008 159.544 98.691 129.001 85.7212 99.1496C85.7212 99.1496 252.541 82.7596 309.541 115.25Z" fill="#F6F7F9"/>
<path d="M374.091 500.001C374.091 500.001 93.6814 518.791 62.2314 361.381C62.2314 361.381 55.2914 287.071 143.471 246.451C156.361 240.511 169.291 235.451 181.991 230.931C237.701 211.101 289.091 201.841 313.581 176.271C322.002 167.652 327.19 156.391 328.271 144.391C328.271 144.391 330.541 389.001 374.091 500.001Z" fill="#EBECF2"/>
<path d="M196.041 388.7L173.261 395.44L169.991 392C168.841 390.91 167.991 390.61 166.931 390.9L150.181 395.83C149.686 395.977 149.266 396.31 149.011 396.759C148.755 397.209 148.684 397.739 148.811 398.24L150.991 406.81L152.221 411.64L158.891 437.85C159.034 438.389 159.286 438.892 159.632 439.329C159.978 439.766 160.41 440.127 160.902 440.39C161.394 440.653 161.934 440.811 162.489 440.856C163.045 440.901 163.604 440.831 164.131 440.65L203.911 428.43C205.016 428.084 205.959 427.352 206.569 426.368C207.179 425.384 207.414 424.213 207.231 423.07L201.231 391.89C201.142 391.318 200.93 390.771 200.609 390.289C200.288 389.806 199.867 389.4 199.373 389.096C198.879 388.793 198.326 388.6 197.751 388.532C197.175 388.463 196.592 388.521 196.041 388.7Z" fill="#F3F4F7"/>
<path d="M208.601 423.001C208.411 424.287 207.881 425.499 207.068 426.513C206.254 427.527 205.185 428.306 203.971 428.771L164.201 440.981C161.881 441.691 160.201 440.241 160.471 437.731L163.261 409.781C163.428 408.433 163.955 407.155 164.788 406.081C165.62 405.008 166.727 404.178 167.991 403.681L207.991 391.761C210.271 391.081 211.871 392.691 211.561 395.331L208.601 423.001Z" fill="white"/>
<path d="M210.181 460.051L189.331 466.631L186.401 463.811C186.062 463.429 185.623 463.15 185.133 463.005C184.644 462.86 184.123 462.855 183.631 462.991L168.321 467.801C167.882 467.928 167.506 468.215 167.269 468.606C167.032 468.997 166.95 469.463 167.041 469.911L168.881 477.131L169.881 481.211L216.821 493.751C217.813 493.455 218.669 492.818 219.238 491.953C219.807 491.088 220.052 490.05 219.931 489.021L214.821 462.571C214.717 462.08 214.508 461.618 214.208 461.215C213.907 460.813 213.524 460.481 213.082 460.241C212.641 460.001 212.153 459.86 211.653 459.828C211.152 459.795 210.65 459.871 210.181 460.051Z" fill="#F3F4F7"/>
<path d="M175.671 298.999L150.411 305.859L146.661 301.519C145.341 300.139 144.331 299.729 143.211 300.029L124.591 305.029C124.025 305.215 123.554 305.616 123.279 306.145C123.004 306.674 122.948 307.289 123.121 307.859L125.811 318.289L127.311 324.159L135.481 355.909C135.623 356.54 135.89 357.135 136.266 357.659C136.642 358.184 137.121 358.628 137.672 358.964C138.224 359.3 138.837 359.521 139.476 359.615C140.115 359.709 140.766 359.673 141.391 359.509L185.321 346.999C186.576 346.579 187.632 345.712 188.289 344.563C188.945 343.414 189.156 342.064 188.881 340.769L181.541 303.109C180.931 300.139 178.311 298.289 175.671 298.999Z" fill="#F3F4F7"/>
<path d="M62.231 361.379C62.231 361.379 77.541 439.259 93.351 499.999H301.761C301.761 499.999 107.061 491.309 62.231 361.379Z" fill="white"/>
<path d="M306.711 220.919C304.809 207.277 298.146 194.746 287.898 185.541C277.65 176.337 264.479 171.051 250.711 170.619C247.405 170.522 244.097 170.703 240.821 171.159C229.379 172.758 218.669 177.714 210.044 185.4C201.419 193.085 195.267 203.156 192.366 214.339C189.464 225.521 189.944 237.313 193.745 248.222C197.545 259.132 204.495 268.67 213.716 275.629C222.937 282.589 234.015 286.658 245.549 287.321C257.082 287.985 268.554 285.213 278.512 279.357C288.47 273.501 296.469 264.823 301.495 254.421C306.522 244.02 308.351 232.361 306.751 220.919H306.711ZM254.781 271.289C249.194 272.142 243.492 271.877 238.008 270.509C232.524 269.141 227.366 266.699 222.833 263.322C218.3 259.946 214.483 255.703 211.602 250.84C208.722 245.977 206.835 240.591 206.052 234.993C205.269 229.396 205.605 223.698 207.041 218.232C208.477 212.765 210.983 207.638 214.416 203.147C217.848 198.657 222.138 194.892 227.036 192.072C231.935 189.252 237.344 187.433 242.951 186.719C245.346 186.384 247.764 186.25 250.181 186.319C260.909 186.602 271.137 190.913 278.83 198.395C286.522 205.877 291.116 215.982 291.696 226.697C292.276 237.413 288.799 247.954 281.959 256.223C275.119 264.491 265.415 269.881 254.781 271.319V271.289Z" fill="#F7F8FA"/>
<path d="M250.671 170.619L250.191 186.319C247.774 186.249 245.356 186.383 242.961 186.719C236.552 187.607 230.43 189.944 225.058 193.551C219.687 197.159 215.208 201.942 211.961 207.539L198.391 199.639C202.832 191.984 208.958 185.441 216.305 180.507C223.651 175.572 232.025 172.376 240.791 171.159C244.064 170.703 247.368 170.522 250.671 170.619Z" fill="white"/>
<path d="M302.541 252.112C297.194 264.548 287.693 274.742 275.663 280.95C263.634 287.158 249.821 288.996 236.586 286.149C223.352 283.302 211.516 275.947 203.103 265.341C194.69 254.735 190.222 241.537 190.461 228.002C195.911 226.142 201.311 224.382 206.631 222.672C205.542 229.907 206.331 237.301 208.921 244.144C211.511 250.987 215.817 257.05 221.424 261.75C227.031 266.451 233.752 269.632 240.943 270.988C248.133 272.344 255.551 271.829 262.485 269.494C269.419 267.158 275.637 263.08 280.542 257.651C285.446 252.221 288.874 245.622 290.495 238.487C292.116 231.352 291.876 223.92 289.799 216.904C287.721 209.888 283.876 203.524 278.631 198.422C283.677 196.29 288.61 193.9 293.411 191.262C300.438 199.554 305.015 209.64 306.628 220.389C308.241 231.137 306.826 242.123 302.541 252.112Z" fill="#F3F4F7"/>
<path d="M302.541 252.11C299.485 259.196 295.056 265.607 289.511 270.974C283.966 276.341 277.413 280.557 270.231 283.38L263.231 269.24C268.718 267.285 273.747 264.23 278.01 260.261C282.273 256.292 285.68 251.493 288.021 246.16L302.541 252.11Z" fill="white"/>
<path d="M151.751 319.139L180.681 283.949L229.161 317.499L201.931 349.869L151.751 319.139Z" fill="#FFBF00"/>
<path d="M156.361 313.441L186.011 309.141L185.961 303.961L157.451 312.111L156.361 313.441Z" fill="#08112B"/>
<path d="M178.091 287.1L185.321 309.1C185.719 310.303 186.462 311.362 187.458 312.145C188.454 312.927 189.659 313.399 190.921 313.5C197.751 314.03 211.841 315.03 226.181 315.5L193.181 309.93C192.336 309.786 191.544 309.424 190.881 308.88C190.218 308.337 189.708 307.63 189.401 306.83L180.691 284L178.091 287.1Z" fill="#08112B"/>
<path d="M195.671 318.738L204.101 347.268L205.811 345.148L195.671 318.738Z" fill="#08112B"/>
<path d="M1795.13 160.51L1798.13 155.82C1798.13 155.82 1806.6 160.92 1803.87 163.67L1801.13 166.27L1795.13 160.51Z" fill="#08112B"/>
<path d="M1750.9 132.73L1727.9 172.14C1727.9 172.14 1743.55 181.83 1767.45 194.2C1776.08 198.67 1781.64 196.1 1782.54 195.77C1783.6 195.38 1793.1 179.04 1793.1 179.04L1795.61 177.55C1800.11 170.11 1803.9 163.67 1803.9 163.67C1803.9 163.67 1779.59 157.14 1750.9 132.73Z" fill="#FFBF00"/>
<path d="M1751 138.048L1775.18 177.848L1746.28 140.948L1750.9 132.738L1751 138.048Z" fill="#08112B"/>
<path d="M1793.09 179.039L1783.79 181.249L1791.07 182.479L1793.09 179.039Z" fill="#08112B"/>
<path d="M1833.65 323.521C1826.15 332.961 1818.45 343.521 1810.24 355.111C1792.24 350.421 1774.47 340.711 1758.56 326.331C1767.68 314.851 1776 304.331 1783.82 294.801C1799.19 309.141 1816.36 318.831 1833.65 323.521Z" fill="#4CC3FF"/>
<path d="M1783.82 294.801C1787.34 306.018 1791.48 317.034 1796.2 327.801C1808.77 327.321 1821.29 325.893 1833.65 323.531C1816.36 318.831 1799.19 309.141 1783.82 294.801Z" fill="#08112B"/>
<path d="M1833.64 323.519C1832.64 323.399 1831.64 323.269 1830.69 323.129C1823.04 321.992 1815.51 320.131 1808.2 317.569C1800.11 311.683 1792.69 304.919 1786.08 297.399C1785.32 296.549 1784.56 295.679 1783.81 294.789C1794.28 296.941 1804.88 298.381 1815.54 299.099C1818.41 299.309 1821.11 300.879 1822.15 302.969C1825.86 310.479 1829.73 317.339 1833.64 323.519Z" fill="#08112B"/>
<path d="M1762.12 321.852C1774.18 322.209 1786.26 321.875 1798.28 320.852C1797.85 320.192 1797.42 319.532 1797 318.852C1785.76 319.952 1774.47 320.522 1763.13 320.562L1762.12 321.852Z" fill="#08112B"/>
<path d="M1762.12 321.85C1775.4 322.203 1788.69 321.728 1801.91 320.43C1805.73 331.09 1809.79 340.89 1814 349.82L1810.24 355.11C1792.24 350.42 1774.47 340.71 1758.56 326.33L1762.12 321.85Z" fill="#4CC3FF"/>
<path d="M1804.46 327.339C1807.52 335.339 1810.72 342.859 1814 349.819C1814.25 349.469 1814.51 349.119 1814.76 348.759C1812.61 341.585 1810.54 334.102 1808.54 326.309L1804.46 327.339Z" fill="#08112B"/>
<path d="M129.671 122.999C129.671 122.999 241.911 115.279 299.161 139.089" stroke="white" stroke-width="8" stroke-miterlimit="10" stroke-linecap="round"/>
<path d="M166.001 69.2512L138.861 102.251L127.861 98.4512L153.081 66.8312C153.868 65.8456 154.983 65.1766 156.223 64.947C157.463 64.7174 158.744 64.9426 159.831 65.5812L166.001 69.2512Z" fill="#08112B"/>
<path d="M204.541 99.54L177.461 133.42C177.461 133.42 158.611 126 136.971 108C115.331 90 138.861 102.3 138.861 102.3L164.411 71C164.411 71 169.541 81.28 204.541 99.54Z" fill="#4CC3FF"/>
<path d="M199.311 101.519L164.821 101.009L200.111 105.039L204.511 99.5391L199.311 101.519Z" fill="#08112B"/>
<path d="M155.451 81.1289L157.281 96.1289L153.171 84.7589L155.451 81.1289Z" fill="#08112B"/>
<path d="M139.801 149.51C139.801 149.51 168.431 144.81 214.421 149.66" stroke="#F1F2F5" stroke-width="8" stroke-miterlimit="10" stroke-linecap="round"/>
<path d="M235.911 384.39L317.001 365.27" stroke="#F3F4F7" stroke-width="8" stroke-miterlimit="10" stroke-linecap="round"/>
<path d="M241.001 407.65L322.081 388.52" stroke="#F3F4F7" stroke-width="8" stroke-miterlimit="10" stroke-linecap="round"/>
<path d="M248.861 458.289L319.541 441.109" stroke="#F3F4F7" stroke-width="8" stroke-miterlimit="10" stroke-linecap="round"/>
<path d="M253.951 481.54L282.851 474.52" stroke="#F3F4F7" stroke-width="8" stroke-miterlimit="10" stroke-linecap="round"/>
<path d="M1729.84 289.301C1735.72 293.761 1740.35 298.101 1743.34 302.241" stroke="white" stroke-width="8" stroke-miterlimit="10" stroke-linecap="round"/>
<path d="M1642.79 243.941C1665.27 253.431 1687.49 263.691 1705.61 273.831" stroke="white" stroke-width="8" stroke-miterlimit="10" stroke-linecap="round"/>
<path d="M1684.68 298.559C1705.98 309.839 1722.9 321.129 1730.2 331.199" stroke="white" stroke-width="8" stroke-miterlimit="10" stroke-linecap="round"/>
<path d="M1515.81 230.449C1515.81 230.449 1598.52 257.369 1662.11 287.329" stroke="white" stroke-width="8" stroke-miterlimit="10" stroke-linecap="round"/>
<path d="M1503.93 263.109C1503.93 263.109 1626.07 302.869 1687.62 339.509" stroke="white" stroke-width="8" stroke-miterlimit="10" stroke-linecap="round"/>
</svg>
