<svg width="50" height="36" viewBox="0 0 50 36" fill="none" xmlns="http://www.w3.org/2000/svg">
<path fill-rule="evenodd" clip-rule="evenodd" d="M9.0239 16.0802L4.61786 16.0802C4.40915 16.0802 4.24682 15.9173 4.22363 15.6845L4.22363 11.7285C4.22363 11.4958 4.40915 11.3329 4.61786 11.3329L9.0239 11.3329C9.2558 11.3329 9.41812 11.5191 9.41812 11.7285V15.6846C9.41812 15.9173 9.23261 16.0802 9.0239 16.0802ZM15.0996 16.0802H10.6936C10.4848 16.0802 10.3225 15.9173 10.2993 15.6846V11.7285C10.2993 11.4958 10.4848 11.3329 10.6936 11.3329H15.0996C15.3315 11.3329 15.4938 11.5191 15.4938 11.7285V15.6846C15.4938 15.9173 15.3083 16.0802 15.0996 16.0802ZM21.2912 16.0802H16.8852C16.6533 16.0802 16.491 15.9173 16.491 15.6846V11.7285C16.491 11.4958 16.6765 11.3329 16.8852 11.3329L21.2912 11.3329C21.5231 11.3329 21.6855 11.5191 21.6855 11.7285V15.6846C21.6855 15.9173 21.5 16.0802 21.2912 16.0802ZM27.3901 16.0802H22.9841C22.7754 16.0802 22.5899 15.9173 22.5899 15.6846V11.7285C22.5899 11.4958 22.7754 11.3329 22.9841 11.3329H27.3901C27.622 11.3329 27.7844 11.5191 27.7844 11.7285V15.6846C27.7844 15.9173 27.5988 16.0802 27.3901 16.0802ZM15.0996 10.4253L10.6936 10.4253C10.4848 10.4253 10.3225 10.2392 10.2993 10.0297L10.2993 6.07369C10.2993 5.84098 10.4848 5.67808 10.6936 5.67808L15.0996 5.67809C15.3315 5.67809 15.4938 5.86425 15.4938 6.07369V10.0297C15.4938 10.2392 15.3083 10.4253 15.0996 10.4253ZM21.2912 10.4253H16.8852C16.6533 10.4253 16.491 10.2392 16.491 10.0297V6.07369C16.491 5.84098 16.6765 5.67809 16.8852 5.67809L21.2912 5.67809C21.5231 5.67809 21.6855 5.86426 21.6855 6.07369V10.0297C21.6855 10.2392 21.5 10.4253 21.2912 10.4253ZM27.3901 10.4253H22.9841C22.7754 10.4253 22.5899 10.2392 22.5899 10.0297V6.07369C22.5899 5.84098 22.7754 5.67809 22.9841 5.67809L27.3901 5.67809C27.5988 5.67809 27.7844 5.86426 27.7844 6.07369V10.0297C27.7844 10.2392 27.5988 10.4253 27.3901 10.4253ZM27.3901 4.74725L22.9841 4.74725C22.7754 4.74725 22.5899 4.56109 22.5899 4.35165V0.395607C22.5899 0.162899 22.7754 0 22.9841 0H27.3901C27.5988 0 27.7844 0.18617 27.7844 0.395608V4.35165C27.7844 4.58436 27.5988 4.74725 27.3901 4.74725ZM33.5354 16.0802H29.1294C28.9207 16.0802 28.7583 15.9173 28.7351 15.6846V11.7285C28.7351 11.4958 28.9207 11.3329 29.1294 11.3329H33.5354C33.7673 11.3329 33.9296 11.5191 33.9296 11.7285V15.6846C33.9296 15.9173 33.7441 16.0802 33.5354 16.0802ZM45.4316 12.543C48.1216 12.543 49.3739 13.4971 49.513 13.6135L50 13.9625L49.7913 14.5676C49.4434 15.4053 48.9565 16.15 48.3071 16.755C47.3332 17.7324 45.5708 18.8727 42.7184 18.8727H42.2546C41.1183 21.8048 39.5646 25.1093 36.9442 28.0647C35.3905 29.8332 33.5585 31.3458 31.5178 32.5327C29.0365 33.9522 26.3465 34.9296 23.5406 35.4415C21.5231 35.8139 19.4824 36 17.4417 36C12.9197 36 8.90787 35.139 6.44976 33.6264C4.26993 32.2767 2.57708 30.0659 1.44079 27.0873C0.44363 24.3646 -0.043353 21.479 0.00302668 18.5934C0.00302676 17.7324 0.698718 17.0343 1.55674 17.0343L34.4861 17.0343C34.9035 17.011 36.8978 16.8481 38.1269 16.15C37.1065 14.521 36.8051 12.6128 37.292 10.5882C37.5471 9.54106 37.9877 8.51715 38.5675 7.60958L39.0313 6.93473L39.7502 7.3536C39.7579 7.35978 39.778 7.37312 39.8091 7.3937C40.2462 7.68327 42.845 9.40495 43.3214 12.7292C44.0171 12.6128 44.7359 12.543 45.4316 12.543Z" fill="white"/>
</svg>
