<svg width="45" height="44" viewBox="0 0 45 44" fill="none" xmlns="http://www.w3.org/2000/svg">
<path d="M43.7807 26.8675C43.713 26.8675 43.6453 26.8675 43.6453 26.7996C43.6453 26.7316 43.5098 26.7316 43.3743 26.7316C43.1034 26.6636 42.8324 26.6636 42.5615 26.6636C42.426 26.6636 42.2905 26.6636 42.1551 26.5956H42.0873C41.3422 26.5276 40.5294 26.3916 39.7843 26.1877C39.5811 26.1197 39.3779 25.9157 39.3101 25.7118C39.3779 25.7118 39.3101 25.7118 39.3101 25.7118L38.7682 25.5758C39.0392 23.6042 38.9037 21.5646 38.4973 19.593C38.0232 17.6214 37.2103 15.7178 36.1265 14.0182L36.533 13.6103V13.5423C36.533 13.3383 36.6007 13.0664 36.7362 12.9304C37.3458 12.3865 37.9554 11.9786 38.6328 11.5707C38.7683 11.5027 38.9037 11.4347 39.0392 11.3667C39.3101 11.2308 39.5134 11.0948 39.7843 10.9588C39.852 10.8908 39.9198 10.8908 39.9875 10.8228C40.0552 10.7549 39.9875 10.7549 39.9875 10.6869C40.5971 10.211 40.7326 9.39513 40.2585 8.78326C40.0552 8.51131 39.6488 8.30735 39.3101 8.30735C38.9715 8.30735 38.6328 8.44333 38.3618 8.64728L38.2941 8.71527C38.2264 8.78326 38.1586 8.85124 38.0909 8.85124C37.8877 9.0552 37.6845 9.25916 37.549 9.46312C37.4813 9.59909 37.3458 9.66708 37.2781 9.73506C36.8039 10.2789 36.1943 10.8228 35.5846 11.2308C35.4492 11.2987 35.3137 11.3667 35.1782 11.3667C35.1105 11.3667 34.975 11.3667 34.9073 11.2987H34.8395L34.2977 11.6387C33.7558 11.0948 33.1461 10.5509 32.6042 10.007C30.098 8.03541 26.9821 6.81166 23.7985 6.47173L23.7308 5.92784V5.99583C23.5276 5.85986 23.4598 5.6559 23.3921 5.45194C23.3921 4.70409 23.3921 3.95625 23.5276 3.14042V3.07243C23.5276 2.93646 23.5953 2.80049 23.5953 2.66451C23.663 2.39257 23.663 2.12062 23.7308 1.84868V1.44076C23.7985 0.760904 23.2566 0.0810428 22.5793 0.0130568C22.1728 -0.0549293 21.7664 0.149029 21.4277 0.488959C21.1568 0.760903 21.0213 1.10083 21.0213 1.44076V1.78069C21.0213 2.05264 21.0891 2.32458 21.1568 2.59653C21.2245 2.7325 21.2245 2.86847 21.2245 3.00444V3.07243C21.36 3.82028 21.36 4.56812 21.36 5.38396C21.2923 5.58791 21.2245 5.79187 21.0213 5.92784V6.06382L20.9536 6.6077C20.2085 6.67569 19.4634 6.81166 18.6506 6.94763C15.467 7.62749 12.5543 9.32715 10.319 11.7067L9.91257 11.4347H9.84484C9.7771 11.4347 9.70936 11.5027 9.57389 11.5027C9.43842 11.5027 9.30295 11.4347 9.16747 11.3667C8.55785 10.8908 7.94822 10.3469 7.47406 9.80305C7.40633 9.66708 7.27086 9.59909 7.20312 9.5311C6.99991 9.32715 6.86444 9.12319 6.66123 8.91923C6.59349 8.85124 6.52576 8.85124 6.45802 8.78326C6.39028 8.71527 6.39028 8.71527 6.39028 8.71527C6.11934 8.51131 5.78066 8.37534 5.44197 8.37534C5.03556 8.37534 4.69687 8.51131 4.49367 8.85124C4.08725 9.46312 4.22272 10.2789 4.76461 10.7549C4.83235 10.7549 4.83235 10.8228 4.83235 10.8228C4.83235 10.8228 4.96782 10.9588 5.03556 10.9588C5.23876 11.0948 5.50971 11.2308 5.78066 11.3667C5.91613 11.4347 6.0516 11.5027 6.18707 11.5707C6.86444 11.9786 7.5418 12.3865 8.08369 12.9304C8.21916 13.0664 8.35464 13.3383 8.2869 13.5423V13.4743L8.69332 13.8822C8.62558 14.0182 8.55785 14.0862 8.49011 14.2221C6.39028 17.5535 5.50971 21.4966 6.11934 25.3719L5.57745 25.5078C5.57745 25.5758 5.50971 25.5758 5.50971 25.5758C5.44197 25.7798 5.23876 25.9157 5.03556 26.0517C4.29046 26.2557 3.54536 26.3916 2.73252 26.4596C2.59705 26.4596 2.46158 26.4596 2.3261 26.5276C2.05516 26.5276 1.78421 26.5956 1.51327 26.5956C1.44553 26.5956 1.37779 26.6636 1.24232 26.6636C1.17458 26.6636 1.17458 26.6636 1.10685 26.7316C0.361748 26.8675 -0.112406 27.5474 0.0230663 28.2953C0.158539 28.9071 0.768166 29.315 1.37779 29.2471C1.51327 29.2471 1.581 29.2471 1.71647 29.1791C1.78421 29.1791 1.78421 29.1791 1.78421 29.1111C1.78421 29.0431 1.98742 29.1111 2.05516 29.1111C2.3261 29.0431 2.59705 28.9071 2.80026 28.8391C2.93573 28.7712 3.0712 28.7032 3.20667 28.7032H3.27441C4.01951 28.4312 4.69687 28.2273 5.50971 28.0913H5.57745C5.78065 28.0913 5.98386 28.1593 6.11934 28.2953C6.18707 28.2953 6.18707 28.3632 6.18707 28.3632L6.7967 28.2953C7.81275 31.4226 9.70936 34.21 12.3511 36.2496C12.9607 36.7255 13.5026 37.1334 14.18 37.4734L13.8413 37.9493C13.8413 38.0173 13.909 38.0173 13.909 38.0173C14.0445 38.2212 14.0445 38.4932 13.9768 38.6971C13.7058 39.377 13.2994 40.0568 12.893 40.6687V40.7367C12.8252 40.8727 12.7575 40.9407 12.622 41.0766C12.4866 41.2126 12.3511 41.4845 12.1479 41.7565C12.0801 41.8245 12.0801 41.8925 12.0124 41.9604C12.0124 41.9604 12.0124 42.0284 11.9447 42.0284C11.606 42.7083 11.8769 43.5241 12.4866 43.8641C12.622 43.932 12.8252 44 12.9607 44C13.5026 44 13.9768 43.6601 14.2477 43.1842C14.2477 43.1842 14.2477 43.1162 14.3154 43.1162C14.3154 43.0482 14.3832 42.9802 14.4509 42.9123C14.5186 42.6403 14.6541 42.4363 14.7219 42.1644L14.8573 41.7565C15.0605 41.0086 15.3992 40.3288 15.7379 39.6489C15.8734 39.445 16.0766 39.309 16.2798 39.241C16.3475 39.241 16.3475 39.241 16.3475 39.173L16.6185 38.6291C18.5151 39.377 20.4794 39.7169 22.5115 39.7169C23.7308 39.7169 24.95 39.5809 26.1693 39.241C26.9144 39.105 27.6595 38.8331 28.3369 38.6291L28.6078 39.105C28.6755 39.105 28.6755 39.105 28.6755 39.173C28.8787 39.241 29.082 39.377 29.2174 39.5809C29.5561 40.2608 29.8948 40.9407 30.098 41.6885V41.7565L30.2335 42.1644C30.3012 42.4363 30.3689 42.7083 30.5044 42.9123C30.5722 42.9802 30.5722 43.0482 30.6399 43.1162C30.6399 43.1162 30.6399 43.1842 30.7076 43.1842C30.9786 43.6601 31.4527 44 31.9946 44C32.1978 44 32.3333 43.932 32.5365 43.8641C32.8075 43.7281 33.0784 43.4561 33.1461 43.1162C33.2139 42.7763 33.2139 42.4363 33.0784 42.0964C33.0784 42.0284 33.0107 42.0284 33.0107 42.0284C33.0107 41.9604 32.9429 41.8925 32.8752 41.8245C32.7397 41.5525 32.6042 41.3486 32.401 41.1446C32.3333 41.0086 32.2656 40.9407 32.1301 40.8047V40.6687C31.6559 40.0568 31.3173 39.377 31.0463 38.6971C30.9786 38.4932 30.9786 38.2212 31.114 38.0173C31.114 37.9493 31.1818 37.9493 31.1818 37.9493L30.9786 37.4054C34.4331 35.2978 37.0748 32.0345 38.2941 28.1593L38.836 28.2273C38.9037 28.2273 38.9037 28.1593 38.9037 28.1593C39.0392 28.0233 39.2424 27.9553 39.4456 27.9553H39.5134C40.2585 28.0913 41.0036 28.2953 41.6809 28.5672H41.7486C41.8841 28.6352 42.0196 28.7032 42.1551 28.7032C42.426 28.8391 42.6292 28.9751 42.9002 29.0431C42.9679 29.0431 43.0356 29.1111 43.1711 29.1111C43.2388 29.1111 43.2389 29.1111 43.3066 29.1791C43.4421 29.2471 43.5098 29.2471 43.6453 29.2471C44.2549 29.2471 44.7968 28.8391 45 28.2953C44.9323 27.5474 44.3904 27.0035 43.7807 26.8675ZM24.2049 24.76L22.3761 25.6438L20.5472 24.76L20.073 22.7884L21.36 21.1567H23.3921L24.6791 22.7884L24.2049 24.76ZM35.246 20.3409C35.5846 21.7686 35.6524 23.1963 35.5169 24.624L29.082 22.7884C28.4723 22.6524 28.1336 22.0405 28.2691 21.4287C28.3369 21.2247 28.4046 21.0887 28.5401 20.9528L33.6203 16.3297C34.3654 17.5535 34.9073 18.9132 35.246 20.3409ZM31.5882 13.8142L26.0338 17.7574C25.5597 18.0294 24.8823 17.9614 24.5436 17.4855C24.4081 17.3495 24.3404 17.2135 24.3404 17.0096L23.934 10.143C26.9144 10.4829 29.5561 11.7746 31.5882 13.8142ZM19.3279 10.3469L20.6826 10.075L20.344 16.8736C20.344 17.4855 19.8021 17.9614 19.1924 17.9614C18.9892 17.9614 18.8538 17.8934 18.6506 17.8254L13.0284 13.8142C14.7896 12.1146 16.9572 10.8908 19.3279 10.3469ZM11.0641 16.3297L16.0766 20.8168C16.5507 21.2247 16.6185 21.9046 16.212 22.3805C16.0766 22.5844 15.9411 22.6524 15.6702 22.7204L9.09974 24.624C8.89653 21.7686 9.57389 18.8452 11.0641 16.3297ZM9.91257 27.8193L16.6185 26.6636C17.1604 26.6636 17.7023 27.0035 17.77 27.5474C17.8377 27.7514 17.8377 28.0233 17.7022 28.2273L15.1283 34.482C12.7575 32.9183 10.8609 30.5388 9.91257 27.8193ZM25.2887 36.2496C24.3404 36.4536 23.3921 36.5896 22.3761 36.5896C20.9536 36.5896 19.4634 36.3176 18.1087 35.9097L21.4277 29.8589C21.7664 29.451 22.3083 29.315 22.7825 29.587C22.9857 29.723 23.1212 29.8589 23.3244 30.0629L26.5757 35.9777C26.1693 36.0457 25.7629 36.1136 25.2887 36.2496ZM33.5526 30.3348C32.5365 31.9665 31.114 33.3942 29.4884 34.414L26.8467 28.0233C26.7112 27.4794 26.9821 26.9355 27.4563 26.7316C27.6595 26.6636 27.8627 26.5956 28.0659 26.5956L34.8395 27.7514C34.5009 28.7032 34.0944 29.587 33.5526 30.3348Z" fill="white"/>
</svg>
