<svg width="44" height="40" viewBox="0 0 44 40" fill="none" xmlns="http://www.w3.org/2000/svg">
<path fill-rule="evenodd" clip-rule="evenodd" d="M32.2735 10.9142C31.1995 9.82877 29.9266 8.90294 28.4569 8.224C21.8969 5.19644 14.0714 8.01436 11.0117 14.5079C10.3271 15.9634 9.95405 17.4815 9.83677 18.9966L12.7773 17.9376C12.6881 19.0965 12.7655 20.2543 12.9837 21.3781L6.71187 23.6384C7.19256 26.1239 8.39549 28.4509 10.2046 30.2895L8.68383 30.8376L13.5366 29.0896C14.6062 30.1772 15.8888 31.0956 17.3606 31.7756C23.9196 34.8032 31.7461 31.9853 34.8047 25.4906C35.4917 24.0338 35.8776 22.5152 35.9905 21.0009L43.0398 18.4618C43.3085 21.7852 42.7463 25.2203 41.2207 28.4522C36.5119 38.448 24.4668 42.7876 14.3687 38.1276C11.1017 36.6187 8.43987 34.3468 6.48756 31.6291L3.15641 32.8297C1.68571 30.7811 0.616016 28.4793 0 26.0573L6.27179 23.796C5.99787 22.7112 5.80234 21.6042 5.71202 20.4833L2.77239 21.5421C2.50577 18.2155 3.07233 14.7803 4.59679 11.5463C9.30453 1.55166 21.3518 -2.78803 31.4499 1.87304C34.7147 3.38086 37.3797 5.65159 39.3363 8.36924L42.2765 7.31005C42.9377 8.2263 43.5075 9.19789 43.9999 10.2046L37.7277 12.4644C38.8318 14.713 39.5059 17.1574 39.708 19.6614L32.6588 22.1995C32.8523 19.6391 32.2631 17.0936 31.016 14.8822L37.2893 12.6224C36.725 11.6223 36.0349 10.6871 35.2138 9.855L32.2735 10.9142Z" fill="white"/>
</svg>
