<svg width="44" height="24" viewBox="0 0 44 24" fill="none" xmlns="http://www.w3.org/2000/svg">
<path d="M42.097 2.47034H36.939C36.8889 2.47034 36.8555 2.47034 36.8055 2.47034H31.4972C31.4304 2.47034 31.3803 2.47034 31.3136 2.48749V1.97284C31.3136 0.892066 31.0465 0 30.7293 0C30.4122 0 29.9948 0.874911 29.8279 1.93853L29.2937 5.26662C29.1268 6.33024 29.8446 7.20515 30.8962 7.20515H34.0845C34.4184 7.20515 34.7189 7.15368 34.986 7.0679C34.8858 7.63402 34.4017 8.04575 33.8342 8.04575H29.3605C28.6427 8.04575 28.0919 7.3767 28.2087 6.63903L28.6594 3.84274C28.7763 3.10507 28.2254 2.43603 27.5076 2.43603H5.28967C4.82227 2.43603 4.40496 2.72766 4.22134 3.13939L0.0481658 9.72695C-0.0186049 9.82988 -0.0186052 9.98427 0.0648583 10.0872L0.8828 11.065C0.982956 11.1851 1.16658 11.2023 1.28342 11.0994L4.12118 8.80057V22.7991C4.12118 23.4682 4.63865 24 5.28967 24H11.5995C12.2505 24 12.768 23.4682 12.768 22.7991V17.9271C12.768 17.258 13.2855 16.7262 13.9365 16.7262H29.6944C30.3454 16.7262 30.8629 17.258 30.8629 17.9271V22.7991C30.8629 23.4682 31.3803 24 32.0313 24H38.3412C38.9922 24 39.5097 23.4682 39.5097 22.7991V17.5668H36.1544C35.1028 17.5668 34.2348 16.6748 34.2348 15.594V12.2316C34.2348 11.5969 34.5353 11.0136 35.0026 10.6533V14.6676C35.0026 15.7484 35.8707 16.6405 36.9223 16.6405H42.0803C43.132 16.6405 44 15.7484 44 14.6676V4.44317C44 3.3624 43.1487 2.47034 42.097 2.47034Z" fill="white"/>
</svg>
