<svg width="820" height="710" viewBox="0 0 820 710" fill="none" xmlns="http://www.w3.org/2000/svg">
<path d="M461.83 709.898C446.588 709.898 430.83 709.334 415.009 708.208C385.656 706.133 356.643 698.438 332.132 691.179C245.231 665.418 156.909 622.846 95.9277 577.342C37.7255 533.809 5.66893 489.381 0.676215 445.336C-3.85119 405.414 14.3716 366.402 54.8541 329.412C67.2039 318.119 79.7674 310.578 93.2616 306.365C101.754 303.722 110.59 302.405 119.47 302.46C144.082 302.46 168.769 311.999 192.638 321.218C216.508 330.436 241.345 340.026 266.07 340.026C288.141 340.026 308.062 332.344 326.964 316.66C346.557 300.373 362.277 279.913 375.029 254.101C388.448 226.957 397.264 196.651 405.791 167.356C413.123 142.018 420.756 115.719 431.358 91.3283C434.728 83.6462 438.237 76.4377 441.947 69.6646L440.689 69.1012C440.752 68.8324 440.752 68.8324 449.354 56.6945L455.253 48.5514C456.774 46.4004 457.529 45.3377 457.982 44.8127C480.38 15.0315 507.142 0 537.614 0C562.766 0 590.37 10.2429 619.585 30.5879C645.303 48.513 671.7 73.5825 698.047 105.284C755.117 173.937 806.063 268.736 814.024 321.115C816.539 337.248 818.199 353.227 819.13 368.591C822.387 421.79 816.489 470.316 801.611 512.798C787.842 552.775 764.865 588.812 734.606 617.891C671.851 678.145 577.555 710 461.905 710L461.83 709.898Z" fill="#F3F4F7"/>
</svg>
