<svg width="1920" height="433" viewBox="0 0 1920 433" fill="none" xmlns="http://www.w3.org/2000/svg">
<path d="M1838.12 0L1827.41 35.5647C1827.13 36.4492 1827.04 37.3792 1827.13 38.3009C1827.21 39.2226 1827.48 40.1177 1827.92 40.9344C1828.36 41.7511 1828.95 42.4731 1829.67 43.0587C1830.38 43.6443 1831.21 44.0818 1832.1 44.3459L1886.22 60.8881C1887.96 61.4229 1889.85 61.2537 1891.47 60.4165C1893.1 59.5794 1894.33 58.1407 1894.9 56.4075L1914.07 0H1838.12Z" fill="#08141F"/>
<path d="M1687.98 15.5819L1653.26 104.594C1652.37 106.877 1650.62 108.721 1648.38 109.732C1646.15 110.743 1643.61 110.841 1641.31 110.004L1462.24 44.7858C1461.07 44.3625 1460 43.7121 1459.09 42.8723C1458.18 42.0325 1457.44 41.02 1456.92 39.8934C1456.4 38.7669 1456.11 37.5487 1456.07 36.3094C1456.03 35.0702 1456.23 33.8346 1456.67 32.6742L1468.61 1H1674.92L1682.07 3.2903C1683.28 3.67827 1684.41 4.3105 1685.37 5.14826C1686.33 5.98603 1687.12 7.01168 1687.67 8.16242C1688.22 9.31316 1688.53 10.5647 1688.59 11.8405C1688.64 13.1163 1688.43 14.3894 1687.98 15.5819Z" fill="#0A1622"/>
<path d="M262.106 249.504C262.106 249.504 331.903 409.985 416.449 449.061H179.04C179.04 449.061 138.592 413.456 107.764 310.402L262.106 249.504Z" fill="#08141F"/>
<path d="M1773.08 133.078L1849.32 164.367L1835.23 198.722C1832.94 204.307 1828.52 208.753 1822.95 211.082C1817.38 213.411 1811.12 213.431 1805.53 211.14L1750.35 188.492L1773.08 133.078Z" fill="#08141F"/>
<path d="M1840.09 49.1661L1831.17 78.9201L1826.8 93.4821L1798.17 189.025C1796.77 193.691 1797.17 198.715 1799.31 203.096C1801.44 207.477 1805.14 210.894 1809.68 212.668L1759.13 192.885L1786.99 80.7203L1790.66 65.9284L1802.91 16.5918L1824.41 21.8125C1827.28 22.5084 1829.97 23.7811 1832.33 25.5529C1834.69 27.3248 1836.66 29.5586 1838.13 32.1181C1839.6 34.6776 1840.53 37.5093 1840.86 40.4403C1841.2 43.3713 1840.94 46.3403 1840.09 49.1661Z" fill="#000D19"/>
<path d="M1857.99 95.9324L1783.84 71.7305L1779.13 86.1629L1853.28 110.365L1857.99 95.9324Z" fill="#0A1622"/>
<path d="M67.4147 67.2384L57.7752 69.1387C53.7696 69.9228 50.2321 72.2487 47.9242 75.6158C45.6164 78.9828 44.7227 83.1216 45.4357 87.1411L46.4357 92.7518C46.7863 94.7609 47.5382 96.6786 48.6465 98.3904C49.7549 100.102 51.1969 101.573 52.8864 102.715C54.5759 103.856 56.4782 104.646 58.4796 105.036C60.481 105.425 62.5405 105.408 64.5349 104.983L80.2741 101.623L74.0744 71.689C73.9298 70.9592 73.6427 70.265 73.2296 69.6463C72.8166 69.0275 72.2856 68.4962 71.6671 68.0829C71.0485 67.6695 70.3546 67.3822 69.6249 67.2373C68.8953 67.0924 68.1442 67.0928 67.4147 67.2384Z" fill="#08141F"/>
<path d="M300.305 335.785L236.308 368.279L196.709 388.372C194.056 389.716 190.998 390.026 188.128 389.243C185.259 388.459 182.783 386.638 181.18 384.132C166.538 360.958 153.379 336.88 141.782 312.042C125.048 276.021 111.098 238.77 100.054 200.617C83.0946 142.459 76.2949 95.7033 73.995 76.1107C73.2729 73.4239 71.5422 71.1194 69.1634 69.6773C66.7846 68.2352 63.9412 67.7668 61.2256 68.3697L184.26 40.496C186.147 40.0673 188.102 40.0239 190.007 40.3683C191.911 40.7127 193.727 41.4379 195.345 42.5005C196.963 43.5631 198.35 44.9413 199.422 46.5525C200.495 48.1637 201.232 49.9748 201.589 51.8775C238.347 247.693 300.305 335.785 300.305 335.785Z" fill="#0A1622"/>
<path d="M236.257 368.279L194.109 389.662C192.154 390.652 189.902 390.881 187.788 390.305C185.675 389.728 183.851 388.387 182.669 386.542C167.416 362.635 153.757 337.748 141.781 312.042L192.579 291.879L236.257 368.279Z" fill="#000D19"/>
<path d="M446.337 282.968C417.758 304.361 343.462 357.608 273.565 387.592C269.263 389.451 264.519 390.038 259.894 389.285C255.269 388.532 250.956 386.469 247.466 383.341C232.467 369.869 206.328 342.076 183.599 296.23C171.758 272.156 162.429 246.926 155.761 220.94C149.797 197.794 145.592 174.23 143.181 150.45C142.86 147.383 143.722 144.309 145.592 141.857C147.462 139.404 150.198 137.76 153.241 137.258C173.51 133.968 219.848 125.177 279.085 105.934C297.514 99.9335 317.203 92.9326 337.742 84.7715C339.343 84.1356 341.06 83.8493 342.78 83.9318C344.501 84.0143 346.183 84.4637 347.715 85.2498C349.247 86.036 350.594 87.1407 351.664 88.4899C352.735 89.8391 353.504 91.4016 353.921 93.0726C356.021 101.494 359.281 113.325 363.921 127.157C377.57 167.633 403.239 225.17 447.097 264.285C448.434 265.474 449.49 266.945 450.19 268.591C450.889 270.238 451.214 272.019 451.142 273.807C451.069 275.594 450.6 277.343 449.769 278.928C448.939 280.512 447.766 281.892 446.337 282.968Z" fill="#0F1B27"/>
<path d="M261.986 57.8086C267.676 76.011 279.876 112.016 295.525 142.11C296.805 144.556 298.934 146.45 301.511 147.437C304.089 148.424 306.938 148.436 309.524 147.471L421.079 105.835C422.607 105.27 423.995 104.382 425.148 103.231C426.301 102.081 427.193 100.695 427.763 99.1687C428.332 97.6423 428.566 96.0111 428.448 94.3861C428.33 92.7612 427.863 91.1809 427.079 89.7528C419.719 76.391 407.67 52.6379 398.83 25.9143C397.954 23.2483 396.124 21.0002 393.691 19.6026C391.258 18.2049 388.394 17.7564 385.651 18.3433L270.376 43.3466C268.84 43.6826 267.39 44.3347 266.12 45.2615C264.85 46.1883 263.786 47.3694 262.997 48.7297C262.208 50.09 261.71 51.5997 261.536 53.1628C261.362 54.7258 261.516 56.308 261.986 57.8086Z" fill="#0A1622"/>
<path d="M363.981 127.157L309.564 147.47C306.978 148.437 304.128 148.426 301.55 147.439C298.971 146.452 296.843 144.556 295.564 142.109C289.504 130.477 283.965 117.966 279.125 105.934C284.045 104.334 289.045 102.667 294.124 100.933L294.314 100.873L308.314 95.9326C317.88 92.4787 327.689 88.7649 337.742 84.791C339.343 84.1552 341.061 83.8689 342.781 83.9514C344.501 84.0339 346.183 84.4832 347.715 85.2694C349.248 86.0555 350.594 87.1602 351.664 88.5094C352.735 89.8586 353.504 91.4211 353.922 93.0922C355.981 101.493 359.281 113.325 363.981 127.157Z" fill="#000D19"/>
<path d="M67.7751 247.633L214.168 203.227C216.646 202.474 219.317 202.694 221.638 203.842C223.959 204.991 225.754 206.981 226.658 209.408L255.866 287.419C256.249 288.442 256.319 289.556 256.068 290.62C255.816 291.683 255.255 292.648 254.456 293.392C253.656 294.136 252.653 294.627 251.574 294.801C250.496 294.975 249.39 294.824 248.397 294.369L225.258 283.698C224.03 283.133 222.701 282.818 221.35 282.772C219.999 282.726 218.652 282.949 217.388 283.428L97.7737 328.784C95.5544 329.627 93.1104 329.667 90.8645 328.898C88.6185 328.129 86.7119 326.6 85.4743 324.573C73.308 304.433 64.9114 282.245 60.6954 259.095C60.2679 256.649 60.7525 254.131 62.0574 252.018C63.3623 249.906 65.3967 248.346 67.7751 247.633Z" fill="#0A1622"/>
<path d="M248.396 294.359L225.248 283.688C224.019 283.123 222.691 282.808 221.34 282.762C219.989 282.715 218.642 282.938 217.378 283.418L183.599 296.229C176.05 280.954 169.543 265.186 164.12 249.033C163.08 245.919 162.057 242.749 161.05 239.522C159.191 233.521 157.427 227.33 155.761 220.949L214.168 203.237C216.645 202.483 219.317 202.703 221.638 203.852C223.958 205 225.754 206.991 226.657 209.418L255.866 287.428C256.243 288.451 256.308 289.562 256.054 290.622C255.801 291.681 255.239 292.642 254.44 293.383C253.642 294.124 252.642 294.613 251.566 294.786C250.491 294.96 249.388 294.811 248.396 294.359Z" fill="#000D19"/>
<path d="M209.934 258.423C216.706 256.417 220.439 248.857 218.272 241.537C216.104 234.218 208.857 229.911 202.084 231.918C195.311 233.924 191.579 241.484 193.746 248.803C195.914 256.123 203.161 260.43 209.934 258.423Z" fill="#0F1B27"/>
<path d="M84.5239 273.836C83.3085 273.869 82.1227 273.458 81.1883 272.68C80.254 271.902 79.6351 270.81 79.4475 269.608C79.26 268.407 79.5166 267.178 80.1694 266.152C80.8221 265.126 81.8263 264.373 82.9939 264.034C83.6739 263.824 151.081 242.861 173.59 235.43C174.832 235.072 176.166 235.209 177.309 235.813C178.453 236.417 179.318 237.44 179.723 238.669C180.128 239.897 180.042 241.235 179.482 242.401C178.922 243.567 177.932 244.47 176.72 244.922C154.131 252.383 86.6338 273.375 85.9538 273.586C85.4926 273.741 85.0104 273.825 84.5239 273.836Z" fill="#000D19"/>
<path d="M97.5433 302.431C96.3614 302.433 95.2169 302.017 94.3128 301.256C93.4087 300.494 92.8035 299.437 92.6046 298.272C92.4056 297.107 92.6258 295.909 93.226 294.891C93.8262 293.872 94.7677 293.1 95.8834 292.71C96.1534 292.61 123.242 283.098 145.991 276.007C147.257 275.61 148.63 275.731 149.807 276.345C150.983 276.96 151.868 278.016 152.266 279.283C152.664 280.549 152.542 281.922 151.928 283.099C151.314 284.276 150.257 285.161 148.991 285.559C126.402 292.56 99.4932 302.051 99.2232 302.141C98.6848 302.336 98.116 302.434 97.5433 302.431Z" fill="#000D19"/>
<path d="M105.795 105.204C109.571 104.685 112.177 100.956 111.616 96.8731C111.056 92.7908 107.541 89.9018 103.766 90.4204C99.9902 90.939 97.3841 94.6688 97.9447 98.7512C98.5052 102.834 102.02 105.723 105.795 105.204Z" fill="#000D19"/>
<path d="M128.332 96.803C127.335 96.6603 126.413 96.1897 125.713 95.4654C125.012 94.7411 124.572 93.8042 124.463 92.8024C124.287 91.4502 124.611 90.0804 125.373 88.9498C126.135 87.8193 127.283 87.0056 128.602 86.6615C128.882 86.6015 156.601 80.2305 179.68 75.7998C180.305 75.6824 180.948 75.6991 181.566 75.8489C182.184 75.9987 182.763 76.2781 183.265 76.6686C183.767 77.0591 184.181 77.5519 184.478 78.1142C184.775 78.6765 184.95 79.2956 184.99 79.9305C185.125 81.2884 184.758 82.649 183.959 83.7547C183.159 84.8605 181.982 85.6348 180.65 85.9314C157.761 90.322 130.242 96.653 129.992 96.713C129.448 96.8385 128.887 96.869 128.332 96.803Z" fill="#000D19"/>
<path d="M111.232 134.881C115.007 134.363 117.613 130.633 117.053 126.551C116.492 122.468 112.977 119.58 109.202 120.098C105.427 120.617 102.821 124.346 103.381 128.429C103.942 132.511 107.457 135.4 111.232 134.881Z" fill="#000D19"/>
<path d="M135.922 126.087C134.857 126.057 133.834 125.661 133.027 124.965C132.22 124.269 131.678 123.316 131.492 122.267C131.336 120.834 131.718 119.395 132.562 118.227C133.406 117.06 134.653 116.247 136.062 115.946C136.372 115.866 165.47 108.945 187.479 104.454C188.046 104.343 188.63 104.349 189.194 104.472C189.758 104.595 190.291 104.833 190.76 105.17C191.229 105.508 191.623 105.938 191.919 106.434C192.214 106.93 192.405 107.482 192.479 108.055C192.65 109.267 192.364 110.5 191.677 111.513C190.989 112.526 189.949 113.247 188.759 113.536C166.91 118.376 138.012 125.837 137.702 125.917C137.121 126.066 136.52 126.123 135.922 126.087Z" fill="#000D19"/>
<path d="M176.691 244.952C173.361 246.052 169.051 247.442 164.121 249.022C163.081 245.909 162.057 242.738 161.051 239.511C165.951 237.941 170.241 236.561 173.551 235.51C174.179 235.283 174.847 235.183 175.515 235.218C176.182 235.252 176.836 235.421 177.438 235.712C178.039 236.004 178.576 236.414 179.017 236.917C179.457 237.42 179.792 238.006 180.002 238.641C180.212 239.276 180.293 239.946 180.239 240.613C180.186 241.279 179.999 241.928 179.69 242.521C179.381 243.114 178.957 243.639 178.442 244.065C177.927 244.491 177.331 244.81 176.691 245.002V244.952Z" fill="#0F1B27"/>
<path d="M264.146 359.277L256.557 346.425C256.349 346.083 256.211 345.703 256.153 345.307C256.094 344.911 256.115 344.507 256.215 344.12C256.314 343.732 256.491 343.368 256.733 343.049C256.976 342.731 257.279 342.464 257.626 342.265C272.026 333.834 288.625 324.752 306.064 315.171C342.313 295.279 383.221 272.836 403.06 256.453C403.665 255.94 404.449 255.688 405.24 255.752C406.031 255.816 406.764 256.19 407.28 256.793L417.149 268.035C417.421 268.337 417.629 268.69 417.76 269.075C417.891 269.459 417.942 269.866 417.911 270.271C417.88 270.676 417.768 271.07 417.58 271.43C417.392 271.79 417.133 272.108 416.819 272.365C395.48 290.068 355.182 312.171 316.154 333.584C298.845 343.085 282.425 352.086 268.296 360.357C267.954 360.563 267.574 360.699 267.179 360.756C266.783 360.813 266.381 360.791 265.994 360.69C265.607 360.589 265.245 360.413 264.928 360.17C264.61 359.927 264.345 359.624 264.146 359.277Z" fill="#06131E"/>
<path d="M115.663 31.6246L122.322 59.5583C122.654 60.9523 123.517 62.1615 124.728 62.9276C125.939 63.6937 127.401 63.9562 128.802 63.6589L170.88 54.6577C171.666 54.4884 172.479 54.4948 173.262 54.6763C174.046 54.8579 174.779 55.2101 175.41 55.7078L186.469 64.399C186.717 64.611 187.025 64.7396 187.35 64.7666C187.674 64.7935 187.999 64.7175 188.278 64.5491C188.557 64.3808 188.776 64.1288 188.904 63.8289C189.032 63.5291 189.061 63.1966 188.989 62.8788L179.35 20.1531C179.029 18.7749 178.188 17.5739 177.003 16.8006C175.818 16.0273 174.381 15.7414 172.99 16.0025L120.043 25.0037C119.314 25.1379 118.62 25.4178 118.001 25.8265C117.383 26.2353 116.854 26.7645 116.445 27.3826C116.036 28.0008 115.756 28.695 115.622 29.4239C115.487 30.1528 115.501 30.9013 115.663 31.6246Z" fill="#06131E"/>
<path d="M183.91 40.576L121.183 54.7779L115.663 31.6248C115.49 30.8937 115.468 30.1348 115.599 29.3949C115.73 28.655 116.012 27.9499 116.426 27.3229C116.84 26.696 117.378 26.1606 118.007 25.7497C118.636 25.3388 119.343 25.0612 120.083 24.9339L172.991 16.0027C174.374 15.7686 175.795 16.0735 176.961 16.8547C178.127 17.6359 178.95 18.8342 179.26 20.2033L183.91 40.576Z" fill="#0A1622"/>
<path d="M1898.17 109.549C1903.91 94.3865 1898.1 78.1342 1885.19 73.2483C1872.28 68.3623 1857.17 76.693 1851.43 91.8551C1845.69 107.017 1851.5 123.269 1864.41 128.155C1877.32 133.041 1892.43 124.711 1898.17 109.549Z" fill="#0A1622"/>
<path d="M1831.17 78.9194L1826.8 93.4814L1786.99 80.6797L1783.05 79.4095L1787.71 64.9375L1790.66 65.8876L1831.17 78.9194Z" fill="#08141F"/>
<path d="M1830.61 24.2732C1825.46 23.406 1820.18 24.5799 1815.89 27.5456C1811.59 30.5113 1808.62 35.0349 1807.61 40.1554C1794.22 108.251 1774.95 175.054 1750 239.812C1748.3 244.186 1746.61 248.47 1744.92 252.664C1733.14 281.898 1721.57 306.881 1711.22 327.434C1701.67 346.386 1693.17 361.578 1686.48 372.85C1682.19 380.071 1678.65 385.691 1676.07 389.672C1674.72 391.753 1672.72 393.32 1670.37 394.119C1668.03 394.917 1665.48 394.901 1663.15 394.073C1575.72 363.068 1507.85 316.652 1483.16 298.51C1481.89 297.583 1480.85 296.398 1480.08 295.033C1479.31 293.669 1478.85 292.157 1478.71 290.597C1478.58 289.038 1478.78 287.468 1479.3 285.992C1479.81 284.516 1480.64 283.168 1481.73 282.038C1590.72 167.142 1593.49 0 1593.49 0H1736.6L1830.61 24.2732Z" fill="#0F1B27"/>
<path d="M1864.62 94.5234C1865.11 94.9835 1870.4 108.695 1870.4 108.695L1890.53 95.3135" stroke="#000D19" stroke-width="7" stroke-linejoin="round"/>
<path d="M168.921 165.531C172.731 165.531 175.821 162.191 175.821 158.07C175.821 153.95 172.731 150.609 168.921 150.609C165.11 150.609 162.021 153.95 162.021 158.07C162.021 162.191 165.11 165.531 168.921 165.531Z" fill="#000D19"/>
<path d="M197.21 159.801C201.02 159.801 204.11 156.46 204.11 152.34C204.11 148.219 201.02 144.879 197.21 144.879C193.399 144.879 190.31 148.219 190.31 152.34C190.31 156.46 193.399 159.801 197.21 159.801Z" fill="#000D19"/>
<path d="M224.838 154.301C228.649 154.301 231.738 150.96 231.738 146.84C231.738 142.719 228.649 139.379 224.838 139.379C221.028 139.379 217.938 142.719 217.938 146.84C217.938 150.96 221.028 154.301 224.838 154.301Z" fill="#000D19"/>
<path d="M297.886 68.1302L283.426 71.9907L277.926 58.1887L292.386 54.3281L297.886 68.1302Z" fill="#000D19"/>
<path d="M322.404 129.857L307.934 133.717L302.434 119.915L316.894 116.045L322.404 129.857Z" fill="#0F1B27"/>
<path d="M309.864 99.7821L295.394 103.643L289.894 89.8409L304.354 85.9805L309.864 99.7821Z" fill="#000D19"/>
<path d="M309.853 99.7826L295.393 103.643L294.283 100.853L308.313 95.9121L309.853 99.7826Z" fill="#0F1B27"/>
<path d="M1555.13 306.957C1557.63 303.368 1556.96 298.582 1553.64 296.267C1550.32 293.951 1545.6 294.983 1543.1 298.572C1540.6 302.161 1541.26 306.947 1544.58 309.263C1547.9 311.578 1552.62 310.546 1555.13 306.957Z" fill="#000D19"/>
<path d="M1619.86 344.273C1622.36 340.685 1621.7 335.898 1618.38 333.583C1615.05 331.267 1610.33 332.3 1607.83 335.888C1605.33 339.477 1606 344.264 1609.32 346.579C1612.64 348.895 1617.36 347.862 1619.86 344.273Z" fill="#000D19"/>
<path d="M1512.32 369.745C1514.81 366.158 1514.14 361.379 1510.82 359.071C1507.5 356.763 1502.79 357.8 1500.3 361.388C1497.81 364.975 1498.48 369.754 1501.79 372.062C1505.11 374.369 1509.83 373.332 1512.32 369.745Z" fill="#08141F"/>
<path d="M1580.03 407.219C1582.53 403.63 1581.86 398.844 1578.54 396.528C1575.22 394.213 1570.5 395.245 1568 398.834C1565.5 402.423 1566.16 407.209 1569.49 409.524C1572.81 411.84 1577.53 410.808 1580.03 407.219Z" fill="#08141F"/>
<path d="M1551.54 304.291C1551.54 304.291 1553.45 305.501 1556.62 307.481" stroke="#000D19" stroke-width="4" stroke-miterlimit="10" stroke-linecap="round"/>
<path d="M1566.05 313.312C1575.83 319.313 1588.84 327.104 1599.53 332.925" stroke="#000D19" stroke-width="4" stroke-miterlimit="10" stroke-linecap="round" stroke-dasharray="11.09 11.09"/>
<path d="M1604.42 335.535C1606.35 336.535 1608.15 337.445 1609.79 338.215" stroke="#000D19" stroke-width="4" stroke-miterlimit="10" stroke-linecap="round"/>
<path d="M1513.37 367.578C1513.37 367.578 1515.27 368.788 1518.45 370.768" stroke="#08141F" stroke-width="4" stroke-miterlimit="10" stroke-linecap="round"/>
<path d="M1527.92 376.59C1537.69 382.591 1550.71 390.392 1561.4 396.212" stroke="#08141F" stroke-width="4" stroke-miterlimit="10" stroke-linecap="round" stroke-dasharray="11.09 11.09"/>
<path d="M1566.25 398.824C1568.17 399.824 1569.98 400.724 1571.61 401.504" stroke="#08141F" stroke-width="4" stroke-miterlimit="10" stroke-linecap="round"/>
<path d="M1614.24 340.055L1597.48 366.638" stroke="#000D19" stroke-width="4" stroke-miterlimit="10" stroke-linecap="round" stroke-dasharray="12 12"/>
<path d="M1596 368.67L1577.88 397.424" stroke="#08141F" stroke-width="4" stroke-miterlimit="10" stroke-linecap="round" stroke-dasharray="12 12"/>
<path d="M1547.93 304.17L1530.16 330.093" stroke="#000D19" stroke-width="4" stroke-miterlimit="10" stroke-linecap="round" stroke-dasharray="12 12"/>
<path d="M1529.94 330.793L1512.25 359.827" stroke="#08141F" stroke-width="4" stroke-miterlimit="10" stroke-linecap="round" stroke-dasharray="12 12"/>
<path d="M1689.12 304.781L1714.35 253.104C1715.65 250.448 1717.87 248.357 1720.6 247.225C1723.33 246.092 1726.38 245.995 1729.17 246.953C1748.28 253.504 1790.45 269.506 1822.65 292.799C1824.93 294.465 1826.56 296.876 1827.25 299.616C1827.94 302.356 1827.66 305.251 1826.44 307.801L1801.34 361.048C1800.6 362.631 1799.52 364.034 1798.18 365.163C1796.85 366.291 1795.29 367.118 1793.6 367.586C1791.92 368.054 1790.15 368.153 1788.43 367.876C1786.7 367.598 1785.05 366.951 1783.6 365.979C1756.21 347.732 1726.75 332.786 1695.85 321.453C1694.26 320.869 1692.81 319.959 1691.6 318.781C1690.38 317.602 1689.42 316.182 1688.79 314.611C1688.16 313.04 1687.86 311.353 1687.92 309.66C1687.97 307.967 1688.39 306.305 1689.12 304.781Z" fill="#0A1622"/>
<path d="M1744.91 252.663C1733.13 281.896 1721.56 306.88 1711.21 327.433C1706.25 325.392 1701.14 323.412 1695.87 321.492C1694.28 320.91 1692.82 320 1691.6 318.818C1690.38 317.637 1689.42 316.212 1688.79 314.636C1688.15 313.06 1687.85 311.368 1687.92 309.67C1687.98 307.971 1688.4 306.305 1689.14 304.78L1714.36 253.103C1715.66 250.446 1717.88 248.355 1720.62 247.222C1723.35 246.09 1726.4 245.993 1729.19 246.952C1733.4 248.402 1738.76 250.312 1744.91 252.663Z" fill="#000D19"/>
<path d="M1775.97 298.68L1775.11 295.679C1774.99 295.281 1774.73 294.944 1774.36 294.744C1774 294.543 1773.57 294.495 1773.17 294.609L1772.17 294.909C1771.87 295 1771.55 294.998 1771.26 294.904C1770.96 294.809 1770.7 294.626 1770.51 294.379C1769.44 292.973 1768.12 291.784 1766.6 290.879C1766.32 290.706 1766.1 290.45 1765.98 290.147C1765.85 289.843 1765.83 289.508 1765.9 289.188L1766.01 288.728C1766.1 288.324 1766.03 287.899 1765.81 287.547C1765.59 287.194 1765.25 286.943 1764.84 286.848L1761.84 286.138C1761.64 286.09 1761.43 286.083 1761.23 286.116C1761.02 286.149 1760.83 286.222 1760.65 286.331C1760.48 286.44 1760.33 286.582 1760.21 286.749C1760.08 286.917 1760 287.107 1759.95 287.308L1759.57 288.918C1756.89 288.918 1754.27 289.704 1752.03 291.179C1751.77 291.347 1751.46 291.432 1751.15 291.423C1750.84 291.414 1750.54 291.311 1750.29 291.129L1749.82 290.799C1749.65 290.679 1749.47 290.594 1749.27 290.548C1749.06 290.502 1748.86 290.496 1748.66 290.531C1748.45 290.565 1748.26 290.639 1748.08 290.748C1747.91 290.858 1747.76 291.001 1747.64 291.169L1745.84 293.669C1745.6 294.008 1745.51 294.428 1745.57 294.838C1745.64 295.248 1745.87 295.615 1746.2 295.859C1746.49 296.059 1746.69 296.348 1746.79 296.68C1746.89 297.011 1746.88 297.367 1746.75 297.689C1746.11 299.279 1745.77 300.975 1745.75 302.69C1745.75 302.78 1745.75 302.88 1745.75 302.98L1743.82 303.54C1743.62 303.596 1743.44 303.69 1743.27 303.818C1743.11 303.945 1742.98 304.104 1742.88 304.285C1742.78 304.465 1742.71 304.664 1742.69 304.869C1742.67 305.074 1742.68 305.282 1742.74 305.481L1743.6 308.481C1743.72 308.88 1743.99 309.216 1744.35 309.417C1744.71 309.617 1745.14 309.666 1745.54 309.551L1746.1 309.391C1746.43 309.294 1746.77 309.306 1747.09 309.425C1747.4 309.544 1747.67 309.764 1747.85 310.051C1749.01 311.884 1750.58 313.418 1752.44 314.532C1752.72 314.702 1752.94 314.958 1753.07 315.262C1753.2 315.566 1753.22 315.903 1753.14 316.222L1753.03 316.682C1752.94 317.087 1753.01 317.511 1753.23 317.864C1753.45 318.216 1753.8 318.467 1754.2 318.562L1757.2 319.273C1757.61 319.366 1758.03 319.295 1758.38 319.075C1758.74 318.856 1758.99 318.506 1759.08 318.102L1759.46 316.502C1762.63 316.501 1765.69 315.406 1768.14 313.402C1768.41 313.189 1768.74 313.069 1769.08 313.058C1769.42 313.047 1769.75 313.147 1770.03 313.342L1770.39 313.602C1770.73 313.844 1771.15 313.943 1771.56 313.875C1771.97 313.808 1772.34 313.58 1772.58 313.242L1774.37 310.741C1774.49 310.574 1774.58 310.385 1774.63 310.184C1774.67 309.983 1774.68 309.775 1774.65 309.571C1774.61 309.367 1774.54 309.172 1774.43 308.997C1774.32 308.822 1774.18 308.67 1774.01 308.551L1773.32 308.061C1773.06 307.879 1772.87 307.622 1772.76 307.325C1772.65 307.028 1772.64 306.706 1772.72 306.401C1773.06 305.206 1773.23 303.971 1773.23 302.73C1773.23 302.59 1773.23 302.46 1773.23 302.33C1773.22 301.982 1773.32 301.639 1773.53 301.356C1773.73 301.074 1774.03 300.868 1774.36 300.77L1774.88 300.62C1775.08 300.564 1775.27 300.47 1775.43 300.343C1775.59 300.215 1775.73 300.057 1775.83 299.876C1775.93 299.696 1775.99 299.497 1776.02 299.292C1776.04 299.087 1776.03 298.879 1775.97 298.68ZM1759.51 309.881C1758.09 309.883 1756.71 309.465 1755.53 308.679C1754.35 307.892 1753.43 306.774 1752.89 305.465C1752.35 304.156 1752.2 302.716 1752.48 301.326C1752.75 299.936 1753.44 298.659 1754.44 297.657C1755.44 296.655 1756.72 295.972 1758.11 295.696C1759.5 295.42 1760.94 295.563 1762.25 296.106C1763.55 296.649 1764.67 297.569 1765.46 298.748C1766.24 299.927 1766.66 301.313 1766.66 302.73C1766.66 304.627 1765.91 306.446 1764.57 307.787C1763.23 309.128 1761.41 309.881 1759.51 309.881Z" fill="#000D19"/>
<path d="M1938.48 263.764C1914.35 322.042 1893.49 364.778 1856.23 425.536C1855.35 426.962 1853.98 428.007 1852.37 428.463C1850.76 428.919 1849.04 428.752 1847.55 427.996L1760.77 383.83C1759.94 383.408 1759.21 382.817 1758.63 382.095C1758.04 381.373 1757.62 380.537 1757.37 379.64C1757.13 378.743 1757.08 377.805 1757.22 376.887C1757.37 375.969 1757.7 375.091 1758.2 374.309C1762.05 368.308 1765.69 362.467 1769.12 356.787C1783.55 333.035 1796.67 308.508 1808.41 283.317C1818.52 261.824 1828.02 239.691 1839.41 213.888C1840.08 212.349 1841.31 211.123 1842.86 210.457C1844.4 209.79 1846.13 209.733 1847.72 210.297C1884.17 223.299 1907.45 237.841 1935.89 255.563C1937.23 256.402 1938.22 257.687 1938.69 259.189C1939.17 260.691 1939.09 262.312 1938.48 263.764Z" fill="#08141F"/>
<path d="M1826.44 307.761L1801.34 361.048C1800.6 362.631 1799.52 364.035 1798.18 365.163C1796.85 366.291 1795.28 367.118 1793.6 367.586C1791.91 368.054 1790.14 368.153 1788.42 367.875C1786.69 367.598 1785.04 366.951 1783.59 365.978C1779.66 363.348 1774.81 360.208 1769.12 356.747C1783.55 332.996 1796.67 308.469 1808.41 283.277C1813.29 286.278 1818.07 289.448 1822.64 292.759C1824.92 294.423 1826.55 296.834 1827.25 299.573C1827.94 302.313 1827.65 305.209 1826.44 307.761Z" fill="#000D19"/>
<path d="M1854.51 212.629L1860.81 215.449C1861.73 215.865 1862.56 216.461 1863.24 217.203C1863.93 217.945 1864.46 218.818 1864.8 219.769C1865.14 220.72 1865.29 221.729 1865.23 222.738C1865.17 223.747 1864.91 224.734 1864.47 225.641C1863.59 227.399 1863.44 229.431 1864.04 231.3C1864.64 233.17 1865.96 234.729 1867.7 235.642L1903.69 254.644C1905.37 255.53 1907.32 255.747 1909.15 255.252C1910.99 254.756 1912.56 253.585 1913.56 251.974L1914.16 250.974C1915.21 249.3 1916.88 248.105 1918.8 247.649C1920.72 247.192 1922.74 247.51 1924.43 248.533L1928.43 250.974C1928.43 250.974 1888.91 225.581 1854.51 212.629Z" fill="#000D19"/>
<path d="M1624.09 8.77148L1645.45 29.9043L1616.72 35.415" stroke="#08141F" stroke-width="7" stroke-linejoin="round"/>
<path d="M1611.76 48.2969L1642.15 56.8882" stroke="#08141F" stroke-width="7" stroke-linejoin="round"/>
<path d="M1668.57 44.1953C1668.57 44.1953 1737.56 64.3481 1769.12 79.2002" stroke="#08141F" stroke-width="7" stroke-linejoin="round"/>
<path d="M1684.25 112.695C1711.46 122.697 1738.6 132.938 1752.36 138.579" stroke="#08141F" stroke-width="7" stroke-linejoin="round"/>
<path d="M1605.86 84.1016C1605.86 84.1016 1628.3 92.1826 1656.14 102.374" stroke="#08141F" stroke-width="7" stroke-linejoin="round"/>
<path d="M1709.27 168.023C1719.33 172.094 1729.14 176.125 1738.27 179.935" stroke="#08141F" stroke-width="7" stroke-linejoin="round"/>
<path d="M1595.4 123.287C1595.4 123.287 1634.83 138.289 1678.19 155.521" stroke="#08141F" stroke-width="7" stroke-linejoin="round"/>
<path d="M1587.26 160.021C1587.26 160.021 1610.01 171.433 1640.5 184.175" stroke="#08141F" stroke-width="7" stroke-linejoin="round"/>
<path d="M1582.48 184.164L1571.03 206.627" stroke="#08141F" stroke-width="7" stroke-linejoin="round"/>
<path d="M119.213 450.001C119.213 450.001 73.3949 401.724 44.2162 296.83C43.974 295.956 43.5593 295.139 42.9966 294.427C42.4338 293.716 41.7345 293.124 40.9397 292.687C40.1448 292.25 39.2706 291.976 38.3685 291.882C37.4663 291.788 36.5545 291.876 35.6866 292.139L-14.1811 307.372C-15.8591 307.879 -17.2755 309.016 -18.1332 310.545C-18.9908 312.074 -19.2229 313.876 -18.7809 315.573C-13.1311 337.376 7.12794 410.355 34.4467 450.001H119.213Z" fill="#08141F"/>
<path d="M1496.24 27.7439C1497.49 23.5529 1495.36 19.2144 1491.48 18.0536C1487.61 16.8928 1483.45 19.3492 1482.19 23.5403C1480.94 27.7313 1483.06 32.0699 1486.94 33.2307C1490.82 34.3915 1494.98 31.935 1496.24 27.7439Z" fill="#000D19"/>
<path d="M1510.61 29.5742C1510.61 29.5742 1544.37 39.2653 1572.34 49.3965" stroke="#000D19" stroke-width="7" stroke-linejoin="round"/>
<path d="M209.858 353.707L259.236 330.504C259.236 330.504 270.036 354.027 283.595 366.239L245.827 387.242L244.217 388.152L235.497 393.052C235.497 393.052 215.328 375.96 209.858 353.707Z" fill="#4CC3FF"/>
<path d="M280.875 363.579L290.065 357.748C290.065 357.748 295.545 362.989 291.165 367.88L280.695 374.601L280.875 363.579Z" fill="white"/>
<path d="M265.986 364.049C265.986 364.049 269.986 371.11 276.146 374.481C282.306 377.851 286.886 367.66 280.906 363.549L265.986 364.049Z" fill="#4CC3FF"/>
<path d="M248.297 386.221L256.017 381.921L250.837 376.34L243.577 380.53L248.297 386.221Z" fill="#000D19"/>
<path d="M250.837 376.339C250.837 376.339 257.267 385.441 263.537 385.34L271.227 381.39C268.535 380.817 265.989 379.702 263.742 378.113C261.495 376.525 259.595 374.495 258.157 372.148L250.837 376.339Z" fill="#4CC3FF"/>
<path d="M258.603 339.612L220.44 357.229L222.095 360.814L260.258 343.197L258.603 339.612Z" fill="white"/>
<path d="M1816.12 194.425L1763.82 178.883C1763.82 178.883 1756.66 203.746 1745.08 217.888L1785.57 233.03L1787.3 233.69L1796.65 237.201C1796.65 237.201 1814.04 217.248 1816.12 194.425Z" fill="#FFBF00"/>
<path d="M1772.58 224.74L1762.58 220.35C1762.58 220.35 1757.94 226.35 1763 230.531L1774.36 235.611L1772.58 224.74Z" fill="white"/>
<path d="M1787.42 223.029C1787.42 223.029 1784.55 230.6 1778.92 234.861C1773.29 239.121 1767.29 229.72 1772.58 224.77L1787.42 223.029Z" fill="#FFBF00"/>
<path d="M1746.16 216.488C1746.16 216.488 1742.66 221.759 1733.69 223.249L1744.05 227.69C1744.05 227.69 1750.31 226.28 1753.24 221.489C1753.56 221.117 1753.85 220.723 1754.1 220.309L1746.16 216.488Z" fill="#FFBF00"/>
<path d="M1753.59 221.039L1758.35 214.549L1756.54 222.149L1753.59 221.039Z" fill="#000D19"/>
<path d="M1767.67 190.496L1807.41 202.867L1808.67 198.819L1768.93 186.447L1767.67 190.496Z" fill="white"/>
<path d="M1797.18 236.542L1795.06 239.153C1794.45 239.911 1794.05 240.808 1793.87 241.762C1793.7 242.717 1793.76 243.7 1794.06 244.624L1794.63 246.374L1784.63 242.373C1784.11 241.355 1783.9 240.204 1784.02 239.066C1784.15 237.928 1784.61 236.852 1785.34 235.972L1787.34 233.612L1788.05 232.762L1797.18 236.542Z" fill="#FFBF00"/>
<path d="M1620.44 314.917L1607.87 307.816L1614.51 296.059L1621 299.722C1622.61 300.635 1623.8 302.153 1624.3 303.942C1624.8 305.731 1624.56 307.644 1623.65 309.261L1620.45 314.922L1620.44 314.917Z" fill="white"/>
<path d="M1589.35 346.627L1560.56 330.375C1559.63 329.855 1558.93 329.015 1558.58 328.011C1558.22 327.007 1558.25 325.909 1558.65 324.924C1563.54 313.16 1569.4 301.826 1576.18 291.039C1578.25 287.599 1581.26 284.822 1584.85 283.038C1585.95 282.505 1587.16 282.248 1588.38 282.29C1589.6 282.331 1590.79 282.671 1591.85 283.278L1622.42 300.541C1622.42 300.541 1607.21 312.122 1595.69 344.306C1595.47 344.912 1595.12 345.463 1594.67 345.919C1594.22 346.376 1593.67 346.727 1593.06 346.948C1592.46 347.17 1591.81 347.256 1591.17 347.2C1590.53 347.144 1589.91 346.949 1589.35 346.627Z" fill="#4CC3FF"/>
<path d="M1591.14 332.363L1554.76 311.82L1550.57 319.241C1549.93 320.393 1549.77 321.751 1550.12 323.021C1550.48 324.291 1551.32 325.369 1552.46 326.022L1589.3 346.595C1588.68 346.253 1588.14 345.792 1587.7 345.239C1587.26 344.686 1586.93 344.051 1586.74 343.371C1586.55 342.691 1586.49 341.98 1586.58 341.279C1586.66 340.577 1586.88 339.899 1587.23 339.284L1591.14 332.363Z" fill="white"/>
<path d="M258.497 183.104C261.176 191.105 269.006 211.557 282.675 223.549L317.494 208.917C317.494 208.917 297.125 186.814 292.855 166.441L260.696 178.493C259.804 178.827 259.077 179.494 258.666 180.354C258.256 181.214 258.195 182.2 258.497 183.104Z" fill="#FFBF00"/>
<path d="M260.596 178.544C261.773 178.101 263.075 178.131 264.231 178.627C265.386 179.123 266.305 180.046 266.795 181.205L268.215 184.535L300.084 172.924C300.084 172.924 300.084 172.824 300.084 172.643C300.207 171.614 300.061 170.57 299.66 169.614C299.26 168.658 298.618 167.822 297.799 167.187C296.979 166.552 296.009 166.141 294.983 165.993C293.957 165.845 292.91 165.966 291.944 166.343L260.596 178.544Z" fill="white"/>
<path d="M309.108 205.565C309.263 202.382 306.379 199.655 302.667 199.474C298.954 199.293 295.819 201.727 295.664 204.91C295.509 208.093 298.392 210.821 302.105 211.001C305.817 211.182 308.953 208.749 309.108 205.565Z" fill="white"/>
<path d="M317.073 216.618L310.073 214.978L309.073 221.079L299.233 208.377L307.233 203.906L317.073 216.618Z" fill="white"/>
</svg>
