<svg width="1920" height="433" viewBox="0 0 1920 433" fill="none" xmlns="http://www.w3.org/2000/svg">
<mask id="mask0" mask-type="alpha" maskUnits="userSpaceOnUse" x="0" y="0" width="1920" height="433">
<rect width="1920" height="433" fill="#F6F7F9"/>
</mask>
<g mask="url(#mask0)">
<path d="M83.9871 243.737L61.0437 220.816L48.7612 233.087L71.7047 256.008L83.9871 243.737Z" fill="white"/>
<path d="M1936.16 108.078C1934.06 109.745 1931.41 110.544 1928.73 110.311C1926.06 110.078 1923.58 108.831 1921.8 106.826L1921.48 106.455L1911.46 95.1128C1908.11 91.3381 1904.86 87.4892 1901.25 83.9185L1890.78 73.0025L1888.16 70.2758L1885.44 67.6604L1879.99 62.4111C1865.52 48.4047 1850.36 35.1377 1834.55 22.6607C1830.58 19.5723 1826.64 16.4561 1822.65 13.3863L1810.49 4.48279C1802.29 -1.31375 1794.03 -7.02682 1785.58 -12.406L1781.87 -14.7617H1832.29L1840.01 -8.49218C1844.01 -5.09773 1847.96 -1.63836 1851.94 1.78392C1867.75 15.6004 1882.84 30.2046 1897.17 45.5408L1902.55 51.2632L1905.23 54.129L1907.8 57.0968L1918.1 68.9588C1921.59 72.8448 1924.77 77.0091 1928.05 81.0898L1937.82 93.3599C1939.55 95.5314 1940.35 98.3011 1940.04 101.061C1939.73 103.82 1938.34 106.344 1936.16 108.078Z" fill="#F6F7F9"/>
<path d="M1961.05 45.5331C1958.95 47.1995 1956.29 47.9984 1953.61 47.7655C1950.94 47.5326 1948.46 46.2856 1946.68 44.281L1946.36 43.91L1936.34 32.5673C1932.99 28.7925 1929.74 24.9436 1926.13 21.3729L1915.74 10.4568L1913.12 7.73003L1910.4 5.11461L1904.95 -0.13478C1899.83 -5.12449 1894.61 -9.99362 1889.3 -14.7422H1924.21L1927.46 -11.2828L1930.14 -8.41695L1932.71 -5.44909L1943.01 6.41305C1946.5 10.2991 1949.68 14.4634 1952.96 18.5442L1962.73 30.8144C1964.46 32.9893 1965.25 35.7613 1964.93 38.5212C1964.62 41.281 1963.22 43.8031 1961.05 45.5331Z" fill="#F6F7F9"/>
<path d="M1948.01 231.772L1927.91 211.691L1917.15 222.44L1937.25 242.52L1948.01 231.772Z" fill="white"/>
<path d="M248.136 169.746C246.912 171.401 245.104 172.529 243.078 172.901C241.052 173.273 238.961 172.861 237.228 171.75C217.065 158.83 198.156 144.056 180.745 127.621C172.139 119.274 163.681 110.677 155.911 101.467L152.949 98.0544L150.108 94.5486C148.252 92.2021 146.293 89.9113 144.445 87.5L138.996 80.2751L137.631 78.4202L136.331 76.5653L133.723 72.8555C119.81 52.9985 107.929 31.7957 98.2584 9.56629C94.7924 1.61495 91.6019 -6.48788 88.6868 -14.7422H120.679C122.108 -10.1977 123.656 -5.6779 125.321 -1.18286C132.981 19.9313 142.751 40.2212 154.481 59.3797L157.795 64.7774L158.956 66.5396L163.598 73.5882C165.185 75.9161 166.856 78.2255 168.481 80.4977L170.941 83.9386L173.513 87.2959C180.253 96.3664 187.689 104.917 195.302 113.265C210.875 129.878 227.97 145 246.363 158.431C247.226 159.056 247.957 159.844 248.514 160.752C249.071 161.66 249.443 162.668 249.607 163.72C249.772 164.772 249.727 165.846 249.475 166.88C249.222 167.914 248.767 168.888 248.136 169.746Z" fill="white"/>
<path d="M1826.99 421.862C1826.85 423.264 1826.19 424.565 1825.15 425.512C1824.1 426.459 1822.74 426.986 1821.33 426.991H1811.12C1807.7 426.991 1804.26 427.074 1800.83 426.842C1794.34 426.508 1787.76 426.332 1781.25 425.637C1785.72 421.927 1790.54 417.419 1795.3 412.652C1797.5 412.968 1799.71 413.274 1801.91 413.58C1805.17 414.127 1808.47 414.322 1811.75 414.665L1821.64 415.592H1821.93C1822.67 415.671 1823.39 415.896 1824.05 416.254C1824.71 416.611 1825.29 417.095 1825.76 417.678C1826.23 418.26 1826.58 418.93 1826.79 419.648C1827 420.366 1827.07 421.118 1826.99 421.862Z" fill="#E9EBF2"/>
<path d="M234.86 93.4984C233.189 94.6946 231.126 95.2124 229.087 94.9473C227.049 94.6822 225.187 93.6539 223.878 92.0701C208.698 73.576 195.283 53.7041 183.809 32.714C178.239 22.1041 172.817 11.3365 168.268 0.179367L166.513 -3.97557L164.888 -8.19542C164.062 -10.3564 163.208 -12.5173 162.391 -14.6875H187.095L187.977 -11.9052L189.388 -7.91719C192.991 2.79475 197.428 13.2006 202.079 23.523C211.74 44.1272 223.312 63.7821 236.643 82.23C237.897 83.9622 238.414 86.1201 238.079 88.2317C237.745 90.3433 236.588 92.2369 234.86 93.4984Z" fill="white"/>
<path d="M711.064 434.614H200.297C163.162 422.298 17.6286 307.127 66.4057 248.578L326.167 32.8906C321.989 255.738 594.376 407.078 711.064 434.614Z" fill="#E9EBF2"/>
<path d="M276.22 272.459C276.22 272.459 247.254 297.871 188.2 280.806C136.768 265.967 103.838 211.795 66.3965 248.559C66.3965 248.559 193.38 136.338 211.224 106.02C211.233 106.057 325.916 211.183 276.22 272.459Z" fill="#F6F7F9"/>
<path d="M188.181 60.0569C188.181 60.0569 167.757 89.0396 192.916 126.249C218.075 163.458 316.224 218.279 276.22 272.461C276.22 272.461 356.404 190.642 391.525 125.451L399.509 113.172L210.75 37.1211L188.181 60.0569Z" fill="#F3F4F7"/>
<path d="M708.585 -14.8164C708.585 -14.8164 612.563 109.925 565.113 141.857C517.664 173.789 476.555 170.126 414.548 138.305C352.542 106.484 244.116 20.5194 188.163 60.0472C188.98 59.1846 241.526 4.02006 268.421 -13.8982L396.844 -14.1672L436.059 -14.2507L527.969 -14.4362L565.253 -14.5196L606.482 -14.6031L638.817 -14.668L708.585 -14.8164Z" fill="#F6F7F9"/>
<path d="M1958.5 188.49L1954.01 192.933L1849.1 296.548C1849.1 296.548 1818.71 251.279 1760.23 195.808C1707.9 146.171 1633.04 88.3627 1537.42 47.5084L1548.56 27.9021L1556.97 13.1463L1572.84 -14.7422H1793.09C1793.09 -14.7422 1991.62 133.724 1958.5 188.49Z" fill="#E9EBF2"/>
<path d="M1747.55 205.916C1747.55 205.916 1758.58 185.299 1812.14 188.971C1865.7 192.644 1931.52 220.152 1958.5 188.536L1835.7 349.169C1835.7 349.169 1723.63 254.273 1747.55 205.916Z" fill="#F6F7F9"/>
<path d="M1747.55 205.916L1659.85 320.483L1810.72 398.129L1831.36 372.346C1831.36 372.346 1855.5 353.157 1831.36 305.366C1807.22 257.575 1738.04 241.715 1747.55 205.916Z" fill="#F3F4F7"/>
<path d="M1835.63 367.292C1835.32 367.672 1834.02 369.286 1831.92 371.79C1830.77 373.163 1829.4 374.814 1827.83 376.678C1823.12 382.242 1816.69 389.764 1809.59 397.555C1804.95 402.618 1800.07 407.757 1795.21 412.663C1790.34 417.569 1785.63 421.937 1781.16 425.647C1777.8 428.551 1774.2 431.166 1770.39 433.465H1338.52L1483.86 286.437C1483.86 286.437 1532.61 242.328 1601.59 280.001C1619.09 289.554 1640.91 302.009 1664.21 314.734C1732.72 352.165 1814.02 391.962 1835.63 367.292Z" fill="#F6F7F9"/>
<path d="M520.18 40.7202C522.706 35.8277 526.628 31.7939 531.45 29.1291C536.272 26.4644 541.777 25.2886 547.268 25.7505C552.76 26.2123 557.99 28.2911 562.298 31.7238C566.607 35.1565 569.799 39.7887 571.47 45.0343C573.142 50.2799 573.219 55.9031 571.691 61.1922C570.162 66.4813 567.098 71.1986 562.885 74.7471C558.672 78.2957 553.499 80.5159 548.023 81.1269C542.546 81.7379 537.011 80.7122 532.119 78.1795C528.865 76.5107 525.974 74.216 523.612 71.4273C521.249 68.6386 519.462 65.4108 518.353 61.9297C517.243 58.4486 516.833 54.7827 517.147 51.1428C517.46 47.5029 518.491 43.9608 520.18 40.7202Z" fill="white"/>
<path d="M542.962 64.6753C547.074 64.6753 550.407 61.3451 550.407 57.2371C550.407 53.129 547.074 49.7988 542.962 49.7988C538.85 49.7988 535.517 53.129 535.517 57.2371C535.517 61.3451 538.85 64.6753 542.962 64.6753Z" fill="#F3F4F7"/>
<path d="M540.01 26.112C546.033 25.0412 552.242 25.9815 557.677 28.7876C563.112 31.5937 567.471 36.1095 570.08 41.6374C567.822 45.2524 564.284 47.8856 560.17 49.0136C556.057 50.1415 551.669 49.6815 547.88 47.725C544.09 45.7685 541.177 42.4589 539.718 38.4543C538.26 34.4496 538.364 30.0435 540.01 26.112Z" fill="#F3F4F7"/>
<path d="M190.252 216.034C176.552 215.595 163.048 219.375 151.57 226.86C140.092 234.346 131.195 245.175 126.085 257.881C120.975 270.588 119.898 284.556 123.002 297.894C126.105 311.232 133.238 323.294 143.434 332.446C153.629 341.598 166.395 347.398 180.001 349.059C193.607 350.72 207.395 348.162 219.497 341.732C231.599 335.303 241.43 325.311 247.657 313.113C253.884 300.914 256.207 287.098 254.31 273.536C252.181 257.924 244.573 243.575 232.841 233.044C221.11 222.513 206.017 216.486 190.252 216.034ZM194.949 331.038C188.597 331.925 182.132 331.553 175.923 329.945C169.714 328.336 163.883 325.521 158.763 321.661C153.643 317.801 149.335 312.972 146.083 307.448C142.832 301.925 140.701 295.816 139.813 289.469C138.925 283.123 139.296 276.665 140.907 270.462C142.517 264.26 145.335 258.435 149.199 253.32C157.002 242.99 168.593 236.18 181.423 234.388C184.163 234.008 186.93 233.856 189.695 233.934C202.013 234.195 213.778 239.097 222.631 247.657C231.485 256.216 236.774 267.802 237.439 280.093C238.103 292.384 234.094 304.471 226.215 313.934C218.335 323.397 207.168 329.536 194.949 331.121V331.038Z" fill="#F3F4F7"/>
<path d="M190.252 216.034L189.695 233.971C186.929 233.892 184.163 234.044 181.423 234.425C174.091 235.443 167.088 238.115 160.943 242.238C154.799 246.361 149.674 251.828 145.959 258.223L130.464 249.199C136.525 238.806 145.28 230.239 155.808 224.402C166.335 218.565 178.245 215.674 190.279 216.034H190.252Z" fill="white"/>
<path d="M194.949 331.122L197.437 348.901C185.79 350.545 173.914 349.073 163.022 344.635L169.79 327.996C177.752 331.245 186.434 332.324 194.949 331.122Z" fill="#F6F7F9"/>
<path d="M385.926 372.281C390.767 372.281 394.69 368.361 394.69 363.525C394.69 358.69 390.767 354.77 385.926 354.77C381.086 354.77 377.163 358.69 377.163 363.525C377.163 368.361 381.086 372.281 385.926 372.281Z" fill="#F3F4F7"/>
<path d="M301.834 321.402L318.424 335.917L317.338 340.183C317.059 341.63 317.273 342.492 318.006 343.132L330.177 353.817C330.538 354.132 331.008 354.296 331.487 354.274C331.967 354.251 332.419 354.044 332.749 353.696L338.393 347.732L341.568 344.384L358.846 326.16C359.198 325.78 359.468 325.332 359.639 324.844C359.81 324.356 359.879 323.837 359.84 323.321C359.802 322.805 359.658 322.302 359.416 321.845C359.175 321.387 358.841 320.983 358.437 320.66L329.137 295.545C328.319 294.849 327.277 294.472 326.203 294.483C325.128 294.493 324.094 294.89 323.289 295.6L301.806 315.782C301.403 316.132 301.081 316.565 300.861 317.051C300.64 317.537 300.528 318.065 300.531 318.598C300.533 319.132 300.651 319.658 300.876 320.142C301.101 320.626 301.427 321.056 301.834 321.402Z" fill="#F3F4F7"/>
<path d="M322.472 294.57C323.576 294.085 324.79 293.901 325.989 294.038C327.188 294.175 328.329 294.628 329.295 295.349L358.614 320.455C360.322 321.92 360.016 323.952 357.917 325L334.596 336.685C333.456 337.223 332.192 337.443 330.937 337.322C329.682 337.201 328.483 336.744 327.466 335.999L298.259 310.541C296.588 309.085 297.053 307.044 299.281 305.968L322.472 294.57Z" fill="white"/>
<path d="M350.797 274.946L366.273 288.023L365.511 291.733C365.377 292.188 365.374 292.672 365.504 293.128C365.634 293.585 365.891 293.995 366.245 294.311L377.617 303.929C377.928 304.216 378.336 304.376 378.759 304.376C379.183 304.376 379.591 304.216 379.901 303.929L384.664 298.902L387.347 296.064L401.969 280.632C402.263 280.283 402.482 279.876 402.611 279.438C402.74 279.001 402.776 278.541 402.717 278.088C402.659 277.636 402.507 277.2 402.271 276.809C402.035 276.419 401.72 276.081 401.347 275.818L373.885 253.059C373.162 252.429 372.239 252.074 371.28 252.057C370.32 252.04 369.385 252.362 368.64 252.966L350.49 270.031C350.152 270.356 349.888 270.75 349.718 271.187C349.547 271.623 349.474 272.092 349.503 272.56C349.532 273.027 349.663 273.483 349.887 273.895C350.11 274.308 350.42 274.666 350.797 274.946Z" fill="#F3F4F7"/>
<path d="M241.573 381.843L259.509 398.24L257.968 403.331C257.541 405.047 257.717 406.049 258.516 406.781L271.689 418.885C272.115 419.236 272.662 419.407 273.212 419.361C273.762 419.314 274.272 419.053 274.632 418.634L281.484 411.354L285.337 407.264L306.197 385.126C306.622 384.702 306.958 384.197 307.183 383.641C307.409 383.086 307.52 382.49 307.511 381.891C307.501 381.291 307.371 380.699 307.128 380.151C306.885 379.602 306.533 379.109 306.095 378.699L274.53 350.467C273.579 349.69 272.373 349.29 271.145 349.345C269.917 349.4 268.752 349.905 267.874 350.764L241.87 375.23C239.846 377.159 239.697 380.127 241.573 381.843Z" fill="#F3F4F7"/>
<path d="M1588.48 405.763C1581.51 414.079 1572.38 420.319 1562.1 423.802C1545.54 429.497 1526.88 427.948 1512.42 418.145C1510.32 416.725 1508.33 415.137 1506.48 413.396C1493.3 401.015 1489.16 382.66 1494.9 365.642C1497.01 359.464 1500.26 353.733 1504.47 348.743C1523.26 326.16 1557.31 320.613 1580.52 336.352C1601.58 350.635 1606.47 377.522 1593.16 399.253C1591.76 401.535 1590.2 403.712 1588.48 405.763Z" fill="#F3F4F7"/>
<path d="M1562.85 397.798C1571.49 394.504 1576.1 385.554 1573.14 377.806C1570.18 370.058 1560.78 366.447 1552.13 369.74C1543.49 373.033 1538.88 381.984 1541.84 389.732C1544.8 397.48 1554.21 401.091 1562.85 397.798Z" fill="white"/>
<path d="M1562.1 423.802C1545.54 429.497 1526.88 427.948 1512.42 418.145C1510.32 416.725 1508.33 415.137 1506.48 413.396C1493.3 401.015 1489.16 382.66 1494.9 365.642L1554.32 355.959L1559.26 398.872L1562.1 423.802Z" fill="#E9EBF2"/>
<path d="M1588.48 405.762C1569.68 428.336 1535.63 433.882 1512.42 418.143C1510.32 416.723 1508.33 415.135 1506.48 413.395L1593.13 399.279C1591.74 401.552 1590.18 403.718 1588.48 405.762Z" fill="white"/>
<path d="M1559.24 398.872C1555.03 399.618 1550.69 398.722 1547.12 396.368C1540.02 391.554 1538.92 382.057 1544.67 375.157C1547.5 371.794 1551.46 369.562 1555.81 368.869L1559.24 398.872Z" fill="#F3F4F7"/>
<path d="M1880.78 126.823L1872.35 117.855C1871.88 117.247 1871.64 116.487 1871.7 115.72C1871.75 114.952 1872.08 114.23 1872.63 113.69L1882.41 102.858C1883.56 101.587 1885.31 101.401 1886.31 102.459L1894.86 111.474C1895.34 112.09 1895.57 112.862 1895.52 113.64C1895.46 114.419 1895.12 115.15 1894.56 115.694L1884.65 126.462C1884.43 126.754 1884.15 126.997 1883.83 127.176C1883.51 127.354 1883.16 127.464 1882.79 127.498C1882.43 127.532 1882.06 127.49 1881.71 127.373C1881.37 127.257 1881.05 127.07 1880.78 126.823Z" fill="white"/>
<path d="M1895.79 142.783L1887.28 133.732C1886.81 133.122 1886.57 132.361 1886.63 131.593C1886.68 130.825 1887.02 130.104 1887.57 129.567L1897.52 118.81C1897.74 118.514 1898.03 118.268 1898.35 118.087C1898.68 117.906 1899.04 117.794 1899.41 117.759C1899.78 117.723 1900.15 117.764 1900.5 117.879C1900.86 117.995 1901.18 118.182 1901.46 118.429L1910.09 127.536C1910.57 128.153 1910.8 128.927 1910.75 129.707C1910.69 130.488 1910.34 131.218 1909.77 131.756L1899.71 142.458C1899.48 142.748 1899.19 142.988 1898.87 143.163C1898.54 143.337 1898.19 143.443 1897.82 143.474C1897.45 143.504 1897.08 143.459 1896.73 143.34C1896.38 143.221 1896.06 143.031 1895.79 142.783Z" fill="#F3F4F7"/>
<path d="M1864.11 144.983L1855.82 136.07C1855.36 135.473 1855.13 134.729 1855.18 133.976C1855.23 133.224 1855.55 132.514 1856.08 131.98L1865.61 121.417C1866.73 120.174 1868.39 120.007 1869.41 121.055L1877.82 130.014C1878.3 130.617 1878.53 131.372 1878.48 132.135C1878.43 132.899 1878.09 133.616 1877.55 134.151L1867.9 144.705C1867.68 144.987 1867.4 145.219 1867.09 145.388C1866.77 145.556 1866.43 145.657 1866.07 145.683C1865.71 145.709 1865.35 145.661 1865.02 145.54C1864.68 145.419 1864.37 145.23 1864.11 144.983Z" fill="#F3F4F7"/>
<path d="M1878.86 160.832L1870.51 151.845C1870.04 151.247 1869.81 150.498 1869.86 149.742C1869.92 148.985 1870.24 148.274 1870.79 147.745L1880.46 137.284C1880.68 136.996 1880.96 136.757 1881.28 136.583C1881.6 136.409 1881.96 136.303 1882.32 136.272C1882.68 136.24 1883.05 136.284 1883.39 136.401C1883.74 136.518 1884.05 136.705 1884.32 136.95L1892.81 145.992C1893.28 146.596 1893.52 147.356 1893.46 148.123C1893.41 148.889 1893.07 149.608 1892.51 150.138L1882.69 160.581C1882.46 160.86 1882.18 161.088 1881.86 161.253C1881.54 161.418 1881.19 161.515 1880.83 161.538C1880.47 161.562 1880.11 161.511 1879.77 161.39C1879.44 161.268 1879.13 161.078 1878.86 160.832Z" fill="#F3F4F7"/>
<path d="M153.163 434.616H103.643C64.83 403.297 30.6623 366.634 2.16164 325.724C-30.7216 278.257 -43.4683 242.412 -43.9789 240.909C-47.1911 231.737 -42.5492 223.538 -33.5996 222.611C-24.65 221.683 -14.8277 228.268 -11.5784 237.45C-8.72268 244.949 -5.47824 252.295 -1.85824 259.458C7.46418 278.192 18.1799 296.201 30.1987 313.333C63.55 360.821 105.205 401.907 153.163 434.616Z" fill="#F6F7F9"/>
<path d="M1711.68 43.984C1710.69 44.9663 1709.38 45.5516 1707.99 45.6285C1706.6 45.7055 1705.22 45.2687 1704.13 44.4013L1704 44.2993L1697.57 39.1798L1694.36 36.6293L1691.07 34.1437L1684.51 29.2097L1677.83 24.4055C1668.89 18.071 1659.81 11.9313 1650.55 6.06979C1641.28 0.208309 1631.98 -5.49551 1622.45 -10.9489L1615.76 -14.7422H1655.15C1657.37 -12.98 1659.58 -11.2086 1661.76 -9.4279C1670.51 -2.35145 1679.04 5.00323 1687.4 12.5341L1693.63 18.2287L1699.74 24.0531L1702.79 26.9652L1705.77 29.9609L1711.72 35.943C1712.25 36.4733 1712.66 37.1021 1712.94 37.7932C1713.23 38.4844 1713.37 39.2244 1713.37 39.9711C1713.36 40.7178 1713.21 41.4565 1712.92 42.1451C1712.64 42.8336 1712.21 43.4585 1711.68 43.984Z" fill="#F6F7F9"/>
<path d="M1758.05 17.0144C1757.07 17.9949 1755.75 18.5789 1754.36 18.6559C1752.97 18.7328 1751.6 18.2972 1750.51 17.4317L1750.38 17.3204L1743.93 12.2008L1740.72 9.65027L1737.44 7.17393L1730.87 2.23979L1724.2 -2.56451C1718.34 -6.71957 1712.42 -10.7788 1706.45 -14.7422H1733.42L1733.77 -14.4361L1740 -8.75073L1746.12 -2.91694L1749.16 -0.00468826L1752.14 2.98177L1758.09 8.97322C1758.62 9.5036 1759.03 10.1323 1759.32 10.8235C1759.6 11.5147 1759.74 12.2548 1759.74 13.0015C1759.74 13.7482 1759.59 14.4869 1759.3 15.1755C1759.01 15.864 1758.59 16.4889 1758.05 17.0144Z" fill="#F6F7F9"/>
<path d="M1690.26 433.465H1630.46C1630.04 433.243 1629.59 433.002 1629.07 432.705L1628.59 432.427C1627.05 431.545 1625.7 430.369 1624.62 428.966C1623.54 427.564 1622.74 425.962 1622.28 424.252C1621.82 422.542 1621.69 420.757 1621.92 419C1622.15 417.243 1622.72 415.548 1623.6 414.012C1624.48 412.475 1625.66 411.127 1627.07 410.045C1628.47 408.963 1630.07 408.168 1631.78 407.705C1633.5 407.242 1635.28 407.121 1637.04 407.347C1638.8 407.574 1640.5 408.144 1642.03 409.026C1642.48 409.286 1642.96 409.611 1643.38 409.907C1643.8 410.204 1644.47 410.649 1645.07 411.039C1645.67 411.428 1646.35 411.855 1647 412.263C1648.3 413.089 1649.66 413.896 1651.03 414.684L1653.07 415.89L1655.17 417.049C1656.58 417.81 1657.96 418.607 1659.39 419.349C1662.26 420.805 1665.08 422.354 1668.01 423.708C1670.94 425.062 1673.83 426.537 1676.82 427.808C1679.81 429.078 1682.74 430.47 1685.78 431.647L1690.26 433.465Z" fill="white"/>
<path d="M1634.91 64.7777C1634.05 65.9402 1632.78 66.7337 1631.36 66.9972C1629.94 67.2607 1628.47 66.9746 1627.26 66.1967H1627.2C1618.71 60.7433 1609.87 55.7814 1600.83 51.1256C1591.8 46.4698 1582.57 42.1571 1573.21 38.0949C1568.57 36.0174 1563.83 34.0975 1559.12 32.1313C1554.41 30.1651 1549.64 28.3195 1544.85 26.5666C1535.32 22.8939 1525.71 19.4067 1516.01 16.1049C1496.65 9.43654 1477.02 3.38954 1457.37 -2.25866C1447.52 -5.07812 1437.64 -7.77701 1427.73 -10.3553C1422.78 -11.6414 1417.82 -12.8996 1412.87 -14.1301L1410.7 -14.7422H1490.33C1501.22 -10.6243 1512.05 -6.33018 1522.82 -1.85985C1532.47 2.1282 1542.04 6.29247 1551.54 10.633C1556.3 12.7754 1561.02 15.0476 1565.74 17.2735C1570.47 19.4994 1575.14 21.8551 1579.78 24.2758C1589.06 29.0522 1598.35 34.0512 1607.32 39.4582C1616.3 44.8653 1625.19 50.5877 1633.72 56.8294C1634.93 57.728 1635.73 59.0688 1635.95 60.5584C1636.18 62.0481 1635.8 63.5652 1634.91 64.7777Z" fill="white"/>
<path d="M620.565 434.616H563.86L559.979 432.52C539.062 421.009 518.83 408.297 499.384 394.448C489.679 387.542 480.182 380.345 470.892 372.857C466.25 369.147 461.673 365.299 457.133 361.403C454.868 359.443 452.621 357.465 450.393 355.468L447.042 352.453C445.918 351.415 444.86 350.422 443.662 349.263C442.027 347.655 441.083 345.474 441.031 343.182C440.979 340.891 441.823 338.669 443.384 336.989C444.945 335.309 447.1 334.302 449.391 334.184C451.683 334.065 453.931 334.843 455.657 336.353L455.806 336.483C456.734 337.327 457.857 338.338 458.916 339.209L462.174 341.992C464.365 343.847 466.581 345.664 468.822 347.445C473.315 351.034 477.855 354.577 482.478 358.018C491.7 364.937 501.132 371.568 510.775 377.912C530.002 390.599 549.949 402.162 570.516 412.543C580.803 417.672 591.191 422.569 601.747 427.057C604.365 428.208 607.039 429.246 609.685 430.341C612.331 431.435 614.976 432.52 617.669 433.513L620.565 434.616Z" fill="#F3F4F7"/>
<path d="M495.522 434.615H458.182C449.549 428.401 441.085 421.955 432.791 415.277C428.149 411.567 423.572 407.709 419.033 403.823C416.78 401.863 414.533 399.881 412.293 397.878L408.978 394.836C407.846 393.797 406.787 392.805 405.59 391.646C403.907 390.048 402.923 387.852 402.851 385.534C402.779 383.216 403.625 380.963 405.205 379.264C406.785 377.565 408.971 376.556 411.291 376.457C413.61 376.358 415.875 377.177 417.594 378.735L417.733 378.865C418.661 379.709 419.785 380.72 420.843 381.592L424.102 384.374C426.293 386.229 428.511 388.044 430.758 389.818C435.242 393.408 439.782 396.96 444.405 400.401C453.627 407.32 463.06 413.951 472.702 420.295C480.21 425.241 487.816 430.015 495.522 434.615Z" fill="#F3F4F7"/>
<path d="M392.815 434.615H364.694C363.645 433.632 362.633 432.695 361.501 431.601C359.819 430.003 358.835 427.807 358.763 425.489C358.69 423.171 359.536 420.918 361.116 419.219C362.696 417.52 364.883 416.511 367.202 416.412C369.521 416.313 371.786 417.132 373.505 418.69L373.644 418.82C374.572 419.664 375.696 420.675 376.763 421.547L380.013 424.329C382.204 426.184 384.432 427.983 386.669 429.783C388.712 431.396 390.754 433.01 392.815 434.615Z" fill="#F3F4F7"/>
<path d="M1760.2 195.805C1730.05 167.173 1697.71 140.925 1663.49 117.297C1654.28 128.386 1647.96 141.573 1645.07 155.688C1642.18 169.803 1642.83 184.412 1646.94 198.22C1651.06 212.028 1658.52 224.609 1668.66 234.848C1678.81 245.088 1691.32 252.671 1705.1 256.924C1706.03 257.212 1706.96 257.471 1707.88 257.722L1747.55 205.914C1747.55 205.914 1750.4 200.563 1760.2 195.805Z" fill="#F6F7F9"/>
<path d="M1818.7 173.205C1818.7 178.615 1818.19 184.014 1817.2 189.333C1815.5 189.175 1813.82 189.036 1812.14 188.925C1785.77 187.07 1769.71 191.197 1760.15 195.807C1730 167.174 1697.67 140.926 1663.44 117.298C1671.67 107.366 1681.99 99.373 1693.67 93.8925C1705.34 88.4121 1718.09 85.5795 1730.99 85.5977C1732.53 85.5977 1734.06 85.5977 1735.58 85.7183C1758.02 86.8763 1779.16 96.6004 1794.62 112.882C1810.09 129.163 1818.71 150.758 1818.7 173.205Z" fill="#F3F4F7"/>
<path d="M1812.14 188.925C1785.77 187.07 1769.71 191.197 1760.15 195.807C1750.35 200.564 1747.5 205.869 1747.5 205.869C1742.95 223.036 1756.45 235.612 1774.42 249.301C1776.58 248.068 1778.68 246.751 1780.73 245.341C1785.84 241.839 1790.56 237.797 1794.8 233.284L1795.97 232.014C1806.85 220.029 1814.19 205.259 1817.16 189.352C1815.48 189.222 1813.82 189.036 1812.14 188.925Z" fill="#E9EBF2"/>
<path d="M1747.55 205.916L1707.86 257.77C1723.5 262.026 1740.01 261.881 1755.58 257.353C1762.16 255.44 1768.5 252.753 1774.45 249.349C1756.49 235.595 1743 223.037 1747.55 205.916Z" fill="#F3F4F7"/>
<path d="M1634.9 64.7773C1634.05 65.9397 1632.78 66.7332 1631.36 66.9967C1629.94 67.2602 1628.47 66.9741 1627.26 66.1962H1627.2C1618.71 60.7429 1609.87 55.7811 1600.83 51.1253C1591.8 46.4695 1582.57 42.1569 1573.21 38.0947C1568.57 36.0172 1563.83 34.0974 1559.12 32.1313C1555.59 30.7308 1552.08 29.3489 1548.55 27.9392L1556.96 13.1836C1559.88 14.5469 1562.81 15.9659 1565.72 17.3107C1570.36 19.6293 1575.12 21.8923 1579.76 24.3129C1589.04 29.0892 1598.33 34.0882 1607.3 39.4952C1616.28 44.9022 1625.18 50.6245 1633.7 56.8662C1634.9 57.7612 1635.7 59.0935 1635.93 60.5742C1636.15 62.055 1635.79 63.5651 1634.9 64.7773Z" fill="#F6F7F9"/>
<path d="M391.506 125.449C383.828 139.695 374.006 154.729 363.348 169.522C396.566 189.156 434.072 204.273 453.03 195.936C465.461 190.464 477.873 177.925 488.745 163.475C466.63 161.397 442.762 152.781 414.548 138.304C407.456 134.65 399.694 130.272 391.506 125.449Z" fill="#E9EBF2"/>
<path d="M391.506 125.451C367.86 111.539 340.362 94.0106 312.594 79.3105C301.954 94.3352 295.604 109.972 300.525 119.033C306.504 130.163 333.167 151.689 363.358 169.523C374.015 154.731 383.838 139.697 391.515 125.451H391.506Z" fill="#F6F7F9"/>
<path d="M188.181 60.0566L210.741 37.1211C197.707 50.0403 188.181 60.0566 188.181 60.0566Z" fill="#F6F7F9"/>
<path d="M254.059 54.5662L210.75 37.1211L188.191 60.0566C205.913 47.5177 228.928 47.6011 254.059 54.5662Z" fill="#F6F7F9"/>
<path d="M313.252 78.4118L302.316 74.0059C305.739 75.7249 309.167 77.4935 312.602 79.3115C312.816 79.0054 313.029 78.7086 313.252 78.4118Z" fill="#F6F7F9"/>
<path d="M523.55 96.6905C522.408 91.5432 515.983 91.5153 502.624 99.2873C491.261 105.891 476.629 103.238 465.303 96.607C434.555 78.6702 375.854 45.9312 367.48 40.6355C356.627 33.7631 329.973 55.1964 313.253 78.4105C313.03 78.7073 312.817 79.004 312.603 79.3379C340.362 94.038 367.86 111.595 391.515 125.479C399.713 130.301 407.465 134.679 414.586 138.333C442.771 152.81 466.64 161.426 488.754 163.55C509.512 136.005 524.654 101.671 523.55 96.6905Z" fill="#F3F4F7"/>
<path d="M1699.94 67.0957C1699.51 94.3905 1702.24 110.12 1709.15 136.571L1725.42 105.752L1760.21 102.969C1737.97 86.7483 1725.36 77.9283 1699.94 67.0957Z" fill="#F6F7F9"/>
<path d="M1760.2 102.97L1725.42 105.752L1709.16 136.59C1704.51 118.82 1701.73 105.891 1700.58 91.0428C1710.32 87.4406 1720.62 85.6033 1731 85.6173C1732.54 85.6173 1734.07 85.6173 1735.59 85.7378C1743.2 90.6348 1750.85 96.1624 1760.2 102.97Z" fill="white"/>
<path d="M1795.25 412.634C1790.46 417.429 1785.67 421.909 1781.21 425.619L1780.28 425.517L1775.15 425.044C1773.44 424.858 1771.71 424.765 1770.01 424.496L1759.8 423.096C1756.37 422.688 1752.99 422.002 1749.59 421.408L1744.48 420.481C1743.64 420.323 1742.78 420.184 1741.94 420.017L1739.4 419.46L1729.27 417.235L1719.2 414.647L1716.68 413.988L1714.18 413.256L1709.18 411.772C1705.84 410.844 1702.55 409.704 1699.24 408.6C1695.94 407.496 1692.65 406.328 1689.36 405.113C1686.08 403.898 1682.87 402.581 1679.56 401.292C1677.94 400.633 1676.32 399.91 1674.7 399.214L1672.26 398.157L1669.83 397.035C1668.22 396.293 1666.6 395.541 1664.97 394.716C1664.15 394.308 1663.35 393.928 1662.51 393.473C1661.66 393.019 1660.9 392.648 1659.85 392.045L1659.37 391.767C1656.26 389.986 1653.99 387.046 1653.06 383.593C1652.12 380.141 1652.6 376.459 1654.38 373.357C1656.17 370.255 1659.11 367.988 1662.56 367.054C1666.02 366.12 1669.71 366.596 1672.81 368.377C1673.26 368.636 1673.74 368.961 1674.16 369.304C1674.57 369.647 1675.24 370.037 1675.85 370.435C1676.45 370.834 1677.13 371.252 1677.78 371.66C1679.08 372.485 1680.44 373.283 1681.81 374.08L1683.86 375.286L1685.96 376.445C1687.36 377.206 1688.74 378.003 1690.16 378.745C1693.03 380.201 1695.85 381.75 1698.79 383.104C1701.72 384.458 1704.61 385.887 1707.6 387.204C1710.59 388.521 1713.52 389.865 1716.56 391.043L1721.09 392.898L1723.35 393.826L1725.64 394.66L1734.85 398.008L1744.18 401.023L1746.52 401.774C1747.3 402.015 1748.1 402.219 1748.88 402.451L1753.62 403.777C1756.77 404.649 1759.92 405.632 1763.12 406.309L1772.72 408.581C1774.31 408.989 1775.94 409.231 1777.55 409.564L1782.4 410.492C1786.61 411.354 1790.93 412.013 1795.25 412.634Z" fill="white"/>
<path d="M314.757 205.266L280.917 246.389L224.212 207.186L256.064 169.365L314.757 205.266Z" fill="#4CC3FF"/>
<path d="M227.275 203.541L262.006 198.848V192.801L228.575 202.01L227.275 203.541Z" fill="#000D1A"/>
<path d="M253.01 173.019L261.236 198.802C261.683 200.213 262.539 201.46 263.696 202.384C264.853 203.309 266.258 203.87 267.734 203.995C275.718 204.691 292.179 206.017 308.945 206.685L270.427 199.813C269.44 199.636 268.517 199.205 267.749 198.563C266.98 197.92 266.393 197.088 266.045 196.149L256.092 169.355L253.01 173.019Z" fill="#000D1A"/>
<path d="M273.862 209.941L283.405 243.376L285.428 240.909L273.862 209.941Z" fill="#000D1A"/>
<path d="M1891.17 244.915C1883.37 254.718 1875.38 265.681 1866.81 277.738C1848.11 272.869 1829.6 262.778 1813.05 247.827C1822.53 235.891 1831.19 224.928 1839.33 215.051C1855.31 229.964 1873.18 240.037 1891.17 244.915Z" fill="#FFBF00"/>
<path d="M1839.33 215.051C1842.99 226.716 1847.29 238.172 1852.2 249.368C1865.29 248.876 1878.33 247.397 1891.19 244.944C1873.18 240.037 1855.31 229.965 1839.33 215.051Z" fill="#000D1A"/>
<path d="M1891.17 244.915C1890.14 244.785 1889.11 244.655 1888.09 244.497C1880.12 243.322 1872.29 241.387 1864.69 238.719C1856.27 232.607 1848.55 225.58 1841.67 217.768C1840.88 216.841 1840.1 215.969 1839.32 215.051C1850.19 217.286 1861.2 218.782 1872.28 219.53C1875.26 219.744 1878.07 221.385 1879.15 223.546C1882.79 230.867 1886.8 237.999 1891.17 244.915Z" fill="#000D1A"/>
<path d="M1816.75 243.172C1829.3 243.541 1841.86 243.194 1854.36 242.133C1853.92 241.456 1853.44 240.76 1853.04 240.064C1841.35 241.208 1829.59 241.802 1817.76 241.845L1816.75 243.172Z" fill="#000D1A"/>
<path d="M1816.75 243.17C1830.56 243.537 1844.39 243.047 1858.14 241.705C1862.12 252.779 1866.32 262.959 1870.72 272.246C1869.43 274.046 1868.13 275.882 1866.81 277.737C1848.11 272.868 1829.6 262.777 1813.05 247.826L1816.75 243.17Z" fill="#FFBF00"/>
<path d="M1860.8 248.875C1863.98 257.216 1867.29 265.007 1870.72 272.248L1871.51 271.144C1869.27 263.724 1867.1 255.946 1865.01 247.809L1860.8 248.875Z" fill="#000D1A"/>
<path d="M1906.83 310.365C1906.83 310.365 1938.51 323.433 1946.08 317.655L1929.58 337.614C1927.81 339.766 1925.51 341.417 1922.91 342.402C1920.3 343.386 1917.48 343.67 1914.73 343.225C1906.53 341.899 1894.55 339.274 1885.95 334.386L1906.83 310.365Z" fill="white"/>
<path d="M115.276 185.187C115.276 185.187 106.456 182.145 110.634 174.225L121.255 163.504L130.065 169.161L115.276 185.187Z" fill="#E9EBF2"/>
<path d="M153.052 186.161C153.052 186.161 119.518 168.632 110.615 174.225L130.761 153.895C132.921 151.714 135.613 150.133 138.571 149.31C141.53 148.487 144.652 148.45 147.63 149.202C156.505 151.475 169.419 155.565 178.396 161.797L153.052 186.161Z" fill="white"/>
<path d="M1928.02 158.123C1930.23 155.407 1930.44 151.925 1928.49 150.347C1926.54 148.769 1923.18 149.691 1920.97 152.408C1918.76 155.124 1918.55 158.606 1920.5 160.184C1922.45 161.762 1925.81 160.839 1928.02 158.123Z" fill="#F3F4F7"/>
<path d="M1915.23 173.95C1918.07 171.886 1919.17 168.568 1917.69 166.539C1916.21 164.51 1912.71 164.539 1909.88 166.603C1907.04 168.667 1905.94 171.984 1907.42 174.013C1908.9 176.042 1912.4 176.013 1915.23 173.95Z" fill="#F3F4F7"/>
<path d="M1889.31 190.63C1892.14 188.568 1893.24 185.257 1891.76 183.233C1890.28 181.21 1886.79 181.241 1883.96 183.302C1881.13 185.364 1880.04 188.676 1881.52 190.699C1882.99 192.722 1886.48 192.692 1889.31 190.63Z" fill="#F3F4F7"/>
<path d="M405.98 92.6457L373.486 132.119L360.312 127.574L390.485 89.7798C391.426 88.601 392.761 87.8016 394.246 87.5289C395.73 87.2562 397.263 87.5286 398.562 88.2959L405.98 92.6457Z" fill="#000D1A"/>
<path d="M452.055 128.846L419.664 169.338C419.664 169.338 397.151 160.463 371.258 138.927C345.366 117.392 373.523 132.12 373.523 132.12L404.086 94.7344C404.086 94.7344 410.269 107.023 452.055 128.846Z" fill="#FFBF00"/>
<path d="M445.835 131.211L404.568 130.599L446.8 135.412L452.055 128.846L445.835 131.211Z" fill="#000D1A"/>
<path d="M393.363 106.846L395.553 124.764L390.633 111.186L393.363 106.846Z" fill="#000D1A"/>
<path d="M1724.09 264.641L1728.31 259.076C1728.31 259.076 1738.38 266.283 1734.7 269.446L1730.98 272.414L1724.09 264.641Z" fill="#000D1A"/>
<path d="M1671.67 225.596L1639.01 272.433C1639.01 272.433 1657.58 286.066 1686.15 303.874C1696.48 310.31 1703.67 307.658 1704.83 307.342C1706.2 306.971 1719.68 287.541 1719.68 287.541L1722.97 285.927C1729.33 277.116 1734.71 269.465 1734.71 269.465C1734.71 269.465 1705 258.892 1671.67 225.596Z" fill="#4CC3FF"/>
<path d="M1671.27 232.236L1697.46 284.275L1665.08 235.38L1671.67 225.596L1671.27 232.236Z" fill="#000D1A"/>
<path d="M1719.67 287.541L1707.86 289.368L1716.82 291.632L1719.67 287.541Z" fill="#000D1A"/>
<path d="M613.825 22.0405C611.969 25.7039 605.229 25.7502 598.628 22.1796L598.043 21.8642L579.995 12.1446C573.97 8.90779 567.991 5.59681 561.901 2.57333L543.705 -6.70115L539.156 -9.01977L534.588 -11.2271L527.941 -14.4361L565.253 -14.5195L568.038 -13.0171C574.286 -9.68753 580.413 -6.07976 586.605 -2.54618L605.061 8.07309C611.829 11.9869 615.766 18.2379 613.825 22.0405Z" fill="#F3F4F7"/>
<path d="M646.737 -1.24712C644.88 2.46286 638.14 2.46286 631.539 -1.09872L630.954 -1.41407L612.906 -11.1064L606.482 -14.603L638.817 -14.668C645.084 -10.7354 648.593 -4.87362 646.737 -1.24712Z" fill="#F3F4F7"/>
<path d="M498.975 30.109C497.119 33.8188 490.379 33.8188 483.787 30.2574L483.193 29.9421L465.145 20.2226C459.111 16.9859 453.141 13.675 447.042 10.6515L428.846 1.37721L424.296 -0.941362L419.729 -3.14865L410.575 -7.58177C406.001 -9.8076 401.424 -12.0025 396.844 -14.1665L436.059 -14.25L453.151 -4.97569C459.399 -1.64621 465.535 1.9615 471.718 5.49501L490.184 16.1048C496.979 20.065 500.888 26.3066 498.975 30.109Z" fill="white"/>
</g>
</svg>
