<svg width="1920" height="433" viewBox="0 0 1920 433" fill="none" xmlns="http://www.w3.org/2000/svg">
<path d="M83.9872 241.618L61.0437 218.691L48.7612 230.965L71.7047 253.892L83.9872 241.618Z" fill="white"/>
<path d="M1936.16 105.927C1934.06 107.593 1931.41 108.393 1928.73 108.16C1926.06 107.927 1923.58 106.679 1921.8 104.674L1921.48 104.303L1911.46 92.9578C1908.11 89.1821 1904.86 85.3323 1901.25 81.7608L1890.78 70.8421L1888.16 68.1147L1885.44 65.4987L1879.99 60.2481C1865.52 46.2384 1850.36 32.9681 1834.55 20.4881C1830.58 17.399 1826.64 14.282 1822.65 11.2114L1810.49 2.3058C1802.29 -3.49214 1794.03 -9.20659 1785.58 -14.5871L1781.87 -16.9434H1832.29L1840.01 -10.6723C1844.01 -7.27703 1847.96 -3.81682 1851.94 -0.393719C1867.75 13.4261 1882.84 28.0339 1897.17 43.3738L1902.55 49.0975L1905.23 51.964L1907.8 54.9325L1918.1 66.7975C1921.59 70.6844 1924.77 74.8496 1928.05 78.9314L1937.82 91.2045C1939.55 93.3764 1940.35 96.1468 1940.04 98.9072C1939.73 101.668 1938.34 104.192 1936.16 105.927Z" fill="#F7F8FA"/>
<path d="M1961.05 43.3636C1958.95 45.0304 1956.29 45.8295 1953.61 45.5965C1950.94 45.3636 1948.46 44.1163 1946.68 42.1112L1946.36 41.7402L1936.34 30.3947C1932.99 26.6191 1929.74 22.7693 1926.13 19.1978L1915.74 8.27906L1913.12 5.5517L1910.4 2.93567L1904.95 -2.31495C1899.83 -7.30583 1894.61 -12.1761 1889.3 -16.9258H1924.21L1927.46 -13.4656L1930.14 -10.5991L1932.71 -7.63051L1943.01 4.23441C1946.5 8.12135 1949.68 12.2866 1952.96 16.3684L1962.73 28.6414C1964.46 30.8169 1965.25 33.5895 1964.93 36.35C1964.62 39.1106 1963.22 41.6332 1961.05 43.3636Z" fill="#F7F8FA"/>
<path d="M1948.01 229.647L1927.91 209.562L1917.15 220.313L1937.25 240.398L1948.01 229.647Z" fill="white"/>
<path d="M248.136 167.607C246.912 169.262 245.104 170.39 243.078 170.762C241.052 171.134 238.961 170.722 237.228 169.611C217.065 156.688 198.156 141.911 180.745 125.472C172.139 117.123 163.681 108.523 155.911 99.3116L152.949 95.8977L150.108 92.3911C148.252 90.0441 146.293 87.7528 144.445 85.3408L138.996 78.1143L137.631 76.2589L136.331 74.4036L133.723 70.6929C119.81 50.8311 107.929 29.6232 98.2584 7.38851C94.7924 -0.564732 91.6019 -8.6695 88.6868 -16.9258H120.679C122.108 -12.3802 123.656 -7.85933 125.321 -3.36321C132.981 17.756 142.751 38.0507 154.481 57.2138L157.795 62.6129L158.956 64.3754L163.598 71.4257C165.185 73.7542 166.856 76.0641 168.481 78.3369L170.941 81.7786L173.513 85.1367C180.253 94.2094 187.689 102.763 195.302 111.112C210.875 127.729 227.97 142.854 246.363 156.289C247.226 156.913 247.957 157.702 248.514 158.61C249.071 159.518 249.443 160.527 249.607 161.579C249.772 162.631 249.727 163.705 249.475 164.74C249.222 165.774 248.767 166.749 248.136 167.607Z" fill="white"/>
<path d="M1826.99 419.784C1826.85 421.187 1826.19 422.487 1825.15 423.435C1824.1 424.383 1822.74 424.91 1821.33 424.914H1811.12C1807.7 424.914 1804.26 424.998 1800.83 424.766C1794.34 424.432 1787.76 424.255 1781.25 423.56C1785.72 419.849 1790.54 415.341 1795.3 410.572C1797.5 410.888 1799.71 411.194 1801.91 411.5C1805.17 412.047 1808.47 412.242 1811.75 412.585L1821.64 413.513H1821.93C1822.67 413.592 1823.39 413.816 1824.05 414.174C1824.71 414.532 1825.29 415.016 1825.76 415.599C1826.23 416.182 1826.58 416.851 1826.79 417.569C1827 418.287 1827.07 419.04 1826.99 419.784Z" fill="#EBECF2"/>
<path d="M234.86 91.3432C233.189 92.5397 231.126 93.0577 229.087 92.7925C227.049 92.5273 225.187 91.4987 223.878 89.9146C208.698 71.416 195.283 51.5392 183.809 30.5439C178.239 19.9314 172.817 9.1612 168.268 -1.99863L166.513 -6.15458L164.888 -10.3755C164.062 -12.5369 163.208 -14.6984 162.391 -16.8691H187.095L187.977 -14.0861L189.388 -10.0972C192.991 0.617388 197.428 11.0258 202.079 21.3507C211.74 41.96 223.312 61.6196 236.643 80.0721C237.897 81.8048 238.414 83.9631 238.079 86.0752C237.745 88.1874 236.588 90.0814 234.86 91.3432Z" fill="white"/>
<path d="M711.064 432.54H200.297C163.162 420.22 17.6286 305.022 66.4057 246.458L326.167 30.7188C321.989 253.62 594.376 404.997 711.064 432.54Z" fill="#EBECF2"/>
<path d="M276.22 270.346C276.22 270.346 247.254 295.764 188.2 278.695C136.768 263.852 103.838 209.666 66.3965 246.439C66.3965 246.439 193.38 134.191 211.224 103.865C211.233 103.902 325.916 209.054 276.22 270.346Z" fill="#F7F8FA"/>
<path d="M188.181 57.8905C188.181 57.8905 167.757 86.8801 192.916 124.098C218.075 161.316 316.224 216.151 276.22 270.345C276.22 270.345 356.404 188.506 391.525 123.3L399.509 111.018L210.75 34.9492L188.181 57.8905Z" fill="#F3F4F7"/>
<path d="M708.585 -17C708.585 -17 612.563 107.772 565.113 139.711C517.664 171.651 476.555 167.987 414.548 136.158C352.542 104.33 244.116 18.3442 188.163 57.8816C188.98 57.0188 241.526 1.84099 268.421 -16.0816L396.844 -16.3506L436.059 -16.4341L527.969 -16.6197L565.253 -16.7031L606.482 -16.7866L638.817 -16.8516L708.585 -17Z" fill="#F7F8FA"/>
<path d="M1958.5 186.356L1954.01 190.799L1849.1 294.439C1849.1 294.439 1818.71 249.16 1760.23 193.675C1707.9 144.026 1633.04 86.204 1537.42 45.3398L1548.56 25.7288L1556.97 10.9694L1572.84 -16.9258H1793.09C1793.09 -16.9258 1991.62 131.577 1958.5 186.356Z" fill="#EBECF2"/>
<path d="M1747.55 203.785C1747.55 203.785 1758.58 183.163 1812.14 186.837C1865.7 190.51 1931.52 218.025 1958.5 186.401L1835.7 347.073C1835.7 347.073 1723.63 252.154 1747.55 203.785Z" fill="#F7F8FA"/>
<path d="M1747.55 203.785L1659.85 318.38L1810.72 396.044L1831.36 370.255C1831.36 370.255 1855.5 351.062 1831.36 303.259C1807.22 255.456 1738.04 239.593 1747.55 203.785Z" fill="#F3F4F7"/>
<path d="M1835.63 365.2C1835.32 365.58 1834.02 367.194 1831.92 369.699C1830.77 371.072 1829.4 372.723 1827.83 374.588C1823.12 380.154 1816.69 387.677 1809.59 395.469C1804.95 400.534 1800.07 405.674 1795.21 410.581C1790.34 415.488 1785.63 419.858 1781.16 423.568C1777.8 426.473 1774.2 429.089 1770.39 431.389H1338.52L1483.86 284.325C1483.86 284.325 1532.61 240.205 1601.59 277.887C1619.09 287.442 1640.91 299.901 1664.21 312.629C1732.72 350.069 1814.02 389.875 1835.63 365.2Z" fill="#F7F8FA"/>
<path d="M520.18 38.5481C522.706 33.6544 526.628 29.6196 531.45 26.9542C536.272 24.2888 541.777 23.1127 547.268 23.5747C552.76 24.0367 557.99 26.116 562.298 29.5495C566.607 32.9831 569.799 37.6164 571.47 42.8633C573.142 48.1102 573.219 53.7347 571.691 59.0251C570.162 64.3155 567.098 69.034 562.885 72.5834C558.672 76.1328 553.499 78.3536 548.023 78.9648C542.546 79.5759 537.011 78.5499 532.119 76.0167C528.865 74.3475 525.974 72.0522 523.612 69.2628C521.249 66.4733 519.462 63.2448 518.353 59.7628C517.243 56.2808 516.833 52.614 517.147 48.9733C517.46 45.3325 518.491 41.7895 520.18 38.5481Z" fill="white"/>
<path d="M542.962 62.5112C547.074 62.5112 550.407 59.1801 550.407 55.071C550.407 50.9619 547.074 47.6309 542.962 47.6309C538.85 47.6309 535.517 50.9619 535.517 55.071C535.517 59.1801 538.85 62.5112 542.962 62.5112Z" fill="#F3F4F7"/>
<path d="M540.01 23.9383C546.033 22.8673 552.242 23.8078 557.677 26.6146C563.112 29.4214 567.471 33.9382 570.08 39.4675C567.822 43.0833 564.284 45.7173 560.17 46.8455C556.057 47.9737 551.669 47.5136 547.88 45.5566C544.09 43.5996 541.177 40.2891 539.718 36.2836C538.26 32.278 538.364 27.8707 540.01 23.9383Z" fill="#F3F4F7"/>
<path d="M190.252 213.905C176.552 213.466 163.048 217.247 151.57 224.734C140.092 232.221 131.195 243.054 126.085 255.763C120.975 268.472 119.898 282.444 123.002 295.785C126.105 309.126 133.238 321.191 143.434 330.346C153.629 339.5 166.395 345.301 180.001 346.963C193.607 348.624 207.395 346.066 219.497 339.634C231.599 333.203 241.43 323.209 247.657 311.007C253.884 298.806 256.207 284.986 254.31 271.421C252.181 255.806 244.573 241.453 232.841 230.919C221.11 220.386 206.017 214.357 190.252 213.905ZM194.949 328.937C188.597 329.824 182.132 329.453 175.923 327.844C169.714 326.234 163.883 323.419 158.763 319.558C153.643 315.697 149.335 310.866 146.083 305.342C142.832 299.817 140.701 293.706 139.813 287.359C138.925 281.011 139.296 274.551 140.907 268.347C142.517 262.143 145.335 256.316 149.199 251.2C157.002 240.868 168.593 234.056 181.423 232.264C184.163 231.883 186.93 231.731 189.695 231.809C202.013 232.071 213.778 236.973 222.631 245.535C231.485 254.097 236.774 265.686 237.439 277.98C238.103 290.274 234.094 302.364 226.215 311.829C218.335 321.294 207.168 327.435 194.949 329.02V328.937Z" fill="#F3F4F7"/>
<path d="M190.252 213.905L189.695 231.846C186.929 231.768 184.163 231.92 181.423 232.301C174.091 233.319 167.088 235.991 160.943 240.116C154.799 244.24 149.674 249.708 145.959 256.104L130.464 247.078C136.525 236.683 145.28 228.114 155.808 222.275C166.335 216.437 178.245 213.545 190.279 213.905H190.252Z" fill="white"/>
<path d="M194.949 329.021L197.437 346.805C185.79 348.449 173.914 346.976 163.022 342.537L169.79 325.895C177.752 329.144 186.434 330.223 194.949 329.021Z" fill="#F7F8FA"/>
<path d="M385.926 370.191C390.767 370.191 394.69 366.27 394.69 361.434C394.69 356.597 390.767 352.676 385.926 352.676C381.086 352.676 377.163 356.597 377.163 361.434C377.163 366.27 381.086 370.191 385.926 370.191Z" fill="#F3F4F7"/>
<path d="M301.834 319.299L318.424 333.817L317.338 338.084C317.059 339.532 317.273 340.394 318.006 341.034L330.177 351.721C330.538 352.037 331.008 352.201 331.487 352.179C331.967 352.156 332.419 351.949 332.749 351.601L338.393 345.636L341.568 342.287L358.846 324.058C359.198 323.678 359.468 323.23 359.639 322.742C359.81 322.253 359.879 321.735 359.84 321.219C359.802 320.702 359.658 320.2 359.416 319.742C359.175 319.284 358.841 318.88 358.437 318.557L329.137 293.435C328.319 292.74 327.277 292.363 326.203 292.373C325.128 292.383 324.094 292.78 323.289 293.491L301.806 313.677C301.403 314.028 301.081 314.461 300.861 314.947C300.64 315.433 300.528 315.961 300.531 316.495C300.533 317.028 300.651 317.555 300.876 318.039C301.101 318.523 301.427 318.953 301.834 319.299Z" fill="#F3F4F7"/>
<path d="M322.472 292.461C323.576 291.976 324.79 291.792 325.989 291.929C327.188 292.066 328.329 292.518 329.295 293.24L358.614 318.352C360.322 319.818 360.016 321.85 357.917 322.898L334.596 334.587C333.456 335.124 332.192 335.344 330.937 335.224C329.682 335.103 328.483 334.646 327.466 333.9L298.259 308.436C296.588 306.979 297.053 304.938 299.281 303.862L322.472 292.461Z" fill="white"/>
<path d="M350.797 272.833L366.273 285.913L365.511 289.623C365.377 290.079 365.374 290.563 365.504 291.019C365.634 291.476 365.891 291.886 366.245 292.202L377.617 301.822C377.928 302.11 378.336 302.27 378.759 302.27C379.183 302.27 379.591 302.11 379.901 301.822L384.664 296.794L387.347 293.956L401.969 278.519C402.263 278.17 402.482 277.764 402.611 277.326C402.74 276.888 402.776 276.428 402.717 275.975C402.659 275.523 402.507 275.087 402.271 274.696C402.035 274.305 401.72 273.968 401.347 273.705L373.885 250.94C373.162 250.31 372.239 249.955 371.28 249.938C370.32 249.921 369.385 250.243 368.64 250.847L350.49 267.916C350.152 268.241 349.888 268.635 349.718 269.072C349.547 269.509 349.474 269.978 349.503 270.445C349.532 270.913 349.663 271.369 349.887 271.782C350.11 272.194 350.42 272.553 350.797 272.833Z" fill="#F3F4F7"/>
<path d="M241.573 379.755L259.509 396.156L257.968 401.248C257.541 402.965 257.717 403.967 258.516 404.699L271.689 416.805C272.115 417.157 272.662 417.328 273.212 417.281C273.762 417.235 274.272 416.974 274.632 416.555L281.484 409.273L285.337 405.182L306.197 383.039C306.622 382.615 306.958 382.11 307.183 381.554C307.409 380.998 307.52 380.402 307.511 379.803C307.501 379.203 307.371 378.611 307.128 378.062C306.885 377.514 306.533 377.02 306.095 376.61L274.53 348.372C273.579 347.594 272.373 347.194 271.145 347.249C269.917 347.304 268.752 347.809 267.874 348.669L241.87 373.14C239.846 375.07 239.697 378.038 241.573 379.755Z" fill="#F3F4F7"/>
<path d="M1588.48 403.681C1581.51 411.998 1572.38 418.24 1562.1 421.724C1545.54 427.42 1526.88 425.871 1512.42 416.065C1510.32 414.645 1508.33 413.056 1506.48 411.315C1493.3 398.931 1489.16 380.572 1494.9 363.549C1497.01 357.37 1500.26 351.638 1504.47 346.647C1523.26 324.058 1557.31 318.51 1580.52 334.253C1601.58 348.539 1606.47 375.433 1593.16 397.168C1591.76 399.452 1590.2 401.628 1588.48 403.681Z" fill="#F3F4F7"/>
<path d="M1562.85 395.713C1571.49 392.419 1576.1 383.466 1573.14 375.717C1570.18 367.967 1560.78 364.355 1552.13 367.649C1543.49 370.943 1538.88 379.896 1541.84 387.645C1544.8 395.395 1554.21 399.007 1562.85 395.713Z" fill="white"/>
<path d="M1562.1 421.723C1545.54 427.419 1526.88 425.87 1512.42 416.064C1510.32 414.644 1508.33 413.055 1506.48 411.314C1493.3 398.93 1489.16 380.571 1494.9 363.548L1554.32 353.863L1559.26 396.787L1562.1 421.723Z" fill="#EBECF2"/>
<path d="M1588.48 403.68C1569.68 426.259 1535.63 431.806 1512.42 416.064C1510.32 414.643 1508.33 413.055 1506.48 411.314L1593.13 397.195C1591.74 399.468 1590.18 401.635 1588.48 403.68Z" fill="white"/>
<path d="M1559.24 396.787C1555.03 397.534 1550.69 396.638 1547.12 394.282C1540.02 389.468 1538.92 379.969 1544.67 373.067C1547.5 369.703 1551.46 367.471 1555.81 366.777L1559.24 396.787Z" fill="#F3F4F7"/>
<path d="M1880.78 124.675L1872.35 115.704C1871.88 115.096 1871.64 114.336 1871.7 113.569C1871.75 112.801 1872.08 112.079 1872.63 111.539L1882.41 100.704C1883.56 99.4326 1885.31 99.2471 1886.31 100.305L1894.86 109.322C1895.34 109.939 1895.57 110.71 1895.52 111.489C1895.46 112.268 1895.12 112.999 1894.56 113.543L1884.65 124.313C1884.43 124.606 1884.15 124.849 1883.83 125.028C1883.51 125.206 1883.16 125.316 1882.79 125.35C1882.43 125.384 1882.06 125.342 1881.71 125.225C1881.37 125.109 1881.05 124.922 1880.78 124.675Z" fill="white"/>
<path d="M1895.79 140.639L1887.28 131.585C1886.81 130.976 1886.57 130.214 1886.63 129.446C1886.68 128.678 1887.02 127.957 1887.57 127.42L1897.52 116.659C1897.74 116.364 1898.03 116.117 1898.35 115.937C1898.68 115.756 1899.04 115.644 1899.41 115.608C1899.78 115.572 1900.15 115.614 1900.5 115.729C1900.86 115.845 1901.18 116.032 1901.46 116.279L1910.09 125.388C1910.57 126.005 1910.8 126.779 1910.75 127.56C1910.69 128.34 1910.34 129.071 1909.77 129.609L1899.71 140.314C1899.48 140.604 1899.19 140.844 1898.87 141.019C1898.54 141.193 1898.19 141.299 1897.82 141.33C1897.45 141.36 1897.08 141.315 1896.73 141.196C1896.38 141.077 1896.06 140.887 1895.79 140.639Z" fill="#F3F4F7"/>
<path d="M1864.11 142.839L1855.82 133.924C1855.36 133.326 1855.13 132.582 1855.18 131.829C1855.23 131.076 1855.55 130.367 1856.08 129.833L1865.61 119.266C1866.73 118.023 1868.39 117.856 1869.41 118.905L1877.82 127.866C1878.3 128.469 1878.53 129.224 1878.48 129.988C1878.43 130.751 1878.09 131.469 1877.55 132.003L1867.9 142.56C1867.68 142.842 1867.4 143.075 1867.09 143.243C1866.77 143.412 1866.43 143.512 1866.07 143.539C1865.71 143.565 1865.35 143.516 1865.02 143.395C1864.68 143.275 1864.37 143.085 1864.11 142.839Z" fill="#F3F4F7"/>
<path d="M1878.86 158.691L1870.51 149.702C1870.04 149.104 1869.81 148.355 1869.86 147.598C1869.92 146.842 1870.24 146.131 1870.79 145.601L1880.46 135.137C1880.68 134.85 1880.96 134.611 1881.28 134.437C1881.6 134.263 1881.96 134.156 1882.32 134.125C1882.68 134.094 1883.05 134.138 1883.39 134.255C1883.74 134.371 1884.05 134.558 1884.32 134.803L1892.81 143.848C1893.28 144.452 1893.52 145.212 1893.46 145.979C1893.41 146.746 1893.07 147.465 1892.51 147.995L1882.69 158.44C1882.46 158.719 1882.18 158.948 1881.86 159.112C1881.54 159.277 1881.19 159.374 1880.83 159.398C1880.47 159.421 1880.11 159.371 1879.77 159.249C1879.44 159.127 1879.13 158.937 1878.86 158.691Z" fill="#F3F4F7"/>
<path d="M153.163 432.54H103.643C64.83 401.214 30.6623 364.542 2.16164 323.622C-30.7216 276.144 -43.4683 240.289 -43.9789 238.787C-47.1911 229.612 -42.5492 221.411 -33.5996 220.484C-24.65 219.556 -14.8277 226.142 -11.5784 235.326C-8.72268 242.828 -5.47824 250.176 -1.85824 257.34C7.46418 276.078 18.1799 294.092 30.1987 311.228C63.55 358.728 105.205 399.823 153.163 432.54Z" fill="#F7F8FA"/>
<path d="M1711.68 41.8146C1710.69 42.7972 1709.38 43.3826 1707.99 43.4596C1706.6 43.5365 1705.22 43.0997 1704.13 42.2321L1704 42.13L1697.57 37.0093L1694.36 34.4581L1691.07 31.972L1684.51 27.0367L1677.83 22.2314C1668.89 15.8954 1659.81 9.75416 1650.55 3.89125C1641.28 -1.97166 1631.98 -7.67686 1622.45 -13.1316L1615.76 -16.9258H1655.15C1657.37 -15.1632 1659.58 -13.3913 1661.76 -11.6102C1670.51 -4.53204 1679.04 2.82442 1687.4 10.3571L1693.63 16.0531L1699.74 21.8789L1702.79 24.7918L1705.77 27.7882L1711.72 33.7717C1712.25 34.3022 1712.66 34.931 1712.94 35.6224C1713.23 36.3137 1713.37 37.0539 1713.37 37.8008C1713.36 38.5477 1713.21 39.2866 1712.92 39.9753C1712.64 40.664 1712.21 41.289 1711.68 41.8146Z" fill="#F7F8FA"/>
<path d="M1758.05 14.8382C1757.07 15.8189 1755.75 16.4031 1754.36 16.4801C1752.97 16.557 1751.6 16.1214 1750.51 15.2557L1750.38 15.1444L1743.93 10.0235L1740.72 7.47238L1737.44 4.99546L1730.87 0.0601654L1724.2 -4.74525C1718.34 -8.90129 1712.42 -12.9615 1706.45 -16.9258H1733.42L1733.77 -16.6196L1740 -10.9329L1746.12 -5.09777L1749.16 -2.18484L1752.14 0.802317L1758.09 6.79517C1758.62 7.32568 1759.03 7.95456 1759.32 8.6459C1759.6 9.33724 1759.74 10.0775 1759.74 10.8244C1759.74 11.5713 1759.59 12.3102 1759.3 12.9989C1759.01 13.6876 1758.59 14.3126 1758.05 14.8382Z" fill="#F7F8FA"/>
<path d="M1690.26 431.39H1630.46C1630.04 431.167 1629.59 430.926 1629.07 430.629L1628.59 430.351C1627.05 429.469 1625.7 428.292 1624.62 426.889C1623.54 425.486 1622.74 423.884 1622.28 422.174C1621.82 420.463 1621.69 418.678 1621.92 416.921C1622.15 415.163 1622.72 413.468 1623.6 411.931C1624.48 410.394 1625.66 409.046 1627.07 407.964C1628.47 406.882 1630.07 406.086 1631.78 405.623C1633.5 405.16 1635.28 405.038 1637.04 405.265C1638.8 405.492 1640.5 406.063 1642.03 406.945C1642.48 407.204 1642.96 407.529 1643.38 407.826C1643.8 408.123 1644.47 408.568 1645.07 408.958C1645.67 409.347 1646.35 409.774 1647 410.182C1648.3 411.008 1649.66 411.815 1651.03 412.604L1653.07 413.81L1655.17 414.969C1656.58 415.73 1657.96 416.528 1659.39 417.27C1662.26 418.727 1665.08 420.276 1668.01 421.63C1670.94 422.985 1673.83 424.46 1676.82 425.731C1679.81 427.002 1682.74 428.393 1685.78 429.571L1690.26 431.39Z" fill="white"/>
<path d="M1634.91 62.6131C1634.05 63.7759 1632.78 64.5695 1631.36 64.8331C1629.94 65.0967 1628.47 64.8105 1627.26 64.0324H1627.2C1618.71 58.5777 1609.87 53.6146 1600.83 48.9577C1591.8 44.3008 1582.57 39.9871 1573.21 35.9239C1568.57 33.8459 1563.83 31.9256 1559.12 29.9589C1554.41 27.9923 1549.64 26.1462 1544.85 24.3929C1535.32 20.7193 1525.71 17.2312 1516.01 13.9287C1496.65 7.25871 1477.02 1.21027 1457.37 -4.43927C1447.52 -7.2594 1437.64 -9.95894 1427.73 -12.5379C1422.78 -13.8243 1417.82 -15.0828 1412.87 -16.3135L1410.7 -16.9258H1490.33C1501.22 -12.8069 1512.05 -8.51177 1522.82 -4.04037C1532.47 -0.0513649 1542.04 4.1139 1551.54 8.45542C1556.3 10.5983 1561.02 12.8711 1565.74 15.0976C1570.47 17.324 1575.14 19.6803 1579.78 22.1015C1589.06 26.8791 1598.35 31.8792 1607.32 37.2876C1616.3 42.6959 1625.19 48.4197 1633.72 54.6629C1634.93 55.5617 1635.73 56.9028 1635.95 58.3928C1636.18 59.8828 1635.8 61.4003 1634.91 62.6131Z" fill="white"/>
<path d="M620.565 432.539H563.86L559.979 430.443C539.062 418.929 518.83 406.214 499.384 392.361C489.679 385.453 480.182 378.255 470.892 370.765C466.25 367.054 461.673 363.205 457.133 359.308C454.868 357.348 452.621 355.369 450.393 353.371L447.042 350.356C445.918 349.317 444.86 348.325 443.662 347.165C442.027 345.557 441.083 343.375 441.031 341.083C440.979 338.791 441.823 336.568 443.384 334.888C444.945 333.207 447.1 332.201 449.391 332.082C451.683 331.963 453.931 332.742 455.657 334.252L455.806 334.382C456.734 335.226 457.857 336.237 458.916 337.109L462.174 339.892C464.365 341.747 466.581 343.566 468.822 345.347C473.315 348.937 477.855 352.481 482.478 355.922C491.7 362.843 501.132 369.476 510.775 375.821C530.002 388.511 549.949 400.077 570.516 410.46C580.803 415.59 591.191 420.489 601.747 424.979C604.365 426.129 607.039 427.168 609.685 428.262C612.331 429.357 614.976 430.443 617.669 431.435L620.565 432.539Z" fill="#F3F4F7"/>
<path d="M495.522 432.539H458.182C449.549 426.324 441.085 419.876 432.791 413.197C428.149 409.486 423.572 405.627 419.033 401.74C416.78 399.779 414.533 397.797 412.293 395.793L408.978 392.751C407.846 391.712 406.787 390.719 405.59 389.559C403.907 387.961 402.923 385.764 402.851 383.446C402.779 381.127 403.625 378.874 405.205 377.175C406.785 375.475 408.971 374.466 411.291 374.367C413.61 374.268 415.875 375.087 417.594 376.646L417.733 376.776C418.661 377.62 419.785 378.631 420.843 379.503L424.102 382.286C426.293 384.142 428.511 385.957 430.758 387.732C435.242 391.322 439.782 394.875 444.405 398.317C453.627 405.237 463.06 411.87 472.702 418.216C480.21 423.163 487.816 427.938 495.522 432.539Z" fill="#F3F4F7"/>
<path d="M392.815 432.539H364.694C363.645 431.556 362.633 430.619 361.501 429.524C359.819 427.926 358.835 425.729 358.763 423.411C358.69 421.092 359.536 418.839 361.116 417.139C362.696 415.44 364.883 414.431 367.202 414.332C369.521 414.233 371.786 415.052 373.505 416.611L373.644 416.741C374.572 417.585 375.696 418.596 376.763 419.468L380.013 422.251C382.204 424.106 384.432 425.906 386.669 427.706C388.712 429.32 390.754 430.934 392.815 432.539Z" fill="#F3F4F7"/>
<path d="M1760.2 193.674C1730.05 165.035 1697.71 138.78 1663.49 115.146C1654.28 126.238 1647.96 139.428 1645.07 153.547C1642.18 167.665 1642.83 182.277 1646.94 196.089C1651.06 209.9 1658.52 222.484 1668.66 232.726C1678.81 242.968 1691.32 250.553 1705.1 254.807C1706.03 255.095 1706.96 255.355 1707.88 255.605L1747.55 203.785C1747.55 203.785 1750.4 198.433 1760.2 193.674Z" fill="#F7F8FA"/>
<path d="M1818.7 171.067C1818.7 176.479 1818.19 181.88 1817.2 187.2C1815.5 187.042 1813.82 186.903 1812.14 186.791C1785.77 184.936 1769.71 189.064 1760.15 193.675C1730 165.036 1697.67 138.781 1663.44 115.147C1671.67 105.213 1681.99 97.2181 1693.67 91.7363C1705.34 86.2546 1718.09 83.4213 1730.99 83.4395C1732.53 83.4395 1734.06 83.4395 1735.58 83.5601C1758.02 84.7184 1779.16 94.4448 1794.62 110.73C1810.09 127.015 1818.71 148.615 1818.7 171.067Z" fill="#F3F4F7"/>
<path d="M1812.14 186.79C1785.77 184.935 1769.71 189.063 1760.15 193.674C1750.35 198.433 1747.5 203.739 1747.5 203.739C1742.95 220.91 1756.45 233.489 1774.42 247.181C1776.58 245.947 1778.68 244.63 1780.73 243.22C1785.84 239.717 1790.56 235.674 1794.8 231.16L1795.97 229.89C1806.85 217.902 1814.19 203.128 1817.16 187.217C1815.48 187.087 1813.82 186.902 1812.14 186.79Z" fill="#EBECF2"/>
<path d="M1747.55 203.785L1707.86 255.652C1723.5 259.908 1740.01 259.763 1755.58 255.234C1762.16 253.321 1768.5 250.633 1774.45 247.228C1756.49 233.471 1743 220.91 1747.55 203.785Z" fill="#F3F4F7"/>
<path d="M1634.9 62.6121C1634.05 63.7749 1632.78 64.5686 1631.36 64.8321C1629.94 65.0957 1628.47 64.8095 1627.26 64.0315H1627.2C1618.71 58.5768 1609.87 53.6137 1600.83 48.9568C1591.8 44.2999 1582.57 39.9863 1573.21 35.9231C1568.57 33.8451 1563.83 31.9248 1559.12 29.9582C1555.59 28.5574 1552.08 27.1751 1548.55 25.7651L1556.96 11.0059C1559.88 12.3695 1562.81 13.7889 1565.72 15.134C1570.36 17.4532 1575.12 19.7167 1579.76 22.1379C1589.04 26.9154 1598.33 31.9155 1607.3 37.3239C1616.28 42.7322 1625.18 48.4559 1633.7 54.6991C1634.9 55.5944 1635.7 56.9269 1635.93 58.4081C1636.15 59.8892 1635.79 61.3996 1634.9 62.6121Z" fill="#F7F8FA"/>
<path d="M391.506 123.301C383.828 137.55 374.006 152.588 363.348 167.384C396.566 187.023 434.072 202.144 453.03 193.804C465.461 188.331 477.873 175.789 488.745 161.336C466.63 159.258 442.762 150.639 414.548 136.158C407.456 132.503 399.694 128.125 391.506 123.301Z" fill="#EBECF2"/>
<path d="M391.506 123.3C367.86 109.385 340.362 91.8521 312.594 77.1484C301.954 92.1768 295.604 107.817 300.525 116.881C306.504 128.013 333.167 149.544 363.358 167.383C374.015 152.587 383.838 137.549 391.515 123.3H391.506Z" fill="#F7F8FA"/>
<path d="M188.181 57.8901L210.741 34.9492C197.707 47.8715 188.181 57.8901 188.181 57.8901Z" fill="#F7F8FA"/>
<path d="M254.059 52.3984L210.75 34.9492L188.191 57.8901C205.913 45.3482 228.928 45.4317 254.059 52.3984Z" fill="#F7F8FA"/>
<path d="M313.252 76.2497L302.316 71.8438C305.739 73.5628 309.167 75.3314 312.602 77.1494C312.816 76.8433 313.029 76.5465 313.252 76.2497Z" fill="#F7F8FA"/>
<path d="M523.55 94.5343C522.408 89.3858 515.983 89.3579 502.624 97.1318C491.261 103.737 476.629 101.084 465.303 94.4508C434.555 76.5097 375.854 43.7629 367.48 38.4659C356.627 31.5918 329.973 53.0303 313.253 76.2499C313.03 76.5468 312.817 76.8436 312.603 77.1776C340.362 91.8812 367.86 109.442 391.515 123.329C399.713 128.153 407.465 132.532 414.586 136.187C442.771 150.668 466.64 159.286 488.754 161.41C509.512 133.858 524.654 99.5159 523.55 94.5343Z" fill="#F3F4F7"/>
<path d="M1699.94 64.9316C1699.51 92.2329 1702.24 107.966 1709.15 134.423L1725.42 103.597L1760.21 100.814C1737.97 84.589 1725.36 75.7668 1699.94 64.9316Z" fill="#F7F8FA"/>
<path d="M1760.2 100.814L1725.42 103.597L1709.16 134.442C1704.51 116.668 1701.73 103.736 1700.58 88.884C1710.32 85.2809 1720.62 83.4431 1731 83.4571C1732.54 83.4571 1734.07 83.4571 1735.59 83.5777C1743.2 88.4758 1750.85 94.0047 1760.2 100.814Z" fill="white"/>
<path d="M1795.25 410.554C1790.46 415.35 1785.67 419.83 1781.21 423.541L1780.28 423.439L1775.15 422.966C1773.44 422.78 1771.71 422.688 1770.01 422.419L1759.8 421.018C1756.37 420.61 1752.99 419.923 1749.59 419.329L1744.48 418.402C1743.64 418.244 1742.78 418.105 1741.94 417.938L1739.4 417.381L1729.27 415.155L1719.2 412.567L1716.68 411.908L1714.18 411.175L1709.18 409.691C1705.84 408.763 1702.55 407.622 1699.24 406.518C1695.94 405.414 1692.65 404.245 1689.36 403.03C1686.08 401.815 1682.87 400.498 1679.56 399.208C1677.94 398.55 1676.32 397.826 1674.7 397.13L1672.26 396.073L1669.83 394.95C1668.22 394.208 1666.6 393.457 1664.97 392.631C1664.15 392.223 1663.35 391.842 1662.51 391.388C1661.66 390.933 1660.9 390.562 1659.85 389.959L1659.37 389.681C1656.26 387.9 1653.99 384.959 1653.06 381.506C1652.12 378.052 1652.6 374.369 1654.38 371.267C1656.17 368.164 1659.11 365.896 1662.56 364.962C1666.02 364.028 1669.71 364.504 1672.81 366.285C1673.26 366.545 1673.74 366.87 1674.16 367.213C1674.57 367.556 1675.24 367.946 1675.85 368.345C1676.45 368.743 1677.13 369.161 1677.78 369.569C1679.08 370.395 1680.44 371.193 1681.81 371.99L1683.86 373.196L1685.96 374.356C1687.36 375.117 1688.74 375.914 1690.16 376.657C1693.03 378.113 1695.85 379.662 1698.79 381.017C1701.72 382.371 1704.61 383.8 1707.6 385.117C1710.59 386.434 1713.52 387.779 1716.56 388.957L1721.09 390.813L1723.35 391.74L1725.64 392.575L1734.85 395.924L1744.18 398.939L1746.52 399.691C1747.3 399.932 1748.1 400.136 1748.88 400.368L1753.62 401.694C1756.77 402.566 1759.92 403.55 1763.12 404.227L1772.72 406.5C1774.31 406.908 1775.94 407.149 1777.55 407.483L1782.4 408.411C1786.61 409.273 1790.93 409.932 1795.25 410.554Z" fill="white"/>
<path d="M314.757 203.136L280.917 244.269L224.212 205.057L256.064 167.227L314.757 203.136Z" fill="#4CC3FF"/>
<path d="M227.275 201.41L262.006 196.716V190.668L228.575 199.88L227.275 201.41Z" fill="#08112B"/>
<path d="M253.01 170.881L261.236 196.67C261.683 198.082 262.539 199.329 263.696 200.254C264.853 201.178 266.258 201.739 267.734 201.865C275.718 202.561 292.179 203.887 308.945 204.555L270.427 197.681C269.44 197.504 268.517 197.073 267.749 196.431C266.98 195.788 266.393 194.956 266.045 194.017L256.092 167.217L253.01 170.881Z" fill="#08112B"/>
<path d="M273.862 207.812L283.405 241.255L285.428 238.787L273.862 207.812Z" fill="#08112B"/>
<path d="M1891.17 242.793C1883.37 252.599 1875.38 263.564 1866.81 275.624C1848.11 270.754 1829.6 260.66 1813.05 245.706C1822.53 233.767 1831.19 222.802 1839.33 212.922C1855.31 227.839 1873.18 237.914 1891.17 242.793Z" fill="#FFBF00"/>
<path d="M1839.33 212.922C1842.99 224.589 1847.29 236.048 1852.2 247.247C1865.29 246.755 1878.33 245.276 1891.19 242.822C1873.18 237.914 1855.31 227.839 1839.33 212.922Z" fill="#08112B"/>
<path d="M1891.17 242.793C1890.14 242.663 1889.11 242.533 1888.09 242.376C1880.12 241.2 1872.29 239.264 1864.69 236.596C1856.27 230.482 1848.55 223.454 1841.67 215.64C1840.88 214.712 1840.1 213.84 1839.32 212.922C1850.19 215.157 1861.2 216.654 1872.28 217.403C1875.26 217.616 1878.07 219.258 1879.15 221.419C1882.79 228.742 1886.8 235.875 1891.17 242.793Z" fill="#08112B"/>
<path d="M1816.75 241.049C1829.3 241.418 1841.86 241.071 1854.36 240.01C1853.92 239.333 1853.44 238.637 1853.04 237.941C1841.35 239.085 1829.59 239.679 1817.76 239.722L1816.75 241.049Z" fill="#08112B"/>
<path d="M1816.75 241.05C1830.56 241.416 1844.39 240.926 1858.14 239.584C1862.12 250.66 1866.32 260.843 1870.72 270.132C1869.43 271.932 1868.13 273.769 1866.81 275.624C1848.11 270.754 1829.6 260.661 1813.05 245.707L1816.75 241.05Z" fill="#FFBF00"/>
<path d="M1860.8 246.754C1863.98 255.098 1867.29 262.89 1870.72 270.133L1871.51 269.029C1869.27 261.607 1867.1 253.827 1865.01 245.688L1860.8 246.754Z" fill="#08112B"/>
<path d="M1906.83 308.26C1906.83 308.26 1938.51 321.331 1946.08 315.551L1929.58 335.515C1927.81 337.668 1925.51 339.319 1922.91 340.304C1920.3 341.289 1917.48 341.573 1914.73 341.127C1906.53 339.801 1894.55 337.175 1885.95 332.287L1906.83 308.26Z" fill="white"/>
<path d="M115.276 183.052C115.276 183.052 106.456 180.009 110.634 172.087L121.255 161.363L130.065 167.022L115.276 183.052Z" fill="#EBECF2"/>
<path d="M153.052 184.026C153.052 184.026 119.518 166.493 110.615 172.087L130.761 151.752C132.921 149.57 135.613 147.989 138.571 147.166C141.53 146.342 144.652 146.305 147.63 147.058C156.505 149.331 169.419 153.422 178.396 159.656L153.052 184.026Z" fill="white"/>
<path d="M1928.02 155.981C1930.23 153.264 1930.44 149.781 1928.49 148.203C1926.54 146.624 1923.18 147.547 1920.97 150.264C1918.76 152.981 1918.55 156.463 1920.5 158.042C1922.45 159.621 1925.81 158.698 1928.02 155.981Z" fill="#F3F4F7"/>
<path d="M1915.23 171.812C1918.07 169.747 1919.17 166.429 1917.69 164.399C1916.21 162.37 1912.71 162.399 1909.88 164.463C1907.04 166.528 1905.94 169.846 1907.42 171.875C1908.9 173.905 1912.4 173.876 1915.23 171.812Z" fill="#F3F4F7"/>
<path d="M1889.31 188.494C1892.14 186.432 1893.24 183.119 1891.76 181.096C1890.28 179.072 1886.79 179.103 1883.96 181.165C1881.13 183.227 1880.04 186.539 1881.52 188.563C1882.99 190.587 1886.48 190.556 1889.31 188.494Z" fill="#F3F4F7"/>
<path d="M405.98 90.4887L373.486 129.971L360.312 125.425L390.485 87.6221C391.426 86.4431 392.761 85.6435 394.246 85.3707C395.73 85.098 397.263 85.3704 398.562 86.1379L405.98 90.4887Z" fill="#08112B"/>
<path d="M452.055 126.696L419.664 167.198C419.664 167.198 397.151 158.32 371.258 136.78C345.366 115.239 373.523 129.971 373.523 129.971L404.086 92.5762C404.086 92.5762 410.269 104.868 452.055 126.696Z" fill="#FFBF00"/>
<path d="M445.835 129.061L404.568 128.449L446.8 133.264L452.055 126.695L445.835 129.061Z" fill="#08112B"/>
<path d="M393.363 104.691L395.553 122.615L390.633 109.033L393.363 104.691Z" fill="#08112B"/>
<path d="M1724.09 262.525L1728.31 256.959C1728.31 256.959 1738.38 264.167 1734.7 267.331L1730.98 270.3L1724.09 262.525Z" fill="#08112B"/>
<path d="M1671.67 223.471L1639.01 270.319C1639.01 270.319 1657.58 283.956 1686.15 301.767C1696.48 308.205 1703.67 305.552 1704.83 305.237C1706.2 304.865 1719.68 285.431 1719.68 285.431L1722.97 283.816C1729.33 275.003 1734.71 267.35 1734.71 267.35C1734.71 267.35 1705 256.774 1671.67 223.471Z" fill="#4CC3FF"/>
<path d="M1671.27 230.113L1697.46 282.164L1665.08 233.258L1671.67 223.471L1671.27 230.113Z" fill="#08112B"/>
<path d="M1719.67 285.43L1707.86 287.257L1716.82 289.521L1719.67 285.43Z" fill="#08112B"/>
<path d="M613.825 19.8655C611.969 23.5298 605.229 23.5761 598.628 20.0046L598.043 19.6892L579.995 9.96728C573.97 6.72972 567.991 3.41796 561.901 0.393764L543.705 -8.8829L539.156 -11.2021L534.588 -13.4099L527.941 -16.6196L565.253 -16.7031L568.038 -15.2003C574.286 -11.87 580.413 -8.26136 586.605 -4.72695L605.061 5.89482C611.829 9.80958 615.766 16.062 613.825 19.8655Z" fill="#F3F4F7"/>
<path d="M646.737 -3.42789C644.88 0.282875 638.14 0.282875 631.539 -3.27945L630.954 -3.59487L612.906 -13.2892L606.482 -16.7866L638.817 -16.8516C645.084 -12.9182 648.593 -7.05515 646.737 -3.42789Z" fill="#F3F4F7"/>
<path d="M498.975 27.9365C497.119 31.6471 490.379 31.6471 483.787 28.0849L483.193 27.7695L465.145 18.0476C459.111 14.81 453.141 11.4983 447.042 8.47412L428.846 -0.802497L424.296 -3.12165L419.729 -5.32948L410.575 -9.76371C406.001 -11.9901 401.424 -14.1856 396.844 -16.3501L436.059 -16.4336L453.151 -7.15698C459.399 -3.82667 465.535 -0.218069 471.718 3.31632L490.184 13.9288C496.979 17.8899 500.888 24.133 498.975 27.9365Z" fill="white"/>
</svg>
