<svg width="1920" height="488" viewBox="0 0 1920 488" fill="none" xmlns="http://www.w3.org/2000/svg">
<path d="M1495.18 479.741C1495.18 479.741 1552.27 478.094 1583.31 471.966C1614.36 465.838 1643.21 456.695 1662.51 483.304L1495.1 483.683L1495.18 479.741Z" fill="white"/>
<path d="M455.621 457.424C481.701 456.143 507.549 451.897 532.661 444.768C573.065 433.081 679.561 399.716 732.644 460.478C732.644 460.478 826.791 440.227 840.142 477.655C840.142 477.655 899.405 468.493 901.578 483.404H455.621V457.424Z" fill="#D3D6DE"/>
<path d="M1771.44 282.143H1792.72V268.959" stroke="#08112B" stroke-miterlimit="10"/>
<path d="M1771.44 291.346H1831.69V268.959" stroke="#08112B" stroke-miterlimit="10"/>
<path d="M1678.82 285.697H1723.69C1724.76 285.697 1725.77 286.117 1726.53 286.866C1727.28 287.615 1727.7 288.63 1727.7 289.689V343.585H1674.88V289.689C1674.88 288.641 1675.29 287.634 1676.03 286.887C1676.77 286.14 1677.77 285.713 1678.82 285.697Z" fill="#4CC3FF"/>
<path d="M1744.7 388.148H1690.78L1674.84 349.044H1728.75L1733.02 359.493L1736.84 368.895L1744.7 388.148Z" fill="#4CC3FF"/>
<path d="M1694.65 356.47C1694.55 355.914 1694.26 355.411 1693.83 355.046C1693.4 354.681 1692.85 354.479 1692.28 354.473C1691.78 354.465 1691.29 354.655 1690.92 355.002C1690.65 354.468 1690.24 354.019 1689.73 353.702C1689.22 353.385 1688.64 353.213 1688.04 353.206C1687.43 353.17 1686.84 353.373 1686.38 353.771C1685.92 354.168 1685.64 354.729 1685.59 355.332C1685.42 355.272 1685.24 355.242 1685.05 355.242C1684.84 355.228 1684.64 355.261 1684.44 355.337C1684.25 355.414 1684.07 355.532 1683.93 355.684C1683.79 355.836 1683.68 356.018 1683.62 356.216C1683.56 356.414 1683.54 356.623 1683.57 356.829C1683.66 357.27 1683.9 357.666 1684.25 357.954C1684.6 358.243 1685.03 358.405 1685.48 358.416H1692.87C1693.13 358.424 1693.37 358.377 1693.61 358.28C1693.84 358.182 1694.04 358.036 1694.21 357.851C1694.38 357.665 1694.51 357.446 1694.58 357.208C1694.66 356.969 1694.68 356.717 1694.65 356.47Z" fill="#F3F4F7"/>
<path d="M1738.43 377.698H1727.18L1716.05 350.781H1727.3L1738.43 377.698Z" fill="#FFBF00"/>
<path d="M1722.25 355.152H1720.06L1719.15 352.966H1721.34L1722.25 355.152Z" fill="#08112B"/>
<path d="M1724.05 359.524H1721.86L1720.96 357.338H1723.15L1724.05 359.524Z" fill="#08112B"/>
<path d="M1725.87 363.895H1723.66L1722.76 361.709H1724.96L1725.87 363.895Z" fill="#08112B"/>
<path d="M1727.66 368.237H1725.47L1724.55 366.051H1726.75L1727.66 368.237Z" fill="#08112B"/>
<path d="M1712.94 364.225H1708.45L1706.6 359.763H1711.08L1712.94 364.225Z" fill="#08112B"/>
<path d="M1701.89 361.99H1685.86C1685.67 361.978 1685.49 361.911 1685.34 361.798C1685.18 361.684 1685.06 361.529 1684.99 361.351C1684.96 361.282 1684.94 361.206 1684.95 361.129C1684.95 361.052 1684.97 360.978 1685.01 360.913C1685.06 360.849 1685.11 360.796 1685.18 360.761C1685.25 360.725 1685.33 360.708 1685.4 360.711H1701.43C1701.62 360.722 1701.81 360.787 1701.96 360.901C1702.12 361.014 1702.24 361.17 1702.31 361.351C1702.43 361.71 1702.25 361.99 1701.89 361.99Z" fill="white"/>
<path d="M1699.32 364.864H1687.12C1686.93 364.852 1686.74 364.785 1686.59 364.672C1686.43 364.559 1686.31 364.403 1686.25 364.225C1686.12 363.865 1686.3 363.586 1686.66 363.586H1698.85C1699.04 363.597 1699.23 363.664 1699.38 363.779C1699.54 363.895 1699.66 364.053 1699.73 364.235C1699.76 364.303 1699.77 364.378 1699.77 364.453C1699.76 364.529 1699.74 364.601 1699.7 364.665C1699.66 364.728 1699.6 364.779 1699.53 364.814C1699.47 364.849 1699.39 364.866 1699.32 364.864Z" fill="white"/>
<path d="M1697.41 368.048H1688.64C1688.45 368.038 1688.26 367.972 1688.1 367.858C1687.95 367.745 1687.83 367.589 1687.76 367.409C1687.64 367.049 1687.82 366.76 1688.17 366.76H1696.95C1697.14 366.772 1697.33 366.838 1697.48 366.952C1697.64 367.065 1697.75 367.22 1697.82 367.399C1697.95 367.768 1697.77 368.048 1697.41 368.048Z" fill="white"/>
<path d="M1703.72 383.708H1694.95C1694.76 383.697 1694.57 383.629 1694.41 383.514C1694.26 383.399 1694.14 383.24 1694.07 383.059C1694.03 382.99 1694.02 382.914 1694.02 382.837C1694.02 382.76 1694.05 382.686 1694.09 382.621C1694.13 382.557 1694.19 382.504 1694.26 382.469C1694.33 382.433 1694.4 382.416 1694.48 382.419H1703.26C1703.45 382.432 1703.64 382.498 1703.79 382.612C1703.95 382.725 1704.06 382.88 1704.13 383.059C1704.17 383.127 1704.2 383.205 1704.2 383.285C1704.19 383.364 1704.17 383.442 1704.13 383.509C1704.09 383.577 1704.03 383.631 1703.95 383.666C1703.88 383.701 1703.8 383.715 1703.72 383.708Z" fill="white"/>
<path d="M1716.99 383.708H1708.22C1708.02 383.697 1707.84 383.629 1707.68 383.514C1707.52 383.399 1707.41 383.24 1707.34 383.059C1707.3 382.99 1707.29 382.914 1707.29 382.837C1707.29 382.76 1707.32 382.686 1707.36 382.621C1707.4 382.557 1707.46 382.504 1707.53 382.469C1707.59 382.433 1707.67 382.416 1707.75 382.419H1716.53C1716.72 382.432 1716.91 382.498 1717.06 382.612C1717.22 382.725 1717.33 382.88 1717.4 383.059C1717.44 383.127 1717.47 383.205 1717.47 383.285C1717.46 383.364 1717.44 383.442 1717.4 383.509C1717.36 383.577 1717.3 383.631 1717.22 383.666C1717.15 383.701 1717.07 383.715 1716.99 383.708Z" fill="white"/>
<path d="M1730.27 383.708H1721.49C1721.3 383.695 1721.11 383.626 1720.96 383.511C1720.8 383.396 1720.69 383.239 1720.62 383.058C1720.58 382.99 1720.56 382.913 1720.56 382.835C1720.56 382.757 1720.59 382.681 1720.63 382.616C1720.67 382.55 1720.73 382.497 1720.8 382.462C1720.87 382.428 1720.95 382.413 1721.03 382.419H1729.8C1730 382.43 1730.18 382.495 1730.34 382.609C1730.49 382.722 1730.61 382.878 1730.68 383.058C1730.72 383.127 1730.74 383.205 1730.74 383.283C1730.74 383.361 1730.71 383.437 1730.67 383.503C1730.63 383.569 1730.57 383.623 1730.5 383.659C1730.43 383.695 1730.35 383.712 1730.27 383.708Z" fill="white"/>
<path d="M1743.54 383.708H1734.76C1734.57 383.695 1734.38 383.626 1734.23 383.511C1734.07 383.396 1733.96 383.239 1733.89 383.058C1733.85 382.99 1733.83 382.913 1733.83 382.835C1733.84 382.757 1733.86 382.681 1733.9 382.616C1733.94 382.55 1734 382.497 1734.07 382.462C1734.14 382.428 1734.22 382.413 1734.3 382.419H1743.07C1743.27 382.43 1743.45 382.495 1743.61 382.609C1743.77 382.722 1743.89 382.878 1743.96 383.058C1743.99 383.127 1744.01 383.205 1744.01 383.283C1744.01 383.361 1743.98 383.437 1743.94 383.503C1743.9 383.569 1743.84 383.623 1743.77 383.659C1743.7 383.695 1743.62 383.712 1743.54 383.708Z" fill="white"/>
<path d="M1704.85 368.048H1700.02C1699.82 368.036 1699.64 367.969 1699.49 367.856C1699.33 367.742 1699.21 367.587 1699.14 367.409C1699.01 367.049 1699.14 366.76 1699.55 366.76H1704.38C1704.58 366.77 1704.76 366.836 1704.92 366.949C1705.07 367.063 1705.19 367.219 1705.26 367.399C1705.3 367.467 1705.33 367.545 1705.33 367.625C1705.32 367.704 1705.3 367.782 1705.26 367.85C1705.22 367.917 1705.16 367.971 1705.08 368.006C1705.01 368.041 1704.93 368.056 1704.85 368.048Z" fill="white"/>
<path d="M1706.75 388.148H1679.79V461.546H1706.75V388.148Z" fill="white"/>
<path d="M1744.7 388.148H1690.78V461.546H1744.7V388.148Z" fill="#D3D6DE"/>
<path d="M1672.82 144.175L1673.5 137.467C1673.89 133.675 1673.28 129.845 1671.72 126.372L1668 118L1684.3 119.811L1688.79 127.043C1690.6 129.956 1691.34 133.427 1690.86 136.837L1689.53 146L1672.82 144.175Z" fill="#4CC3FF"/>
<path d="M1664.19 182.362L1704.63 187.081L1710.54 136.809L1670.1 132.09L1664.19 182.362Z" fill="#08112B"/>
<path d="M1625.89 177.909L1664.2 182.379L1670.11 132.107L1631.8 127.636L1625.89 177.909Z" fill="#FFBF00"/>
<path d="M1682.28 169.435C1681.97 172.09 1683.88 174.493 1686.54 174.804C1689.21 175.115 1691.62 173.215 1691.93 170.561L1694.35 149.975C1694.66 147.321 1692.76 144.917 1690.09 144.607C1687.43 144.296 1685.02 146.195 1684.7 148.85L1682.28 169.435Z" fill="#FFBF00"/>
<path d="M1732.26 121.592C1732.83 119.58 1726.11 115.944 1717.25 113.47C1708.39 110.997 1700.75 110.624 1700.18 112.636C1699.62 114.649 1706.34 118.285 1715.2 120.758C1724.06 123.231 1731.7 123.604 1732.26 121.592Z" fill="#D3D6DE"/>
<path d="M1647.1 92.8365C1647.67 90.8241 1640.95 87.1879 1632.09 84.7149C1623.23 82.2418 1615.59 81.8683 1615.02 83.8807C1614.46 85.8931 1621.18 89.5292 1630.04 92.0023C1638.9 94.4754 1646.54 94.8488 1647.1 92.8365Z" fill="#D3D6DE"/>
<path d="M1713.51 95.0096C1714.07 92.9973 1703.87 88.3897 1690.72 84.7184C1677.57 81.0472 1666.45 79.7023 1665.88 81.7147C1665.32 83.7271 1675.52 88.3346 1688.67 92.0059C1701.82 95.6772 1712.94 97.022 1713.51 95.0096Z" fill="#D3D6DE"/>
<path d="M1631.91 98.1312C1635.75 99.7346 1639.69 101.051 1643.72 102.068C1657.79 105.664 1670.8 105.454 1677.75 102.068C1678.87 101.54 1679.91 100.841 1680.83 99.9948L1689.64 101.793L1682.38 108.945C1687.92 114.129 1697.71 119.089 1709.43 122.068C1710.64 122.383 1711.82 122.659 1713 122.908L1708.96 128L1681.83 121.202L1681.34 125.612L1649.03 122.081L1649.96 113.591L1628 104.772L1628.74 98L1631.91 98.1312Z" fill="#D3D6DE"/>
<path d="M1686 104C1688.76 104 1691 101.761 1691 99C1691 96.2386 1688.76 94 1686 94C1683.24 94 1681 96.2386 1681 99C1681 101.761 1683.24 104 1686 104Z" fill="#F6F7F9"/>
<path d="M1685.17 106.158C1684.5 106.084 1683.85 105.88 1683.26 105.556C1682.67 105.233 1682.14 104.796 1681.72 104.271C1681.3 103.746 1680.98 103.142 1680.79 102.496C1680.6 101.849 1680.54 101.172 1680.62 100.502L1680.81 98.7199L1691.04 99.833L1690.85 101.655C1690.69 102.999 1690 104.227 1688.94 105.07C1687.88 105.914 1686.52 106.304 1685.17 106.158Z" fill="#4CC3FF"/>
<path d="M1627 104C1629.76 104 1632 101.761 1632 99C1632 96.2386 1629.76 94 1627 94C1624.24 94 1622 96.2386 1622 99C1622 101.761 1624.24 104 1627 104Z" fill="#F6F7F9"/>
<path d="M1624.38 104.775C1623.16 104.18 1622.22 103.123 1621.77 101.837C1621.33 100.551 1621.41 99.1413 1622.01 97.9184L1622.82 96.2708L1632.07 100.763L1631.27 102.41C1630.67 103.633 1629.61 104.569 1628.32 105.013C1627.03 105.456 1625.61 105.371 1624.38 104.775Z" fill="#4CC3FF"/>
<path d="M1711 128C1713.21 128 1715 126.209 1715 124C1715 121.791 1713.21 120 1711 120C1708.79 120 1707 121.791 1707 124C1707 126.209 1708.79 128 1711 128Z" fill="#F6F7F9"/>
<path d="M1710.61 129.61C1709.5 129.506 1708.48 128.968 1707.77 128.114C1707.06 127.261 1706.72 126.161 1706.83 125.057L1706.97 123.574L1715.31 124.355L1715.17 125.838C1715.06 126.942 1714.52 127.959 1713.67 128.666C1712.81 129.373 1711.71 129.712 1710.6 129.608L1710.61 129.61Z" fill="#4CC3FF"/>
<path d="M1684.56 125.325C1684.92 122.053 1676.59 118.464 1665.97 117.308C1655.34 116.152 1646.43 117.867 1646.07 121.139C1645.72 124.411 1654.04 128 1664.67 129.156C1675.3 130.312 1684.2 128.597 1684.56 125.325Z" fill="#F6F7F9"/>
<path d="M1669 113.51L1663.79 118.426C1660.27 121.811 1658.04 126.373 1657.5 131.29L1656.58 140L1641 139.639L1642.07 129.634C1642.57 124.992 1644.58 120.66 1647.79 117.344L1652.89 112L1669 113.51Z" fill="#D3D6DE"/>
<path d="M1664.84 110.995C1665.05 111.014 1665.25 110.977 1665.42 110.889C1665.6 110.802 1665.73 110.667 1665.81 110.507L1667.93 106.129C1667.97 106.03 1668 105.924 1668 105.817C1668 105.711 1667.98 105.605 1667.93 105.506C1667.88 105.407 1667.81 105.317 1667.73 105.241C1667.64 105.165 1667.53 105.105 1667.42 105.063C1667.31 105.022 1667.18 105 1667.06 105C1666.94 105 1666.81 105.02 1666.7 105.061C1666.58 105.101 1666.48 105.161 1666.39 105.236C1666.3 105.312 1666.23 105.401 1666.18 105.5L1664.07 109.878C1663.98 110.077 1663.98 110.301 1664.07 110.5C1664.17 110.699 1664.35 110.859 1664.58 110.944C1664.66 110.973 1664.75 110.99 1664.84 110.995Z" fill="white"/>
<path d="M1661.63 110.995C1661.78 111.014 1661.94 110.977 1662.07 110.889C1662.2 110.802 1662.3 110.667 1662.36 110.507L1663.95 106.129C1664.02 105.93 1664.02 105.705 1663.95 105.506C1663.88 105.306 1663.74 105.147 1663.57 105.063C1663.39 104.98 1663.2 104.979 1663.02 105.061C1662.85 105.143 1662.71 105.301 1662.64 105.5L1661.05 109.878C1660.98 110.077 1660.98 110.301 1661.05 110.5C1661.12 110.699 1661.26 110.859 1661.43 110.944C1661.5 110.973 1661.56 110.99 1661.63 110.995Z" fill="white"/>
<path d="M1658.63 110.996C1658.79 111.013 1658.94 110.974 1659.07 110.884C1659.2 110.794 1659.31 110.658 1659.37 110.495L1660.95 106.129C1661.02 105.93 1661.02 105.706 1660.95 105.506C1660.88 105.306 1660.74 105.147 1660.57 105.063C1660.39 104.98 1660.2 104.979 1660.02 105.061C1659.85 105.143 1659.71 105.301 1659.64 105.5L1658.05 109.879C1657.98 110.08 1657.98 110.305 1658.06 110.504C1658.13 110.704 1658.27 110.862 1658.44 110.945C1658.5 110.975 1658.57 110.993 1658.63 110.996Z" fill="white"/>
<path d="M1640 147.958L1655.95 149L1657 139.042L1641.05 138L1640 147.958Z" fill="#F3F4F7"/>
<path d="M1765.88 278.461V303.412C1765.9 304.248 1765.6 305.059 1765.04 305.683C1764.48 306.307 1763.71 306.698 1762.87 306.776H1720.39C1719.55 306.695 1718.78 306.304 1718.22 305.681C1717.67 305.057 1717.37 304.247 1717.38 303.412V278.461C1717.37 277.613 1717.67 276.791 1718.25 276.164C1718.82 275.536 1719.61 275.151 1720.46 275.087H1762.88C1763.72 275.168 1764.49 275.561 1765.05 276.187C1765.6 276.813 1765.9 277.625 1765.88 278.461Z" fill="white"/>
<path d="M1737.63 298.083H1746.15" stroke="#08112B" stroke-miterlimit="10"/>
<path d="M1737.63 301.127H1744.72" stroke="#08112B" stroke-miterlimit="10"/>
<path d="M1737.63 289.589H1746.15" stroke="#08112B" stroke-miterlimit="10"/>
<path d="M1737.63 292.633H1744.72" stroke="#08112B" stroke-miterlimit="10"/>
<path d="M1737.63 281.205H1746.15" stroke="#08112B" stroke-miterlimit="10"/>
<path d="M1737.63 284.26H1744.72" stroke="#08112B" stroke-miterlimit="10"/>
<path d="M1758.77 280.656H1754.03C1752.91 280.656 1752.01 281.559 1752.01 282.673C1752.01 283.786 1752.91 284.689 1754.03 284.689H1758.77C1759.89 284.689 1760.79 283.786 1760.79 282.673C1760.79 281.559 1759.89 280.656 1758.77 280.656Z" fill="#FFBF00"/>
<path d="M1758.77 284.05C1759.49 284.05 1760.08 283.464 1760.08 282.742C1760.08 282.02 1759.49 281.435 1758.77 281.435C1758.04 281.435 1757.46 282.02 1757.46 282.742C1757.46 283.464 1758.04 284.05 1758.77 284.05Z" fill="#18123D"/>
<path d="M1758.77 289.27H1754.03C1752.91 289.27 1752.01 290.172 1752.01 291.286C1752.01 292.399 1752.91 293.302 1754.03 293.302H1758.77C1759.89 293.302 1760.79 292.399 1760.79 291.286C1760.79 290.172 1759.89 289.27 1758.77 289.27Z" fill="#FFBF00"/>
<path d="M1758.77 292.653C1759.49 292.653 1760.08 292.068 1760.08 291.346C1760.08 290.624 1759.49 290.038 1758.77 290.038C1758.04 290.038 1757.46 290.624 1757.46 291.346C1757.46 292.068 1758.04 292.653 1758.77 292.653Z" fill="#18123D"/>
<path d="M1758.77 297.873H1754.03C1752.91 297.873 1752.01 298.776 1752.01 299.889C1752.01 301.003 1752.91 301.905 1754.03 301.905H1758.77C1759.89 301.905 1760.79 301.003 1760.79 299.889C1760.79 298.776 1759.89 297.873 1758.77 297.873Z" fill="#FFBF00"/>
<path d="M1754.08 301.267C1754.81 301.267 1755.39 300.681 1755.39 299.959C1755.39 299.237 1754.81 298.652 1754.08 298.652C1753.36 298.652 1752.77 299.237 1752.77 299.959C1752.77 300.681 1753.36 301.267 1754.08 301.267Z" fill="#18123D"/>
<path d="M504.288 483.405H0V1.24854H155.393L225.012 133.991L315.062 305.659C356.327 384.394 422.979 447.002 504.288 483.405Z" fill="#D3D6DE"/>
<path d="M409.14 483.404H77.291V290.437L243.21 247.181L391.612 285.876C396.634 287.184 401.079 290.114 404.251 294.208C407.423 298.303 409.142 303.33 409.14 308.502V483.404Z" fill="#D3D6DE"/>
<path d="M388.437 313.812V464.351H89.9707V313.812C89.9707 312.61 90.2083 311.42 90.6698 310.31C91.1314 309.199 91.8079 308.19 92.6607 307.341C93.5136 306.491 94.5261 305.817 95.6404 305.357C96.7546 304.897 97.9489 304.66 99.1551 304.66H379.263C380.468 304.66 381.662 304.897 382.776 305.357C383.89 305.817 384.901 306.491 385.754 307.341C386.606 308.191 387.281 309.2 387.742 310.311C388.202 311.421 388.438 312.611 388.437 313.812Z" fill="#08112B"/>
<path d="M595.099 464.351H93.8561C91.4176 464.351 89.003 464.829 86.7501 465.759C84.4972 466.689 82.4501 468.052 80.7259 469.77C79.0016 471.489 77.6338 473.528 76.7006 475.774C75.7674 478.019 75.2871 480.425 75.2871 482.855V483.404H698.26L595.099 464.351Z" fill="white"/>
<path d="M191.8 304.66H173.771V464.351H191.8V304.66Z" fill="white"/>
<path d="M388.437 313.812V464.351H282.271V304.66H379.263C380.469 304.66 381.663 304.897 382.776 305.357C383.89 305.817 384.902 306.491 385.754 307.341C386.606 308.191 387.281 309.2 387.742 310.311C388.202 311.421 388.439 312.611 388.437 313.812Z" fill="white"/>
<path d="M320.672 304.66H282.271V464.351H320.672V304.66Z" fill="#4CC3FF"/>
<path d="M195.937 302.664H179.531V464.351H195.937V302.664Z" fill="#D3D6DE"/>
<path d="M316.495 183.145H169.946C167.772 183.145 166.01 184.901 166.01 187.068V224.176C166.01 226.342 167.772 228.098 169.946 228.098H316.495C318.669 228.098 320.431 226.342 320.431 224.176V187.068C320.431 184.901 318.669 183.145 316.495 183.145Z" fill="#FFBF00"/>
<path d="M274.358 228.098H316.494C317.538 228.098 318.539 227.685 319.277 226.949C320.015 226.214 320.43 225.216 320.43 224.176V187.068C320.43 186.027 320.015 185.03 319.277 184.294C318.539 183.559 317.538 183.145 316.494 183.145H250.791L274.358 228.098Z" fill="white"/>
<path d="M184.728 210.113C187.007 210.113 188.854 208.272 188.854 206.001C188.854 203.73 187.007 201.889 184.728 201.889C182.449 201.889 180.602 203.73 180.602 206.001C180.602 208.272 182.449 210.113 184.728 210.113Z" fill="white"/>
<path d="M303.524 206.131C302.842 206.857 302.021 207.439 301.11 207.844C300.198 208.249 299.215 208.468 298.217 208.488C297.219 208.509 296.228 208.33 295.3 207.963C294.373 207.596 293.529 207.048 292.817 206.35C291.401 204.899 290.609 202.955 290.609 200.931C290.609 198.907 291.401 196.963 292.817 195.511C293.497 194.784 294.316 194.199 295.226 193.792C296.136 193.384 297.118 193.162 298.116 193.138C299.113 193.114 300.105 193.288 301.034 193.651C301.963 194.014 302.809 194.558 303.524 195.252C304.954 196.704 305.755 198.657 305.755 200.691C305.755 202.726 304.954 204.679 303.524 206.131Z" fill="#4CC3FF"/>
<path d="M286.698 217.908L281.52 218.327L281.85 213.047L294.54 199.883L299.427 204.733L286.698 217.908Z" fill="#4CC3FF"/>
<path d="M301.712 201.46C301.438 201.746 301.111 201.976 300.748 202.136C300.385 202.296 299.994 202.382 299.597 202.391C299.201 202.399 298.806 202.329 298.437 202.185C298.067 202.04 297.73 201.824 297.445 201.55C296.882 200.971 296.566 200.196 296.566 199.389C296.566 198.582 296.882 197.807 297.445 197.228C297.718 196.941 298.045 196.71 298.407 196.549C298.77 196.389 299.161 196.301 299.558 196.292C299.954 196.283 300.349 196.352 300.719 196.495C301.088 196.639 301.426 196.854 301.712 197.128C302.281 197.707 302.599 198.484 302.599 199.294C302.599 200.104 302.281 200.881 301.712 201.46Z" fill="white"/>
<path d="M249.279 202.398H206.182C204.185 202.398 202.566 204.009 202.566 205.996C202.566 207.983 204.185 209.594 206.182 209.594H249.279C251.276 209.594 252.895 207.983 252.895 205.996C252.895 204.009 251.276 202.398 249.279 202.398Z" fill="white"/>
<path d="M361.675 382.18H331.348V426.763H361.675V382.18Z" fill="#FFBF00"/>
<path d="M346.512 395.234C347.983 395.234 349.176 393.907 349.176 392.27C349.176 390.633 347.983 389.306 346.512 389.306C345.04 389.306 343.848 390.633 343.848 392.27C343.848 393.907 345.04 395.234 346.512 395.234Z" fill="white"/>
<path d="M341.304 416.843H336.326V421.803H341.304V416.843Z" fill="#08112B"/>
<path d="M349.005 416.843H344.027V421.803H349.005V416.843Z" fill="#08112B"/>
<path d="M356.708 416.843H351.73V421.803H356.708V416.843Z" fill="#08112B"/>
<path d="M341.304 409.327H336.326V414.288H341.304V409.327Z" fill="#08112B"/>
<path d="M349.005 409.327H344.027V414.288H349.005V409.327Z" fill="#08112B"/>
<path d="M356.708 409.327H351.73V414.288H356.708V409.327Z" fill="#08112B"/>
<path d="M341.304 401.802H336.326V406.762H341.304V401.802Z" fill="#08112B"/>
<path d="M349.005 401.802H344.027V406.762H349.005V401.802Z" fill="#08112B"/>
<path d="M356.708 401.802H351.73V406.762H356.708V401.802Z" fill="#08112B"/>
<path d="M180.592 96.1537C193.272 127.892 195.485 154.551 184.598 160.22C174.843 165.29 157.286 152.165 140.199 128.92L139.488 127.922C138.466 126.518 137.465 125.081 136.483 123.611C118.986 100.336 97.4723 87.9796 78.9333 93.5189C49.4172 102.332 38.6103 153.133 54.7956 206.989C55.7772 210.256 56.8321 213.45 57.9606 216.571C58.4213 217.768 58.862 218.966 59.2926 220.154V220.233L59.3828 220.463C76.7299 268.31 78.4125 310.239 62.4876 316.637C47.1236 322.825 20.5321 293.751 0 249.906V0L154.742 0L225.012 134L187.894 93.3392C187.324 92.7147 186.578 92.2766 185.753 92.0827C184.929 91.8887 184.065 91.9478 183.275 92.2524C182.485 92.5569 181.806 93.0926 181.327 93.7889C180.848 94.4852 180.592 95.3096 180.592 96.1537Z" fill="white"/>
<path d="M373.584 269.967V319.032C373.587 321.183 374.445 323.246 375.972 324.767C377.498 326.288 379.568 327.144 381.727 327.146H464.456C466.616 327.144 468.686 326.288 470.214 324.767C471.742 323.247 472.603 321.184 472.609 319.032V269.967C472.607 268.902 472.395 267.848 471.985 266.864C471.574 265.881 470.973 264.988 470.216 264.236C469.459 263.484 468.56 262.889 467.572 262.483C466.584 262.078 465.525 261.87 464.456 261.873H381.727C380.658 261.87 379.6 262.078 378.612 262.483C377.624 262.889 376.727 263.485 375.97 264.237C375.214 264.988 374.614 265.882 374.204 266.865C373.795 267.848 373.584 268.902 373.584 269.967Z" fill="#4CC3FF"/>
<path d="M384.471 327.146H357.559L373.794 305.718L384.471 327.146Z" fill="#4CC3FF"/>
<path d="M446.949 290.388C451.739 290.388 455.623 286.518 455.623 281.744C455.623 276.971 451.739 273.101 446.949 273.101C442.159 273.101 438.275 276.971 438.275 281.744C438.275 286.518 442.159 290.388 446.949 290.388Z" fill="#FFBF00"/>
<path d="M446.336 285.118L443.441 282.233L444.633 281.046L446.336 282.742L450.132 278.96L451.324 280.147L446.336 285.118Z" fill="white"/>
<path d="M430.792 280.906H417.171C416.54 280.906 416.029 281.415 416.029 282.044C416.029 282.672 416.54 283.181 417.171 283.181H430.792C431.423 283.181 431.934 282.672 431.934 282.044C431.934 281.415 431.423 280.906 430.792 280.906Z" fill="#08112B"/>
<path d="M399.364 291.835C404.862 291.835 409.319 287.393 409.319 281.914C409.319 276.435 404.862 271.993 399.364 271.993C393.865 271.993 389.408 276.435 389.408 281.914C389.408 287.393 393.865 291.835 399.364 291.835Z" fill="white"/>
<path d="M404.371 286.724C404.371 285.401 403.844 284.132 402.904 283.196C401.965 282.26 400.691 281.734 399.363 281.734C398.035 281.734 396.761 282.26 395.822 283.196C394.883 284.132 394.355 285.401 394.355 286.724H404.371Z" fill="#08112B"/>
<path d="M399.365 280.686C400.355 280.686 401.158 279.887 401.158 278.9C401.158 277.913 400.355 277.113 399.365 277.113C398.375 277.113 397.572 277.913 397.572 278.9C397.572 279.887 398.375 280.686 399.365 280.686Z" fill="#08112B"/>
<path d="M446.949 315.569C451.739 315.569 455.623 311.699 455.623 306.925C455.623 302.152 451.739 298.282 446.949 298.282C442.159 298.282 438.275 302.152 438.275 306.925C438.275 311.699 442.159 315.569 446.949 315.569Z" fill="white"/>
<path d="M430.792 306.077H417.171C416.54 306.077 416.029 306.587 416.029 307.215C416.029 307.843 416.54 308.353 417.171 308.353H430.792C431.423 308.353 431.934 307.843 431.934 307.215C431.934 306.587 431.423 306.077 430.792 306.077Z" fill="#08112B"/>
<path d="M399.364 317.016C404.862 317.016 409.319 312.574 409.319 307.095C409.319 301.616 404.862 297.174 399.364 297.174C393.865 297.174 389.408 301.616 389.408 307.095C389.408 312.574 393.865 317.016 399.364 317.016Z" fill="white"/>
<path d="M404.371 311.906C404.371 310.582 403.844 309.313 402.904 308.377C401.965 307.441 400.691 306.916 399.363 306.916C398.035 306.916 396.761 307.441 395.822 308.377C394.883 309.313 394.355 310.582 394.355 311.906H404.371Z" fill="#08112B"/>
<path d="M399.365 305.858C400.355 305.858 401.158 305.058 401.158 304.071C401.158 303.084 400.355 302.284 399.365 302.284C398.375 302.284 397.572 303.084 397.572 304.071C397.572 305.058 398.375 305.858 399.365 305.858Z" fill="#08112B"/>
<path d="M449.433 305.518V304.47C449.43 304.022 449.25 303.593 448.931 303.277C448.612 302.961 448.18 302.783 447.73 302.783H446.158C445.708 302.783 445.276 302.961 444.957 303.277C444.638 303.593 444.458 304.022 444.455 304.47V305.518C444.331 305.521 444.213 305.571 444.125 305.658C444.037 305.746 443.987 305.864 443.984 305.987V309.98C443.984 310.105 444.034 310.225 444.122 310.315C444.21 310.404 444.329 310.456 444.455 310.459H449.463C449.589 310.456 449.708 310.404 449.796 310.315C449.884 310.225 449.934 310.105 449.934 309.98V305.987C449.932 305.923 449.918 305.861 449.892 305.802C449.866 305.744 449.829 305.691 449.782 305.648C449.736 305.604 449.681 305.57 449.621 305.548C449.561 305.526 449.497 305.515 449.433 305.518ZM448.431 305.518H445.357V304.47C445.359 304.272 445.439 304.084 445.579 303.944C445.72 303.804 445.909 303.724 446.108 303.722H447.7C447.899 303.722 448.09 303.8 448.231 303.941C448.372 304.081 448.451 304.272 448.451 304.47L448.431 305.518Z" fill="#08112B"/>
<path d="M680.854 446.385C680.267 449.598 679.257 452.719 677.849 455.667L606.738 442.592C606.336 437.313 607.067 432.009 608.882 427.034C610.697 422.058 613.555 417.524 617.266 413.735C620.976 409.946 625.454 406.988 630.401 405.058C635.349 403.128 640.652 402.27 645.958 402.541C651.264 402.813 656.451 404.207 661.174 406.632C665.896 409.057 670.047 412.457 673.348 416.605C676.65 420.753 679.027 425.554 680.321 430.689C681.615 435.824 681.797 441.175 680.854 446.385Z" fill="white"/>
<path d="M619.976 451.905L650.381 457.499L655.496 429.89L625.091 424.296L619.976 451.905Z" fill="#FFBF00"/>
<path d="M633.392 449.685C633.124 451.132 634.082 452.522 635.531 452.788C636.981 453.055 638.374 452.098 638.642 450.651L641.578 434.8C641.846 433.353 640.889 431.963 639.439 431.696C637.989 431.43 636.597 432.387 636.329 433.834L633.392 449.685Z" fill="#08112B"/>
<path d="M667.309 431.969L655.559 429.807L650.433 457.475L662.183 459.637L667.309 431.969Z" fill="#08112B"/>
<path d="M685.07 462.674L658.869 457.843L660.161 450.857L674.644 453.522C677.469 454.051 679.98 455.645 681.655 457.973L685.07 462.674Z" fill="#4CC3FF"/>
<path d="M661.034 451.016L611.216 441.844C610.021 441.624 608.788 441.716 607.64 442.114C606.492 442.511 605.467 443.199 604.666 444.11L597.715 452.024L670.048 465.319L666.392 455.458C665.965 454.316 665.246 453.306 664.306 452.527C663.366 451.747 662.238 451.227 661.034 451.016Z" fill="#4CC3FF"/>
<path d="M689.877 473.503C689.369 476.245 687.789 478.673 685.484 480.254C683.18 481.836 680.34 482.441 677.588 481.937L613.718 470.179C611.965 469.853 610.323 469.089 608.945 467.959C607.568 466.829 606.5 465.37 605.841 463.718C605.182 462.066 604.954 460.275 605.177 458.511C605.4 456.747 606.068 455.069 607.118 453.631L607.348 453.332C608.002 452.501 608.779 451.774 609.652 451.176C611 450.244 612.552 449.645 614.179 449.429C615.297 449.269 616.434 449.292 617.544 449.499L681.414 461.257C684.162 461.768 686.595 463.344 688.179 465.64C689.764 467.935 690.371 470.762 689.867 473.503H689.877Z" fill="white"/>
<path d="M671.238 464.959L667.402 485.669L669.586 485.081L678.209 482.775L680.843 482.066L681.164 481.987L683.297 481.408H683.307L682.306 480.04L681.464 478.893L671.238 464.959Z" fill="white"/>
<path d="M614.22 449.35L614.19 449.429V449.439L613.96 449.919L613.409 451.126L612.047 454.061L607.349 453.342V453.332L596.562 451.665L608.121 450.148L612.267 449.609L614.22 449.35Z" fill="#FFBF00"/>
<path d="M685.071 462.674L669.226 465.179L607.129 453.631L607.359 453.332L596.572 451.655L608.13 450.128L612.267 449.589L614.27 449.33V449.409C615.388 449.249 616.525 449.272 617.635 449.479L681.505 461.237C682.772 461.495 683.98 461.982 685.071 462.674Z" fill="#4CC3FF"/>
<path d="M595.582 473.731L662.153 485.978C668.223 487.095 674.053 483.096 675.174 477.047C676.295 470.997 672.282 465.188 666.211 464.071L599.64 451.824C593.57 450.707 587.74 454.706 586.619 460.755C585.499 466.805 589.511 472.614 595.582 473.731Z" fill="#08112B"/>
<path d="M589.923 461.287V461.337C589.716 462.443 589.73 463.579 589.964 464.68C590.199 465.781 590.649 466.825 591.289 467.752C591.929 468.679 592.747 469.471 593.695 470.083C594.643 470.695 595.703 471.114 596.813 471.317L661.695 483.294C662.805 483.499 663.945 483.484 665.049 483.249C666.153 483.015 667.2 482.566 668.13 481.929C669.061 481.291 669.856 480.477 670.47 479.533C671.084 478.589 671.506 477.534 671.71 476.427C671.916 475.32 671.9 474.184 671.665 473.083C671.429 471.982 670.978 470.938 670.337 470.011C669.696 469.084 668.878 468.292 667.929 467.68C666.981 467.069 665.921 466.65 664.81 466.447L599.938 454.42C597.697 454.009 595.383 454.501 593.505 455.789C591.627 457.076 590.339 459.053 589.923 461.287Z" fill="#F3F4F7"/>
<path d="M663.807 483.583C668.608 483.583 672.5 479.705 672.5 474.92C672.5 470.135 668.608 466.257 663.807 466.257C659.006 466.257 655.113 470.135 655.113 474.92C655.113 479.705 659.006 483.583 663.807 483.583Z" fill="#D3D6DE"/>
<path d="M597.655 471.407C602.456 471.407 606.348 467.528 606.348 462.744C606.348 457.959 602.456 454.08 597.655 454.08C592.853 454.08 588.961 457.959 588.961 462.744C588.961 467.528 592.853 471.407 597.655 471.407Z" fill="#D3D6DE"/>
<path d="M605.266 457.933C604.933 459.32 604.887 460.76 605.13 462.165C605.373 463.57 605.9 464.912 606.68 466.107C607.46 467.303 608.476 468.328 609.666 469.12C610.856 469.912 612.195 470.454 613.602 470.714C615.01 470.974 616.455 470.945 617.851 470.631C619.247 470.316 620.563 469.721 621.721 468.883C622.879 468.045 623.854 466.981 624.586 465.756C625.318 464.53 625.792 463.169 625.979 461.756C626.136 460.907 626.19 460.042 626.139 459.181L606.008 455.478C605.661 456.263 605.412 457.088 605.266 457.933Z" fill="#D3D6DE"/>
<path d="M679.061 476.567C678.856 477.691 678.481 478.778 677.949 479.791C677.33 480.993 676.503 482.078 675.506 482.994C675.245 483.234 674.965 483.453 674.694 483.663L677.328 482.954C677.864 482.334 678.34 481.666 678.751 480.958C680.332 478.237 680.862 475.034 680.243 471.951C679.623 468.868 677.896 466.115 675.385 464.211L673.562 464.52C675.6 465.732 677.219 467.534 678.201 469.687C679.184 471.84 679.484 474.24 679.061 476.567Z" fill="#F3F4F7"/>
<path d="M685.462 475.3C685.277 476.341 684.939 477.35 684.461 478.294C683.867 479.416 683.084 480.429 682.147 481.288C681.907 481.508 681.646 481.717 681.386 481.917L683.87 481.248C684.374 480.671 684.82 480.046 685.202 479.382C685.912 478.176 686.404 476.855 686.654 475.479C687.085 473.137 686.817 470.72 685.884 468.528C684.951 466.335 683.395 464.463 681.406 463.143L679.854 463.413C681.898 464.583 683.532 466.351 684.535 468.477C685.538 470.603 685.862 472.984 685.462 475.3Z" fill="#F3F4F7"/>
<path d="M595.561 471.147L604.174 472.744L618.847 469.78L620.99 458.232L599.647 454.3L595.561 471.147Z" fill="#D3D6DE"/>
<path d="M1203.41 465.099V487.226H1186.63C1186.37 487.226 1186.11 487.226 1185.85 487.226C1183.25 487.045 1180.8 485.959 1178.93 484.159C1177.05 482.358 1175.87 479.957 1175.59 477.376C1175.31 474.795 1175.96 472.199 1177.41 470.042C1178.85 467.885 1181.02 466.305 1183.52 465.578C1184.43 465.313 1185.37 465.168 1186.31 465.149H1203.4L1203.41 465.099Z" fill="white"/>
<path d="M1191.22 483.962C1189.86 482.6 1188.87 480.909 1188.36 479.053C1187.85 477.198 1187.84 475.242 1188.32 473.378C1188.79 471.514 1189.75 469.806 1191.09 468.421C1192.43 467.036 1194.11 466.022 1195.96 465.478L1196.17 465.418C1196.99 465.196 1197.83 465.072 1198.67 465.049H1192.11C1190.24 466.23 1188.69 467.864 1187.62 469.798C1186.54 471.733 1185.97 473.906 1185.96 476.118C1185.96 477.836 1186.3 479.539 1186.96 481.127C1187.62 482.715 1188.59 484.157 1189.81 485.37C1190.51 486.054 1191.27 486.66 1192.1 487.176H1198.3C1195.63 486.982 1193.12 485.842 1191.22 483.962ZM1183.21 483.962C1181.85 482.6 1180.86 480.909 1180.35 479.053C1179.84 477.198 1179.83 475.242 1180.3 473.378C1180.78 471.514 1181.74 469.806 1183.08 468.421C1184.42 467.036 1186.09 466.022 1187.95 465.478L1188.15 465.418C1188.97 465.196 1189.81 465.072 1190.66 465.049H1186.28C1185.34 465.069 1184.4 465.213 1183.49 465.478H1183.41C1181.87 466.585 1180.59 468.013 1179.65 469.661C1178.72 471.31 1178.16 473.141 1178.01 475.028C1177.85 476.915 1178.11 478.812 1178.77 480.589C1179.42 482.366 1180.46 483.98 1181.8 485.32C1182.28 485.805 1182.81 486.249 1183.37 486.647C1184.17 486.89 1184.99 487.04 1185.82 487.096C1186.08 487.096 1186.34 487.096 1186.6 487.096H1190.29C1187.64 486.919 1185.15 485.808 1183.25 483.962H1183.21Z" fill="#F3F4F7"/>
<path d="M1204.88 465.538H1183.52L1185.82 460.478L1204.88 460.029V465.538Z" fill="#4CC3FF"/>
<path d="M1267.43 445.188C1267.42 448.456 1266.98 451.708 1266.11 454.859L1193.83 454.46C1192.49 449.328 1192.25 443.968 1193.15 438.739C1194.04 433.509 1196.05 428.531 1199.03 424.136C1202.01 419.741 1205.9 416.03 1210.43 413.252C1214.97 410.475 1220.05 408.693 1225.33 408.028C1230.61 407.363 1235.97 407.828 1241.06 409.394C1246.15 410.959 1250.84 413.589 1254.83 417.106C1258.81 420.624 1262 424.948 1264.17 429.791C1266.34 434.633 1267.45 439.883 1267.43 445.188Z" fill="white"/>
<path d="M1253.08 433.206L1222.17 433.378L1222.32 461.453L1253.24 461.281L1253.08 433.206Z" fill="#08112B"/>
<path d="M1240.33 440.623C1240.33 439.151 1239.12 437.965 1237.65 437.973C1236.18 437.981 1234.99 439.181 1235 440.653L1235.09 456.771C1235.09 458.243 1236.3 459.429 1237.77 459.421C1239.24 459.413 1240.43 458.213 1240.42 456.741L1240.33 440.623Z" fill="#FFBF00"/>
<path d="M1210.4 461.538L1222.34 461.472L1222.19 433.337L1210.24 433.403L1210.4 461.538Z" fill="#F3F4F7"/>
<path d="M1185.85 460.478L1212.49 460.328V453.212L1197.77 453.292C1194.89 453.311 1192.13 454.437 1190.07 456.436L1185.85 460.478Z" fill="#4CC3FF"/>
<path d="M1211.52 453.222L1262.19 452.933C1263.4 452.932 1264.59 453.244 1265.64 453.837C1266.7 454.429 1267.58 455.284 1268.2 456.316L1273.65 465.299L1200.15 465.708L1205.49 456.646C1206.12 455.603 1207 454.739 1208.05 454.138C1209.11 453.538 1210.31 453.223 1211.52 453.222Z" fill="#4CC3FF"/>
<path d="M1203.91 487.052L1271.61 487.429C1277.78 487.464 1282.81 482.505 1282.85 476.353C1282.88 470.202 1277.91 465.187 1271.73 465.153L1204.04 464.776C1197.87 464.742 1192.83 469.701 1192.8 475.852C1192.76 482.004 1197.74 487.018 1203.91 487.052Z" fill="#08112B"/>
<path d="M1279.25 476.287C1279.24 478.16 1278.62 479.978 1277.47 481.462C1276.33 482.946 1274.72 484.014 1272.91 484.502C1272.16 484.707 1271.38 484.808 1270.61 484.801H1263.59L1204.59 484.472C1203.46 484.468 1202.35 484.242 1201.31 483.807C1200.27 483.372 1199.32 482.737 1198.53 481.938C1197.73 481.138 1197.11 480.191 1196.68 479.149C1196.26 478.108 1196.04 476.993 1196.05 475.868V475.818C1196.06 474.694 1196.28 473.582 1196.72 472.545C1197.16 471.509 1197.8 470.568 1198.6 469.778C1199.4 468.987 1200.35 468.362 1201.4 467.938C1202.45 467.513 1203.56 467.298 1204.69 467.305L1250.28 467.564H1257.18L1270.67 467.644H1271.16C1273.33 467.81 1275.37 468.788 1276.85 470.383C1278.34 471.977 1279.17 474.072 1279.17 476.248L1279.25 476.287Z" fill="white"/>
<path d="M1271.25 484.931C1276.05 484.931 1279.94 481.052 1279.94 476.268C1279.94 471.483 1276.05 467.604 1271.25 467.604C1266.45 467.604 1262.55 471.483 1262.55 476.268C1262.55 481.052 1266.45 484.931 1271.25 484.931Z" fill="#D3D6DE"/>
<path d="M1203.98 484.551C1208.78 484.551 1212.68 480.673 1212.68 475.888C1212.68 471.103 1208.78 467.225 1203.98 467.225C1199.18 467.225 1195.29 471.103 1195.29 475.888C1195.29 480.673 1199.18 484.551 1203.98 484.551Z" fill="#D3D6DE"/>
<path d="M1258.45 467.604H1271.99V484.781H1258.43C1256.14 484.781 1253.95 483.877 1252.34 482.267C1250.72 480.657 1249.81 478.474 1249.81 476.198C1249.81 473.921 1250.72 471.738 1252.34 470.128C1253.95 468.519 1256.14 467.614 1258.43 467.614L1258.45 467.604Z" fill="#D3D6DE"/>
<path d="M1473.56 478.862C1518.51 478.862 1554.94 442.556 1554.94 397.769C1554.94 352.983 1518.51 316.677 1473.56 316.677C1428.62 316.677 1392.19 352.983 1392.19 397.769C1392.19 442.556 1428.62 478.862 1473.56 478.862Z" fill="white"/>
<path d="M1409.07 371.401H1459.28C1461.09 371.402 1462.86 371.915 1464.39 372.88C1465.91 373.844 1467.13 375.221 1467.9 376.85L1484.2 411.204H1423.35L1406.46 375.553C1406.24 375.112 1406.14 374.623 1406.17 374.133C1406.19 373.643 1406.35 373.168 1406.61 372.752C1406.87 372.336 1407.23 371.994 1407.66 371.758C1408.1 371.521 1408.58 371.398 1409.07 371.401Z" fill="#FFBF00"/>
<path d="M1535.48 394.106C1536.78 394.106 1538.02 394.621 1538.94 395.536C1539.86 396.451 1540.38 397.693 1540.38 398.987V410.076H1523.6L1531.21 396.602C1531.64 395.847 1532.26 395.219 1533.01 394.78C1533.76 394.342 1534.61 394.11 1535.48 394.106Z" fill="#08112B"/>
<path d="M1485.37 412.202C1486.74 412.669 1487.97 413.476 1488.95 414.547L1486.72 417.891L1483.8 416.543L1485.37 412.202Z" fill="#FFBF00"/>
<path d="M1484.72 416.773C1486 416.773 1487.04 415.736 1487.04 414.457C1487.04 413.178 1486 412.142 1484.72 412.142C1483.44 412.142 1482.4 413.178 1482.4 414.457C1482.4 415.736 1483.44 416.773 1484.72 416.773Z" fill="#FFBF00"/>
<path d="M1487.53 418.1C1488.67 418.1 1489.59 417.184 1489.59 416.054C1489.59 414.924 1488.67 414.008 1487.53 414.008C1486.4 414.008 1485.48 414.924 1485.48 416.054C1485.48 417.184 1486.4 418.1 1487.53 418.1Z" fill="#FFBF00"/>
<path d="M1484.88 412.202C1485.28 412.202 1485.61 411.875 1485.61 411.473C1485.61 411.071 1485.28 410.744 1484.88 410.744C1484.48 410.744 1484.15 411.071 1484.15 411.473C1484.15 411.875 1484.48 412.202 1484.88 412.202Z" fill="#FFBF00"/>
<path d="M1485.32 410.874C1486.66 411.671 1487.75 412.817 1488.47 414.188L1486.47 414.857C1486.47 414.857 1486.33 413.679 1484.47 412.052L1485.32 410.874Z" fill="#FFBF00"/>
<path d="M1481.56 412.93C1482.13 412.93 1482.59 412.475 1482.59 411.912C1482.59 411.35 1482.13 410.894 1481.56 410.894C1481 410.894 1480.54 411.35 1480.54 411.912C1480.54 412.475 1481 412.93 1481.56 412.93Z" fill="#FFBF00"/>
<path d="M1482.54 411.573C1483.14 412.023 1483.89 412.242 1484.65 412.192L1483.05 416.054C1481.89 414.956 1481.03 413.582 1480.55 412.062L1482.54 411.573Z" fill="#FFBF00"/>
<path d="M1504.21 399.606C1503.89 399.905 1502.94 399.606 1502.94 399.606C1502.03 400.547 1501.18 401.548 1500.4 402.6C1499.4 403.938 1498.59 405.285 1497.8 406.642C1497.01 408 1496.29 409.357 1495.6 410.744L1494.59 412.85C1494.25 413.599 1493.98 414.188 1493.59 415.256L1496.49 413.03C1495.86 413.211 1495.23 413.361 1494.58 413.479C1493.87 413.599 1493.15 413.749 1492.41 413.828C1490.9 413.994 1489.38 414.034 1487.86 413.948H1487.78C1487.4 413.922 1487.02 414.025 1486.7 414.241C1486.39 414.457 1486.15 414.772 1486.03 415.138C1485.92 415.503 1485.93 415.896 1486.07 416.254C1486.2 416.612 1486.45 416.914 1486.78 417.112C1488.36 418.032 1490.04 418.759 1491.79 419.278C1492.67 419.563 1493.57 419.786 1494.47 419.947C1495.46 420.146 1496.47 420.233 1497.48 420.206C1498.08 420.184 1498.66 419.99 1499.15 419.647C1499.65 419.303 1500.03 418.825 1500.25 418.27L1500.36 417.98L1501.37 416.483L1502.54 414.787C1503.34 413.659 1504.18 412.561 1505.04 411.503C1505.87 410.458 1506.76 409.458 1507.71 408.509C1508.52 407.657 1509.41 406.885 1510.37 406.203C1510.93 405.839 1511.4 405.368 1511.77 404.818C1512.15 404.268 1512.4 403.649 1512.53 402.999C1512.66 402.349 1512.66 401.679 1512.52 401.03C1512.39 400.38 1512.13 399.764 1511.75 399.217C1510.21 396.911 1507.49 397.221 1505.18 398.778C1504.94 398.935 1504.72 399.116 1504.51 399.317L1504.21 399.606Z" fill="#D3D6DE"/>
<path d="M1496.99 435.986L1520.37 441.924L1524.62 417.681C1525.1 411.892 1526.91 407.92 1526.39 404.706C1526.05 402.52 1524.13 400.714 1521.94 398.877C1521.78 398.728 1521.61 398.598 1521.43 398.458L1518.95 396.562L1512.27 396.432C1510.55 396.382 1508.84 396.724 1507.26 397.43L1502.91 399.626C1502.91 399.626 1500.54 405.614 1500.55 409.766L1496.99 435.986Z" fill="#08112B"/>
<path d="M1514.81 396.702C1518.48 396.702 1521.46 393.734 1521.46 390.074C1521.46 386.414 1518.48 383.447 1514.81 383.447C1511.13 383.447 1508.16 386.414 1508.16 390.074C1508.16 393.734 1511.13 396.702 1514.81 396.702Z" fill="#FFBF00"/>
<path d="M1519.25 394.995L1518.54 390.873C1518.41 390.101 1518 389.403 1517.4 388.906C1516.79 388.409 1516.02 388.147 1515.24 388.168C1514.22 388.203 1513.21 388.072 1512.23 387.779L1509.3 386.9C1508.74 386.73 1508.26 386.371 1507.95 385.886C1507.63 385.401 1507.49 384.821 1507.55 384.246C1507.61 383.751 1507.82 383.286 1508.14 382.91C1508.47 382.534 1508.9 382.265 1509.39 382.14C1511.66 381.515 1514.01 381.219 1516.37 381.261C1517.48 381.309 1518.56 381.619 1519.53 382.165C1520.49 382.712 1521.32 383.48 1521.93 384.405V384.465C1522.54 385.377 1522.93 386.418 1523.07 387.506C1523.2 388.594 1523.08 389.699 1522.72 390.733L1521.72 393.607C1521.55 394.095 1521.2 394.503 1520.75 394.757C1520.3 395.01 1519.77 395.091 1519.26 394.985L1519.25 394.995Z" fill="#08112B"/>
<path d="M1520.06 391.93C1520.72 390.747 1520.62 389.428 1519.82 388.984C1519.02 388.54 1517.84 389.139 1517.17 390.322C1516.51 391.506 1516.62 392.825 1517.41 393.269C1518.21 393.713 1519.39 393.114 1520.06 391.93Z" fill="#FFBF00"/>
<path d="M1507.3 397.45C1507.61 399.009 1508.4 400.431 1509.56 401.521C1510.72 402.611 1512.2 403.314 1513.78 403.534C1515.36 403.753 1516.97 403.477 1518.38 402.745C1519.8 402.013 1520.95 400.86 1521.68 399.446L1521.43 398.448L1518.95 396.552L1512.27 396.422C1510.55 396.372 1508.84 396.714 1507.27 397.42L1507.3 397.45Z" fill="#08112B"/>
<path d="M1519.86 377.241C1522.1 378.315 1523.82 380.232 1524.64 382.57C1525.47 384.908 1525.32 387.476 1524.25 389.709L1523.9 390.428L1507 382.332L1507.35 381.612C1508.43 379.379 1510.35 377.664 1512.69 376.845C1515.04 376.025 1517.62 376.168 1519.86 377.241Z" fill="#4CC3FF"/>
<path d="M1499.85 413.2C1501.09 413.928 1502.13 414.958 1502.86 416.194L1499.97 418.998L1497.41 417.062L1499.85 413.2Z" fill="#FFBF00"/>
<path d="M1498.74 417.571C1500.02 417.571 1501.07 416.534 1501.07 415.255C1501.07 413.977 1500.02 412.94 1498.74 412.94C1497.46 412.94 1496.42 413.977 1496.42 415.255C1496.42 416.534 1497.46 417.571 1498.74 417.571Z" fill="#FFBF00"/>
<path d="M1501.16 419.468C1502.29 419.468 1503.21 418.552 1503.21 417.422C1503.21 416.292 1502.29 415.375 1501.16 415.375C1500.02 415.375 1499.1 416.292 1499.1 417.422C1499.1 418.552 1500.02 419.468 1501.16 419.468Z" fill="#FFBF00"/>
<path d="M1499.53 413.1C1499.93 413.1 1500.26 412.774 1500.26 412.371C1500.26 411.969 1499.93 411.643 1499.53 411.643C1499.13 411.643 1498.8 411.969 1498.8 412.371C1498.8 412.774 1499.13 413.1 1499.53 413.1Z" fill="#FFBF00"/>
<path d="M1500.06 411.872C1501.2 412.936 1502.02 414.284 1502.45 415.775L1500.31 416.004C1500.31 416.004 1500.42 414.827 1498.98 412.85L1500.06 411.872Z" fill="#FFBF00"/>
<path d="M1496.2 413.12C1496.76 413.12 1497.22 412.664 1497.22 412.102C1497.22 411.54 1496.76 411.084 1496.2 411.084C1495.63 411.084 1495.18 411.54 1495.18 412.102C1495.18 412.664 1495.63 413.12 1496.2 413.12Z" fill="#FFBF00"/>
<path d="M1497.22 411.982C1497.72 412.549 1498.4 412.921 1499.15 413.03L1496.77 416.463C1495.87 415.154 1495.33 413.639 1495.18 412.062L1497.22 411.982Z" fill="#FFBF00"/>
<path d="M1518.37 405.445C1517.82 408.445 1517.04 411.398 1516.03 414.278C1515.03 417.142 1513.73 419.997 1512.38 423.001L1517.15 420.286C1517.15 420.346 1516.81 420.286 1516.61 420.346H1515.83C1515.29 420.346 1514.73 420.256 1514.15 420.176C1512.99 420.014 1511.83 419.787 1510.69 419.498C1508.29 418.887 1505.95 418.082 1503.68 417.092C1503.26 416.947 1502.8 416.946 1502.38 417.089C1501.96 417.232 1501.59 417.511 1501.35 417.882C1501.1 418.253 1500.99 418.695 1501.03 419.137C1501.06 419.58 1501.24 419.998 1501.54 420.326C1503.54 422.185 1505.68 423.887 1507.93 425.416C1509.11 426.207 1510.33 426.937 1511.59 427.602C1512.23 427.931 1512.89 428.251 1513.59 428.55C1513.93 428.71 1514.29 428.849 1514.67 428.989C1515.1 429.161 1515.56 429.297 1516.02 429.398C1516.94 429.604 1517.91 429.478 1518.76 429.044C1519.6 428.61 1520.27 427.895 1520.63 427.023L1520.77 426.684C1522.05 423.689 1523.4 420.536 1524.5 417.182C1525.59 413.851 1526.42 410.44 1526.97 406.982C1527.18 405.842 1526.92 404.669 1526.25 403.721C1525.58 402.773 1524.57 402.128 1523.42 401.927C1522.28 401.725 1521.1 401.985 1520.15 402.649C1519.2 403.312 1518.55 404.325 1518.35 405.465L1518.37 405.445Z" fill="#D3D6DE"/>
<path d="M1519.2 394.666H1510.96V397.66H1519.2V394.666Z" fill="#FFBF00"/>
<path d="M1495.41 433.62H1379.59C1364.99 433.62 1353.16 445.408 1353.16 459.949C1353.16 474.49 1364.99 486.278 1379.59 486.278H1495.41C1510 486.278 1521.83 474.49 1521.83 459.949C1521.83 445.408 1510 433.62 1495.41 433.62Z" fill="white"/>
<path d="M1495.41 433.61H1381.94C1376.4 435.76 1371.64 439.527 1368.28 444.417C1364.93 449.307 1363.13 455.093 1363.13 461.017V463.263C1363.13 467.493 1364.04 471.673 1365.81 475.517C1367.59 479.361 1370.17 482.777 1373.39 485.53C1375.43 486.025 1377.52 486.273 1379.61 486.268H1381.83C1377.45 484.223 1373.74 480.979 1371.14 476.915C1368.54 472.851 1367.15 468.133 1367.14 463.313V461.067C1367.14 454.33 1369.83 447.871 1374.61 443.108C1379.39 438.344 1385.87 435.664 1392.63 435.656H1505.53C1502.33 434.312 1498.88 433.616 1495.41 433.61Z" fill="#F3F4F7"/>
<path d="M1411.61 435.606H1505.5C1502.3 434.283 1498.87 433.605 1495.41 433.61H1400.94C1395.4 435.765 1390.64 439.532 1387.28 444.42C1383.92 449.308 1382.11 455.092 1382.1 461.017V463.263C1382.11 467.68 1383.11 472.039 1385.05 476.014C1386.98 479.988 1389.79 483.477 1393.27 486.218H1400.8C1396.42 484.173 1392.71 480.929 1390.11 476.865C1387.51 472.801 1386.12 468.083 1386.11 463.263V461.017C1386.11 454.28 1388.8 447.821 1393.58 443.058C1398.36 438.294 1404.85 435.614 1411.61 435.606Z" fill="#F3F4F7"/>
<path d="M1545.23 433.62H1429.41C1414.82 433.62 1402.99 445.408 1402.99 459.949C1402.99 474.49 1414.82 486.278 1429.41 486.278H1545.23C1559.83 486.278 1571.66 474.49 1571.66 459.949C1571.66 445.408 1559.83 433.62 1545.23 433.62Z" fill="#4CC3FF"/>
<path d="M1414.94 437.922L1426.96 421.823C1429.68 418.18 1433.22 415.221 1437.29 413.181C1441.36 411.142 1445.85 410.078 1450.41 410.076H1549.2C1551.2 410.068 1553.14 410.723 1554.73 411.937C1556.31 413.151 1557.45 414.856 1557.95 416.783L1564.75 442.184L1548.9 437.024H1423.44L1414.94 437.922Z" fill="#4CC3FF"/>
<path d="M1365.74 437.922L1377.76 421.823C1380.48 418.181 1384.01 415.222 1388.08 413.183C1392.15 411.143 1396.64 410.079 1401.19 410.076H1499.98C1501.98 410.077 1503.92 410.735 1505.5 411.948C1507.09 413.16 1508.22 414.86 1508.74 416.783L1515.52 442.183L1499.68 437.023H1374.26L1365.74 437.922Z" fill="#4CC3FF"/>
<path d="M1544.23 439.479H1431.17C1419.85 439.479 1410.67 448.621 1410.67 459.899V459.999C1410.67 471.277 1419.85 480.419 1431.17 480.419H1544.23C1555.55 480.419 1564.72 471.277 1564.72 459.999V459.899C1564.72 448.621 1555.55 439.479 1544.23 439.479Z" fill="#F3F4F7"/>
<path d="M1527.92 453.022H1448.07C1443.97 453.022 1440.64 456.336 1440.64 460.423C1440.64 464.51 1443.97 467.824 1448.07 467.824H1527.92C1532.02 467.824 1535.35 464.51 1535.35 460.423C1535.35 456.336 1532.02 453.022 1527.92 453.022Z" fill="#08112B"/>
<path d="M1383.27 418.649H1416.61C1417.93 418.649 1419.19 419.17 1420.12 420.096C1421.05 421.023 1421.57 422.279 1421.57 423.59V426.035C1421.57 427.345 1421.05 428.602 1420.12 429.528C1419.19 430.455 1417.93 430.975 1416.61 430.975H1370.91C1370.91 427.708 1372.21 424.574 1374.53 422.263C1376.85 419.952 1379.99 418.652 1383.27 418.649Z" fill="#08112B"/>
<path d="M1459 405.215H1412.39C1411.74 405.214 1411.1 405.34 1410.5 405.585C1409.9 405.831 1409.36 406.192 1408.9 406.647C1408.45 407.102 1408.08 407.643 1407.83 408.238C1407.59 408.833 1407.46 409.471 1407.46 410.116H1476.91L1459 405.215Z" fill="#08112B"/>
<path d="M1427.7 429.458H1563.91V434.269H1427.7C1427.06 434.269 1426.45 434.015 1425.99 433.564C1425.54 433.113 1425.29 432.502 1425.29 431.864C1425.29 431.226 1425.54 430.614 1425.99 430.163C1426.45 429.712 1427.06 429.458 1427.7 429.458Z" fill="#F3F4F7"/>
<path d="M1457.86 392.869H1466.75C1468.16 392.869 1468.75 391.721 1468.12 390.324C1467.77 389.614 1467.24 389.006 1466.59 388.56C1465.93 388.114 1465.17 387.845 1464.38 387.779H1455.48C1454.07 387.779 1453.48 388.917 1454.12 390.324C1454.47 391.033 1455 391.64 1455.65 392.086C1456.31 392.532 1457.07 392.802 1457.86 392.869Z" fill="white"/>
<path d="M1467.53 391.95C1468.09 391.238 1467.63 389.932 1466.5 389.034C1465.36 388.136 1463.98 387.984 1463.42 388.696C1462.85 389.409 1463.31 390.714 1464.44 391.613C1465.58 392.511 1466.96 392.662 1467.53 391.95Z" fill="#08112B"/>
<path d="M1463.04 403.997H1471.94C1473.34 403.997 1473.94 402.86 1473.3 401.452C1472.95 400.742 1472.43 400.134 1471.77 399.688C1471.12 399.241 1470.36 398.972 1469.57 398.907H1460.67C1459.26 398.907 1458.67 400.045 1459.3 401.452C1459.65 402.162 1460.18 402.77 1460.83 403.216C1461.49 403.662 1462.25 403.931 1463.04 403.997Z" fill="white"/>
<path d="M1463.9 403.081C1464.47 402.369 1464.01 401.064 1462.88 400.165C1461.74 399.267 1460.36 399.116 1459.79 399.828C1459.23 400.54 1459.69 401.845 1460.82 402.744C1461.95 403.642 1463.33 403.793 1463.9 403.081Z" fill="#4CC3FF"/>
<path d="M1452.67 381.731H1461.56C1462.98 381.731 1463.57 380.593 1462.94 379.186C1462.59 378.475 1462.06 377.867 1461.41 377.421C1460.75 376.975 1459.99 376.706 1459.2 376.641H1450.27C1448.85 376.641 1448.26 377.778 1448.89 379.186C1449.25 379.902 1449.78 380.513 1450.44 380.96C1451.1 381.407 1451.87 381.672 1452.67 381.731Z" fill="white"/>
<path d="M1453.54 380.809C1454.11 380.097 1453.65 378.791 1452.51 377.893C1451.38 376.994 1450 376.843 1449.43 377.555C1448.86 378.267 1449.32 379.573 1450.46 380.472C1451.59 381.37 1452.97 381.521 1453.54 380.809Z" fill="#4CC3FF"/>
<path d="M1415.93 380.533H1440.66C1441.4 380.533 1441.72 379.924 1441.38 379.186C1441.19 378.808 1440.91 378.487 1440.56 378.252C1440.21 378.018 1439.8 377.878 1439.38 377.848H1414.66C1413.91 377.848 1413.59 378.447 1413.93 379.186C1414.12 379.564 1414.4 379.887 1414.75 380.123C1415.1 380.36 1415.51 380.501 1415.93 380.533Z" fill="white"/>
<path d="M1420.63 391.661H1425.32C1426.07 391.661 1426.39 391.063 1426.04 390.324C1425.85 389.942 1425.57 389.617 1425.22 389.38C1424.87 389.143 1424.46 389.004 1424.03 388.977H1419.34C1418.6 388.977 1418.28 389.575 1418.62 390.324C1418.81 390.702 1419.09 391.025 1419.44 391.26C1419.8 391.494 1420.21 391.633 1420.63 391.661Z" fill="white"/>
<path d="M1430.71 391.661H1444.42C1445.16 391.661 1445.48 391.063 1445.14 390.324C1444.95 389.944 1444.67 389.62 1444.32 389.384C1443.97 389.147 1443.56 389.007 1443.13 388.977H1429.43C1428.68 388.977 1428.36 389.575 1428.7 390.324C1428.89 390.701 1429.17 391.023 1429.53 391.257C1429.88 391.492 1430.28 391.631 1430.71 391.661Z" fill="white"/>
<path d="M1257.1 350.801H1202.6C1201.12 350.801 1199.93 351.994 1199.93 353.465V386.042C1199.93 387.514 1201.12 388.707 1202.6 388.707H1257.1C1258.57 388.707 1259.77 387.514 1259.77 386.042V353.465C1259.77 351.994 1258.57 350.801 1257.1 350.801Z" fill="#D3D6DE"/>
<path d="M1247.3 363.087H1228.93C1227.94 363.087 1227.15 363.882 1227.15 364.863C1227.15 365.844 1227.94 366.64 1228.93 366.64H1247.3C1248.28 366.64 1249.08 365.844 1249.08 364.863C1249.08 363.882 1248.28 363.087 1247.3 363.087Z" fill="white"/>
<path d="M1237.78 371.351H1228.93C1227.94 371.351 1227.15 372.146 1227.15 373.127C1227.15 374.108 1227.94 374.904 1228.93 374.904H1237.78C1238.77 374.904 1239.57 374.108 1239.57 373.127C1239.57 372.146 1238.77 371.351 1237.78 371.351Z" fill="white"/>
<path d="M1213.4 382.339C1214.76 382.339 1215.87 381.236 1215.87 379.874C1215.87 378.513 1214.76 377.409 1213.4 377.409C1212.03 377.409 1210.92 378.513 1210.92 379.874C1210.92 381.236 1212.03 382.339 1213.4 382.339Z" fill="#08112B"/>
<path d="M1215.64 359.384C1215.64 358.155 1214.64 357.158 1213.41 357.158C1212.17 357.158 1211.17 358.155 1211.17 359.384V371.999C1211.17 373.229 1212.17 374.225 1213.41 374.225C1214.64 374.225 1215.64 373.229 1215.64 371.999V359.384Z" fill="#08112B"/>
<path d="M1920 461.546H1640.27C1638.16 461.549 1636.07 461.995 1634.13 462.854C1632.2 463.714 1630.47 464.968 1629.06 466.536L1613.52 483.743H1920V461.546Z" fill="#D3D6DE"/>
<path d="M1920 417.192H1781.03V419.797H1920V417.192Z" fill="white"/>
<path d="M1826.98 419.797H1785.06V461.576H1826.98V419.797Z" fill="#08112B"/>
<path d="M1809.64 429.758C1809.64 427.762 1808.02 426.145 1806.02 426.145C1804.02 426.145 1802.4 427.762 1802.4 429.758V451.625C1802.4 453.621 1804.02 455.238 1806.02 455.238C1808.02 455.238 1809.64 453.621 1809.64 451.625V429.758Z" fill="#FFBF00"/>
<path d="M1872.93 419.797H1831V461.576H1872.93V419.797Z" fill="#08112B"/>
<path d="M1855.58 429.758C1855.58 427.762 1853.96 426.145 1851.96 426.145C1849.96 426.145 1848.34 427.762 1848.34 429.758V451.625C1848.34 453.621 1849.96 455.238 1851.96 455.238C1853.96 455.238 1855.58 453.621 1855.58 451.625V429.758Z" fill="#FFBF00"/>
<path d="M1920 377.229H1878.07V419.009H1920V377.229Z" fill="#08112B"/>
<path d="M1902.66 387.19C1902.66 385.194 1901.04 383.577 1899.04 383.577C1897.04 383.577 1895.42 385.194 1895.42 387.19V409.058C1895.42 411.053 1897.04 412.671 1899.04 412.671C1901.04 412.671 1902.66 411.053 1902.66 409.058V387.19Z" fill="#FFBF00"/>
<path d="M1920 419.797H1878.07V461.576H1920V419.797Z" fill="#08112B"/>
<path d="M1902.66 429.758C1902.66 427.762 1901.04 426.145 1899.04 426.145C1897.04 426.145 1895.42 427.762 1895.42 429.758V451.625C1895.42 453.621 1897.04 455.238 1899.04 455.238C1901.04 455.238 1902.66 453.621 1902.66 451.625V429.758Z" fill="#FFBF00"/>
<path d="M1831.54 419.797H1826.43V461.576H1831.54V419.797Z" fill="white"/>
<path d="M1878.07 419.797H1872.92V461.576H1878.07V419.797Z" fill="white"/>
<path d="M1920 334.452H1878.07V376.231H1920V334.452Z" fill="#08112B"/>
<path d="M1902.66 344.403C1902.66 342.408 1901.04 340.79 1899.04 340.79C1897.04 340.79 1895.42 342.408 1895.42 344.403V366.271C1895.42 368.266 1897.04 369.884 1899.04 369.884C1901.04 369.884 1902.66 368.266 1902.66 366.271V344.403Z" fill="#FFBF00"/>
<path d="M1878.07 334.452H1872.92V376.231H1878.07V334.452Z" fill="white"/>
<path d="M1878.07 377.229H1872.92V419.009H1878.07V377.229Z" fill="white"/>
<path d="M1785.05 417.192H1775.14V461.576H1785.05V417.192Z" fill="white"/>
<path d="M1872.52 377.229H1830.59V419.009H1872.52V377.229Z" fill="#FFBF00"/>
<path d="M1855.17 387.19C1855.17 385.194 1853.55 383.577 1851.55 383.577C1849.55 383.577 1847.93 385.194 1847.93 387.19V409.058C1847.93 411.053 1849.55 412.671 1851.55 412.671C1853.55 412.671 1855.17 411.053 1855.17 409.058V387.19Z" fill="#08112B"/>
<path d="M1830.59 377.229H1825.43V419.009H1830.59V377.229Z" fill="white"/>
<path d="M1825.44 386.891H1793.42V418.799H1825.44V386.891Z" fill="#08112B"/>
<path d="M1812.19 394.496C1812.19 392.975 1810.96 391.741 1809.43 391.741C1807.9 391.741 1806.66 392.975 1806.66 394.496V411.204C1806.66 412.725 1807.9 413.958 1809.43 413.958C1810.96 413.958 1812.19 412.725 1812.19 411.204V394.496Z" fill="#FFBF00"/>
<path d="M1793.41 386.891H1783.21V418.799H1793.41V386.891Z" fill="white"/>
<path d="M1869.49 472.724H1664.03C1661.9 472.722 1659.79 473.164 1657.85 474.024C1655.9 474.883 1654.15 476.141 1652.72 477.715L1647.24 483.793H1886.28L1880.8 477.715C1879.37 476.141 1877.62 474.883 1875.68 474.024C1873.73 473.164 1871.62 472.722 1869.49 472.724Z" fill="white"/>
<path d="M1690.78 393.907V388.148L1674.84 349.044C1673.45 350.916 1672.52 353.079 1672.1 355.368C1671.68 357.657 1671.8 360.01 1672.43 362.248L1679.8 388.148L1690.78 393.907Z" fill="white"/>
<path d="M1736.84 392.37H1699.46C1698.58 392.37 1697.87 393.076 1697.87 393.947V395.534C1697.87 396.405 1698.58 397.111 1699.46 397.111H1736.84C1737.72 397.111 1738.43 396.405 1738.43 395.534V393.947C1738.43 393.076 1737.72 392.37 1736.84 392.37Z" fill="#F3F4F7"/>
<path d="M1764.2 377.529C1764.65 377.333 1765.05 377.007 1765.32 376.592C1765.59 376.177 1765.74 375.69 1765.74 375.193V374.544C1765.4 369.688 1763.83 364.998 1761.16 360.921C1760.2 359.406 1759.02 358.041 1757.66 356.869L1757.58 356.789C1757.17 356.434 1756.69 356.167 1756.18 356.005C1755.66 355.842 1755.12 355.788 1754.58 355.844C1754.05 355.901 1753.53 356.068 1753.06 356.334C1752.59 356.601 1752.18 356.961 1751.86 357.393C1751.53 357.824 1751.3 358.317 1751.18 358.842C1751.06 359.366 1751.05 359.91 1751.15 360.439C1751.24 360.968 1751.45 361.471 1751.76 361.916C1752.06 362.362 1752.45 362.74 1752.91 363.027C1753.77 363.641 1754.53 364.378 1755.18 365.212C1755.93 366.152 1756.6 367.154 1757.18 368.207C1758.39 370.385 1759.22 372.745 1759.65 375.193C1759.77 375.659 1759.99 376.093 1760.29 376.469C1760.59 376.844 1760.97 377.152 1761.4 377.372C1761.83 377.593 1762.3 377.721 1762.78 377.747C1763.26 377.774 1763.74 377.7 1764.2 377.529Z" fill="#D3D6DE"/>
<path d="M1764.04 372.738L1764.57 373.107C1764.97 373.394 1765.28 373.793 1765.46 374.254C1765.64 374.716 1765.68 375.22 1765.57 375.702C1765.33 376.795 1765.02 377.868 1764.63 378.916C1764.26 379.939 1763.83 380.939 1763.34 381.91C1762.36 383.921 1761 385.721 1759.33 387.21C1759.01 387.488 1758.59 387.637 1758.17 387.629C1757.74 387.621 1757.33 387.457 1757.02 387.168C1756.71 386.879 1756.51 386.485 1756.47 386.062C1756.43 385.639 1756.55 385.216 1756.81 384.875L1756.87 384.795C1757.83 383.405 1758.51 381.842 1758.87 380.194C1759.08 379.342 1759.24 378.479 1759.35 377.609C1759.35 377.609 1760.62 371.82 1764.04 372.738Z" fill="#D3D6DE"/>
<path d="M1745.04 353.386C1749.41 353.386 1752.96 349.851 1752.96 345.491C1752.96 341.131 1749.41 337.596 1745.04 337.596C1740.66 337.596 1737.11 341.131 1737.11 345.491C1737.11 349.851 1740.66 353.386 1745.04 353.386Z" fill="#FFBF00"/>
<path d="M1736.71 356.1L1741.72 352.846L1750.43 351.848L1756.53 356.13C1757.93 357.11 1759.04 358.443 1759.74 359.993C1760.45 361.543 1760.72 363.252 1760.54 364.943L1757.94 389.206H1735.3L1732.47 365.252C1732.24 363.484 1732.52 361.688 1733.27 360.069C1734.02 358.451 1735.21 357.076 1736.71 356.1Z" fill="#08112B"/>
<path d="M1757.96 389.176C1760.88 413.329 1759.22 431.155 1758.41 453.611H1754.91L1741.99 389.176H1757.96Z" fill="#08112B"/>
<path d="M1735.32 389.176C1732.25 413.13 1734.5 427.013 1734.64 453.422L1738.87 453.242L1750.11 389.176H1735.32Z" fill="#08112B"/>
<path d="M1748.98 461.546C1749.12 460.598 1748.98 459.63 1749.73 459.32C1750.52 459.011 1751.2 458.487 1751.7 457.809C1752.2 457.132 1752.5 456.327 1752.57 455.488L1752.84 443.272L1759.02 439.12C1759.02 439.12 1759.25 457.284 1759.43 460.348C1759.49 461.347 1758.67 461.576 1757.66 461.576L1748.98 461.546Z" fill="#4CC3FF"/>
<path d="M1740.5 364.294C1739.56 365.037 1738.75 365.935 1738.12 366.949C1737.3 368.137 1736.48 369.544 1735.61 371.001C1733.84 374.148 1731.73 377.087 1729.3 379.765L1728.97 380.114C1728.55 380.555 1728.01 380.857 1727.41 380.977C1726.81 381.097 1726.19 381.029 1725.64 380.783C1724.48 380.267 1723.36 379.67 1722.29 378.996C1721.25 378.347 1720.25 377.64 1719.29 376.88C1717.28 375.33 1715.59 373.4 1714.33 371.201C1714.16 370.784 1714.14 370.324 1714.27 369.894C1714.4 369.464 1714.67 369.09 1715.04 368.832C1715.4 368.574 1715.85 368.446 1716.3 368.471C1716.75 368.495 1717.18 368.669 1717.51 368.965L1717.59 369.055C1718.91 370.448 1720.49 371.573 1722.23 372.369C1723.13 372.797 1724.05 373.17 1724.99 373.487C1725.89 373.807 1726.81 374.061 1727.75 374.245L1724.08 375.243C1725.92 372.774 1727.47 370.105 1728.7 367.289C1729.4 365.812 1730.09 364.294 1731.01 362.598C1732 360.701 1733.31 358.981 1734.87 357.508L1734.98 357.408C1735.41 357.015 1735.91 356.709 1736.46 356.51C1737.01 356.31 1737.59 356.219 1738.17 356.244C1738.75 356.268 1739.32 356.406 1739.85 356.65C1740.38 356.894 1740.86 357.24 1741.25 357.667C1741.65 358.095 1741.95 358.595 1742.15 359.14C1742.35 359.686 1742.44 360.265 1742.42 360.845C1742.4 361.425 1742.26 361.995 1742.01 362.522C1741.77 363.048 1741.42 363.522 1740.99 363.915C1740.79 364.035 1740.64 364.155 1740.5 364.294Z" fill="white"/>
<path d="M1738.66 343.804L1740.08 343.554C1740.4 343.494 1740.73 343.499 1741.04 343.567C1741.36 343.635 1741.66 343.766 1741.93 343.952C1742.2 344.138 1742.42 344.376 1742.59 344.65C1742.77 344.925 1742.88 345.231 1742.93 345.551C1743.11 346.678 1743.36 348.046 1743.66 349.343C1743.92 350.397 1744.52 351.335 1745.37 352.005C1746.23 352.676 1747.28 353.039 1748.37 353.036C1749.53 353.037 1750.66 352.621 1751.54 351.864C1752.42 351.107 1753 350.06 1753.17 348.914L1753.97 343.415C1753.97 341.647 1753.28 339.949 1752.05 338.676C1750.82 337.404 1749.14 336.655 1747.37 336.588L1743.36 336.438C1741.84 336.383 1740.34 336.847 1739.12 337.755C1737.9 338.662 1737.03 339.958 1736.64 341.429V341.568C1736.56 341.857 1736.56 342.16 1736.63 342.451C1736.7 342.742 1736.84 343.011 1737.04 343.233C1737.24 343.456 1737.49 343.624 1737.77 343.724C1738.06 343.824 1738.36 343.851 1738.66 343.804Z" fill="#08112B"/>
<path d="M1711.67 367.638C1712.17 368.944 1713 370.101 1714.07 371.001L1716.73 368.067L1715.73 365.911L1711.67 367.638Z" fill="#FFBF00"/>
<path d="M1713.81 369.165C1715.05 369.165 1716.05 368.164 1716.05 366.929C1716.05 365.695 1715.05 364.694 1713.81 364.694C1712.57 364.694 1711.56 365.695 1711.56 366.929C1711.56 368.164 1712.57 369.165 1713.81 369.165Z" fill="#FFBF00"/>
<path d="M1711.84 363.396C1712.23 363.396 1712.54 363.083 1712.54 362.697C1712.54 362.312 1712.23 361.999 1711.84 361.999C1711.46 361.999 1711.14 362.312 1711.14 362.697C1711.14 363.083 1711.46 363.396 1711.84 363.396Z" fill="#FFBF00"/>
<path d="M1715.46 371.57C1716.55 371.57 1717.44 370.686 1717.44 369.594C1717.44 368.503 1716.55 367.618 1715.46 367.618C1714.36 367.618 1713.48 368.503 1713.48 369.594C1713.48 370.686 1714.36 371.57 1715.46 371.57Z" fill="#FFBF00"/>
<path d="M1712.25 362.109C1713.55 362.859 1714.62 363.949 1715.35 365.263L1713.35 365.941C1713.35 365.941 1713.2 364.803 1711.34 363.266L1712.25 362.109Z" fill="#FFBF00"/>
<path d="M1746.16 332.602L1746.53 332.645C1749 332.932 1751.25 334.184 1752.79 336.127C1754.34 338.07 1755.04 340.544 1754.76 343.005L1754.64 343.996L1735.65 341.793L1735.76 340.801C1736.05 338.34 1737.31 336.094 1739.26 334.556C1741.21 333.019 1743.69 332.316 1746.16 332.602Z" fill="#4CC3FF"/>
<path d="M1726.27 461.546C1726.11 459.769 1728.03 458.382 1730.45 457.654C1731.39 457.352 1732.22 456.782 1732.83 456.015C1733.44 455.248 1733.81 454.318 1733.9 453.342L1734.52 444.629L1741.17 440.327C1741.17 440.327 1739.6 456.296 1739.73 459.29C1739.74 459.582 1739.7 459.873 1739.6 460.147C1739.5 460.421 1739.34 460.671 1739.14 460.883C1738.94 461.095 1738.69 461.263 1738.43 461.379C1738.16 461.495 1737.87 461.555 1737.57 461.556L1726.27 461.546Z" fill="#4CC3FF"/>
<path d="M1736.84 368.895C1736.44 369.554 1736.03 370.253 1735.61 370.961C1733.85 374.106 1731.73 377.043 1729.3 379.714L1728.97 380.074C1728.55 380.515 1728.01 380.817 1727.41 380.937C1726.81 381.056 1726.19 380.989 1725.64 380.742C1724.48 380.223 1723.37 379.626 1722.29 378.956C1721.25 378.307 1720.25 377.6 1719.29 376.84C1717.28 375.29 1715.59 373.36 1714.33 371.161C1714.16 370.744 1714.14 370.281 1714.26 369.849C1714.39 369.416 1714.66 369.039 1715.03 368.779C1715.4 368.518 1715.84 368.39 1716.3 368.415C1716.75 368.44 1717.18 368.616 1717.51 368.915L1717.59 369.015C1718.91 370.408 1720.49 371.533 1722.23 372.329C1723.13 372.753 1724.05 373.126 1724.99 373.447L1725.29 373.546C1726.58 371.551 1727.73 369.459 1728.7 367.289C1729.4 365.811 1730.09 364.294 1731.01 362.598C1731.59 361.509 1732.26 360.468 1733.01 359.484L1736.84 368.895Z" fill="white"/>
<path d="M1693.27 338.824H1681.25C1681.04 338.824 1680.85 338.743 1680.7 338.599C1680.56 338.455 1680.48 338.259 1680.48 338.055V322.026C1680.48 321.823 1680.56 321.629 1680.71 321.486C1680.85 321.342 1681.04 321.26 1681.25 321.258H1689.98L1694.05 325.42V338.055C1694.05 338.157 1694.03 338.258 1693.99 338.352C1693.95 338.446 1693.89 338.531 1693.82 338.602C1693.75 338.674 1693.66 338.73 1693.56 338.768C1693.47 338.806 1693.37 338.825 1693.27 338.824Z" fill="#08112B"/>
<path d="M1683.04 333.564H1691.1" stroke="white" stroke-width="0.75" stroke-miterlimit="10"/>
<path d="M1689.97 321.258V324.651C1689.97 324.854 1690.06 325.048 1690.2 325.192C1690.34 325.335 1690.54 325.417 1690.74 325.42H1694.04L1689.97 321.258Z" fill="#F3F4F7"/>
<path d="M1682.96 327.835H1691.28" stroke="white" stroke-width="0.75" stroke-miterlimit="10"/>
<path d="M1682.96 330.719H1691.28" stroke="white" stroke-width="0.75" stroke-miterlimit="10"/>
<path d="M1713.32 338.824H1701.3C1701.09 338.824 1700.9 338.743 1700.75 338.599C1700.61 338.455 1700.53 338.259 1700.53 338.055V322.026C1700.53 321.823 1700.61 321.629 1700.76 321.486C1700.9 321.342 1701.09 321.26 1701.3 321.258H1710.03L1714.09 325.42V338.055C1714.09 338.157 1714.07 338.257 1714.03 338.351C1713.99 338.445 1713.94 338.53 1713.87 338.602C1713.79 338.673 1713.71 338.73 1713.61 338.768C1713.52 338.806 1713.42 338.825 1713.32 338.824Z" fill="#08112B"/>
<path d="M1703.1 333.564H1711.16" stroke="white" stroke-width="0.75" stroke-miterlimit="10"/>
<path d="M1710.03 321.258V324.651C1710.03 324.854 1710.12 325.048 1710.26 325.192C1710.4 325.335 1710.6 325.417 1710.8 325.42H1714.09L1710.03 321.258Z" fill="#F3F4F7"/>
<path d="M1703.02 327.835H1711.34" stroke="white" stroke-width="0.75" stroke-miterlimit="10"/>
<path d="M1703.02 330.719H1711.34" stroke="white" stroke-width="0.75" stroke-miterlimit="10"/>
<path d="M1807.71 253.749H1779.12C1778.62 253.749 1778.14 253.947 1777.78 254.301C1777.43 254.655 1777.23 255.135 1777.23 255.635V267.612C1777.23 268.112 1777.43 268.592 1777.78 268.946C1778.14 269.299 1778.62 269.498 1779.12 269.498H1807.71C1808.22 269.498 1808.7 269.299 1809.05 268.946C1809.41 268.592 1809.61 268.112 1809.61 267.612V255.635C1809.61 255.135 1809.41 254.655 1809.05 254.301C1808.7 253.947 1808.22 253.749 1807.71 253.749Z" fill="#FFBF00"/>
<path d="M1783.51 259.388H1798.62" stroke="white" stroke-width="0.9" stroke-linejoin="round"/>
<path d="M1783.51 263.12H1798.62" stroke="white" stroke-width="0.9" stroke-linejoin="round"/>
<path d="M1802.31 260.705C1802.92 260.705 1803.41 260.213 1803.41 259.607C1803.41 259.001 1802.92 258.509 1802.31 258.509C1801.7 258.509 1801.21 259.001 1801.21 259.607C1801.21 260.213 1801.7 260.705 1802.31 260.705Z" fill="white"/>
<path d="M1802.31 264.398C1802.92 264.398 1803.41 263.906 1803.41 263.3C1803.41 262.694 1802.92 262.202 1802.31 262.202C1801.7 262.202 1801.21 262.694 1801.21 263.3C1801.21 263.906 1801.7 264.398 1802.31 264.398Z" fill="white"/>
<path d="M1846.44 253.749H1817.84C1817.34 253.751 1816.86 253.951 1816.51 254.305C1816.16 254.658 1815.96 255.136 1815.96 255.635V267.612C1815.96 268.107 1816.16 268.58 1816.51 268.929C1816.87 269.278 1817.34 269.475 1817.84 269.478H1846.44C1846.95 269.478 1847.43 269.279 1847.78 268.926C1848.14 268.572 1848.34 268.092 1848.34 267.592V255.615C1848.33 255.118 1848.13 254.643 1847.78 254.294C1847.42 253.945 1846.94 253.749 1846.44 253.749Z" fill="#FFBF00"/>
<path d="M1822.24 260.226H1837.35" stroke="white" stroke-width="0.9" stroke-linejoin="round"/>
<path d="M1822.24 263.959H1837.35" stroke="white" stroke-width="0.9" stroke-linejoin="round"/>
<path d="M1841.04 261.543C1841.65 261.543 1842.14 261.052 1842.14 260.446C1842.14 259.839 1841.65 259.348 1841.04 259.348C1840.43 259.348 1839.94 259.839 1839.94 260.446C1839.94 261.052 1840.43 261.543 1841.04 261.543Z" fill="white"/>
<path d="M1841.04 265.236C1841.65 265.236 1842.14 264.745 1842.14 264.138C1842.14 263.532 1841.65 263.041 1841.04 263.041C1840.43 263.041 1839.94 263.532 1839.94 264.138C1839.94 264.745 1840.43 265.236 1841.04 265.236Z" fill="white"/>
<path d="M1683.63 313.024H1681.63C1681.33 313.024 1681.04 312.906 1680.83 312.697C1680.62 312.488 1680.5 312.203 1680.5 311.906V293.202C1680.5 292.905 1680.62 292.62 1680.83 292.411C1681.04 292.202 1681.33 292.084 1681.63 292.084H1694.36C1694.65 292.087 1694.94 292.205 1695.15 292.415C1695.36 292.624 1695.48 292.906 1695.48 293.202V295.627L1683.63 313.024Z" fill="#08112B"/>
<path d="M1698.62 315.339V296.286C1698.62 295.922 1698.33 295.627 1697.96 295.627H1684.31C1683.95 295.627 1683.65 295.922 1683.65 296.286V315.339C1683.65 315.703 1683.95 315.998 1684.31 315.998H1697.96C1698.33 315.998 1698.62 315.703 1698.62 315.339Z" fill="#F3F4F7"/>
<path d="M1686.57 299.051H1695.56" stroke="#08112B" stroke-width="0.75" stroke-miterlimit="10"/>
<path d="M1686.57 300.847H1695.56" stroke="#08112B" stroke-width="0.75" stroke-miterlimit="10"/>
<path d="M1686.57 302.624H1695.56" stroke="#08112B" stroke-width="0.75" stroke-miterlimit="10"/>
<path d="M1686.57 304.62H1695.56" stroke="#08112B" stroke-width="0.75" stroke-miterlimit="10"/>
<path d="M1701.6 297.843H1696.96C1696.63 297.843 1696.35 298.116 1696.35 298.452V303.073C1696.35 303.409 1696.63 303.682 1696.96 303.682H1701.6C1701.94 303.682 1702.21 303.409 1702.21 303.073V298.452C1702.21 298.116 1701.94 297.843 1701.6 297.843Z" fill="#08112B"/>
<path d="M1699.37 298.801V302.534" stroke="white" stroke-width="0.33" stroke-miterlimit="10"/>
<path d="M1701.24 300.668H1697.49" stroke="white" stroke-width="0.33" stroke-miterlimit="10"/>
<path d="M1727.7 275.057V306.756H1720.4C1719.56 306.676 1718.79 306.285 1718.23 305.661C1717.68 305.037 1717.38 304.227 1717.39 303.392V278.461C1717.38 277.613 1717.68 276.791 1718.26 276.164C1718.83 275.536 1719.62 275.151 1720.47 275.087L1727.7 275.057Z" fill="#18123D"/>
<path d="M1727.7 275.057V285.697H1717.35V278.461C1717.33 277.613 1717.64 276.791 1718.22 276.164C1718.79 275.536 1719.58 275.151 1720.43 275.087L1727.7 275.057Z" fill="#4CC3FF"/>
<path d="M1724.47 279.469H1720.99V282.942H1724.47V279.469Z" fill="#18123D"/>
<path d="M1722.74 293.022C1723.7 293.022 1724.48 292.245 1724.48 291.286C1724.48 290.327 1723.7 289.549 1722.74 289.549C1721.78 289.549 1721 290.327 1721 291.286C1721 292.245 1721.78 293.022 1722.74 293.022Z" fill="#FFBF00"/>
<path d="M1723.61 298.612H1721.86L1720.99 300.119L1721.86 301.626H1723.61L1724.48 300.119L1723.61 298.612Z" fill="#FFBF00"/>
<path d="M1671.24 308.223H1653.96V385.833H1682.96" stroke="#08112B" stroke-miterlimit="10"/>
<path d="M1653.82 359.504C1661.16 359.504 1667.11 353.574 1667.11 346.259C1667.11 338.945 1661.16 333.015 1653.82 333.015C1646.48 333.015 1640.53 338.945 1640.53 346.259C1640.53 353.574 1646.48 359.504 1653.82 359.504Z" fill="#FFBF00"/>
<path d="M1649.72 338.654C1650.85 338.056 1652.09 337.713 1653.37 337.648C1654.65 337.584 1655.92 337.801 1657.11 338.283C1658.29 338.765 1659.36 339.5 1660.22 340.437C1661.09 341.374 1661.74 342.489 1662.13 343.704C1662.43 344.903 1662.56 346.141 1662.5 347.377" stroke="white" stroke-width="0.94" stroke-miterlimit="10" stroke-linecap="round"/>
<path d="M1645.93 349.623C1645.18 347.878 1645.03 345.934 1645.49 344.094C1645.96 342.253 1647.03 340.618 1648.53 339.442" stroke="white" stroke-width="0.94" stroke-miterlimit="10" stroke-linecap="round"/>
<path d="M1659.29 348.226C1659.25 349.42 1659.11 350.609 1658.86 351.779" stroke="white" stroke-width="0.94" stroke-miterlimit="10" stroke-linecap="round"/>
<path d="M1651.58 341.339C1652.47 340.94 1653.44 340.782 1654.41 340.882C1655.38 340.982 1656.3 341.336 1657.09 341.908C1658.77 343.135 1659.24 345.062 1659.29 347.038" stroke="white" stroke-width="0.94" stroke-miterlimit="10" stroke-linecap="round"/>
<path d="M1648.7 347.946C1648.24 345.651 1648.7 343.405 1650.6 341.958" stroke="white" stroke-width="0.94" stroke-miterlimit="10" stroke-linecap="round"/>
<path d="M1648.46 351.2C1648.72 350.594 1648.86 349.943 1648.88 349.283" stroke="white" stroke-width="0.94" stroke-miterlimit="10" stroke-linecap="round"/>
<path d="M1655.17 350.251C1655 351.806 1654.59 353.325 1653.96 354.753" stroke="white" stroke-width="0.94" stroke-miterlimit="10" stroke-linecap="round"/>
<path d="M1651.69 354.444C1652.8 352.341 1653.13 349.916 1652.61 347.597C1652.45 346.719 1652.18 345.601 1653.07 345.022C1654.28 344.213 1655.23 345.361 1655.33 346.479C1655.39 347.296 1655.39 348.117 1655.33 348.934" stroke="white" stroke-width="0.94" stroke-miterlimit="10" stroke-linecap="round"/>
<path d="M1662.21 349.154C1662.11 349.65 1661.98 350.14 1661.83 350.621" stroke="white" stroke-width="0.94" stroke-miterlimit="10" stroke-linecap="round"/>
<path d="M801.252 483.404C801.252 483.404 894.017 455.867 902.29 481.068C902.29 481.068 951.236 481.637 975.274 472.744C999.311 463.852 1033.87 464.131 1035.87 483.404H801.252Z" fill="white"/>
<path d="M1035.87 483.334C1035.87 483.334 1069.34 483.084 1090.2 479.092C1111.06 475.1 1155.97 468.991 1159.48 482.855V483.403H1035.87V483.334Z" fill="white"/>
</svg>
