<svg width="2813" height="490" viewBox="0 0 2813 490" fill="none" xmlns="http://www.w3.org/2000/svg">
<path d="M2321.8 480.67C2321.8 480.67 2378.8 479.02 2409.8 472.88C2440.8 466.74 2469.6 457.58 2488.86 484.24L2321.71 484.62L2321.8 480.67Z" fill="white"/>
<path d="M1283.87 458.31C1309.91 457.026 1335.72 452.772 1360.8 445.63C1401.13 433.92 1507.46 400.49 1560.46 461.37C1560.46 461.37 1654.46 441.08 1667.8 478.58C1667.8 478.58 1726.96 469.4 1729.13 484.34H1283.87V458.31Z" fill="#D3D6DE"/>
<path d="M2597.63 282.69H2618.88V269.47" stroke="#08112B" stroke-miterlimit="10"/>
<path d="M2597.63 291.91H2657.8V269.47" stroke="#08112B" stroke-miterlimit="10"/>
<path d="M2505.16 286.25H2549.94C2551 286.25 2552.02 286.671 2552.77 287.422C2553.52 288.172 2553.94 289.189 2553.94 290.25V344.25H2501.2V290.25C2501.2 289.196 2501.62 288.185 2502.36 287.436C2503.1 286.687 2504.11 286.261 2505.16 286.25Z" fill="#4CC3FF"/>
<path d="M2570.93 388.9H2517.1L2501.18 349.72H2555.01L2559.27 360.19L2563.09 369.61L2570.93 388.9Z" fill="#4CC3FF"/>
<path d="M2521 357.16C2520.9 356.602 2520.61 356.096 2520.18 355.73C2519.74 355.365 2519.2 355.163 2518.63 355.16C2518.13 355.159 2517.64 355.348 2517.27 355.69C2517 355.154 2516.59 354.701 2516.08 354.382C2515.58 354.063 2514.99 353.889 2514.39 353.88C2513.78 353.847 2513.19 354.053 2512.74 354.453C2512.28 354.853 2512 355.416 2511.96 356.02C2511.78 355.96 2511.6 355.93 2511.41 355.93C2511.2 355.916 2510.99 355.948 2510.8 356.025C2510.61 356.102 2510.44 356.221 2510.29 356.373C2510.15 356.526 2510.05 356.708 2509.99 356.906C2509.93 357.105 2509.91 357.314 2509.94 357.52C2510.02 357.965 2510.26 358.367 2510.6 358.658C2510.95 358.948 2511.39 359.108 2511.84 359.11H2519.22C2519.47 359.117 2519.72 359.071 2519.95 358.973C2520.18 358.875 2520.39 358.729 2520.56 358.544C2520.73 358.359 2520.85 358.139 2520.93 357.9C2521.01 357.661 2521.03 357.409 2521 357.16V357.16Z" fill="#F3F4F7"/>
<path d="M2564.67 378.43H2553.44L2542.33 351.46H2553.56L2564.67 378.43Z" fill="#FFBF00"/>
<path d="M2548.52 355.84H2546.33L2545.43 353.65H2547.62L2548.52 355.84Z" fill="#08112B"/>
<path d="M2550.32 360.22H2548.13L2547.23 358.03H2549.42L2550.32 360.22Z" fill="#08112B"/>
<path d="M2552.13 364.6H2549.94L2549.03 362.41H2551.23L2552.13 364.6Z" fill="#08112B"/>
<path d="M2553.92 368.95H2551.73L2550.82 366.76H2553.02L2553.92 368.95Z" fill="#08112B"/>
<path d="M2539.22 364.93H2534.74L2532.9 360.45H2537.37L2539.22 364.93Z" fill="#08112B"/>
<path d="M2528.2 362.69H2512.2C2512.01 362.68 2511.82 362.614 2511.67 362.5C2511.51 362.387 2511.39 362.23 2511.32 362.05V362.05C2511.28 361.982 2511.27 361.905 2511.27 361.828C2511.28 361.752 2511.3 361.677 2511.34 361.612C2511.38 361.548 2511.44 361.495 2511.51 361.459C2511.58 361.424 2511.65 361.407 2511.73 361.41H2527.73C2527.92 361.42 2528.11 361.486 2528.26 361.6C2528.42 361.713 2528.54 361.87 2528.61 362.05V362.05C2528.65 362.118 2528.67 362.195 2528.67 362.273C2528.66 362.352 2528.64 362.428 2528.6 362.493C2528.56 362.559 2528.5 362.612 2528.43 362.647C2528.36 362.682 2528.28 362.697 2528.2 362.69V362.69Z" fill="white"/>
<path d="M2525.62 365.57H2513.44C2513.25 365.558 2513.07 365.491 2512.91 365.378C2512.76 365.264 2512.64 365.109 2512.57 364.93V364.93C2512.44 364.57 2512.57 364.28 2512.98 364.28H2525.16C2525.35 364.293 2525.54 364.361 2525.69 364.477C2525.85 364.592 2525.96 364.749 2526.03 364.93V364.93C2526.06 364.998 2526.08 365.075 2526.08 365.152C2526.07 365.229 2526.05 365.303 2526.01 365.368C2525.97 365.433 2525.91 365.485 2525.84 365.521C2525.77 365.556 2525.7 365.573 2525.62 365.57V365.57Z" fill="white"/>
<path d="M2523.73 368.76H2515C2514.81 368.748 2514.63 368.681 2514.47 368.568C2514.32 368.454 2514.2 368.299 2514.13 368.12V368.12C2514 367.76 2514.13 367.47 2514.54 367.47H2523.3C2523.49 367.48 2523.68 367.546 2523.83 367.66C2523.99 367.773 2524.11 367.93 2524.18 368.11V368.11C2524.22 368.182 2524.24 368.264 2524.24 368.346C2524.23 368.428 2524.2 368.508 2524.16 368.575C2524.11 368.643 2524.05 368.696 2523.97 368.729C2523.89 368.762 2523.81 368.772 2523.73 368.76V368.76Z" fill="white"/>
<path d="M2530 384.45H2521.24C2521.05 384.439 2520.86 384.372 2520.7 384.256C2520.55 384.141 2520.43 383.982 2520.36 383.8C2520.32 383.731 2520.31 383.653 2520.31 383.576C2520.32 383.498 2520.34 383.423 2520.38 383.358C2520.43 383.293 2520.49 383.24 2520.56 383.205C2520.62 383.171 2520.7 383.155 2520.78 383.16H2529.54C2529.73 383.171 2529.92 383.239 2530.08 383.354C2530.23 383.47 2530.35 383.628 2530.42 383.81C2530.46 383.879 2530.47 383.957 2530.47 384.034C2530.46 384.112 2530.44 384.187 2530.4 384.252C2530.35 384.318 2530.29 384.37 2530.22 384.405C2530.16 384.44 2530.08 384.455 2530 384.45V384.45Z" fill="white"/>
<path d="M2543.28 384.45H2534.51C2534.32 384.437 2534.13 384.369 2533.98 384.253C2533.82 384.138 2533.71 383.981 2533.64 383.8V383.8C2533.6 383.732 2533.58 383.655 2533.58 383.576C2533.59 383.498 2533.61 383.422 2533.65 383.356C2533.69 383.291 2533.75 383.238 2533.82 383.203C2533.89 383.168 2533.97 383.153 2534.05 383.16H2542.81C2543 383.171 2543.19 383.238 2543.35 383.354C2543.5 383.469 2543.62 383.628 2543.69 383.81C2543.72 383.878 2543.74 383.955 2543.74 384.032C2543.73 384.108 2543.71 384.183 2543.67 384.248C2543.63 384.312 2543.57 384.365 2543.5 384.401C2543.43 384.436 2543.36 384.453 2543.28 384.45V384.45Z" fill="white"/>
<path d="M2556.53 384.45H2547.76C2547.57 384.437 2547.38 384.369 2547.23 384.253C2547.07 384.138 2546.96 383.981 2546.89 383.8V383.8C2546.85 383.732 2546.83 383.655 2546.83 383.576C2546.84 383.498 2546.86 383.422 2546.9 383.356C2546.94 383.291 2547 383.238 2547.07 383.203C2547.14 383.168 2547.22 383.153 2547.3 383.16H2556.06C2556.25 383.171 2556.44 383.238 2556.6 383.354C2556.75 383.469 2556.87 383.628 2556.94 383.81C2556.97 383.878 2556.99 383.955 2556.99 384.032C2556.98 384.108 2556.96 384.183 2556.92 384.248C2556.88 384.312 2556.82 384.365 2556.75 384.401C2556.68 384.436 2556.61 384.453 2556.53 384.45V384.45Z" fill="white"/>
<path d="M2569.78 384.45H2561C2560.81 384.437 2560.62 384.369 2560.47 384.253C2560.31 384.138 2560.2 383.981 2560.13 383.8V383.8C2560.1 383.732 2560.08 383.655 2560.08 383.578C2560.09 383.502 2560.11 383.427 2560.15 383.362C2560.19 383.298 2560.25 383.245 2560.32 383.209C2560.39 383.174 2560.46 383.157 2560.54 383.16H2569.31C2569.5 383.173 2569.69 383.241 2569.84 383.357C2570 383.472 2570.11 383.629 2570.18 383.81V383.81C2570.21 383.878 2570.23 383.953 2570.23 384.029C2570.22 384.105 2570.2 384.179 2570.16 384.243C2570.12 384.308 2570.06 384.361 2570 384.397C2569.93 384.433 2569.86 384.451 2569.78 384.45V384.45Z" fill="white"/>
<path d="M2531.15 368.76H2526.32C2526.13 368.748 2525.95 368.681 2525.79 368.567C2525.64 368.454 2525.52 368.299 2525.45 368.12V368.12C2525.41 368.051 2525.39 367.974 2525.4 367.895C2525.4 367.817 2525.42 367.741 2525.46 367.674C2525.51 367.608 2525.56 367.554 2525.63 367.518C2525.7 367.482 2525.78 367.466 2525.86 367.47H2530.69C2530.88 367.482 2531.06 367.549 2531.22 367.662C2531.37 367.776 2531.49 367.931 2531.56 368.11V368.11C2531.6 368.179 2531.62 368.256 2531.61 368.335C2531.61 368.413 2531.59 368.489 2531.55 368.555C2531.5 368.622 2531.45 368.675 2531.38 368.711C2531.31 368.747 2531.23 368.764 2531.15 368.76V368.76Z" fill="white"/>
<path d="M2533.05 388.9H2506.14V462.44H2533.05V388.9Z" fill="white"/>
<path d="M2570.93 388.9H2517.1V462.44H2570.93V388.9Z" fill="#D3D6DE"/>
<path d="M2513.7 144.56L2514.22 139.56C2514.51 136.733 2514.05 133.88 2512.88 131.29L2510.06 125.05L2522.37 126.4L2525.76 131.79C2527.13 133.962 2527.68 136.549 2527.32 139.09L2526.32 145.92L2513.7 144.56Z" fill="#4CC3FF"/>
<path d="M2507.32 173.804L2537.88 177.384L2542.34 139.254L2511.78 135.675L2507.32 173.804Z" fill="#08112B"/>
<path d="M2478.37 170.427L2507.33 173.817L2511.79 135.688L2482.84 132.297L2478.37 170.427Z" fill="#FFBF00"/>
<path d="M2521 163.991C2520.76 166.004 2522.21 167.828 2524.22 168.063C2526.23 168.299 2528.05 166.858 2528.29 164.845L2530.12 149.232C2530.36 147.219 2528.91 145.396 2526.9 145.16C2524.89 144.924 2523.07 146.365 2522.83 148.378L2521 163.991Z" fill="#FFBF00"/>
<path d="M2558.71 127.738C2559.14 126.212 2554.06 123.454 2547.36 121.578C2540.67 119.703 2534.89 119.419 2534.47 120.946C2534.04 122.472 2539.12 125.23 2545.82 127.106C2552.51 128.981 2558.29 129.265 2558.71 127.738Z" fill="#D3D6DE"/>
<path d="M2494.36 105.931C2494.79 104.405 2489.71 101.647 2483.01 99.7717C2476.32 97.896 2470.54 97.6126 2470.11 99.1389C2469.69 100.665 2474.77 103.423 2481.46 105.299C2488.16 107.175 2493.93 107.458 2494.36 105.931Z" fill="#D3D6DE"/>
<path d="M2544.54 107.58C2544.96 106.053 2537.25 102.559 2527.31 99.7741C2517.37 96.9896 2508.97 95.9697 2508.54 97.496C2508.11 99.0223 2515.83 102.517 2525.77 105.301C2535.7 108.086 2544.11 109.106 2544.54 107.58Z" fill="#D3D6DE"/>
<path d="M2482.77 109.63C2485.69 110.852 2488.7 111.855 2491.77 112.63C2502.49 115.37 2512.4 115.21 2517.69 112.63C2518.55 112.231 2519.34 111.697 2520.04 111.05L2526.76 112.42L2521.22 117.87C2525.44 121.82 2532.9 125.6 2541.83 127.87C2542.75 128.11 2543.66 128.32 2544.56 128.51L2541.48 132.39L2520.81 127.2L2520.44 130.57L2495.82 127.88L2496.53 121.41L2479.8 114.69L2480.37 109.53L2482.77 109.63Z" fill="#D3D6DE"/>
<path d="M2523.74 114.74C2525.89 114.74 2527.63 112.998 2527.63 110.85C2527.63 108.702 2525.89 106.96 2523.74 106.96C2521.59 106.96 2519.85 108.702 2519.85 110.85C2519.85 112.998 2521.59 114.74 2523.74 114.74Z" fill="#F6F7F9"/>
<path d="M2523.17 116.073C2522.14 115.961 2521.21 115.446 2520.56 114.642C2519.91 113.837 2519.61 112.809 2519.73 111.784L2519.87 110.432L2527.61 111.276L2527.46 112.658C2527.34 113.683 2526.83 114.623 2526.03 115.269C2525.22 115.915 2524.19 116.215 2523.17 116.103L2523.17 116.073Z" fill="#4CC3FF"/>
<path d="M2479.47 114.27C2481.62 114.27 2483.36 112.528 2483.36 110.38C2483.36 108.232 2481.62 106.49 2479.47 106.49C2477.32 106.49 2475.58 108.232 2475.58 110.38C2475.58 112.528 2477.32 114.27 2479.47 114.27Z" fill="#F6F7F9"/>
<path d="M2477.27 114.939C2476.34 114.487 2475.63 113.685 2475.3 112.71C2474.96 111.735 2475.02 110.666 2475.48 109.738L2476.08 108.488L2483.08 111.895L2482.47 113.145C2482.02 114.072 2481.22 114.782 2480.24 115.119C2479.27 115.455 2478.2 115.39 2477.27 114.939Z" fill="#4CC3FF"/>
<path d="M2542.79 132.86C2544.54 132.86 2545.96 131.441 2545.96 129.69C2545.96 127.939 2544.54 126.52 2542.79 126.52C2541.04 126.52 2539.62 127.939 2539.62 129.69C2539.62 131.441 2541.04 132.86 2542.79 132.86Z" fill="#F6F7F9"/>
<path d="M2542.41 133.795C2541.58 133.717 2540.81 133.309 2540.27 132.661C2539.73 132.014 2539.48 131.18 2539.55 130.343L2539.66 129.218L2545.96 129.81L2545.86 130.935C2545.78 131.77 2545.37 132.54 2544.73 133.077C2544.08 133.613 2543.25 133.871 2542.41 133.795Z" fill="#4CC3FF"/>
<path d="M2522.67 130.589C2522.95 128.107 2516.65 125.385 2508.62 124.508C2500.59 123.631 2493.86 124.932 2493.59 127.413C2493.32 129.895 2499.61 132.618 2507.64 133.494C2515.67 134.371 2522.4 133.07 2522.67 130.589Z" fill="#F6F7F9"/>
<path d="M2511 121.81L2507 125.49C2504.29 128.017 2502.58 131.435 2502.18 135.12L2501.46 141.64L2489.52 141.37L2490.33 133.88C2490.71 130.405 2492.26 127.161 2494.72 124.68L2498.64 120.68L2511 121.81Z" fill="#D3D6DE"/>
<path d="M2507.77 120.09C2507.91 120.104 2508.04 120.075 2508.16 120.007C2508.28 119.939 2508.37 119.835 2508.43 119.71L2509.84 116.3C2509.87 116.224 2509.89 116.141 2509.89 116.057C2509.9 115.973 2509.88 115.89 2509.85 115.812C2509.82 115.735 2509.77 115.664 2509.71 115.606C2509.65 115.547 2509.58 115.501 2509.5 115.47C2509.34 115.407 2509.17 115.407 2509.02 115.47C2508.86 115.534 2508.74 115.656 2508.67 115.81L2507.25 119.22C2507.19 119.377 2507.19 119.552 2507.25 119.707C2507.32 119.863 2507.44 119.986 2507.6 120.05C2507.65 120.074 2507.71 120.087 2507.77 120.09Z" fill="white"/>
<path d="M2505.4 120.08C2505.53 120.095 2505.67 120.066 2505.79 119.998C2505.91 119.929 2506 119.825 2506.05 119.7L2507.47 116.29C2507.5 116.213 2507.52 116.131 2507.52 116.047C2507.52 115.964 2507.51 115.881 2507.47 115.804C2507.44 115.727 2507.4 115.657 2507.34 115.598C2507.28 115.539 2507.21 115.492 2507.13 115.46C2506.97 115.397 2506.8 115.397 2506.65 115.46C2506.49 115.524 2506.37 115.646 2506.3 115.8L2504.88 119.21C2504.82 119.365 2504.82 119.539 2504.88 119.695C2504.94 119.85 2505.07 119.974 2505.22 120.04C2505.28 120.063 2505.34 120.076 2505.4 120.08V120.08Z" fill="white"/>
<path d="M2503.16 120C2503.3 120.017 2503.44 119.987 2503.56 119.917C2503.68 119.846 2503.77 119.739 2503.82 119.61L2505.23 116.21C2505.26 116.133 2505.28 116.051 2505.28 115.967C2505.29 115.883 2505.27 115.8 2505.24 115.722C2505.21 115.645 2505.16 115.574 2505.1 115.516C2505.04 115.457 2504.97 115.411 2504.89 115.38C2504.73 115.317 2504.56 115.317 2504.41 115.38C2504.25 115.444 2504.13 115.566 2504.06 115.72L2502.65 119.13C2502.62 119.207 2502.6 119.289 2502.6 119.373C2502.6 119.456 2502.62 119.539 2502.65 119.616C2502.68 119.693 2502.72 119.763 2502.78 119.823C2502.84 119.882 2502.91 119.928 2502.99 119.96L2503.16 120Z" fill="white"/>
<path d="M2488.96 147.63L2500.77 148.39L2501.55 141.22L2489.74 140.47L2488.96 147.63Z" fill="#F3F4F7"/>
<path d="M2592.08 279V304C2592.1 304.837 2591.8 305.65 2591.24 306.275C2590.69 306.901 2589.91 307.292 2589.08 307.37H2546.66C2545.83 307.29 2545.06 306.898 2544.5 306.273C2543.94 305.648 2543.64 304.836 2543.66 304V279C2543.64 278.151 2543.95 277.327 2544.52 276.699C2545.09 276.07 2545.88 275.684 2546.73 275.62H2589C2589.85 275.679 2590.64 276.063 2591.22 276.693C2591.79 277.322 2592.1 278.149 2592.08 279Z" fill="white"/>
<path d="M2563.88 298.65H2572.38" stroke="#08112B" stroke-miterlimit="10"/>
<path d="M2563.88 301.71H2570.95" stroke="#08112B" stroke-miterlimit="10"/>
<path d="M2563.88 290.15H2572.38" stroke="#08112B" stroke-miterlimit="10"/>
<path d="M2563.88 293.2H2570.95" stroke="#08112B" stroke-miterlimit="10"/>
<path d="M2563.88 281.75H2572.38" stroke="#08112B" stroke-miterlimit="10"/>
<path d="M2563.88 284.81H2570.95" stroke="#08112B" stroke-miterlimit="10"/>
<path d="M2584.99 281.2H2580.26C2579.14 281.2 2578.24 282.104 2578.24 283.22C2578.24 284.336 2579.14 285.24 2580.26 285.24H2584.99C2586.11 285.24 2587.01 284.336 2587.01 283.22C2587.01 282.104 2586.11 281.2 2584.99 281.2Z" fill="#FFBF00"/>
<path d="M2584.99 284.59C2585.71 284.59 2586.3 284.003 2586.3 283.28C2586.3 282.556 2585.71 281.97 2584.99 281.97C2584.27 281.97 2583.68 282.556 2583.68 283.28C2583.68 284.003 2584.27 284.59 2584.99 284.59Z" fill="#18123D"/>
<path d="M2584.99 289.82H2580.26C2579.14 289.82 2578.24 290.724 2578.24 291.84C2578.24 292.956 2579.14 293.86 2580.26 293.86H2584.99C2586.11 293.86 2587.01 292.956 2587.01 291.84C2587.01 290.724 2586.11 289.82 2584.99 289.82Z" fill="#FFBF00"/>
<path d="M2584.99 293.22C2585.71 293.22 2586.3 292.634 2586.3 291.91C2586.3 291.187 2585.71 290.6 2584.99 290.6C2584.27 290.6 2583.68 291.187 2583.68 291.91C2583.68 292.634 2584.27 293.22 2584.99 293.22Z" fill="#18123D"/>
<path d="M2584.99 298.45H2580.26C2579.14 298.45 2578.24 299.354 2578.24 300.47C2578.24 301.586 2579.14 302.49 2580.26 302.49H2584.99C2586.11 302.49 2587.01 301.586 2587.01 300.47C2587.01 299.354 2586.11 298.45 2584.99 298.45Z" fill="#FFBF00"/>
<path d="M2580.3 301.84C2581.02 301.84 2581.61 301.253 2581.61 300.53C2581.61 299.806 2581.02 299.22 2580.3 299.22C2579.58 299.22 2578.99 299.806 2578.99 300.53C2578.99 301.253 2579.58 301.84 2580.3 301.84Z" fill="#18123D"/>
<path d="M1332.46 484.34H537.46V1.25H984.11L1053.62 134.25L1143.53 306.25C1184.73 385.138 1251.28 447.867 1332.46 484.34V484.34Z" fill="#D3D6DE"/>
<path d="M795.54 1.25V484.34H0.540039C77.8306 449.629 141.966 391.066 183.54 317.24C185.54 313.64 187.517 310 189.47 306.32L279.38 134.32L348.89 1.32L795.54 1.25Z" fill="#D3D6DE"/>
<path d="M1237.46 484.34H906.13V291L1071.8 247.66L1220 286.43C1225.02 287.738 1229.46 290.673 1232.62 294.776C1235.79 298.878 1237.51 303.916 1237.51 309.1L1237.46 484.34Z" fill="#D3D6DE"/>
<path d="M1216.79 314.42V465.25H918.79V314.42C918.79 311.988 919.756 309.656 921.476 307.936C923.196 306.216 925.528 305.25 927.96 305.25H1207.63C1208.83 305.25 1210.03 305.487 1211.14 305.948C1212.25 306.409 1213.26 307.085 1214.11 307.936C1214.96 308.788 1215.64 309.799 1216.1 310.912C1216.56 312.024 1216.79 313.216 1216.79 314.42V314.42Z" fill="#08112B"/>
<path d="M1423.13 465.25H922.67C917.753 465.25 913.037 467.203 909.56 470.68C906.083 474.157 904.13 478.873 904.13 483.79V484.34H1526.13L1423.13 465.25Z" fill="white"/>
<path d="M1020.46 305.25H1002.46V465.25H1020.46V305.25Z" fill="white"/>
<path d="M1216.79 314.42V465.25H1110.79V305.25H1207.63C1208.83 305.25 1210.03 305.487 1211.14 305.948C1212.25 306.409 1213.26 307.085 1214.11 307.936C1214.96 308.788 1215.64 309.799 1216.1 310.912C1216.56 312.024 1216.79 313.216 1216.79 314.42V314.42Z" fill="white"/>
<path d="M1149.13 305.25H1110.79V465.25H1149.13V305.25Z" fill="#4CC3FF"/>
<path d="M1024.59 303.25H1008.21V465.25H1024.59V303.25Z" fill="#D3D6DE"/>
<path d="M1144.96 183.5H998.64C996.47 183.5 994.71 185.26 994.71 187.43V224.61C994.71 226.78 996.47 228.54 998.64 228.54H1144.96C1147.13 228.54 1148.89 226.78 1148.89 224.61V187.43C1148.89 185.26 1147.13 183.5 1144.96 183.5Z" fill="#FFBF00"/>
<path d="M1102.89 228.54H1145C1146.04 228.54 1147.04 228.126 1147.78 227.389C1148.52 226.652 1148.93 225.652 1148.93 224.61V187.43C1148.93 186.388 1148.52 185.388 1147.78 184.651C1147.04 183.914 1146.04 183.5 1145 183.5H1079.41L1102.89 228.54Z" fill="white"/>
<path d="M1013.4 210.52C1015.68 210.52 1017.52 208.675 1017.52 206.4C1017.52 204.125 1015.68 202.28 1013.4 202.28C1011.12 202.28 1009.28 204.125 1009.28 206.4C1009.28 208.675 1011.12 210.52 1013.4 210.52Z" fill="white"/>
<path d="M1132 206.53C1131.32 207.257 1130.5 207.841 1129.59 208.246C1128.68 208.652 1127.7 208.872 1126.7 208.892C1125.71 208.913 1124.71 208.734 1123.79 208.366C1122.86 207.998 1122.02 207.449 1121.31 206.75C1119.9 205.296 1119.11 203.348 1119.11 201.32C1119.11 199.292 1119.9 197.344 1121.31 195.89C1121.99 195.161 1122.81 194.576 1123.72 194.167C1124.62 193.759 1125.6 193.536 1126.6 193.512C1127.6 193.488 1128.59 193.662 1129.51 194.026C1130.44 194.39 1131.29 194.935 1132 195.63C1133.43 197.085 1134.23 199.042 1134.23 201.08C1134.23 203.118 1133.43 205.075 1132 206.53V206.53Z" fill="#4CC3FF"/>
<path d="M1115.21 218.33L1110.04 218.75L1110.38 213.46L1123.04 200.27L1127.93 205.13L1115.21 218.33Z" fill="#4CC3FF"/>
<path d="M1130.2 201.85C1129.93 202.136 1129.6 202.365 1129.24 202.524C1128.88 202.683 1128.49 202.769 1128.09 202.778C1127.7 202.786 1127.31 202.716 1126.94 202.573C1126.57 202.429 1126.23 202.214 1125.95 201.94C1125.38 201.362 1125.06 200.585 1125.06 199.775C1125.06 198.965 1125.38 198.188 1125.95 197.61C1126.22 197.324 1126.55 197.094 1126.91 196.934C1127.27 196.774 1127.66 196.687 1128.05 196.677C1128.45 196.668 1128.84 196.737 1129.21 196.88C1129.58 197.023 1129.91 197.237 1130.2 197.51C1130.77 198.09 1131.09 198.869 1131.09 199.68C1131.09 200.491 1130.77 201.271 1130.2 201.85V201.85Z" fill="white"/>
<path d="M1077.85 202.79H1034.82C1032.83 202.79 1031.21 204.404 1031.21 206.395C1031.21 208.386 1032.83 210 1034.82 210H1077.85C1079.84 210 1081.46 208.386 1081.46 206.395C1081.46 204.404 1079.84 202.79 1077.85 202.79Z" fill="white"/>
<path d="M1190.08 382.92H1159.8V427.59H1190.08V382.92Z" fill="#FFBF00"/>
<path d="M1174.94 396C1176.41 396 1177.6 394.67 1177.6 393.03C1177.6 391.39 1176.41 390.06 1174.94 390.06C1173.47 390.06 1172.28 391.39 1172.28 393.03C1172.28 394.67 1173.47 396 1174.94 396Z" fill="white"/>
<path d="M1169.73 417.65H1164.76V422.62H1169.73V417.65Z" fill="#08112B"/>
<path d="M1177.42 417.65H1172.45V422.62H1177.42V417.65Z" fill="#08112B"/>
<path d="M1185.11 417.65H1180.14V422.62H1185.11V417.65Z" fill="#08112B"/>
<path d="M1169.73 410.11H1164.76V415.08H1169.73V410.11Z" fill="#08112B"/>
<path d="M1177.42 410.11H1172.45V415.08H1177.42V410.11Z" fill="#08112B"/>
<path d="M1185.11 410.11H1180.14V415.08H1185.11V410.11Z" fill="#08112B"/>
<path d="M1169.73 402.58H1164.76V407.55H1169.73V402.58Z" fill="#08112B"/>
<path d="M1177.42 402.58H1172.45V407.55H1177.42V402.58Z" fill="#08112B"/>
<path d="M1185.11 402.58H1180.14V407.55H1185.11V402.58Z" fill="#08112B"/>
<path d="M1202 270.49V319.65C1202 321.804 1202.86 323.87 1204.38 325.392C1205.91 326.915 1207.98 327.77 1210.13 327.77H1292.73C1294.89 327.77 1296.95 326.915 1298.48 325.393C1300.01 323.871 1300.87 321.806 1300.88 319.65V270.49C1300.88 269.422 1300.66 268.366 1300.25 267.38C1299.84 266.395 1299.24 265.5 1298.48 264.747C1297.73 263.994 1296.83 263.397 1295.84 262.991C1294.86 262.585 1293.8 262.377 1292.73 262.38H1210.13C1209.06 262.379 1208.01 262.587 1207.02 262.994C1206.04 263.401 1205.14 263.998 1204.39 264.751C1203.63 265.504 1203.03 266.399 1202.62 267.383C1202.21 268.368 1202 269.424 1202 270.49Z" fill="#4CC3FF"/>
<path d="M1212.83 327.77H1185.96L1202.17 306.31L1212.83 327.77Z" fill="#4CC3FF"/>
<path d="M1275.21 290.95C1279.99 290.95 1283.87 287.073 1283.87 282.29C1283.87 277.507 1279.99 273.63 1275.21 273.63C1270.43 273.63 1266.55 277.507 1266.55 282.29C1266.55 287.073 1270.43 290.95 1275.21 290.95Z" fill="#FFBF00"/>
<path d="M1274.6 285.67L1271.71 282.78L1272.9 281.59L1274.6 283.29L1278.39 279.5L1279.58 280.69L1274.6 285.67Z" fill="white"/>
<path d="M1259.09 281.44H1245.49C1244.86 281.44 1244.35 281.95 1244.35 282.58C1244.35 283.21 1244.86 283.72 1245.49 283.72H1259.09C1259.72 283.72 1260.23 283.21 1260.23 282.58C1260.23 281.95 1259.72 281.44 1259.09 281.44Z" fill="#08112B"/>
<path d="M1227.7 292.4C1233.19 292.4 1237.64 287.95 1237.64 282.46C1237.64 276.97 1233.19 272.52 1227.7 272.52C1222.21 272.52 1217.76 276.97 1217.76 282.46C1217.76 287.95 1222.21 292.4 1227.7 292.4Z" fill="white"/>
<path d="M1232.7 287.28C1232.7 285.954 1232.17 284.682 1231.24 283.745C1230.3 282.807 1229.03 282.28 1227.7 282.28C1226.37 282.28 1225.1 282.807 1224.16 283.745C1223.23 284.682 1222.7 285.954 1222.7 287.28H1232.7Z" fill="#08112B"/>
<path d="M1227.7 281.23C1228.69 281.23 1229.49 280.429 1229.49 279.44C1229.49 278.451 1228.69 277.65 1227.7 277.65C1226.71 277.65 1225.91 278.451 1225.91 279.44C1225.91 280.429 1226.71 281.23 1227.7 281.23Z" fill="#08112B"/>
<path d="M1275.21 316.17C1279.99 316.17 1283.87 312.293 1283.87 307.51C1283.87 302.727 1279.99 298.85 1275.21 298.85C1270.43 298.85 1266.55 302.727 1266.55 307.51C1266.55 312.293 1270.43 316.17 1275.21 316.17Z" fill="white"/>
<path d="M1259.09 306.67H1245.49C1244.86 306.67 1244.35 307.18 1244.35 307.81C1244.35 308.44 1244.86 308.95 1245.49 308.95H1259.09C1259.72 308.95 1260.23 308.44 1260.23 307.81C1260.23 307.18 1259.72 306.67 1259.09 306.67Z" fill="#08112B"/>
<path d="M1227.7 317.63C1233.19 317.63 1237.64 313.18 1237.64 307.69C1237.64 302.2 1233.19 297.75 1227.7 297.75C1222.21 297.75 1217.76 302.2 1217.76 307.69C1217.76 313.18 1222.21 317.63 1227.7 317.63Z" fill="white"/>
<path d="M1232.7 312.51C1232.7 311.184 1232.17 309.912 1231.24 308.974C1230.3 308.037 1229.03 307.51 1227.7 307.51C1226.37 307.51 1225.1 308.037 1224.16 308.974C1223.23 309.912 1222.7 311.184 1222.7 312.51H1232.7Z" fill="#08112B"/>
<path d="M1227.7 306.45C1228.69 306.45 1229.49 305.649 1229.49 304.66C1229.49 303.672 1228.69 302.87 1227.7 302.87C1226.71 302.87 1225.91 303.672 1225.91 304.66C1225.91 305.649 1226.71 306.45 1227.7 306.45Z" fill="#08112B"/>
<path d="M1277.69 306.11V305.06C1277.69 304.612 1277.51 304.182 1277.2 303.865C1276.88 303.548 1276.45 303.37 1276 303.37H1274.42C1273.97 303.37 1273.54 303.548 1273.22 303.865C1272.91 304.182 1272.73 304.612 1272.73 305.06V306.11C1272.6 306.11 1272.48 306.159 1272.39 306.247C1272.3 306.335 1272.25 306.455 1272.25 306.58V310.58C1272.25 310.707 1272.3 310.827 1272.39 310.917C1272.48 311.006 1272.6 311.058 1272.73 311.06H1277.73C1277.86 311.058 1277.98 311.006 1278.06 310.916C1278.15 310.826 1278.2 310.706 1278.2 310.58V306.58C1278.2 306.515 1278.18 306.451 1278.16 306.392C1278.13 306.333 1278.09 306.28 1278.05 306.236C1278 306.192 1277.94 306.158 1277.88 306.137C1277.82 306.115 1277.75 306.106 1277.69 306.11V306.11ZM1276.69 306.11H1273.62V305.06C1273.62 304.862 1273.7 304.673 1273.84 304.533C1273.98 304.393 1274.17 304.313 1274.37 304.31H1276C1276.2 304.313 1276.39 304.393 1276.52 304.533C1276.66 304.674 1276.74 304.863 1276.74 305.06L1276.69 306.11Z" fill="#08112B"/>
<path d="M1508.75 447.25C1508.16 450.469 1507.16 453.596 1505.75 456.55L1434.75 443.45C1434.35 438.161 1435.08 432.846 1436.89 427.861C1438.7 422.875 1441.56 418.333 1445.26 414.537C1448.97 410.74 1453.44 407.776 1458.38 405.842C1463.32 403.909 1468.61 403.049 1473.91 403.321C1479.21 403.593 1484.38 404.991 1489.1 407.42C1493.82 409.85 1497.96 413.256 1501.26 417.412C1504.55 421.568 1506.93 426.379 1508.22 431.524C1509.51 436.668 1509.69 442.03 1508.75 447.25V447.25Z" fill="white"/>
<path d="M1447.95 452.851L1478.3 458.455L1483.41 430.793L1453.05 425.188L1447.95 452.851Z" fill="#FFBF00"/>
<path d="M1461.34 450.617C1461.08 452.067 1462.03 453.459 1463.48 453.726C1464.93 453.993 1466.32 453.034 1466.59 451.584L1469.52 435.703C1469.79 434.253 1468.83 432.86 1467.38 432.593C1465.93 432.326 1464.54 433.285 1464.28 434.735L1461.34 450.617Z" fill="#08112B"/>
<path d="M1495.24 432.733L1483.51 430.567L1478.39 458.289L1490.13 460.455L1495.24 432.733Z" fill="#08112B"/>
<path d="M1513 463.57L1486.84 458.73L1488.13 451.73L1502.59 454.4C1505.41 454.928 1507.92 456.526 1509.59 458.86L1513 463.57Z" fill="#4CC3FF"/>
<path d="M1489 451.89L1439.26 442.7C1438.07 442.479 1436.84 442.572 1435.69 442.97C1434.54 443.368 1433.52 444.057 1432.72 444.97L1425.78 452.9L1497.95 466.22L1494.29 456.34C1493.87 455.204 1493.16 454.197 1492.23 453.417C1491.31 452.636 1490.19 452.111 1489 451.89V451.89Z" fill="#4CC3FF"/>
<path d="M1517.76 474.42C1517.25 477.167 1515.67 479.6 1513.37 481.184C1511.07 482.769 1508.24 483.375 1505.49 482.87L1441.72 471.09C1440.36 470.839 1439.06 470.322 1437.9 469.569C1436.74 468.816 1435.74 467.843 1434.96 466.703C1434.18 465.564 1433.62 464.281 1433.34 462.929C1433.05 461.576 1433.03 460.18 1433.28 458.82C1433.56 457.261 1434.19 455.787 1435.13 454.51L1435.36 454.21C1437.05 452.08 1439.49 450.68 1442.18 450.3V450.3C1443.3 450.139 1444.43 450.163 1445.54 450.37L1509.31 462.15C1512.05 462.663 1514.48 464.242 1516.06 466.542C1517.65 468.841 1518.25 471.674 1517.75 474.42H1517.76Z" fill="white"/>
<path d="M1499.15 465.86L1495.32 486.61L1497.5 486.02L1506.11 483.71L1508.75 483L1509.06 482.92L1511.19 482.34H1511.2L1510.2 480.97L1509.37 479.82L1499.15 465.86Z" fill="white"/>
<path d="M1442.22 450.22L1442.19 450.3L1441.96 450.79L1441.41 451.99L1440.05 454.94L1435.37 454.21H1435.36L1424.59 452.53L1436.14 451.02L1440.27 450.48L1442.22 450.22Z" fill="#FFBF00"/>
<path d="M1513 463.57L1497.18 466.08L1435.18 454.51L1435.41 454.21L1424.64 452.53L1436.19 451.02L1440.32 450.48L1442.32 450.22V450.3C1443.44 450.139 1444.57 450.163 1445.68 450.37L1509.45 462.15C1510.71 462.404 1511.91 462.885 1513 463.57V463.57Z" fill="#4CC3FF"/>
<path d="M1423.6 474.711L1490.07 486.981C1496.13 488.1 1501.95 484.094 1503.07 478.033C1504.19 471.972 1500.18 466.151 1494.12 465.032L1427.66 452.761C1421.6 451.643 1415.77 455.649 1414.66 461.71C1413.54 467.771 1417.54 473.592 1423.6 474.711Z" fill="#08112B"/>
<path d="M1417.93 462.18V462.23C1417.73 463.339 1417.74 464.478 1417.98 465.581C1418.21 466.684 1418.66 467.73 1419.3 468.658C1419.94 469.587 1420.76 470.381 1421.71 470.994C1422.65 471.606 1423.71 472.027 1424.82 472.23L1489.59 484.23C1490.7 484.437 1491.84 484.423 1492.94 484.189C1494.04 483.956 1495.09 483.507 1496.02 482.869C1496.94 482.231 1497.74 481.416 1498.35 480.471C1498.96 479.525 1499.39 478.468 1499.59 477.36V477.31C1499.8 476.201 1499.78 475.064 1499.55 473.961C1499.31 472.858 1498.86 471.813 1498.22 470.884C1497.58 469.956 1496.77 469.162 1495.82 468.549C1494.88 467.935 1493.82 467.514 1492.71 467.31L1427.93 455.31C1425.69 454.898 1423.38 455.39 1421.51 456.678C1419.64 457.965 1418.35 459.944 1417.93 462.18Z" fill="#F3F4F7"/>
<path d="M1491.73 484.52C1496.52 484.52 1500.41 480.634 1500.41 475.84C1500.41 471.046 1496.52 467.16 1491.73 467.16C1486.94 467.16 1483.05 471.046 1483.05 475.84C1483.05 480.634 1486.94 484.52 1491.73 484.52Z" fill="#D3D6DE"/>
<path d="M1425.68 472.32C1430.47 472.32 1434.36 468.434 1434.36 463.64C1434.36 458.846 1430.47 454.96 1425.68 454.96C1420.89 454.96 1417 458.846 1417 463.64C1417 468.434 1420.89 472.32 1425.68 472.32Z" fill="#D3D6DE"/>
<path d="M1433.28 458.82C1433.02 460.185 1433.03 461.588 1433.31 462.949C1433.59 464.309 1434.14 465.601 1434.92 466.749C1435.71 467.896 1436.71 468.878 1437.88 469.636C1439.04 470.394 1440.34 470.914 1441.71 471.166C1443.08 471.418 1444.48 471.397 1445.84 471.105C1447.2 470.812 1448.48 470.253 1449.63 469.46C1450.77 468.668 1451.74 467.657 1452.49 466.486C1453.24 465.316 1453.75 464.009 1453.99 462.64C1454.15 461.793 1454.2 460.93 1454.15 460.07L1434.05 456.36C1433.69 457.145 1433.43 457.971 1433.28 458.82V458.82Z" fill="#D3D6DE"/>
<path d="M1507 477.49C1506.54 479.962 1505.29 482.219 1503.45 483.93C1503.19 484.16 1502.92 484.39 1502.64 484.6L1505.27 483.89C1505.8 483.269 1506.28 482.599 1506.69 481.89C1507.44 480.606 1507.96 479.202 1508.22 477.74C1508.66 475.388 1508.43 472.962 1507.57 470.732C1506.7 468.501 1505.24 466.555 1503.33 465.11L1501.51 465.42C1503.54 466.634 1505.16 468.44 1506.14 470.597C1507.12 472.754 1507.42 475.158 1507 477.49Z" fill="#F3F4F7"/>
<path d="M1513.35 476.22C1513.17 477.265 1512.83 478.276 1512.35 479.22C1511.76 480.347 1510.98 481.362 1510.04 482.22C1509.8 482.44 1509.54 482.65 1509.28 482.85L1511.76 482.18C1512.26 481.599 1512.71 480.973 1513.1 480.31C1513.81 479.102 1514.29 477.778 1514.54 476.4C1514.97 474.053 1514.71 471.631 1513.77 469.434C1512.84 467.237 1511.29 465.361 1509.3 464.04L1507.75 464.31C1509.79 465.483 1511.42 467.254 1512.42 469.384C1513.43 471.514 1513.75 473.9 1513.35 476.22V476.22Z" fill="#F3F4F7"/>
<path d="M1423.59 472.06L1432.19 473.66L1446.84 470.69L1448.98 459.12L1427.67 455.18L1423.59 472.06Z" fill="#D3D6DE"/>
<path d="M2030.49 466V488.17H2013.74C2013.48 488.17 2013.22 488.17 2012.96 488.17C2010.37 487.989 2007.92 486.901 2006.04 485.096C2004.17 483.292 2002.99 480.886 2002.72 478.3C2002.44 475.714 2003.08 473.113 2004.53 470.952C2005.97 468.791 2008.13 467.208 2010.63 466.48V466.48C2011.54 466.214 2012.47 466.069 2013.42 466.05H2030.48L2030.49 466Z" fill="white"/>
<path d="M2018.32 484.9C2016.96 483.535 2015.98 481.84 2015.47 479.981C2014.96 478.122 2014.94 476.162 2015.42 474.295C2015.9 472.427 2016.85 470.716 2018.19 469.328C2019.53 467.941 2021.2 466.925 2023.05 466.38L2023.26 466.32C2024.08 466.097 2024.91 465.973 2025.76 465.95H2019.21C2017.34 467.133 2015.79 468.77 2014.72 470.708C2013.65 472.647 2013.08 474.824 2013.07 477.04C2013.07 478.762 2013.4 480.468 2014.06 482.059C2014.72 483.65 2015.69 485.095 2016.91 486.31C2017.6 486.995 2018.37 487.602 2019.2 488.12H2025.39C2022.72 487.925 2020.22 486.783 2018.32 484.9V484.9ZM2010.32 484.9C2008.96 483.535 2007.98 481.84 2007.47 479.981C2006.96 478.122 2006.94 476.162 2007.42 474.295C2007.9 472.427 2008.85 470.716 2010.19 469.328C2011.53 467.941 2013.2 466.925 2015.05 466.38L2015.25 466.32C2016.07 466.098 2016.91 465.973 2017.76 465.95H2013.39C2012.45 465.969 2011.51 466.114 2010.6 466.38V466.38H2010.52C2008.98 467.489 2007.7 468.919 2006.77 470.571C2005.84 472.223 2005.28 474.058 2005.12 475.948C2004.97 477.839 2005.23 479.74 2005.88 481.52C2006.54 483.3 2007.57 484.918 2008.91 486.26C2009.4 486.746 2009.92 487.191 2010.48 487.59C2011.28 487.833 2012.1 487.984 2012.93 488.04C2013.19 488.04 2013.45 488.04 2013.71 488.04H2017.39C2014.75 487.862 2012.26 486.749 2010.36 484.9H2010.32Z" fill="#F3F4F7"/>
<path d="M2031.96 466.44H2010.63L2012.93 461.37L2031.96 460.92V466.44Z" fill="#4CC3FF"/>
<path d="M2094.42 446.05C2094.41 449.324 2093.96 452.583 2093.09 455.74L2020.94 455.34C2019.59 450.198 2019.36 444.828 2020.25 439.589C2021.15 434.349 2023.15 429.361 2026.13 424.957C2029.1 420.554 2032.99 416.836 2037.51 414.053C2042.04 411.27 2047.11 409.485 2052.39 408.818C2057.66 408.152 2063.01 408.618 2068.09 410.187C2073.17 411.755 2077.86 414.39 2081.84 417.914C2085.81 421.438 2089 425.771 2091.17 430.623C2093.34 435.475 2094.45 440.735 2094.42 446.05V446.05Z" fill="white"/>
<path d="M2080.09 434.067L2049.22 434.239L2049.38 462.369L2080.25 462.196L2080.09 434.067Z" fill="#08112B"/>
<path d="M2067.36 441.498C2067.35 440.023 2066.15 438.835 2064.68 438.843C2063.21 438.851 2062.02 440.053 2062.03 441.528L2062.12 457.677C2062.13 459.152 2063.33 460.341 2064.8 460.332C2066.27 460.324 2067.46 459.122 2067.45 457.648L2067.36 441.498Z" fill="#FFBF00"/>
<path d="M2037.46 462.411L2049.39 462.344L2049.23 434.155L2037.3 434.221L2037.46 462.411Z" fill="#F3F4F7"/>
<path d="M2012.93 461.37L2039.54 461.22V454.09L2024.83 454.17C2021.96 454.191 2019.2 455.319 2017.14 457.32L2012.93 461.37Z" fill="#4CC3FF"/>
<path d="M2038.6 454.1L2089.18 453.81C2090.39 453.81 2091.57 454.122 2092.63 454.716C2093.68 455.31 2094.56 456.165 2095.18 457.2L2100.62 466.2L2027.23 466.61L2032.57 457.53C2033.19 456.484 2034.07 455.617 2035.13 455.016C2036.19 454.414 2037.38 454.099 2038.6 454.1V454.1Z" fill="#4CC3FF"/>
<path d="M2030.99 488.017L2098.58 488.395C2104.74 488.429 2109.76 483.461 2109.8 477.297C2109.83 471.134 2104.86 466.11 2098.7 466.075L2031.11 465.698C2024.95 465.663 2019.92 470.632 2019.89 476.795C2019.86 482.959 2024.82 487.983 2030.99 488.017Z" fill="#08112B"/>
<path d="M2106.21 477.21C2106.2 479.086 2105.58 480.907 2104.44 482.394C2103.29 483.881 2101.69 484.951 2099.88 485.44C2099.13 485.646 2098.36 485.747 2097.58 485.74H2090.58L2031.67 485.41C2030.54 485.406 2029.43 485.18 2028.39 484.744C2027.35 484.309 2026.41 483.672 2025.62 482.871C2024.82 482.07 2024.2 481.121 2023.77 480.077C2023.35 479.034 2023.13 477.917 2023.14 476.79V476.74C2023.15 475.613 2023.37 474.499 2023.81 473.46C2024.25 472.422 2024.89 471.48 2025.69 470.688C2026.49 469.896 2027.44 469.269 2028.48 468.844C2029.53 468.419 2030.64 468.204 2031.77 468.21L2077.29 468.47H2084.18L2097.64 468.55H2098.13C2100.3 468.716 2102.33 469.696 2103.82 471.294C2105.3 472.892 2106.13 474.99 2106.13 477.17L2106.21 477.21Z" fill="white"/>
<path d="M2098.23 485.87C2103.02 485.87 2106.91 481.984 2106.91 477.19C2106.91 472.396 2103.02 468.51 2098.23 468.51C2093.44 468.51 2089.55 472.396 2089.55 477.19C2089.55 481.984 2093.44 485.87 2098.23 485.87Z" fill="#D3D6DE"/>
<path d="M2031.06 485.49C2035.85 485.49 2039.74 481.604 2039.74 476.81C2039.74 472.016 2035.85 468.13 2031.06 468.13C2026.27 468.13 2022.38 472.016 2022.38 476.81C2022.38 481.604 2026.27 485.49 2031.06 485.49Z" fill="#D3D6DE"/>
<path d="M2085.44 468.51H2099V485.72H2085.46C2083.18 485.72 2080.99 484.814 2079.38 483.201C2077.77 481.588 2076.86 479.401 2076.86 477.12V477.12C2076.86 474.839 2077.77 472.652 2079.38 471.039C2080.99 469.426 2083.18 468.52 2085.46 468.52L2085.44 468.51Z" fill="#D3D6DE"/>
<path d="M2300.23 479.79C2345.1 479.79 2381.48 443.413 2381.48 398.54C2381.48 353.667 2345.1 317.29 2300.23 317.29C2255.36 317.29 2218.98 353.667 2218.98 398.54C2218.98 443.413 2255.36 479.79 2300.23 479.79Z" fill="white"/>
<path d="M2235.83 372.12H2286C2287.8 372.121 2289.57 372.635 2291.1 373.602C2292.62 374.568 2293.84 375.948 2294.61 377.58L2310.84 412H2250.09L2233.22 376.28C2233 375.838 2232.9 375.349 2232.93 374.858C2232.96 374.367 2233.11 373.89 2233.37 373.474C2233.63 373.057 2233.99 372.715 2234.42 372.478C2234.85 372.241 2235.34 372.118 2235.83 372.12V372.12Z" fill="#FFBF00"/>
<path d="M2362 394.87C2363.3 394.87 2364.54 395.385 2365.46 396.302C2366.37 397.219 2366.89 398.463 2366.89 399.76V410.87H2350.14L2357.74 397.37C2358.17 396.614 2358.78 395.985 2359.53 395.545C2360.28 395.106 2361.13 394.873 2362 394.87V394.87Z" fill="#08112B"/>
<path d="M2312 413C2313.37 413.469 2314.59 414.274 2315.57 415.34L2313.34 418.7L2310.43 417.35L2312 413Z" fill="#FFBF00"/>
<path d="M2311.36 417.58C2312.64 417.58 2313.68 416.541 2313.68 415.26C2313.68 413.979 2312.64 412.94 2311.36 412.94C2310.08 412.94 2309.04 413.979 2309.04 415.26C2309.04 416.541 2310.08 417.58 2311.36 417.58Z" fill="#FFBF00"/>
<path d="M2314.17 418.91C2315.3 418.91 2316.22 417.992 2316.22 416.86C2316.22 415.728 2315.3 414.81 2314.17 414.81C2313.04 414.81 2312.12 415.728 2312.12 416.86C2312.12 417.992 2313.04 418.91 2314.17 418.91Z" fill="#FFBF00"/>
<path d="M2311.52 413C2311.92 413 2312.25 412.673 2312.25 412.27C2312.25 411.867 2311.92 411.54 2311.52 411.54C2311.12 411.54 2310.79 411.867 2310.79 412.27C2310.79 412.673 2311.12 413 2311.52 413Z" fill="#FFBF00"/>
<path d="M2311.94 411.66C2313.27 412.467 2314.35 413.617 2315.08 414.99L2313.08 415.65C2313.08 415.65 2312.94 414.48 2311.08 412.85L2311.94 411.66Z" fill="#FFBF00"/>
<path d="M2308.21 413.73C2308.77 413.73 2309.23 413.273 2309.23 412.71C2309.23 412.147 2308.77 411.69 2308.21 411.69C2307.65 411.69 2307.19 412.147 2307.19 412.71C2307.19 413.273 2307.65 413.73 2308.21 413.73Z" fill="#FFBF00"/>
<path d="M2309.18 412.37C2309.79 412.821 2310.54 413.041 2311.29 412.99L2309.69 416.86C2308.53 415.76 2307.68 414.384 2307.2 412.86L2309.18 412.37Z" fill="#FFBF00"/>
<path d="M2330.82 400.38C2330.5 400.68 2329.55 400.38 2329.55 400.38C2328.64 401.323 2327.8 402.325 2327.02 403.38C2326.02 404.72 2325.21 406.07 2324.43 407.38C2323.65 408.69 2322.91 410.11 2322.22 411.5L2321.22 413.61C2320.88 414.36 2320.61 414.95 2320.22 416.02L2323.1 413.79C2322.47 413.973 2321.84 414.123 2321.2 414.24C2320.5 414.36 2319.77 414.51 2319.03 414.59C2317.53 414.756 2316.01 414.796 2314.5 414.71H2314.41C2314.03 414.684 2313.65 414.787 2313.33 415.003C2313.01 415.22 2312.78 415.536 2312.66 415.902C2312.55 416.267 2312.56 416.661 2312.69 417.02C2312.83 417.379 2313.08 417.682 2313.41 417.88C2314.99 418.798 2316.66 419.526 2318.41 420.05C2319.29 420.336 2320.18 420.559 2321.09 420.72C2322.06 420.912 2323.05 420.999 2324.04 420.98C2324.64 420.958 2325.22 420.764 2325.71 420.419C2326.2 420.075 2326.58 419.596 2326.81 419.04L2326.93 418.75L2327.93 417.25L2329.1 415.55C2329.9 414.42 2330.74 413.32 2331.6 412.25C2332.43 411.205 2333.32 410.204 2334.26 409.25C2335.07 408.396 2335.97 407.623 2336.93 406.94C2337.48 406.574 2337.96 406.102 2338.33 405.55C2338.7 404.999 2338.96 404.379 2339.08 403.727C2339.21 403.076 2339.21 402.405 2339.07 401.755C2338.94 401.105 2338.68 400.488 2338.3 399.94C2336.76 397.64 2334.05 397.94 2331.74 399.51C2331.5 399.668 2331.28 399.849 2331.07 400.05L2330.82 400.38Z" fill="#D3D6DE"/>
<path d="M2323.61 436.83L2346.96 442.78L2351.21 418.49C2351.68 412.69 2353.48 408.71 2352.98 405.49C2352.63 403.3 2350.71 401.49 2348.52 399.65C2348.36 399.5 2348.19 399.37 2348.01 399.23L2345.54 397.33L2338.87 397.19C2337.15 397.145 2335.44 397.487 2333.87 398.19V398.19L2329.52 400.39C2329.52 400.39 2327.17 406.39 2327.18 410.55L2323.61 436.83Z" fill="#08112B"/>
<path d="M2341.4 397.47C2345.07 397.47 2348.04 394.497 2348.04 390.83C2348.04 387.163 2345.07 384.19 2341.4 384.19C2337.73 384.19 2334.76 387.163 2334.76 390.83C2334.76 394.497 2337.73 397.47 2341.4 397.47Z" fill="#FFBF00"/>
<path d="M2345.85 395.76L2345.14 391.63C2345 390.857 2344.59 390.158 2343.99 389.661C2343.38 389.164 2342.61 388.901 2341.83 388.92V388.92C2340.82 388.955 2339.8 388.823 2338.83 388.53L2335.91 387.65C2335.35 387.483 2334.87 387.124 2334.55 386.638C2334.23 386.152 2334.09 385.568 2334.16 384.99V384.99C2334.22 384.493 2334.42 384.025 2334.75 383.648C2335.08 383.271 2335.52 383.003 2336 382.88C2338.24 382.264 2340.56 381.971 2342.88 382.01C2343.99 382.053 2345.07 382.361 2346.04 382.909C2347 383.457 2347.82 384.229 2348.43 385.16V385.22C2349.04 386.134 2349.43 387.176 2349.57 388.266C2349.71 389.356 2349.59 390.463 2349.23 391.5L2348.23 394.38C2348.06 394.868 2347.72 395.277 2347.27 395.531C2346.82 395.785 2346.3 395.866 2345.79 395.76H2345.85Z" fill="#08112B"/>
<path d="M2346.58 392.658C2347.24 391.472 2347.13 390.15 2346.34 389.705C2345.54 389.26 2344.36 389.861 2343.7 391.047C2343.04 392.232 2343.14 393.554 2343.94 393.999C2344.73 394.444 2345.92 393.843 2346.58 392.658Z" fill="#FFBF00"/>
<path d="M2333.9 398.22C2334.21 399.781 2335 401.207 2336.16 402.299C2337.32 403.391 2338.79 404.095 2340.37 404.315C2341.95 404.535 2343.55 404.259 2344.97 403.525C2346.38 402.791 2347.53 401.636 2348.26 400.22L2348.01 399.22L2345.54 397.32L2338.87 397.18C2337.15 397.135 2335.44 397.477 2333.87 398.18L2333.9 398.22Z" fill="#08112B"/>
<path d="M2346.48 377.917C2348.71 378.993 2350.43 380.914 2351.25 383.256C2352.07 385.599 2351.93 388.172 2350.85 390.409L2350.51 391.13L2333.64 383.018L2333.98 382.297C2335.06 380.06 2336.98 378.341 2339.32 377.52C2341.67 376.699 2344.24 376.842 2346.48 377.917Z" fill="#4CC3FF"/>
<path d="M2326.47 414C2327.71 414.732 2328.74 415.764 2329.47 417L2326.58 419.81L2324.02 417.87L2326.47 414Z" fill="#FFBF00"/>
<path d="M2325.37 418.38C2326.65 418.38 2327.69 417.341 2327.69 416.06C2327.69 414.779 2326.65 413.74 2325.37 413.74C2324.09 413.74 2323.05 414.779 2323.05 416.06C2323.05 417.341 2324.09 418.38 2325.37 418.38Z" fill="#FFBF00"/>
<path d="M2327.77 420.27C2328.9 420.27 2329.82 419.352 2329.82 418.22C2329.82 417.088 2328.9 416.17 2327.77 416.17C2326.64 416.17 2325.72 417.088 2325.72 418.22C2325.72 419.352 2326.64 420.27 2327.77 420.27Z" fill="#FFBF00"/>
<path d="M2326.15 413.9C2326.55 413.9 2326.88 413.573 2326.88 413.17C2326.88 412.767 2326.55 412.44 2326.15 412.44C2325.75 412.44 2325.42 412.767 2325.42 413.17C2325.42 413.573 2325.75 413.9 2326.15 413.9Z" fill="#FFBF00"/>
<path d="M2326.69 412.67C2327.82 413.738 2328.63 415.088 2329.06 416.58L2326.93 416.81C2326.93 416.81 2327.05 415.63 2325.6 413.65L2326.69 412.67Z" fill="#FFBF00"/>
<path d="M2322.82 413.92C2323.38 413.92 2323.84 413.463 2323.84 412.9C2323.84 412.337 2323.38 411.88 2322.82 411.88C2322.26 411.88 2321.8 412.337 2321.8 412.9C2321.8 413.463 2322.26 413.92 2322.82 413.92Z" fill="#FFBF00"/>
<path d="M2323.85 412.78C2324.35 413.346 2325.03 413.718 2325.77 413.83L2323.39 417.27C2322.5 415.958 2321.95 414.441 2321.8 412.86L2323.85 412.78Z" fill="#FFBF00"/>
<path d="M2344.93 406.23C2344.38 409.237 2343.6 412.196 2342.59 415.08C2341.59 417.95 2340.3 420.81 2338.95 423.82L2343.71 421.1C2343.71 421.16 2343.37 421.1 2343.17 421.16H2342.39C2341.85 421.16 2341.29 421.07 2340.72 420.99C2339.56 420.828 2338.41 420.601 2337.27 420.31C2334.88 419.695 2332.54 418.889 2330.27 417.9V417.9C2329.85 417.754 2329.39 417.753 2328.97 417.897C2328.55 418.04 2328.19 418.319 2327.94 418.691C2327.7 419.063 2327.59 419.506 2327.62 419.949C2327.66 420.393 2327.84 420.812 2328.14 421.14C2330.13 423.008 2332.26 424.713 2334.52 426.24C2335.69 427.029 2336.91 427.757 2338.16 428.42C2338.81 428.76 2339.46 429.08 2340.16 429.42C2340.5 429.58 2340.87 429.72 2341.24 429.86C2341.68 430.027 2342.12 430.164 2342.58 430.27C2343.51 430.476 2344.47 430.35 2345.32 429.915C2346.16 429.48 2346.82 428.764 2347.19 427.89L2347.34 427.55C2348.61 424.55 2349.95 421.39 2351.05 418.03C2352.14 414.694 2352.97 411.276 2353.52 407.81C2353.72 406.668 2353.46 405.493 2352.8 404.543C2352.13 403.593 2351.12 402.947 2349.97 402.745C2348.83 402.543 2347.66 402.804 2346.71 403.469C2345.76 404.133 2345.11 405.148 2344.91 406.29L2344.93 406.23Z" fill="#D3D6DE"/>
<path d="M2345.79 395.43H2337.56V398.43H2345.79V395.43Z" fill="#FFBF00"/>
<path d="M2322.03 434.46H2206.39C2191.82 434.46 2180.01 446.271 2180.01 460.84C2180.01 475.409 2191.82 487.22 2206.39 487.22H2322.03C2336.6 487.22 2348.41 475.409 2348.41 460.84C2348.41 446.271 2336.6 434.46 2322.03 434.46Z" fill="white"/>
<path d="M2322 434.45H2208.74C2203.2 436.6 2198.45 440.371 2195.09 445.271C2191.73 450.171 2189.93 455.971 2189.93 461.91V464.16C2189.93 468.398 2190.84 472.587 2192.61 476.438C2194.38 480.289 2196.96 483.712 2200.18 486.47C2202.21 486.966 2204.3 487.215 2206.39 487.21H2208.6C2204.23 485.161 2200.52 481.911 2197.93 477.839C2195.33 473.766 2193.94 469.04 2193.93 464.21V461.96C2193.94 455.21 2196.62 448.739 2201.4 443.966C2206.17 439.193 2212.64 436.508 2219.39 436.5H2332.11C2328.91 435.153 2325.47 434.456 2322 434.45V434.45Z" fill="#F3F4F7"/>
<path d="M2238.36 436.45H2332.11C2328.92 435.124 2325.49 434.444 2322.03 434.45H2227.71C2222.18 436.609 2217.43 440.383 2214.07 445.281C2210.72 450.179 2208.92 455.973 2208.9 461.91V464.16C2208.91 468.586 2209.91 472.953 2211.84 476.936C2213.77 480.918 2216.58 484.413 2220.05 487.16H2227.57C2223.2 485.111 2219.5 481.861 2216.9 477.789C2214.3 473.716 2212.91 468.99 2212.9 464.16V461.91C2212.91 455.16 2215.59 448.689 2220.37 443.916C2225.14 439.143 2231.61 436.458 2238.36 436.45V436.45Z" fill="#F3F4F7"/>
<path d="M2371.78 434.46H2256.14C2241.57 434.46 2229.76 446.271 2229.76 460.84C2229.76 475.409 2241.57 487.22 2256.14 487.22H2371.78C2386.35 487.22 2398.16 475.409 2398.16 460.84C2398.16 446.271 2386.35 434.46 2371.78 434.46Z" fill="#4CC3FF"/>
<path d="M2241.69 438.77L2253.69 422.64C2256.4 418.99 2259.93 416.024 2263.99 413.981C2268.06 411.937 2272.54 410.872 2277.09 410.87H2375.73C2377.73 410.862 2379.67 411.519 2381.25 412.735C2382.83 413.952 2383.96 415.659 2384.47 417.59L2391.25 443.04L2375.43 437.87H2250.18L2241.69 438.77Z" fill="#4CC3FF"/>
<path d="M2192.57 438.77L2204.57 422.64C2207.29 418.988 2210.82 416.021 2214.89 413.977C2218.96 411.934 2223.45 410.87 2228 410.87H2326.64C2328.63 410.871 2330.57 411.531 2332.15 412.746C2333.73 413.961 2334.87 415.664 2335.38 417.59L2342.15 443.04L2326.34 437.87H2201.07L2192.57 438.77Z" fill="#4CC3FF"/>
<path d="M2370.78 440.33H2257.89C2246.59 440.33 2237.43 449.49 2237.43 460.79V460.89C2237.43 472.19 2246.59 481.35 2257.89 481.35H2370.78C2382.08 481.35 2391.24 472.19 2391.24 460.89V460.79C2391.24 449.49 2382.08 440.33 2370.78 440.33Z" fill="#F3F4F7"/>
<path d="M2354.49 453.9H2274.77C2270.67 453.9 2267.35 457.22 2267.35 461.315C2267.35 465.41 2270.67 468.73 2274.77 468.73H2354.49C2358.59 468.73 2361.91 465.41 2361.91 461.315C2361.91 457.22 2358.59 453.9 2354.49 453.9Z" fill="#08112B"/>
<path d="M2210.08 419.46H2243.37C2244.68 419.46 2245.94 419.981 2246.87 420.91C2247.8 421.838 2248.32 423.097 2248.32 424.41V426.86C2248.32 428.173 2247.8 429.432 2246.87 430.36C2245.94 431.288 2244.68 431.81 2243.37 431.81H2197.74C2197.74 428.536 2199.04 425.397 2201.35 423.081C2203.67 420.765 2206.81 419.463 2210.08 419.46V419.46Z" fill="#08112B"/>
<path d="M2285.68 406H2239.14C2237.84 406 2236.59 406.517 2235.67 407.438C2234.75 408.359 2234.23 409.608 2234.23 410.91H2303.56L2285.68 406Z" fill="#08112B"/>
<path d="M2254.43 430.29H2390.43V435.11H2254.43C2253.79 435.11 2253.18 434.856 2252.73 434.404C2252.27 433.952 2252.02 433.339 2252.02 432.7V432.7C2252.02 432.061 2252.27 431.448 2252.73 430.996C2253.18 430.544 2253.79 430.29 2254.43 430.29V430.29Z" fill="#F3F4F7"/>
<path d="M2284.54 393.63H2293.42C2294.83 393.63 2295.42 392.48 2294.79 391.08C2294.44 390.369 2293.92 389.76 2293.26 389.313C2292.61 388.866 2291.85 388.596 2291.06 388.53H2282.17C2280.77 388.53 2280.17 389.67 2280.81 391.08C2281.16 391.791 2281.69 392.399 2282.34 392.846C2282.99 393.293 2283.75 393.563 2284.54 393.63V393.63Z" fill="white"/>
<path d="M2294.2 392.713C2294.76 391.999 2294.3 390.691 2293.17 389.791C2292.04 388.891 2290.66 388.74 2290.09 389.453C2289.53 390.167 2289.98 391.475 2291.12 392.375C2292.25 393.275 2293.63 393.426 2294.2 392.713Z" fill="#08112B"/>
<path d="M2289.72 404.78H2298.6C2300.01 404.78 2300.6 403.64 2299.96 402.23C2299.61 401.518 2299.09 400.909 2298.43 400.462C2297.78 400.015 2297.02 399.745 2296.23 399.68H2287.35C2285.94 399.68 2285.35 400.82 2285.98 402.23C2286.33 402.941 2286.86 403.55 2287.51 403.997C2288.17 404.444 2288.93 404.713 2289.72 404.78Z" fill="white"/>
<path d="M2290.58 403.866C2291.15 403.152 2290.69 401.844 2289.55 400.944C2288.42 400.044 2287.04 399.892 2286.48 400.606C2285.91 401.319 2286.37 402.627 2287.5 403.528C2288.63 404.428 2290.01 404.579 2290.58 403.866Z" fill="#4CC3FF"/>
<path d="M2279.37 382.47H2288.25C2289.65 382.47 2290.25 381.33 2289.61 379.92C2289.26 379.208 2288.74 378.599 2288.08 378.152C2287.43 377.705 2286.67 377.435 2285.88 377.37H2277C2275.59 377.37 2275 378.51 2275.63 379.92C2275.98 380.632 2276.51 381.24 2277.16 381.687C2277.82 382.134 2278.58 382.404 2279.37 382.47V382.47Z" fill="white"/>
<path d="M2280.23 381.55C2280.8 380.836 2280.34 379.528 2279.21 378.628C2278.08 377.728 2276.7 377.577 2276.13 378.29C2275.56 379.003 2276.02 380.312 2277.16 381.212C2278.29 382.112 2279.67 382.263 2280.23 381.55Z" fill="#4CC3FF"/>
<path d="M2242.68 381.26H2267.37C2268.11 381.26 2268.43 380.66 2268.09 379.92C2267.9 379.542 2267.62 379.22 2267.27 378.985C2266.92 378.75 2266.51 378.61 2266.09 378.58H2241.41C2240.67 378.58 2240.34 379.18 2240.69 379.92C2240.87 380.298 2241.16 380.621 2241.51 380.857C2241.85 381.092 2242.26 381.231 2242.68 381.26V381.26Z" fill="white"/>
<path d="M2247.37 392.42H2252.05C2252.8 392.42 2253.12 391.82 2252.78 391.08C2252.59 390.7 2252.31 390.375 2251.96 390.138C2251.61 389.901 2251.2 389.76 2250.78 389.73H2246.1C2245.35 389.73 2245.03 390.33 2245.37 391.08C2245.56 391.458 2245.84 391.78 2246.19 392.015C2246.54 392.25 2246.95 392.39 2247.37 392.42V392.42Z" fill="white"/>
<path d="M2257.43 392.42H2271.12C2271.86 392.42 2272.18 391.82 2271.84 391.08C2271.65 390.7 2271.37 390.375 2271.02 390.138C2270.67 389.901 2270.26 389.76 2269.84 389.73H2256.16C2255.42 389.73 2255.09 390.33 2255.44 391.08C2255.62 391.458 2255.91 391.781 2256.26 392.016C2256.6 392.252 2257.01 392.391 2257.43 392.42V392.42Z" fill="white"/>
<path d="M2084.1 351.47H2029.69C2028.22 351.47 2027.02 352.665 2027.02 354.14V386.78C2027.02 388.255 2028.22 389.45 2029.69 389.45H2084.1C2085.57 389.45 2086.77 388.255 2086.77 386.78V354.14C2086.77 352.665 2085.57 351.47 2084.1 351.47Z" fill="#D3D6DE"/>
<path d="M2074.32 363.79H2055.98C2055 363.79 2054.2 364.587 2054.2 365.57C2054.2 366.553 2055 367.35 2055.98 367.35H2074.32C2075.3 367.35 2076.1 366.553 2076.1 365.57C2076.1 364.587 2075.3 363.79 2074.32 363.79Z" fill="white"/>
<path d="M2064.82 372.07H2055.98C2055 372.07 2054.2 372.867 2054.2 373.85C2054.2 374.833 2055 375.63 2055.98 375.63H2064.82C2065.8 375.63 2066.6 374.833 2066.6 373.85C2066.6 372.867 2065.8 372.07 2064.82 372.07Z" fill="white"/>
<path d="M2040.47 383.08C2041.83 383.08 2042.94 381.974 2042.94 380.61C2042.94 379.246 2041.83 378.14 2040.47 378.14C2039.11 378.14 2038 379.246 2038 380.61C2038 381.974 2039.11 383.08 2040.47 383.08Z" fill="#08112B"/>
<path d="M2042.7 360.08C2042.7 358.848 2041.7 357.85 2040.47 357.85C2039.24 357.85 2038.24 358.848 2038.24 360.08V372.72C2038.24 373.952 2039.24 374.95 2040.47 374.95C2041.7 374.95 2042.7 373.952 2042.7 372.72V360.08Z" fill="#08112B"/>
<path d="M2796.63 467.43C2795.22 465.856 2793.49 464.598 2791.56 463.736C2789.63 462.875 2787.53 462.43 2785.42 462.43H2466.68C2464.57 462.43 2462.47 462.875 2460.54 463.736C2458.61 464.598 2456.88 465.856 2455.47 467.43L2440 484.67H2812.18L2796.63 467.43Z" fill="#D3D6DE"/>
<path d="M2745.96 418H2607.21V420.61H2745.96V418Z" fill="white"/>
<path d="M2653.09 420.61H2611.23V462.47H2653.09V420.61Z" fill="#08112B"/>
<path d="M2635.77 430.59C2635.77 428.591 2634.15 426.97 2632.16 426.97C2630.16 426.97 2628.54 428.591 2628.54 430.59V452.5C2628.54 454.499 2630.16 456.12 2632.16 456.12C2634.15 456.12 2635.77 454.499 2635.77 452.5V430.59Z" fill="#FFBF00"/>
<path d="M2698.96 420.61H2657.1V462.47H2698.96V420.61Z" fill="#08112B"/>
<path d="M2681.64 430.59C2681.64 428.591 2680.02 426.97 2678.03 426.97C2676.03 426.97 2674.41 428.591 2674.41 430.59V452.5C2674.41 454.499 2676.03 456.12 2678.03 456.12C2680.02 456.12 2681.64 454.499 2681.64 452.5V430.59Z" fill="#FFBF00"/>
<path d="M2745.97 377.96H2704.11V419.82H2745.97V377.96Z" fill="#08112B"/>
<path d="M2728.65 387.94C2728.65 385.941 2727.03 384.32 2725.03 384.32C2723.04 384.32 2721.42 385.941 2721.42 387.94V409.85C2721.42 411.849 2723.04 413.47 2725.03 413.47C2727.03 413.47 2728.65 411.849 2728.65 409.85V387.94Z" fill="#FFBF00"/>
<path d="M2745.97 420.61H2704.11V462.47H2745.97V420.61Z" fill="#08112B"/>
<path d="M2728.65 430.59C2728.65 428.591 2727.03 426.97 2725.03 426.97C2723.04 426.97 2721.42 428.591 2721.42 430.59V452.5C2721.42 454.499 2723.04 456.12 2725.03 456.12C2727.03 456.12 2728.65 454.499 2728.65 452.5V430.59Z" fill="#FFBF00"/>
<path d="M2657.64 420.61H2652.54V462.47H2657.64V420.61Z" fill="white"/>
<path d="M2704.11 420.61H2698.96V462.47H2704.11V420.61Z" fill="white"/>
<path d="M2745.97 335.1H2704.11V376.96H2745.97V335.1Z" fill="#08112B"/>
<path d="M2728.65 345.07C2728.65 343.071 2727.03 341.45 2725.03 341.45C2723.04 341.45 2721.42 343.071 2721.42 345.07V366.98C2721.42 368.979 2723.04 370.6 2725.03 370.6C2727.03 370.6 2728.65 368.979 2728.65 366.98V345.07Z" fill="#FFBF00"/>
<path d="M2704.11 335.1H2698.96V376.96H2704.11V335.1Z" fill="white"/>
<path d="M2704.11 377.96H2698.96V419.82H2704.11V377.96Z" fill="white"/>
<path d="M2611.22 418H2601.33V462.47H2611.22V418Z" fill="white"/>
<path d="M2698.55 377.96H2656.69V419.82H2698.55V377.96Z" fill="#FFBF00"/>
<path d="M2681.24 387.94C2681.24 385.941 2679.62 384.32 2677.62 384.32C2675.63 384.32 2674.01 385.941 2674.01 387.94V409.85C2674.01 411.849 2675.63 413.47 2677.62 413.47C2679.62 413.47 2681.24 411.849 2681.24 409.85V387.94Z" fill="#08112B"/>
<path d="M2656.69 377.96H2651.54V419.82H2656.69V377.96Z" fill="white"/>
<path d="M2651.55 387.64H2619.58V419.61H2651.55V387.64Z" fill="#08112B"/>
<path d="M2638.32 395.26C2638.32 393.736 2637.08 392.5 2635.56 392.5C2634.04 392.5 2632.8 393.736 2632.8 395.26V412C2632.8 413.524 2634.04 414.76 2635.56 414.76C2637.08 414.76 2638.32 413.524 2638.32 412V395.26Z" fill="#FFBF00"/>
<path d="M2619.58 387.64H2609.39V419.61H2619.58V387.64Z" fill="white"/>
<path d="M2695.53 473.64H2490.4C2488.27 473.636 2486.17 474.079 2484.22 474.941C2482.27 475.802 2480.53 477.062 2479.1 478.64L2473.63 484.73H2712.3L2706.82 478.64C2705.39 477.062 2703.65 475.802 2701.71 474.941C2699.76 474.08 2697.66 473.636 2695.53 473.64V473.64Z" fill="white"/>
<path d="M2517.1 394.67V388.9L2501.18 349.72C2499.8 351.596 2498.86 353.763 2498.45 356.057C2498.03 358.35 2498.14 360.708 2498.78 362.95L2506.14 388.9L2517.1 394.67Z" fill="white"/>
<path d="M2563.09 393.12H2525.76C2524.89 393.12 2524.18 393.828 2524.18 394.7V396.29C2524.18 397.163 2524.89 397.87 2525.76 397.87H2563.09C2563.96 397.87 2564.67 397.163 2564.67 396.29V394.7C2564.67 393.828 2563.96 393.12 2563.09 393.12Z" fill="#F3F4F7"/>
<path d="M2590.41 378.25C2590.87 378.056 2591.26 377.731 2591.53 377.317C2591.8 376.902 2591.95 376.417 2591.95 375.92V375.27C2591.61 370.405 2590.03 365.707 2587.37 361.62C2586.41 360.105 2585.23 358.737 2583.88 357.56L2583.79 357.48C2583.67 357.376 2583.54 357.282 2583.4 357.2C2582.97 356.92 2582.49 356.726 2581.99 356.632C2581.48 356.537 2580.97 356.542 2580.47 356.647C2579.96 356.752 2579.49 356.954 2579.07 357.243C2578.64 357.532 2578.28 357.901 2578 358.33C2577.72 358.759 2577.53 359.239 2577.43 359.742C2577.34 360.245 2577.34 360.763 2577.45 361.264C2577.55 361.766 2577.75 362.241 2578.04 362.664C2578.33 363.088 2578.7 363.45 2579.13 363.73C2579.99 364.345 2580.76 365.083 2581.41 365.92C2582.16 366.862 2582.83 367.865 2583.41 368.92C2584.62 371.098 2585.45 373.465 2585.87 375.92V375.92C2585.99 376.385 2586.21 376.818 2586.52 377.192C2586.82 377.566 2587.19 377.873 2587.62 378.093C2588.05 378.312 2588.52 378.44 2589 378.467C2589.48 378.494 2589.96 378.42 2590.41 378.25V378.25Z" fill="#D3D6DE"/>
<path d="M2590.24 373.45L2590.78 373.83C2591.18 374.118 2591.49 374.518 2591.67 374.98C2591.85 375.442 2591.89 375.946 2591.78 376.43C2591.54 377.524 2591.23 378.6 2590.84 379.65C2590.47 380.674 2590.04 381.676 2589.55 382.65C2588.58 384.664 2587.22 386.468 2585.55 387.96C2585.23 388.238 2584.81 388.388 2584.39 388.38C2583.96 388.372 2583.55 388.208 2583.24 387.918C2582.93 387.628 2582.74 387.234 2582.7 386.81C2582.66 386.386 2582.78 385.962 2583.03 385.62L2583.09 385.53C2584.05 384.137 2584.73 382.571 2585.09 380.92C2585.29 380.066 2585.45 379.201 2585.56 378.33C2585.56 378.33 2586.83 372.54 2590.24 373.45Z" fill="#D3D6DE"/>
<path d="M2571.27 354.07C2575.64 354.07 2579.18 350.529 2579.18 346.16C2579.18 341.791 2575.64 338.25 2571.27 338.25C2566.9 338.25 2563.36 341.791 2563.36 346.16C2563.36 350.529 2566.9 354.07 2571.27 354.07Z" fill="#FFBF00"/>
<path d="M2563 356.78L2568 353.53L2576.7 352.53L2582.8 356.83C2584.19 357.81 2585.3 359.146 2586 360.699C2586.71 362.252 2586.98 363.965 2586.8 365.66L2584.2 389.97H2561.6L2558.77 365.97C2558.55 364.196 2558.82 362.395 2559.57 360.77C2560.32 359.146 2561.51 357.764 2563 356.78V356.78Z" fill="#08112B"/>
<path d="M2584.17 389.93C2587.09 414.13 2585.44 431.99 2584.62 454.49H2581.13L2568.23 389.93H2584.17Z" fill="#08112B"/>
<path d="M2561.57 389.93C2558.5 413.93 2560.75 427.84 2560.9 454.3L2565.11 454.12L2576.34 389.93H2561.57Z" fill="#08112B"/>
<path d="M2575.21 462.44C2575.35 461.49 2575.21 460.52 2575.96 460.21C2576.74 459.899 2577.43 459.375 2577.93 458.696C2578.43 458.017 2578.73 457.211 2578.79 456.37L2579.06 444.13L2585.23 439.97C2585.23 439.97 2585.46 458.17 2585.64 461.23C2585.7 462.23 2584.89 462.47 2583.87 462.47L2575.21 462.44Z" fill="#4CC3FF"/>
<path d="M2566.74 365C2565.81 365.746 2565 366.641 2564.36 367.65C2563.55 368.85 2562.73 370.26 2561.87 371.72C2560.1 374.869 2557.98 377.81 2555.56 380.49L2555.23 380.85C2554.81 381.292 2554.27 381.594 2553.67 381.714C2553.07 381.834 2552.46 381.766 2551.9 381.52C2550.75 380.997 2549.63 380.399 2548.56 379.73C2547.52 379.079 2546.52 378.372 2545.56 377.61C2543.55 376.057 2541.88 374.123 2540.62 371.92C2540.45 371.503 2540.43 371.043 2540.56 370.613C2540.69 370.183 2540.95 369.808 2541.32 369.548C2541.69 369.289 2542.13 369.16 2542.58 369.182C2543.02 369.204 2543.45 369.376 2543.79 369.67L2543.87 369.77C2545.19 371.161 2546.76 372.287 2548.5 373.09C2549.39 373.515 2550.31 373.888 2551.25 374.21C2552.15 374.525 2553.07 374.779 2554.01 374.97L2550.36 375.97C2552.18 373.498 2553.71 370.832 2554.94 368.02C2555.64 366.54 2556.34 365.02 2557.25 363.32C2558.24 361.418 2559.54 359.694 2561.1 358.22L2561.21 358.12C2561.65 357.714 2562.18 357.403 2562.75 357.207C2563.31 357.011 2563.92 356.933 2564.52 356.979C2565.12 357.024 2565.7 357.192 2566.23 357.472C2566.77 357.752 2567.24 358.138 2567.62 358.606C2567.99 359.074 2568.27 359.615 2568.43 360.195C2568.59 360.774 2568.63 361.381 2568.55 361.977C2568.47 362.573 2568.27 363.146 2567.96 363.661C2567.64 364.176 2567.23 364.621 2566.74 364.97V365Z" fill="white"/>
<path d="M2564.9 344.47L2566.32 344.22C2566.64 344.16 2566.97 344.164 2567.28 344.232C2567.6 344.301 2567.9 344.432 2568.17 344.619C2568.43 344.805 2568.66 345.043 2568.83 345.318C2569 345.593 2569.12 345.9 2569.17 346.22C2569.36 347.35 2569.6 348.72 2569.91 350.02C2570.16 351.077 2570.76 352.018 2571.61 352.689C2572.47 353.361 2573.52 353.724 2574.61 353.72C2575.77 353.718 2576.89 353.3 2577.77 352.542C2578.64 351.784 2579.22 350.737 2579.39 349.59L2580.19 344.08C2580.19 342.308 2579.5 340.605 2578.28 339.33C2577.05 338.054 2575.37 337.305 2573.6 337.24L2569.6 337.09C2568.08 337.034 2566.58 337.5 2565.36 338.409C2564.14 339.318 2563.27 340.617 2562.89 342.09V342.22C2562.81 342.51 2562.8 342.816 2562.86 343.11C2562.93 343.404 2563.07 343.676 2563.27 343.901C2563.47 344.126 2563.73 344.296 2564.01 344.396C2564.3 344.495 2564.6 344.521 2564.9 344.47V344.47Z" fill="#08112B"/>
<path d="M2538 368.35C2538.5 369.657 2539.32 370.816 2540.39 371.72L2543.06 368.78L2542.06 366.62L2538 368.35Z" fill="#FFBF00"/>
<path d="M2540.09 369.88C2541.33 369.88 2542.33 368.877 2542.33 367.64C2542.33 366.403 2541.33 365.4 2540.09 365.4C2538.85 365.4 2537.85 366.403 2537.85 367.64C2537.85 368.877 2538.85 369.88 2540.09 369.88Z" fill="#FFBF00"/>
<path d="M2538.13 364.1C2538.52 364.1 2538.83 363.787 2538.83 363.4C2538.83 363.013 2538.52 362.7 2538.13 362.7C2537.74 362.7 2537.43 363.013 2537.43 363.4C2537.43 363.787 2537.74 364.1 2538.13 364.1Z" fill="#FFBF00"/>
<path d="M2541.74 372.29C2542.83 372.29 2543.72 371.404 2543.72 370.31C2543.72 369.217 2542.83 368.33 2541.74 368.33C2540.65 368.33 2539.76 369.217 2539.76 370.31C2539.76 371.404 2540.65 372.29 2541.74 372.29Z" fill="#FFBF00"/>
<path d="M2538.53 362.8C2539.83 363.558 2540.9 364.653 2541.63 365.97L2539.63 366.65C2539.63 366.65 2539.48 365.51 2537.63 363.97L2538.53 362.8Z" fill="#FFBF00"/>
<path d="M2572.39 333.219L2572.76 333.261C2575.23 333.548 2577.48 334.803 2579.02 336.75C2580.56 338.696 2581.26 341.175 2580.98 343.641L2580.86 344.634L2561.9 342.427L2562.02 341.433C2562.16 340.213 2562.54 339.032 2563.14 337.958C2563.74 336.884 2564.54 335.939 2565.5 335.176C2566.47 334.413 2567.57 333.848 2568.75 333.512C2569.94 333.176 2571.17 333.076 2572.39 333.219V333.219Z" fill="#4CC3FF"/>
<path d="M2552.53 462.44C2552.38 460.66 2554.29 459.27 2556.71 458.54C2557.65 458.237 2558.47 457.664 2559.08 456.894C2559.69 456.124 2560.07 455.19 2560.15 454.21L2560.77 445.49L2567.41 441.18C2567.41 441.18 2565.84 457.18 2565.97 460.18C2565.98 460.472 2565.94 460.764 2565.84 461.038C2565.74 461.312 2565.58 461.563 2565.38 461.775C2565.18 461.988 2564.94 462.157 2564.67 462.273C2564.4 462.389 2564.11 462.449 2563.82 462.45L2552.53 462.44Z" fill="#4CC3FF"/>
<path d="M2563.09 369.61C2562.69 370.27 2562.28 370.97 2561.86 371.68C2560.1 374.831 2557.98 377.773 2555.56 380.45L2555.23 380.81C2554.81 381.252 2554.27 381.554 2553.67 381.674C2553.08 381.795 2552.46 381.727 2551.9 381.48C2550.75 380.959 2549.63 380.361 2548.56 379.69C2547.52 379.039 2546.52 378.332 2545.56 377.57C2543.55 376.017 2541.87 374.084 2540.61 371.88C2540.44 371.462 2540.42 370.998 2540.54 370.565C2540.67 370.132 2540.94 369.754 2541.31 369.493C2541.68 369.232 2542.12 369.104 2542.57 369.129C2543.02 369.154 2543.45 369.33 2543.79 369.63L2543.87 369.73C2545.18 371.125 2546.76 372.252 2548.5 373.05C2549.39 373.475 2550.31 373.849 2551.25 374.17L2551.55 374.27C2552.84 372.273 2553.97 370.18 2554.94 368.01C2555.64 366.53 2556.33 365.01 2557.24 363.31C2557.82 362.219 2558.49 361.176 2559.24 360.19L2563.09 369.61Z" fill="white"/>
<path d="M2519.58 339.48H2507.58C2507.48 339.481 2507.38 339.462 2507.28 339.424C2507.19 339.386 2507.1 339.329 2507.03 339.257C2506.96 339.186 2506.9 339.1 2506.87 339.006C2506.83 338.912 2506.81 338.811 2506.81 338.71V322.65C2506.81 322.446 2506.89 322.25 2507.04 322.105C2507.18 321.961 2507.38 321.88 2507.58 321.88H2516.29L2520.35 326.05V338.71C2520.35 338.914 2520.27 339.11 2520.12 339.254C2519.98 339.399 2519.78 339.48 2519.58 339.48Z" fill="#08112B"/>
<path d="M2509.38 334.21H2517.42" stroke="white" stroke-width="0.75" stroke-miterlimit="10"/>
<path d="M2516.29 321.88V325.28C2516.29 325.483 2516.37 325.678 2516.52 325.821C2516.66 325.965 2516.86 326.047 2517.06 326.05H2520.35L2516.29 321.88Z" fill="#F3F4F7"/>
<path d="M2509.29 328.47H2517.6" stroke="white" stroke-width="0.75" stroke-miterlimit="10"/>
<path d="M2509.29 331.36H2517.6" stroke="white" stroke-width="0.75" stroke-miterlimit="10"/>
<path d="M2539.61 339.48H2527.61C2527.41 339.48 2527.21 339.399 2527.07 339.254C2526.92 339.11 2526.84 338.914 2526.84 338.71V322.65C2526.84 322.446 2526.92 322.252 2527.07 322.108C2527.21 321.964 2527.41 321.882 2527.61 321.88H2536.33L2540.39 326.05V338.71C2540.39 338.812 2540.37 338.913 2540.33 339.007C2540.29 339.101 2540.23 339.186 2540.16 339.258C2540.09 339.33 2540 339.386 2539.91 339.424C2539.81 339.462 2539.71 339.481 2539.61 339.48V339.48Z" fill="#08112B"/>
<path d="M2529.4 334.21H2537.45" stroke="white" stroke-width="0.75" stroke-miterlimit="10"/>
<path d="M2536.32 321.88V325.28C2536.32 325.483 2536.4 325.678 2536.55 325.821C2536.69 325.965 2536.89 326.047 2537.09 326.05H2540.38L2536.32 321.88Z" fill="#F3F4F7"/>
<path d="M2529.32 328.47H2537.63" stroke="white" stroke-width="0.75" stroke-miterlimit="10"/>
<path d="M2529.32 331.36H2537.63" stroke="white" stroke-width="0.75" stroke-miterlimit="10"/>
<path d="M2633.86 254.24H2605.3C2604.8 254.24 2604.32 254.439 2603.96 254.794C2603.61 255.148 2603.41 255.629 2603.41 256.13V268.13C2603.41 268.63 2603.61 269.108 2603.97 269.46C2604.32 269.812 2604.8 270.01 2605.3 270.01H2633.86C2634.36 270.01 2634.84 269.812 2635.19 269.46C2635.55 269.108 2635.75 268.63 2635.75 268.13V256.13C2635.75 255.629 2635.55 255.148 2635.2 254.794C2634.84 254.439 2634.36 254.24 2633.86 254.24V254.24Z" fill="#FFBF00"/>
<path d="M2609.68 259.89H2624.78" stroke="white" stroke-width="0.9" stroke-linejoin="round"/>
<path d="M2609.68 263.63H2624.78" stroke="white" stroke-width="0.9" stroke-linejoin="round"/>
<path d="M2628.45 261.21C2629.06 261.21 2629.55 260.717 2629.55 260.11C2629.55 259.502 2629.06 259.01 2628.45 259.01C2627.84 259.01 2627.35 259.502 2627.35 260.11C2627.35 260.717 2627.84 261.21 2628.45 261.21Z" fill="white"/>
<path d="M2628.45 264.91C2629.06 264.91 2629.55 264.417 2629.55 263.81C2629.55 263.202 2629.06 262.71 2628.45 262.71C2627.84 262.71 2627.35 263.202 2627.35 263.81C2627.35 264.417 2627.84 264.91 2628.45 264.91Z" fill="white"/>
<path d="M2672.52 254.24H2644C2643.5 254.24 2643.02 254.439 2642.66 254.794C2642.31 255.148 2642.11 255.629 2642.11 256.13V268.13C2642.11 268.377 2642.16 268.621 2642.26 268.849C2642.35 269.076 2642.49 269.283 2642.67 269.456C2642.84 269.63 2643.05 269.767 2643.28 269.861C2643.51 269.954 2643.75 270.001 2644 270H2672.55C2672.8 270.001 2673.04 269.954 2673.27 269.86C2673.5 269.766 2673.71 269.628 2673.89 269.453C2674.06 269.278 2674.2 269.07 2674.3 268.842C2674.39 268.613 2674.44 268.368 2674.44 268.12V256.12C2674.44 255.87 2674.39 255.623 2674.29 255.393C2674.19 255.163 2674.05 254.954 2673.87 254.779C2673.69 254.604 2673.48 254.467 2673.25 254.374C2673.02 254.282 2672.77 254.236 2672.52 254.24V254.24Z" fill="#FFBF00"/>
<path d="M2648.35 260.73H2663.44" stroke="white" stroke-width="0.9" stroke-linejoin="round"/>
<path d="M2648.35 264.47H2663.44" stroke="white" stroke-width="0.9" stroke-linejoin="round"/>
<path d="M2667.12 262.05C2667.73 262.05 2668.22 261.558 2668.22 260.95C2668.22 260.343 2667.73 259.85 2667.12 259.85C2666.51 259.85 2666.02 260.343 2666.02 260.95C2666.02 261.558 2666.51 262.05 2667.12 262.05Z" fill="white"/>
<path d="M2667.12 265.75C2667.73 265.75 2668.22 265.258 2668.22 264.65C2668.22 264.043 2667.73 263.55 2667.12 263.55C2666.51 263.55 2666.02 264.043 2666.02 264.65C2666.02 265.258 2666.51 265.75 2667.12 265.75Z" fill="white"/>
<path d="M2510 313.63H2508C2507.7 313.63 2507.42 313.512 2507.21 313.302C2507 313.092 2506.88 312.807 2506.88 312.51V293.77C2506.88 293.473 2507 293.188 2507.21 292.978C2507.42 292.768 2507.7 292.65 2508 292.65H2520.71C2521.01 292.65 2521.29 292.768 2521.5 292.978C2521.71 293.188 2521.83 293.473 2521.83 293.77V296.2L2510 313.63Z" fill="#08112B"/>
<path d="M2524.95 315.96V296.87C2524.95 296.505 2524.65 296.21 2524.29 296.21H2510.66C2510.3 296.21 2510 296.505 2510 296.87V315.96C2510 316.324 2510.3 316.62 2510.66 316.62H2524.29C2524.65 316.62 2524.95 316.324 2524.95 315.96Z" fill="#F3F4F7"/>
<path d="M2512.89 299.62H2521.87" stroke="#08112B" stroke-width="0.75" stroke-miterlimit="10"/>
<path d="M2512.89 301.43H2521.87" stroke="#08112B" stroke-width="0.75" stroke-miterlimit="10"/>
<path d="M2512.89 303.21H2521.87" stroke="#08112B" stroke-width="0.75" stroke-miterlimit="10"/>
<path d="M2512.89 305.21H2521.87" stroke="#08112B" stroke-width="0.75" stroke-miterlimit="10"/>
<path d="M2527.9 298.42H2523.27C2522.93 298.42 2522.66 298.693 2522.66 299.03V303.66C2522.66 303.997 2522.93 304.27 2523.27 304.27H2527.9C2528.24 304.27 2528.51 303.997 2528.51 303.66V299.03C2528.51 298.693 2528.24 298.42 2527.9 298.42Z" fill="#08112B"/>
<path d="M2525.67 299.38V303.12" stroke="white" stroke-width="0.33" stroke-miterlimit="10"/>
<path d="M2527.55 301.25H2523.8" stroke="white" stroke-width="0.33" stroke-miterlimit="10"/>
<path d="M2553.92 275.59V307.35H2546.63C2545.8 307.27 2545.03 306.878 2544.47 306.253C2543.91 305.628 2543.61 304.816 2543.63 303.98V279C2543.61 278.151 2543.92 277.327 2544.49 276.699C2545.06 276.07 2545.85 275.684 2546.7 275.62L2553.92 275.59Z" fill="#18123D"/>
<path d="M2553.92 275.59V286.25H2543.59V279C2543.57 278.151 2543.88 277.327 2544.45 276.699C2545.02 276.07 2545.81 275.684 2546.66 275.62L2553.92 275.59Z" fill="#4CC3FF"/>
<path d="M2550.75 280.01H2547.27V283.49H2550.75V280.01Z" fill="#18123D"/>
<path d="M2549.01 293.59C2549.97 293.59 2550.75 292.811 2550.75 291.85C2550.75 290.889 2549.97 290.11 2549.01 290.11C2548.05 290.11 2547.27 290.889 2547.27 291.85C2547.27 292.811 2548.05 293.59 2549.01 293.59Z" fill="#FFBF00"/>
<path d="M2549.88 299.19H2548.14L2547.27 300.7L2548.14 302.21H2549.88L2550.75 300.7L2549.88 299.19Z" fill="#FFBF00"/>
<path d="M2497.59 308.82H2480.33V386.58H2509.29" stroke="#08112B" stroke-miterlimit="10"/>
<path d="M2480.21 360.19C2487.54 360.19 2493.48 354.249 2493.48 346.92C2493.48 339.591 2487.54 333.65 2480.21 333.65C2472.88 333.65 2466.94 339.591 2466.94 346.92C2466.94 354.249 2472.88 360.19 2480.21 360.19Z" fill="#FFBF00"/>
<path d="M2476.1 339.31C2477.23 338.711 2478.47 338.367 2479.75 338.303C2481.02 338.238 2482.3 338.455 2483.48 338.938C2484.66 339.421 2485.72 340.158 2486.59 341.096C2487.46 342.035 2488.1 343.153 2488.49 344.37C2488.8 345.571 2488.92 346.812 2488.86 348.05" stroke="white" stroke-width="0.94" stroke-miterlimit="10" stroke-linecap="round"/>
<path d="M2472.33 350.3C2471.57 348.554 2471.42 346.606 2471.88 344.761C2472.35 342.916 2473.41 341.277 2474.91 340.1" stroke="white" stroke-width="0.94" stroke-miterlimit="10" stroke-linecap="round"/>
<path d="M2485.66 348.9C2485.62 350.097 2485.48 351.289 2485.23 352.46" stroke="white" stroke-width="0.94" stroke-miterlimit="10" stroke-linecap="round"/>
<path d="M2478 342C2478.89 341.6 2479.86 341.442 2480.83 341.542C2481.79 341.642 2482.72 341.997 2483.5 342.57C2485.18 343.8 2485.65 345.73 2485.7 347.71" stroke="white" stroke-width="0.94" stroke-miterlimit="10" stroke-linecap="round"/>
<path d="M2475.08 348.61C2474.62 346.32 2475.08 344.07 2476.99 342.61" stroke="white" stroke-width="0.94" stroke-miterlimit="10" stroke-linecap="round"/>
<path d="M2474.84 351.87C2475.11 351.269 2475.25 350.619 2475.26 349.96" stroke="white" stroke-width="0.94" stroke-miterlimit="10" stroke-linecap="round"/>
<path d="M2481.54 350.93C2481.37 352.487 2480.97 354.009 2480.33 355.44" stroke="white" stroke-width="0.94" stroke-miterlimit="10" stroke-linecap="round"/>
<path d="M2478.07 355.13C2479.18 353.026 2479.51 350.593 2478.99 348.27C2478.83 347.39 2478.56 346.27 2479.45 345.69C2480.65 344.88 2481.6 346.03 2481.7 347.15C2481.78 347.968 2481.78 348.792 2481.7 349.61" stroke="white" stroke-width="0.94" stroke-miterlimit="10" stroke-linecap="round"/>
<path d="M2488.57 349.83C2488.47 350.327 2488.35 350.818 2488.19 351.3" stroke="white" stroke-width="0.94" stroke-miterlimit="10" stroke-linecap="round"/>
<path d="M1629 484.34C1629 484.34 1721.63 456.75 1729.88 482C1729.88 482 1778.75 482.57 1802.75 473.66C1826.75 464.75 1861.25 465.03 1863.25 484.34H1629Z" fill="white"/>
<path d="M1863.21 484.27C1863.21 484.27 1896.63 484.02 1917.46 480.02C1938.29 476.02 1983.13 469.9 1986.63 483.79V484.34H1863.21V484.27Z" fill="white"/>
<path d="M1016.56 93.52L1053.62 134.26L983.46 0H349.55L279.38 134.26L256.58 177.89C277.31 188.07 295.78 157.42 295.78 157.42C308.78 135.58 321.51 122.55 328.67 125.52C334.79 128.06 335.5 141.72 331.67 160.99C331.56 161.45 331.46 161.9 331.37 162.35C331.14 163.35 330.91 164.35 330.73 165.35C325 198.5 329 218.25 342.21 224C369.82 236 421.16 213.4 455.1 131.68C455.92 129.68 456.73 127.68 457.51 125.76C458.51 123.2 459.51 120.66 460.51 118.12C460.9 117.12 461.29 116.12 461.67 115.05C463.083 111.677 464.557 108.39 466.09 105.19C494.83 45.57 580.09 45.57 608.85 105.19C610.39 108.39 611.863 111.677 613.27 115.05C613.65 116.05 614.04 117.05 614.43 118.12C615.43 120.66 616.43 123.2 617.43 125.76C618.21 127.76 619.02 129.7 619.84 131.68C653.78 213.4 703.84 270.29 731.63 258.75C750.43 250.94 754.24 213.85 744.23 165.38C744.03 164.38 743.82 163.38 743.59 162.38C743.5 161.93 743.4 161.48 743.29 161.02C739.45 141.75 740.16 128.09 746.29 125.55C753.45 122.55 766.19 135.61 779.18 157.45L785.74 169.69L790.01 177.69L829.01 250.43C849.51 294.36 876.01 323.49 891.42 317.29C907.33 310.88 905.64 268.87 888.32 220.93L888.23 220.7V220.62C887.8 219.43 887.36 218.23 886.9 217.03C885.773 213.903 884.72 210.703 883.74 207.43C867.58 153.43 878.37 102.57 907.84 93.74C926.35 88.19 947.84 100.57 965.25 123.92C966.263 125.387 967.263 126.827 968.25 128.24L968.96 129.24C986.02 152.53 1003.55 165.68 1013.29 160.6C1024.17 154.92 1021.96 128.21 1009.29 96.41C1009.28 95.5627 1009.53 94.7322 1010 94.0282C1010.47 93.3242 1011.14 92.7798 1011.93 92.4668C1012.72 92.1537 1013.58 92.0868 1014.41 92.2749C1015.24 92.4629 1015.99 92.897 1016.56 93.52Z" fill="white"/>
</svg>
