<svg width="136" height="30" viewBox="0 0 136 30" fill="none" xmlns="http://www.w3.org/2000/svg">
<path d="M121.809 22.8614C121.809 22.8614 124.46 25.9328 128.007 25.9328C129.599 25.9328 130.821 25.2773 130.821 23.8844C130.821 20.9359 119.852 20.9756 119.852 14.2171C119.852 10.0396 123.603 8.11408 127.925 8.11408C130.739 8.11408 135.224 9.05514 135.224 12.4567V14.6268H130.659V13.6026C130.659 12.6194 129.19 12.1289 128.049 12.1289C126.214 12.1289 124.948 12.7844 124.948 14.0123C124.948 17.2909 136 16.6342 136 23.5988C136 27.5305 132.535 29.9886 128.007 29.9886C122.299 29.9886 119.364 26.2605 119.364 26.2605L121.809 22.8614ZM115.753 29.4971H113.347C111.43 29.4971 110.615 28.6777 110.615 26.7113V13.9305C110.615 13.3171 110.289 13.0304 109.717 13.0304H108.087V8.6046H113.022C114.938 8.6046 115.753 9.46614 115.753 11.3904V29.4971ZM103.788 13.7665L97.834 29.497H91.6772L85.7232 13.7665L83.8317 8.60449H87.1098C88.8226 8.60449 89.6382 9.13828 90.1683 10.571L94.0821 21.5504C94.5319 22.7794 94.857 24.5399 94.857 24.5399H94.9398C94.9398 24.5399 95.266 22.7794 95.6726 21.5504L99.5876 10.571C100.118 9.13828 100.974 8.60449 102.646 8.60449H105.719L103.788 13.7665H103.788ZM34.6866 12.5139C38.0306 12.5139 40.517 14.8491 40.517 14.8491L42.6796 11.2427C42.6796 11.2427 39.4987 8.08937 34.3195 8.08937C27.4275 8.08937 23.1467 13.0875 23.1467 19.0278V19.0627C23.1467 25.0031 27.4275 30 34.3195 30C39.4987 30 42.6796 26.8467 42.6796 26.8467L40.517 23.2403C40.517 23.2403 38.0306 25.5755 34.6866 25.5755C31.5464 25.5755 28.8549 23.6512 28.4471 19.9652C28.4087 19.6363 28.3882 19.317 28.381 19.0121V19.0784C28.3878 18.7736 28.4087 18.4531 28.4471 18.1253C28.8549 14.4382 31.5464 12.5139 34.6866 12.5139ZM77.0289 16.3482C76.9461 13.8491 75.2346 12.1285 73.1139 12.1285C70.4644 12.1285 68.5872 13.725 68.0163 16.3482H77.0289ZM73.1139 8.1136C79.068 8.1136 82.3293 12.496 82.3293 18.0279C82.3293 18.6412 82.2069 19.9534 82.2069 19.9534H67.8532C68.261 23.6405 70.9525 25.5636 74.0927 25.5636C77.4367 25.5636 79.9244 23.2296 79.9244 23.2296L82.0858 26.8348C82.0858 26.8348 78.9049 29.9881 73.7257 29.9881C66.8337 29.9881 62.5516 24.9912 62.5516 19.0521C62.5516 12.6201 66.8744 8.1136 73.1139 8.1136ZM48.0196 13.9308C48.0196 13.3163 47.6933 13.0295 47.1224 13.0295H45.4911V8.60497H50.2217C52.0569 8.60497 52.9936 9.38457 52.9936 11.145V12.3752C52.9936 13.1524 52.9121 13.685 52.9121 13.685H52.9936C53.9316 10.6943 56.4193 8.31819 59.6002 8.31819C60.0488 8.31819 60.5381 8.40013 60.5381 8.40013V13.5211C60.5381 13.5211 60.008 13.4392 59.2739 13.4392C57.0718 13.4392 54.5445 14.7092 53.6054 17.8216C53.3211 18.847 53.158 19.9929 53.158 21.2231V29.4975H48.0196V13.9308ZM8.35892 25.933C11.132 25.933 13.0895 22.9833 13.0895 20.4445V19.9541H12.1923C9.50078 19.9541 5.21877 20.3204 5.21877 23.2291C5.21877 24.6232 6.2383 25.933 8.35892 25.933ZM12.3555 16.3875H13.008V16.2248C13.008 13.2341 11.8253 12.128 9.17454 12.128C8.23657 12.128 6.40142 12.375 6.40142 13.5209V14.627H1.59046V12.4148C1.59046 8.52279 7.05392 8.11311 9.21532 8.11311C16.1469 8.11311 18.1871 11.7593 18.1871 16.4296V24.2124C18.1871 24.7859 18.5134 25.1137 19.0843 25.1137H20.7156V29.4972H16.0653C14.1498 29.4972 13.4158 28.4309 13.4158 27.203C13.4158 26.6716 13.4565 26.3017 13.4565 26.3017H13.375C13.375 26.3017 11.7845 29.9888 7.0947 29.9888C3.38483 29.9888 0 27.6537 0 23.4737C0 16.92 8.97063 16.3875 12.3555 16.3875ZM112.1 0.115301C113.695 -0.314864 115.269 0.484013 115.696 2.08779C116.126 3.70242 115.159 5.17365 113.563 5.60382C111.977 6.03036 110.407 5.24113 109.977 3.62771C109.55 2.02393 110.514 0.541851 112.1 0.115301Z" fill="#DC0044"/>
</svg>
