<svg width="200" height="26" viewBox="0 0 200 26" fill="none" xmlns="http://www.w3.org/2000/svg">
<path d="M21.1073 21.4575C20.1865 22.7381 19.006 23.7772 17.5186 24.5746C16.0548 25.372 14.284 25.7586 12.23 25.7586C10.4592 25.7586 8.83013 25.4444 7.31909 24.8404C5.80805 24.2363 4.53311 23.3664 3.44706 22.2549C2.38461 21.1433 1.53465 19.8143 0.920789 18.292C0.30693 16.7456 0 15.0783 0 13.2418C0 11.3812 0.30693 9.66563 0.944399 8.14333C1.55826 6.62102 2.43183 5.29203 3.54149 4.20466C4.65116 3.1173 5.94971 2.27158 7.46075 1.66749C8.97179 1.0634 10.6009 0.773438 12.3716 0.773438C13.1508 0.773438 13.9535 0.845928 14.7562 1.01507C15.559 1.16005 16.3381 1.40169 17.0936 1.71582C17.8255 2.02994 18.5102 2.41656 19.1241 2.87567C19.7379 3.33478 20.2574 3.86637 20.7059 4.47046L18.1561 6.47604C17.5894 5.67864 16.7867 5.00206 15.7478 4.47046C14.709 3.93887 13.5757 3.67307 12.3716 3.67307C11.0259 3.67307 9.79814 3.9147 8.71208 4.42214C7.62602 4.92957 6.70523 5.60615 5.94971 6.47604C5.19419 7.34593 4.60394 8.3608 4.17896 9.52065C3.75398 10.6805 3.5651 11.8887 3.5651 13.1935C3.5651 14.5467 3.77759 15.8032 4.17896 16.963C4.58033 18.1229 5.17058 19.1378 5.9261 20.0076C6.68162 20.8775 7.60241 21.5541 8.68847 22.0374C9.77453 22.5207 10.9786 22.7865 12.3244 22.7865C13.6466 22.7865 14.8271 22.5207 15.9131 21.9891C16.9756 21.4575 17.8727 20.6601 18.581 19.6452L21.1073 21.4575Z" fill="#1E3582"/>
<path d="M24.0822 11.0172C24.0586 10.3407 24.035 9.76074 23.9878 9.22914H26.9154C26.9626 9.63992 26.9863 10.099 27.0099 10.6306C27.0335 11.1622 27.0335 11.5972 27.0335 11.9355H27.1279C27.5765 10.9931 28.214 10.244 29.0403 9.66408C29.8903 9.08416 30.8347 8.81836 31.8735 8.81836C32.3457 8.81836 32.7707 8.86669 33.0776 8.96334L32.936 11.8871C32.4874 11.7663 32.0388 11.718 31.5194 11.718C30.7638 11.718 30.1264 11.863 29.5834 12.1288C29.0403 12.4187 28.5917 12.7812 28.214 13.2645C27.8598 13.7236 27.5765 14.2793 27.4112 14.8834C27.246 15.4875 27.1515 16.1399 27.1515 16.8165V25.1771H24.0586V12.6604C24.1058 12.2254 24.1058 11.6938 24.0822 11.0172Z" fill="#1E3582"/>
<path d="M50.3122 17.0596C50.3122 17.2287 50.3122 17.422 50.3122 17.5912C50.3122 17.7603 50.3122 17.9536 50.2886 18.1228H37.917C37.9406 18.7994 38.0822 19.4276 38.3656 20.0075C38.6489 20.5875 39.003 21.1191 39.4752 21.554C39.9238 21.989 40.4669 22.3272 41.0571 22.5689C41.6474 22.8105 42.3084 22.9313 42.9695 22.9313C44.0084 22.9313 44.9291 22.6897 45.6847 22.2306C46.4402 21.7715 47.054 21.1916 47.479 20.515L49.6511 22.3031C48.8248 23.4388 47.8332 24.2603 46.7235 24.7919C45.5902 25.3235 44.3389 25.5893 42.9695 25.5893C41.789 25.5893 40.703 25.396 39.6877 24.9852C38.6725 24.5745 37.8225 24.0187 37.0906 23.2938C36.3587 22.5689 35.7921 21.699 35.3907 20.66C34.9657 19.6209 34.7769 18.4852 34.7769 17.2287C34.7769 15.9964 34.9893 14.8607 35.3907 13.8217C35.7921 12.7826 36.3587 11.8886 37.0906 11.1395C37.8225 10.3904 38.6725 9.83468 39.6641 9.39974C40.6557 8.98896 41.7182 8.77148 42.8515 8.77148C43.9847 8.77148 45.0236 8.96479 45.968 9.35141C46.8888 9.73803 47.6915 10.2696 48.329 10.9945C48.9664 11.7194 49.4859 12.5893 49.8164 13.6042C50.1469 14.6432 50.3122 15.7789 50.3122 17.0596ZM47.1721 15.7789C47.1485 15.1507 47.054 14.5707 46.8652 14.015C46.6763 13.4592 46.4166 13.0001 46.0388 12.5893C45.6847 12.1785 45.2361 11.8644 44.693 11.6228C44.15 11.3811 43.5362 11.2603 42.8042 11.2603C42.1432 11.2603 41.5293 11.3811 40.9391 11.6228C40.3488 11.8644 39.853 12.1785 39.428 12.5893C39.003 13.0001 38.6489 13.4592 38.3892 14.015C38.1059 14.5707 37.9642 15.1507 37.917 15.7789H47.1721Z" fill="#1E3582"/>
<path d="M66.8158 22.6407C66.2255 23.6073 65.4228 24.3322 64.4075 24.8396C63.3923 25.347 62.3299 25.5887 61.1966 25.5887C59.9925 25.5887 58.9064 25.3712 57.9384 24.9362C56.9704 24.5013 56.1441 23.8972 55.483 23.1481C54.7983 22.3991 54.2789 21.4809 53.9011 20.466C53.5234 19.427 53.3345 18.3396 53.3345 17.1797C53.3345 16.0199 53.5234 14.9325 53.9011 13.8935C54.2789 12.8786 54.7983 11.9846 55.483 11.2113C56.1677 10.4623 56.994 9.85818 57.962 9.42324C58.93 8.9883 59.9925 8.79499 61.1494 8.79499C62.4243 8.79499 63.534 9.06079 64.4548 9.61655C65.3992 10.1723 66.1311 10.8247 66.6977 11.6221H66.7685V-0.242188H69.8614V25.1537H66.863V22.6407H66.8158ZM56.569 17.1797C56.569 17.9047 56.6871 18.6296 56.8996 19.3303C57.1121 20.031 57.4426 20.6351 57.8912 21.1667C58.3398 21.6983 58.8592 22.1333 59.4967 22.4474C60.1341 22.7615 60.866 22.9307 61.7396 22.9307C62.5187 22.9307 63.2507 22.7857 63.8881 22.4716C64.5256 22.1574 65.0922 21.7467 65.5408 21.2151C65.9894 20.6835 66.3672 20.0794 66.6033 19.3786C66.863 18.6779 66.981 17.953 66.981 17.2039C66.981 16.4548 66.863 15.7299 66.6033 15.0292C66.3436 14.3284 65.9894 13.7244 65.5408 13.1928C65.0922 12.6612 64.5256 12.2262 63.8881 11.9121C63.2507 11.598 62.5187 11.453 61.7396 11.453C60.8897 11.453 60.1341 11.6221 59.4967 11.9121C58.8592 12.2262 58.3162 12.637 57.8912 13.1928C57.4426 13.7244 57.1357 14.3526 56.8996 15.0292C56.6871 15.7299 56.569 16.4307 56.569 17.1797Z" fill="#1E3582"/>
<path d="M78.4556 3.47823C78.4556 4.05816 78.2431 4.54143 77.8418 4.92805C77.4404 5.31466 76.9682 5.50797 76.4016 5.50797C75.8349 5.50797 75.3627 5.31466 74.9613 4.92805C74.56 4.54143 74.3711 4.05816 74.3711 3.5024C74.3711 2.92247 74.56 2.4392 74.9613 2.05258C75.3627 1.66596 75.8349 1.47266 76.4016 1.47266C76.9682 1.47266 77.4404 1.66596 77.8418 2.05258C78.2667 2.41504 78.4556 2.89831 78.4556 3.47823ZM77.9598 25.153H74.8669V9.22916H77.9598V25.153Z" fill="#1E3582"/>
<path d="M90.9923 11.8165H86.8606V20.0804C86.8606 21.047 87.0258 21.7235 87.38 22.1343C87.7341 22.5451 88.2772 22.7626 89.0563 22.7626C89.3396 22.7626 89.6465 22.7384 89.9771 22.6659C90.3076 22.5934 90.5909 22.5209 90.8742 22.376L90.9687 24.9615C90.5909 25.1064 90.1896 25.2031 89.741 25.2756C89.2924 25.3481 88.8202 25.3964 88.348 25.3964C86.8842 25.3964 85.7509 24.9856 84.9718 24.1641C84.1926 23.3425 83.8149 22.086 83.8149 20.4429V11.8165H80.8164V9.23098H83.8149V4.66406H86.8606V9.23098H90.9923V11.8165Z" fill="#1E3582"/>
<path d="M112.265 6.2815C111.557 5.50827 110.683 4.88002 109.597 4.39675C108.511 3.93764 107.307 3.696 105.961 3.696C104.616 3.696 103.388 3.93764 102.278 4.44507C101.192 4.95251 100.248 5.62909 99.4922 6.49898C98.7366 7.36886 98.1464 8.38373 97.7214 9.54359C97.2964 10.7034 97.1076 11.9116 97.1076 13.2164C97.1076 14.5454 97.32 15.7778 97.7214 16.9376C98.1464 18.0975 98.7366 19.1124 99.4922 19.9822C100.248 20.8521 101.192 21.5287 102.325 22.012C103.435 22.4953 104.686 22.7611 106.079 22.7611C107.165 22.7611 108.181 22.6644 109.101 22.4711C110.022 22.2778 110.825 21.9878 111.51 21.6012V14.9804H106.363V12.1533H114.744V23.6793C113.516 24.3559 112.194 24.8633 110.731 25.2257C109.29 25.5882 107.708 25.7573 106.009 25.7573C104.191 25.7573 102.514 25.4432 101.003 24.8391C99.4922 24.235 98.17 23.3651 97.0839 22.2536C95.9979 21.1421 95.1243 19.8131 94.5341 18.2908C93.9202 16.7685 93.6133 15.077 93.6133 13.2406C93.6133 11.38 93.9202 9.68857 94.5577 8.1421C95.1715 6.61979 96.0451 5.2908 97.1548 4.20344C98.2644 3.11608 99.563 2.27035 101.074 1.66626C102.585 1.06217 104.214 0.748047 106.009 0.748047C107.874 0.748047 109.526 1.03801 110.99 1.59377C112.454 2.14953 113.658 2.8986 114.626 3.84098L112.265 6.2815Z" fill="#1E3582"/>
<path d="M129.572 14.8363C129.572 13.6523 129.218 12.7824 128.533 12.2025C127.825 11.6226 126.904 11.3568 125.747 11.3568C124.874 11.3568 124.047 11.5259 123.268 11.8884C122.489 12.2267 121.852 12.6858 121.308 13.2174L119.656 11.2118C120.411 10.4627 121.356 9.88278 122.465 9.472C123.575 9.03706 124.756 8.84375 126.03 8.84375C127.14 8.84375 128.108 9.0129 128.934 9.32702C129.761 9.64115 130.422 10.1003 130.965 10.656C131.484 11.2118 131.886 11.8642 132.145 12.6374C132.405 13.4107 132.547 14.2081 132.547 15.1021V21.9887C132.547 22.5203 132.57 23.1003 132.594 23.6802C132.618 24.2843 132.688 24.7675 132.783 25.13H129.997C129.832 24.3809 129.737 23.6077 129.737 22.8345H129.643C129.076 23.6802 128.368 24.3568 127.494 24.8159C126.621 25.275 125.605 25.5166 124.425 25.5166C123.811 25.5166 123.174 25.4441 122.513 25.275C121.852 25.1058 121.238 24.84 120.695 24.4534C120.152 24.0668 119.703 23.5594 119.325 22.9311C118.971 22.3029 118.782 21.5296 118.782 20.6114C118.782 19.4032 119.089 18.4367 119.727 17.7359C120.364 17.0352 121.19 16.5036 122.229 16.117C123.268 15.7545 124.425 15.5129 125.7 15.3921C126.998 15.2713 128.297 15.2229 129.596 15.2229V14.8363H129.572ZM128.816 17.5668C128.061 17.5668 127.258 17.591 126.432 17.6635C125.605 17.7359 124.874 17.8568 124.189 18.0742C123.528 18.2675 122.961 18.5817 122.536 18.9924C122.088 19.4032 121.875 19.9348 121.875 20.6114C121.875 21.0705 121.97 21.4813 122.158 21.7954C122.347 22.1095 122.583 22.3753 122.89 22.5687C123.197 22.762 123.528 22.9069 123.906 22.9794C124.283 23.0519 124.661 23.1003 125.062 23.1003C126.503 23.1003 127.612 22.6653 128.391 21.7713C129.171 20.8772 129.548 19.7657 129.548 18.4367V17.591H128.816V17.5668Z" fill="#1E3582"/>
<path d="M145.177 11.8165H141.045V20.0804C141.045 21.047 141.21 21.7235 141.565 22.1343C141.919 22.5451 142.462 22.7626 143.241 22.7626C143.524 22.7626 143.831 22.7384 144.162 22.6659C144.492 22.5934 144.776 22.5209 145.059 22.376L145.153 24.9615C144.776 25.1064 144.374 25.2031 143.926 25.2756C143.477 25.3481 143.005 25.3964 142.533 25.3964C141.069 25.3964 139.935 24.9856 139.156 24.1641C138.377 23.3425 137.999 22.086 137.999 20.4429V11.8165H135.001V9.23098H137.999V4.66406H141.045V9.23098H145.177V11.8165Z" fill="#1E3582"/>
<path d="M162.602 17.0596C162.602 17.2287 162.602 17.422 162.602 17.5912C162.602 17.7603 162.602 17.9536 162.578 18.1228H150.207C150.23 18.7994 150.372 19.4276 150.655 20.0075C150.939 20.5875 151.293 21.1191 151.765 21.554C152.214 21.989 152.757 22.3272 153.347 22.5689C153.937 22.8105 154.598 22.9313 155.259 22.9313C156.298 22.9313 157.219 22.6897 157.975 22.2306C158.73 21.7715 159.344 21.1916 159.792 20.515L161.965 22.3031C161.138 23.4388 160.147 24.2603 159.037 24.7919C157.904 25.3235 156.652 25.5893 155.283 25.5893C154.102 25.5893 153.016 25.396 152.001 24.9852C150.986 24.5745 150.136 24.0187 149.404 23.2938C148.672 22.5689 148.106 21.699 147.704 20.66C147.279 19.6209 147.09 18.4852 147.09 17.2287C147.09 15.9964 147.303 14.8607 147.704 13.8217C148.106 12.7826 148.672 11.8886 149.404 11.1395C150.136 10.3904 150.986 9.83468 151.978 9.39974C152.969 8.98896 154.032 8.77148 155.165 8.77148C156.298 8.77148 157.337 8.96479 158.281 9.35141C159.226 9.73803 160.005 10.2696 160.642 10.9945C161.28 11.7194 161.799 12.5893 162.13 13.6042C162.437 14.6432 162.602 15.7789 162.602 17.0596ZM159.462 15.7789C159.438 15.1507 159.344 14.5707 159.155 14.015C158.966 13.4592 158.706 13.0001 158.329 12.5893C157.975 12.1785 157.526 11.8644 156.983 11.6228C156.44 11.3811 155.826 11.2603 155.094 11.2603C154.433 11.2603 153.819 11.3811 153.253 11.6228C152.662 11.8644 152.166 12.1785 151.741 12.5893C151.317 13.0001 150.962 13.4592 150.703 14.015C150.419 14.5707 150.278 15.1507 150.23 15.7789H159.462Z" fill="#1E3582"/>
<path d="M180.64 25.1545H165.482V22.0374L174.737 12.6377C175.445 11.8887 176.036 11.1154 176.531 10.318C177.027 9.52065 177.287 8.60243 177.287 7.58756C177.287 6.95931 177.169 6.40355 176.956 5.89611C176.744 5.38868 176.437 4.95373 176.059 4.59128C175.681 4.22883 175.256 3.96303 174.737 3.76972C174.241 3.57641 173.698 3.47976 173.132 3.47976C171.951 3.47976 170.983 3.86637 170.204 4.63961C169.448 5.41284 168.953 6.40355 168.764 7.61173L165.647 7.08013C165.789 6.18608 166.049 5.34035 166.474 4.56712C166.899 3.79388 167.442 3.1173 168.103 2.56154C168.764 1.98162 169.519 1.54667 170.393 1.23255C171.266 0.918419 172.187 0.773438 173.155 0.773438C174.123 0.773438 175.044 0.918419 175.941 1.20838C176.838 1.49834 177.617 1.93329 178.279 2.48905C178.963 3.04481 179.506 3.74556 179.908 4.61544C180.309 5.46117 180.521 6.45188 180.521 7.53924C180.521 8.28831 180.427 9.01321 180.215 9.66563C180.026 10.318 179.742 10.9221 179.412 11.5262C179.081 12.1062 178.68 12.6619 178.208 13.1935C177.759 13.7251 177.263 14.2325 176.767 14.7641L169.212 22.279H180.592V25.1545H180.64Z" fill="#7AB2E1"/>
<path d="M196.671 17.0349H200.024V19.8138H196.671V25.1539H193.578V19.8138H182.883V16.8658L192.775 1.37695H196.671V17.0349ZM193.578 5.09814H193.507L186.141 17.0349H193.555V5.09814H193.578Z" fill="#7AB2E1"/>
</svg>
