<svg width="166" height="30" viewBox="0 0 166 30" fill="none" xmlns="http://www.w3.org/2000/svg">
<path fill-rule="evenodd" clip-rule="evenodd" d="M3.02742 17.4072H12.3428C13.2742 17.4072 13.8954 17.308 14.2056 17.1088C14.5159 16.9088 14.6718 16.4871 14.6718 15.843C14.6718 14.3096 14.1201 12.9603 13.0185 11.7945C11.916 10.6286 10.526 10.0452 8.85003 10.0452C7.23529 10.0452 5.86033 10.5986 4.72767 11.7028C3.59333 12.8062 3.02658 14.1246 3.02658 15.6579V17.4064L3.02742 17.4072ZM0 21.2032V16.018C0 13.7029 0.86857 11.7044 2.60739 10.0227C4.34788 8.34097 6.44385 7.49927 8.89698 7.49927C11.2562 7.49927 13.2985 8.30347 15.0222 9.90937C16.7451 11.5161 17.6062 13.5245 17.6062 15.9346C17.6062 16.7972 17.5055 17.4897 17.3043 18.0139C17.1014 18.5364 16.7761 18.9056 16.3259 19.1214C15.8749 19.3381 15.4641 19.4764 15.091 19.5373C14.7187 19.5989 14.2056 19.6289 13.5542 19.6289H3.02658V21.3424C3.02658 23.1641 3.68555 24.6225 5.00602 25.7175C6.32564 26.8134 8.02589 27.3609 10.1068 27.3609C11.1615 27.3609 12.0854 27.2076 12.8776 26.8984C13.6699 26.5901 14.2752 26.2817 14.6944 25.9725C15.1136 25.6642 15.4473 25.5092 15.6963 25.5092C16.0375 25.5092 16.3402 25.6717 16.6043 25.9959C16.8675 26.3201 17 26.6359 17 26.9443C17 27.5926 16.3318 28.2635 14.9971 28.9585C13.6615 29.6527 11.9998 30.0002 10.0137 30.0002C7.06258 30.0002 4.65641 29.1902 2.79351 27.5701C0.931449 25.9484 0 23.8275 0 21.2032ZM20.9597 26.6667C20.9597 26.3584 21.0704 26.0492 21.2917 25.74C21.513 25.4325 21.7671 25.2775 22.0513 25.2775C22.2726 25.2775 22.6214 25.4559 23.0951 25.8109C23.5696 26.1651 24.2495 26.5276 25.1357 26.8976C26.0211 27.2693 27.0816 27.4534 28.3157 27.4534C29.9925 27.4534 31.2249 27.1451 32.0172 26.5284C32.807 25.9109 33.2027 25.1242 33.2027 24.1666C33.2027 23.0549 32.8003 22.1674 31.9937 21.5032C31.1864 20.8398 30.213 20.3398 29.0736 20.0031L25.6337 18.9839C24.5099 18.6617 23.4938 18.0452 22.6918 17.1988C21.8853 16.3505 21.482 15.2154 21.482 13.7962C21.482 12.0995 22.1058 10.6244 23.3558 9.37435C24.605 8.1243 26.4797 7.49927 28.9797 7.49927C30.5291 7.49927 31.977 7.73845 33.3226 8.21764C34.6665 8.69599 35.3389 9.21268 35.3389 9.7677C35.3389 10.076 35.2115 10.4161 34.9591 10.7869C34.7059 11.1569 34.4058 11.3428 34.0578 11.3428C33.9623 11.3428 33.3771 11.1261 32.3014 10.6944C31.2627 10.2695 30.1508 10.0493 29.0275 10.046C27.4446 10.046 26.2583 10.4094 25.4686 11.1344C24.6771 11.8595 24.2814 12.6762 24.2814 13.5829C24.2814 14.5204 24.6922 15.2621 25.5122 15.8063C26.3321 16.3505 27.313 16.7872 28.4541 17.1172L31.9225 18.1189C33.0937 18.4572 34.0754 19.1289 34.8652 20.1323C35.6566 21.1365 36.0507 22.4349 36.0507 24.0275C36.0507 25.8792 35.3783 27.3384 34.0335 28.4027C32.6888 29.4677 30.8141 30.0002 28.4105 30.0002C26.3229 30.0002 24.5581 29.6377 23.1186 28.9118C21.679 28.1868 20.9597 27.4384 20.9597 26.6667ZM38.5659 20.6807V8.62849C38.5659 8.35681 38.7126 8.1018 39.006 7.86012C39.2994 7.62011 39.6625 7.49927 40.0959 7.49927C40.4648 7.49927 40.8052 7.62011 41.1146 7.85929C41.4231 8.10013 41.5773 8.35598 41.5773 8.62515V20.6498C41.5773 22.1499 42.1483 23.4866 43.2919 24.6575C44.4337 25.8284 45.7936 26.4134 47.3689 26.4134C48.9443 26.4134 50.3033 25.8284 51.446 24.6575C52.5887 23.4866 53.1605 22.1499 53.1605 20.649V8.58099C53.1605 8.28097 53.3148 8.02513 53.6241 7.81512C53.9376 7.60336 54.3092 7.49305 54.6881 7.49927C55.0896 7.49927 55.4367 7.60511 55.731 7.81595C56.0244 8.02596 56.1712 8.28264 56.1712 8.58265V20.6807C56.1712 22.9374 55.2984 24.9167 53.5537 26.6167C51.809 28.3168 49.7474 29.1668 47.3689 29.1668C44.9602 29.1668 42.8903 28.3168 41.1607 26.6167C39.4302 24.9167 38.5659 22.9374 38.5659 20.6807ZM74.1596 23.6108C74.1596 24.9067 74.5268 25.8725 75.2604 26.5042C75.9957 27.1376 76.959 27.4543 78.152 27.4543C79.5899 27.4543 80.9581 26.9143 82.2593 25.8334C83.5588 24.7533 84.2094 23.6733 84.2094 22.5924V19.6289H82.2819C81.0579 19.6289 80.0258 19.6756 79.1849 19.7681C78.3372 19.862 77.4998 20.0325 76.6832 20.2773C75.8574 20.5248 75.2302 20.9257 74.8018 21.4807C74.3743 22.0365 74.1596 22.7474 74.1596 23.6108ZM78.6584 10.0269L70.2427 10.3236C68.6514 10.3236 67.2438 10.9469 66.0214 12.1945C64.7973 13.4412 64.1853 15.0663 64.1853 17.0672V28.476C64.1853 28.7835 64.0394 29.061 63.7494 29.3069C63.4584 29.5535 63.0988 29.676 62.6704 29.676C62.273 29.676 61.9292 29.5535 61.6391 29.3052C61.3474 29.0585 61.2023 28.781 61.2023 28.4718V8.88933C61.2023 8.58099 61.3398 8.31847 61.6157 8.1018C61.8906 7.88679 62.2419 7.77762 62.6704 7.77762C63.0686 7.77762 63.4048 7.88762 63.6806 8.1068C63.9556 8.32514 64.0939 8.59015 64.0939 8.9035V11.2019C64.6439 10.1719 65.4546 9.29768 66.5253 8.57765C67.5967 7.85929 68.835 7.49927 70.2427 7.49927H79.029H78.8865C81.7621 7.49927 83.8648 8.34097 85.1962 10.0227C86.5267 11.7053 87.1924 13.842 87.1924 16.4355V28.4727C87.1924 28.8118 87.0549 29.0977 86.779 29.3294C86.5041 29.5602 86.1519 29.676 85.7243 29.676C85.3261 29.676 84.9966 29.5602 84.7376 29.3294C84.6131 29.2239 84.5136 29.0924 84.4462 28.9444C84.3788 28.7963 84.3452 28.6352 84.3477 28.4727V26.4351C82.2962 28.8118 79.9881 30.0002 77.4168 30.0002C75.5807 30.0002 74.0825 29.4835 72.9196 28.4493C71.7568 27.4159 71.1758 25.8959 71.1758 23.8891C71.1758 21.4607 72.0854 19.7723 73.9064 18.8264C75.7257 17.8797 78.3809 17.4064 81.8686 17.4064H84.2085V16.3171C84.2085 14.6512 83.7642 13.2053 82.878 11.9786C81.9893 10.7519 80.6295 10.0269 78.7934 10.0269H78.6584ZM92.2227 27.991V8.85683C92.2227 8.52515 92.3644 8.26097 92.6461 8.06513C92.9286 7.86929 93.2891 7.77095 93.7293 7.77095C94.1057 7.77095 94.4352 7.87846 94.7186 8.0918C95.0003 8.30597 95.142 8.56598 95.142 8.87183V10.9811C95.6752 10.0052 96.4901 9.17934 97.5901 8.50765C98.6875 7.83595 99.9736 7.49927 101.449 7.49927C103.709 7.49927 105.67 8.32931 107.334 9.98771C108.996 11.6461 109.829 13.637 109.829 15.9588V27.991C109.829 28.3526 109.671 28.6393 109.358 28.8493C109.038 29.0623 108.661 29.1731 108.276 29.1668C107.906 29.1692 107.545 29.059 107.24 28.851C106.925 28.6402 106.769 28.3551 106.769 27.9943V15.9896C106.769 14.5162 106.188 13.192 105.027 12.0186C103.865 10.8461 102.485 10.2586 100.885 10.2586C99.4094 10.2586 98.1065 10.7861 96.9772 11.8386C95.847 12.892 95.282 14.2754 95.282 15.9896V27.9943C95.282 28.2943 95.126 28.566 94.8125 28.806C94.4981 29.0468 94.1367 29.1668 93.7293 29.1668C93.2891 29.1668 92.9286 29.0468 92.6461 28.8052C92.3644 28.5635 92.2227 28.2926 92.2227 27.991ZM113.182 21.2032V16.2496C113.182 13.657 113.947 11.5503 115.478 9.93021C117.008 8.31014 119.257 7.49927 122.224 7.49927C124.099 7.49927 125.668 7.83095 126.934 8.49431C128.198 9.15934 128.831 9.8302 128.831 10.5086C128.831 10.8486 128.69 11.1803 128.409 11.5044C128.128 11.8286 127.816 11.9903 127.472 11.9903C127.285 11.9903 126.996 11.8553 126.605 11.5853C126.214 11.3144 125.66 11.0369 124.942 10.7519C124.223 10.4669 123.365 10.3236 122.365 10.3236C120.366 10.3236 118.843 10.8461 117.796 11.8886C116.75 12.9328 116.228 14.3912 116.228 16.2638V21.189C116.228 23.0941 116.75 24.5667 117.796 25.61C118.843 26.6542 120.382 27.1751 122.412 27.1751C123.474 27.1751 124.372 27.0334 125.106 26.7476C125.84 26.4626 126.401 26.1767 126.792 25.8909C127.183 25.6067 127.488 25.4625 127.706 25.4625C128.112 25.4625 128.447 25.6175 128.714 25.9259C128.978 26.2342 129.112 26.5742 129.112 26.9443C129.112 27.6543 128.455 28.341 127.144 29.0043C125.833 29.6685 124.208 30.0002 122.271 30.0002C119.273 30.0002 117.008 29.1985 115.478 27.5926C113.947 25.9884 113.182 23.8583 113.182 21.2032ZM134.654 17.4072H143.97C144.902 17.4072 145.522 17.308 145.833 17.1088C146.143 16.9088 146.299 16.4871 146.299 15.843C146.299 14.3096 145.747 12.9603 144.645 11.7945C143.543 10.6286 142.155 10.0452 140.477 10.0452C138.861 10.0452 137.488 10.5986 136.355 11.7028C135.221 12.8062 134.654 14.1246 134.654 15.6588V17.4072ZM131.627 21.2032V16.018C131.627 13.7029 132.496 11.7044 134.235 10.0227C135.974 8.34097 138.07 7.49927 140.523 7.49927C142.883 7.49927 144.925 8.30347 146.648 9.90937C148.371 11.5161 149.233 13.5245 149.233 15.9346C149.233 16.7972 149.132 17.4897 148.93 18.0139C148.728 18.5364 148.402 18.9056 147.952 19.1214C147.502 19.3381 147.09 19.4764 146.718 19.5373C146.346 19.5989 145.833 19.6289 145.181 19.6289H134.654V21.3424C134.654 23.1641 135.313 24.6225 136.633 25.7175C137.953 26.8134 139.652 27.3609 141.733 27.3609C142.789 27.3609 143.713 27.2076 144.505 26.8984C145.296 26.5901 145.902 26.2817 146.321 25.9725C146.741 25.6642 147.074 25.5092 147.323 25.5092C147.664 25.5092 147.966 25.6717 148.231 25.9959C148.494 26.3201 148.627 26.6359 148.627 26.9443C148.627 27.5926 147.959 28.2635 146.623 28.9585C145.288 29.6527 143.627 30.0002 141.64 30.0002C138.69 30.0002 136.283 29.1902 134.421 27.5701C132.558 25.9484 131.626 23.8275 131.626 21.2032H131.627Z" fill="#231F20"/>
<path fill-rule="evenodd" clip-rule="evenodd" d="M165.84 1.68384L156.859 16.1311C156.734 16.3311 156.55 16.4874 156.331 16.5783C156.113 16.6693 155.871 16.6904 155.64 16.6386C155.409 16.5889 155.2 16.4682 155.042 16.2937C154.884 16.1191 154.785 15.8995 154.76 15.6661L153.949 8.07411C153.932 7.90115 153.875 7.7345 153.782 7.58758C153.688 7.44067 153.562 7.31758 153.412 7.22824L147.272 3.65226C147.067 3.53358 146.905 3.35292 146.81 3.13651C146.715 2.9201 146.692 2.67922 146.744 2.44887C146.853 1.97719 147.255 1.62717 147.746 1.58217L164.771 0.00377036H164.772C165.194 -0.0303977 165.602 0.169611 165.827 0.524626C166.052 0.878807 166.057 1.32633 165.841 1.68467L165.84 1.68384Z" fill="#16A0CF"/>
</svg>
