<svg width="172" height="30" viewBox="0 0 172 30" fill="none" xmlns="http://www.w3.org/2000/svg">
<path fill-rule="evenodd" clip-rule="evenodd" d="M156.53 18.7661L154.974 23.0843L154.906 23.2906L154.83 23.5054L154.756 23.7218L154.685 23.9265L154.611 24.1412L154.535 24.3374L154.471 24.5522L154.391 24.7669L154.282 25.1525L154.153 25.5516L154.045 25.9439L153.917 26.338L153.853 26.1046L153.796 25.8695L153.726 25.6378L153.664 25.4028L153.59 25.1525L153.5 24.909L153.426 24.6553L153.34 24.4118L153.254 24.17L153.173 23.9265L153.087 23.6829L152.997 23.4394L151.341 18.7669H148.833L147.266 29.7388H149.601L150.178 24.701L150.197 24.4964L150.235 24.3086L150.254 24.104L150.278 23.9079L150.293 23.7015L150.323 23.5138L150.328 23.3194L150.352 23.113L150.357 22.7951L150.369 22.4958L150.386 22.1863V21.8701L150.457 22.1238L150.521 22.3757L150.588 22.6176L150.674 22.8611L150.767 23.2061L150.889 23.5612L151.005 23.8994L151.127 24.2342L153.161 29.7388H154.668L156.53 24.5708L156.65 24.2342L156.755 23.8893L156.883 23.5341L156.998 23.1875L157.101 22.8425L157.211 22.4958L157.315 22.1407L157.415 21.7957V22.3554L157.418 22.626L157.432 22.9152L157.46 23.2906L157.501 23.6829L157.535 24.0668L157.575 24.4592L158.239 29.7388H160.594L159.013 18.7661H156.53ZM14.6273 5.34473V14.9501H5.41878V5.34473H0V29.7388H5.41878V19.6869H14.6273V29.7388H20.0478V5.34473H14.6273ZM33.0748 5.34473H25.6861V29.7388H30.9191V19.4451L37.5027 29.7388H43.9124L36.7304 19.3791L37.2622 19.2574L37.7179 19.1356L38.0893 19.0324L38.4303 18.9208L38.7055 18.8177L38.9621 18.7061L39.2187 18.5657L39.4854 18.4067L39.6576 18.2951L39.8365 18.1649L39.9986 18.0245L40.1691 17.8943L40.321 17.7421L40.4729 17.5933L40.6248 17.436L40.7481 17.2754L40.8899 17.1164L41.0047 16.949L41.1279 16.7714L41.241 16.5956L41.3558 16.4079L41.4605 16.2303L41.5449 16.0426L41.6411 15.8566L41.7255 15.6503L41.8014 15.4642L41.8774 15.2596L41.9449 15.0618L42.0125 14.8571L42.0597 14.6508L42.1154 14.4462L42.1644 14.2399L42.2015 14.0251L42.2285 13.8289L42.2691 13.6142L42.2876 13.3994L42.3248 12.9783L42.3332 12.5657L42.3248 12.2681L42.2961 11.8859L42.2775 11.661L42.2488 11.4191L42.2117 11.1655L42.1644 10.8864L42.0969 10.604L42.0125 10.3149L41.9264 10.0257L41.8014 9.71959L41.6799 9.41012L41.528 9.10065L41.3659 8.80301L41.165 8.49523L41.0131 8.27032L40.8612 8.05555L40.7008 7.85938L40.5202 7.67167L40.348 7.4755L40.1691 7.30809L39.9884 7.14743L39.8078 6.99016L39.6086 6.85825L39.4179 6.71959L39.2085 6.58768L39.0093 6.46761L38.7916 6.35431L38.5738 6.25115L38.3645 6.15814L38.145 6.06513L37.9171 5.98058L37.6994 5.90617L37.4715 5.83176L37.2335 5.76581L36.9971 5.71L36.7591 5.66265L36.5211 5.60685L36.2848 5.56964L35.7901 5.49523L35.2972 5.43943L34.8026 5.40222L34.3097 5.37348L34.0531 5.36502L33.8066 5.35318H33.5669L33.3221 5.34473H33.074H33.0748ZM30.9681 9.58768H32.7912L33.2757 9.61474L33.767 9.64349L34.0067 9.67223L34.243 9.70775L34.4793 9.74664L34.719 9.80245L34.9469 9.87686L35.1546 9.95126L35.374 10.0443L35.5918 10.1474L35.791 10.2793L35.9817 10.4282L36.1708 10.5871L36.3413 10.7731L36.4544 10.9135L36.5709 11.0539L36.6654 11.2044L36.7414 11.3532L36.8072 11.502L36.8545 11.6525L36.9102 11.7827L36.9406 11.9231L37.0064 12.1852L37.0267 12.4186L37.0554 12.6232V12.9225L37.0351 13.0815L37.0165 13.2218L36.998 13.3605L36.9507 13.6142L36.8933 13.8475L36.8173 14.042L36.7414 14.2213L36.6654 14.3718L36.5895 14.502L36.5135 14.6221L36.4375 14.7438L36.3497 14.8571L36.2569 14.9704L36.1708 15.0618L36.0763 15.1548L35.9716 15.241L35.8771 15.3137L35.7724 15.3898L35.6678 15.4642L35.5547 15.5302L35.45 15.5758L35.2221 15.679L34.9841 15.772L34.7376 15.8278L34.4895 15.8938L34.2346 15.9411L33.9662 15.9699L33.7028 15.9885L33.4344 15.9952L33.1711 16.0155L32.8959 16.024H30.9681V9.58768ZM66.0265 5.34473L62.5827 14.9501L62.419 15.4169L62.2586 15.8836L62.0898 16.3521L61.9295 16.8087L61.7657 17.2855L61.6053 17.7523L61.4365 18.2207L61.2812 18.6773L61.1495 19.1254L61.0162 19.555L60.8828 19.9947L60.7495 20.4259L60.6178 20.8639L60.4946 21.3019L60.3629 21.7331L60.2177 22.1829L60.1536 21.9107L60.0962 21.6587L60.027 21.3966L59.9527 21.1345L59.8885 20.8825L59.8143 20.6119L59.7332 20.3583L59.6573 20.0978L59.4885 19.5465L59.3112 18.9952L59.1255 18.4541L58.9398 17.9112L58.7508 17.3701L58.5583 16.8374L58.3693 16.2861L58.1903 15.745L54.4968 5.34473H48.9328L45.4486 29.7388H50.6226L51.9224 18.5471L51.9815 18.099L52.0271 17.6694L52.0845 17.2213L52.1216 16.7816L52.179 16.3419L52.2263 15.9022L52.2651 15.4642L52.3141 15.0161L52.3225 14.6694L52.3309 14.3244L52.3495 13.9795L52.3596 13.6328V13.2962L52.3782 12.9513V12.5961L52.39 12.2495L52.4643 12.5386L52.5403 12.8194L52.6061 13.0984L52.6821 13.3723L52.758 13.6429L52.834 13.922L52.9201 14.1942L53.0146 14.4648L53.1294 14.847L53.2341 15.241L53.3657 15.6232L53.4805 15.9952L53.6122 16.3791L53.7557 16.763L53.8874 17.1266L54.0309 17.5105L58.5296 29.7388H61.9109L66.0265 18.2664L66.2915 17.5003L66.5515 16.7241L66.7996 15.9597L67.0663 15.1835L67.2925 14.4174L67.539 13.6328L67.7669 12.8667L68.0032 12.0804V13.6328L68.0133 13.9507L68.0201 14.2585L68.042 14.5747L68.0707 14.9975L68.1011 15.427L68.1349 15.8566L68.1754 16.2861L68.221 16.7055L68.2801 17.1367L68.3138 17.5663L68.3425 17.9958L69.8331 29.7388H75.0645L71.5567 5.34473H66.0265ZM92.1523 18.4668H91.899L91.5749 18.4955L91.3842 18.5226L91.1816 18.5615L90.974 18.6156L90.7646 18.6731L90.5469 18.7492L90.3207 18.8608L90.0945 18.9724L89.8818 19.1128L89.7771 19.1973L89.6691 19.2802L89.5627 19.3664L89.4547 19.4679L89.35 19.5609L89.2454 19.6827L89.1525 19.796L89.0664 19.9262L88.9803 20.0479L88.8993 20.1968L88.7879 20.376L88.6967 20.5908L88.6562 20.7024L88.6208 20.8343L88.5819 20.9645L88.5465 21.0947L88.5245 21.2452L88.506 21.4042L88.5009 21.5632V21.9842L88.5245 22.2193L88.5752 22.4442L88.6208 22.6488L88.6967 22.8433L88.771 23.031L88.8588 23.2001L88.9516 23.3591L89.0563 23.5096L89.166 23.6398L89.269 23.7616L89.3618 23.8647L89.5627 24.0609L89.7315 24.1928L89.9105 24.3332L90.113 24.4634L90.3038 24.5851L90.5114 24.7069L90.7072 24.8185L90.9149 24.9217L91.1293 25.0333L91.3437 25.1364L91.5175 25.221L91.7083 25.3055L91.9159 25.3986L92.1134 25.5102L92.3143 25.6319L92.5051 25.774L92.5861 25.8399L92.6671 25.9228L92.7313 25.9972L92.7988 26.0818L92.8342 26.1562L92.8815 26.212L92.9102 26.2864L92.9338 26.3709L92.9625 26.447L92.9794 26.5299L92.9845 26.6145V26.699L92.9794 26.8394L92.9625 26.9696L92.9203 27.0913L92.8815 27.2131L92.8174 27.3264L92.7482 27.4279L92.6671 27.531L92.581 27.6257L92.4814 27.6984L92.3785 27.7745L92.267 27.832L92.1523 27.8878L92.0206 27.9149L91.899 27.9521L91.7657 27.9707H91.4466L91.2863 27.9521L91.136 27.9048L90.9858 27.8591L90.8406 27.7931L90.7022 27.7289L90.5688 27.6426L90.4422 27.5598L90.3089 27.4668L90.2008 27.3535L90.0725 27.2503L89.9679 27.1488L89.7484 26.9222L89.5526 26.699L87.9405 28.4476L88.0316 28.5406L88.1768 28.6725L88.3557 28.8399L88.5752 29.0192L88.8183 29.1951L89.0951 29.3845L89.2454 29.4673L89.4023 29.5417L89.5627 29.6178L89.7315 29.6922L89.875 29.7379L90.0084 29.7768L90.1586 29.8225L90.3089 29.8512L90.5975 29.9172L90.8642 29.9459L91.1073 29.9814L91.3251 29.9916L91.499 30H91.7539L91.9328 29.9916L92.1708 29.973L92.4359 29.9256L92.7195 29.8698L93.0368 29.7853L93.1871 29.7379L93.3373 29.6838L93.4943 29.6077L93.6496 29.5333L93.7948 29.4487L93.9264 29.3743L94.0429 29.2898L94.1459 29.2052L94.3366 29.075L94.4413 28.9532L94.6034 28.8044L94.7722 28.6083L94.8684 28.4865L94.9494 28.3732L95.0355 28.2328L95.1233 28.084L95.2145 27.9251L95.2752 27.7458L95.3495 27.5682L95.4069 27.3738L95.4457 27.1573L95.493 26.9324L95.5099 26.699V26.212L95.493 25.9972L95.4643 25.7824L95.4069 25.5846L95.3495 25.3986L95.2854 25.2311L95.228 25.0705L95.1402 24.9217L95.0642 24.7915L94.9714 24.6596L94.8752 24.5564L94.7941 24.4549L94.6084 24.2571L94.4413 24.1066L94.2793 23.9865L94.1172 23.8647L93.9551 23.7616L93.7661 23.6483L93.5449 23.5367L93.2917 23.4166L92.9845 23.2745L92.6266 23.1156L92.4021 23.0226L92.1523 22.8924L92.0206 22.8349L91.8754 22.7605L91.7539 22.686L91.6222 22.6015L91.5057 22.5068L91.4011 22.4053L91.2863 22.3022L91.2052 22.1906L91.1293 22.0586L91.0786 21.9183L91.0482 21.854L91.0432 21.7779L91.0314 21.7035L91.0195 21.6291L91.0314 21.5074L91.0482 21.4042L91.0786 21.3027L91.1191 21.208L91.1765 21.1066L91.239 21.0203L91.2964 20.9476L91.3724 20.8901L91.4601 20.8242L91.5462 20.7683L91.6509 20.721L91.7421 20.6838L91.8467 20.6567L91.9497 20.6364L92.0662 20.6094H92.1809L92.3498 20.6195L92.5101 20.6567L92.6671 20.6956L92.8174 20.7497L92.9507 20.8242L93.0723 20.8986L93.1989 20.9831L93.3018 21.0677L93.4943 21.2452L93.6428 21.4127L93.7593 21.5632L93.8235 21.6562L95.3782 19.9448L95.1925 19.7486L94.8971 19.4594L94.6962 19.2988L94.4869 19.1415L94.3653 19.0671L94.2506 18.9809L94.1172 18.9166L93.9838 18.8523L93.8403 18.7948L93.7019 18.739L93.5567 18.6917L93.4065 18.6443L93.1398 18.5801L92.8815 18.5327L92.6452 18.4955L92.4308 18.4752L92.267 18.4668H92.1523ZM106.305 18.7661L104.096 22.9541L101.995 18.7669H99.1739L102.872 24.8227V29.7388H105.312V24.7297L109.027 18.7669L106.305 18.7661ZM116.117 18.4668H115.876L115.54 18.4955L115.361 18.5226L115.164 18.5615L114.956 18.6156L114.736 18.6731L114.529 18.7492L114.303 18.8608L114.083 18.9724L113.859 19.1128L113.754 19.1973L113.649 19.2802L113.535 19.3664L113.43 19.4679L113.339 19.5609L113.239 19.6827L113.136 19.796L113.042 19.9262L112.967 20.0479L112.871 20.1968L112.778 20.376L112.69 20.5908L112.645 20.7024L112.603 20.8343L112.569 20.9645L112.54 21.0947L112.512 21.2452L112.495 21.4042L112.471 21.5632V21.7306L112.483 21.9842L112.512 22.2193L112.552 22.4442L112.615 22.6488L112.685 22.8433L112.766 23.031L112.853 23.2001L112.945 23.3591L113.042 23.5096L113.136 23.6398L113.253 23.7616L113.344 23.8647L113.535 24.0609L113.703 24.1928L113.892 24.3332L114.083 24.4634L114.274 24.5851L114.483 24.7069L114.689 24.8185L114.898 24.9217L115.106 25.0333L115.315 25.1364L115.488 25.221L115.683 25.3055L115.881 25.3986L116.089 25.5102L116.293 25.6319L116.482 25.774L116.563 25.8399L116.637 25.9228L116.718 25.9972L116.771 26.0818L116.823 26.1562L116.847 26.212L116.885 26.2864L116.914 26.3709L116.933 26.447L116.944 26.5299L116.961 26.6145V26.8394L116.933 26.9696L116.899 27.0913L116.847 27.2131L116.781 27.3264L116.723 27.4279L116.649 27.531L116.556 27.6257L116.453 27.6984L116.35 27.7745L116.246 27.832L116.117 27.8878L115.996 27.9149L115.864 27.9521L115.729 27.9707H115.435L115.273 27.9521L115.118 27.9048L114.963 27.8591L114.823 27.7931L114.689 27.7289L114.546 27.6426L114.412 27.5598L114.303 27.4668L114.169 27.3535L114.066 27.2503L113.938 27.1488L113.732 26.9222L113.535 26.699L111.916 28.4476L112.02 28.5406L112.154 28.6725L112.333 28.8399L112.552 29.0192L112.807 29.1951L113.089 29.3845L113.222 29.4673L113.384 29.5417L113.545 29.6178L113.703 29.6922L113.845 29.7379L113.997 29.7768L114.141 29.8225L114.291 29.8512L114.569 29.9172L114.841 29.9459L115.076 29.9814L115.297 29.9916L115.464 30H115.719L115.921 29.9916L116.146 29.973L116.413 29.9256L116.695 29.8698L117.002 29.7853L117.152 29.7379L117.312 29.6838L117.476 29.6077L117.626 29.5333L117.765 29.4487L117.898 29.3743L118.025 29.2898L118.13 29.2052L118.297 29.075L118.418 28.9532L118.58 28.8044L118.752 28.6083L118.84 28.4865L118.933 28.3732L119.019 28.2328L119.1 28.084L119.174 27.9251L119.255 27.7458L119.318 27.5682L119.365 27.3738L119.423 27.1573L119.451 26.9324L119.482 26.699L119.493 26.447L119.482 26.212L119.451 25.9972L119.423 25.7824L119.389 25.5846L119.33 25.3986L119.261 25.2311L119.186 25.0705L119.112 24.9217L119.026 24.7915L118.943 24.6596L118.857 24.5564L118.757 24.4549L118.58 24.2571L118.418 24.1066L118.261 23.9865L118.099 23.8647L117.927 23.7616L117.734 23.6483L117.51 23.5367L117.267 23.4166L116.961 23.2745L116.592 23.1156L116.379 23.0226L116.117 22.8924L115.996 22.8349L115.864 22.7605L115.729 22.686L115.609 22.6015L115.488 22.5068L115.373 22.4053L115.273 22.3022L115.182 22.1906L115.118 22.0586L115.047 21.9183L115.03 21.854L115.018 21.7779L115.001 21.7035V21.5074L115.03 21.4042L115.061 21.3027L115.106 21.208L115.14 21.1066L115.211 21.0203L115.273 20.9476L115.354 20.8901L115.435 20.8242L115.521 20.7683L115.614 20.721L115.719 20.6838L115.822 20.6567L115.933 20.6364L116.043 20.6094H116.158L116.325 20.6195L116.489 20.6567L116.637 20.6956L116.781 20.7497L116.928 20.8242L117.053 20.8986L117.169 20.9831L117.284 21.0677L117.464 21.2452L117.626 21.4127L117.729 21.5632L117.794 21.6562L119.347 19.9448L119.158 19.7486L118.857 19.4594L118.666 19.2988L118.459 19.1415L118.342 19.0671L118.209 18.9809L118.087 18.9166L117.956 18.8523L117.816 18.7948L117.66 18.739L117.527 18.6917L117.388 18.6443L117.107 18.5801L116.847 18.5327L116.614 18.4955L116.413 18.4752L116.246 18.4668H116.117ZM123.29 18.7661V20.9053H125.67V29.7388H128.098V20.8791H130.485V18.7661H123.29ZM135.644 18.7661V29.7388H141.988V27.5513H138.072V25.1973H141.909V23.075H138.072V20.8884H142.007V18.7661H135.644ZM168.625 18.4668H168.376L168.053 18.4955L167.862 18.5226L167.672 18.5615L167.464 18.6156L167.251 18.6731L167.03 18.7492L166.811 18.8608L166.585 18.9724L166.355 19.1128L166.25 19.1973L166.146 19.2802L166.031 19.3664L165.938 19.4679L165.835 19.5609L165.735 19.6827L165.643 19.796L165.538 19.9262L165.464 20.0479L165.367 20.1968L165.28 20.376L165.187 20.5908L165.14 20.7024L165.099 20.8343L165.07 20.9645L165.035 21.0947L165.008 21.2452L164.996 21.4042L164.979 21.5632L164.967 21.7306L164.979 21.9842L165.013 22.2193L165.053 22.4442L165.111 22.6488L165.175 22.8433L165.261 23.031L165.349 23.2001L165.442 23.3591L165.538 23.5096L165.643 23.6398L165.747 23.7616L165.852 23.8647L166.031 24.0609L166.21 24.1928L166.396 24.3332L166.585 24.4634L166.794 24.5851L166.985 24.7069L167.191 24.8185L167.4 24.9217L167.608 25.0333L167.815 25.1364L167.996 25.221L168.187 25.3055L168.389 25.3986L168.597 25.5102L168.803 25.6319L168.983 25.774L169.071 25.8399L169.145 25.9228L169.22 25.9972L169.277 26.0818L169.324 26.1562L169.353 26.212L169.394 26.2864L169.424 26.3709L169.439 26.447L169.458 26.5299L169.47 26.6145V26.8394L169.439 26.9696L169.41 27.0913L169.353 27.2131L169.306 27.3264L169.232 27.4279L169.157 27.531L169.071 27.6257L168.966 27.6984L168.862 27.7745L168.745 27.832L168.625 27.8878L168.511 27.9149L168.376 27.9521L168.242 27.9707H167.937L167.783 27.9521L167.619 27.9048L167.464 27.8591L167.326 27.7931L167.191 27.7289L167.059 27.6426L166.927 27.5598L166.799 27.4668L166.677 27.3535L166.563 27.2503L166.458 27.1488L166.239 26.9222L166.031 26.699L164.429 28.4476L164.522 28.5406L164.667 28.6725L164.836 28.8399L165.053 29.0192L165.303 29.1951L165.585 29.3845L165.73 29.4673L165.892 29.5417L166.053 29.6178L166.21 29.6922L166.341 29.7379L166.498 29.7768L166.649 29.8225L166.794 29.8512L167.076 29.9172L167.354 29.9459L167.597 29.9814L167.805 29.9916L167.965 30H168.225L168.423 29.9916L168.659 29.973L168.921 29.9256L169.215 29.8698L169.503 29.7853L169.665 29.7379L169.821 29.6838L169.984 29.6077L170.135 29.5333L170.283 29.4487L170.411 29.3743L170.533 29.2898L170.636 29.2052L170.808 29.075L170.931 28.9532L171.093 28.8044L171.261 28.6083L171.347 28.4865L171.445 28.3732L171.526 28.2328L171.612 28.084L171.688 27.9251L171.764 27.7458L171.833 27.5682L171.895 27.3738L171.936 27.1573L171.976 26.9324L171.995 26.699L172 26.447L171.995 26.212L171.976 25.9972L171.936 25.7824L171.895 25.5846L171.843 25.3986L171.775 25.2311L171.7 25.0705L171.625 24.9217L171.537 24.7915L171.45 24.6596L171.365 24.5564L171.272 24.4549L171.099 24.2571L170.931 24.1066L170.769 23.9865L170.607 23.8647L170.435 23.7616L170.248 23.6483L170.035 23.5367L169.78 23.4166L169.47 23.2745L169.105 23.1156L168.892 23.0226L168.625 22.8924L168.497 22.8349L168.366 22.7605L168.242 22.686L168.111 22.6015L167.996 22.5068L167.874 22.4053L167.783 22.3022L167.694 22.1906L167.619 22.0586L167.562 21.9183L167.54 21.854L167.521 21.7779L167.515 21.7035V21.5074L167.533 21.4042L167.562 21.3027L167.608 21.208L167.648 21.1066L167.712 21.0203L167.783 20.9476L167.862 20.8901L167.937 20.8242L168.036 20.7683L168.129 20.721L168.225 20.6838L168.337 20.6567L168.447 20.6364L168.55 20.6094H168.659L168.833 20.6195L168.995 20.6567L169.157 20.6956L169.296 20.7497L169.429 20.8242L169.561 20.8986L169.677 20.9831L169.792 21.0677L169.984 21.2452L170.135 21.4127L170.238 21.5632L170.312 21.6562L171.862 19.9448L171.671 19.7486L171.365 19.4594L171.186 19.2988L170.965 19.1415L170.855 19.0671L170.729 18.9809L170.607 18.9166L170.464 18.8523L170.324 18.7948L170.192 18.739L170.035 18.6917L169.897 18.6443L169.62 18.5801L169.353 18.5327L169.117 18.4955L168.921 18.4752L168.757 18.4668H168.625Z" fill="#1F1A17"/>
<path fill-rule="evenodd" clip-rule="evenodd" d="M79.2832 12.3551H91.8325V0H79.2832V12.3551Z" fill="#00A1E4"/>
</svg>
