<svg width="84" height="80" viewBox="0 0 84 80" fill="none" xmlns="http://www.w3.org/2000/svg">
<path d="M39.818 31.4699C44.0635 31.4699 48.0522 29.8307 51.024 26.8761C53.9958 23.9215 55.6446 19.8871 55.6446 15.735H51.5966C51.5966 18.8172 50.3921 21.7816 48.1805 23.9804C45.969 26.1791 42.9873 27.3767 39.8872 27.3767C37.2905 27.3767 34.8223 26.562 32.7292 24.9816L49.1876 8.6184L52.1001 5.7227C51.7842 5.34969 51.3991 4.90797 51.024 4.52515C48.0423 1.63926 44.0536 0 39.818 0C35.5726 0 31.5839 1.63926 28.6121 4.59386C22.4711 10.6994 22.4711 20.7117 28.6121 26.8761C31.653 29.8307 35.5726 31.4699 39.818 31.4699ZM31.5247 7.48957C33.7362 5.2908 36.7179 4.09325 39.818 4.09325C42.0987 4.09325 44.3103 4.72147 46.2158 5.97791L29.9351 22.0957C27.0226 17.5607 27.536 11.4552 31.5247 7.48957Z" fill="#FF001E"/>
<path d="M14.8096 29.3979C17.6629 29.3979 20.378 30.5268 22.402 32.5489L32.9168 42.9243L35.7701 40.0875L25.2553 29.6433C22.4711 26.8752 18.7391 25.3047 14.8096 25.3047C10.8801 25.3047 7.14809 26.8163 4.36389 29.6433C1.51058 32.4114 0 36.1219 0 40.0875C0 43.9943 1.52045 47.7047 4.36389 50.4728L14.8688 60.917L17.7221 58.0801L7.20733 47.6458C5.18336 45.6335 4.03808 42.9243 4.03808 40.0973C4.03808 37.2703 5.17348 34.5611 7.20733 32.5489C9.24118 30.4679 11.9563 29.3979 14.8096 29.3979Z" fill="#FF001E"/>
<path d="M73.4952 29.4578C70.711 26.6897 66.979 25.1191 63.0495 25.1191C59.1201 25.1191 55.3288 26.6897 52.5446 29.4578C46.7787 35.1903 46.7787 44.5645 52.5446 50.2872L63.0495 60.7314L65.9029 57.8946L55.4572 47.3915C51.2809 43.2394 51.2809 36.4369 55.4572 32.2848C57.4811 30.2725 60.2061 29.1339 63.0495 29.1339C65.893 29.1339 68.6179 30.2627 70.6419 32.2848L81.1469 42.729L84.0002 39.8921L73.4952 29.4578Z" fill="#FF001E"/>
<path d="M27.4075 52.6827C24.3666 55.706 22.7178 59.7305 22.7178 64.0103C22.7178 68.29 24.3666 72.3146 27.4075 75.3379C30.4484 78.3612 34.4963 80.0004 38.801 80.0004C43.1056 80.0004 47.1536 78.3612 50.1945 75.3379C56.4639 69.1047 56.4639 58.9747 50.1945 52.6827C43.8659 46.4495 33.6769 46.4495 27.4075 52.6827ZM47.2819 72.452C45.0013 74.7195 41.9604 75.9759 38.801 75.9759C35.5725 75.9759 32.5316 74.7195 30.32 72.452C28.0394 70.1845 26.7756 67.1612 26.7756 64.0201C26.7756 60.8103 28.0394 57.787 30.32 55.5882C32.6599 53.2618 35.7601 52.0643 38.801 52.0643C41.9011 52.0643 44.942 53.2618 47.2819 55.5882C51.9716 60.2409 51.9716 67.7894 47.2819 72.452Z" fill="#FF001E"/>
</svg>
