<svg width="172" height="30" viewBox="0 0 172 30" fill="none" xmlns="http://www.w3.org/2000/svg">
<path d="M0.460018 30H45.2337V25.4061H0.460018V30ZM35.9979 14.3764L27.899 5.9465L19.9672 14.2578L11.9118 5.95157L0 18.258L4.03276 22.4445L11.9108 14.1058L19.9672 22.4303V22.4445L27.903 14.0957L36.003 22.4202V22.4445L54.6266 4.22912L50.6395 0L35.9979 14.3764Z" fill="#FF531A"/>
<path opacity="0.3" fill-rule="evenodd" clip-rule="evenodd" d="M11.8672 14.047L3.99425 22.3441L0 18.1586L7.91859 9.97998L11.8672 14.047ZM27.9182 14.0632L19.9682 22.3765L16.0925 18.3014L24.0557 9.98099L27.9182 14.0632Z" fill="url(#paint0_linear)"/>
<path d="M66.2658 25.6036C69.8527 25.6036 74.1996 23.7799 74.1996 18.7037C74.1996 14.5394 71.2814 13.5668 67.4817 12.1077C65.1411 11.1959 64.3508 10.6487 64.3812 9.61526C64.3812 8.58179 65.1411 7.94347 66.3874 7.94347C67.6033 7.94347 68.9408 8.52099 70.7951 9.98001L73.6525 6.27168C71.5854 4.5087 69.0016 3.41444 66.1746 3.47523C62.1621 3.53602 59.092 6.24128 59.092 9.82803C59.092 14.0835 62.3749 15.6337 65.6579 16.7584C68.0897 17.579 68.8496 18.0958 68.8496 19.2812C68.8496 20.2539 68.1201 21.105 66.4178 21.105C64.9283 21.105 62.9525 20.3451 61.311 18.5517L58.332 22.1689C60.6423 24.5398 63.4996 25.6036 66.2658 25.6036Z" fill="#293D66"/>
<path d="M76.7321 25.3301H81.4134V21.1354L82.9028 19.494L86.2162 25.3301H91.475L86.3074 16.3936L91.323 10.4663H85.821L81.4742 15.8161H81.4134V2.9585H76.7321V25.3301Z" fill="#293D66"/>
<path d="M93.0887 25.3301H97.8307V18.6429C97.8307 16.6976 98.9858 15.2689 101.235 15.2689C101.478 15.2689 101.904 15.2993 102.36 15.3297V10.1928H102.178C100.536 10.1928 98.9858 11.0135 97.8915 12.5333H97.8307V10.4663H93.0887V25.3301Z" fill="#293D66"/>
<path d="M106.951 8.61218C108.593 8.61218 109.809 7.42673 109.809 5.87653C109.809 4.38712 108.593 3.20167 106.951 3.20167C105.31 3.20167 104.124 4.41751 104.124 5.87653C104.124 7.42673 105.31 8.61218 106.951 8.61218ZM104.58 25.3301H109.322V10.4663H104.58V25.3301Z" fill="#293D66"/>
<path d="M121.555 25.6036C125.659 25.6036 128.577 22.5032 128.577 17.9134C128.577 13.354 125.659 10.1928 121.798 10.1928C120.126 10.1928 118.637 10.8007 117.573 12.0469H117.512V2.9585H112.77V25.3301H117.269V23.7495H117.33C118.302 24.9957 119.731 25.6036 121.555 25.6036ZM120.613 21.409C118.728 21.409 117.299 20.0411 117.299 17.9134C117.299 15.8769 118.667 14.3875 120.582 14.3875C122.406 14.3875 123.774 15.7857 123.774 17.9134C123.774 20.0107 122.436 21.409 120.613 21.409Z" fill="#293D66"/>
<path d="M139.9 25.6036C144.004 25.6036 146.922 22.5032 146.922 17.9134C146.922 13.354 144.004 10.1928 140.144 10.1928C138.472 10.1928 136.982 10.8007 135.918 12.0469H135.857V2.9585H131.115V25.3301H135.614V23.7495H135.675C136.648 24.9957 138.076 25.6036 139.9 25.6036ZM138.958 21.409C137.073 21.409 135.645 20.0411 135.645 17.9134C135.645 15.8769 137.013 14.3875 138.928 14.3875C140.751 14.3875 142.119 15.7857 142.119 17.9134C142.119 20.0107 140.782 21.409 138.958 21.409Z" fill="#293D66"/>
<path d="M149.613 25.3301H154.355V2.9585H149.613V25.3301Z" fill="#293D66"/>
<path d="M171.998 17.731C171.998 13.3236 168.928 10.1928 164.733 10.1928C160.234 10.1928 157.073 13.3844 157.073 17.883C157.073 22.5032 160.356 25.6036 164.855 25.6036C168.229 25.6036 170.296 24.479 171.542 22.9288L168.806 20.1323C167.803 21.257 166.557 21.7129 165.341 21.7433C163.517 21.7433 162.089 20.8618 161.785 19.1597H171.907C171.937 18.8557 171.998 18.1566 171.998 17.731ZM164.672 13.9619C166.101 13.9619 167.074 14.8738 167.378 16.3328H161.815C162.119 14.8434 163.213 13.9619 164.672 13.9619Z" fill="#293D66"/>
<defs>
<linearGradient id="paint0_linear" x1="13.9591" y1="9.97998" x2="13.9591" y2="22.3765" gradientUnits="userSpaceOnUse">
<stop/>
<stop offset="1" stop-color="#D8D8D8" stop-opacity="0"/>
</linearGradient>
</defs>
</svg>
