<svg width="196" height="50" viewBox="0 0 196 50" fill="none" xmlns="http://www.w3.org/2000/svg">
<path fill-rule="evenodd" clip-rule="evenodd" d="M63.1456 34.2901V32.0386C65.1471 32.7451 67.3085 33.0984 69.6309 33.0984C72.913 33.0984 74.5541 31.9067 74.5541 29.5223C74.5541 27.4911 73.3453 26.4765 70.9257 26.4765H68.4687C64.4759 26.4765 62.4785 24.7554 62.4785 21.3101C62.4785 17.6896 65.0357 15.8799 70.1523 15.8799C72.3744 15.8799 74.4427 16.1436 76.3561 16.675V18.9256C74.4427 18.219 72.3754 17.8657 70.1523 17.8657C66.6829 17.8657 64.9487 19.0132 64.9487 21.308C64.9487 23.3412 66.123 24.3558 68.4717 24.3558H70.9257C74.9904 24.3558 77.0232 26.0789 77.0232 29.5223C77.0232 33.2313 74.5581 35.0863 69.6309 35.0863C67.3085 35.0863 65.1461 34.8216 63.1456 34.2911V34.2901ZM79.9571 25.5093C79.9571 19.0897 83.1501 15.8799 89.5371 15.8799C95.827 15.8799 98.9725 19.0887 98.9725 25.5083C98.9725 31.8926 95.827 35.0843 89.5371 35.0843C83.1521 35.0843 79.9581 31.8916 79.9581 25.5083L79.9571 25.5093ZM89.5371 33.0984C94.0928 33.0984 96.3707 30.5419 96.3707 25.4287C96.3707 20.3861 94.0928 17.8657 89.5371 17.8657C84.8863 17.8657 82.5599 20.3871 82.5599 25.4287C82.5599 30.5419 84.8863 33.0984 89.5382 33.0984H89.5371ZM102.839 34.9544V16.0117H110.978C114.609 16.0117 116.423 17.4813 116.423 20.4223C116.423 22.5763 115.238 24.1182 112.873 25.0453C115.4 25.5133 116.663 26.9476 116.663 29.3501C116.663 33.0843 114.675 34.9534 110.7 34.9534H102.84L102.839 34.9544ZM110.553 32.9656C112.829 32.9656 113.968 31.8181 113.968 29.5233C113.968 27.2888 112.442 26.1715 109.392 26.1715H108.324V24.5672C111.97 24.084 113.795 22.7755 113.795 20.6478C113.795 18.8813 112.78 17.9986 110.752 17.9986H105.309V32.9656H110.553ZM120.586 34.9544V16.0117H128.725C132.354 16.0117 134.169 17.5265 134.169 20.5552C134.169 23.0181 132.394 24.8429 128.843 26.0256L135.396 34.9514H132.139L126.068 26.4363V24.8319C129.715 24.2582 131.538 22.8671 131.538 20.6598C131.538 18.9105 130.526 18.0358 128.496 18.0358H123.053V34.9504H120.585L120.586 34.9544ZM138.626 34.9544H136.065L144.164 16.0117H146.897L155.037 34.9544H152.301L149.833 28.9918H143.522L144.202 27.0049H149.006L145.442 18.4224L138.625 34.9534L138.626 34.9544ZM157.638 34.9544V16.0117H164.576C170.893 16.0117 174.05 18.9961 174.05 24.9657C174.05 31.6239 170.893 34.9534 164.577 34.9534H157.639L157.638 34.9544ZM164.576 32.9656C169.246 32.9656 171.582 30.2983 171.582 24.9657C171.582 20.3206 169.246 17.9986 164.576 17.9986H160.107V32.9656H164.576ZM176.985 25.5093C176.985 19.0897 180.179 15.8799 186.565 15.8799C192.854 15.8799 195.998 19.0887 195.998 25.5083C195.998 31.8926 192.855 35.0843 186.566 35.0843C180.18 35.0843 176.986 31.8916 176.986 25.5083L176.985 25.5093ZM186.566 33.0984C191.12 33.0984 193.397 30.5419 193.397 25.4287C193.397 20.3861 191.12 17.8657 186.566 17.8657C181.913 17.8657 179.587 20.3871 179.587 25.4287C179.587 30.5419 181.913 33.0984 186.566 33.0984ZM17.273 20.8712H37.567C38.3061 20.8712 38.9084 20.2754 38.9084 19.5386C38.9084 18.8038 38.3091 18.207 37.5681 18.207H17.273C16.534 18.207 15.9316 18.8038 15.9316 19.5396C15.9316 20.2764 16.533 20.8722 17.273 20.8722V20.8712ZM22.8006 28.1524H42.9336C43.6727 28.1524 44.275 27.5585 44.275 26.8218C44.275 26.087 43.6737 25.4891 42.9336 25.4891H22.8006C22.0585 25.4891 21.4592 26.086 21.4592 26.8218C21.4592 27.5585 22.0585 28.1524 22.8006 28.1524ZM26.4856 35.4345H48.7608C49.5019 35.4345 50.1032 34.8387 50.1032 34.1029C50.1032 33.3682 49.5009 32.7703 48.7598 32.7703H26.4856C25.7435 32.7703 25.1422 33.3672 25.1422 34.1029C25.1422 34.8377 25.7435 35.4345 26.4856 35.4345ZM22.8006 42.7167H42.9336C43.6727 42.7167 44.275 42.1209 44.275 41.3851C44.275 40.6483 43.6737 40.0525 42.9336 40.0525H22.8006C22.0585 40.0525 21.4592 40.6483 21.4592 41.3841C21.4592 42.1188 22.0585 42.7147 22.8006 42.7147V42.7167ZM37.567 47.3366H17.273C16.534 47.3366 15.9316 47.9305 15.9316 48.6683C15.9316 49.403 16.533 49.9999 17.273 49.9999H37.567C38.3061 49.9999 38.9084 49.403 38.9084 48.6683C38.9084 47.9335 38.3091 47.3366 37.5681 47.3366H37.567Z" fill="#D0D2D3"/>
<path fill-rule="evenodd" clip-rule="evenodd" d="M32.8292 29.1287H12.5372C11.7951 29.1287 11.1958 29.7245 11.1958 30.4613C11.1958 31.1961 11.7951 31.7919 12.5372 31.7919H32.8292C33.5713 31.7919 34.1706 31.1961 34.1706 30.4613C34.1706 29.7245 33.5703 29.1287 32.8282 29.1287H32.8292ZM27.3016 21.8475H7.16861C6.42957 21.8475 5.82721 22.4414 5.82721 23.1781C5.82721 23.9129 6.42755 24.5108 7.16861 24.5108H27.3016C28.0437 24.5108 28.643 23.9139 28.643 23.1781C28.643 22.4434 28.0427 21.8475 27.3006 21.8475H27.3016ZM23.6186 14.5653H1.34241C0.601349 14.5653 0 15.1612 0 15.897C0 16.6317 0.601349 17.2296 1.34241 17.2296H23.6186C24.3577 17.2296 24.959 16.6327 24.959 15.897C24.959 15.1622 24.3587 14.5653 23.6186 14.5653ZM27.3016 7.28318H7.16861C6.42957 7.28318 5.82721 7.87904 5.82721 8.6138C5.82721 9.35057 6.42755 9.94744 7.16861 9.94744H27.3016C28.0437 9.94744 28.643 9.35057 28.643 8.6138C28.643 7.87904 28.0427 7.28318 27.3006 7.28318H27.3016ZM12.5372 2.66325H32.8292C33.5713 2.66325 34.1706 2.0694 34.1706 1.33263C34.1706 0.597873 33.5703 0 32.8282 0H12.5372C11.7951 0 11.1958 0.597873 11.1958 1.33263C11.1958 2.06739 11.7951 2.66325 12.5372 2.66325Z" fill="#4985A4"/>
</svg>
