<svg width="1920" height="350" viewBox="0 0 1920 350" fill="none" xmlns="http://www.w3.org/2000/svg">
<mask id="mask0" mask-type="alpha" maskUnits="userSpaceOnUse" x="0" y="0" width="1920" height="350">
<path d="M0 0H1920V350H0V0Z" fill="#F6F7F9"/>
</mask>
<g mask="url(#mask0)">
<path d="M1585.03 116.22C1585.03 116.22 1538.73 107.75 1516.04 107.68C1516.04 107.68 1520.42 148.47 1503.58 175.87C1503.43 176.119 1503.34 176.402 1503.32 176.694C1503.31 176.985 1503.36 177.277 1503.48 177.544C1503.6 177.81 1503.78 178.043 1504.01 178.222C1504.25 178.401 1504.52 178.52 1504.8 178.57L1575.11 191.22C1575.53 191.29 1575.96 191.211 1576.33 190.997C1576.69 190.783 1576.97 190.448 1577.11 190.05C1579.69 182.78 1590.84 148.89 1585.03 116.22Z" fill="white"/>
<path d="M1868.81 213.85C1868.81 213.85 1870.08 289.15 1814.75 290.16C1759.42 291.17 1760.97 333.31 1760.97 333.31L1644.78 280.87L1644.5 280.35C1644.71 273.92 1648.08 239.14 1698.29 238.22C1753.63 237.22 1752.36 161.91 1752.36 161.91C1792.56 175.929 1831.52 193.304 1868.81 213.85Z" fill="#E9EBF2"/>
<path d="M553.982 210.1L455.966 195.239L442.871 281.632L540.887 296.493L553.982 210.1Z" fill="#F9FAFB"/>
<path d="M1136.53 0C1136.53 0 1155.9 33 1199.52 35.23C1243.14 37.46 1275.69 23.66 1305.19 23.34C1345.26 22.91 1346.19 54.61 1433.31 60.77C1520.44 66.93 1606.33 0 1606.33 0H1136.53Z" fill="#F9FAFB"/>
<path d="M259.179 85.0635L269.751 89.2704C275.024 91.3684 279.247 95.4753 281.492 100.688C283.737 105.9 283.82 111.791 281.722 117.064L273.021 138.938L242.568 126.82L259.179 85.0635Z" fill="#E9EBF2"/>
<path d="M206.445 215.21L83.6133 165.93L129.397 51.8401C130.218 49.7882 131.435 47.9182 132.979 46.3372C134.523 44.7561 136.364 43.4949 138.396 42.6256C140.427 41.7563 142.61 41.2961 144.82 41.2711C147.03 41.2461 149.223 41.6569 151.273 42.4801L275.865 92.4801L274.015 91.7401C271.976 90.9215 269.796 90.5128 267.599 90.5372C265.402 90.5616 263.231 91.0186 261.211 91.8823C259.19 92.7459 257.36 93.9992 255.824 95.5705C254.288 97.1418 253.076 99.0004 252.259 101.04L206.445 215.21Z" fill="white"/>
<path d="M608.416 350H-15.3027L8.16384 183.1C15.3628 131.85 73.1543 105.25 116.758 133.1C150.323 154.51 194.897 179.73 253.238 207.39C277.923 219.031 303.301 229.144 329.227 237.67C339.405 241.05 349.944 244.29 360.842 247.39C368.121 249.457 375.57 251.457 383.189 253.39C387.655 254.53 392.184 255.643 396.777 256.73C432.517 265.12 468.694 271.526 505.141 275.92C517.893 277.48 530.981 278.86 544.405 280.06C561.882 281.614 578.144 289.654 589.99 302.598C601.837 315.542 608.41 332.452 608.416 350Z" fill="#E9EBF2"/>
<path d="M260.438 350C260.438 350 327.428 317.85 383.42 306.4C439.411 294.95 482.405 309.05 536.647 333.27C582.82 353.88 635.163 335.15 651.12 329.74C678.426 320.5 745.787 309.05 792.46 350H260.438Z" fill="#F9FAFB"/>
<path d="M493.342 247.62C494.241 247.758 495.049 248.247 495.587 248.981C496.125 249.714 496.35 250.631 496.212 251.53L492.733 274.32L489.803 293.52C489.665 294.419 489.176 295.226 488.442 295.765C487.709 296.303 486.792 296.528 485.893 296.39L411.904 285.08C411.005 284.942 410.198 284.452 409.66 283.719C409.122 282.986 408.897 282.069 409.035 281.17L412.224 260.24L415.434 239.19C415.572 238.291 416.061 237.483 416.794 236.945C417.527 236.407 418.444 236.182 419.343 236.32L493.342 247.62Z" fill="white"/>
<path d="M492.743 274.32L489.814 293.52C489.676 294.419 489.186 295.227 488.453 295.765C487.72 296.303 486.803 296.528 485.904 296.39L411.915 285.08C411.016 284.942 410.209 284.453 409.671 283.72C409.133 282.986 408.908 282.069 409.045 281.17L412.235 260.24C437.365 265.754 464.201 270.447 492.743 274.32Z" fill="#F9FAFB"/>
<path d="M339.365 210L317.918 268.3C317.518 269.385 316.703 270.266 315.653 270.75C314.603 271.233 313.403 271.28 312.319 270.88L243.789 245.63C242.704 245.229 241.823 244.414 241.339 243.364C240.856 242.314 240.809 241.115 241.209 240.03L262.686 181.7C263.087 180.615 263.901 179.734 264.951 179.25C266.001 178.766 267.201 178.719 268.285 179.12L336.815 204.36C337.353 204.562 337.847 204.868 338.266 205.262C338.686 205.655 339.024 206.127 339.261 206.651C339.497 207.175 339.629 207.74 339.646 208.315C339.664 208.89 339.569 209.462 339.365 210Z" fill="white"/>
<path d="M329.206 237.65L317.918 268.3C317.518 269.385 316.703 270.266 315.653 270.75C314.603 271.234 313.403 271.281 312.319 270.88L243.789 245.63C242.704 245.23 241.823 244.415 241.339 243.364C240.856 242.314 240.809 241.115 241.209 240.03L253.207 207.37C277.896 219.012 303.277 229.124 329.206 237.65Z" fill="#F9FAFB"/>
<path d="M1716.5 343.63L1659.73 345.13C1637.95 335.75 1616.07 326.58 1594.09 317.62C1582.45 312.83 1570.74 308.22 1559.05 303.52C1547.36 298.82 1535.62 294.27 1523.84 289.83C1500.36 280.76 1476.69 272.15 1452.97 263.65C1451.81 263.245 1450.85 262.399 1450.31 261.295C1449.76 260.191 1449.67 258.917 1450.05 257.747C1450.44 256.577 1451.27 255.604 1452.36 255.038C1453.45 254.472 1454.72 254.358 1455.9 254.72C1480.12 261.96 1504.32 269.32 1528.36 277.15C1540.42 280.97 1552.36 285.02 1564.36 288.98C1576.35 292.94 1588.35 297.05 1600.27 301.24C1624.17 309.5 1647.99 318.02 1671.73 326.8C1686.69 332.307 1701.61 337.917 1716.5 343.63Z" fill="white"/>
<path d="M1568.52 347.53L1523.85 348.7L1522.54 348.18C1510.8 343.61 1499.11 338.94 1487.33 334.49C1463.84 325.41 1440.16 316.81 1416.46 308.3C1415.27 307.91 1414.29 307.066 1413.73 305.953C1413.17 304.84 1413.07 303.549 1413.46 302.365C1413.85 301.181 1414.7 300.2 1415.81 299.638C1416.92 299.077 1418.21 298.98 1419.4 299.37C1443.61 306.62 1467.81 313.97 1491.85 321.8C1503.92 325.62 1515.84 329.68 1527.89 333.62C1539.94 337.56 1551.89 341.7 1563.8 345.88L1568.52 347.53Z" fill="white"/>
<path d="M371.961 262.03C378.35 262.03 383.529 256.85 383.529 250.46C383.529 244.07 378.35 238.89 371.961 238.89C365.572 238.89 360.393 244.07 360.393 250.46C360.393 256.85 365.572 262.03 371.961 262.03Z" fill="#E9EBF2"/>
<path d="M383.17 253.39C382.496 256.156 380.827 258.576 378.482 260.188C376.136 261.801 373.279 262.492 370.456 262.129C367.633 261.766 365.043 260.375 363.181 258.223C361.319 256.07 360.315 253.306 360.363 250.46C360.359 249.416 360.5 248.376 360.783 247.37C368.088 249.443 375.551 251.45 383.17 253.39Z" fill="#F9FAFB"/>
<path d="M1950 0V188.61C1950 235.53 1899.49 265.15 1858.58 242.17L1858.31 242.03C1829.79 226.13 1799.06 212.14 1767.49 199.85C1752.63 194.06 1737.58 188.64 1722.49 183.57C1699.67 175.91 1676.73 169.06 1654.18 162.94C1638.09 158.57 1622.19 154.57 1606.66 150.94C1582.14 145.17 1558.55 140.27 1536.59 136.13C1524.21 133.79 1512.34 131.69 1501.13 129.81C1473.68 125.197 1448.72 111.114 1430.58 90.0082C1412.44 68.9026 1402.27 42.1081 1401.83 14.28C1401.69 5.28 1401.38 0.02 1401.38 0.02L1950 0Z" fill="#E9EBF2"/>
<path d="M1868.14 77.21L1870.99 185.66C1844.15 170.14 1788.2 144.74 1751.69 137.77L1749.02 36.25C1790.15 41.92 1833.39 57.4 1868.14 77.21Z" fill="#F9FAFB"/>
<path d="M1868.14 77.21L1870.07 150.49C1838.82 146.04 1854.36 112.44 1839.83 109.74C1827.59 107.47 1833.6 127.44 1819.71 125.81C1803.71 123.94 1815.57 82.65 1801.71 81.66C1788.01 80.66 1794.15 100.24 1780.72 99.46C1766.81 98.65 1772.83 67.01 1761.84 65.74C1750.85 64.47 1750.36 86.38 1750.36 86.38L1749.04 36.25C1790.15 41.92 1833.39 57.4 1868.14 77.21Z" fill="white"/>
<path d="M1868.81 213.85C1868.72 224.665 1867.22 235.422 1864.35 245.85C1828.87 224.94 1789.21 207.38 1748.24 192.65C1750.88 182.631 1752.27 172.321 1752.36 161.96C1792.56 175.963 1831.52 193.321 1868.81 213.85Z" fill="#F9FAFB"/>
<path d="M1705.42 147.22C1705.42 147.22 1660.56 132.99 1638.02 130.06C1638.02 130.06 1637.22 171.43 1616.8 196.46C1616.65 196.652 1616.54 196.878 1616.5 197.119C1616.45 197.36 1616.47 197.608 1616.54 197.842C1616.61 198.076 1616.74 198.29 1616.91 198.464C1617.08 198.637 1617.29 198.767 1617.53 198.84L1686.33 220.44C1686.67 220.548 1687.03 220.533 1687.36 220.398C1687.69 220.262 1687.96 220.015 1688.12 219.7C1691.39 213.31 1707.09 180.75 1705.42 147.22Z" fill="white"/>
<path d="M1702.83 177.51C1679.83 170.45 1656.69 164.21 1634 158.68C1636.06 150.002 1637.37 141.163 1637.93 132.26C1637.94 131.979 1638.01 131.703 1638.14 131.451C1638.26 131.199 1638.44 130.976 1638.66 130.798C1638.88 130.619 1639.13 130.489 1639.4 130.415C1639.67 130.342 1639.96 130.326 1640.24 130.37C1660.9 133.5 1696.68 144.5 1704.07 146.8C1704.47 146.921 1704.82 147.165 1705.07 147.497C1705.33 147.829 1705.47 148.232 1705.49 148.65C1705.74 158.341 1704.85 168.029 1702.83 177.51Z" fill="#F9FAFB"/>
<path d="M1586.31 146.1C1561.71 140.71 1538.04 136.18 1516.02 132.38C1516.58 125.371 1516.67 118.332 1516.28 111.31C1516.25 110.844 1516.32 110.377 1516.48 109.939C1516.65 109.5 1516.9 109.101 1517.22 108.767C1517.55 108.432 1517.94 108.17 1518.38 107.996C1518.81 107.823 1519.28 107.742 1519.74 107.76C1540.08 108.49 1573.61 114.19 1582.73 115.76C1583.42 115.878 1584.05 116.207 1584.54 116.702C1585.03 117.197 1585.35 117.833 1585.45 118.52C1586.77 127.653 1587.06 136.904 1586.31 146.1Z" fill="#F9FAFB"/>
<path d="M1638.65 189.1C1638.65 189.1 1665.27 196.98 1680.44 201.87" stroke="#F9FAFB" stroke-width="4" stroke-linecap="round" stroke-linejoin="round"/>
<path d="M1644.07 175.1C1644.07 175.1 1670.71 182.97 1685.87 187.86" stroke="#F9FAFB" stroke-width="4" stroke-linecap="round" stroke-linejoin="round"/>
<path d="M1756.46 21.6789C1758.99 21.3967 1760.73 18.3246 1760.34 14.8171C1759.95 11.3097 1757.58 8.6951 1755.04 8.9773C1752.51 9.25951 1750.77 12.3316 1751.16 15.8391C1751.55 19.3465 1753.92 21.9611 1756.46 21.6789Z" fill="#F9FAFB"/>
<path d="M1774.68 17.21C1774.68 17.21 1818.47 24.43 1867.4 47.81" stroke="#F9FAFB" stroke-width="6" stroke-linecap="round" stroke-linejoin="round"/>
<path d="M1676.17 38.0001C1654.94 35.1701 1638.06 45.5101 1638.47 61.1001C1638.88 76.6901 1656.56 88.6501 1677.66 94.4601C1686.78 96.9801 1689.73 103.79 1692.84 103.6C1695.95 103.41 1690.1 95.3001 1696.46 93.3401C1707.91 89.8201 1715.64 81.9101 1715.36 71.3401C1714.9 55.7201 1697.36 40.7901 1676.17 38.0001Z" fill="#F9FAFB"/>
<path d="M1680.61 69.635C1682.14 68.1404 1681.96 65.4656 1680.21 63.6607C1678.45 61.8557 1675.78 61.6039 1674.25 63.0985C1672.71 64.5931 1672.89 67.2679 1674.64 69.0729C1676.4 70.8779 1679.07 71.1296 1680.61 69.635Z" fill="#E9EBF2"/>
<path d="M1697.5 71.8957C1699.04 70.4011 1698.86 67.7263 1697.1 65.9213C1695.35 64.1163 1692.68 63.8647 1691.14 65.3593C1689.61 66.8538 1689.79 69.5287 1691.54 71.3337C1693.3 73.1387 1695.97 73.3903 1697.5 71.8957Z" fill="#E9EBF2"/>
<path d="M1663.72 67.3821C1665.26 65.8875 1665.08 63.2126 1663.32 61.4076C1661.57 59.6026 1658.9 59.351 1657.36 60.8456C1655.83 62.3402 1656.01 65.015 1657.76 66.82C1659.52 68.625 1662.19 68.8766 1663.72 67.3821Z" fill="#E9EBF2"/>
<path d="M335.496 142.05C335.927 142.982 336.527 143.827 337.266 144.54C338.493 145.727 340.027 146.547 341.695 146.91L379.12 155.56C379.449 155.638 379.792 155.628 380.116 155.531C380.44 155.434 380.732 155.253 380.964 155.006C381.195 154.759 381.357 154.456 381.434 154.127C381.51 153.797 381.498 153.453 381.399 153.13C379.633 148.846 378.294 144.397 377.4 139.85C374.707 127.268 376.061 114.156 381.269 102.39C381.375 102.174 381.43 101.937 381.428 101.697C381.427 101.457 381.369 101.22 381.261 101.006C381.152 100.791 380.995 100.605 380.802 100.462C380.61 100.319 380.386 100.222 380.149 100.18C374.03 99.0001 355.063 95.0001 340.685 91.0801C340.233 90.9606 339.754 91.0032 339.33 91.2005C338.906 91.3978 338.565 91.7373 338.366 92.1601C335.586 98.2501 326.137 121.56 335.496 142.05Z" fill="#4CC3FF"/>
<path d="M370.171 101.7C370.624 99.8843 371.274 98.1238 372.111 96.4499C372.249 96.2072 372.328 95.9351 372.341 95.6561C372.354 95.377 372.301 95.0988 372.186 94.8442C372.071 94.5896 371.897 94.3659 371.679 94.1914C371.461 94.0168 371.204 93.8964 370.931 93.8399L353.233 89.8999C352.767 89.8079 352.284 89.8645 351.852 90.0619C351.419 90.2592 351.06 90.5873 350.824 90.9999C349.644 92.965 348.726 95.0763 348.094 97.2799C348.029 97.514 348.014 97.7592 348.048 97.9997C348.083 98.2402 348.168 98.4708 348.297 98.6768C348.425 98.8828 348.596 99.0597 348.797 99.1963C348.998 99.3328 349.225 99.426 349.464 99.4699L367.561 103.33C368.122 103.438 368.702 103.33 369.186 103.028C369.67 102.725 370.022 102.251 370.171 101.7Z" fill="#000D1A"/>
<path d="M1520.81 79C1512.23 86.9242 1502.99 94.1097 1493.2 100.48C1491.64 101.488 1490.53 103.049 1490.09 104.846C1489.64 106.644 1489.89 108.543 1490.8 110.16C1491.69 111.782 1493.18 112.991 1494.95 113.53C1495.82 113.796 1496.74 113.876 1497.65 113.764C1498.56 113.652 1499.44 113.351 1500.22 112.88C1509.52 107.334 1518.38 101.086 1526.73 94.19" fill="#FFBF00"/>
<path d="M1523.94 76.05C1529.15 71.0634 1534.19 65.73 1539.04 60.05C1537.88 54.18 1538.84 47.88 1542.16 43.3C1545.48 38.72 1550.38 37.09 1555.16 38.77C1552.94 42.15 1550.67 45.44 1548.34 48.64C1549.26 51.9734 1550.11 55.3067 1550.9 58.64C1553.38 59.9 1555.86 61.2 1558.34 62.54C1560.89 59.48 1563.38 56.3267 1565.82 53.08C1567.11 59.57 1565.74 66.52 1561.94 70.86C1560.37 72.829 1558.17 74.1915 1555.71 74.7134C1553.25 75.2354 1550.69 74.8841 1548.46 73.72C1544.04 78.46 1539.49 82.9534 1534.82 87.2" fill="#FFBF00"/>
<path d="M1521.8 98.1298C1520.64 92.5831 1519.28 87.1398 1517.7 81.7998C1518.35 81.2198 1519.01 80.6398 1519.7 80.0498C1522.7 84.0498 1525.59 88.2431 1528.36 92.6298C1526.18 94.5231 1524 96.3565 1521.8 98.1298Z" fill="#000D1A"/>
<path d="M1544.6 102.34C1534.23 84.3555 1521.24 68.0134 1506.06 53.85C1505.83 52.54 1505.59 51.24 1505.33 49.93C1502.24 48.01 1499.13 46.1933 1495.99 44.48C1494.47 46.6 1492.92 48.67 1491.34 50.69C1493.8 53.28 1496.22 55.97 1498.57 58.76H1502.2C1517.04 72.879 1529.68 89.147 1539.69 107.02C1541.36 105.5 1542.99 103.94 1544.6 102.34Z" fill="#000D1A"/>
<path d="M1546.46 127C1538.71 109.428 1528.62 92.9856 1516.46 78.1201C1519.18 75.2201 1521.85 72.2201 1524.46 69.1201C1537.22 84.0881 1547.92 100.687 1556.3 118.48C1556.53 119.005 1556.61 119.589 1556.5 120.156C1556.4 120.722 1556.12 121.243 1555.72 121.65C1553.44 123.69 1551.13 125.69 1548.8 127.65C1548.62 127.812 1548.4 127.926 1548.16 127.981C1547.93 128.037 1547.68 128.032 1547.45 127.967C1547.22 127.902 1547 127.779 1546.83 127.611C1546.66 127.442 1546.53 127.232 1546.46 127Z" fill="#FFBF00"/>
<path d="M1608.5 289.93C1608.5 289.93 1611.99 287.07 1608.56 264.64C1604.56 238.33 1619.76 228.7 1619.76 228.7C1628.49 230.677 1637.46 231.444 1646.4 230.98C1646.4 230.98 1657.67 245.41 1666.54 250.98C1666.54 250.98 1670.67 263.3 1655.7 276.71C1640.74 290.12 1618.56 293.26 1608.5 289.93Z" fill="#000D1A"/>
<path d="M1606.84 287C1606.84 287 1610.32 284.14 1606.84 261.71C1602.84 235.4 1618.04 225.77 1618.04 225.77C1626.78 227.747 1635.75 228.514 1644.69 228.05C1644.69 228.05 1655.96 242.48 1664.82 248.05C1664.82 248.05 1668.95 260.37 1653.98 273.78C1639.02 287.19 1616.9 290.32 1606.84 287Z" fill="#4CC3FF"/>
<path d="M1618.7 259.89C1617.9 256.803 1616.92 253.768 1615.76 250.8C1615.64 250.426 1615.66 250.022 1615.82 249.663C1615.98 249.305 1616.27 249.019 1616.63 248.86C1619.87 247.26 1623.03 245.61 1626.02 243.95L1627.33 246.44C1624.71 247.9 1621.96 249.34 1619.15 250.75C1620.14 253.414 1620.99 256.127 1621.7 258.88L1618.7 259.89Z" fill="#000D1A"/>
<path d="M1637.81 268.41L1636.52 265.9C1639.22 264.43 1641.87 262.9 1644.43 261.36C1643.67 258.08 1642.78 254.88 1641.77 251.83L1644.77 250.66C1645.96 254.211 1646.97 257.823 1647.77 261.48C1647.83 261.806 1647.78 262.141 1647.64 262.44C1647.5 262.738 1647.27 262.987 1646.98 263.15C1643.97 264.94 1640.92 266.71 1637.81 268.41Z" fill="#000D1A"/>
<path d="M1627.38 260.75L1625.63 258.55C1629.63 255.48 1633.43 252.31 1636.89 249.13L1638.89 251.13C1635.36 254.37 1631.49 257.61 1627.38 260.75Z" fill="#000D1A"/>
<path d="M1761.09 218.56C1761.09 218.56 1802.44 235.44 1828.85 251.42" stroke="#F9FAFB" stroke-width="4" stroke-linecap="round" stroke-linejoin="round"/>
<path d="M1745.7 238.67C1745.7 238.67 1783.24 250.96 1810.24 268.25" stroke="#F9FAFB" stroke-width="4" stroke-linecap="round" stroke-linejoin="round"/>
<path d="M1469.57 29.1646C1473.22 29.0684 1476.09 25.5889 1475.98 21.393C1475.87 17.1971 1472.82 13.8737 1469.17 13.9699C1465.52 14.0661 1462.65 17.5455 1462.76 21.7414C1462.87 25.9373 1465.92 29.2608 1469.57 29.1646Z" fill="#F9FAFB"/>
<path d="M1470.77 74.8272C1474.42 74.731 1477.29 71.2515 1477.18 67.0556C1477.07 62.8597 1474.02 59.5363 1470.37 59.6325C1466.72 59.7287 1463.86 63.2081 1463.97 67.404C1464.08 71.5999 1467.12 74.9234 1470.77 74.8272Z" fill="#F9FAFB"/>
<path d="M149.765 264.636L81.6662 237.325C75.2954 234.77 68.06 237.865 65.5054 244.236L63.5666 249.072C61.012 255.444 64.1057 262.68 70.4765 265.235L138.575 292.546C144.946 295.101 152.181 292.007 154.736 285.635L156.675 280.799C159.229 274.427 156.136 267.191 149.765 264.636Z" fill="#F9FAFB"/>
<path d="M138.435 281.95C141.754 281.95 144.444 279.259 144.444 275.94C144.444 272.62 141.754 269.93 138.435 269.93C135.116 269.93 132.426 272.62 132.426 275.94C132.426 279.259 135.116 281.95 138.435 281.95Z" fill="#E9EBF2"/>
<path d="M74.5635 250.32L93.7907 258.03" stroke="white" stroke-width="4" stroke-linecap="round" stroke-linejoin="round"/>
<path d="M105.82 258.54L102.84 265.98" stroke="white" stroke-width="4" stroke-linecap="round" stroke-linejoin="round"/>
<path d="M112.019 261.03L109.039 268.47" stroke="white" stroke-width="4" stroke-linecap="round" stroke-linejoin="round"/>
<path d="M118.228 263.51L115.238 270.96" stroke="white" stroke-width="4" stroke-linecap="round" stroke-linejoin="round"/>
<path d="M124.428 266L121.438 273.44" stroke="white" stroke-width="4" stroke-linecap="round" stroke-linejoin="round"/>
<path d="M134.464 300.922L66.3654 273.612C59.9946 271.057 52.7592 274.151 50.2046 280.522L48.2658 285.358C45.7112 291.73 48.8049 298.966 55.1757 301.521L123.274 328.832C129.645 331.387 136.88 328.293 139.435 321.921L141.374 317.085C143.928 310.713 140.835 303.477 134.464 300.922Z" fill="#F9FAFB"/>
<path d="M123.127 318.24C126.446 318.24 129.136 315.549 129.136 312.23C129.136 308.911 126.446 306.22 123.127 306.22C119.809 306.22 117.118 308.911 117.118 312.23C117.118 315.549 119.809 318.24 123.127 318.24Z" fill="#E9EBF2"/>
<path d="M59.2568 286.61L78.474 294.32" stroke="white" stroke-width="4" stroke-linecap="round" stroke-linejoin="round"/>
<path d="M90.5115 294.82L87.5215 302.27" stroke="white" stroke-width="4" stroke-linecap="round" stroke-linejoin="round"/>
<path d="M96.7105 297.31L93.7305 304.76" stroke="white" stroke-width="4" stroke-linecap="round" stroke-linejoin="round"/>
<path d="M102.921 299.8L99.9307 307.24" stroke="white" stroke-width="4" stroke-linecap="round" stroke-linejoin="round"/>
<path d="M109.12 302.29L106.13 309.73" stroke="white" stroke-width="4" stroke-linecap="round" stroke-linejoin="round"/>
<path d="M244.269 350H222.872L171.65 335C171.272 334.89 170.919 334.706 170.612 334.459C170.305 334.213 170.049 333.908 169.86 333.563C169.67 333.217 169.551 332.838 169.508 332.446C169.465 332.055 169.5 331.658 169.61 331.28C169.721 330.902 169.904 330.549 170.151 330.242C170.397 329.935 170.702 329.679 171.048 329.49C171.393 329.3 171.772 329.181 172.164 329.138C172.555 329.095 172.952 329.13 173.33 329.24L244.269 350Z" fill="#F9FAFB"/>
<path d="M261.108 334.7C260.823 334.7 260.541 334.659 260.268 334.58L181.889 311.68C181.125 311.457 180.482 310.94 180.099 310.242C179.716 309.545 179.627 308.724 179.849 307.96C180.072 307.196 180.589 306.552 181.287 306.169C181.984 305.787 182.805 305.697 183.569 305.92L261.947 328.82C262.641 329.022 263.238 329.468 263.629 330.074C264.02 330.681 264.179 331.409 264.077 332.124C263.975 332.839 263.618 333.493 263.073 333.966C262.527 334.439 261.83 334.7 261.108 334.7Z" fill="#F9FAFB"/>
<path d="M270.606 307.89C270.321 307.89 270.039 307.85 269.766 307.77L191.387 284.87C190.624 284.647 189.98 284.13 189.597 283.433C189.215 282.735 189.125 281.914 189.348 281.15C189.57 280.386 190.087 279.742 190.785 279.36C191.482 278.977 192.303 278.887 193.067 279.11L271.446 302C272.139 302.202 272.736 302.648 273.127 303.255C273.518 303.862 273.677 304.59 273.575 305.305C273.473 306.019 273.116 306.673 272.571 307.147C272.026 307.62 271.328 307.88 270.606 307.88V307.89Z" fill="#F9FAFB"/>
<path d="M29.1812 33.76C29.1812 33.82 29.2912 34.15 29.3612 34.39L29.6011 35.2C29.7711 35.76 29.9511 36.33 30.151 36.91C30.521 38.06 30.9709 39.25 31.3809 40.42C32.2507 42.78 33.1806 45.15 34.1704 47.51C36.1702 52.24 38.3698 56.92 40.7095 61.51C45.4683 70.8237 50.7872 79.8402 56.6372 88.51C68.5487 105.998 82.2911 122.167 97.6312 136.74C113.118 151.435 129.987 164.599 148.004 176.05C166.162 187.605 185.244 197.639 205.055 206.05C206.163 206.539 207.04 207.436 207.502 208.555C207.964 209.674 207.977 210.929 207.538 212.057C207.098 213.185 206.24 214.1 205.142 214.611C204.045 215.122 202.792 215.19 201.646 214.8C180.749 207.426 160.496 198.339 141.095 187.63C121.531 176.831 103.055 164.169 85.9229 149.82C68.6401 135.321 52.9506 119.023 39.1197 101.2C32.1828 92.1932 25.7955 82.7761 19.9925 73C17.1029 68 14.3133 63 11.7537 57.8C10.4739 55.2 9.23743 52.5567 8.04427 49.87C7.46435 48.5 6.86444 47.17 6.31452 45.75C6.02456 45.06 5.7446 44.35 5.47464 43.61L5.0547 42.49C4.90472 42.08 4.78474 41.76 4.59477 41.17L3.99486 39.33C3.30513 37.6725 2.96615 35.89 2.99929 34.095C3.03242 32.2999 3.43696 30.5312 4.1874 28.9003C4.93784 27.2694 6.01791 25.8116 7.35956 24.6188C8.7012 23.426 10.2753 22.5241 11.9827 21.9699C13.6902 21.4156 15.4938 21.2212 17.2801 21.3986C19.0664 21.5761 20.7966 22.1217 22.3616 23.0011C23.9266 23.8805 25.2926 25.0745 26.3734 26.508C27.4541 27.9414 28.2263 29.5833 28.6413 31.33C28.8975 32.1211 29.0783 32.9348 29.1812 33.76Z" fill="white"/>
<path d="M-3.95432 87.0802C-3.95432 87.1402 -3.81434 87.4502 -3.72435 87.6902L-3.4044 88.4702C-3.18443 89.0102 -2.94446 89.5602 -2.6945 90.1202C-2.21457 91.2302 -1.69465 92.3702 -1.14473 93.5002C-0.0515537 95.7735 1.09828 98.0369 2.30477 100.29C4.70442 104.82 7.36403 109.29 10.1336 113.66C15.7508 122.469 21.8944 130.931 28.5309 139C42.0137 155.291 57.1938 170.098 73.8143 183.17C90.6167 196.34 108.651 207.857 127.666 217.56C146.829 227.358 166.771 235.55 187.288 242.05C188.379 242.475 189.273 243.291 189.794 244.34C190.315 245.389 190.425 246.595 190.104 247.721C189.782 248.848 189.052 249.813 188.056 250.429C187.059 251.045 185.869 251.266 184.718 251.05C163.218 245.677 142.199 238.533 121.877 229.69C101.391 220.803 81.8093 209.96 63.4058 197.31C44.8458 184.508 27.7075 169.757 12.2833 153.31C4.5245 144.985 -2.72431 136.199 -9.42352 127C-12.763 122.36 -16.0126 117.62 -19.0421 112.68C-20.5619 110.227 -22.0417 107.7 -23.4815 105.1C-24.1914 103.8 -24.9113 102.52 -25.6012 101.16C-25.9511 100.5 -26.2911 99.8202 -26.601 99.1602L-27.1609 98.0002C-27.3409 97.6002 -27.4909 97.3002 -27.7408 96.7302L-28.5107 95.0002C-29.3419 93.4165 -29.8375 91.6783 -29.9662 89.8942C-30.095 88.1102 -29.8544 86.3188 -29.2592 84.6321C-28.6641 82.9454 -27.7274 81.3996 -26.5077 80.0916C-25.2879 78.7835 -23.8114 77.7412 -22.1705 77.03C-20.5295 76.3187 -18.7595 75.9538 -16.9711 75.958C-15.1827 75.9623 -13.4145 76.3356 -11.7769 77.0546C-10.1394 77.7736 -8.6678 78.8228 -7.45426 80.1367C-6.24072 81.4505 -5.31132 83.0007 -4.7242 84.6902C-4.39722 85.4625 -4.13957 86.2623 -3.95432 87.0802Z" fill="white"/>
<path d="M215.324 261.27L223.113 278.34C224.673 281.76 213.634 290.15 198.457 297.09C183.279 304.03 169.691 306.84 168.141 303.45L159.992 285.61" fill="#FFBF00"/>
<path d="M211.004 259.14H211.754H212.234H212.534C212.813 259.176 213.09 259.226 213.364 259.29C213.525 259.327 213.682 259.377 213.834 259.44C214.12 259.516 214.388 259.651 214.62 259.835C214.852 260.019 215.044 260.249 215.184 260.51C215.277 260.728 215.325 260.963 215.324 261.2C215.309 261.544 215.235 261.882 215.104 262.2C215.048 262.358 214.981 262.512 214.904 262.66L214.774 262.89C214.684 263.05 214.584 263.21 214.474 263.38C214.364 263.55 214.244 263.71 214.104 263.88C213.964 264.05 213.974 264.05 213.904 264.14C213.834 264.23 213.614 264.5 213.444 264.68L213.194 264.95C213.027 265.143 212.847 265.333 212.654 265.52C212.454 265.7 212.264 265.9 212.044 266.1L211.724 266.39L210.954 267.07L210.114 267.76L209.515 268.23C208.165 269.28 206.595 270.38 204.855 271.5C204.165 271.95 203.435 272.4 202.686 272.85L200.956 273.85C200.566 274.08 200.166 274.31 199.756 274.53C199.346 274.75 198.936 274.99 198.516 275.21L197.896 275.56L196.606 276.24L195.297 276.91C193.737 277.703 192.124 278.477 190.457 279.23C188.798 279.99 187.148 280.7 185.538 281.36L184.168 281.92L182.818 282.44L182.149 282.69L180.819 283.18L179.519 283.64C178.869 283.87 178.239 284.08 177.619 284.28L175.17 285.04C173.17 285.62 171.33 286.04 169.65 286.42L168.9 286.56C168.291 286.67 167.701 286.76 167.151 286.84H166.811L166.381 286.89L165.551 286.97H164.771H163.391C163.171 286.97 162.961 286.97 162.771 286.91C162.58 286.891 162.389 286.861 162.201 286.82L161.941 286.76C161.781 286.727 161.624 286.68 161.472 286.62C161.327 286.572 161.186 286.512 161.052 286.44C160.646 286.258 160.317 285.94 160.122 285.54C160.099 285.496 160.082 285.449 160.072 285.4C159.959 285.025 159.959 284.625 160.072 284.25C160.109 284.107 160.156 283.967 160.212 283.83C160.272 283.68 160.332 283.53 160.412 283.37C160.492 283.21 160.682 282.9 160.842 282.65L161.022 282.4L161.162 282.21L161.312 282.02L161.632 281.62L161.721 281.51" fill="#000D1A"/>
<path d="M149.463 262.37H149.403L157.562 280.24C159.112 283.63 172.7 280.81 187.878 273.88C203.055 266.95 214.104 258.55 212.544 255.13L204.775 238.13L204.385 237.27" fill="#FFBF00"/>
<path d="M150.483 263.52C150.08 263.336 149.751 263.018 149.553 262.62C149.513 262.541 149.483 262.457 149.463 262.37C149.374 262.026 149.374 261.665 149.463 261.32C149.493 261.176 149.537 261.036 149.593 260.9C150.353 258.9 153.163 256.21 157.372 253.26L157.842 252.93C158.322 252.6 158.842 252.27 159.322 251.93L159.842 251.59L160.902 250.92L162.012 250.24L163.741 249.24L164.941 248.56C167.781 246.97 170.94 245.38 174.24 243.86C177.539 242.34 180.819 241.01 183.878 239.91L185.178 239.45C185.828 239.23 186.458 239.01 187.088 238.81L188.318 238.42L189.528 238.05L190.118 237.88L191.847 237.41L192.407 237.27C197.406 236.02 201.266 235.68 203.266 236.4C203.55 236.478 203.816 236.613 204.046 236.797C204.277 236.981 204.467 237.21 204.605 237.47C204.706 237.686 204.757 237.922 204.755 238.16C204.734 238.683 204.59 239.193 204.335 239.65C204.255 239.8 204.165 239.96 204.065 240.12C203.966 240.28 203.856 240.45 203.736 240.62C203.616 240.79 203.346 241.13 203.116 241.4C202.886 241.67 202.636 241.94 202.366 242.22L201.796 242.79C201.496 243.08 201.166 243.38 200.796 243.68C200.426 243.98 199.796 244.49 199.326 244.91C199.066 245.12 198.786 245.33 198.506 245.54C198.226 245.75 197.656 246.18 197.196 246.54C196.737 246.9 196.267 247.2 195.777 247.54L195.287 247.87L194.287 248.54L193.757 248.88L192.667 249.55C191.567 250.23 190.397 250.91 189.188 251.55C188.778 251.78 188.368 252.01 187.948 252.23L187.318 252.58L186.028 253.26L184.718 253.93C183.159 254.717 181.549 255.49 179.889 256.25C178.229 257.01 176.586 257.72 174.96 258.38L173.59 258.94L172.24 259.46L171.57 259.71C171.12 259.88 170.68 260.05 170.24 260.2C168.931 260.67 167.651 261.11 166.421 261.5L165.191 261.88L164.591 262.06L163.421 262.39L162.842 262.55L161.172 262.97C160.632 263.1 160.102 263.23 159.582 263.33C159.242 263.41 158.902 263.47 158.582 263.53C157.922 263.66 157.292 263.76 156.692 263.84C156.242 263.91 155.813 263.96 155.393 263.99L154.583 264.05C154.193 264.05 153.823 264.05 153.473 264.05C153.123 264.05 152.793 264.05 152.473 264.05L151.873 263.97L151.343 263.87C151.173 263.87 151.013 263.78 150.863 263.72C150.724 263.671 150.587 263.615 150.453 263.55" fill="#000D1A"/>
<path d="M206.615 258.69C207.802 258.69 208.765 257.728 208.765 256.54C208.765 255.353 207.802 254.39 206.615 254.39C205.427 254.39 204.465 255.353 204.465 256.54C204.465 257.728 205.427 258.69 206.615 258.69Z" fill="#000D1A"/>
<path d="M216.433 281.46C217.621 281.46 218.583 280.498 218.583 279.31C218.583 278.123 217.621 277.16 216.433 277.16C215.246 277.16 214.283 278.123 214.283 279.31C214.283 280.498 215.246 281.46 216.433 281.46Z" fill="#000D1A"/>
</g>
</svg>
