<svg width="1920" height="350" viewBox="0 0 1920 350" fill="none" xmlns="http://www.w3.org/2000/svg">
<path d="M1476.6 208.605L1505.44 190.623L1517.53 210.024L1479.14 233.956L1472.99 224.094C1472.21 222.841 1471.69 221.446 1471.44 219.989C1471.2 218.532 1471.25 217.041 1471.58 215.603C1471.92 214.164 1472.53 212.806 1473.39 211.605C1474.25 210.404 1475.34 209.385 1476.6 208.605Z" fill="#F1F2F5"/>
<path d="M1619.12 256.57C1619.12 256.57 1640.2 291.42 1647.46 309.92C1647.46 309.92 1688.45 288.19 1720.77 259.42L1692.36 212.16C1692.36 212.16 1651.53 239.47 1619.12 256.57Z" fill="#F1F2F5"/>
<path d="M68.4297 235.39L136.483 191C128.795 210.86 128.415 223 128.995 240.76L68.4297 279.71V235.39Z" fill="white"/>
<path d="M483.19 193L530.739 157.33C530.739 157.33 503.595 130.58 492.238 96.2305L440.591 131.36C440.591 131.36 464.035 176.49 483.19 193Z" fill="#F1F2F5"/>
<path d="M461.796 268.14L456.348 262.68L475.103 245L492.239 260.41L481.572 269.11C478.742 271.429 475.151 272.614 471.497 272.435C467.843 272.255 464.386 270.725 461.796 268.14Z" fill="#E9EBF2"/>
<path d="M530.579 229.15L479.871 270.5C481.119 269.48 482.129 268.2 482.831 266.748C483.532 265.297 483.908 263.71 483.932 262.098C483.956 260.486 483.627 258.889 482.968 257.417C482.31 255.946 481.338 254.636 480.121 253.58C441.92 220.18 402.29 168.48 402.29 168.48L444.92 139.4L458.666 130C468.284 148.41 483.41 166.59 498.107 181.77C508.45 192.42 519.328 202.536 530.699 212.08C531.96 213.12 532.973 214.429 533.665 215.91C534.357 217.392 534.71 219.009 534.699 220.644C534.687 222.279 534.311 223.89 533.599 225.362C532.886 226.833 531.854 228.128 530.579 229.15Z" fill="#F1F2F5"/>
<path d="M498.107 181.81L483.191 193C469.074 180.84 452.638 153.14 444.96 139.4L458.667 130C468.284 148.45 483.411 166.63 498.107 181.81Z" fill="#E9EBF2"/>
<path d="M474.603 313.22L433.033 349.65L432.623 350H368.788L365.229 347.47C363.969 346.56 362.729 345.65 361.53 344.76L359.96 343.58L357.281 341.58C352.372 337.82 348.283 334.47 345.283 331.98L344.024 330.92L342.384 329.53L341.674 328.91L340.325 327.73L340.155 327.58L340.015 327.45L359.48 311.91L413.387 268.91C425.444 285.12 474.603 313.22 474.603 313.22Z" fill="#E9EBF2"/>
<path d="M433.993 350H246.327C246.327 350 209.546 325.47 188.671 277.34L283.748 228.34C283.748 228.34 302.594 272.16 359.49 311.88C382.257 327.618 406.98 340.315 433.033 349.65L433.993 350Z" fill="white"/>
<path d="M495.738 143.35L358.351 262.72C360.11 260.29 456.327 151.38 328.658 78.61C303.144 64.07 274.021 66.82 248.477 72.12C247.347 72.35 246.227 72.59 245.108 72.85C191.27 85.1 147.231 121.47 138.233 128.7C137.083 129.63 136.483 130.14 136.483 130.14C137.043 129.4 137.603 128.67 138.173 127.94C196.939 51.85 283.089 0 283.089 0H424.105C427.091 1.12667 430.037 2.37333 432.943 3.74C445.739 9.59749 457.214 17.99 466.675 28.41C468.801 30.7833 470.801 33.1167 472.674 35.41C523.342 97.33 495.738 143.35 495.738 143.35Z" fill="white"/>
<path d="M245.157 248.231C254.925 279.451 269.921 298.141 269.921 298.141L230.931 325.471L195.939 350.001H128.455C106.35 321.001 96.6625 291.191 94.2331 263.161C93.3728 253.126 93.3728 243.036 94.2331 233.001C94.6863 227.668 95.3528 222.411 96.2326 217.231C105.97 160.891 141.632 112.011 192.21 84.0909C253.995 50.0009 283.748 68.9309 283.748 68.9309C228.401 141.351 232.03 206.161 245.157 248.231Z" fill="#E9EBF2"/>
<path d="M390.262 191.941C379.995 198.521 364.479 204.891 348.472 198.281C296.915 177.001 302.603 115.111 330.207 79.2805C343.204 62.3705 361.109 51.2805 380.195 52.9605C380.195 52.9605 354.661 32.0605 259.564 58.6905C254.921 63.0021 250.578 67.6263 246.567 72.5305C223.872 99.7405 183.941 164.081 232.68 238.471C243.027 254.261 259.204 265.541 277.549 272.001C290.828 276.713 305.007 278.329 319.005 276.726C333.003 275.123 346.45 270.343 358.32 262.751C359.21 261.531 381.894 230.001 390.262 191.941Z" fill="#F1F2F5"/>
<path d="M242.987 76.9105C242.987 76.9105 305.512 12.1705 399.72 84.8305L489.539 24.0605C489.539 24.0605 432.302 -15.1295 346.453 9.06047C260.603 33.2505 242.987 76.9105 242.987 76.9105Z" fill="#F3F4F7"/>
<path d="M269.921 298.141L224.022 330.321C210.206 317.011 198.379 296.491 188.711 277.321L245.197 248.211C254.925 279.451 269.921 298.141 269.921 298.141Z" fill="#F6F7F9"/>
<path d="M433.032 349.65L432.622 350H368.788L365.228 347.47C363.959 346.55 362.729 345.64 361.529 344.76L359.96 343.58L357.28 341.58C352.372 337.82 348.283 334.47 345.283 331.98L344.024 330.92L342.384 329.53L341.674 328.91L340.325 327.73L340.155 327.58L340.015 327.45L359.48 311.91C382.251 327.638 406.977 340.326 433.032 349.65Z" fill="#F6F7F9"/>
<path d="M412.428 191.039L485.66 131.359" stroke="#F6F7F9" stroke-width="6" stroke-miterlimit="10" stroke-linecap="round"/>
<path d="M414.947 158.43L485.66 104.59" stroke="#F6F7F9" stroke-width="6" stroke-miterlimit="10" stroke-linecap="round"/>
<path d="M412.428 126.149L478.032 76.1992" stroke="#F6F7F9" stroke-width="6" stroke-miterlimit="10" stroke-linecap="round"/>
<path d="M242.987 46.64L273.52 23.39L285.157 14.54L299.643 3.5" stroke="#F6F7F9" stroke-width="6" stroke-miterlimit="10" stroke-linecap="round"/>
<path d="M396.682 59.5698L459.416 21.2598" stroke="#F6F7F9" stroke-width="6" stroke-miterlimit="10" stroke-linecap="round"/>
<path d="M374.876 46.0191L430.802 11.8691" stroke="#F6F7F9" stroke-width="6" stroke-miterlimit="10" stroke-linecap="round"/>
<path d="M128.954 240.8L94.193 263.16C93.3328 253.125 93.3328 243.035 94.193 233C94.6462 227.667 95.3127 222.41 96.1925 217.23L136.483 191C128.795 210.9 128.415 223 128.954 240.8Z" fill="#F6F7F9"/>
<path d="M1956.71 202.831C1956.71 202.831 1927.65 297.831 1824.97 334.611C1752.72 360.521 1708.77 313.991 1689 284.141C1684.28 277.105 1680.17 269.678 1676.71 261.941L1708.51 239.001L1794.94 176.641C1794.94 176.641 1860.81 272.591 1956.71 202.831Z" fill="#E9EBF2"/>
<path d="M1662.23 76.8706C1662.23 76.8706 1627.24 110.211 1642.62 160.411C1651.61 189.881 1683.35 189.041 1698.71 176.671L1761.83 125.751C1761.83 125.751 1731.65 135.701 1716.15 130.511C1700.64 125.321 1679.34 83.9806 1718.09 50.3906L1662.23 76.8706Z" fill="#E9EBF2"/>
<path d="M1654.8 0C1654.8 0 1708.4 24.55 1725.2 70.41C1741.99 116.27 1718.74 160.84 1698.71 176.67L1845.1 58.57L1774.91 0H1654.8Z" fill="#F1F2F5"/>
<path d="M1927.89 274.13C1877.54 324.82 1826.55 334.32 1825.01 334.6C1904.42 308.41 1949.91 178.6 1853.07 96.25C1756.22 13.9 1662.23 76.87 1662.23 76.87C1714.22 19.38 1753.57 0 1753.57 0H1892.42C1913.08 7.11 1931.17 23.26 1931.17 23.26C1940.86 33.1568 1949.33 44.1863 1956.39 56.11C1998.16 126.46 1985.51 216.11 1927.89 274.13Z" fill="white"/>
<path d="M1576.5 70.64L1668.01 7.26L1654.8 0H1511.42L1480.52 22.08L1529.62 62.91L1549.05 48.12C1549.05 48.12 1560.35 54.92 1576.5 70.64Z" fill="white"/>
<path d="M1576.5 70.6402L1556 84.8302L1529.62 62.9102L1496.23 88.3402C1539.82 113.73 1570.85 175 1570.85 175L1624.35 131.51C1607.49 103.85 1590.24 84.0002 1576.5 70.6402Z" fill="#F1F2F5"/>
<path d="M1576.5 70.6391C1560.34 54.9191 1549.06 48.1191 1549.06 48.1191L1529.62 62.9091L1555.99 84.8291L1576.5 70.6391Z" fill="#E9EBF2"/>
<path d="M1385.29 0C1385.29 0 1424.28 21.92 1449.34 44.38L1480.52 22.08L1453.97 0H1385.29Z" fill="white"/>
<path d="M1453.97 0L1480.52 22.09L1511.42 0H1453.97Z" fill="#E9EBF2"/>
<path d="M1720.77 259.42C1710.69 268.271 1700.1 276.525 1689.05 284.14C1684.33 277.105 1680.21 269.677 1676.76 261.94L1708.51 239L1720.77 259.42Z" fill="white"/>
<path d="M1536.06 182.7C1550.24 200.14 1585.99 246.7 1624.35 316.52L1576.99 342.18C1576.99 342.18 1528.67 253.07 1489.25 211.44C1487.46 209.556 1485.06 208.355 1482.48 208.043C1479.9 207.731 1477.29 208.327 1475.1 209.73L1521.3 180.3C1523.63 178.822 1526.42 178.25 1529.14 178.693C1531.86 179.135 1534.32 180.561 1536.06 182.7Z" fill="white"/>
<path d="M1875.55 89.6491L1933.68 42.2891" stroke="#F6F7F9" stroke-width="6" stroke-miterlimit="10" stroke-linecap="round"/>
<path d="M1901.67 24.5994L1909.02 18.6094" stroke="#F6F7F9" stroke-width="6" stroke-miterlimit="10" stroke-linecap="round"/>
<path d="M1817.43 50.3908L1848.83 24.8008" stroke="#F6F7F9" stroke-width="6" stroke-miterlimit="10" stroke-linecap="round"/>
<path d="M1832.07 0L1781.67 41.06C1781.14 41.5023 1780.47 41.7431 1779.78 41.74C1779.16 41.7421 1778.56 41.5516 1778.05 41.1947C1777.54 40.8378 1777.16 40.3321 1776.95 39.7473C1776.74 39.1626 1776.72 38.5275 1776.88 37.9298C1777.05 37.3321 1777.4 36.8011 1777.88 36.41L1822.55 0H1832.07Z" fill="#F6F7F9"/>
<path d="M1785.77 0L1737.41 39.41C1736.88 39.8435 1736.21 40.0801 1735.52 40.08C1734.9 40.0821 1734.3 39.8916 1733.79 39.5347C1733.28 39.1778 1732.9 38.6721 1732.69 38.0873C1732.48 37.5026 1732.46 36.8675 1732.63 36.2698C1732.79 35.6721 1733.14 35.1411 1733.62 34.75L1776.27 0H1785.77Z" fill="#F6F7F9"/>
<path d="M1900.44 116.069L1922.99 97.6895" stroke="#F6F7F9" stroke-width="6" stroke-miterlimit="10" stroke-linecap="round"/>
<path d="M1848.83 67.6491L1887.93 35.7891" stroke="#F6F7F9" stroke-width="6" stroke-miterlimit="10" stroke-linecap="round"/>
<path d="M254.315 174.78C254.813 175.635 255.452 176.399 256.205 177.04C257.429 178.067 258.901 178.757 260.474 179.04L298.524 186.31C295.551 181.545 293.174 176.434 291.446 171.09C288.227 161.4 286.057 148.09 290.636 134.35C290.636 134.35 267.162 130.66 250.946 126.76C250.926 126.79 241.548 153.05 254.315 174.78Z" fill="#FFBF00"/>
<path d="M256.214 177C257.438 178.028 258.91 178.717 260.483 179L298.533 186.27C301.693 186.88 306.881 180.16 303.162 173.27L263.772 165.74C265.222 170.37 261.812 180.27 256.214 177Z" fill="#000D1A"/>
<path d="M1607.45 218.529L1639.45 224.739C1642.37 239.182 1643.48 253.932 1642.77 268.649C1632.47 279.181 1620.9 288.392 1608.32 296.069L1582.01 276.819C1583.89 265.497 1584.23 253.972 1583.01 242.559C1592.21 235.695 1600.43 227.611 1607.45 218.529Z" fill="#000D1A"/>
<path d="M1603.95 217L1635.95 223.21C1638.86 237.654 1639.97 252.403 1639.26 267.12C1628.95 277.652 1617.38 286.866 1604.81 294.55L1578.5 275.3C1580.38 263.974 1580.72 252.446 1579.5 241.03C1588.7 234.166 1596.93 226.082 1603.95 217Z" fill="#FFBF00"/>
<path d="M1591.81 250.89C1591.44 252.487 1591.25 254.121 1591.25 255.76C1591.24 255.946 1591.27 256.133 1591.34 256.306C1591.41 256.478 1591.52 256.634 1591.66 256.76L1591.85 256.89C1592.09 257.012 1592.37 257.041 1592.64 256.97C1593.14 256.828 1593.68 256.878 1594.15 257.11C1594.43 257.291 1594.68 257.525 1594.87 257.801C1595.06 258.076 1595.19 258.387 1595.27 258.715C1595.34 259.043 1595.34 259.382 1595.28 259.712C1595.22 260.042 1595.1 260.358 1594.92 260.64C1594.64 261.166 1594.21 261.598 1593.69 261.88C1593.34 262.079 1593.07 262.398 1592.93 262.78C1592.78 263.139 1592.78 263.541 1592.93 263.9C1593.56 265.271 1594.39 266.538 1595.4 267.66C1595.46 267.734 1595.54 267.798 1595.63 267.85C1595.85 267.975 1596.11 268.018 1596.36 267.97C1596.76 267.887 1597.12 267.65 1597.36 267.31C1597.67 266.759 1598.18 266.343 1598.78 266.142C1599.39 265.941 1600.04 265.969 1600.63 266.22C1601.14 266.588 1601.5 267.134 1601.64 267.753C1601.78 268.371 1601.68 269.019 1601.37 269.57C1601.19 269.945 1601.16 270.372 1601.28 270.77C1601.35 271.004 1601.51 271.203 1601.72 271.33C1601.81 271.388 1601.91 271.429 1602.02 271.45C1603.44 271.726 1604.9 271.756 1606.33 271.54C1606.74 271.448 1607.09 271.214 1607.33 270.88C1607.61 270.525 1607.76 270.089 1607.75 269.64C1607.74 268.976 1607.9 268.32 1608.22 267.74C1609.02 266.25 1610.58 265.5 1611.72 266.08C1611.96 266.207 1612.16 266.381 1612.33 266.591C1612.49 266.8 1612.61 267.042 1612.67 267.3C1612.71 267.434 1612.77 267.56 1612.86 267.67C1612.95 267.779 1613.05 267.871 1613.17 267.94L1613.39 268.02C1613.59 268.053 1613.79 268.04 1613.98 267.983C1614.17 267.925 1614.34 267.825 1614.48 267.69C1615.89 266.517 1617.13 265.174 1618.2 263.69C1618.48 263.315 1618.63 262.858 1618.63 262.39C1618.64 262.198 1618.6 262.006 1618.52 261.832C1618.44 261.658 1618.32 261.506 1618.16 261.39C1617.16 260.72 1616.96 259.14 1617.59 257.69C1618.22 256.24 1619.59 255.34 1620.69 255.59C1620.88 255.621 1621.08 255.607 1621.26 255.548C1621.45 255.489 1621.61 255.387 1621.75 255.25C1622.09 254.934 1622.32 254.517 1622.41 254.06C1622.78 252.231 1622.91 250.362 1622.8 248.5C1622.8 248.306 1622.75 248.116 1622.67 247.942C1622.58 247.769 1622.45 247.618 1622.3 247.5C1622.24 247.454 1622.17 247.416 1622.1 247.39C1621.97 247.344 1621.82 247.328 1621.68 247.341C1621.54 247.355 1621.4 247.399 1621.28 247.47C1621.05 247.6 1620.79 247.678 1620.52 247.701C1620.25 247.723 1619.98 247.689 1619.73 247.6C1618.53 247.16 1618.02 245.51 1618.57 243.91C1618.76 243.291 1619.11 242.731 1619.57 242.28C1619.9 241.977 1620.12 241.572 1620.19 241.13C1620.28 240.716 1620.2 240.285 1619.97 239.93C1619.13 238.707 1618.09 237.641 1616.88 236.78C1616.8 236.722 1616.7 236.678 1616.6 236.65C1616.36 236.577 1616.1 236.598 1615.87 236.71C1615.5 236.899 1615.21 237.22 1615.06 237.61C1614.88 238.227 1614.46 238.751 1613.91 239.078C1613.35 239.404 1612.69 239.508 1612.06 239.37C1611.49 239.112 1611.03 238.655 1610.76 238.083C1610.5 237.511 1610.46 236.863 1610.63 236.26C1610.72 235.862 1610.65 235.446 1610.43 235.1C1610.31 234.887 1610.1 234.731 1609.86 234.66C1609.76 234.645 1609.66 234.645 1609.55 234.66C1608.13 234.695 1606.72 234.937 1605.37 235.38C1605.18 235.441 1605.01 235.54 1604.87 235.669C1604.72 235.798 1604.61 235.954 1604.53 236.13C1604.34 236.489 1604.29 236.906 1604.39 237.3C1604.52 237.879 1604.5 238.486 1604.31 239.05C1604.22 239.374 1604.07 239.679 1603.87 239.947C1603.67 240.214 1603.42 240.44 1603.13 240.609C1602.84 240.779 1602.52 240.891 1602.19 240.937C1601.86 240.984 1601.52 240.964 1601.2 240.88C1600.7 240.7 1600.29 240.344 1600.05 239.88C1599.92 239.632 1599.71 239.442 1599.45 239.35C1599.38 239.341 1599.31 239.341 1599.24 239.35C1599.06 239.33 1598.87 239.35 1598.7 239.409C1598.53 239.468 1598.37 239.564 1598.24 239.69C1597.12 240.744 1596.12 241.91 1595.24 243.17C1595.02 243.487 1594.92 243.877 1594.98 244.26C1595 244.439 1595.06 244.611 1595.15 244.763C1595.25 244.915 1595.38 245.044 1595.53 245.14C1596.02 245.494 1596.38 246.014 1596.53 246.606C1596.67 247.198 1596.61 247.823 1596.34 248.37C1596.12 248.958 1595.7 249.446 1595.14 249.74C1594.59 250.033 1593.95 250.112 1593.34 249.96C1593.17 249.914 1592.99 249.906 1592.82 249.935C1592.65 249.964 1592.48 250.031 1592.34 250.13C1592.09 250.323 1591.9 250.588 1591.81 250.89ZM1600.5 250.19C1602.37 245.92 1606.62 243.43 1610.31 244.74C1614 246.05 1615.56 251.08 1613.47 255.85C1611.38 260.62 1606.63 262.85 1603.18 261.09C1599.72 259.33 1598.61 254.45 1600.5 250.19Z" fill="#000D1A"/>
<path d="M1660.36 117.27C1660.37 119 1660.01 120.711 1659.3 122.286C1658.58 123.861 1657.53 125.262 1656.22 126.391C1654.91 127.519 1653.37 128.349 1651.71 128.822C1650.05 129.295 1648.3 129.4 1646.59 129.13C1639.23 128.07 1633.53 122.13 1633.6 115.77C1633.67 109.41 1639.67 104.14 1647.06 103.91C1648.83 103.857 1650.59 104.167 1652.23 104.82C1653.87 105.474 1655.36 106.457 1656.61 107.709C1657.85 108.961 1658.83 110.456 1659.47 112.1C1660.12 113.745 1660.42 115.504 1660.36 117.27Z" fill="#4CC3FF"/>
<path d="M1713.94 120.279C1713.74 130.059 1707.36 137.119 1700 136.059C1692.64 134.999 1687 127.269 1687.18 118.779C1687.36 110.289 1693.28 103.219 1700.67 102.989C1708.06 102.759 1714.14 110.499 1713.94 120.279Z" fill="#4CC3FF"/>
<path d="M1674.83 105.999C1674.83 114.189 1668.66 120.329 1661.28 119.719C1653.9 119.109 1648.07 113.019 1648.06 106.109C1648.05 99.1993 1653.85 93.1093 1661.24 92.3893C1668.63 91.6693 1674.82 97.8193 1674.83 105.999Z" fill="#4CC3FF"/>
<path d="M1694.84 99.87C1694.98 111.87 1686.73 120.95 1676.93 120.12C1672.15 119.644 1667.72 117.436 1664.47 113.913C1661.21 110.39 1659.36 105.796 1659.26 101C1659.29 96.1399 1661.03 91.446 1664.18 87.7426C1667.33 84.0393 1671.68 81.5634 1676.47 80.75C1686.24 79.3 1694.7 87.86 1694.84 99.87Z" fill="#4CC3FF"/>
<path d="M1699.99 108.46L1647.08 108.09C1647.08 115.097 1646.91 122.097 1646.55 129.09L1699.3 135.93C1699.73 126.797 1699.96 117.64 1699.99 108.46Z" fill="#4CC3FF"/>
<path d="M1694.36 105.001C1692.85 106.161 1691.36 107.281 1689.84 108.391C1689.84 108.391 1694.35 100.551 1693.32 91.7306C1693.32 91.7006 1696 98.7806 1694.36 105.001Z" fill="#000D1A"/>
<path d="M1659.06 122.371L1653.26 121.881C1653.32 119.991 1653.36 118.101 1653.4 116.211L1659.2 116.521C1659.16 118.471 1659.12 120.421 1659.06 122.371Z" fill="#000D1A"/>
<path d="M1677.86 124L1672.07 123.52C1672.13 121.427 1672.18 119.337 1672.22 117.25L1678.02 117.55C1677.98 119.67 1677.92 121.82 1677.86 124Z" fill="#000D1A"/>
<path d="M1696.66 125.54L1690.86 125.05C1690.93 122.763 1690.99 120.473 1691.03 118.18L1696.84 118.49C1696.8 120.83 1696.74 123.18 1696.66 125.54Z" fill="#000D1A"/>
<path d="M20.9502 235.75C29.9944 235.75 37.3262 228.417 37.3262 219.37C37.3262 210.324 29.9944 202.99 20.9502 202.99C11.906 202.99 4.57422 210.324 4.57422 219.37C4.57422 228.417 11.906 235.75 20.9502 235.75Z" fill="#4CC3FF"/>
<path d="M-7.92283 221.489C4.09747 221.489 13.8418 211.742 13.8418 199.719C13.8418 187.696 4.09747 177.949 -7.92283 177.949C-19.9431 177.949 -29.6875 187.696 -29.6875 199.719C-29.6875 211.742 -19.9431 221.489 -7.92283 221.489Z" fill="#4CC3FF"/>
<path d="M20.0901 208.42H-44.624V235.75H20.0901V208.42Z" fill="#4CC3FF"/>
<path d="M13.2115 204.939L7.67285 208.419C7.67285 208.419 13.1515 200.349 12.1717 191.359C12.1717 191.359 15.221 198.659 13.2115 204.939Z" fill="#000D1A"/>
<path d="M16.3707 218.529H9.27246V225.629H16.3707V218.529Z" fill="#000D1A"/>
<path d="M442.64 274.699L446.519 293.059C447.299 296.739 434.692 302.519 418.366 305.969C402.04 309.419 388.173 309.209 387.373 305.549L383.314 286.369H383.364" fill="#4CC3FF"/>
<path d="M438.881 271.67L439.111 271.72L439.601 271.85C439.771 271.85 439.92 271.94 440.07 271.99L440.36 272.08C440.624 272.172 440.881 272.283 441.13 272.41C441.279 272.48 441.423 272.56 441.56 272.65C441.821 272.789 442.051 272.98 442.236 273.21C442.422 273.44 442.559 273.705 442.64 273.99C442.695 274.223 442.695 274.466 442.64 274.7C442.566 275.059 442.42 275.399 442.21 275.7C442.12 275.83 442.02 275.96 441.91 276.1L441.74 276.3L441.34 276.7C441.19 276.84 441.04 276.98 440.87 277.12L440.61 277.33C440.44 277.47 440.25 277.61 440.05 277.75L439.751 277.97L439.091 278.4L438.381 278.83L438.001 279.05L437.101 279.54L436.101 280.03L435.412 280.36C433.862 281.09 432.092 281.82 430.153 282.53C429.373 282.82 428.573 283.1 427.733 283.38L425.884 284L424.564 284.4L423.215 284.79L422.525 284.99L421.125 285.37L419.695 285.74C418.006 286.17 416.256 286.58 414.467 286.96C412.677 287.34 410.918 287.67 409.208 287.96L407.748 288.2L406.309 288.42L405.599 288.52L404.199 288.7L402.83 288.87L400.83 289.08C399.96 289.16 399.11 289.23 398.281 289.28C396.221 289.42 394.282 289.46 392.602 289.42H391.842C391.222 289.42 390.633 289.36 390.073 289.31H389.733H389.303L388.473 289.2L387.703 289.07L387.333 289L386.653 288.84L386.334 288.75L385.734 288.56C385.553 288.5 385.376 288.43 385.204 288.35L384.964 288.24L384.534 288C384.406 287.92 384.286 287.83 384.174 287.73C383.817 287.464 383.562 287.082 383.454 286.65C383.449 286.6 383.449 286.55 383.454 286.5C383.421 286.108 383.505 285.715 383.694 285.37C383.754 285.25 383.834 285.12 383.914 284.99L384.214 284.59C384.397 284.377 384.59 284.173 384.794 283.98L385.014 283.77L385.194 283.62L385.384 283.46L385.784 283.15L385.904 283.06" fill="#000D1A"/>
<path d="M378.135 261.39H378.075L382.134 280.61C382.904 284.26 396.771 284.47 413.127 281.02C429.483 277.57 442.06 271.8 441.29 268.12L437.421 249.82L437.221 248.9" fill="#4CC3FF"/>
<path d="M378.895 262.73C378.539 262.465 378.287 262.082 378.185 261.65C378.175 261.564 378.175 261.477 378.185 261.39C378.179 261.042 378.262 260.698 378.425 260.39C378.494 260.256 378.571 260.126 378.655 260C379.825 258.24 383.164 256.21 387.903 254.25L388.443 254.03C388.972 253.81 389.532 253.6 390.102 253.38L390.682 253.17L391.862 252.74L393.091 252.32L395.001 251.71L396.321 251.3C399.44 250.37 402.849 249.5 406.418 248.75C409.987 248 413.416 247.41 416.696 247L418.055 246.83L420.055 246.62L421.355 246.51L422.604 246.42H423.224L425.004 246.34H425.583C430.712 246.21 434.581 246.72 436.371 247.86C436.633 247.997 436.865 248.187 437.051 248.417C437.236 248.648 437.373 248.914 437.451 249.2C437.495 249.431 437.495 249.669 437.451 249.9C437.32 250.405 437.069 250.872 436.721 251.26C436.611 251.39 436.481 251.53 436.351 251.66C436.221 251.79 436.071 251.94 435.921 252.08C435.771 252.22 435.431 252.49 435.151 252.7C434.871 252.91 434.561 253.13 434.231 253.34L433.552 253.78L432.412 254.43C431.882 254.72 431.312 255.01 430.712 255.3L429.772 255.74C429.303 255.96 428.773 256.18 428.283 256.4C427.793 256.62 427.283 256.84 426.693 257.05L426.133 257.27L424.984 257.7L424.404 257.91L423.194 258.33C421.964 258.75 420.685 259.16 419.345 259.56L417.985 259.96L417.296 260.15L415.896 260.54L414.466 260.91C412.777 261.33 411.037 261.74 409.247 262.12C407.458 262.5 405.698 262.83 403.979 263.12L402.519 263.36L401.089 263.58L400.38 263.68L398.98 263.87C397.59 264.04 396.251 264.18 394.981 264.3L393.701 264.4H393.081L391.862 264.47H391.262C390.672 264.47 390.102 264.47 389.542 264.47H387.913H386.913C386.243 264.47 385.603 264.41 384.993 264.36C384.544 264.36 384.114 264.28 383.704 264.22C383.434 264.22 383.164 264.15 382.914 264.1C382.534 264.03 382.164 263.96 381.824 263.88C381.484 263.8 381.164 263.71 380.824 263.62L380.255 263.42L379.765 263.19C379.614 263.118 379.467 263.038 379.325 262.95C379.199 262.872 379.079 262.785 378.965 262.69" fill="#000D1A"/>
<path d="M435.173 270.329C436.36 270.329 437.322 269.367 437.322 268.179C437.322 266.992 436.36 266.029 435.173 266.029C433.986 266.029 433.023 266.992 433.023 268.179C433.023 269.367 433.986 270.329 435.173 270.329Z" fill="#000D1A"/>
<path d="M439.781 294.691C440.968 294.691 441.931 293.728 441.931 292.541C441.931 291.353 440.968 290.391 439.781 290.391C438.594 290.391 437.632 291.353 437.632 292.541C437.632 293.728 438.594 294.691 439.781 294.691Z" fill="#000D1A"/>
</svg>
