<svg width="120" height="120" viewBox="0 0 120 120" fill="none" xmlns="http://www.w3.org/2000/svg">
<path d="M97.5155 85.8837L52.0312 41.3555L65.8713 27.6946C66.3242 27.2396 66.4603 26.5555 66.2133 25.9605C65.9695 25.3687 65.39 24.9805 64.7503 24.9805H59.2087C52.1503 24.9805 45.513 27.7423 40.5193 32.76L22.4631 50.8996C21.8456 51.52 21.8456 52.5287 22.4631 53.1491L30.3797 61.1036C30.69 61.4155 31.0954 61.5714 31.5007 61.5714C31.906 61.5714 32.3114 61.4155 32.6217 61.1068L44.9431 48.7264L88.9466 94.4937C89.2411 94.8055 89.6527 94.9805 90.0834 94.9805C94.447 94.9805 98 91.4105 98 87.0259C98 86.5932 97.8258 86.1796 97.5155 85.8837Z" fill="#D1D5E0"/>
<path d="M44.131 92.5317L59.5984 77.0649C61.4125 75.2508 62.5384 73.565 63.1392 71.7596C63.5738 70.4618 64.6064 69.4264 65.9101 68.9947C67.6952 68.3968 69.4306 67.236 71.2681 65.3985C72.5865 64.0831 72.7295 61.6454 71.4141 60.3242L70.1094 59.0508L86.8522 42.5178L88.8209 42.5178C90.4893 42.5178 91.9885 41.5932 92.7352 40.0999L97.7607 30.0464C98.0407 29.4835 97.9298 28.8039 97.4894 28.3635L94.5727 25.4469C94.1294 25.0036 93.4498 24.8928 92.8898 25.1728L82.8358 30.201C81.3425 30.9418 80.415 32.4439 80.415 34.1122L80.415 36.0809L63.6438 52.8513L62.4509 51.6584C61.7976 51.0022 60.9255 50.6405 59.9979 50.6405C59.0704 50.6405 58.1983 51.0022 57.4837 51.7197C55.6695 53.5338 54.5437 55.2196 53.9428 57.025C53.5082 58.3229 52.4757 59.3583 51.172 59.7899C49.3665 60.3936 47.6806 61.5224 45.8694 63.3336L30.402 78.8003C28.8212 80.384 27.9141 82.5715 27.9141 84.8027L27.9141 84.8143C27.9141 87.0485 28.8212 89.2359 30.402 90.8167L32.117 92.5317C33.7212 94.1358 35.8504 95.0195 38.1313 95.0195C40.3947 95.0166 42.5268 94.1329 44.131 92.5317Z" fill="#4CC3FF"/>
<path d="M64.8997 69.4829C65.2113 69.279 65.5504 69.1139 65.9102 68.9948C67.6952 68.3969 69.4307 67.2361 71.2682 65.3986C72.5553 64.1144 72.7221 61.7606 71.5053 60.4202L63.7082 52.7871L63.6439 52.8514L62.451 51.6585C61.7976 51.0023 60.9255 50.6406 59.998 50.6406C59.0705 50.6406 58.1984 51.0023 57.4838 51.7198C55.6696 53.5339 54.5437 55.2197 53.9429 57.0251C53.858 57.2787 53.7502 57.5223 53.6221 57.7533L64.8997 69.4829Z" fill="#000D1A"/>
<line x1="35.8318" y1="87.2796" x2="55.3318" y2="68.4046" stroke="white" stroke-width="3"/>
</svg>
