<svg width="120" height="120" viewBox="0 0 120 120" fill="none" xmlns="http://www.w3.org/2000/svg">
<path d="M19 25C15.6863 25 13 27.6863 13 31V79C13 82.3137 15.6863 85 19 85H54V94.8258C54 95.6801 55.0021 96.141 55.6508 95.585L68 85H77C80.3137 85 83 82.3137 83 79V31C83 27.6863 80.3137 25 77 25H19Z" fill="#4CC3FF"/>
<path d="M44.9311 59.5417C44.9311 58.0972 45.2452 56.9028 45.8734 55.9583C46.5289 55.0139 47.4711 53.9722 48.7002 52.8333C49.6015 52 50.257 51.3056 50.6667 50.75C51.1037 50.1667 51.3222 49.5139 51.3222 48.7917C51.3222 47.7639 50.9125 46.9583 50.0931 46.375C49.3011 45.7639 48.2359 45.4583 46.8976 45.4583C45.6139 45.4583 44.4668 45.7361 43.4562 46.2917C42.473 46.8194 41.64 47.5694 40.9572 48.5417L36 45.5833C37.1471 43.8056 38.6903 42.4306 40.6294 41.4583C42.5959 40.4861 44.9174 40 47.594 40C50.7349 40 53.2477 40.6806 55.1322 42.0417C57.0441 43.4028 58 45.2917 58 47.7083C58 48.8472 57.8088 49.8472 57.4264 50.7083C57.0714 51.5694 56.6207 52.3056 56.0745 52.9167C55.5556 53.5 54.8728 54.1806 54.0261 54.9583C53.0155 55.875 52.2781 56.6528 51.8138 57.2917C51.3495 57.9028 51.1173 58.6528 51.1173 59.5417H44.9311ZM48.0447 70C46.9249 70 45.9826 69.6389 45.2179 68.9167C44.4804 68.1667 44.1117 67.2639 44.1117 66.2083C44.1117 65.1528 44.4804 64.2778 45.2179 63.5833C45.9553 62.8611 46.8976 62.5 48.0447 62.5C49.1918 62.5 50.1341 62.8611 50.8715 63.5833C51.6089 64.2778 51.9777 65.1528 51.9777 66.2083C51.9777 67.2639 51.5953 68.1667 50.8305 68.9167C50.0931 69.6389 49.1645 70 48.0447 70Z" fill="white"/>
<path d="M68 67C68 65.3431 69.3431 64 71 64H83V70H71C69.3431 70 68 68.6569 68 67Z" fill="#000D1A"/>
<path d="M108 67C108 68.6569 106.657 70 105 70L83 70L83 64L105 64C106.657 64 108 65.3431 108 67Z" fill="#D1D5E0"/>
<path d="M68 55C68 53.3431 69.3431 52 71 52H83V58H71C69.3431 58 68 56.6569 68 55Z" fill="#000D1A"/>
<path d="M108 55C108 56.6569 106.657 58 105 58L83 58L83 52L105 52C106.657 52 108 53.3431 108 55Z" fill="#D1D5E0"/>
<path d="M68 43C68 41.3431 69.3431 40 71 40H83V46H71C69.3431 46 68 44.6569 68 43Z" fill="#000D1A"/>
<path d="M108 43C108 44.6569 106.657 46 105 46L83 46L83 40L105 40C106.657 40 108 41.3431 108 43Z" fill="#D1D5E0"/>
</svg>
