<svg width="1920" height="352" viewBox="0 0 1920 352" fill="none" xmlns="http://www.w3.org/2000/svg">
<g clip-path="url(#clip0)">
<path d="M1339.87 0C1339.87 0 1337.09 53.0917 1435.64 39.0117C1534.19 24.9317 1558.76 18.8974 1596.41 30.9659C1634.05 43.0345 1631.09 81.9255 1678.49 85.2745C1725.89 88.6235 1813.74 34.9888 1794.28 94.6578C1889.58 133.549 1931.74 143.184 1999.91 127.846C2062.34 113.631 2120.38 84.4447 2169.02 42.8032L2219.23 0H1339.87Z" fill="#EBECF2"/>
<path d="M2197.13 352H1456.41C1456.41 352 1468.69 343.24 1488.32 328.939C1521.57 304.732 1575.92 264.684 1627.35 224.627C1704.19 164.766 1771.7 93.9842 1820.3 58.402C1821.86 57.255 1823.61 56.4028 1825.48 55.8878C1827.69 55.27 1830 55.1299 1832.27 55.4767C1834.54 55.8235 1836.71 56.6493 1838.63 57.8992L2197.13 352Z" fill="#F7F8FA"/>
<path d="M1825.52 55.8867C1825.01 63.8017 1824.08 71.6563 1822.88 79.4506C1820.09 96.9645 1815.81 114.208 1810.09 130.993C1809.4 133.105 1808.64 135.187 1807.88 137.269C1807.13 139.351 1806.42 141.433 1805.58 143.484L1803.15 149.639C1802.33 151.651 1801.43 153.662 1800.57 155.744C1798.86 159.767 1796.97 163.79 1795.06 167.813C1793.15 171.836 1791.04 175.667 1788.91 179.499C1786.78 183.331 1784.56 187.163 1782.14 190.854C1780.98 192.704 1779.79 194.565 1778.56 196.385C1777.34 198.205 1776.05 199.996 1774.78 201.796C1772.29 205.396 1769.51 208.836 1766.74 212.255C1763.96 215.675 1761 218.943 1757.98 222.121C1757.71 222.421 1757.38 222.663 1757.01 222.832C1756.64 223.001 1756.24 223.094 1755.84 223.105C1755.43 223.117 1755.03 223.046 1754.65 222.898C1754.27 222.749 1753.93 222.526 1753.64 222.242C1753.27 221.896 1752.99 221.462 1752.83 220.98C1752.67 220.498 1752.64 219.985 1752.73 219.486C1752.72 219.413 1752.72 219.338 1752.73 219.265C1752.75 219.182 1752.77 219.101 1752.8 219.024C1755.61 207.961 1755.82 199.442 1752.8 198.386C1750.52 197.572 1746.91 201.353 1743.18 207.86C1742.47 209.258 1741.75 210.676 1741.03 212.084L1740.02 213.985C1734.66 224.304 1728.86 234.652 1722.63 245.031C1697.25 287.483 1668.68 324.04 1640.37 352.06H1456.36C1456.36 352.06 1468.64 343.3 1488.27 328.999C1521.52 304.791 1575.87 264.743 1627.3 224.686C1704.14 164.826 1771.65 94.0435 1820.25 58.4613C1821.83 57.283 1823.62 56.4098 1825.52 55.8867Z" fill="white"/>
<path d="M1850.96 111.876C1851.22 114.5 1851.26 117.141 1851.08 119.771C1850.93 122.351 1850.63 124.92 1850.17 127.465C1848.33 137.764 1844.51 147.607 1838.91 156.45C1836.03 160.909 1832.49 164.906 1828.42 168.307C1827.89 168.815 1827.19 169.113 1826.46 169.144C1825.72 169.175 1825 168.938 1824.43 168.477C1823.86 168.015 1823.48 167.362 1823.35 166.638C1823.23 165.914 1823.37 165.171 1823.76 164.546L1823.84 164.375C1826.02 160.237 1827.97 155.987 1829.7 151.642C1831.32 147.288 1832.8 142.903 1834.09 138.407C1835.37 133.912 1836.44 129.356 1837.62 124.8L1839.4 117.941L1840.35 114.511C1840.68 113.385 1841.01 112.188 1841.36 111.162L1841.51 110.76C1841.88 109.725 1842.59 108.847 1843.53 108.269C1844.47 107.692 1845.57 107.447 1846.67 107.577C1847.76 107.706 1848.77 108.201 1849.55 108.982C1850.33 109.763 1850.82 110.783 1850.94 111.876H1850.96Z" fill="white"/>
<path d="M1837.23 211.199C1836.09 210.592 1834.74 210.463 1833.5 210.84C1832.26 211.216 1831.22 212.069 1830.6 213.211L1830.46 213.472C1830.2 213.965 1829.94 214.478 1829.68 214.971C1829.63 215.092 1829.57 215.213 1829.51 215.333L1829.21 215.906C1829.2 215.945 1829.18 215.982 1829.16 216.017C1828.28 217.636 1827.52 218.541 1827.02 218.39C1826.22 218.149 1826.28 215.454 1827.02 211.732C1827.02 211.561 1827.09 211.411 1827.13 211.25C1827.17 211.089 1827.21 210.878 1827.25 210.687C1827.29 210.495 1827.38 210.093 1827.43 209.801C1827.44 209.748 1827.44 209.694 1827.43 209.641C1828.5 204.745 1829.15 199.764 1829.35 194.756C1829.35 194.168 1829.15 193.597 1828.78 193.14C1828.41 192.683 1827.9 192.368 1827.32 192.249C1826.74 192.131 1826.14 192.216 1825.62 192.489C1825.1 192.763 1824.69 193.209 1824.46 193.75L1824.41 193.861C1822.4 198.749 1820.48 203.757 1818.49 208.645C1816.5 213.533 1814.52 218.4 1812.46 223.198C1810.4 227.995 1808.15 232.661 1805.95 237.348C1803.75 242.035 1801.26 246.51 1798.91 251.227L1798.81 251.418C1798.47 252.151 1798.39 252.982 1798.59 253.769C1798.79 254.555 1799.25 255.246 1799.91 255.723C1800.57 256.201 1801.37 256.433 1802.18 256.382C1802.99 256.33 1803.75 255.997 1804.34 255.441C1806.41 253.5 1808.33 251.405 1810.08 249.175C1810.67 248.391 1811.3 247.606 1811.9 246.802C1811.99 246.671 1812.07 246.54 1812.16 246.42C1812.21 246.365 1812.25 246.304 1812.29 246.239L1812.61 245.776C1812.67 245.685 1812.72 245.595 1812.79 245.504L1812.89 245.354C1814.41 243.262 1815.67 242.085 1816.24 242.336C1816.81 242.588 1816.5 244.941 1815.3 248.049C1815.17 248.381 1815.04 248.713 1814.89 249.055L1814.48 250.06L1814.36 250.332L1812.84 254.043C1812.17 255.753 1811.45 257.449 1810.69 259.132L1808.5 264.231C1806.96 267.58 1805.54 271.009 1803.95 274.358C1800.94 281.167 1797.59 287.805 1794.51 294.825V294.915C1794.24 295.472 1794.17 296.107 1794.33 296.707C1794.48 297.308 1794.84 297.835 1795.34 298.196C1795.84 298.557 1796.46 298.729 1797.07 298.681C1797.69 298.632 1798.27 298.367 1798.71 297.932C1804.43 292.601 1809.59 286.708 1814.13 280.342C1816.49 277.215 1818.51 273.896 1820.63 270.607C1822.75 267.318 1824.66 263.879 1826.34 260.389C1828.03 256.899 1829.78 253.399 1831.37 249.829C1832.1 248.019 1832.84 246.208 1833.52 244.388C1834.21 242.568 1834.82 240.707 1835.42 238.857C1836.62 235.133 1837.63 231.349 1838.44 227.522C1839.25 223.62 1839.75 219.658 1839.91 215.675C1839.93 214.753 1839.68 213.845 1839.21 213.054C1838.74 212.263 1838.05 211.621 1837.23 211.199Z" fill="white"/>
<path d="M1792.23 239.421C1791.9 239.191 1791.52 239.029 1791.13 238.944C1790.73 238.859 1790.33 238.853 1789.93 238.925C1789.53 238.998 1789.15 239.149 1788.81 239.368C1788.48 239.588 1788.18 239.872 1787.95 240.205L1787.88 240.306C1785.19 244.218 1782.68 248.211 1780.05 252.113C1777.43 256.015 1774.84 259.947 1772.13 263.759C1766.86 271.513 1761.3 279.036 1755.77 286.508C1750.24 293.981 1744.43 301.202 1738.68 308.403C1737.87 309.408 1737.07 310.414 1736.25 311.42L1736.09 311.621C1735.96 311.782 1735.83 311.933 1735.71 312.094C1732.91 315.402 1729.94 317.273 1728.67 316.358C1727.4 315.443 1728.34 312.164 1730.62 308.604L1730.72 308.453C1730.88 308.201 1731.06 307.95 1731.22 307.709L1731.56 307.226L1731.67 307.065L1733.36 304.531C1736.78 299.28 1739.91 293.844 1742.74 288.248C1745.58 282.651 1748.02 276.857 1750.04 270.91C1750.4 269.834 1750.39 268.666 1750.01 267.597C1749.62 266.529 1748.89 265.621 1747.92 265.023C1746.96 264.425 1745.82 264.171 1744.69 264.303C1743.56 264.435 1742.51 264.945 1741.71 265.75L1741.61 265.851C1739.41 268.053 1737.38 270.326 1735.38 272.599C1733.38 274.872 1731.36 277.165 1729.43 279.438C1725.51 284.004 1721.7 288.58 1717.9 293.126C1714.1 297.672 1710.31 302.177 1706.7 306.773C1704.89 309.056 1703.12 311.379 1701.38 313.693C1700.52 314.859 1699.67 316.029 1698.83 317.203L1697.61 318.953C1697.22 319.485 1696.87 320.039 1696.55 320.612L1695.71 322.281C1694.94 323.859 1694.71 325.645 1695.05 327.367C1695.39 329.089 1696.28 330.652 1697.59 331.819C1698.91 332.985 1700.56 333.691 1702.31 333.829C1704.06 333.966 1705.81 333.528 1707.28 332.58C1708.19 331.987 1708.82 331.574 1709.54 331.071L1711.55 329.583C1712.73 328.638 1713.89 327.682 1715 326.686L1715.07 326.616L1715.26 326.445L1715.49 326.224C1715.72 326.023 1715.96 325.801 1716.19 325.57C1718.92 323.217 1721.55 322.131 1722.67 323.116C1723.78 324.102 1723.08 326.747 1721.16 329.663C1720.9 329.982 1720.66 330.318 1720.45 330.669C1720.39 330.732 1720.35 330.804 1720.33 330.88C1719.12 332.969 1718.7 335.424 1719.15 337.795C1719.6 340.167 1720.89 342.297 1722.78 343.798C1724.67 345.298 1727.03 346.069 1729.45 345.968C1731.86 345.868 1734.15 344.903 1735.91 343.251C1736.46 342.707 1736.92 342.245 1737.33 341.812C1737.74 341.38 1738.2 340.917 1738.63 340.445C1739.47 339.529 1740.29 338.614 1741.11 337.689C1741.92 336.764 1742.72 335.828 1743.51 334.893C1744.31 333.958 1745.1 333.022 1745.84 332.057C1747.35 330.136 1748.86 328.255 1750.32 326.274C1751.78 324.293 1753.25 322.392 1754.61 320.381C1757.39 316.405 1760.08 312.358 1762.66 308.242C1763.9 306.17 1765.22 304.128 1766.43 302.036L1770.02 295.721C1772.38 291.507 1774.66 287.252 1776.8 282.918C1777.87 280.755 1778.98 278.603 1780 276.431C1781.03 274.259 1782.01 272.036 1783.02 269.843C1785.03 265.479 1786.81 260.983 1788.6 256.518C1789.5 254.305 1790.31 252.012 1791.1 249.749C1791.9 247.486 1792.68 245.203 1793.45 242.931C1793.67 242.293 1793.67 241.6 1793.45 240.964C1793.22 240.328 1792.79 239.785 1792.23 239.421Z" fill="white"/>
<path d="M1759.16 248.623C1760.15 246.579 1761.26 244.591 1762.48 242.669C1763.68 240.738 1764.96 238.847 1766.27 236.977C1767.57 235.106 1768.95 233.266 1770.39 231.445C1771.85 229.581 1773.42 227.811 1775.1 226.145C1775.3 225.946 1775.55 225.815 1775.82 225.772C1776.09 225.728 1776.37 225.775 1776.61 225.905C1776.86 226.034 1777.05 226.24 1777.17 226.49C1777.28 226.741 1777.31 227.022 1777.26 227.292C1776.85 229.684 1776.19 232.027 1775.3 234.281C1774.44 236.508 1773.43 238.672 1772.28 240.758C1771.14 242.854 1769.85 244.87 1768.44 246.792C1767.02 248.758 1765.39 250.565 1763.58 252.183C1763.09 252.616 1762.46 252.866 1761.8 252.891C1761.15 252.915 1760.5 252.712 1759.98 252.316C1759.45 251.921 1759.08 251.356 1758.92 250.718C1758.77 250.08 1758.84 249.408 1759.12 248.814L1759.16 248.623Z" fill="white"/>
<path d="M1795.12 204.481C1795.77 202.31 1796.6 200.197 1797.61 198.165C1798.61 196.154 1799.62 194.142 1800.8 192.131C1801.99 190.119 1803.18 188.229 1804.53 186.328C1805.89 184.351 1807.42 182.497 1809.1 180.786C1809.26 180.629 1809.44 180.505 1809.64 180.42C1809.85 180.335 1810.07 180.291 1810.29 180.291C1810.51 180.291 1810.73 180.335 1810.93 180.42C1811.13 180.505 1811.32 180.629 1811.47 180.786C1811.63 180.936 1811.75 181.114 1811.83 181.31C1811.92 181.507 1811.96 181.719 1811.97 181.933C1811.99 184.405 1811.71 186.87 1811.13 189.274C1810.59 191.619 1809.86 193.914 1808.93 196.133C1808.03 198.355 1806.95 200.5 1805.7 202.55C1804.45 204.66 1802.93 206.603 1801.19 208.333C1800.6 208.899 1799.85 209.256 1799.04 209.35C1798.23 209.445 1797.41 209.27 1796.71 208.854C1796.01 208.438 1795.47 207.803 1795.17 207.047C1794.86 206.291 1794.82 205.457 1795.03 204.672L1795.12 204.481Z" fill="white"/>
<path d="M1863.95 206.252C1864.02 207.594 1863.98 208.94 1863.83 210.275C1863.69 211.571 1863.47 212.857 1863.17 214.127C1862.59 216.653 1861.77 219.118 1860.72 221.489C1859.7 223.867 1858.44 226.138 1856.96 228.267C1855.49 230.436 1853.74 232.395 1851.74 234.09C1851.51 234.281 1851.23 234.398 1850.94 234.424C1850.64 234.45 1850.34 234.385 1850.08 234.237C1849.83 234.089 1849.62 233.866 1849.49 233.597C1849.36 233.328 1849.32 233.026 1849.37 232.733V232.672C1849.82 230.118 1850.52 227.805 1851.14 225.481C1851.76 223.158 1852.46 220.905 1853.15 218.663L1855.23 211.965C1855.6 210.858 1855.96 209.752 1856.35 208.646C1856.74 207.54 1857.13 206.393 1857.56 205.438L1857.73 205.076C1858.03 204.415 1858.54 203.875 1859.18 203.54C1859.83 203.205 1860.57 203.094 1861.28 203.226C1861.99 203.358 1862.64 203.724 1863.12 204.267C1863.61 204.809 1863.89 205.498 1863.94 206.222L1863.95 206.252Z" fill="white"/>
<path d="M1829.7 310.433C1835.85 303.138 1839.89 296.427 1838.72 295.442C1837.56 294.457 1831.62 299.573 1825.47 306.868C1819.32 314.162 1815.28 320.874 1816.45 321.859C1817.62 322.844 1823.55 317.728 1829.7 310.433Z" fill="white"/>
<path d="M1656.59 100.852C1658.08 100.852 1659.29 99.6409 1659.29 98.1468C1659.29 96.6526 1658.08 95.4414 1656.59 95.4414C1655.09 95.4414 1653.88 96.6526 1653.88 98.1468C1653.88 99.6409 1655.09 100.852 1656.59 100.852Z" fill="white"/>
<path d="M1732.86 25.0729C1734.36 25.0729 1735.57 23.8616 1735.57 22.3675C1735.57 20.8733 1734.36 19.6621 1732.86 19.6621C1731.37 19.6621 1730.16 20.8733 1730.16 22.3675C1730.16 23.8616 1731.37 25.0729 1732.86 25.0729Z" fill="white"/>
<path d="M1897.95 62.8678C1899.01 62.8678 1899.88 62.0033 1899.88 60.9368C1899.88 59.8704 1899.01 59.0059 1897.95 59.0059C1896.88 59.0059 1896.01 59.8704 1896.01 60.9368C1896.01 62.0033 1896.88 62.8678 1897.95 62.8678Z" fill="white"/>
<path d="M1211.47 47.36C1212.53 47.36 1213.4 46.4955 1213.4 45.429C1213.4 44.3626 1212.53 43.498 1211.47 43.498C1210.4 43.498 1209.54 44.3626 1209.54 45.429C1209.54 46.4955 1210.4 47.36 1211.47 47.36Z" fill="white"/>
<path d="M1551.83 47.36C1552.89 47.36 1553.76 46.4955 1553.76 45.429C1553.76 44.3626 1552.89 43.498 1551.83 43.498C1550.76 43.498 1549.9 44.3626 1549.9 45.429C1549.9 46.4955 1550.76 47.36 1551.83 47.36Z" fill="white"/>
<path d="M404.875 168.206C395.474 182.406 339.398 162.664 269.547 122.757C268.458 122.128 267.205 121.84 265.951 121.93C264.696 122.019 263.497 122.483 262.508 123.26C256.797 127.736 244.932 122.134 236.024 110.749C234.326 108.437 232.809 105.995 231.489 103.448C230.842 102.253 229.768 101.347 228.481 100.911C227.195 100.474 225.791 100.54 224.551 101.094H224.501C215.763 104.987 203.909 97.4336 198.026 84.2185V84.1381C197.881 83.799 197.636 83.5122 197.324 83.3155C197.012 83.1189 196.647 83.0218 196.279 83.0371C195.91 83.0524 195.555 83.1793 195.26 83.401C194.965 83.6228 194.745 83.9289 194.628 84.2789C194.107 86.0056 193.119 87.5545 191.772 88.7543C184.563 95.0501 168.807 88.7543 156.58 74.805C154.491 72.4254 152.585 69.8904 150.879 67.2219C147.207 61.3941 142.326 56.4233 136.567 52.6459C130.808 48.8686 124.304 46.3728 117.497 45.3275C89.8378 41.1392 62.5347 34.8658 35.8211 26.5609C30.8741 25.0322 25.9975 23.4566 21.1912 21.8341L20.5678 21.6128C17.9334 20.7479 16.013 20.6071 15.5404 21.4418C15.1784 22.0754 15.7415 23.1717 16.9782 24.5093C17.2397 24.7406 17.491 24.9819 17.7323 25.2133L18.2954 25.7765C22.247 29.6887 24.1373 32.9673 23.1017 34.7575C21.7744 37.0505 15.9828 36.4069 8.11988 33.5506H8.05955L7.15462 33.2087C6.88314 33.1081 6.61165 33.0075 6.33011 32.8869L6.15919 32.8265C3.14273 31.8208 0.98093 31.4386 0.659176 32.1024C0.437965 32.565 1.14181 33.4199 2.47911 34.4859L4.97272 36.1051L6.9837 37.3623C14.3573 42.0556 21.8951 46.4573 29.5971 50.5673C35.3183 53.5845 41.12 56.5312 47.0323 59.1963C51.5771 61.2078 56.1722 63.2192 60.8276 65.0697C62.2252 65.6128 63.6228 66.1458 65.0305 66.6688C72.2097 69.3943 79.5397 71.7678 86.9703 73.7691C92.1251 75.1771 97.3302 76.4008 102.585 77.44C103.218 77.55 103.782 77.9014 104.16 78.42C104.538 78.9387 104.7 79.5839 104.611 80.2196C104.523 80.8553 104.19 81.4315 103.685 81.8268C103.179 82.222 102.54 82.4053 101.902 82.3378C96.9079 81.9288 91.9206 81.3589 86.9401 80.6281C78.6082 79.4267 70.3451 77.7885 62.185 75.7202L60.8276 75.4286C54.7946 73.8999 48.7617 72.1198 42.7891 70.1989C36.3641 68.1874 30.0295 65.8039 23.7351 63.3399C11.1472 58.355 -1.15824 52.6844 -13.1261 46.3534C-19.1188 43.1954 -25.0411 39.8632 -30.893 36.3566C-33.8157 34.6066 -36.7182 32.803 -39.6006 30.9458C-41.0485 30.0206 -42.4863 29.0752 -43.9342 28.1097L-46.096 26.6414C-46.8401 26.1285 -47.5138 25.6357 -48.3684 25.0322L-48.5796 24.8814C-51.0543 23.0663 -52.7068 20.3422 -53.1735 17.3084C-53.6402 14.2747 -52.8829 11.1797 -51.0682 8.70446C-49.2535 6.22918 -46.53 4.57634 -43.4969 4.10954C-40.4639 3.64273 -37.3696 4.4002 -34.8949 6.21531C-34.517 6.50097 -34.1545 6.80647 -33.809 7.13051C-33.3766 7.5328 -32.7431 8.08594 -32.1801 8.5888L-30.4004 10.1175L-28.8519 11.4149C-33.5174 7.04 -35.8903 3.36914 -34.734 1.35771C-34.4129 0.874133 -33.9327 0.518298 -33.3766 0.352L-34.1207 0H250.593C252.792 5.1587 253.566 10.813 252.836 16.373C252.627 17.5961 252.771 18.8534 253.252 19.9972C253.733 21.141 254.53 22.1236 255.55 22.8297C349.875 85.2242 416.71 150.294 404.875 168.206Z" fill="#EBECF2"/>
<path d="M440.037 351.134L238.729 351.446L196.86 351.506H178.922H143.549L53.0552 351.647H30.8138H13.7205L-35.0155 351.728L-68.5787 351.778L-121.508 351.858C-121.508 351.858 -27.4944 302.89 44.9007 231.987C92.4905 185.372 119.659 162.673 132.69 152.586C135.456 150.448 138.818 149.226 142.311 149.089C145.803 148.952 149.252 149.907 152.176 151.822C169.34 163.056 205.859 187.323 234.435 208.856C273.126 238.162 440.037 351.134 440.037 351.134Z" fill="#F7F8FA"/>
<path d="M144.243 166.889C144.243 168.659 144.082 170.419 143.951 172.189C143.821 173.959 143.69 175.709 143.539 177.469C143.388 179.229 143.117 180.979 142.865 182.729C142.614 184.479 142.403 186.249 142.091 187.999C141.428 191.479 140.754 194.979 139.919 198.438C138.234 205.4 136.084 212.241 133.484 218.915C132.207 222.284 130.739 225.603 129.251 228.881C128.507 230.541 127.632 232.14 126.828 233.759C126.023 235.378 125.169 236.997 124.254 238.576C120.697 244.992 116.604 251.096 112.017 256.82C109.735 259.707 107.261 262.472 104.697 265.137C102.133 267.803 99.3881 270.327 96.5224 272.71C90.8079 277.528 84.5275 281.632 77.8203 284.93C74.4332 286.563 70.9275 287.938 67.3331 289.043C65.5203 289.588 63.6813 290.041 61.823 290.401C60.8879 290.582 59.9327 290.723 58.9775 290.843L57.5095 291.004L55.9108 291.115C55.1742 291.169 54.4377 291.01 53.7885 290.658C53.1393 290.306 52.6047 289.775 52.248 289.129C51.8913 288.482 51.7276 287.746 51.7762 287.009C51.8248 286.272 52.0837 285.564 52.5223 284.97L53.5278 283.602C53.76 283.336 54.0085 283.084 54.2718 282.848L54.4227 282.717L55.1667 282.013L55.398 281.802C55.9208 281.319 56.4035 280.796 56.9364 280.334C57.0771 280.203 57.228 280.062 57.3587 279.921C62.4665 274.661 65.0205 269.573 63.281 267.39C61.0488 264.624 52.7334 267.581 44.5688 274.018L42.0049 276.17C38.0969 279.429 34.1051 282.68 30.0295 285.925C-5.67537 314.468 -40.5256 337.448 -68.5787 351.91L-121.508 351.991C-121.508 351.991 -27.4944 303.023 44.9007 232.12C92.4904 185.505 119.659 162.806 132.69 152.719C135.485 150.556 138.891 149.331 142.423 149.219C143.702 151.272 144.268 153.69 144.032 156.098C144.032 156.098 144.032 156.198 144.032 156.239C144.263 159.799 144.283 163.339 144.243 166.889Z" fill="white"/>
<path d="M85.5626 323.478C80.5574 329.525 74.9404 335.039 68.8011 339.931L67.4437 340.937L53.025 351.678H30.7836C39.3403 345.372 44.79 338.402 43.0003 335.908C41.2105 333.414 32.4426 336.501 23.5139 342.948C19.908 345.477 16.614 348.425 13.7004 351.728L-35.0356 351.808C-13.6711 346.427 6.67244 337.595 25.1931 325.66C31.4687 321.575 37.3585 316.926 42.7891 311.771C49.2846 305.656 55.6192 302.639 58.2133 304.832C59.5305 305.948 59.6914 308.221 58.887 311.158C58.8825 311.184 58.8825 311.211 58.887 311.238C58.8267 311.449 58.7663 311.66 58.696 311.882C58.5552 312.344 58.3843 312.817 58.1932 313.31C56.9967 317.333 57.0771 320.35 58.696 321.567C61.3806 323.528 67.5242 319.957 74.1001 313.159V313.239L74.633 312.606C74.6951 312.547 74.7523 312.483 74.8039 312.415C75.8094 311.258 76.8148 310.142 77.8203 309.056L77.8807 308.995C88.5388 297.429 98.6038 290.369 101.49 292.803C104.727 295.468 97.5983 309.237 85.5626 323.478Z" fill="white"/>
<path d="M132.871 252.857C133.052 252.404 133.364 251.851 133.605 251.298L134.379 249.669C134.872 248.573 135.385 247.496 135.897 246.39C136.41 245.284 136.903 244.198 137.355 243.081C137.808 241.965 138.311 240.879 138.763 239.762C140.593 235.327 142.302 230.882 143.871 226.376C144.585 224.093 145.419 221.871 146.093 219.568C146.445 218.431 146.837 217.305 147.209 216.158C147.581 215.012 147.883 213.865 148.215 212.719C149.009 210.436 149.592 208.103 150.407 205.789C151.221 203.476 151.834 201.113 152.82 198.749L152.93 198.508C153.295 197.638 153.939 196.915 154.76 196.451C155.581 195.988 156.534 195.812 157.466 195.95C158.399 196.089 159.259 196.534 159.911 197.216C160.562 197.897 160.968 198.777 161.065 199.715C161.195 201.042 161.246 202.37 161.286 203.738C161.326 205.106 161.356 206.403 161.286 207.761C161.216 209.118 161.085 210.406 160.954 211.723C160.874 212.387 160.813 213.051 160.723 213.735L160.381 215.696C160.15 217.003 159.888 218.311 159.627 219.618C159.365 220.925 158.963 222.193 158.621 223.47L158.078 225.391L157.415 227.191C156.972 228.448 156.52 229.695 156.027 230.932C154.025 235.896 151.518 240.641 148.546 245.093L147.36 246.752L146.153 248.361C145.349 249.427 144.484 250.463 143.589 251.469C143.157 251.982 142.684 252.475 142.222 252.968C141.759 253.46 141.297 253.973 140.794 254.406C140.291 254.838 139.789 255.351 139.286 255.804C138.783 256.256 138.28 256.669 137.607 257.171C137.045 257.601 136.357 257.834 135.65 257.836C134.943 257.838 134.254 257.608 133.69 257.182C133.125 256.755 132.716 256.155 132.525 255.474C132.333 254.793 132.37 254.068 132.63 253.41L132.871 252.857Z" fill="white"/>
<path d="M189.249 209.098C187.348 212.88 177.303 212.266 161.256 208.092C157.978 207.227 154.459 206.222 150.698 205.075C147.065 203.962 143.227 202.715 139.185 201.334C126.385 196.959 111.575 191.277 95.2857 184.559C83.7527 179.792 71.4757 174.501 58.6457 168.658L52.6932 165.943L50.0387 164.726C38.6465 160.059 29.6273 158.692 27.918 161.799C26.7415 163.992 29.396 167.964 34.5844 172.53L34.7855 172.691C36.8467 174.25 38.7069 175.708 40.376 177.126C47.8568 183.362 51.4363 187.888 50.3102 190.15C47.7261 195.27 21.5432 187.787 -17.329 171.927C-34.2112 165.038 -53.5266 156.56 -74.2798 146.844C-82.0724 143.204 -90.0861 139.392 -98.2607 135.419C-98.0266 136.83 -98.3591 138.276 -99.1858 139.442C-103.268 144.602 -118.944 139.01 -134.197 126.951C-139.394 122.903 -144.131 118.296 -148.324 113.213C-148.64 113.703 -149.015 114.152 -149.44 114.551C-155.614 120.293 -170.877 113.927 -183.526 100.33C-184.21 99.5959 -184.863 98.8517 -185.537 98.1074C-185.602 100.319 -186.512 102.421 -188.081 103.981C-194.245 109.723 -209.508 103.357 -222.167 89.76C-224.048 87.7389 -225.814 85.6135 -227.456 83.3938C-240.802 65.4055 -256.05 48.9102 -272.934 34.1943C-279.037 28.8439 -281.893 24.9317 -280.857 22.88C-280.184 21.5424 -277.841 21.0597 -274.151 21.3714C-273.256 21.4348 -272.362 21.231 -271.582 20.7859C-270.803 20.3408 -270.173 19.6744 -269.772 18.8711C-269.372 18.0677 -269.219 17.1636 -269.332 16.2731C-269.446 15.3826 -269.821 14.5459 -270.41 13.8688L-270.481 13.7883C-275.709 9.17211 -280.566 4.54583 -285 0H-114.972C-45.181 45.6896 38.5963 106.193 38.5963 106.193C72.5516 123.914 103.068 141.313 127.632 156.7C133.518 160.381 139.048 163.941 144.223 167.381C174.83 187.707 192.225 203.154 189.249 209.098Z" fill="#EBECF2"/>
<path d="M208.262 320.963C206.151 323.98 203.888 326.937 201.566 329.834C199.243 332.73 196.699 335.435 194.085 338.08C191.471 340.725 188.826 343.35 185.961 345.754C184.543 346.981 183.145 348.218 181.687 349.395L178.912 351.537H143.539C145.55 350.531 147.501 349.525 149.481 348.52C152.417 346.901 155.364 345.271 158.259 343.491C159.727 342.656 161.145 341.711 162.593 340.816C164.041 339.921 165.489 339.036 166.897 338.07L171.18 335.234C172.598 334.229 173.985 333.223 175.403 332.277C178.269 330.367 181.004 328.255 183.859 326.243C185.297 325.237 186.654 324.232 188.052 323.135L192.295 320.028C195.111 317.916 197.886 315.754 200.872 313.752L201.083 313.611C202.089 312.929 203.301 312.621 204.511 312.74C205.72 312.859 206.849 313.398 207.703 314.263C208.556 315.129 209.079 316.266 209.181 317.477C209.283 318.688 208.958 319.897 208.262 320.893V320.963Z" fill="white"/>
<path d="M178.842 309.76C179.385 309.207 180.109 308.553 180.752 307.929L182.763 306.029L184.774 304.108C185.418 303.444 186.071 302.81 186.715 302.157C189.309 299.562 191.796 296.88 194.175 294.111C195.412 292.763 196.498 291.305 197.705 289.927C198.911 288.549 200.017 287.091 201.073 285.603C203.376 282.706 205.367 279.629 207.75 276.551L207.84 276.43C208.164 276.019 208.614 275.725 209.122 275.594C209.629 275.463 210.165 275.502 210.648 275.705C211.131 275.908 211.534 276.264 211.795 276.719C212.056 277.173 212.161 277.701 212.093 278.221C211.963 279.226 211.751 280.232 211.55 281.238C211.348 282.259 211.082 283.266 210.756 284.255L209.75 287.192C209.378 288.197 208.936 289.092 208.504 290.038C207.63 291.913 206.643 293.734 205.548 295.489C204.432 297.226 203.227 298.905 201.938 300.517C199.388 303.755 196.514 306.724 193.361 309.378C191.777 310.693 190.126 311.925 188.414 313.069C187.539 313.622 186.695 314.205 185.77 314.698C184.845 315.191 183.97 315.704 182.884 316.166C182.076 316.538 181.164 316.615 180.306 316.384C179.448 316.153 178.698 315.628 178.186 314.902C177.674 314.175 177.434 313.291 177.506 312.405C177.578 311.519 177.958 310.686 178.58 310.052L178.842 309.76Z" fill="white"/>
<path d="M215.874 293.005C216.155 291.104 216.558 289.063 216.879 287.112C217.201 285.161 217.573 283.179 217.885 281.208C218.196 279.237 218.428 277.276 218.659 275.295C218.89 273.313 219.051 271.332 219.373 269.26V269.16C219.423 268.851 219.571 268.567 219.795 268.349C220.019 268.131 220.308 267.99 220.617 267.949C220.927 267.907 221.242 267.966 221.516 268.117C221.79 268.268 222.008 268.503 222.138 268.788C223.049 270.854 223.636 273.049 223.877 275.295C224.124 277.514 224.124 279.753 223.877 281.973C223.668 284.182 223.254 286.367 222.641 288.5C222.048 290.662 221.197 292.746 220.107 294.705C219.839 295.17 219.417 295.528 218.914 295.716C218.411 295.904 217.858 295.912 217.351 295.737C216.843 295.562 216.412 295.216 216.131 294.758C215.851 294.3 215.738 293.758 215.813 293.227L215.874 293.005Z" fill="white"/>
<path d="M244.048 328.868C243.253 336.585 241.465 344.167 238.729 351.426L196.86 351.486L198.459 350.48C203.433 347.078 207.977 343.087 211.993 338.593C214.11 336.229 216.085 333.74 217.905 331.141C218.388 330.487 218.83 329.813 219.272 329.129L220.64 327.118C221.464 325.7 222.379 324.292 223.164 322.813C226.521 316.675 229.398 310.287 231.771 303.705L231.831 303.554C232.311 302.34 233.172 301.314 234.285 300.632C235.397 299.949 236.701 299.645 238.001 299.766C239.301 299.888 240.526 300.427 241.493 301.304C242.46 302.181 243.116 303.348 243.364 304.63C244.676 312.642 244.906 320.794 244.048 328.868Z" fill="white"/>
<path d="M141.558 98.0572C143.052 98.0572 144.263 96.846 144.263 95.3518C144.263 93.8577 143.052 92.6465 141.558 92.6465C140.064 92.6465 138.854 93.8577 138.854 95.3518C138.854 96.846 140.064 98.0572 141.558 98.0572Z" fill="white"/>
<path d="M745.706 40.8932C747.199 40.8932 748.411 39.6819 748.411 38.1878C748.411 36.6937 747.199 35.4824 745.706 35.4824C744.212 35.4824 743.001 36.6937 743.001 38.1878C743.001 39.6819 744.212 40.8932 745.706 40.8932Z" fill="white"/>
<path d="M225.648 149.217C226.714 149.217 227.579 148.353 227.579 147.286C227.579 146.22 226.714 145.355 225.648 145.355C224.581 145.355 223.717 146.22 223.717 147.286C223.717 148.353 224.581 149.217 225.648 149.217Z" fill="white"/>
<path d="M382.805 35.2096C383.872 35.2096 384.736 34.3451 384.736 33.2786C384.736 32.2122 383.872 31.3477 382.805 31.3477C381.739 31.3477 380.874 32.2122 380.874 33.2786C380.874 34.3451 381.739 35.2096 382.805 35.2096Z" fill="white"/>
<path d="M627.763 65.3815C628.829 65.3815 629.694 64.517 629.694 63.4505C629.694 62.3841 628.829 61.5195 627.763 61.5195C626.696 61.5195 625.832 62.3841 625.832 63.4505C625.832 64.517 626.696 65.3815 627.763 65.3815Z" fill="white"/>
<path d="M659.988 40.1178C661.055 40.1178 661.919 39.2533 661.919 38.1868C661.919 37.1204 661.055 36.2559 659.988 36.2559C658.922 36.2559 658.057 37.1204 658.057 38.1868C658.057 39.2533 658.922 40.1178 659.988 40.1178Z" fill="white"/>
<path d="M17.5618 230.741C18.6283 230.741 19.4928 229.876 19.4928 228.81C19.4928 227.743 18.6283 226.879 17.5618 226.879C16.4954 226.879 15.6309 227.743 15.6309 228.81C15.6309 229.876 16.4954 230.741 17.5618 230.741Z" fill="white"/>
<path d="M1044.19 37.4127C1045.25 37.4127 1046.12 36.5482 1046.12 35.4818C1046.12 34.4153 1045.25 33.5508 1044.19 33.5508C1043.12 33.5508 1042.25 34.4153 1042.25 35.4818C1042.25 36.5482 1043.12 37.4127 1044.19 37.4127Z" fill="white"/>
<path d="M149.492 0L109.845 59.1461L86.9703 61.8213V96.8L85.5023 99.6261C54.9555 158.722 -12.7138 220.091 -15.5292 222.675L-17.2687 220.744V351.92H-74.2698V95.3518L-147.5 73.2261V0H-126.384V57.5369L-74.2698 73.2864V0H-17.319V188.149C3.72591 167.24 40.6776 127.806 60.8276 90.3835V0H86.9703V50.688L103.49 48.747L136.169 0H149.492Z" fill="#EBECF2"/>
<path d="M225.755 50.3801C227.491 47.323 217.015 38.0924 202.356 29.763C187.697 21.4336 174.405 17.1595 172.669 20.2166C170.933 23.2737 181.409 32.5043 196.068 40.8337C210.727 49.1631 224.018 53.4372 225.755 50.3801Z" fill="#F3F4F7"/>
<path d="M24.4689 120.354C25.7114 118.166 19.8923 112.514 11.4715 107.729C3.05068 102.944 -4.78301 100.839 -6.02556 103.027C-7.26811 105.215 -1.44898 110.867 6.97181 115.652C15.3926 120.437 23.2263 122.542 24.4689 120.354Z" fill="#F3F4F7"/>
<path d="M234.218 45.9635C236.07 42.9757 230.533 36.1865 221.85 30.7994C213.167 25.4124 204.626 23.4674 202.773 26.4553C200.92 29.4431 206.457 36.2323 215.141 41.6194C223.824 47.0064 232.365 48.9514 234.218 45.9635Z" fill="#F3F4F7"/>
<path d="M48.1383 111.211C31.7086 135.61 10.7141 159.234 -5.81616 176.452C4.31915 180.404 13.3585 183.663 21.0806 186.137C25.2333 181.661 29.5569 176.894 33.9509 171.876C36.7662 168.657 39.6051 165.342 42.4674 161.929C52.7551 149.732 62.3588 136.973 71.2344 123.712C63.767 119.582 56.0683 115.415 48.1383 111.211Z" fill="#F3F4F7"/>
<path d="M86.9703 73.799V80.6681C78.6384 79.4666 70.3753 77.8284 62.2152 75.7602L60.8276 75.4283V65.0996C62.2253 65.6427 63.6229 66.1757 65.0306 66.6987C72.2098 69.394 79.5398 71.7977 86.9703 73.799Z" fill="#F3F4F7"/>
<path d="M144.223 167.382C144.173 168.981 144.072 170.58 143.951 172.189C143.851 173.949 143.69 175.709 143.539 177.469C143.388 179.229 143.117 180.979 142.865 182.729C142.614 184.479 142.403 186.249 142.091 187.999C141.428 191.479 140.754 194.979 139.919 198.438C139.678 199.384 139.437 200.329 139.185 201.274C126.385 196.9 111.575 191.217 95.2856 184.499C109.574 171.606 120.161 162.705 127.632 156.701C133.518 160.382 139.048 163.942 144.223 167.382Z" fill="#F3F4F7"/>
<path d="M161.286 207.699V208.041C158.008 207.176 154.489 206.171 150.728 205.024C151.382 202.952 152.015 200.861 152.89 198.779L153.001 198.537C153.365 197.668 154.009 196.944 154.83 196.481C155.652 196.017 156.604 195.841 157.537 195.98C158.469 196.118 159.33 196.563 159.981 197.245C160.633 197.927 161.039 198.806 161.135 199.744C161.266 201.072 161.316 202.399 161.356 203.767C161.397 205.135 161.437 206.382 161.286 207.699Z" fill="#F3F4F7"/>
<path d="M1733.56 166.657L1759.49 150.646L1669.63 144.863L1733.56 166.657Z" fill="#FFBF00"/>
<path d="M1722.17 174.029L1668.96 145.617L1697.87 197.411L1722.17 174.029Z" fill="#FFBF00"/>
<path d="M1733.56 166.657L1736.5 186.44L1722.17 174.029L1668.96 145.618L1669.63 144.863L1733.56 166.657Z" fill="#08112B"/>
<path d="M1715.72 180.235L1736.5 186.44L1722.17 174.029L1715.72 180.235Z" fill="#08112B"/>
<path d="M256.34 106.695L240.966 100.49L230.811 112.639C233.546 114.785 236.227 116.914 238.855 119.026L256.34 106.695Z" fill="#4CC3FF"/>
<path d="M243.681 122.928L256.953 115.656L256.36 106.695L238.854 119.015C240.477 120.323 242.085 121.627 243.681 122.928Z" fill="#08112B"/>
<path d="M238.854 119.015C236.213 116.896 233.532 114.768 230.811 112.629L205.985 142.177L238.854 119.015Z" fill="#4CC3FF"/>
<path d="M238.855 119.016L205.956 142.147L207.041 143.012L243.692 122.898C242.089 121.617 240.477 120.323 238.855 119.016Z" fill="#08112B"/>
<path d="M207.031 143.041L256.994 133.98L266.083 110.627L207.031 143.041Z" fill="#08112B"/>
<path d="M266.083 110.627L243.681 122.927L243.892 123.088L243.681 122.927L207.031 143.041L250.579 128.589L261.87 124.848L283.518 117.667L266.083 110.627Z" fill="#4CC3FF"/>
<path d="M204.673 241.895C202.961 242.513 201.154 242.826 199.334 242.82C198.036 242.817 196.743 242.659 195.483 242.348L181.315 239.954L167.651 237.631L145.53 252.505L143.579 251.5L135.606 244.972L162.221 227.543C163.074 226.986 164.051 226.646 165.066 226.553C166.08 226.46 167.103 226.617 168.043 227.01L204.673 241.895Z" fill="#FFBF00"/>
<path d="M131.775 254.073L111.735 256.456L101.208 268.042L90.4292 279.94C93.0837 271.017 96.8254 262.454 101.57 254.445C102.937 252.132 104.164 250.301 105.109 248.954C105.69 248.134 106.458 247.466 107.351 247.005C108.243 246.545 109.233 246.306 110.237 246.309H127.894L131.775 254.073Z" fill="#FFBF00"/>
<path d="M131.765 254.939C135.852 254.939 139.165 251.625 139.165 247.537C139.165 243.449 135.852 240.135 131.765 240.135C127.678 240.135 124.364 243.449 124.364 247.537C124.364 251.625 127.678 254.939 131.765 254.939Z" fill="#FFBF00"/>
<path d="M157.093 262.954C158.126 262.954 158.964 262.117 158.964 261.084C158.964 260.05 158.126 259.213 157.093 259.213C156.06 259.213 155.223 260.05 155.223 261.084C155.223 262.117 156.06 262.954 157.093 262.954Z" fill="#FFBF00"/>
<path d="M135.294 241.029C135.294 241.029 151.382 250.805 158.32 259.695L156.208 262.713C156.208 262.713 139.628 260.037 127.894 253.842L135.294 241.029Z" fill="#FFBF00"/>
<path d="M204.673 241.894C202.961 242.512 201.154 242.825 199.334 242.819C198.036 242.816 196.743 242.657 195.483 242.346L181.315 239.953C174.759 234.844 164.222 226.627 164.674 226.587L165.74 226.496C166.532 226.507 167.314 226.671 168.043 226.979L204.673 241.894Z" fill="#08112B"/>
<path d="M101.58 254.445C101.58 254.445 101.349 262.31 101.208 268.022L90.4292 279.92C93.0853 271.004 96.8269 262.448 101.57 254.445H101.58Z" fill="#08112B"/>
<path d="M1838.9 234.885C1838.95 235.277 1817.7 306.683 1791.45 329.07C1793.02 329.913 1794.77 330.343 1796.55 330.32C1798.33 330.298 1800.08 329.822 1801.62 328.939C1815.18 321.175 1849.61 295.932 1843.48 242.448C1843.31 240.957 1842.82 239.52 1842.05 238.234C1841.27 236.947 1840.24 235.839 1839 234.985L1838.9 234.885Z" fill="#08112B"/>
<path d="M1805.96 286.046C1806.36 286.957 1806.85 287.827 1807.42 288.64C1810.2 292.663 1817.42 300.468 1833.71 304.531L1838.45 292.935C1838.45 292.935 1827.5 283.32 1809.17 285.513C1808.15 285.623 1807.07 285.834 1805.96 286.046Z" fill="#4CC3FF"/>
<path d="M1850.91 291.979L1833.35 292.843L1829.5 300.457L1839.85 315.14C1839.85 315.14 1850.4 307.658 1850.91 291.979Z" fill="#4CC3FF"/>
<path d="M1805.96 286.045C1806.36 286.957 1806.85 287.826 1807.42 288.639L1809.17 285.512C1808.16 285.622 1807.07 285.834 1805.96 286.045Z" fill="#08112B"/>
</g>
<defs>
<clipPath id="clip0">
<rect width="2504.23" height="352" fill="white" transform="translate(-285)"/>
</clipPath>
</defs>
</svg>
