<svg width="2490" height="350" viewBox="0 0 2490 350" fill="none" xmlns="http://www.w3.org/2000/svg">
<g clip-path="url(#clip0)">
<path d="M1615.64 0C1615.64 0 1612.88 52.7885 1710.87 38.7889C1808.85 24.7893 1833.29 18.7895 1870.72 30.7891C1908.15 42.7888 1905.2 81.4577 1952.33 84.7876C1999.46 88.1175 2086.81 34.789 2067.46 94.1173C2162.22 132.786 2204.14 142.366 2271.93 127.116C2334 112.982 2391.71 83.9625 2440.08 42.5588L2490 0H1615.64Z" fill="#EBECF2"/>
<path d="M685.956 167.245C676.608 181.365 620.85 161.735 551.396 122.057C550.313 121.431 549.068 121.144 547.82 121.233C546.573 121.323 545.381 121.783 544.398 122.556C538.719 127.006 526.921 121.437 518.063 110.117C516.375 107.817 514.867 105.39 513.554 102.857C512.911 101.669 511.843 100.768 510.564 100.334C509.285 99.9006 507.889 99.9659 506.656 100.517H506.606C497.918 104.387 486.131 96.8772 480.282 83.7376V83.6576C480.137 83.3205 479.894 83.0353 479.583 82.8398C479.273 82.6443 478.911 82.5477 478.544 82.5629C478.178 82.5781 477.824 82.7043 477.531 82.9248C477.238 83.1453 477.019 83.4497 476.903 83.7976C476.385 85.5145 475.402 87.0546 474.063 88.2475C466.895 94.5073 451.229 88.2475 439.071 74.3779C436.993 72.0118 435.098 69.4913 433.403 66.8381C429.751 61.0435 424.898 56.1011 419.172 52.3453C413.445 48.5895 406.979 46.108 400.21 45.0687C372.708 40.9043 345.56 34.6667 318.998 26.4092C314.079 24.8893 309.23 23.3227 304.452 21.7094L303.832 21.4894C301.212 20.6294 299.303 20.4894 298.833 21.3194C298.473 21.9494 299.033 23.0393 300.262 24.3693C300.522 24.5993 300.772 24.8393 301.012 25.0693L301.572 25.6293C305.501 29.5192 307.381 32.7791 306.351 34.559C305.031 36.8389 299.273 36.199 291.454 33.359H291.394L290.495 33.0191C290.225 32.9191 289.955 32.8191 289.675 32.6991L289.505 32.6391C286.506 31.6391 284.356 31.2591 284.036 31.9191C283.816 32.3791 284.516 33.229 285.846 34.289L288.325 35.899L290.325 37.1489C297.656 41.8155 305.151 46.192 312.81 50.2786C318.498 53.2785 324.267 56.2084 330.146 58.8583C334.665 60.8583 339.234 62.8582 343.863 64.6981C345.252 65.2381 346.642 65.7681 348.042 66.2881C355.18 68.998 362.468 71.358 369.857 73.3479C374.982 74.7479 380.158 75.9645 385.383 76.9978C386.012 77.1071 386.573 77.4566 386.949 77.9722C387.325 78.4879 387.486 79.1295 387.398 79.7615C387.309 80.3936 386.979 80.9666 386.476 81.3595C385.974 81.7525 385.338 81.9347 384.703 81.8677C379.738 81.461 374.779 80.8943 369.827 80.1677C361.542 78.9731 353.326 77.3443 345.212 75.2878L343.863 74.9979C337.864 73.4779 331.865 71.708 325.927 69.798C319.538 67.7981 313.24 65.4281 306.981 62.9782C294.465 58.0218 282.229 52.3835 270.329 46.0887C264.371 42.9488 258.482 39.6355 252.663 36.149C249.757 34.409 246.871 32.6157 244.005 30.7691C242.565 29.8491 241.136 28.9092 239.696 27.9492L237.547 26.4892C236.807 25.9793 236.137 25.4893 235.287 24.8893L235.077 24.7393C232.616 22.9345 230.973 20.226 230.509 17.2096C230.045 14.1932 230.798 11.1159 232.603 8.65475C234.407 6.19361 237.115 4.55021 240.131 4.08607C243.147 3.62193 246.223 4.37508 248.684 6.17982C249.06 6.46385 249.42 6.7676 249.764 7.0898C250.194 7.48979 250.824 8.03977 251.383 8.53976L253.153 10.0597L254.693 11.3497C250.054 6.9998 247.694 3.3499 248.844 1.34996C249.163 0.869141 249.641 0.515339 250.194 0.34999L249.454 0H532.55C534.736 5.12925 535.506 10.7512 534.78 16.2795C534.572 17.4956 534.716 18.7458 535.194 19.883C535.672 21.0202 536.465 21.9973 537.479 22.6994C631.268 84.7376 697.723 149.436 685.956 167.245Z" fill="#EBECF2"/>
<path d="M2468.02 349.99H1731.52C1731.52 349.99 1743.73 341.27 1763.24 327.061C1796.31 302.991 1850.34 263.163 1901.48 223.334C1977.89 163.825 2045.01 93.4474 2093.34 58.0584C2095.97 56.1375 2099.12 55.0602 2102.37 54.9692C2105.63 54.8781 2108.83 55.7775 2111.57 57.5484L2468.02 349.99Z" fill="#F7F8FA"/>
<path d="M2098.53 55.5684C2098.02 63.4381 2097.1 71.2479 2095.9 79.0077C2093.13 96.4213 2088.87 113.566 2083.18 130.256C2082.5 132.346 2081.74 134.416 2080.99 136.486C2080.24 138.556 2079.53 140.626 2078.7 142.666L2076.28 148.786C2075.47 150.786 2074.57 152.786 2073.72 154.856C2072.02 158.855 2070.14 162.855 2068.24 166.855C2066.35 170.855 2064.25 174.675 2062.13 178.485C2060.01 182.295 2057.8 186.095 2055.4 189.765C2054.24 191.614 2053.06 193.454 2051.84 195.264C2050.62 197.074 2049.34 198.854 2048.08 200.644C2045.6 204.224 2042.84 207.644 2040.08 211.054C2037.32 214.464 2034.37 217.694 2031.37 220.864C2031.1 221.156 2030.77 221.391 2030.4 221.555C2030.03 221.719 2029.64 221.81 2029.24 221.821C2028.84 221.832 2028.44 221.764 2028.06 221.62C2027.69 221.476 2027.35 221.26 2027.05 220.984C2026.69 220.639 2026.41 220.208 2026.25 219.729C2026.1 219.25 2026.06 218.739 2026.15 218.244C2026.14 218.167 2026.14 218.09 2026.15 218.014C2026.17 217.931 2026.19 217.851 2026.22 217.774C2029.01 206.774 2029.22 198.294 2026.22 197.254C2023.95 196.444 2020.37 200.254 2016.66 206.664C2015.94 208.064 2015.23 209.464 2014.52 210.864C2014.19 211.504 2013.85 212.134 2013.52 212.764C2008.19 223.017 2002.42 233.307 1996.22 243.633C1970.99 285.832 1942.58 322.191 1914.43 350.05H1762.76C1762.41 342.406 1762.55 334.746 1763.19 327.121C1796.26 303.051 1850.29 263.222 1901.43 223.394C1977.84 163.885 2044.96 93.5073 2093.29 58.1183C2094.86 56.9547 2096.64 56.0904 2098.53 55.5684Z" fill="white"/>
<path d="M2123.82 111.236C2124.09 113.845 2124.13 116.471 2123.94 119.086C2123.79 121.652 2123.49 124.206 2123.04 126.736C2121.21 136.976 2117.41 146.763 2111.84 155.555C2108.98 159.989 2105.46 163.963 2101.41 167.345C2100.88 167.85 2100.19 168.146 2099.46 168.177C2098.73 168.208 2098.01 167.972 2097.45 167.514C2096.88 167.055 2096.5 166.405 2096.37 165.685C2096.25 164.966 2096.4 164.226 2096.78 163.605L2096.86 163.435C2099.02 159.321 2100.97 155.095 2102.69 150.775C2104.3 146.445 2105.77 142.086 2107.05 137.616C2108.33 133.146 2109.39 128.616 2110.56 124.086L2112.32 117.266L2113.27 113.856C2113.6 112.736 2113.93 111.546 2114.27 110.526L2114.42 110.126C2114.8 109.097 2115.51 108.225 2116.44 107.65C2117.37 107.075 2118.47 106.833 2119.55 106.961C2120.64 107.09 2121.65 107.582 2122.42 108.359C2123.19 109.135 2123.68 110.149 2123.8 111.236H2123.82Z" fill="white"/>
<path d="M2110.18 209.994C2109.03 209.391 2107.7 209.262 2106.46 209.637C2105.23 210.011 2104.19 210.858 2103.58 211.994L2103.44 212.254C2103.18 212.744 2102.93 213.254 2102.67 213.744C2102.61 213.865 2102.55 213.985 2102.5 214.104L2102.2 214.674C2102.18 214.713 2102.17 214.749 2102.15 214.784C2101.28 216.394 2100.52 217.294 2100.02 217.144C2099.23 216.904 2099.29 214.224 2100.02 210.524C2100.02 210.354 2100.09 210.204 2100.13 210.044C2100.17 209.884 2100.21 209.674 2100.25 209.484C2100.29 209.294 2100.38 208.894 2100.43 208.604C2100.43 208.551 2100.43 208.497 2100.43 208.444C2101.49 203.576 2102.13 198.624 2102.34 193.645C2102.34 193.06 2102.14 192.492 2101.77 192.038C2101.4 191.583 2100.89 191.27 2100.32 191.153C2099.75 191.035 2099.15 191.119 2098.63 191.391C2098.11 191.663 2097.71 192.106 2097.48 192.645L2097.43 192.755C2095.43 197.615 2093.52 202.594 2091.54 207.454C2089.56 212.314 2087.59 217.154 2085.54 221.924C2083.49 226.694 2081.26 231.334 2079.07 235.994C2076.88 240.653 2074.4 245.103 2072.07 249.793L2071.97 249.983C2071.63 250.712 2071.55 251.539 2071.75 252.32C2071.95 253.102 2072.41 253.789 2073.06 254.264C2073.72 254.738 2074.51 254.97 2075.32 254.919C2076.12 254.867 2076.89 254.536 2077.47 253.983C2079.53 252.053 2081.43 249.97 2083.17 247.753C2083.76 246.973 2084.39 246.193 2084.98 245.393C2085.07 245.263 2085.15 245.133 2085.24 245.013C2085.29 244.959 2085.34 244.899 2085.37 244.833L2085.69 244.373C2085.75 244.283 2085.8 244.193 2085.87 244.103L2085.97 243.953C2087.48 241.873 2088.73 240.703 2089.3 240.953C2089.87 241.203 2089.56 243.543 2088.37 246.633C2088.24 246.963 2088.11 247.293 2087.96 247.633L2087.55 248.633L2087.43 248.903L2085.92 252.593C2085.25 254.293 2084.54 255.98 2083.78 257.653L2081.6 262.723C2080.07 266.053 2078.66 269.463 2077.08 272.792C2074.08 279.562 2070.75 286.162 2067.69 293.142V293.232C2067.43 293.786 2067.36 294.417 2067.51 295.014C2067.66 295.611 2068.02 296.135 2068.52 296.494C2069.02 296.853 2069.63 297.024 2070.24 296.976C2070.86 296.928 2071.44 296.664 2071.87 296.232C2077.56 290.931 2082.69 285.072 2087.2 278.742C2089.55 275.632 2091.56 272.332 2093.67 269.063C2095.78 265.793 2097.67 262.373 2099.35 258.903C2101.03 255.433 2102.77 251.953 2104.35 248.403C2105.07 246.603 2105.81 244.803 2106.49 242.993C2107.17 241.183 2107.78 239.333 2108.38 237.493C2109.57 233.791 2110.57 230.029 2111.38 226.224C2112.18 222.344 2112.67 218.404 2112.84 214.444C2112.85 213.528 2112.61 212.625 2112.14 211.839C2111.67 211.052 2110.99 210.413 2110.18 209.994Z" fill="white"/>
<path d="M2065.43 238.053C2065.1 237.825 2064.72 237.664 2064.33 237.579C2063.94 237.495 2063.53 237.488 2063.14 237.561C2062.74 237.633 2062.37 237.783 2062.03 238.001C2061.69 238.22 2061.4 238.502 2061.18 238.833L2061.11 238.933C2058.43 242.823 2055.93 246.793 2053.32 250.673C2050.71 254.553 2048.14 258.463 2045.44 262.253C2040.2 269.962 2034.67 277.442 2029.17 284.872C2023.68 292.302 2017.9 299.481 2012.18 306.641C2011.38 307.641 2010.58 308.641 2009.77 309.641L2009.61 309.841C2009.48 310.001 2009.35 310.151 2009.23 310.311C2006.45 313.601 2003.49 315.461 2002.23 314.551C2000.97 313.641 2001.9 310.381 2004.17 306.841L2004.27 306.691C2004.43 306.441 2004.61 306.191 2004.77 305.951L2005.1 305.471L2005.21 305.311L2006.89 302.791C2010.29 297.571 2013.41 292.166 2016.22 286.602C2019.05 281.037 2021.47 275.276 2023.48 269.362C2023.84 268.293 2023.83 267.132 2023.44 266.069C2023.06 265.006 2022.33 264.104 2021.37 263.509C2020.41 262.915 2019.28 262.662 2018.16 262.794C2017.04 262.925 2015.99 263.432 2015.2 264.232L2015.1 264.332C2012.91 266.522 2010.89 268.782 2008.9 271.042C2006.91 273.302 2004.9 275.582 2002.98 277.842C1999.09 282.382 1995.3 286.932 1991.52 291.452C1987.74 295.972 1983.97 300.451 1980.38 305.021C1978.59 307.291 1976.83 309.601 1975.1 311.901C1974.24 313.061 1973.39 314.224 1972.56 315.391L1971.35 317.131C1970.96 317.66 1970.61 318.211 1970.29 318.781L1969.46 320.441C1968.69 322.009 1968.46 323.785 1968.8 325.497C1969.14 327.209 1970.03 328.764 1971.33 329.924C1972.63 331.084 1974.28 331.786 1976.02 331.922C1977.76 332.059 1979.5 331.623 1980.96 330.681C1981.86 330.091 1982.49 329.681 1983.2 329.181L1985.2 327.701C1986.38 326.761 1987.53 325.811 1988.63 324.821L1988.7 324.751L1988.89 324.581L1989.12 324.361C1989.35 324.161 1989.59 323.941 1989.82 323.711C1992.53 321.371 1995.15 320.291 1996.26 321.271C1997.37 322.251 1996.67 324.881 1994.76 327.781C1994.5 328.098 1994.27 328.432 1994.05 328.781C1994 328.844 1993.96 328.915 1993.93 328.991C1992.73 331.068 1992.31 333.508 1992.76 335.866C1993.21 338.224 1994.49 340.342 1996.37 341.834C1998.25 343.326 2000.6 344.092 2003 343.992C2005.4 343.892 2007.68 342.933 2009.43 341.29C2009.98 340.75 2010.43 340.29 2010.84 339.86C2011.25 339.43 2011.71 338.97 2012.13 338.5C2012.97 337.59 2013.79 336.68 2014.6 335.76C2015.41 334.84 2016.2 333.91 2016.99 332.98C2017.78 332.051 2018.57 331.121 2019.31 330.161C2020.81 328.251 2022.31 326.381 2023.75 324.411C2025.2 322.441 2026.66 320.551 2028.02 318.551C2030.79 314.598 2033.46 310.574 2036.02 306.481C2037.26 304.421 2038.57 302.391 2039.77 300.311L2043.34 294.032C2045.69 289.842 2047.96 285.612 2050.09 281.302C2051.15 279.152 2052.25 277.012 2053.27 274.852C2054.29 272.692 2055.27 270.482 2056.27 268.302C2058.27 263.962 2060.04 259.493 2061.82 255.053C2062.72 252.853 2063.52 250.573 2064.31 248.323C2065.1 246.073 2065.88 243.803 2066.65 241.543C2066.86 240.909 2066.86 240.22 2066.64 239.588C2066.42 238.955 2065.99 238.415 2065.43 238.053Z" fill="white"/>
<path d="M2032.54 247.204C2033.53 245.171 2034.63 243.195 2035.84 241.284C2037.04 239.364 2038.31 237.484 2039.61 235.624C2040.91 233.764 2042.28 231.934 2043.71 230.124C2045.16 228.27 2046.73 226.51 2048.4 224.854C2048.59 224.656 2048.84 224.526 2049.11 224.482C2049.38 224.439 2049.66 224.486 2049.9 224.615C2050.14 224.744 2050.34 224.948 2050.45 225.197C2050.57 225.446 2050.6 225.726 2050.54 225.994C2050.13 228.373 2049.48 230.702 2048.59 232.944C2047.74 235.158 2046.74 237.31 2045.59 239.384C2044.45 241.468 2043.18 243.472 2041.77 245.384C2040.36 247.338 2038.74 249.135 2036.94 250.744C2036.45 251.175 2035.83 251.423 2035.17 251.447C2034.52 251.471 2033.88 251.27 2033.36 250.876C2032.84 250.483 2032.47 249.922 2032.31 249.287C2032.16 248.653 2032.22 247.984 2032.5 247.394L2032.54 247.204Z" fill="white"/>
<path d="M2068.3 203.315C2068.95 201.156 2069.78 199.055 2070.77 197.035C2071.77 195.035 2072.77 193.035 2073.95 191.035C2075.13 189.035 2076.31 187.155 2077.65 185.265C2079.01 183.3 2080.53 181.456 2082.2 179.755C2082.36 179.599 2082.54 179.475 2082.74 179.391C2082.95 179.306 2083.16 179.263 2083.38 179.263C2083.6 179.263 2083.82 179.306 2084.02 179.391C2084.22 179.475 2084.41 179.599 2084.56 179.755C2084.71 179.904 2084.84 180.081 2084.92 180.276C2085 180.472 2085.05 180.682 2085.05 180.895C2085.07 183.353 2084.79 185.805 2084.22 188.195C2083.69 190.527 2082.95 192.808 2082.03 195.015C2081.13 197.224 2080.06 199.357 2078.82 201.395C2077.57 203.493 2076.07 205.425 2074.33 207.145C2073.75 207.708 2073 208.063 2072.2 208.157C2071.39 208.251 2070.58 208.077 2069.88 207.663C2069.19 207.249 2068.65 206.618 2068.35 205.867C2068.04 205.115 2068 204.285 2068.21 203.505L2068.3 203.315Z" fill="white"/>
<path d="M2136.74 205.075C2136.81 206.409 2136.77 207.747 2136.62 209.075C2136.48 210.363 2136.26 211.642 2135.97 212.905C2135.39 215.416 2134.57 217.867 2133.53 220.225C2132.51 222.589 2131.26 224.847 2129.79 226.965C2128.33 229.121 2126.59 231.068 2124.6 232.755C2124.38 232.944 2124.1 233.06 2123.8 233.086C2123.51 233.112 2123.21 233.047 2122.95 232.9C2122.7 232.753 2122.49 232.531 2122.36 232.264C2122.24 231.996 2122.19 231.697 2122.24 231.405V231.345C2122.69 228.805 2123.38 226.505 2124 224.195C2124.62 221.885 2125.31 219.645 2126 217.415L2128.07 210.755C2128.44 209.655 2128.79 208.555 2129.18 207.455C2129.57 206.355 2129.96 205.215 2130.39 204.265L2130.55 203.905C2130.85 203.248 2131.36 202.711 2132 202.378C2132.64 202.044 2133.37 201.935 2134.08 202.065C2134.79 202.196 2135.44 202.561 2135.92 203.1C2136.4 203.64 2136.68 204.324 2136.73 205.045L2136.74 205.075Z" fill="white"/>
<path d="M2102.69 308.66C2108.8 301.407 2112.82 294.733 2111.66 293.754C2110.5 292.775 2104.6 297.861 2098.48 305.115C2092.37 312.368 2088.35 319.042 2089.51 320.021C2090.67 321 2096.57 315.914 2102.69 308.66Z" fill="white"/>
<path d="M720.918 349.13L520.753 349.44L479.122 349.5H461.286H426.114L336.134 349.64H314.019H297.023L248.564 349.72L215.192 349.77L162.563 349.85C162.563 349.85 256.042 301.161 328.026 230.663C375.346 184.315 402.359 161.745 415.317 151.715C418.066 149.59 421.41 148.375 424.883 148.238C428.356 148.102 431.784 149.052 434.692 150.955C451.758 162.125 488.07 186.254 516.484 207.664C554.955 236.803 720.918 349.13 720.918 349.13Z" fill="#F7F8FA"/>
<path d="M426.804 165.936C426.804 167.696 426.644 169.446 426.514 171.206C426.384 172.966 426.254 174.705 426.104 176.455C425.954 178.205 425.684 179.945 425.434 181.685C425.184 183.425 424.974 185.185 424.664 186.925C424.005 190.385 423.335 193.865 422.505 197.305C420.829 204.227 418.691 211.028 416.106 217.664C414.837 221.014 413.377 224.314 411.897 227.574C411.157 229.224 410.288 230.814 409.488 232.424C408.688 234.034 407.838 235.644 406.928 237.214C403.392 243.593 399.322 249.661 394.761 255.353C392.492 258.223 390.032 260.973 387.483 263.623C384.933 266.273 382.204 268.783 379.355 271.153C373.673 275.943 367.428 280.023 360.759 283.302C357.391 284.926 353.905 286.294 350.331 287.392C348.529 287.934 346.7 288.384 344.852 288.742C343.923 288.922 342.973 289.062 342.023 289.182L340.563 289.342L338.974 289.452C338.241 289.506 337.509 289.348 336.864 288.998C336.218 288.648 335.686 288.12 335.332 287.477C334.977 286.834 334.814 286.103 334.863 285.37C334.911 284.637 335.168 283.933 335.604 283.342L336.604 281.982C336.835 281.717 337.082 281.467 337.344 281.232L337.494 281.102L338.234 280.402L338.464 280.192C338.984 279.712 339.464 279.192 339.993 278.732C340.133 278.602 340.283 278.462 340.413 278.322C345.492 273.093 348.032 268.033 346.302 265.863C344.083 263.113 335.814 266.053 327.696 272.453L325.147 274.593C321.261 277.833 317.292 281.066 313.24 284.292C277.738 312.672 243.085 335.521 215.192 349.9L162.563 349.98C162.563 349.98 256.042 301.292 328.026 230.794C375.346 184.445 402.359 161.876 415.317 151.846C418.096 149.696 421.483 148.478 424.994 148.366C426.266 150.408 426.829 152.812 426.594 155.206C426.594 155.206 426.594 155.306 426.594 155.346C426.824 158.886 426.844 162.406 426.804 165.936Z" fill="white"/>
<path d="M368.457 321.631C363.48 327.644 357.895 333.126 351.791 337.99L350.441 338.99L336.104 349.67H313.989C322.497 343.4 327.916 336.47 326.137 333.99C324.357 331.51 315.639 334.58 306.761 340.99C303.176 343.505 299.9 346.435 297.003 349.72L248.544 349.8C269.787 344.449 290.015 335.667 308.431 323.801C314.671 319.739 320.527 315.117 325.927 309.991C332.385 303.911 338.684 300.911 341.263 303.091C342.573 304.201 342.733 306.461 341.933 309.381C341.929 309.408 341.929 309.435 341.933 309.461C341.873 309.671 341.813 309.881 341.743 310.101C341.603 310.561 341.433 311.031 341.243 311.521C340.053 315.521 340.133 318.521 341.743 319.731C344.412 321.681 350.521 318.131 357.06 311.371V311.451L357.59 310.821C357.651 310.762 357.708 310.699 357.759 310.631C358.759 309.481 359.759 308.371 360.759 307.291L360.819 307.231C371.416 295.731 381.424 288.712 384.294 291.132C387.513 293.781 380.424 307.471 368.457 321.631Z" fill="white"/>
<path d="M415.497 251.413C415.677 250.963 415.986 250.413 416.226 249.863L416.996 248.243C417.486 247.153 417.996 246.083 418.506 244.983C419.016 243.883 419.506 242.803 419.956 241.693C420.405 240.583 420.905 239.503 421.355 238.393C423.175 233.983 424.874 229.563 426.434 225.083C427.144 222.813 427.974 220.603 428.644 218.313C428.994 217.184 429.383 216.064 429.753 214.924C430.123 213.784 430.423 212.644 430.753 211.504C431.543 209.234 432.123 206.914 432.933 204.614C433.742 202.314 434.352 199.964 435.332 197.614L435.442 197.374C435.804 196.509 436.445 195.79 437.261 195.329C438.078 194.869 439.025 194.693 439.952 194.831C440.88 194.968 441.735 195.411 442.383 196.089C443.031 196.767 443.434 197.641 443.53 198.574C443.66 199.894 443.71 201.214 443.75 202.574C443.79 203.934 443.82 205.224 443.75 206.574C443.68 207.924 443.55 209.204 443.42 210.514C443.34 211.174 443.28 211.834 443.19 212.514L442.85 214.464C442.62 215.764 442.361 217.063 442.101 218.363C441.841 219.663 441.441 220.923 441.101 222.193L440.561 224.103L439.901 225.893C439.461 227.143 439.011 228.383 438.521 229.613C436.531 234.549 434.038 239.267 431.083 243.693L429.903 245.343L428.704 246.943C427.904 248.003 427.044 249.033 426.154 250.033C425.724 250.543 425.254 251.033 424.794 251.522C424.335 252.012 423.875 252.522 423.375 252.952C422.875 253.382 422.375 253.892 421.875 254.342C421.375 254.792 420.875 255.202 420.205 255.702C419.647 256.129 418.963 256.361 418.26 256.363C417.557 256.365 416.872 256.137 416.311 255.712C415.75 255.288 415.343 254.692 415.152 254.015C414.962 253.338 414.999 252.617 415.257 251.962L415.497 251.413Z" fill="white"/>
<path d="M471.554 207.904C469.664 211.664 459.677 211.054 443.72 206.904C440.461 206.044 436.962 205.044 433.223 203.904C429.61 202.798 425.794 201.558 421.775 200.184C409.048 195.834 394.321 190.185 378.125 183.505C366.658 178.765 354.45 173.505 341.693 167.695L335.774 164.995L333.135 163.785C321.808 159.145 312.84 157.786 311.14 160.875C309.97 163.055 312.61 167.005 317.769 171.545L317.968 171.705C320.018 173.255 321.868 174.705 323.527 176.115C330.966 182.315 334.525 186.815 333.405 189.065C330.836 194.154 304.801 186.715 266.15 170.945C249.364 164.095 230.158 155.666 209.523 146.006C201.775 142.386 193.806 138.596 185.678 134.646C185.911 136.049 185.58 137.486 184.758 138.646C180.699 143.776 165.113 138.216 149.946 126.226C144.779 122.201 140.068 117.62 135.899 112.567C135.585 113.054 135.213 113.501 134.79 113.897C128.651 119.607 113.474 113.277 100.897 99.7572C100.217 99.0272 99.5676 98.2872 98.8978 97.5472C98.8333 99.746 97.928 101.836 96.3683 103.387C90.2397 109.097 75.0631 102.767 62.4759 89.2475C60.6056 87.2379 58.8499 85.1246 57.2171 82.9176C43.947 65.032 28.7859 48.6309 11.9973 33.999C5.92867 28.6792 3.0893 24.7893 4.11907 22.7493C4.78892 21.4194 7.1184 20.9394 10.7876 21.2494C11.6777 21.3124 12.5666 21.1098 13.3415 20.6672C14.1165 20.2247 14.7428 19.5621 15.141 18.7633C15.5392 17.9646 15.6915 17.0656 15.5786 16.1802C15.4657 15.2948 15.0927 14.4628 14.5067 13.7896L14.4368 13.7096C9.23792 9.11974 4.40901 4.51987 0 0H169.062C238.456 45.4287 321.758 105.587 321.758 105.587C355.52 123.206 385.863 140.506 410.288 155.806C416.14 159.465 421.638 163.005 426.784 166.425C457.217 186.635 474.513 201.994 471.554 207.904Z" fill="#EBECF2"/>
<path d="M490.46 319.131C488.36 322.131 486.111 325.071 483.801 327.951C481.492 330.831 478.962 333.521 476.363 336.15C473.763 338.78 471.134 341.39 468.285 343.78C466.875 345 465.485 346.23 464.036 347.4L461.276 349.53H426.104C428.104 348.53 430.043 347.53 432.013 346.53C434.932 344.92 437.861 343.3 440.741 341.53C442.2 340.7 443.61 339.76 445.05 338.87C446.49 337.98 447.929 337.1 449.329 336.14L453.588 333.32C454.998 332.321 456.377 331.321 457.787 330.381C460.636 328.481 463.356 326.381 466.195 324.381C467.625 323.381 468.974 322.381 470.364 321.291L474.583 318.201C477.383 316.101 480.142 313.951 483.111 311.961L483.321 311.821C484.321 311.143 485.527 310.836 486.729 310.955C487.932 311.073 489.055 311.609 489.903 312.469C490.751 313.33 491.272 314.46 491.373 315.664C491.475 316.869 491.152 318.07 490.46 319.061V319.131Z" fill="white"/>
<path d="M461.206 307.991C461.746 307.441 462.466 306.791 463.106 306.171L465.105 304.281L467.105 302.371C467.745 301.711 468.395 301.081 469.035 300.431C471.614 297.851 474.087 295.185 476.453 292.432C477.683 291.092 478.762 289.642 479.962 288.272C481.162 286.902 482.262 285.452 483.311 283.972C485.601 281.092 487.58 278.032 489.95 274.972L490.04 274.852C490.362 274.443 490.81 274.15 491.314 274.02C491.819 273.89 492.352 273.929 492.832 274.131C493.312 274.333 493.713 274.687 493.973 275.139C494.232 275.591 494.336 276.115 494.269 276.632C494.139 277.632 493.929 278.632 493.729 279.632C493.527 280.647 493.264 281.649 492.939 282.632L491.939 285.552C491.569 286.552 491.13 287.442 490.7 288.382C489.831 290.246 488.849 292.056 487.76 293.801C486.651 295.529 485.453 297.198 484.171 298.801C481.635 302.02 478.778 304.972 475.643 307.611C474.068 308.919 472.427 310.144 470.724 311.281C469.854 311.831 469.015 312.411 468.095 312.901C467.175 313.391 466.305 313.901 465.225 314.361C464.423 314.731 463.516 314.807 462.662 314.578C461.809 314.348 461.063 313.826 460.554 313.103C460.046 312.381 459.806 311.502 459.878 310.621C459.95 309.74 460.328 308.912 460.946 308.281L461.206 307.991Z" fill="white"/>
<path d="M498.028 291.333C498.308 289.443 498.708 287.413 499.028 285.473C499.348 283.533 499.718 281.563 500.028 279.603C500.337 277.643 500.567 275.693 500.797 273.723C501.027 271.753 501.187 269.783 501.507 267.723V267.623C501.557 267.316 501.704 267.033 501.927 266.816C502.15 266.599 502.437 266.46 502.745 266.418C503.053 266.377 503.366 266.435 503.638 266.586C503.911 266.736 504.127 266.97 504.257 267.253C505.162 269.307 505.746 271.49 505.986 273.723C506.231 275.929 506.231 278.156 505.986 280.363C505.778 282.559 505.367 284.732 504.756 286.853C504.167 289.003 503.321 291.074 502.237 293.023C501.97 293.485 501.551 293.841 501.051 294.028C500.551 294.215 500.001 294.222 499.496 294.048C498.992 293.875 498.563 293.53 498.284 293.075C498.005 292.62 497.893 292.081 497.968 291.553L498.028 291.333Z" fill="white"/>
<path d="M526.042 326.99C525.251 334.663 523.474 342.202 520.753 349.42L479.122 349.48L480.712 348.48C485.658 345.097 490.176 341.128 494.169 336.66C496.274 334.31 498.238 331.835 500.048 329.25C500.527 328.6 500.967 327.93 501.407 327.25L502.767 325.25C503.587 323.84 504.497 322.441 505.276 320.971C508.614 314.868 511.476 308.515 513.834 301.971L513.894 301.821C514.372 300.614 515.228 299.595 516.334 298.916C517.441 298.237 518.737 297.935 520.029 298.055C521.322 298.176 522.54 298.712 523.501 299.584C524.463 300.456 525.116 301.617 525.362 302.891C526.667 310.857 526.895 318.963 526.042 326.99Z" fill="white"/>
<path d="M1930.56 100.277C1932.04 100.277 1933.25 99.0731 1933.25 97.5875C1933.25 96.1018 1932.04 94.8975 1930.56 94.8975C1929.07 94.8975 1927.87 96.1018 1927.87 97.5875C1927.87 99.0731 1929.07 100.277 1930.56 100.277Z" fill="white"/>
<path d="M424.135 97.4972C425.62 97.4972 426.824 96.2928 426.824 94.8072C426.824 93.3215 425.62 92.1172 424.135 92.1172C422.649 92.1172 421.445 93.3215 421.445 94.8072C421.445 96.2928 422.649 97.4972 424.135 97.4972Z" fill="white"/>
<path d="M1024.85 40.6593C1026.33 40.6593 1027.54 39.4549 1027.54 37.9693C1027.54 36.4837 1026.33 35.2793 1024.85 35.2793C1023.36 35.2793 1022.16 36.4837 1022.16 37.9693C1022.16 39.4549 1023.36 40.6593 1024.85 40.6593Z" fill="white"/>
<path d="M2006.4 24.9298C2007.88 24.9298 2009.09 23.7255 2009.09 22.2398C2009.09 20.7542 2007.88 19.5498 2006.4 19.5498C2004.91 19.5498 2003.71 20.7542 2003.71 22.2398C2003.71 23.7255 2004.91 24.9298 2006.4 24.9298Z" fill="white"/>
<path d="M2170.54 62.508C2171.6 62.508 2172.46 61.6484 2172.46 60.588C2172.46 59.5276 2171.6 58.668 2170.54 58.668C2169.48 58.668 2168.62 59.5276 2168.62 60.588C2168.62 61.6484 2169.48 62.508 2170.54 62.508Z" fill="white"/>
<path d="M507.746 148.365C508.807 148.365 509.666 147.506 509.666 146.445C509.666 145.385 508.807 144.525 507.746 144.525C506.686 144.525 505.826 145.385 505.826 146.445C505.826 147.506 506.686 148.365 507.746 148.365Z" fill="white"/>
<path d="M664.011 35.0099C665.071 35.0099 665.931 34.1503 665.931 33.0899C665.931 32.0295 665.071 31.1699 664.011 31.1699C662.951 31.1699 662.091 32.0295 662.091 33.0899C662.091 34.1503 662.951 35.0099 664.011 35.0099Z" fill="white"/>
<path d="M907.576 65.008C908.637 65.008 909.496 64.1484 909.496 63.088C909.496 62.0276 908.637 61.168 907.576 61.168C906.516 61.168 905.656 62.0276 905.656 63.088C905.656 64.1484 906.516 65.008 907.576 65.008Z" fill="white"/>
<path d="M939.619 39.8888C940.68 39.8888 941.539 39.0292 941.539 37.9688C941.539 36.9084 940.68 36.0488 939.619 36.0488C938.559 36.0488 937.699 36.9084 937.699 37.9688C937.699 39.0292 938.559 39.8888 939.619 39.8888Z" fill="white"/>
<path d="M300.843 229.424C301.903 229.424 302.763 228.564 302.763 227.504C302.763 226.444 301.903 225.584 300.843 225.584C299.782 225.584 298.923 226.444 298.923 227.504C298.923 228.564 299.782 229.424 300.843 229.424Z" fill="white"/>
<path d="M1487.97 47.089C1489.03 47.089 1489.89 46.2294 1489.89 45.169C1489.89 44.1086 1489.03 43.249 1487.97 43.249C1486.91 43.249 1486.05 44.1086 1486.05 45.169C1486.05 46.2294 1486.91 47.089 1487.97 47.089Z" fill="white"/>
<path d="M1826.39 47.089C1827.45 47.089 1828.31 46.2294 1828.31 45.169C1828.31 44.1086 1827.45 43.249 1826.39 43.249C1825.33 43.249 1824.47 44.1086 1824.47 45.169C1824.47 46.2294 1825.33 47.089 1826.39 47.089Z" fill="white"/>
<path d="M1321.63 37.2004C1322.69 37.2004 1323.55 36.3407 1323.55 35.2803C1323.55 34.22 1322.69 33.3604 1321.63 33.3604C1320.57 33.3604 1319.71 34.22 1319.71 35.2803C1319.71 36.3407 1320.57 37.2004 1321.63 37.2004Z" fill="white"/>
<path d="M432.023 0L392.602 58.8083L369.857 61.4682V96.2472L368.397 99.0572C338.024 157.815 270.739 218.834 267.94 221.404L266.21 219.484V349.91H209.533V94.8073L136.719 72.8079V0H157.715V57.2084L209.533 72.8679V0H266.16V187.075C287.085 166.285 323.827 127.076 343.863 89.8674V0H369.857V50.3986L386.283 48.4686L418.776 0H432.023Z" fill="#EBECF2"/>
<path d="M507.853 50.0947C509.579 47.055 499.163 37.8768 484.587 29.5947C470.011 21.3126 456.795 17.0628 455.069 20.1025C453.342 23.1422 463.759 32.3204 478.335 40.6025C492.911 48.8846 506.126 53.1344 507.853 50.0947Z" fill="#F3F4F7"/>
<path d="M307.711 119.667C308.946 117.492 303.16 111.872 294.787 107.115C286.414 102.357 278.625 100.264 277.389 102.439C276.154 104.614 281.94 110.235 290.313 114.992C298.686 119.75 306.475 121.843 307.711 119.667Z" fill="#F3F4F7"/>
<path d="M117.833 30.51C112.285 36.33 90.0297 24.11 68.1147 3.21C66.9949 2.14333 65.8985 1.07333 64.8254 0H104.816C116.204 14.2 121.783 26.37 117.833 30.51Z" fill="#F3F4F7"/>
<path d="M516.268 45.7018C518.11 42.7309 512.604 35.9803 503.971 30.6239C495.337 25.2674 486.844 23.3335 485.002 26.3044C483.16 29.2752 488.665 36.0259 497.299 41.3823C505.933 46.7388 514.425 48.6727 516.268 45.7018Z" fill="#F3F4F7"/>
<path d="M331.245 110.577C314.909 134.836 294.034 158.326 277.598 175.445C287.675 179.375 296.663 182.615 304.342 185.075C308.471 180.625 312.77 175.885 317.139 170.895C319.938 167.696 322.761 164.399 325.607 161.006C335.836 148.878 345.385 136.192 354.21 123.007C346.785 118.9 339.13 114.757 331.245 110.577Z" fill="#F3F4F7"/>
<path d="M266.16 65.5889V170.876C249.374 164.026 230.168 155.596 209.533 145.937V27C227.239 37.9997 251.024 56.0892 266.16 65.5889Z" fill="#F3F4F7"/>
<path d="M209.533 72.8679V94.8073L157.135 78.9977C151.232 77.2121 146.06 73.5745 142.384 68.6224C138.707 63.6703 136.721 57.6666 136.719 51.4985V0H157.715V44.5187C157.713 48.1891 158.894 51.7623 161.082 54.7089C163.27 57.6555 166.348 59.8188 169.862 60.8783L209.533 72.8679Z" fill="#F3F4F7"/>
<path d="M253.023 0V88.1975C253.022 92.2502 254.288 96.2019 256.643 99.4993C258.999 102.797 262.326 105.275 266.16 106.587" stroke="#F3F4F7" stroke-width="3" stroke-miterlimit="10"/>
<path d="M253.023 56.8184V88.1975C253.022 92.2502 254.288 96.2019 256.643 99.4993C258.999 102.797 262.326 105.275 266.16 106.587" stroke="#EBECF2" stroke-width="3" stroke-miterlimit="10"/>
<path d="M256.942 349.5V284.101C256.941 280.29 257.691 276.517 259.149 272.996C260.608 269.475 262.745 266.276 265.44 263.582V263.582" stroke="#F3F4F7" stroke-width="3" stroke-miterlimit="10"/>
<path d="M209.533 294.681C211.442 299.081 213.622 301.571 215.951 301.571C223.45 301.571 229.528 275.492 229.528 243.323C229.528 211.153 223.45 185.074 215.951 185.074C213.622 185.074 211.442 187.564 209.533 191.964" stroke="#F3F4F7" stroke-width="3" stroke-miterlimit="10"/>
<path d="M214.202 222.754V260.203" stroke="#F3F4F7" stroke-width="3" stroke-miterlimit="10" stroke-linecap="round"/>
<path d="M369.857 73.3785V80.2085C361.572 79.0139 353.356 77.385 345.242 75.3285L343.863 74.9985V64.7285C345.252 65.2685 346.642 65.7985 348.042 66.3185C355.18 68.9985 362.468 71.3885 369.857 73.3785Z" fill="#F3F4F7"/>
<path d="M426.784 166.425C426.734 168.015 426.634 169.605 426.514 171.205C426.414 172.955 426.254 174.705 426.104 176.455C425.954 178.205 425.684 179.945 425.434 181.685C425.184 183.425 424.974 185.185 424.665 186.925C424.005 190.385 423.335 193.865 422.505 197.304C422.265 198.244 422.025 199.184 421.775 200.124C409.048 195.775 394.321 190.125 378.125 183.445C392.332 170.625 402.859 161.775 410.288 155.806C416.14 159.466 421.639 163.005 426.784 166.425Z" fill="#F3F4F7"/>
<path d="M443.75 206.514V206.854C440.491 205.994 436.992 204.994 433.253 203.854C433.902 201.794 434.532 199.714 435.402 197.644L435.512 197.404C435.874 196.54 436.515 195.82 437.331 195.359C438.148 194.899 439.095 194.724 440.022 194.861C440.95 194.999 441.805 195.441 442.453 196.119C443.101 196.797 443.504 197.672 443.6 198.604C443.73 199.924 443.78 201.244 443.82 202.604C443.86 203.964 443.9 205.204 443.75 206.514Z" fill="#F3F4F7"/>
</g>
<defs>
<clipPath id="clip0">
<rect width="2490" height="350" fill="white"/>
</clipPath>
</defs>
</svg>
