<svg width="1920" height="352" viewBox="0 0 1920 352" fill="none" xmlns="http://www.w3.org/2000/svg">
<path d="M1330.64 0C1330.64 0 1327.88 53.0826 1425.87 39.005C1523.85 24.9274 1548.29 18.8941 1585.72 30.9606C1623.15 43.0271 1620.2 81.9114 1667.33 85.2599C1714.46 88.6083 1801.81 34.9828 1782.47 94.6416C1877.22 133.526 1919.14 143.159 1986.93 127.824C2049 113.611 2106.71 84.4302 2155.08 42.7959L2205 0H1330.64Z" fill="#EBECF2"/>
<path d="M400.955 168.177C391.607 182.375 335.85 162.636 266.396 122.736C265.313 122.107 264.067 121.819 262.82 121.909C261.572 121.998 260.38 122.462 259.397 123.239C253.718 127.714 241.921 122.113 233.063 110.73C231.374 108.418 229.867 105.977 228.554 103.43C227.911 102.236 226.842 101.33 225.563 100.893C224.284 100.457 222.889 100.523 221.656 101.077H221.606C212.918 104.969 201.13 97.4169 195.282 84.2041V84.1236C195.137 83.7846 194.893 83.4978 194.583 83.3013C194.273 83.1047 193.91 83.0076 193.544 83.0229C193.177 83.0381 192.824 83.165 192.531 83.3867C192.238 83.6085 192.019 83.9146 191.902 84.2644C191.384 85.9909 190.402 87.5395 189.063 88.7391C181.895 95.0338 166.228 88.7391 154.071 74.7922C151.993 72.413 150.098 69.8784 148.402 67.2104C144.751 61.3836 139.898 56.4136 134.171 52.6369C128.445 48.8602 121.978 46.3649 115.21 45.3198C87.7076 41.1322 60.5597 34.8599 33.9978 26.5564C29.0789 25.0279 24.23 23.4526 19.451 21.8303L18.8312 21.6091C16.2118 20.7443 14.3022 20.6036 13.8323 21.4382C13.4724 22.0716 14.0323 23.1677 15.262 24.5051C15.5219 24.7363 15.7719 24.9777 16.0118 25.2089L16.5717 25.772C20.5008 29.6836 22.3804 32.9617 21.3506 34.7515C20.0309 37.0442 14.2722 36.4006 6.45396 33.5449H6.39398L5.49419 33.203C5.22425 33.1024 4.9543 33.0019 4.67436 32.8812L4.50442 32.8209C1.50509 31.8153 -0.644424 31.4332 -0.964352 32.0969C-1.1843 32.5594 -0.484463 33.4142 0.845238 34.48L3.32469 36.099L5.32424 37.3559C12.6559 42.0484 20.1509 46.4493 27.8092 50.5586C33.4979 53.5753 39.2666 56.5215 45.1453 59.1862C49.6643 61.1973 54.2332 63.2084 58.8622 65.0586C60.2519 65.6016 61.6415 66.1345 63.0412 66.6574C70.1796 69.3824 77.468 71.7555 84.8563 73.7565C89.9819 75.1643 95.1574 76.3877 100.383 77.4267C101.011 77.5367 101.573 77.888 101.949 78.4066C102.325 78.9251 102.485 79.5703 102.397 80.2059C102.309 80.8414 101.979 81.4176 101.476 81.8128C100.973 82.2079 100.338 82.3911 99.703 82.3237C94.7375 81.9148 89.7786 81.345 84.8264 80.6143C76.5418 79.4131 68.3257 77.7751 60.2119 75.7073L58.8622 75.4156C52.8635 73.8872 46.8649 72.1074 40.9262 70.1868C34.5377 68.1757 28.2391 65.7926 21.9805 63.329C9.46411 58.345 -2.77144 52.6753 -14.6713 46.3454C-20.6299 43.188 -26.5186 39.8563 -32.3373 36.3503C-35.2433 34.6007 -38.1293 32.7974 -40.9954 30.9405C-42.435 30.0154 -43.8647 29.0702 -45.3044 28.1049L-47.4539 26.6368C-48.1937 26.124 -48.8636 25.6313 -49.7134 25.0279L-49.9233 24.8771C-52.384 23.0623 -54.0271 20.3387 -54.4911 17.3055C-54.9552 14.2722 -54.2022 11.1778 -52.3978 8.70297C-50.5934 6.22812 -47.8854 4.57556 -44.8696 4.10883C-41.8537 3.64211 -38.7771 4.39945 -36.3164 6.21425C-35.9407 6.49986 -35.5802 6.8053 -35.2366 7.12929C-34.8067 7.53151 -34.1769 8.08456 -33.617 8.58733L-31.8474 10.1158L-30.3078 11.4129C-34.9467 7.03879 -37.3062 3.36857 -36.1564 1.35748C-35.8372 0.873983 -35.3596 0.51821 -34.8067 0.35194L-35.5466 0H247.55C249.736 5.15782 250.506 10.8111 249.779 16.3702C249.572 17.5931 249.715 18.8502 250.193 19.9938C250.671 21.1373 251.464 22.1199 252.479 22.8258C346.267 85.2096 412.723 150.268 400.955 168.177Z" fill="#EBECF2"/>
<path d="M2183.02 351.94H1446.52C1446.52 351.94 1458.73 343.171 1478.24 328.883C1511.3 304.679 1565.34 264.628 1616.48 224.578C1692.88 164.738 1760.01 93.9679 1808.34 58.3818C1810.97 56.4502 1814.12 55.3669 1817.37 55.2754C1820.63 55.1838 1823.83 56.0882 1826.56 57.869L2183.02 351.94Z" fill="#F7F8FA"/>
<path d="M1813.53 55.8779C1813.02 63.7915 1812.1 71.6448 1810.9 79.4478C1808.13 96.9585 1803.87 114.199 1798.18 130.982C1797.5 133.083 1796.74 135.165 1795.99 137.246C1795.24 139.328 1794.53 141.409 1793.7 143.461L1791.28 149.615C1790.47 151.626 1789.57 153.637 1788.72 155.718C1787.02 159.74 1785.14 163.763 1783.25 167.785C1781.35 171.807 1779.25 175.648 1777.13 179.479C1775.01 183.31 1772.8 187.131 1770.4 190.822C1769.24 192.682 1768.06 194.532 1766.84 196.352C1765.62 198.172 1764.34 199.962 1763.08 201.762C1760.6 205.362 1757.84 208.801 1755.08 212.23C1752.32 215.659 1749.37 218.906 1746.37 222.094C1746.1 222.388 1745.77 222.624 1745.4 222.789C1745.04 222.954 1744.64 223.045 1744.24 223.056C1743.84 223.068 1743.44 222.999 1743.06 222.855C1742.69 222.71 1742.35 222.493 1742.05 222.215C1741.69 221.868 1741.41 221.434 1741.25 220.953C1741.1 220.471 1741.06 219.958 1741.15 219.459C1741.14 219.383 1741.14 219.305 1741.15 219.228C1741.17 219.145 1741.19 219.064 1741.22 218.987C1744.01 207.926 1744.22 199.399 1741.22 198.353C1738.96 197.539 1735.37 201.37 1731.66 207.815C1730.94 209.223 1730.23 210.631 1729.52 212.039C1729.19 212.682 1728.85 213.316 1728.52 213.949C1723.19 224.259 1717.42 234.606 1711.22 244.99C1685.99 287.424 1657.58 323.986 1629.43 352H1477.76C1477.41 344.313 1477.55 336.611 1478.19 328.943C1511.26 304.739 1565.29 264.689 1616.43 224.638C1692.84 164.798 1759.96 94.0282 1808.29 58.4421C1809.87 57.272 1811.64 56.4029 1813.53 55.8779Z" fill="white"/>
<path d="M1838.82 111.856C1839.09 114.479 1839.13 117.12 1838.94 119.75C1838.79 122.329 1838.49 124.898 1838.04 127.442C1836.21 137.739 1832.41 147.581 1826.85 156.422C1823.98 160.88 1820.46 164.877 1816.41 168.277C1815.88 168.785 1815.19 169.083 1814.46 169.114C1813.73 169.145 1813.01 168.908 1812.45 168.447C1811.88 167.985 1811.5 167.332 1811.37 166.608C1811.25 165.885 1811.4 165.141 1811.78 164.516L1811.86 164.345C1814.02 160.209 1815.97 155.959 1817.69 151.615C1819.3 147.261 1820.77 142.877 1822.05 138.382C1823.33 133.888 1824.39 129.332 1825.56 124.777L1827.33 117.92L1828.27 114.491C1828.6 113.364 1828.93 112.168 1829.27 111.142L1829.42 110.74C1829.8 109.705 1830.51 108.828 1831.44 108.25C1832.37 107.672 1833.47 107.428 1834.55 107.557C1835.64 107.687 1836.65 108.182 1837.42 108.962C1838.19 109.743 1838.68 110.763 1838.8 111.856H1838.82Z" fill="white"/>
<path d="M1825.18 211.164C1824.03 210.557 1822.7 210.428 1821.46 210.804C1820.23 211.181 1819.19 212.033 1818.58 213.175L1818.44 213.436C1818.18 213.929 1817.93 214.442 1817.67 214.935C1817.61 215.056 1817.55 215.177 1817.5 215.297L1817.2 215.87C1817.18 215.909 1817.17 215.946 1817.15 215.98C1816.28 217.599 1815.52 218.504 1815.02 218.354C1814.23 218.112 1814.29 215.417 1815.02 211.697C1815.02 211.526 1815.09 211.375 1815.13 211.214C1815.17 211.053 1815.21 210.842 1815.25 210.651C1815.29 210.46 1815.38 210.058 1815.43 209.766C1815.43 209.713 1815.43 209.659 1815.43 209.605C1816.49 204.71 1817.13 199.731 1817.34 194.723C1817.34 194.135 1817.14 193.564 1816.77 193.107C1816.4 192.65 1815.89 192.336 1815.32 192.217C1814.74 192.099 1814.15 192.183 1813.63 192.457C1813.11 192.731 1812.71 193.176 1812.48 193.718L1812.43 193.828C1810.43 198.715 1808.52 203.723 1806.54 208.61C1804.56 213.497 1802.59 218.364 1800.54 223.16C1798.49 227.956 1796.26 232.622 1794.07 237.308C1791.88 241.994 1789.4 246.469 1787.07 251.185L1786.97 251.376C1786.63 252.108 1786.55 252.94 1786.75 253.726C1786.95 254.512 1787.41 255.203 1788.06 255.68C1788.72 256.157 1789.51 256.39 1790.32 256.339C1791.12 256.287 1791.89 255.954 1792.47 255.398C1794.53 253.457 1796.43 251.363 1798.17 249.133C1798.76 248.349 1799.39 247.565 1799.98 246.76C1800.07 246.629 1800.15 246.499 1800.24 246.378C1800.29 246.324 1800.34 246.263 1800.37 246.197L1800.69 245.734C1800.75 245.644 1800.8 245.553 1800.87 245.463L1800.97 245.312C1802.48 243.221 1803.73 242.044 1804.3 242.296C1804.87 242.547 1804.56 244.9 1803.37 248.007C1803.24 248.339 1803.11 248.671 1802.96 249.013L1802.55 250.018L1802.43 250.29L1800.92 254C1800.25 255.709 1799.54 257.405 1798.78 259.088L1796.6 264.186C1795.07 267.535 1793.66 270.964 1792.08 274.312C1789.08 281.119 1785.75 287.756 1782.69 294.775V294.865C1782.43 295.422 1782.36 296.057 1782.51 296.657C1782.66 297.257 1783.02 297.785 1783.52 298.146C1784.02 298.507 1784.63 298.679 1785.24 298.63C1785.86 298.582 1786.44 298.317 1786.87 297.882C1792.56 292.552 1797.69 286.66 1802.2 280.295C1804.55 277.168 1806.56 273.849 1808.67 270.561C1810.78 267.273 1812.67 263.834 1814.35 260.345C1816.03 256.856 1817.77 253.356 1819.35 249.787C1820.07 247.977 1820.81 246.167 1821.49 244.347C1822.17 242.527 1822.78 240.667 1823.38 238.816C1824.57 235.093 1825.57 231.31 1826.38 227.484C1827.18 223.583 1827.67 219.621 1827.83 215.639C1827.85 214.717 1827.61 213.81 1827.14 213.019C1826.67 212.228 1825.99 211.585 1825.18 211.164Z" fill="white"/>
<path d="M1780.43 239.379C1780.1 239.149 1779.72 238.987 1779.33 238.902C1778.94 238.817 1778.53 238.811 1778.14 238.884C1777.74 238.957 1777.37 239.107 1777.03 239.327C1776.69 239.546 1776.4 239.831 1776.18 240.163L1776.11 240.264C1773.43 244.175 1770.93 248.167 1768.32 252.069C1765.71 255.97 1763.14 259.902 1760.44 263.713C1755.2 271.466 1749.67 278.987 1744.17 286.459C1738.68 293.93 1732.9 301.149 1727.18 308.349C1726.38 309.355 1725.58 310.36 1724.77 311.366L1724.61 311.567C1724.48 311.728 1724.35 311.879 1724.23 312.039C1721.45 315.348 1718.49 317.218 1717.23 316.303C1715.97 315.388 1716.9 312.11 1719.17 308.55L1719.27 308.399C1719.43 308.148 1719.61 307.897 1719.77 307.655L1720.1 307.173L1720.21 307.012L1721.89 304.478C1725.29 299.228 1728.41 293.793 1731.22 288.198C1734.05 282.602 1736.47 276.809 1738.48 270.863C1738.84 269.787 1738.83 268.62 1738.44 267.551C1738.06 266.482 1737.33 265.575 1736.37 264.977C1735.41 264.379 1734.28 264.125 1733.16 264.257C1732.04 264.389 1730.99 264.899 1730.2 265.704L1730.1 265.805C1727.91 268.007 1725.89 270.279 1723.9 272.552C1721.91 274.824 1719.9 277.117 1717.98 279.39C1714.09 283.955 1710.3 288.53 1706.52 293.075C1702.74 297.62 1698.97 302.125 1695.39 306.72C1693.59 309.003 1691.83 311.326 1690.1 313.638C1689.24 314.805 1688.39 315.975 1687.56 317.148L1686.35 318.897C1685.96 319.429 1685.61 319.983 1685.29 320.556L1684.46 322.226C1683.69 323.803 1683.46 325.589 1683.8 327.31C1684.14 329.032 1685.03 330.595 1686.33 331.761C1687.63 332.928 1689.28 333.634 1691.02 333.771C1692.76 333.908 1694.5 333.47 1695.97 332.522C1696.86 331.929 1697.49 331.517 1698.2 331.014L1700.2 329.526C1701.38 328.581 1702.53 327.625 1703.63 326.63L1703.7 326.56L1703.89 326.389L1704.12 326.167C1704.35 325.966 1704.59 325.745 1704.82 325.514C1707.53 323.161 1710.15 322.075 1711.26 323.06C1712.37 324.046 1711.67 326.69 1709.76 329.606C1709.5 329.925 1709.27 330.261 1709.05 330.612C1709 330.675 1708.96 330.747 1708.93 330.823C1707.73 332.912 1707.31 335.366 1707.76 337.737C1708.21 340.108 1709.49 342.238 1711.37 343.738C1713.25 345.239 1715.6 346.009 1718 345.908C1720.4 345.808 1722.68 344.843 1724.43 343.191C1724.98 342.648 1725.43 342.186 1725.84 341.753C1726.25 341.321 1726.71 340.858 1727.13 340.386C1727.97 339.471 1728.79 338.556 1729.6 337.631C1730.41 336.705 1731.2 335.77 1731.99 334.835C1732.78 333.9 1733.57 332.965 1734.31 332C1735.81 330.079 1737.31 328.199 1738.76 326.218C1740.21 324.237 1741.66 322.336 1743.02 320.325C1745.79 316.35 1748.46 312.304 1751.02 308.188C1752.26 306.117 1753.57 304.076 1754.77 301.984L1758.34 295.669C1760.69 291.456 1762.96 287.203 1765.09 282.869C1766.15 280.707 1767.25 278.555 1768.27 276.383C1769.29 274.211 1770.27 271.989 1771.27 269.797C1773.27 265.433 1775.04 260.938 1776.82 256.473C1777.72 254.261 1778.52 251.968 1779.31 249.706C1780.1 247.443 1780.88 245.161 1781.65 242.888C1781.86 242.25 1781.86 241.558 1781.64 240.922C1781.42 240.286 1780.99 239.743 1780.43 239.379Z" fill="white"/>
<path d="M1747.54 248.58C1748.53 246.536 1749.64 244.549 1750.84 242.627C1752.04 240.696 1753.31 238.806 1754.61 236.936C1755.91 235.065 1757.28 233.225 1758.71 231.405C1760.16 229.541 1761.73 227.771 1763.4 226.106C1763.59 225.907 1763.84 225.775 1764.11 225.732C1764.38 225.689 1764.66 225.735 1764.9 225.865C1765.14 225.995 1765.34 226.2 1765.45 226.451C1765.57 226.701 1765.6 226.982 1765.54 227.252C1765.14 229.644 1764.48 231.986 1763.59 234.241C1762.74 236.467 1761.74 238.631 1760.59 240.716C1759.45 242.812 1758.18 244.828 1756.77 246.75C1755.36 248.715 1753.74 250.522 1751.94 252.14C1751.45 252.573 1750.83 252.823 1750.17 252.847C1749.52 252.871 1748.88 252.669 1748.36 252.273C1747.84 251.877 1747.47 251.313 1747.31 250.675C1747.16 250.037 1747.22 249.365 1747.5 248.771L1747.54 248.58Z" fill="white"/>
<path d="M1783.3 204.448C1783.95 202.277 1784.78 200.164 1785.77 198.133C1786.77 196.122 1787.77 194.11 1788.95 192.099C1790.13 190.088 1791.31 188.198 1792.65 186.297C1794.01 184.321 1795.53 182.467 1797.2 180.756C1797.36 180.6 1797.54 180.475 1797.74 180.39C1797.94 180.305 1798.16 180.261 1798.38 180.261C1798.6 180.261 1798.82 180.305 1799.02 180.39C1799.22 180.475 1799.41 180.6 1799.56 180.756C1799.71 180.906 1799.84 181.084 1799.92 181.281C1800 181.477 1800.05 181.689 1800.05 181.903C1800.07 184.374 1799.79 186.84 1799.22 189.243C1798.69 191.588 1797.95 193.882 1797.03 196.101C1796.13 198.322 1795.06 200.468 1793.82 202.517C1792.57 204.626 1791.07 206.569 1789.33 208.299C1788.75 208.865 1788 209.222 1787.2 209.317C1786.39 209.411 1785.58 209.236 1784.88 208.82C1784.19 208.404 1783.65 207.769 1783.35 207.013C1783.04 206.258 1783 205.423 1783.21 204.639L1783.3 204.448Z" fill="white"/>
<path d="M1851.74 206.217C1851.81 207.558 1851.77 208.904 1851.62 210.239C1851.48 211.535 1851.26 212.821 1850.97 214.09C1850.39 216.616 1849.57 219.08 1848.53 221.451C1847.51 223.829 1846.26 226.099 1844.79 228.229C1843.33 230.397 1841.59 232.355 1839.6 234.051C1839.37 234.242 1839.09 234.358 1838.8 234.384C1838.51 234.41 1838.21 234.345 1837.95 234.197C1837.7 234.05 1837.49 233.826 1837.36 233.557C1837.24 233.288 1837.19 232.987 1837.24 232.693V232.633C1837.69 230.079 1838.38 227.766 1839 225.443C1839.62 223.12 1840.31 220.868 1841 218.625L1843.07 211.928C1843.44 210.822 1843.79 209.716 1844.18 208.61C1844.57 207.504 1844.96 206.357 1845.39 205.402L1845.55 205.04C1845.85 204.38 1846.36 203.84 1847 203.505C1847.64 203.17 1848.37 203.059 1849.08 203.191C1849.79 203.322 1850.44 203.689 1850.92 204.231C1851.4 204.774 1851.68 205.462 1851.73 206.186L1851.74 206.217Z" fill="white"/>
<path d="M1817.69 310.379C1823.8 303.085 1827.82 296.375 1826.66 295.39C1825.5 294.405 1819.6 299.52 1813.48 306.814C1807.37 314.108 1803.35 320.819 1804.51 321.803C1805.67 322.788 1811.57 317.673 1817.69 310.379Z" fill="white"/>
<path d="M435.918 351.075L235.753 351.386L194.122 351.447H176.286H141.114L51.1344 351.587H29.0194H12.0232L-36.4359 351.668L-69.8084 351.718L-122.437 351.799C-122.437 351.799 -28.9575 302.839 43.0263 231.948C90.3456 185.341 117.36 162.646 130.317 152.561C133.067 150.423 136.41 149.201 139.883 149.064C143.356 148.927 146.784 149.882 149.692 151.796C166.758 163.028 203.07 187.292 231.484 208.821C269.955 238.122 435.918 351.075 435.918 351.075Z" fill="#F7F8FA"/>
<path d="M141.804 166.859C141.804 168.629 141.644 170.389 141.514 172.158C141.384 173.928 141.254 175.678 141.104 177.438C140.954 179.197 140.684 180.947 140.434 182.697C140.184 184.446 139.974 186.216 139.665 187.966C139.005 191.445 138.335 194.944 137.505 198.403C135.829 205.363 133.691 212.203 131.106 218.876C129.837 222.245 128.377 225.563 126.897 228.841C126.158 230.5 125.288 232.099 124.488 233.718C123.688 235.337 122.838 236.956 121.928 238.534C118.392 244.949 114.322 251.051 109.761 256.775C107.492 259.661 105.032 262.426 102.483 265.091C99.9335 267.755 97.2041 270.279 94.3547 272.662C88.6726 277.48 82.428 281.582 75.7589 284.88C72.391 286.513 68.9052 287.888 65.3312 288.992C63.5287 289.537 61.7002 289.99 59.8525 290.35C58.9227 290.531 57.9729 290.672 57.0231 290.792L55.5634 290.953L53.9738 291.064C53.2414 291.118 52.5091 290.959 51.8636 290.607C51.218 290.255 50.6865 289.724 50.3318 289.078C49.9772 288.431 49.8144 287.696 49.8627 286.959C49.911 286.222 50.1685 285.514 50.6045 284.92L51.6043 283.552C51.8352 283.286 52.0823 283.034 52.3442 282.798L52.4941 282.668L53.2339 281.964L53.4639 281.753C53.9838 281.27 54.4637 280.747 54.9936 280.284C55.1335 280.154 55.2835 280.013 55.4135 279.872C60.4923 274.613 63.0318 269.525 61.3021 267.343C59.0826 264.578 50.8145 267.534 42.6963 273.97L40.1469 276.121C36.2611 279.379 32.292 282.631 28.2396 285.875C-7.26244 314.412 -41.9146 337.389 -69.8084 351.849L-122.437 351.929C-122.437 351.929 -28.9576 302.969 43.0263 232.079C90.3456 185.472 117.36 162.777 130.317 152.691C133.096 150.529 136.483 149.304 139.994 149.192C141.266 151.245 141.829 153.663 141.594 156.07C141.594 156.07 141.594 156.17 141.594 156.211C141.824 159.77 141.844 163.31 141.804 166.859Z" fill="white"/>
<path d="M83.457 323.422C78.4802 329.469 72.8951 334.982 66.7907 339.873L65.441 340.879L51.1042 351.618H28.9892C37.4973 345.313 42.9161 338.345 41.1365 335.851C39.3569 333.357 30.6388 336.444 21.7608 342.89C18.1754 345.419 14.9001 348.365 12.003 351.668L-36.4561 351.748C-15.2129 346.368 5.01505 337.537 23.4305 325.604C29.6704 321.521 35.5267 316.872 40.9265 311.718C47.3851 305.604 53.6837 302.588 56.2631 304.78C57.5728 305.896 57.7328 308.168 56.9329 311.104C56.9285 311.131 56.9285 311.158 56.9329 311.185C56.8729 311.396 56.813 311.607 56.743 311.828C56.603 312.291 56.433 312.764 56.2431 313.256C55.0534 317.278 55.1333 320.295 56.743 321.512C59.4124 323.473 65.521 319.903 72.0595 313.105V313.186L72.5894 312.552C72.6512 312.494 72.7081 312.43 72.7594 312.361C73.7591 311.205 74.7589 310.089 75.7587 309.003L75.8187 308.943C86.4163 297.379 96.424 290.32 99.2934 292.753C102.513 295.418 95.4243 309.184 83.457 323.422Z" fill="white"/>
<path d="M130.496 252.813C130.676 252.361 130.986 251.808 131.226 251.255L131.996 249.626C132.486 248.53 132.996 247.454 133.506 246.348C134.016 245.242 134.506 244.156 134.955 243.04C135.405 241.923 135.905 240.837 136.355 239.721C138.175 235.287 139.874 230.842 141.434 226.338C142.144 224.055 142.974 221.833 143.644 219.53C143.993 218.394 144.383 217.268 144.753 216.121C145.123 214.975 145.423 213.829 145.753 212.682C146.543 210.4 147.123 208.067 147.933 205.754C148.742 203.441 149.352 201.078 150.332 198.715L150.442 198.474C150.804 197.604 151.444 196.881 152.261 196.418C153.078 195.954 154.025 195.778 154.952 195.917C155.88 196.055 156.735 196.5 157.383 197.182C158.031 197.863 158.434 198.743 158.53 199.681C158.66 201.008 158.71 202.335 158.75 203.703C158.79 205.07 158.82 206.367 158.75 207.725C158.68 209.082 158.55 210.37 158.42 211.687C158.34 212.35 158.28 213.014 158.19 213.698L157.85 215.659C157.62 216.966 157.36 218.273 157.101 219.58C156.841 220.887 156.441 222.154 156.101 223.431L155.561 225.352L154.901 227.152C154.461 228.409 154.011 229.656 153.521 230.893C151.531 235.856 149.038 240.6 146.083 245.051L144.903 246.71L143.704 248.319C142.904 249.385 142.044 250.42 141.154 251.426C140.724 251.939 140.254 252.431 139.794 252.924C139.335 253.417 138.875 253.93 138.375 254.362C137.875 254.794 137.375 255.307 136.875 255.76C136.375 256.212 135.875 256.624 135.205 257.127C134.646 257.557 133.963 257.79 133.26 257.792C132.557 257.794 131.872 257.564 131.311 257.137C130.75 256.711 130.343 256.111 130.152 255.43C129.962 254.749 129.999 254.025 130.257 253.366L130.496 252.813Z" fill="white"/>
<path d="M186.554 209.062C184.664 212.843 174.677 212.23 158.72 208.057C155.461 207.192 151.962 206.186 148.223 205.04C144.61 203.927 140.794 202.68 136.775 201.299C124.048 196.925 109.321 191.244 93.1249 184.527C81.6575 179.761 69.4503 174.472 56.6931 168.629L50.7745 165.914L48.1351 164.698C36.8076 160.032 27.8396 158.664 26.14 161.772C24.9703 163.964 27.6097 167.936 32.7685 172.501L32.9685 172.662C35.018 174.22 36.8676 175.678 38.5272 177.096C45.9655 183.33 49.5247 187.855 48.405 190.118C45.8356 195.236 19.8014 187.755 -18.8499 171.897C-35.6361 165.009 -54.8418 156.533 -75.4771 146.819C-83.2254 143.179 -91.1936 139.368 -99.3218 135.396C-99.089 136.806 -99.4196 138.252 -100.242 139.418C-104.301 144.577 -119.887 138.986 -135.054 126.93C-140.221 122.881 -144.932 118.275 -149.101 113.194C-149.415 113.684 -149.787 114.133 -150.21 114.531C-156.349 120.273 -171.526 113.908 -184.103 100.313C-184.783 99.5788 -185.432 98.8347 -186.102 98.0906C-186.167 100.302 -187.072 102.403 -188.632 103.963C-194.76 109.705 -209.937 103.34 -222.524 89.7446C-224.394 87.7239 -226.15 85.5988 -227.783 83.3795C-241.053 65.3943 -256.214 48.9018 -273.003 34.1884C-279.071 28.8389 -281.911 24.9274 -280.881 22.8761C-280.211 21.5387 -277.882 21.056 -274.212 21.3678C-273.322 21.4311 -272.433 21.2274 -271.658 20.7824C-270.883 20.3374 -270.257 19.6711 -269.859 18.8678C-269.461 18.0646 -269.308 17.1606 -269.421 16.2703C-269.534 15.38 -269.907 14.5434 -270.493 13.8664L-270.563 13.786C-275.762 9.17054 -280.591 4.54505 -285 0H-115.938C-46.5436 45.6818 36.7576 106.175 36.7576 106.175C70.52 123.893 100.863 141.289 125.288 156.673C131.14 160.354 136.638 163.913 141.784 167.352C172.217 187.674 189.513 203.119 186.554 209.062Z" fill="#EBECF2"/>
<path d="M205.46 320.909C203.36 323.925 201.111 326.881 198.802 329.777C196.492 332.673 193.963 335.378 191.363 338.023C188.764 340.667 186.134 343.292 183.285 345.695C181.875 346.922 180.486 348.159 179.036 349.335L176.277 351.477H141.104C143.104 350.471 145.044 349.466 147.013 348.46C149.932 346.841 152.862 345.212 155.741 343.433C157.201 342.598 158.611 341.653 160.05 340.758C161.49 339.863 162.93 338.978 164.329 338.013L168.588 335.177C169.998 334.172 171.378 333.166 172.787 332.221C175.637 330.31 178.356 328.199 181.195 326.188C182.625 325.182 183.975 324.177 185.365 323.08L189.584 319.973C192.383 317.862 195.142 315.7 198.112 313.699L198.322 313.558C199.321 312.876 200.527 312.568 201.73 312.687C202.932 312.806 204.055 313.345 204.903 314.21C205.752 315.075 206.272 316.212 206.374 317.423C206.475 318.634 206.152 319.842 205.46 320.838V320.909Z" fill="white"/>
<path d="M176.206 309.707C176.746 309.154 177.466 308.5 178.106 307.877L180.105 305.976L182.105 304.055C182.745 303.392 183.394 302.758 184.034 302.105C186.614 299.51 189.086 296.829 191.453 294.06C192.682 292.713 193.762 291.255 194.962 289.877C196.162 288.5 197.261 287.042 198.311 285.554C200.601 282.658 202.58 279.581 204.95 276.504L205.04 276.383C205.362 275.971 205.81 275.677 206.314 275.546C206.819 275.415 207.352 275.454 207.832 275.658C208.312 275.861 208.713 276.217 208.972 276.671C209.232 277.126 209.336 277.653 209.269 278.173C209.139 279.178 208.929 280.184 208.729 281.189C208.527 282.21 208.263 283.218 207.939 284.206L206.939 287.142C206.569 288.148 206.129 289.043 205.699 289.988C204.831 291.863 203.849 293.683 202.76 295.438C201.651 297.175 200.453 298.853 199.171 300.466C196.635 303.703 193.778 306.671 190.643 309.325C189.068 310.64 187.426 311.872 185.724 313.015C184.854 313.568 184.014 314.151 183.094 314.644C182.175 315.137 181.305 315.649 180.225 316.112C179.422 316.484 178.515 316.561 177.662 316.33C176.809 316.099 176.063 315.574 175.554 314.847C175.045 314.121 174.806 313.237 174.878 312.351C174.949 311.466 175.327 310.633 175.946 309.998L176.206 309.707Z" fill="white"/>
<path d="M213.028 292.955C213.308 291.055 213.708 289.013 214.028 287.063C214.348 285.112 214.717 283.131 215.027 281.16C215.337 279.189 215.567 277.228 215.797 275.247C216.027 273.266 216.187 271.285 216.507 269.214V269.113C216.557 268.805 216.704 268.52 216.927 268.302C217.15 268.084 217.437 267.944 217.745 267.902C218.053 267.86 218.366 267.92 218.638 268.071C218.91 268.222 219.127 268.457 219.256 268.741C220.162 270.808 220.746 273.002 220.986 275.247C221.231 277.466 221.231 279.705 220.986 281.924C220.778 284.133 220.367 286.318 219.756 288.45C219.167 290.612 218.321 292.696 217.237 294.655C216.97 295.12 216.551 295.477 216.051 295.666C215.551 295.854 215.001 295.861 214.496 295.686C213.991 295.512 213.563 295.165 213.284 294.708C213.005 294.25 212.893 293.708 212.968 293.177L213.028 292.955Z" fill="white"/>
<path d="M241.042 328.812C240.251 336.528 238.474 344.109 235.753 351.367L194.122 351.427L195.712 350.421C200.657 347.02 205.176 343.029 209.169 338.536C211.274 336.172 213.237 333.684 215.047 331.085C215.527 330.431 215.967 329.758 216.407 329.074L217.767 327.063C218.587 325.645 219.496 324.237 220.276 322.759C223.614 316.622 226.476 310.235 228.834 303.654L228.894 303.503C229.372 302.289 230.228 301.264 231.334 300.581C232.44 299.898 233.737 299.595 235.029 299.716C236.321 299.837 237.54 300.377 238.501 301.254C239.463 302.13 240.115 303.297 240.362 304.579C241.666 312.59 241.895 320.74 241.042 328.812Z" fill="white"/>
<path d="M1645.56 100.837C1647.04 100.837 1648.25 99.6258 1648.25 98.1315C1648.25 96.6372 1647.04 95.4258 1645.56 95.4258C1644.07 95.4258 1642.87 96.6372 1642.87 98.1315C1642.87 99.6258 1644.07 100.837 1645.56 100.837Z" fill="white"/>
<path d="M139.135 98.0418C140.62 98.0418 141.824 96.8304 141.824 95.3361C141.824 93.8418 140.62 92.6304 139.135 92.6304C137.649 92.6304 136.445 93.8418 136.445 95.3361C136.445 96.8304 137.649 98.0418 139.135 98.0418Z" fill="white"/>
<path d="M739.85 40.8865C741.335 40.8865 742.539 39.6751 742.539 38.1808C742.539 36.6865 741.335 35.4751 739.85 35.4751C738.364 35.4751 737.16 36.6865 737.16 38.1808C737.16 39.6751 738.364 40.8865 739.85 40.8865Z" fill="white"/>
<path d="M1721.4 25.0701C1722.88 25.0701 1724.09 23.8587 1724.09 22.3644C1724.09 20.8701 1722.88 19.6587 1721.4 19.6587C1719.91 19.6587 1718.71 20.8701 1718.71 22.3644C1718.71 23.8587 1719.91 25.0701 1721.4 25.0701Z" fill="white"/>
<path d="M1885.54 62.8575C1886.6 62.8575 1887.46 61.9929 1887.46 60.9263C1887.46 59.8597 1886.6 58.9951 1885.54 58.9951C1884.48 58.9951 1883.62 59.8597 1883.62 60.9263C1883.62 61.9929 1884.48 62.8575 1885.54 62.8575Z" fill="white"/>
<path d="M222.746 149.193C223.807 149.193 224.666 148.329 224.666 147.262C224.666 146.196 223.807 145.331 222.746 145.331C221.686 145.331 220.826 146.196 220.826 147.262C220.826 148.329 221.686 149.193 222.746 149.193Z" fill="white"/>
<path d="M379.011 35.2057C380.071 35.2057 380.931 34.341 380.931 33.2745C380.931 32.2079 380.071 31.3433 379.011 31.3433C377.95 31.3433 377.091 32.2079 377.091 33.2745C377.091 34.341 377.95 35.2057 379.011 35.2057Z" fill="white"/>
<path d="M622.576 65.3717C623.637 65.3717 624.496 64.507 624.496 63.4405C624.496 62.3739 623.637 61.5093 622.576 61.5093C621.516 61.5093 620.656 62.3739 620.656 63.4405C620.656 64.507 621.516 65.3717 622.576 65.3717Z" fill="white"/>
<path d="M654.619 40.1119C655.68 40.1119 656.539 39.2473 656.539 38.1807C656.539 37.1141 655.68 36.2495 654.619 36.2495C653.559 36.2495 652.699 37.1141 652.699 38.1807C652.699 39.2473 653.559 40.1119 654.619 40.1119Z" fill="white"/>
<path d="M15.8429 230.702C16.9033 230.702 17.7628 229.838 17.7628 228.771C17.7628 227.704 16.9033 226.84 15.8429 226.84C14.7825 226.84 13.9229 227.704 13.9229 228.771C13.9229 229.838 14.7825 230.702 15.8429 230.702Z" fill="white"/>
<path d="M1202.96 47.3517C1204.03 47.3517 1204.88 46.487 1204.88 45.4205C1204.88 44.3539 1204.03 43.4893 1202.96 43.4893C1201.9 43.4893 1201.04 44.3539 1201.04 45.4205C1201.04 46.487 1201.9 47.3517 1202.96 47.3517Z" fill="white"/>
<path d="M1541.39 47.3517C1542.45 47.3517 1543.31 46.487 1543.31 45.4205C1543.31 44.3539 1542.45 43.4893 1541.39 43.4893C1540.33 43.4893 1539.47 44.3539 1539.47 45.4205C1539.47 46.487 1540.33 47.3517 1541.39 47.3517Z" fill="white"/>
<path d="M1036.63 37.4083C1037.69 37.4083 1038.55 36.5437 1038.55 35.4771C1038.55 34.4105 1037.69 33.5459 1036.63 33.5459C1035.57 33.5459 1034.71 34.4105 1034.71 35.4771C1034.71 36.5437 1035.57 37.4083 1036.63 37.4083Z" fill="white"/>
<path d="M147.023 0L107.602 59.1359L84.8573 61.8107V96.7834L83.3976 99.609C53.0245 158.695 -14.2604 220.053 -17.0598 222.637L-18.7894 220.706V351.859H-75.4666V95.3354L-148.28 73.2135V0H-127.285V57.5271L-75.4666 73.2738V0H-18.8394V188.117C2.08591 167.212 38.8277 127.784 58.8631 90.3681V0H84.8573V50.6793L101.284 48.7386L133.776 0H147.023Z" fill="#EBECF2"/>
<path d="M222.853 50.3737C224.58 47.317 214.163 38.0877 199.587 29.7595C185.011 21.4313 171.796 17.1578 170.069 20.2144C168.343 23.2711 178.759 32.5004 193.335 40.8286C207.911 49.1569 221.127 53.4303 222.853 50.3737Z" fill="#F3F4F7"/>
<path d="M22.7108 120.334C23.9463 118.147 18.1602 112.495 9.78723 107.711C1.41422 102.927 -6.37504 100.823 -7.61056 103.01C-8.84607 105.197 -3.05999 110.849 5.31303 115.633C13.686 120.417 21.4753 122.522 22.7108 120.334Z" fill="#F3F4F7"/>
<path d="M231.267 45.9562C233.11 42.9687 227.604 36.1805 218.97 30.7942C210.337 25.4079 201.844 23.4632 200.002 26.4507C198.16 29.4381 203.665 36.2263 212.299 41.6126C220.933 46.9989 229.425 48.9436 231.267 45.9562Z" fill="#F3F4F7"/>
<path d="M46.2456 111.193C29.9093 135.587 9.03396 159.207 -7.40234 176.422C2.67539 180.374 11.6634 183.632 19.3416 186.106C23.4707 181.631 27.7697 176.865 32.1387 171.847C34.9381 168.629 37.7608 165.314 40.6068 161.902C50.8361 149.707 60.3853 136.95 69.2104 123.692C61.7854 119.562 54.1305 115.396 46.2456 111.193Z" fill="#F3F4F7"/>
<path d="M84.8564 73.7866V80.6546C76.5719 79.4534 68.3558 77.8154 60.242 75.7474L58.8623 75.4156V65.0884C60.252 65.6314 61.6417 66.1643 63.0414 66.6872C70.1797 69.3822 77.4681 71.7855 84.8564 73.7866Z" fill="#F3F4F7"/>
<path d="M141.784 167.352C141.734 168.951 141.634 170.55 141.514 172.159C141.414 173.918 141.254 175.678 141.104 177.438C140.954 179.197 140.684 180.947 140.434 182.697C140.184 184.446 139.974 186.216 139.665 187.966C139.005 191.445 138.335 194.944 137.505 198.403C137.265 199.349 137.025 200.294 136.775 201.239C124.048 196.865 109.321 191.184 93.125 184.467C107.332 171.575 117.859 162.676 125.288 156.673C131.14 160.354 136.639 163.913 141.784 167.352Z" fill="#F3F4F7"/>
<path d="M158.751 207.665V208.007C155.491 207.142 151.992 206.137 148.253 204.99C148.903 202.919 149.533 200.827 150.402 198.746L150.512 198.504C150.875 197.635 151.515 196.911 152.332 196.448C153.148 195.985 154.095 195.808 155.023 195.947C155.95 196.085 156.805 196.53 157.453 197.212C158.101 197.894 158.505 198.773 158.601 199.711C158.731 201.038 158.781 202.366 158.821 203.733C158.861 205.101 158.901 206.348 158.751 207.665Z" fill="#F3F4F7"/>
</svg>
