<svg width="1592" height="351" viewBox="0 0 1592 351" fill="none" xmlns="http://www.w3.org/2000/svg">
<path d="M717.008 0C717.008 0 714.248 52.7885 812.236 38.7889C910.224 24.7893 934.659 18.7895 972.09 30.7891C1009.52 42.7888 1006.57 81.4577 1053.7 84.7876C1100.83 88.1175 1188.18 34.789 1168.84 94.1173C1263.59 132.786 1305.52 142.366 1373.3 127.116C1435.38 112.982 1493.08 83.9625 1541.45 42.5588L1591.37 0H717.008Z" fill="#EBECF2"/>
<path d="M685.956 167.245C676.608 181.365 620.85 161.735 551.396 122.057C550.313 121.431 549.068 121.144 547.82 121.233C546.573 121.323 545.381 121.783 544.398 122.556C538.719 127.006 526.921 121.437 518.063 110.117C516.375 107.817 514.867 105.39 513.554 102.857C512.911 101.669 511.843 100.768 510.564 100.334C509.285 99.9006 507.889 99.9659 506.656 100.517H506.606C497.918 104.387 486.131 96.8772 480.282 83.7376V83.6576C480.137 83.3205 479.894 83.0353 479.583 82.8398C479.273 82.6443 478.911 82.5477 478.544 82.5629C478.178 82.5781 477.824 82.7043 477.531 82.9248C477.238 83.1453 477.019 83.4497 476.903 83.7976C476.385 85.5145 475.402 87.0546 474.063 88.2475C466.895 94.5073 451.229 88.2475 439.071 74.3779C436.993 72.0118 435.098 69.4913 433.403 66.8381C429.751 61.0435 424.898 56.1011 419.172 52.3453C413.445 48.5895 406.979 46.108 400.21 45.0687C372.708 40.9043 345.56 34.6667 318.998 26.4092C314.079 24.8893 309.23 23.3227 304.452 21.7094L303.832 21.4894C301.212 20.6294 299.303 20.4894 298.833 21.3194C298.473 21.9494 299.033 23.0393 300.262 24.3693C300.522 24.5993 300.772 24.8393 301.012 25.0693L301.572 25.6293C305.501 29.5192 307.381 32.7791 306.351 34.559C305.031 36.8389 299.273 36.199 291.454 33.359H291.394L290.495 33.0191C290.225 32.9191 289.955 32.8191 289.675 32.6991L289.505 32.6391C286.506 31.6391 284.356 31.2591 284.036 31.9191C283.816 32.3791 284.516 33.229 285.846 34.289L288.325 35.899L290.325 37.1489C297.656 41.8155 305.151 46.192 312.81 50.2786C318.498 53.2785 324.267 56.2084 330.146 58.8583C334.665 60.8583 339.234 62.8582 343.863 64.6981C345.252 65.2381 346.642 65.7681 348.042 66.2881C355.18 68.998 362.468 71.358 369.857 73.3479C374.982 74.7479 380.158 75.9645 385.383 76.9978C386.012 77.1071 386.573 77.4566 386.949 77.9722C387.325 78.4879 387.486 79.1295 387.398 79.7615C387.309 80.3936 386.979 80.9666 386.476 81.3595C385.974 81.7525 385.338 81.9347 384.703 81.8677C379.738 81.461 374.779 80.8943 369.827 80.1677C361.542 78.9731 353.326 77.3443 345.212 75.2878L343.863 74.9979C337.864 73.4779 331.865 71.708 325.927 69.798C319.538 67.7981 313.24 65.4281 306.981 62.9782C294.465 58.0218 282.229 52.3835 270.329 46.0887C264.371 42.9488 258.482 39.6355 252.663 36.149C249.757 34.409 246.871 32.6157 244.005 30.7691C242.565 29.8491 241.136 28.9092 239.696 27.9492L237.547 26.4892C236.807 25.9793 236.137 25.4893 235.287 24.8893L235.077 24.7393C232.616 22.9345 230.973 20.226 230.509 17.2096C230.045 14.1932 230.798 11.1159 232.603 8.65475C234.407 6.19361 237.115 4.55021 240.131 4.08607C243.147 3.62193 246.223 4.37508 248.684 6.17982C249.06 6.46385 249.42 6.7676 249.764 7.0898C250.194 7.48979 250.824 8.03977 251.383 8.53976L253.153 10.0597L254.693 11.3497C250.054 6.9998 247.694 3.3499 248.844 1.34996C249.163 0.869141 249.641 0.515339 250.194 0.34999L249.454 0H532.55C534.736 5.12925 535.506 10.7512 534.78 16.2795C534.572 17.4956 534.716 18.7458 535.194 19.883C535.672 21.0202 536.465 21.9973 537.479 22.6994C631.268 84.7376 697.723 149.436 685.956 167.245Z" fill="#EBECF2"/>
<path d="M1569.4 349.99H832.892C832.892 349.99 845.099 341.27 864.614 327.061C897.677 302.991 951.715 263.163 1002.85 223.334C1079.26 163.825 1146.38 93.4474 1194.71 58.0584C1197.34 56.1375 1200.49 55.0602 1203.74 54.9692C1207 54.8781 1210.2 55.7775 1212.94 57.5484L1569.4 349.99Z" fill="#F7F8FA"/>
<path d="M1199.9 55.5684C1199.39 63.4381 1198.47 71.2479 1197.27 79.0077C1194.5 96.4213 1190.24 113.566 1184.55 130.256C1183.87 132.346 1183.11 134.416 1182.36 136.486C1181.61 138.556 1180.9 140.626 1180.07 142.666L1177.65 148.786C1176.84 150.786 1175.94 152.786 1175.09 154.856C1173.4 158.855 1171.52 162.855 1169.62 166.855C1167.72 170.855 1165.62 174.675 1163.5 178.485C1161.38 182.295 1159.17 186.095 1156.77 189.765C1155.61 191.614 1154.43 193.454 1153.21 195.264C1151.99 197.074 1150.71 198.854 1149.45 200.644C1146.97 204.224 1144.21 207.644 1141.45 211.054C1138.69 214.464 1135.74 217.694 1132.74 220.864C1132.47 221.156 1132.14 221.391 1131.77 221.555C1131.41 221.719 1131.01 221.81 1130.61 221.821C1130.21 221.832 1129.81 221.764 1129.43 221.62C1129.06 221.476 1128.72 221.26 1128.43 220.984C1128.06 220.639 1127.78 220.208 1127.62 219.729C1127.47 219.25 1127.43 218.739 1127.53 218.244C1127.51 218.167 1127.51 218.09 1127.53 218.014C1127.54 217.931 1127.56 217.851 1127.6 217.774C1130.38 206.774 1130.59 198.294 1127.6 197.254C1125.33 196.444 1121.74 200.254 1118.03 206.664C1117.31 208.064 1116.6 209.464 1115.89 210.864C1115.56 211.504 1115.22 212.134 1114.89 212.764C1109.56 223.017 1103.79 233.307 1097.59 243.633C1072.36 285.832 1043.95 322.191 1015.8 350.05H864.135C863.777 342.406 863.92 334.746 864.564 327.121C897.627 303.051 951.665 263.222 1002.8 223.394C1079.21 163.885 1146.33 93.5073 1194.66 58.1183C1196.24 56.9547 1198.01 56.0904 1199.9 55.5684Z" fill="white"/>
<path d="M1225.19 111.236C1225.46 113.845 1225.5 116.471 1225.31 119.086C1225.16 121.652 1224.86 124.206 1224.41 126.736C1222.58 136.976 1218.78 146.763 1213.22 155.555C1210.35 159.989 1206.83 163.963 1202.78 167.345C1202.25 167.85 1201.56 168.146 1200.83 168.177C1200.1 168.208 1199.39 167.972 1198.82 167.514C1198.25 167.055 1197.87 166.405 1197.75 165.685C1197.62 164.966 1197.77 164.226 1198.15 163.605L1198.23 163.435C1200.39 159.321 1202.34 155.095 1204.06 150.775C1205.67 146.445 1207.14 142.086 1208.42 137.616C1209.7 133.146 1210.76 128.616 1211.93 124.086L1213.7 117.266L1214.65 113.856C1214.98 112.736 1215.31 111.546 1215.65 110.526L1215.8 110.126C1216.17 109.097 1216.88 108.225 1217.81 107.65C1218.74 107.075 1219.84 106.833 1220.92 106.961C1222.01 107.09 1223.02 107.582 1223.79 108.359C1224.57 109.135 1225.05 110.149 1225.17 111.236H1225.19Z" fill="white"/>
<path d="M1211.55 209.994C1210.4 209.391 1209.07 209.262 1207.84 209.637C1206.6 210.011 1205.56 210.858 1204.95 211.994L1204.81 212.254C1204.55 212.744 1204.3 213.254 1204.04 213.744C1203.98 213.865 1203.93 213.985 1203.87 214.104L1203.57 214.674C1203.56 214.713 1203.54 214.749 1203.52 214.784C1202.65 216.394 1201.89 217.294 1201.39 217.144C1200.6 216.904 1200.66 214.224 1201.39 210.524C1201.39 210.354 1201.46 210.204 1201.5 210.044C1201.54 209.884 1201.58 209.674 1201.62 209.484C1201.66 209.294 1201.75 208.894 1201.8 208.604C1201.8 208.551 1201.8 208.497 1201.8 208.444C1202.87 203.576 1203.5 198.624 1203.71 193.645C1203.71 193.06 1203.51 192.492 1203.14 192.038C1202.78 191.583 1202.26 191.27 1201.69 191.153C1201.12 191.035 1200.52 191.119 1200 191.391C1199.48 191.663 1199.08 192.106 1198.85 192.645L1198.8 192.755C1196.8 197.615 1194.89 202.594 1192.91 207.454C1190.93 212.314 1188.96 217.154 1186.91 221.924C1184.86 226.694 1182.63 231.334 1180.44 235.994C1178.25 240.653 1175.77 245.103 1173.44 249.793L1173.34 249.983C1173 250.712 1172.92 251.539 1173.12 252.32C1173.32 253.102 1173.78 253.789 1174.44 254.264C1175.09 254.738 1175.89 254.97 1176.69 254.919C1177.5 254.867 1178.26 254.536 1178.84 253.983C1180.9 252.053 1182.8 249.97 1184.54 247.753C1185.13 246.973 1185.76 246.193 1186.35 245.393C1186.44 245.263 1186.52 245.133 1186.61 245.013C1186.66 244.959 1186.71 244.899 1186.74 244.833L1187.06 244.373C1187.12 244.283 1187.17 244.193 1187.24 244.103L1187.34 243.953C1188.85 241.873 1190.1 240.703 1190.67 240.953C1191.24 241.203 1190.93 243.543 1189.74 246.633C1189.61 246.963 1189.48 247.293 1189.33 247.633L1188.92 248.633L1188.8 248.903L1187.29 252.593C1186.63 254.293 1185.91 255.98 1185.15 257.653L1182.97 262.723C1181.44 266.053 1180.03 269.463 1178.45 272.792C1175.45 279.562 1172.13 286.162 1169.07 293.142V293.232C1168.8 293.786 1168.73 294.417 1168.88 295.014C1169.03 295.611 1169.39 296.135 1169.89 296.494C1170.39 296.853 1171 297.024 1171.62 296.976C1172.23 296.928 1172.81 296.664 1173.24 296.232C1178.93 290.931 1184.06 285.072 1188.57 278.742C1190.92 275.632 1192.93 272.332 1195.04 269.063C1197.15 265.793 1199.04 262.373 1200.72 258.903C1202.4 255.433 1204.14 251.953 1205.72 248.403C1206.44 246.603 1207.18 244.803 1207.86 242.993C1208.54 241.183 1209.15 239.333 1209.75 237.493C1210.94 233.791 1211.94 230.029 1212.75 226.224C1213.56 222.344 1214.04 218.404 1214.21 214.444C1214.22 213.528 1213.98 212.625 1213.51 211.839C1213.04 211.052 1212.36 210.413 1211.55 209.994Z" fill="white"/>
<path d="M1166.8 238.053C1166.47 237.825 1166.1 237.664 1165.7 237.579C1165.31 237.495 1164.91 237.488 1164.51 237.561C1164.12 237.633 1163.74 237.783 1163.4 238.001C1163.07 238.22 1162.77 238.502 1162.55 238.833L1162.48 238.933C1159.8 242.823 1157.3 246.793 1154.69 250.673C1152.08 254.553 1149.51 258.463 1146.81 262.253C1141.57 269.962 1136.04 277.442 1130.54 284.872C1125.05 292.302 1119.27 299.481 1113.55 306.641C1112.75 307.641 1111.95 308.641 1111.14 309.641L1110.98 309.841C1110.85 310.001 1110.72 310.151 1110.6 310.311C1107.82 313.601 1104.86 315.461 1103.6 314.551C1102.34 313.641 1103.27 310.381 1105.54 306.841L1105.64 306.691C1105.8 306.441 1105.98 306.191 1106.14 305.951L1106.47 305.471L1106.58 305.311L1108.26 302.791C1111.66 297.571 1114.78 292.166 1117.59 286.602C1120.42 281.037 1122.84 275.276 1124.85 269.362C1125.21 268.293 1125.2 267.132 1124.82 266.069C1124.43 265.006 1123.7 264.104 1122.74 263.509C1121.78 262.915 1120.65 262.662 1119.53 262.794C1118.41 262.925 1117.36 263.432 1116.57 264.232L1116.47 264.332C1114.28 266.522 1112.26 268.782 1110.27 271.042C1108.28 273.302 1106.27 275.582 1104.35 277.842C1100.46 282.382 1096.67 286.932 1092.89 291.452C1089.11 295.972 1085.34 300.451 1081.76 305.021C1079.96 307.291 1078.2 309.601 1076.47 311.901C1075.61 313.061 1074.76 314.224 1073.93 315.391L1072.72 317.131C1072.33 317.66 1071.98 318.211 1071.66 318.781L1070.83 320.441C1070.06 322.009 1069.83 323.785 1070.17 325.497C1070.51 327.209 1071.4 328.764 1072.7 329.924C1074 331.084 1075.65 331.786 1077.39 331.922C1079.13 332.059 1080.87 331.623 1082.34 330.681C1083.24 330.091 1083.87 329.681 1084.58 329.181L1086.57 327.701C1087.75 326.761 1088.9 325.811 1090 324.821L1090.07 324.751L1090.26 324.581L1090.49 324.361C1090.72 324.161 1090.96 323.941 1091.19 323.711C1093.9 321.371 1096.52 320.291 1097.63 321.271C1098.74 322.251 1098.04 324.881 1096.13 327.781C1095.87 328.098 1095.64 328.432 1095.42 328.781C1095.37 328.844 1095.33 328.915 1095.3 328.991C1094.1 331.068 1093.68 333.508 1094.13 335.866C1094.58 338.224 1095.86 340.342 1097.74 341.834C1099.62 343.326 1101.97 344.092 1104.37 343.992C1106.77 343.892 1109.05 342.933 1110.8 341.29C1111.35 340.75 1111.8 340.29 1112.21 339.86C1112.62 339.43 1113.08 338.97 1113.5 338.5C1114.34 337.59 1115.16 336.68 1115.97 335.76C1116.78 334.84 1117.57 333.91 1118.36 332.98C1119.15 332.051 1119.94 331.121 1120.68 330.161C1122.18 328.251 1123.68 326.381 1125.13 324.411C1126.58 322.441 1128.04 320.551 1129.4 318.551C1132.16 314.598 1134.83 310.574 1137.39 306.481C1138.63 304.421 1139.94 302.391 1141.14 300.311L1144.71 294.032C1147.06 289.842 1149.33 285.612 1151.46 281.302C1152.52 279.152 1153.62 277.012 1154.64 274.852C1155.66 272.692 1156.64 270.482 1157.64 268.302C1159.64 263.962 1161.41 259.493 1163.19 255.053C1164.09 252.853 1164.89 250.573 1165.68 248.323C1166.47 246.073 1167.25 243.803 1168.02 241.543C1168.23 240.909 1168.23 240.22 1168.01 239.588C1167.79 238.955 1167.36 238.415 1166.8 238.053Z" fill="white"/>
<path d="M1133.91 247.204C1134.9 245.171 1136.01 243.195 1137.21 241.284C1138.41 239.364 1139.68 237.484 1140.98 235.624C1142.28 233.764 1143.65 231.934 1145.08 230.124C1146.53 228.27 1148.1 226.51 1149.77 224.854C1149.96 224.656 1150.21 224.526 1150.48 224.482C1150.75 224.439 1151.03 224.486 1151.27 224.615C1151.51 224.744 1151.71 224.948 1151.82 225.197C1151.94 225.446 1151.97 225.726 1151.91 225.994C1151.51 228.373 1150.85 230.702 1149.96 232.944C1149.11 235.158 1148.11 237.31 1146.96 239.384C1145.82 241.468 1144.55 243.472 1143.14 245.384C1141.73 247.338 1140.11 249.135 1138.31 250.744C1137.82 251.175 1137.2 251.423 1136.54 251.447C1135.89 251.471 1135.25 251.27 1134.73 250.876C1134.21 250.483 1133.84 249.922 1133.68 249.287C1133.53 248.653 1133.59 247.984 1133.87 247.394L1133.91 247.204Z" fill="white"/>
<path d="M1169.68 203.315C1170.32 201.156 1171.15 199.055 1172.15 197.035C1173.15 195.035 1174.15 193.035 1175.32 191.035C1176.5 189.035 1177.68 187.155 1179.02 185.265C1180.38 183.3 1181.9 181.456 1183.57 179.755C1183.73 179.599 1183.91 179.475 1184.11 179.391C1184.32 179.306 1184.53 179.263 1184.75 179.263C1184.97 179.263 1185.19 179.306 1185.39 179.391C1185.59 179.475 1185.78 179.599 1185.93 179.755C1186.09 179.904 1186.21 180.081 1186.29 180.276C1186.38 180.472 1186.42 180.682 1186.42 180.895C1186.44 183.353 1186.16 185.805 1185.59 188.195C1185.06 190.527 1184.33 192.808 1183.4 195.015C1182.5 197.224 1181.43 199.357 1180.19 201.395C1178.94 203.493 1177.44 205.425 1175.7 207.145C1175.12 207.708 1174.37 208.063 1173.57 208.157C1172.76 208.251 1171.95 208.077 1171.26 207.663C1170.56 207.249 1170.02 206.618 1169.72 205.867C1169.42 205.115 1169.37 204.285 1169.59 203.505L1169.68 203.315Z" fill="white"/>
<path d="M1238.11 205.075C1238.18 206.409 1238.14 207.747 1237.99 209.075C1237.85 210.363 1237.63 211.642 1237.34 212.905C1236.76 215.416 1235.94 217.867 1234.9 220.225C1233.88 222.589 1232.63 224.847 1231.16 226.965C1229.7 229.121 1227.96 231.068 1225.97 232.755C1225.75 232.944 1225.47 233.06 1225.17 233.086C1224.88 233.112 1224.58 233.047 1224.32 232.9C1224.07 232.753 1223.86 232.531 1223.73 232.264C1223.61 231.996 1223.57 231.697 1223.61 231.405V231.345C1224.06 228.805 1224.75 226.505 1225.37 224.195C1225.99 221.885 1226.68 219.645 1227.37 217.415L1229.44 210.755C1229.81 209.655 1230.16 208.555 1230.55 207.455C1230.94 206.355 1231.33 205.215 1231.76 204.265L1231.92 203.905C1232.22 203.248 1232.73 202.711 1233.37 202.378C1234.01 202.044 1234.75 201.935 1235.46 202.065C1236.17 202.196 1236.81 202.561 1237.29 203.1C1237.77 203.64 1238.05 204.324 1238.1 205.045L1238.11 205.075Z" fill="white"/>
<path d="M1204.06 308.66C1210.17 301.407 1214.19 294.733 1213.03 293.754C1211.87 292.775 1205.97 297.861 1199.85 305.115C1193.74 312.368 1189.72 319.042 1190.88 320.021C1192.04 321 1197.94 315.914 1204.06 308.66Z" fill="white"/>
<path d="M720.918 349.13L520.753 349.44L479.122 349.5H461.286H426.114L336.134 349.64H314.019H297.023L248.564 349.72L215.192 349.77L162.563 349.85C162.563 349.85 256.042 301.161 328.026 230.663C375.346 184.315 402.36 161.745 415.317 151.715C418.067 149.59 421.41 148.375 424.883 148.238C428.356 148.102 431.784 149.052 434.692 150.955C451.758 162.125 488.07 186.254 516.484 207.664C554.955 236.803 720.918 349.13 720.918 349.13Z" fill="#F7F8FA"/>
<path d="M426.804 165.936C426.804 167.696 426.644 169.446 426.514 171.206C426.384 172.966 426.254 174.705 426.104 176.455C425.954 178.205 425.684 179.945 425.434 181.685C425.184 183.425 424.974 185.185 424.665 186.925C424.005 190.385 423.335 193.865 422.505 197.305C420.829 204.227 418.691 211.028 416.106 217.664C414.837 221.014 413.377 224.314 411.897 227.574C411.158 229.224 410.288 230.814 409.488 232.424C408.688 234.034 407.838 235.644 406.928 237.214C403.392 243.593 399.322 249.661 394.761 255.353C392.492 258.223 390.032 260.973 387.483 263.623C384.933 266.273 382.204 268.783 379.355 271.153C373.673 275.943 367.428 280.023 360.759 283.302C357.391 284.926 353.905 286.294 350.331 287.392C348.529 287.934 346.7 288.384 344.852 288.742C343.923 288.922 342.973 289.062 342.023 289.182L340.563 289.342L338.974 289.452C338.241 289.506 337.509 289.348 336.864 288.998C336.218 288.648 335.686 288.12 335.332 287.477C334.977 286.834 334.814 286.103 334.863 285.37C334.911 284.637 335.169 283.933 335.605 283.342L336.604 281.982C336.835 281.717 337.082 281.467 337.344 281.232L337.494 281.102L338.234 280.402L338.464 280.192C338.984 279.712 339.464 279.192 339.994 278.732C340.134 278.602 340.283 278.462 340.413 278.322C345.492 273.093 348.032 268.033 346.302 265.863C344.083 263.113 335.814 266.053 327.696 272.453L325.147 274.593C321.261 277.833 317.292 281.066 313.24 284.292C277.738 312.672 243.085 335.521 215.192 349.9L162.563 349.98C162.563 349.98 256.042 301.292 328.026 230.794C375.346 184.445 402.36 161.876 415.317 151.846C418.096 149.696 421.483 148.478 424.994 148.366C426.266 150.408 426.829 152.812 426.594 155.206C426.594 155.206 426.594 155.306 426.594 155.346C426.824 158.886 426.844 162.406 426.804 165.936Z" fill="white"/>
<path d="M368.457 321.631C363.48 327.644 357.895 333.126 351.791 337.99L350.441 338.99L336.104 349.67H313.989C322.498 343.4 327.916 336.47 326.137 333.99C324.357 331.51 315.639 334.58 306.761 340.99C303.176 343.505 299.9 346.435 297.003 349.72L248.544 349.8C269.787 344.449 290.015 335.667 308.431 323.801C314.671 319.739 320.527 315.117 325.927 309.991C332.385 303.911 338.684 300.911 341.263 303.091C342.573 304.201 342.733 306.461 341.933 309.381C341.929 309.408 341.929 309.435 341.933 309.461C341.873 309.671 341.813 309.881 341.743 310.101C341.603 310.561 341.433 311.031 341.243 311.521C340.054 315.521 340.134 318.521 341.743 319.731C344.413 321.681 350.521 318.131 357.06 311.371V311.451L357.59 310.821C357.651 310.762 357.708 310.699 357.76 310.631C358.759 309.481 359.759 308.371 360.759 307.291L360.819 307.231C371.417 295.731 381.424 288.712 384.294 291.132C387.513 293.781 380.425 307.471 368.457 321.631Z" fill="white"/>
<path d="M415.496 251.413C415.676 250.963 415.986 250.413 416.226 249.863L416.996 248.243C417.486 247.153 417.996 246.083 418.506 244.983C419.016 243.883 419.506 242.803 419.955 241.693C420.405 240.583 420.905 239.503 421.355 238.393C423.175 233.983 424.874 229.563 426.434 225.083C427.144 222.813 427.974 220.603 428.644 218.313C428.993 217.184 429.383 216.064 429.753 214.924C430.123 213.784 430.423 212.644 430.753 211.504C431.543 209.234 432.123 206.914 432.933 204.614C433.742 202.314 434.352 199.964 435.332 197.614L435.442 197.374C435.804 196.509 436.444 195.79 437.261 195.329C438.078 194.869 439.025 194.693 439.952 194.831C440.88 194.968 441.735 195.411 442.383 196.089C443.031 196.767 443.434 197.641 443.53 198.574C443.66 199.894 443.71 201.214 443.75 202.574C443.79 203.934 443.82 205.224 443.75 206.574C443.68 207.924 443.55 209.204 443.42 210.514C443.34 211.174 443.28 211.834 443.19 212.514L442.85 214.464C442.62 215.764 442.36 217.063 442.101 218.363C441.841 219.663 441.441 220.923 441.101 222.193L440.561 224.103L439.901 225.893C439.461 227.143 439.011 228.383 438.521 229.613C436.531 234.549 434.038 239.267 431.083 243.693L429.903 245.343L428.704 246.943C427.904 248.003 427.044 249.033 426.154 250.033C425.724 250.543 425.254 251.033 424.794 251.522C424.335 252.012 423.875 252.522 423.375 252.952C422.875 253.382 422.375 253.892 421.875 254.342C421.375 254.792 420.875 255.202 420.205 255.702C419.646 256.129 418.963 256.361 418.26 256.363C417.557 256.365 416.872 256.137 416.311 255.712C415.75 255.288 415.343 254.692 415.152 254.015C414.962 253.338 414.999 252.617 415.257 251.962L415.496 251.413Z" fill="white"/>
<path d="M471.554 207.904C469.664 211.664 459.677 211.054 443.72 206.904C440.461 206.044 436.962 205.044 433.223 203.904C429.61 202.798 425.794 201.558 421.775 200.184C409.048 195.834 394.321 190.185 378.125 183.505C366.658 178.765 354.45 173.505 341.693 167.695L335.774 164.995L333.135 163.785C321.808 159.145 312.84 157.786 311.14 160.875C309.97 163.055 312.61 167.005 317.769 171.545L317.968 171.705C320.018 173.255 321.868 174.705 323.527 176.115C330.966 182.315 334.525 186.815 333.405 189.065C330.836 194.154 304.801 186.715 266.15 170.945C249.364 164.095 230.158 155.666 209.523 146.006C201.775 142.386 193.806 138.596 185.678 134.646C185.911 136.049 185.58 137.486 184.758 138.646C180.699 143.776 165.113 138.216 149.946 126.226C144.779 122.201 140.068 117.62 135.899 112.567C135.585 113.054 135.213 113.501 134.79 113.897C128.651 119.607 113.474 113.277 100.897 99.7572C100.217 99.0272 99.5676 98.2872 98.8978 97.5472C98.8333 99.746 97.928 101.836 96.3683 103.387C90.2397 109.097 75.0631 102.767 62.4759 89.2475C60.6056 87.2379 58.8499 85.1246 57.2171 82.9176C43.947 65.032 28.7859 48.6309 11.9973 33.999C5.92867 28.6792 3.0893 24.7893 4.11907 22.7493C4.78892 21.4194 7.1184 20.9394 10.7876 21.2494C11.6777 21.3124 12.5666 21.1098 13.3415 20.6672C14.1165 20.2247 14.7428 19.5621 15.141 18.7633C15.5392 17.9646 15.6915 17.0656 15.5786 16.1802C15.4657 15.2948 15.0927 14.4628 14.5067 13.7896L14.4368 13.7096C9.23792 9.11974 4.40901 4.51987 0 0H169.062C238.456 45.4287 321.758 105.587 321.758 105.587C355.52 123.206 385.863 140.506 410.288 155.806C416.14 159.465 421.638 163.005 426.784 166.425C457.217 186.635 474.513 201.994 471.554 207.904Z" fill="#EBECF2"/>
<path d="M490.46 319.131C488.36 322.131 486.111 325.071 483.801 327.951C481.492 330.831 478.962 333.521 476.363 336.15C473.764 338.78 471.134 341.39 468.285 343.78C466.875 345 465.485 346.23 464.036 347.4L461.276 349.53H426.104C428.104 348.53 430.043 347.53 432.013 346.53C434.932 344.92 437.862 343.3 440.741 341.53C442.201 340.7 443.61 339.76 445.05 338.87C446.49 337.98 447.929 337.1 449.329 336.14L453.588 333.32C454.998 332.321 456.377 331.321 457.787 330.381C460.636 328.481 463.356 326.381 466.195 324.381C467.625 323.381 468.975 322.381 470.364 321.291L474.583 318.201C477.383 316.101 480.142 313.951 483.111 311.961L483.321 311.821C484.321 311.143 485.527 310.836 486.73 310.955C487.932 311.073 489.055 311.609 489.903 312.469C490.752 313.33 491.272 314.46 491.373 315.664C491.475 316.869 491.152 318.07 490.46 319.061V319.131Z" fill="white"/>
<path d="M461.206 307.991C461.746 307.441 462.466 306.791 463.106 306.171L465.105 304.281L467.105 302.371C467.745 301.711 468.395 301.081 469.035 300.431C471.614 297.851 474.087 295.185 476.453 292.432C477.683 291.092 478.762 289.642 479.962 288.272C481.162 286.902 482.262 285.452 483.311 283.972C485.601 281.092 487.58 278.032 489.95 274.972L490.04 274.852C490.362 274.443 490.81 274.15 491.314 274.02C491.819 273.89 492.352 273.929 492.832 274.131C493.312 274.333 493.713 274.687 493.973 275.139C494.232 275.591 494.336 276.115 494.269 276.632C494.139 277.632 493.929 278.632 493.729 279.632C493.527 280.647 493.264 281.649 492.939 282.632L491.939 285.552C491.569 286.552 491.13 287.442 490.7 288.382C489.831 290.246 488.849 292.056 487.76 293.801C486.651 295.529 485.453 297.198 484.171 298.801C481.635 302.02 478.778 304.972 475.643 307.611C474.068 308.919 472.427 310.144 470.724 311.281C469.854 311.831 469.015 312.411 468.095 312.901C467.175 313.391 466.305 313.901 465.225 314.361C464.423 314.731 463.516 314.807 462.662 314.578C461.809 314.348 461.063 313.826 460.554 313.103C460.046 312.381 459.806 311.502 459.878 310.621C459.95 309.74 460.328 308.912 460.946 308.281L461.206 307.991Z" fill="white"/>
<path d="M498.028 291.333C498.308 289.443 498.708 287.413 499.028 285.473C499.348 283.533 499.717 281.563 500.027 279.603C500.337 277.643 500.567 275.693 500.797 273.723C501.027 271.753 501.187 269.783 501.507 267.723V267.623C501.557 267.316 501.704 267.033 501.927 266.816C502.15 266.599 502.437 266.46 502.745 266.418C503.053 266.377 503.366 266.435 503.638 266.586C503.91 266.736 504.127 266.97 504.256 267.253C505.162 269.307 505.746 271.49 505.986 273.723C506.231 275.929 506.231 278.156 505.986 280.363C505.778 282.559 505.367 284.732 504.756 286.853C504.167 289.003 503.321 291.074 502.237 293.023C501.97 293.485 501.551 293.841 501.051 294.028C500.551 294.215 500.001 294.222 499.496 294.048C498.991 293.875 498.563 293.53 498.284 293.075C498.005 292.62 497.893 292.081 497.968 291.553L498.028 291.333Z" fill="white"/>
<path d="M526.042 326.99C525.251 334.663 523.474 342.202 520.753 349.42L479.122 349.48L480.712 348.48C485.658 345.097 490.176 341.128 494.169 336.66C496.275 334.31 498.238 331.835 500.048 329.25C500.528 328.6 500.967 327.93 501.407 327.25L502.767 325.25C503.587 323.84 504.497 322.441 505.276 320.971C508.615 314.868 511.476 308.515 513.835 301.971L513.895 301.821C514.372 300.614 515.228 299.595 516.334 298.916C517.441 298.237 518.737 297.935 520.029 298.055C521.322 298.176 522.54 298.712 523.501 299.584C524.463 300.456 525.116 301.617 525.362 302.891C526.667 310.857 526.895 318.963 526.042 326.99Z" fill="white"/>
<path d="M1031.93 100.277C1033.41 100.277 1034.62 99.0731 1034.62 97.5875C1034.62 96.1018 1033.41 94.8975 1031.93 94.8975C1030.44 94.8975 1029.24 96.1018 1029.24 97.5875C1029.24 99.0731 1030.44 100.277 1031.93 100.277Z" fill="white"/>
<path d="M424.135 97.4972C425.62 97.4972 426.824 96.2928 426.824 94.8072C426.824 93.3215 425.62 92.1172 424.135 92.1172C422.649 92.1172 421.445 93.3215 421.445 94.8072C421.445 96.2928 422.649 97.4972 424.135 97.4972Z" fill="white"/>
<path d="M1107.77 24.9298C1109.26 24.9298 1110.46 23.7255 1110.46 22.2398C1110.46 20.7542 1109.26 19.5498 1107.77 19.5498C1106.28 19.5498 1105.08 20.7542 1105.08 22.2398C1105.08 23.7255 1106.28 24.9298 1107.77 24.9298Z" fill="white"/>
<path d="M1271.91 62.508C1272.97 62.508 1273.83 61.6484 1273.83 60.588C1273.83 59.5276 1272.97 58.668 1271.91 58.668C1270.85 58.668 1269.99 59.5276 1269.99 60.588C1269.99 61.6484 1270.85 62.508 1271.91 62.508Z" fill="white"/>
<path d="M507.746 148.365C508.807 148.365 509.666 147.506 509.666 146.445C509.666 145.385 508.807 144.525 507.746 144.525C506.686 144.525 505.826 145.385 505.826 146.445C505.826 147.506 506.686 148.365 507.746 148.365Z" fill="white"/>
<path d="M664.011 35.0099C665.071 35.0099 665.931 34.1503 665.931 33.0899C665.931 32.0295 665.071 31.1699 664.011 31.1699C662.951 31.1699 662.091 32.0295 662.091 33.0899C662.091 34.1503 662.951 35.0099 664.011 35.0099Z" fill="white"/>
<path d="M300.843 229.424C301.903 229.424 302.763 228.564 302.763 227.504C302.763 226.444 301.903 225.584 300.843 225.584C299.782 225.584 298.923 226.444 298.923 227.504C298.923 228.564 299.782 229.424 300.843 229.424Z" fill="white"/>
<path d="M927.761 47.088C928.821 47.088 929.681 46.2284 929.681 45.168C929.681 44.1077 928.821 43.248 927.761 43.248C926.7 43.248 925.841 44.1077 925.841 45.168C925.841 46.2284 926.7 47.088 927.761 47.088Z" fill="white"/>
<path d="M432.023 0L392.602 58.8083L369.857 61.4682V96.2472L368.397 99.0572C338.024 157.815 270.739 218.834 267.94 221.404L266.21 219.484V349.91H209.533V94.8073L136.719 72.8079V0H157.715V57.2084L209.533 72.8679V0H266.16V187.075C287.085 166.285 323.827 127.076 343.863 89.8674V0H369.857V50.3986L386.283 48.4686L418.776 0H432.023Z" fill="#EBECF2"/>
<path d="M507.853 50.0947C509.579 47.055 499.163 37.8768 484.587 29.5947C470.011 21.3126 456.795 17.0628 455.069 20.1025C453.342 23.1422 463.759 32.3204 478.335 40.6025C492.911 48.8846 506.126 53.1344 507.853 50.0947Z" fill="#F3F4F7"/>
<path d="M307.711 119.667C308.946 117.492 303.16 111.872 294.787 107.115C286.414 102.357 278.625 100.264 277.389 102.439C276.154 104.614 281.94 110.235 290.313 114.992C298.686 119.75 306.475 121.843 307.711 119.667Z" fill="#F3F4F7"/>
<path d="M117.834 30.51C112.285 36.33 90.0298 24.11 68.1147 3.21C66.995 2.14333 65.8985 1.07333 64.8254 0H104.816C116.204 14.2 121.783 26.37 117.834 30.51Z" fill="#F3F4F7"/>
<path d="M516.268 45.7018C518.11 42.7309 512.604 35.9803 503.971 30.6239C495.337 25.2674 486.844 23.3335 485.002 26.3044C483.16 29.2752 488.665 36.0259 497.299 41.3823C505.933 46.7388 514.425 48.6727 516.268 45.7018Z" fill="#F3F4F7"/>
<path d="M331.246 110.576C314.909 134.835 294.034 158.325 277.598 175.444C287.675 179.374 296.663 182.614 304.342 185.074C308.471 180.624 312.77 175.884 317.139 170.894C319.938 167.695 322.761 164.398 325.607 161.005C335.836 148.877 345.385 136.191 354.21 123.006C346.785 118.899 339.13 114.756 331.246 110.576Z" fill="#F3F4F7"/>
<path d="M266.16 65.5889V170.876C249.374 164.026 230.168 155.596 209.533 145.937V27C227.239 37.9997 251.024 56.0892 266.16 65.5889Z" fill="#F3F4F7"/>
<path d="M209.533 72.8679V94.8073L157.135 78.9977C151.232 77.2121 146.06 73.5745 142.384 68.6224C138.707 63.6703 136.721 57.6666 136.719 51.4985V0H157.715V44.5187C157.713 48.1891 158.894 51.7623 161.082 54.7089C163.27 57.6555 166.348 59.8188 169.862 60.8783L209.533 72.8679Z" fill="#F3F4F7"/>
<path d="M253.023 0V88.1975C253.022 92.2502 254.288 96.2019 256.643 99.4993C258.999 102.797 262.327 105.275 266.16 106.587" stroke="#F3F4F7" stroke-width="3" stroke-miterlimit="10"/>
<path d="M253.023 56.8184V88.1975C253.022 92.2502 254.288 96.2019 256.643 99.4993C258.999 102.797 262.327 105.275 266.16 106.587" stroke="#EBECF2" stroke-width="3" stroke-miterlimit="10"/>
<path d="M256.942 349.5V284.101C256.941 280.29 257.691 276.517 259.149 272.996C260.607 269.475 262.745 266.276 265.44 263.582V263.582" stroke="#F3F4F7" stroke-width="3" stroke-miterlimit="10"/>
<path d="M209.533 294.681C211.443 299.081 213.622 301.571 215.952 301.571C223.45 301.571 229.528 275.492 229.528 243.323C229.528 211.153 223.45 185.074 215.952 185.074C213.622 185.074 211.443 187.564 209.533 191.964" stroke="#F3F4F7" stroke-width="3" stroke-miterlimit="10"/>
<path d="M214.202 222.754V260.203" stroke="#F3F4F7" stroke-width="3" stroke-miterlimit="10" stroke-linecap="round"/>
<path d="M369.857 73.3785V80.2085C361.572 79.0139 353.356 77.385 345.242 75.3285L343.863 74.9985V64.7285C345.252 65.2685 346.642 65.7985 348.042 66.3185C355.18 68.9985 362.469 71.3885 369.857 73.3785Z" fill="#F3F4F7"/>
<path d="M426.784 166.425C426.734 168.015 426.634 169.605 426.514 171.205C426.414 172.955 426.254 174.705 426.104 176.455C425.954 178.205 425.684 179.945 425.434 181.685C425.184 183.425 424.974 185.185 424.665 186.925C424.005 190.385 423.335 193.865 422.505 197.304C422.265 198.244 422.025 199.184 421.775 200.124C409.048 195.775 394.321 190.125 378.125 183.445C392.332 170.625 402.859 161.775 410.288 155.806C416.14 159.466 421.639 163.005 426.784 166.425Z" fill="#F3F4F7"/>
<path d="M443.75 206.514V206.854C440.491 205.994 436.992 204.994 433.252 203.854C433.902 201.794 434.532 199.714 435.402 197.644L435.512 197.404C435.874 196.54 436.514 195.82 437.331 195.359C438.148 194.899 439.095 194.724 440.022 194.861C440.95 194.999 441.805 195.441 442.453 196.119C443.101 196.797 443.504 197.672 443.6 198.604C443.73 199.924 443.78 201.244 443.82 202.604C443.86 203.964 443.9 205.204 443.75 206.514Z" fill="#F3F4F7"/>
</svg>
