<svg width="1920" height="350" viewBox="0 0 1920 350" fill="none" xmlns="http://www.w3.org/2000/svg">
<mask id="mask0" mask-type="alpha" maskUnits="userSpaceOnUse" x="0" y="0" width="1920" height="350">
<path d="M0 0H1920V350H0V0Z" fill="#F9FAFB"/>
</mask>
<g mask="url(#mask0)">
<path d="M186.819 43.6874C195.22 63.0819 220.323 123.365 237.525 186.147C238.925 191.045 235.824 196.144 230.724 197.243L123.513 219.837C119.012 220.837 114.512 218.137 113.212 213.739L68.407 68.2804C66.8068 63.1818 70.1072 57.8833 75.3077 56.8836L177.018 38.4889C181.119 37.7891 185.219 39.8885 186.819 43.6874Z" fill="#E9EBF2"/>
<path d="M161.717 46.0865L97.5101 58.6829L95.1099 51.4849C94.1098 48.4858 96.01 45.1867 99.1103 44.5869L152.816 34.0899C155.416 33.5901 158.016 35.0896 158.817 37.5889L161.717 46.0865Z" fill="#E9EBF2"/>
<path d="M144.915 40.3867L109.211 48.0845L107.711 41.1865C106.411 35.1882 110.211 29.3899 116.212 28.0903L130.313 24.9911C136.314 23.6915 142.115 27.4904 143.415 33.4887L144.915 40.3867Z" stroke="#E9EBF2" stroke-width="5" stroke-miterlimit="10" stroke-linecap="round" stroke-linejoin="round"/>
<path d="M661.67 350H62.9072C62.9072 350 76.2086 320.009 105.512 294.616C135.215 268.824 181.42 247.83 247.026 267.624C247.526 267.824 248.027 267.924 248.527 268.124C378.94 307.712 462.349 337.804 661.67 350Z" fill="#F3F4F7"/>
<path d="M192.521 250.028L282.53 243.43C282.53 243.43 307.232 326.206 339.336 349.999H227.324C227.324 349.999 195.621 288.817 192.521 250.028Z" fill="white"/>
<path d="M838.487 0.5C838.487 0.5 955.699 80.3771 1080.81 86.2754C1234.73 93.4733 1478.85 11.7968 1663.17 0.5H838.487Z" fill="#F3F4F7"/>
<path d="M1840.99 349.999H935.098C935.098 349.999 1264.13 282.118 1424.85 254.226C1503.96 240.53 1587.77 236.731 1661.47 249.727C1704.58 257.225 1744.18 270.521 1777.49 290.816C1802.79 306.211 1824.39 325.806 1840.99 349.999Z" fill="#F3F4F7"/>
<path d="M264.328 323.207C261.427 323.707 255.827 323.207 249.326 315.509C239.625 304.013 217.623 296.615 176.219 315.109C134.814 333.604 118.113 330.505 111.512 315.109L63.0068 149.457C63.0068 149.457 113.212 119.666 164.917 120.665C175.319 120.865 185.82 122.265 196.021 125.464C199.521 126.564 202.321 129.363 203.521 132.862L210.922 155.255L265.828 320.608C266.228 321.708 265.528 322.907 264.328 323.207Z" fill="#F2F3F6"/>
<path d="M264.327 323.208C261.427 323.707 255.826 323.208 249.326 315.51C239.625 304.013 217.622 296.615 176.218 315.11C134.814 333.605 118.112 330.506 111.511 315.11L105.511 294.716C135.214 268.923 181.419 247.929 247.025 267.724C247.526 267.923 248.026 268.023 248.526 268.223L265.927 320.708C266.227 321.708 265.527 322.908 264.327 323.208Z" fill="#F9FAFB"/>
<path d="M111.411 315.009C111.411 315.009 107.711 302.313 123.113 297.514C138.514 292.716 161.517 288.517 156.216 270.422L148.415 249.328L96.0098 262.224L111.411 315.009Z" fill="#E9EBF2"/>
<path d="M0 115.965C0 115.965 49.5052 88.0733 95.3099 85.3741C99.3103 85.1741 103.011 87.7734 104.111 91.5723L156.316 270.421C153.916 262.123 145.315 257.225 136.914 259.524C120.113 264.023 89.1093 274.32 42.0044 297.513L0 115.965Z" fill="#F9FAFB"/>
<path d="M19.8025 129.062C25.8031 126.663 31.7038 124.664 37.7044 122.664C43.705 120.765 49.7056 118.965 55.8063 117.366C61.9069 115.766 68.0075 114.367 74.2082 113.167C80.4088 111.967 86.6095 111.068 92.9101 110.368C94.0102 110.268 95.0104 111.068 95.1104 112.167C95.2104 113.267 94.5103 114.167 93.5102 114.367H93.4102C87.3095 115.366 81.3089 116.566 75.3083 118.066C69.3077 119.565 63.4071 121.265 57.5064 123.164C51.6058 125.064 45.8052 127.163 40.0046 129.362C34.304 131.562 28.5034 133.961 23.0029 136.46H22.9028C20.9026 137.36 18.5024 136.46 17.6023 134.461C16.7022 132.461 17.6023 130.062 19.6025 129.162C19.7025 129.062 19.8025 129.062 19.8025 129.062Z" fill="white"/>
<path d="M28.003 159.256C34.0036 156.757 39.8042 154.557 45.9048 152.458C51.9055 150.358 57.9061 148.559 64.0067 146.859C70.1074 145.16 76.308 143.66 82.5087 142.361C88.7093 141.061 95.01 140.161 101.311 139.462C102.411 139.362 103.411 140.161 103.511 141.261C103.611 142.361 102.911 143.26 101.911 143.46H101.811C95.71 144.46 89.6094 145.76 83.6088 147.259C77.6081 148.859 71.6075 150.558 65.8069 152.558C59.9063 154.557 54.1057 156.657 48.4051 159.056C42.7045 161.355 36.9039 163.855 31.5033 166.554H31.4033C29.4031 167.554 27.0029 166.654 26.1028 164.754C25.2027 162.855 26.0028 160.356 27.903 159.456C27.803 159.356 27.903 159.356 28.003 159.256Z" fill="white"/>
<path d="M36.4043 193.345C42.3049 190.546 48.2055 188.146 54.2061 185.847C60.2068 183.548 66.2074 181.548 72.308 179.649C78.4086 177.749 84.6093 176.15 90.8099 174.75C97.0106 173.351 103.411 172.351 109.712 171.651C110.812 171.551 111.812 172.351 111.912 173.45C112.012 174.55 111.312 175.45 110.312 175.65H110.212C104.111 176.75 98.0107 177.949 91.9101 179.649C85.9094 181.348 79.9088 183.148 74.1082 185.347C68.2076 187.446 62.407 189.846 56.7064 192.345C51.0058 194.844 45.3052 197.544 39.9046 200.443H39.8046C37.9044 201.442 35.4042 200.743 34.4041 198.843C33.404 196.944 34.104 194.444 36.0042 193.445C36.3043 193.345 36.3043 193.345 36.4043 193.345Z" fill="white"/>
<path d="M44.1041 225.234C50.0047 222.535 55.9053 220.136 61.906 217.836C67.9066 215.637 73.9072 213.538 80.0079 211.738C86.1085 209.839 92.3091 208.339 98.5098 206.94C104.71 205.54 111.111 204.54 117.412 203.84C118.512 203.74 119.512 204.54 119.612 205.64C119.712 206.74 119.012 207.639 118.012 207.839H117.912C111.811 208.839 105.711 210.139 99.7099 211.838C93.7093 213.538 87.7087 215.337 81.9081 217.437C76.0074 219.536 70.2068 221.835 64.5062 224.335C58.8057 226.834 53.1051 229.533 47.7045 232.332H47.6045C45.7043 233.332 43.204 232.632 42.2039 230.633C41.2038 228.733 41.9039 226.234 43.9041 225.234C43.9041 225.334 44.0041 225.234 44.1041 225.234Z" fill="white"/>
<path d="M53.9056 258.325C59.8062 255.426 65.7068 253.027 71.6074 250.628C77.6081 248.328 83.6087 246.129 89.7093 244.23C95.81 242.23 102.011 240.631 108.311 239.231C114.612 237.831 120.913 236.832 127.313 236.032C128.413 235.932 129.413 236.732 129.513 237.831C129.613 238.931 128.913 239.831 127.913 240.031H127.813C121.613 241.13 115.512 242.33 109.511 244.13C103.511 245.829 97.5101 247.729 91.7095 249.928C85.8089 252.127 80.0083 254.527 74.3077 257.026C68.6071 259.625 62.9065 262.324 57.606 265.323H57.506C55.6058 266.423 53.1055 265.723 52.1054 263.724C51.0053 261.824 51.7054 259.325 53.7056 258.325C53.8056 258.325 53.9056 258.325 53.9056 258.325Z" fill="white"/>
<path d="M222.923 99.473C211.322 102.172 191.42 97.7734 191.42 97.7734C191.42 97.7734 174.618 109.27 162.917 111.17C162.917 111.17 168.018 155.557 203.721 160.355C203.721 160.355 203.721 160.355 203.821 160.355H203.921C234.924 142.461 222.923 99.473 222.923 99.473Z" fill="#F2F3F6"/>
<path d="M210.922 155.255C208.822 157.154 206.522 158.853 203.821 160.353H203.721H203.621C178.419 156.954 168.518 133.861 164.817 120.564C175.218 120.764 185.72 122.164 195.921 125.363C199.421 126.463 202.221 129.262 203.421 132.761L210.922 155.255Z" fill="white"/>
<path d="M233.324 231.734L231.724 227.935C231.624 227.635 231.324 227.436 230.924 227.336L197.521 224.936C197.121 224.936 196.821 224.636 196.721 224.336C195.621 221.337 192.92 219.338 189.82 219.138L170.818 217.738C170.218 217.738 169.718 218.338 169.918 218.938L185.619 269.024C185.719 269.423 186.02 269.623 186.42 269.623L234.325 272.523C234.825 272.523 235.325 272.123 235.325 271.523L233.524 232.034C233.424 231.934 233.424 231.834 233.324 231.734Z" fill="#FFBF00"/>
<path d="M239.425 232.232C231.324 231.732 206.221 230.233 196.42 229.633C194.42 229.533 192.82 231.233 193.12 233.232C194.22 240.83 195.82 257.925 189.42 265.423C188.419 266.622 188.019 268.322 188.719 269.722V269.822L223.123 270.221C223.123 270.221 246.926 267.822 242.325 235.032C242.125 233.432 240.925 232.332 239.425 232.232Z" fill="#000D1A"/>
<path d="M251.226 238.431L206.522 235.731C204.821 235.631 203.321 237.131 203.521 238.83C204.321 247.428 204.721 269.622 188.72 269.722L235.325 272.521C235.325 272.521 258.627 273.72 253.827 240.83C253.626 239.63 252.526 238.53 251.226 238.431Z" fill="#FFBF00"/>
<path d="M149.016 136.561L137.215 137.961L130.714 84.2761C130.314 80.977 132.614 78.0778 135.915 77.678C139.215 77.2781 142.115 79.5774 142.515 82.8765L149.016 136.561Z" fill="#4CC3FF"/>
<path d="M130.77 84.5273L126.005 85.1055L127.463 97.1137L132.228 96.5355L130.77 84.5273Z" fill="#000D1A"/>
<path d="M126.013 85.0762L129.413 113.168C126.513 113.568 123.913 111.469 123.513 108.569L121.413 90.8745C121.013 88.0753 123.113 85.3761 126.013 85.0762Z" fill="#000D1A"/>
<path d="M144.516 148.657L137.215 137.96L149.016 136.561L144.516 148.657Z" fill="#000D1A"/>
<path d="M1844.79 319.907C1844.79 319.907 1871.49 333.703 1920 230.133H1846.49C1846.49 230.133 1814.29 310.71 1844.79 319.907Z" fill="#E9EBF2"/>
<path d="M1844.79 319.91H1706.48C1706.48 319.91 1689.08 307.113 1706.18 260.127C1706.28 259.927 1706.38 259.627 1706.48 259.427C1723.98 211.841 1736.18 193.846 1736.18 193.846L1874.89 203.043C1874.89 203.043 1843.99 260.227 1838.09 287.419C1832.29 314.511 1841.09 318.21 1844.79 319.91Z" fill="#F2F3F6"/>
<path d="M1885.3 149.657C1881.7 156.855 1874.5 167.751 1866.89 178.648C1854.19 196.843 1840.49 214.838 1840.49 214.838L1810.19 214.338L1691.98 212.339C1691.98 212.339 1685.28 189.745 1703.28 172.25C1721.28 154.755 1731.68 118.766 1731.68 118.766C1731.68 118.766 1879.1 114.567 1887 117.466C1895 120.365 1896 128.363 1885.3 149.657Z" fill="#F2F3F6"/>
<path d="M1840.59 108.369C1840.59 108.369 1871.59 110.269 1887.1 117.467C1887.1 117.467 1878.1 114.567 1870.29 123.665C1862.49 132.762 1850.89 143.059 1842.99 131.163C1835.09 119.266 1840.59 108.369 1840.59 108.369Z" fill="#E9EBF2"/>
<path d="M1839.59 116.567C1838.89 127.164 1843.89 132.762 1846.79 135.161C1847.89 136.061 1848.79 136.561 1848.79 136.561C1797.69 137.96 1754.18 136.361 1726.18 134.761C1704.68 133.462 1692.18 132.162 1692.18 132.162C1677.48 109.868 1695.48 83.1761 1713.98 57.2836C1719.78 49.2859 1725.58 41.2882 1730.48 33.4904C1737.98 21.5938 1743.38 10.297 1743.08 0H1885.9C1885.9 23.8931 1869.6 56.8837 1848.89 91.2738C1844.99 97.7719 1842.59 103.37 1841.19 108.269C1840.19 111.368 1839.69 114.067 1839.59 116.567Z" fill="#F2F3F6"/>
<path d="M1801.96 76.9048C1810.68 69.0019 1812.47 56.7943 1805.98 49.6385C1799.48 42.4827 1787.15 43.0883 1778.44 50.9913C1769.73 58.8942 1767.93 71.1017 1774.43 78.2576C1780.92 85.4134 1793.25 84.8077 1801.96 76.9048Z" fill="#E9EBF2"/>
<path d="M1803.49 27.8926L1790.19 63.9822L1754.58 59.9834C1754.18 61.283 1753.88 62.6826 1753.58 63.9822C1749.68 84.1764 1762.88 100.672 1783.09 100.672C1803.29 100.672 1822.99 84.2764 1826.89 63.9822C1830.39 45.8874 1820.19 30.8917 1803.49 27.8926Z" fill="#F9FAFB"/>
<path d="M1810.03 85.7896C1824.71 72.4696 1827.74 51.8929 1816.79 39.8302C1805.84 27.7676 1785.06 28.7868 1770.38 42.1067C1755.69 55.4267 1752.66 76.0034 1763.61 88.066C1774.56 100.129 1795.34 99.1095 1810.03 85.7896Z" stroke="#F9FAFB" stroke-width="2" stroke-miterlimit="10"/>
<path d="M1779.07 47.2931C1780.34 46.1428 1780.59 44.3484 1779.62 43.2851C1778.66 42.2219 1776.85 42.2924 1775.58 43.4427C1774.31 44.5929 1774.06 46.3873 1775.03 47.4506C1775.99 48.5139 1777.81 48.4434 1779.07 47.2931Z" fill="#E9EBF2"/>
<path d="M1777.29 45.4863H1726.38" stroke="#E9EBF2" stroke-width="2" stroke-miterlimit="10"/>
<path d="M1736.18 33.5898H1689.28V57.283H1736.18V33.5898Z" fill="#F2F3F6"/>
<path d="M1736.18 33.5898V57.383H1713.88C1719.68 49.3853 1725.48 41.3876 1730.38 33.5898H1736.18Z" fill="#E9EBF2"/>
<path d="M1729.08 152.556C1728.38 153.355 1727.58 154.055 1726.68 154.555C1725.18 155.355 1723.58 155.855 1721.78 155.855H1680.67C1680.67 155.855 1686.08 150.456 1691.08 141.359C1696.38 131.862 1701.28 118.465 1699.28 103.27C1699.28 103.27 1724.48 104.07 1742.18 103.27C1742.18 103.17 1746.68 132.461 1729.08 152.556Z" fill="#FFBF00"/>
<path d="M1726.68 154.456C1725.18 155.256 1723.58 155.756 1721.78 155.756H1680.67C1677.27 155.756 1673.17 147.758 1678.47 141.26H1721.08C1718.58 145.758 1720.18 156.755 1726.68 154.456Z" fill="#000D1A"/>
<path d="M1835.59 176.049C1835.59 176.049 1808.59 206.44 1797.89 249.628C1797.89 249.628 1839.89 249.928 1866.59 253.127C1866.59 253.127 1880.5 212.838 1901.1 180.648C1901.1 180.548 1848.49 177.848 1835.59 176.049Z" fill="white"/>
<path d="M1866.89 178.648C1854.19 196.843 1840.49 214.838 1840.49 214.838L1810.89 214.338C1821.49 190.745 1835.59 176.049 1835.59 176.049C1841.39 176.849 1852.69 177.848 1866.89 178.648Z" fill="#E9EBF2"/>
<path d="M1866.89 178.648C1861.19 186.746 1855.29 194.844 1850.59 201.342L1874.9 202.941C1874.9 202.941 1861.79 227.135 1851.09 251.528C1856.59 251.927 1861.89 252.427 1866.69 253.027C1866.69 253.027 1880.6 212.739 1901.2 180.548C1901.1 180.548 1884.2 179.748 1866.89 178.648Z" fill="#F2F3F6"/>
<path d="M1713.88 192.846L1800.69 193.746" stroke="white" stroke-width="4" stroke-miterlimit="10" stroke-linecap="round" stroke-linejoin="round"/>
<path d="M1724.58 175.049L1811.49 176.049" stroke="white" stroke-width="4" stroke-miterlimit="10" stroke-linecap="round" stroke-linejoin="round"/>
<path d="M1738.08 157.756L1824.89 158.656" stroke="white" stroke-width="4" stroke-miterlimit="10" stroke-linecap="round" stroke-linejoin="round"/>
<path d="M1788.69 257.127L1756.78 246.43C1755.48 246.03 1755.38 244.331 1756.48 243.631C1759.08 242.031 1763.08 239.332 1767.38 235.433C1774.78 228.735 1782.89 218.638 1785.99 205.142C1786.19 204.242 1787.19 203.742 1788.09 204.042C1793.39 205.942 1810.19 212.04 1823.59 215.939C1824.49 216.239 1824.99 217.139 1824.59 218.038C1821.69 224.836 1809.79 251.129 1793.39 257.127C1791.79 257.627 1790.19 257.627 1788.69 257.127Z" fill="#000D1A"/>
<path d="M1785.89 253.428L1753.98 242.731C1752.68 242.331 1752.58 240.631 1753.68 239.932C1756.28 238.332 1760.28 235.633 1764.58 231.734C1771.98 225.036 1780.09 214.939 1783.19 201.443C1783.39 200.543 1784.39 200.043 1785.29 200.343C1790.59 202.243 1807.39 208.341 1820.79 212.24C1821.69 212.54 1822.19 213.439 1821.79 214.339C1818.89 221.137 1806.99 247.43 1790.59 253.428C1788.99 253.928 1787.39 253.928 1785.89 253.428Z" fill="#4CC3FF"/>
<path d="M1787.99 202.542C1785.99 207.941 1780.99 218.538 1770.88 220.837C1770.88 220.837 1774.99 221.837 1777.89 221.437L1778.09 225.436C1778.09 225.436 1789.09 220.337 1795.39 201.443L1792.29 200.443C1790.59 199.843 1788.59 200.743 1787.99 202.542Z" fill="#000D1A"/>
<path d="M1795.39 201.441L1797.59 202.141C1798.89 202.541 1799.59 203.941 1799.19 205.24L1794.29 203.441L1795.39 201.441Z" fill="#000D1A"/>
<path d="M1815.39 319.908H1706.48C1706.48 319.908 1689.08 307.112 1706.18 260.125C1731.98 267.723 1755.98 277.82 1777.38 290.816C1791.29 299.214 1803.99 308.911 1815.39 319.908Z" fill="white"/>
</g>
</svg>
