<svg width="1920" height="400" viewBox="0 0 1920 400" fill="none" xmlns="http://www.w3.org/2000/svg">
<path d="M158.84 93.6301C167.21 113.06 192.313 173.38 209.525 236.14C209.844 237.312 209.92 238.536 209.749 239.739C209.578 240.941 209.164 242.096 208.531 243.132C207.898 244.169 207.06 245.065 206.068 245.766C205.077 246.467 203.952 246.959 202.764 247.21L95.5531 269.81C93.3776 270.27 91.1087 269.899 89.193 268.77C87.2773 267.641 85.8536 265.836 85.2021 263.71L40.4376 118.21C40.0667 117.007 39.9555 115.738 40.1114 114.488C40.2672 113.239 40.6865 112.036 41.3416 110.961C41.9967 109.885 42.8727 108.961 43.9116 108.248C44.9504 107.536 46.1286 107.053 47.3683 106.83L149.079 88.4001C151.057 88.0393 153.1 88.3601 154.873 89.31C156.646 90.2599 158.044 91.7829 158.84 93.6301Z" fill="#EAEBF0"/>
<path d="M133.696 95.9999L69.5299 108.59L67.1297 101.36C66.8926 100.646 66.8101 99.8905 66.8876 99.1426C66.9651 98.3947 67.2009 97.6719 67.5792 97.0221C67.9576 96.3723 68.4699 95.8105 69.0821 95.3739C69.6944 94.9373 70.3925 94.636 71.1301 94.4899L124.826 83.9999C126.082 83.7622 127.383 83.9878 128.486 84.635C129.589 85.2821 130.42 86.307 130.826 87.5199L133.696 95.9999Z" fill="#EAEBF0"/>
<path d="M88.1805 78.0376L102.315 74.9819C105.167 74.3654 108.147 74.9069 110.6 76.4872C113.052 78.0676 114.776 80.5574 115.393 83.4089L116.883 90.2997L81.2036 98.013L79.722 91.1613C79.4101 89.744 79.3818 88.2789 79.6388 86.8505C79.8957 85.4221 80.4327 84.0587 81.219 82.8388C82.0052 81.6189 83.0251 80.5666 84.2199 79.7426C85.4147 78.9186 86.7608 78.3392 88.1805 78.0376Z" stroke="#EAEBF0" stroke-width="5" stroke-linecap="round" stroke-linejoin="round"/>
<path d="M633.616 400H34.8555C34.8555 400 48.1468 370 77.4498 344.57C107.173 318.78 153.387 297.74 218.914 317.57L220.394 318.02C350.887 357.66 434.346 387.77 633.616 400Z" fill="#F3F4F7"/>
<path d="M164.549 300L254.558 293.39C254.558 293.39 279.24 376.22 311.394 400H199.382C199.382 400 167.629 338.79 164.549 300Z" fill="white"/>
<path d="M780.082 0C780.082 0 907.275 86.71 1043.11 93.1C1210.13 101 1475.15 12.28 1675.17 0H780.082Z" fill="#F3F4F7"/>
<path d="M1907.2 400H947.1C947.1 400 1295.86 328.05 1466.15 298.5C1550.01 283.94 1638.83 279.98 1716.94 293.68C1762.62 301.68 1804.65 315.68 1839.88 337.22C1866.7 353.61 1889.6 374.32 1907.2 400Z" fill="#F3F4F7"/>
<path d="M1868.72 337.22C1868.72 337.22 1896.91 351.75 1948 242.54H1870.48C1870.48 242.54 1836.57 327.53 1868.72 337.22Z" fill="#EAEBF0"/>
<path d="M1900.44 213.91C1900.44 213.91 1867.83 274.24 1861.67 302.91C1855.51 331.58 1864.76 335.5 1868.67 337.26H1722.95C1722.95 337.26 1704.45 323.61 1722.95 273.4C1741.45 223.19 1754.18 204.23 1754.18 204.23L1900.44 213.91Z" fill="#F2F3F6"/>
<path d="M236.306 373.16C233.406 373.66 227.845 373.16 221.305 365.42C211.614 353.97 189.591 346.48 148.197 364.98C106.803 383.48 90.0614 380.39 83.4508 364.98L35.0059 199.4C35.0059 199.4 85.1709 169.59 136.936 170.56C147.474 170.673 157.942 172.296 168.019 175.38C169.766 175.931 171.357 176.888 172.662 178.173C173.968 179.457 174.95 181.033 175.53 182.77L182.961 205.18L237.846 370.56C237.937 370.832 237.968 371.12 237.938 371.405C237.907 371.69 237.816 371.965 237.67 372.211C237.524 372.458 237.326 372.67 237.091 372.834C236.856 372.997 236.588 373.109 236.306 373.16Z" fill="#F2F3F6"/>
<path d="M236.307 373.16C233.407 373.66 227.846 373.16 221.306 365.42C211.615 353.97 189.593 346.48 148.198 364.98C106.804 383.48 90.0624 380.39 83.4518 364.98L77.4512 344.57C107.174 318.78 153.389 297.74 218.915 317.57L220.396 318.02L237.817 370.52C237.915 370.792 237.952 371.082 237.927 371.37C237.902 371.658 237.814 371.937 237.671 372.188C237.527 372.439 237.331 372.656 237.096 372.824C236.86 372.992 236.591 373.106 236.307 373.16Z" fill="#F9FAFB"/>
<path d="M83.4213 365C83.4213 365 79.6809 352.3 95.0925 347.53C110.504 342.76 133.476 338.53 128.216 320.46L120.415 299.38L68.0098 312.2L83.4213 365Z" fill="#EAEBF0"/>
<path d="M-28 165.93C-28 165.93 21.485 138 67.2696 135.31C69.222 135.203 71.1529 135.761 72.7475 136.892C74.3421 138.024 75.5064 139.662 76.0505 141.54L128.216 320.44C127.053 316.444 124.37 313.064 120.742 311.024C117.115 308.985 112.832 308.448 108.814 309.53C92.0422 314.02 61.059 324.34 13.8942 347.53L-28 165.93Z" fill="#F9FAFB"/>
<path d="M-8.15741 179C-2.15681 176.62 3.72379 174.56 9.7444 172.6C15.765 170.64 21.7456 168.89 27.8762 167.27C34.0069 165.65 40.1175 164.27 46.2981 163.03C52.4787 161.79 58.7393 160.9 65 160.18C65.2627 160.142 65.5301 160.157 65.7871 160.223C66.0441 160.289 66.2856 160.405 66.4978 160.564C66.71 160.723 66.8888 160.923 67.0239 161.151C67.159 161.38 67.2478 161.632 67.2852 161.895C67.3227 162.158 67.308 162.425 67.242 162.682C67.1761 162.939 67.0602 163.18 66.9009 163.393C66.7417 163.605 66.5421 163.783 66.3138 163.919C66.0854 164.054 65.8327 164.142 65.57 164.18C59.4794 165.18 53.4188 166.4 47.4282 167.93C41.4376 169.46 35.437 171.08 29.5564 173C23.6758 174.92 17.8352 177 12.0646 179.17C6.29405 181.34 0.543468 183.76 -4.93709 186.28H-5.00709C-5.48937 186.558 -6.02447 186.733 -6.57814 186.793C-7.13182 186.852 -7.69187 186.796 -8.22246 186.627C-8.75304 186.458 -9.24246 186.18 -9.65939 185.811C-10.0763 185.441 -10.4116 184.989 -10.6437 184.483C-10.8758 183.977 -10.9997 183.428 -11.0074 182.871C-11.0151 182.314 -10.9065 181.762 -10.6885 181.25C-10.4704 180.737 -10.1478 180.276 -9.74123 179.896C-9.33467 179.515 -8.85313 179.224 -8.32743 179.04L-8.15741 179Z" fill="white"/>
<path d="M0.00257277 209.25C6.00318 206.72 11.8538 204.54 17.8544 202.46C23.855 200.38 29.8556 198.52 35.9962 196.81C42.1368 195.1 48.2575 193.62 54.4581 192.34C60.6587 191.06 66.9393 190.12 73.24 189.34C73.7705 189.264 74.3092 189.403 74.7378 189.724C75.1664 190.046 75.4496 190.525 75.5252 191.055C75.6008 191.585 75.4626 192.124 75.1409 192.553C74.8192 192.981 74.3405 193.264 73.81 193.34H73.76C67.6494 194.34 61.5788 195.6 55.5782 197.18C49.5776 198.76 43.577 200.5 37.7464 202.51C31.9158 204.52 26.0052 206.67 20.2546 209C14.504 211.33 8.78346 213.83 3.33291 216.47H3.2529C2.31792 216.827 1.28293 216.821 0.352238 216.453C-0.578452 216.085 -1.33722 215.381 -1.77428 214.48C-2.21134 213.58 -2.29493 212.548 -2.00857 211.589C-1.7222 210.63 -1.08668 209.813 -0.22745 209.3L0.00257277 209.25Z" fill="white"/>
<path d="M8.41464 243.29C14.3452 240.51 20.1858 238.11 26.1864 235.82C32.187 233.53 38.1876 231.49 44.3183 229.62C50.4489 227.75 56.6195 226.14 62.8601 224.74C69.1119 223.37 75.4312 222.328 81.7921 221.62C82.2978 221.582 82.7992 221.737 83.1949 222.054C83.5906 222.371 83.851 222.827 83.9234 223.329C83.9959 223.831 83.8749 224.341 83.5851 224.757C83.2952 225.173 82.8581 225.464 82.3621 225.57H82.3021C76.1503 226.589 70.0549 227.925 64.0403 229.57C58.0397 231.25 52.0391 233.1 46.2085 235.27C40.3779 237.44 34.5373 239.74 28.8267 242.27C23.1161 244.8 17.4255 247.49 12.055 250.36H11.985C11.522 250.683 10.996 250.904 10.4413 251.01C9.88668 251.115 9.31605 251.101 8.76695 250.97C8.21784 250.839 7.70269 250.594 7.25537 250.249C6.80804 249.905 6.43867 249.47 6.17154 248.973C5.9044 248.475 5.74555 247.927 5.70543 247.364C5.66531 246.801 5.74482 246.236 5.93874 245.706C6.13266 245.176 6.4366 244.693 6.83058 244.288C7.22455 243.884 7.69965 243.568 8.22462 243.36L8.41464 243.29Z" fill="white"/>
<path d="M16.0743 275.22C22.0149 272.48 27.8655 270.12 33.8661 267.86C39.8667 265.6 45.8673 263.59 51.998 261.74C58.1286 259.89 64.2892 258.31 70.5198 256.93C76.7675 255.581 83.0796 254.549 89.4318 253.84C89.9622 253.763 90.5016 253.9 90.9311 254.22C91.3606 254.541 91.6451 255.019 91.722 255.55C91.7989 256.08 91.6619 256.619 91.3412 257.049C91.0205 257.478 90.5423 257.763 90.0118 257.84H89.9518C83.8039 258.863 77.7121 260.198 71.7 261.84C65.6993 263.51 59.6987 265.34 53.8681 267.49C48.0376 269.64 42.197 271.9 36.4764 274.39C30.7558 276.88 25.0652 279.55 19.6847 282.39H19.6047C18.683 282.772 17.6518 282.796 16.7134 282.457C15.775 282.118 14.9972 281.44 14.5325 280.557C14.0679 279.675 13.95 278.65 14.2019 277.685C14.4538 276.719 15.0575 275.883 15.8943 275.34L16.0743 275.22Z" fill="white"/>
<path d="M25.9261 308.28C31.8467 305.43 37.6773 302.96 43.6679 300.61C49.6585 298.26 55.6691 296.16 61.7997 294.24C67.9303 292.32 74.1109 290.67 80.3616 289.24C86.6338 287.84 92.977 286.778 99.3635 286.06C99.894 285.983 100.433 286.12 100.863 286.441C101.292 286.761 101.577 287.24 101.654 287.77C101.731 288.3 101.594 288.84 101.273 289.269C100.952 289.699 100.474 289.983 99.9436 290.06H99.8835C93.7178 291.08 87.6116 292.432 81.5917 294.11C75.5911 295.82 69.5905 297.71 63.7499 299.93C57.9093 302.15 52.0787 304.47 46.3781 307C40.6776 309.53 35.007 312.39 29.6564 315.32H29.5764C28.6554 315.752 27.6044 315.817 26.6372 315.502C25.67 315.186 24.8593 314.514 24.37 313.623C23.8807 312.731 23.7497 311.686 24.0034 310.701C24.2572 309.716 24.8767 308.864 25.736 308.32L25.9261 308.28Z" fill="white"/>
<path d="M194.952 149.43C183.391 152.13 163.499 147.77 163.459 147.77C163.419 147.77 146.647 159.29 134.926 161.18C134.926 161.18 140.056 205.54 175.69 210.35C175.69 210.35 175.69 210.35 175.76 210.35L175.82 210.3C206.933 192.41 194.952 149.43 194.952 149.43Z" fill="#F2F3F6"/>
<path d="M182.931 205.18C180.751 207.142 178.367 208.865 175.82 210.32L175.76 210.37H175.69C150.538 206.98 140.587 183.88 136.906 170.58C147.454 170.684 157.931 172.3 168.019 175.38C169.766 175.932 171.357 176.889 172.662 178.173C173.968 179.458 174.951 181.033 175.53 182.77L182.931 205.18Z" fill="white"/>
<path d="M1911.4 157.73C1907.56 165.35 1899.99 176.86 1892.02 188.29C1878.66 207.48 1864.14 226.43 1864.14 226.43L1832.25 225.89L1707.66 223.79C1707.66 223.79 1700.66 200.01 1719.56 181.51C1738.45 163.01 1749.51 125.15 1749.51 125.15C1749.51 125.15 1904.86 120.69 1913.23 123.78C1921.59 126.87 1922.7 135.28 1911.4 157.73Z" fill="#F2F3F6"/>
<path d="M1864.19 114.14C1864.19 114.14 1896.89 116.14 1913.2 123.78C1913.2 123.78 1903.73 120.78 1895.47 130.32C1887.21 139.86 1874.99 150.8 1866.74 138.25C1864.34 134.764 1862.84 130.731 1862.4 126.52C1861.95 122.308 1862.57 118.052 1864.19 114.14Z" fill="#EAEBF0"/>
<path d="M1863.19 122.8C1862.49 133.94 1867.7 139.91 1870.73 142.41C1871.38 142.959 1872.07 143.445 1872.81 143.86C1818.95 145.35 1773.12 143.68 1743.51 141.94C1720.83 140.61 1707.65 139.24 1707.65 139.24C1692.16 115.71 1711.12 87.59 1730.66 60.33C1736.73 51.85 1742.86 43.44 1748.02 35.33C1755.96 22.78 1761.61 10.82 1761.26 0.0400391H1911.8C1911.8 25.28 1894.62 60.04 1872.79 96.34C1869.32 101.915 1866.59 107.924 1864.69 114.21C1863.88 117.011 1863.38 119.891 1863.19 122.8Z" fill="#F2F3F6"/>
<path d="M1823.59 81.0552C1832.78 72.716 1834.66 59.8219 1827.8 52.2553C1820.93 44.6887 1807.91 45.3149 1798.72 53.6541C1789.53 61.9932 1787.65 74.8874 1794.51 82.454C1801.38 90.0206 1814.4 89.3943 1823.59 81.0552Z" fill="#EAEBF0"/>
<path d="M1825.19 29.3098L1811.19 67.3998L1773.6 63.1298C1773.17 64.533 1772.81 65.9583 1772.53 67.3998C1768.37 88.7398 1782.3 106.05 1803.65 106.05C1825.01 106.05 1845.66 88.7398 1849.84 67.3998C1853.56 48.2898 1842.78 32.3998 1825.17 29.2998L1825.19 29.3098Z" fill="#F9FAFB"/>
<path d="M1832.09 90.4237C1847.57 76.3804 1850.74 54.6678 1839.18 41.9273C1827.62 29.1868 1805.7 30.2429 1790.22 44.2862C1774.74 58.3295 1771.57 80.0421 1783.13 92.7826C1794.69 105.523 1816.61 104.467 1832.09 90.4237Z" stroke="#F9FAFB" stroke-width="2" stroke-miterlimit="10"/>
<path d="M1799.26 49.7766C1800.6 48.5557 1800.88 46.6675 1799.87 45.5591C1798.87 44.4508 1796.96 44.542 1795.62 45.7629C1794.27 46.9838 1794 48.8721 1795 49.9805C1796.01 51.0888 1797.91 50.9976 1799.26 49.7766Z" fill="#EAEBF0"/>
<path d="M1797.47 47.8101H1743.86" stroke="#EAEBF0" stroke-width="2" stroke-miterlimit="10"/>
<path d="M1754.22 35.29H1704.72V60.32H1754.22V35.29Z" fill="#F2F3F6"/>
<path d="M1754.18 35.29V60.29H1730.62C1736.69 51.81 1742.82 43.4 1747.98 35.29H1754.18Z" fill="#EAEBF0"/>
<path d="M1744.51 158.16C1743.86 158.903 1743.09 159.531 1742.23 160.02C1740.83 160.803 1739.26 161.213 1737.66 161.21H1698.89C1702.72 157.091 1706.01 152.517 1708.72 147.59C1713.72 138.68 1718.32 126.04 1716.41 111.65C1716.41 111.65 1740.16 112.44 1756.82 111.65C1756.81 111.65 1761.18 139.21 1744.51 158.16Z" fill="#FFBF00"/>
<path d="M1742.18 160C1740.78 160.783 1739.21 161.193 1737.61 161.19H1698.85C1695.63 161.19 1691.84 153.62 1696.73 147.57H1736.86C1734.62 151.77 1736.11 162.14 1742.18 160Z" fill="#0A1129"/>
<path d="M1839.85 337.22H1722.95C1722.95 337.22 1709.61 327.38 1716.95 293.68C1762.59 301.68 1804.62 315.72 1839.85 337.22Z" fill="white"/>
<path d="M1859.02 185.49C1859.02 185.49 1830.51 217.56 1819.28 263.08C1819.28 263.08 1863.59 263.36 1891.72 266.72C1891.72 266.72 1906.37 224.28 1928.06 190.26C1928.06 190.26 1872.58 187.39 1859.02 185.49Z" fill="white"/>
<path d="M1892.02 188.29C1878.66 207.48 1864.14 226.43 1864.14 226.43L1832.98 225.89C1839.54 211.18 1848.31 197.557 1858.98 185.49C1865.19 186.35 1877.07 187.4 1892.02 188.29Z" fill="#EAEBF0"/>
<path d="M1892.02 188.29C1886.02 196.88 1879.84 205.4 1874.8 212.22L1900.44 213.91C1900.44 213.91 1886.63 239.46 1875.29 265.19C1881.06 265.61 1886.65 266.12 1891.72 266.72C1891.72 266.72 1906.37 224.28 1928.06 190.26C1928.06 190.26 1910.29 189.39 1892.02 188.29Z" fill="#F2F3F6"/>
<path d="M205.364 281.72L203.784 277.9C203.717 277.742 203.608 277.605 203.469 277.505C203.329 277.404 203.165 277.344 202.994 277.33L169.571 275C169.393 274.986 169.223 274.921 169.081 274.813C168.939 274.705 168.831 274.558 168.771 274.39C168.254 272.94 167.327 271.671 166.101 270.739C164.876 269.806 163.406 269.251 161.87 269.14L142.868 267.77C142.718 267.758 142.568 267.783 142.43 267.842C142.293 267.902 142.172 267.995 142.079 268.113C141.986 268.231 141.923 268.37 141.897 268.518C141.871 268.665 141.881 268.818 141.928 268.96L157.61 319C157.663 319.18 157.77 319.339 157.917 319.455C158.064 319.571 158.243 319.639 158.43 319.65L206.304 322.53C206.439 322.544 206.576 322.528 206.703 322.483C206.831 322.438 206.947 322.364 207.043 322.269C207.139 322.173 207.212 322.057 207.257 321.929C207.303 321.801 207.319 321.665 207.305 321.53L205.434 282C205.429 281.903 205.405 281.808 205.364 281.72Z" fill="#FFBF00"/>
<path d="M211.425 282.23L168.421 279.63C167.954 279.601 167.487 279.677 167.053 279.852C166.619 280.026 166.23 280.295 165.913 280.639C165.596 280.982 165.36 281.392 165.221 281.839C165.082 282.285 165.044 282.757 165.11 283.22C166.211 290.87 167.781 307.94 161.45 315.39C160.935 315.965 160.593 316.674 160.464 317.434C160.335 318.195 160.424 318.977 160.72 319.69V319.76L195.163 320.18C195.163 320.18 218.976 317.73 214.345 284.93C214.243 284.213 213.897 283.553 213.365 283.061C212.833 282.569 212.148 282.276 211.425 282.23Z" fill="#0A1129"/>
<path d="M223.205 288.45L178.54 285.76C178.132 285.735 177.723 285.799 177.342 285.947C176.961 286.095 176.616 286.323 176.331 286.617C176.046 286.91 175.828 287.261 175.691 287.647C175.555 288.032 175.503 288.443 175.54 288.85C176.32 297.4 176.79 319.66 160.738 319.76L207.343 322.57C207.343 322.57 230.675 323.76 225.865 290.89C225.769 290.24 225.453 289.642 224.968 289.197C224.484 288.753 223.861 288.489 223.205 288.45Z" fill="#FFBF00"/>
<path d="M1730.65 203.25L1822.25 204.23" stroke="white" stroke-width="4" stroke-linecap="round" stroke-linejoin="round"/>
<path d="M1741.94 184.51L1833.54 185.49" stroke="white" stroke-width="4" stroke-linecap="round" stroke-linejoin="round"/>
<path d="M1756.16 166.26L1847.77 167.24" stroke="white" stroke-width="4" stroke-linecap="round" stroke-linejoin="round"/>
<path d="M107.856 127.539C109.421 127.349 110.996 127.788 112.236 128.76C113.476 129.732 114.28 131.156 114.47 132.72L120.992 186.456L109.187 187.888L102.666 134.163C102.476 132.599 102.916 131.023 103.887 129.783C104.859 128.543 106.284 127.74 107.848 127.55L107.856 127.539Z" fill="#4CC3FF"/>
<path d="M102.7 134.423L97.9746 134.996L99.4278 146.968L104.153 146.395L102.7 134.423Z" fill="#0A1129"/>
<path d="M97.9834 135L101.399 163.143C100.015 163.311 98.6196 162.922 97.5215 162.062C96.4234 161.201 95.7121 159.94 95.544 158.555L93.3955 140.855C93.2274 139.47 93.6164 138.075 94.4768 136.977C95.3371 135.879 96.5985 135.168 97.9834 135Z" fill="#0A1129"/>
<path d="M116.484 198.61L109.193 187.88L121.005 186.45L116.484 198.61Z" fill="#0A1129"/>
<path d="M1809.55 265.55L1778.47 255.12C1778.2 255.03 1777.95 254.863 1777.77 254.639C1777.59 254.415 1777.47 254.143 1777.44 253.855C1777.41 253.567 1777.46 253.276 1777.59 253.016C1777.71 252.757 1777.91 252.539 1778.16 252.39C1781.92 250.045 1785.46 247.367 1788.73 244.39C1795.88 237.88 1803.81 228.06 1806.85 214.85C1806.91 214.642 1807 214.447 1807.13 214.277C1807.26 214.108 1807.43 213.968 1807.62 213.867C1807.8 213.766 1808.01 213.706 1808.23 213.691C1808.44 213.676 1808.65 213.707 1808.86 213.78C1814.02 215.67 1830.39 221.6 1843.41 225.4C1843.61 225.458 1843.8 225.558 1843.96 225.692C1844.12 225.827 1844.25 225.993 1844.35 226.181C1844.44 226.369 1844.5 226.574 1844.51 226.784C1844.52 226.994 1844.48 227.204 1844.41 227.4C1841.63 234.04 1830.03 259.61 1814.03 265.4C1812.59 265.958 1811.01 266.011 1809.55 265.55Z" fill="#0A1129"/>
<path d="M1806.85 262L1775.77 251.57C1775.5 251.478 1775.25 251.31 1775.07 251.085C1774.89 250.86 1774.77 250.587 1774.74 250.299C1774.71 250.011 1774.76 249.72 1774.89 249.459C1775.01 249.199 1775.21 248.981 1775.46 248.83C1779.22 246.487 1782.76 243.81 1786.03 240.83C1793.19 234.33 1801.12 224.51 1804.16 211.29C1804.21 211.081 1804.31 210.885 1804.44 210.715C1804.57 210.544 1804.73 210.404 1804.92 210.303C1805.11 210.201 1805.32 210.142 1805.53 210.127C1805.75 210.113 1805.96 210.145 1806.16 210.22C1811.34 212.12 1827.7 218.04 1840.73 221.84C1840.93 221.899 1841.12 222 1841.28 222.134C1841.44 222.269 1841.57 222.435 1841.66 222.623C1841.76 222.81 1841.81 223.015 1841.82 223.225C1841.83 223.434 1841.8 223.643 1841.73 223.84C1838.95 230.48 1827.35 256.05 1811.35 261.84C1809.91 262.399 1808.33 262.455 1806.85 262Z" fill="#4CC3FF"/>
<path d="M1808.89 212.35C1806.98 217.63 1802.05 227.92 1792.24 230.17C1794.48 230.739 1796.8 230.945 1799.1 230.78L1799.32 234.69C1799.32 234.69 1810.03 229.69 1816.14 211.31L1813.14 210.31C1812.3 210.027 1811.39 210.082 1810.59 210.463C1809.8 210.845 1809.19 211.522 1808.89 212.35Z" fill="#0A1129"/>
<path d="M1816.19 211.31L1818.32 212.03C1818.91 212.233 1819.4 212.661 1819.68 213.222C1819.97 213.783 1820.02 214.432 1819.83 215.03L1815.07 213.33L1816.19 211.31Z" fill="#0A1129"/>
</svg>
