<svg width="1920" height="400" viewBox="0 0 1920 400" fill="none" xmlns="http://www.w3.org/2000/svg">
<mask id="mask0" mask-type="alpha" maskUnits="userSpaceOnUse" x="0" y="0" width="1920" height="400">
<path d="M0 0H1920V400H0V0Z" fill="#F9FAFB"/>
</mask>
<g mask="url(#mask0)">
<path d="M158.839 93.6301C167.21 113.06 192.312 173.38 209.524 236.14C209.843 237.312 209.92 238.536 209.749 239.739C209.578 240.941 209.163 242.096 208.53 243.132C207.897 244.169 207.059 245.065 206.068 245.766C205.076 246.467 203.952 246.959 202.764 247.21L95.5527 269.81C93.3771 270.27 91.1082 269.899 89.1925 268.77C87.2768 267.641 85.8531 265.836 85.2016 263.71L40.4371 118.21C40.0662 117.007 39.955 115.738 40.1109 114.488C40.2667 113.239 40.6861 112.036 41.3411 110.961C41.9962 109.885 42.8722 108.961 43.9111 108.248C44.95 107.536 46.1281 107.053 47.3678 106.83L149.078 88.4001C151.057 88.0393 153.099 88.3601 154.872 89.31C156.645 90.2599 158.044 91.7829 158.839 93.6301Z" fill="#EAEBF0"/>
<path d="M133.696 96.0004L69.5299 108.59L67.1297 101.36C66.8926 100.647 66.8101 99.891 66.8876 99.1431C66.9651 98.3952 67.2009 97.6724 67.5792 97.0226C67.9576 96.3728 68.4699 95.811 69.0821 95.3744C69.6944 94.9378 70.3925 94.6365 71.1301 94.4904L124.826 84.0004C126.082 83.7627 127.383 83.9883 128.486 84.6355C129.589 85.2826 130.42 86.3075 130.826 87.5204L133.696 96.0004Z" fill="#EAEBF0"/>
<path d="M88.1805 78.0381L102.315 74.9824C105.167 74.3659 108.147 74.9073 110.6 76.4877C113.052 78.0681 114.776 80.5579 115.393 83.4094L116.883 90.3001L81.2036 98.0135L79.722 91.1618C79.4101 89.7444 79.3818 88.2794 79.6388 86.851C79.8957 85.4226 80.4327 84.0592 81.219 82.8393C82.0052 81.6194 83.0251 80.5671 84.2199 79.7431C85.4147 78.9191 86.7608 78.3396 88.1805 78.0381Z" stroke="#EAEBF0" stroke-width="5" stroke-linecap="round" stroke-linejoin="round"/>
<path d="M633.617 399.999H34.8564C34.8564 399.999 48.1478 369.999 77.4508 344.569C107.174 318.779 153.388 297.739 218.915 317.569L220.395 318.019C350.888 357.659 434.347 387.769 633.617 399.999Z" fill="#F3F4F7"/>
<path d="M164.549 300.001L254.558 293.391C254.558 293.391 279.241 376.221 311.394 400.001H199.383C199.383 400.001 167.63 338.791 164.549 300.001Z" fill="white"/>
<path d="M780.082 0C780.082 0 907.275 86.71 1043.11 93.1C1210.13 101 1475.15 12.28 1675.17 0H780.082Z" fill="#F3F4F7"/>
<path d="M1907.2 400H947.099C947.099 400 1295.86 328.05 1466.15 298.5C1550.01 283.94 1638.83 279.98 1716.94 293.68C1762.62 301.68 1804.65 315.68 1839.88 337.22C1866.7 353.61 1889.6 374.32 1907.2 400Z" fill="#F3F4F7"/>
<path d="M1868.72 337.219C1868.72 337.219 1896.9 351.749 1948 242.539H1870.48C1870.48 242.539 1836.57 327.529 1868.72 337.219Z" fill="#EAEBF0"/>
<path d="M1900.43 213.91C1900.43 213.91 1867.83 274.24 1861.67 302.91C1855.51 331.58 1864.76 335.5 1868.67 337.26H1722.95C1722.95 337.26 1704.45 323.61 1722.95 273.4C1741.45 223.19 1754.18 204.23 1754.18 204.23L1900.43 213.91Z" fill="#F2F3F6"/>
<path d="M236.307 373.16C233.406 373.66 227.846 373.16 221.305 365.42C211.614 353.97 189.592 346.48 148.198 364.98C106.804 383.48 90.0619 380.39 83.4513 364.98L35.0063 199.4C35.0063 199.4 85.1714 169.59 136.937 170.56C147.475 170.674 157.942 172.297 168.02 175.38C169.766 175.932 171.357 176.889 172.663 178.173C173.968 179.458 174.951 181.033 175.531 182.77L182.961 205.18L237.847 370.56C237.937 370.832 237.969 371.12 237.938 371.405C237.908 371.69 237.816 371.965 237.67 372.212C237.524 372.458 237.327 372.671 237.092 372.834C236.856 372.998 236.589 373.109 236.307 373.16Z" fill="#F2F3F6"/>
<path d="M236.307 373.159C233.406 373.659 227.846 373.159 221.305 365.419C211.614 353.969 189.592 346.479 148.198 364.979C106.804 383.479 90.062 380.389 83.4513 364.979L77.4507 344.569C107.174 318.779 153.388 297.739 218.915 317.569L220.395 318.019L237.817 370.519C237.914 370.791 237.952 371.081 237.927 371.369C237.901 371.657 237.814 371.936 237.67 372.187C237.527 372.438 237.331 372.655 237.095 372.823C236.86 372.991 236.591 373.105 236.307 373.159Z" fill="#F9FAFB"/>
<path d="M83.4213 365.001C83.4213 365.001 79.6809 352.301 95.0925 347.531C110.504 342.761 133.476 338.531 128.216 320.461L120.415 299.381L68.0098 312.201L83.4213 365.001Z" fill="#EAEBF0"/>
<path d="M-28 165.93C-28 165.93 21.485 138 67.2696 135.31C69.222 135.203 71.1529 135.761 72.7475 136.892C74.3421 138.024 75.5064 139.662 76.0505 141.54L128.216 320.44C127.053 316.444 124.37 313.064 120.742 311.024C117.115 308.985 112.832 308.448 108.814 309.53C92.0422 314.02 61.059 324.34 13.8942 347.53L-28 165.93Z" fill="#F9FAFB"/>
<path d="M-8.1579 179C-2.15729 176.62 3.7233 174.56 9.74391 172.6C15.7645 170.64 21.7451 168.89 27.8757 167.27C34.0064 165.65 40.117 164.27 46.2976 163.03C52.4782 161.79 58.7389 160.9 64.9995 160.18C65.2622 160.143 65.5296 160.158 65.7866 160.224C66.0436 160.289 66.2851 160.405 66.4973 160.565C66.7095 160.724 66.8883 160.923 67.0234 161.152C67.1585 161.38 67.2473 161.633 67.2847 161.895C67.3222 162.158 67.3075 162.425 67.2416 162.682C67.1756 162.939 67.0597 163.181 66.9004 163.393C66.7412 163.605 66.5417 163.784 66.3133 163.919C66.085 164.054 65.8322 164.143 65.5696 164.18C59.4789 165.18 53.4183 166.4 47.4277 167.93C41.4371 169.46 35.4365 171.08 29.5559 173C23.6753 174.92 17.8347 177 12.0641 179.17C6.29356 181.34 0.54298 183.76 -4.93757 186.28H-5.00758C-5.48985 186.559 -6.02495 186.733 -6.57863 186.793C-7.13231 186.853 -7.69236 186.796 -8.22294 186.627C-8.75353 186.458 -9.24295 186.18 -9.65988 185.811C-10.0768 185.442 -10.4121 184.99 -10.6442 184.484C-10.8763 183.977 -11.0002 183.428 -11.0079 182.872C-11.0156 182.315 -10.907 181.763 -10.6889 181.25C-10.4709 180.738 -10.1483 180.277 -9.74172 179.896C-9.33516 179.516 -8.85362 179.224 -8.32792 179.04L-8.1579 179Z" fill="white"/>
<path d="M0.00306106 209.251C6.00367 206.721 11.8543 204.541 17.8549 202.461C23.8555 200.381 29.8561 198.521 35.9967 196.811C42.1373 195.101 48.2579 193.621 54.4586 192.341C60.6592 191.061 66.9398 190.121 73.2405 189.341C73.771 189.265 74.3097 189.403 74.7383 189.725C75.1669 190.046 75.4501 190.525 75.5257 191.056C75.6013 191.586 75.4631 192.125 75.1414 192.553C74.8197 192.982 74.341 193.265 73.8105 193.341H73.7605C67.6499 194.341 61.5793 195.601 55.5787 197.181C49.5781 198.761 43.5775 200.501 37.7469 202.511C31.9163 204.521 26.0057 206.671 20.2551 209.001C14.5045 211.331 8.78395 213.831 3.3334 216.471H3.25339C2.3184 216.828 1.28342 216.822 0.352727 216.453C-0.577964 216.085 -1.33673 215.381 -1.77379 214.481C-2.21085 213.58 -2.29445 212.549 -2.00808 211.59C-1.72171 210.631 -1.08619 209.814 -0.226962 209.301L0.00306106 209.251Z" fill="white"/>
<path d="M8.41366 243.289C14.3443 240.509 20.1849 238.109 26.1855 235.819C32.1861 233.529 38.1867 231.489 44.3173 229.619C50.4479 227.749 56.6185 226.139 62.8592 224.739C69.1109 223.369 75.4302 222.327 81.7911 221.619C82.2968 221.581 82.7982 221.736 83.1939 222.053C83.5896 222.37 83.85 222.826 83.9225 223.328C83.9949 223.83 83.8739 224.34 83.5841 224.756C83.2942 225.172 82.8571 225.463 82.3611 225.569H82.3011C76.1493 226.588 70.054 227.924 64.0393 229.569C58.0387 231.249 52.0381 233.099 46.2075 235.269C40.3769 237.439 34.5363 239.739 28.8257 242.269C23.1152 244.799 17.4246 247.489 12.054 250.359H11.984C11.5211 250.682 10.995 250.903 10.4403 251.009C9.8857 251.114 9.31508 251.101 8.76597 250.969C8.21686 250.838 7.70172 250.593 7.25439 250.248C6.80707 249.904 6.4377 249.469 6.17056 248.972C5.90343 248.474 5.74458 247.926 5.70445 247.363C5.66433 246.8 5.74384 246.235 5.93776 245.705C6.13169 245.175 6.43562 244.692 6.8296 244.287C7.22358 243.883 7.69867 243.567 8.22364 243.359L8.41366 243.289Z" fill="white"/>
<path d="M16.0743 275.219C22.0149 272.479 27.8655 270.119 33.8661 267.859C39.8667 265.599 45.8673 263.589 51.998 261.739C58.1286 259.889 64.2892 258.309 70.5198 256.929C76.7675 255.58 83.0796 254.549 89.4318 253.839C89.9622 253.762 90.5016 253.899 90.9311 254.22C91.3606 254.541 91.6451 255.019 91.722 255.549C91.7989 256.08 91.6619 256.619 91.3412 257.048C91.0205 257.478 90.5423 257.762 90.0118 257.839H89.9518C83.8039 258.862 77.7121 260.197 71.7 261.839C65.6993 263.509 59.6987 265.339 53.8681 267.489C48.0376 269.639 42.197 271.899 36.4764 274.389C30.7558 276.879 25.0652 279.549 19.6847 282.389H19.6047C18.683 282.771 17.6518 282.795 16.7134 282.456C15.775 282.117 14.9972 281.44 14.5325 280.557C14.0679 279.674 13.95 278.65 14.2019 277.684C14.4538 276.719 15.0575 275.883 15.8943 275.339L16.0743 275.219Z" fill="white"/>
<path d="M25.9256 308.28C31.8462 305.43 37.6768 302.96 43.6674 300.61C49.658 298.26 55.6686 296.16 61.7992 294.24C67.9298 292.32 74.1105 290.67 80.3611 289.24C86.6333 287.84 92.9765 286.778 99.363 286.06C99.8935 285.983 100.433 286.12 100.862 286.441C101.292 286.761 101.576 287.24 101.653 287.77C101.73 288.3 101.593 288.84 101.272 289.269C100.952 289.699 100.474 289.983 99.9431 290.06H99.8831C93.7173 291.08 87.6111 292.432 81.5912 294.11C75.5906 295.82 69.59 297.71 63.7494 299.93C57.9088 302.15 52.0782 304.47 46.3776 307C40.6771 309.53 35.0065 312.39 29.656 315.32H29.5759C28.6549 315.752 27.6039 315.817 26.6367 315.502C25.6695 315.186 24.8588 314.514 24.3695 313.623C23.8803 312.731 23.7492 311.686 24.0029 310.701C24.2567 309.716 24.8763 308.864 25.7356 308.32L25.9256 308.28Z" fill="white"/>
<path d="M194.952 149.43C183.391 152.13 163.499 147.77 163.459 147.77C163.419 147.77 146.647 159.29 134.926 161.18C134.926 161.18 140.057 205.54 175.69 210.35C175.69 210.35 175.69 210.35 175.76 210.35L175.82 210.3C206.934 192.41 194.952 149.43 194.952 149.43Z" fill="#F2F3F6"/>
<path d="M182.931 205.18C180.751 207.142 178.367 208.865 175.821 210.32L175.761 210.37H175.691C150.538 206.98 140.587 183.88 136.907 170.58C147.454 170.684 157.932 172.3 168.02 175.38C169.766 175.932 171.357 176.889 172.663 178.173C173.968 179.458 174.951 181.033 175.531 182.77L182.931 205.18Z" fill="white"/>
<path d="M1911.4 157.73C1907.56 165.35 1900 176.86 1892.02 188.29C1878.66 207.48 1864.14 226.43 1864.14 226.43L1832.25 225.89L1707.67 223.79C1707.67 223.79 1700.67 200.01 1719.56 181.51C1738.45 163.01 1749.51 125.15 1749.51 125.15C1749.51 125.15 1904.87 120.69 1913.23 123.78C1921.59 126.87 1922.7 135.28 1911.4 157.73Z" fill="#F2F3F6"/>
<path d="M1864.19 114.141C1864.19 114.141 1896.89 116.141 1913.2 123.781C1913.2 123.781 1903.74 120.781 1895.47 130.321C1887.21 139.861 1874.99 150.801 1866.74 138.251C1864.34 134.765 1862.84 130.732 1862.4 126.52C1861.95 122.309 1862.57 118.053 1864.19 114.141Z" fill="#EAEBF0"/>
<path d="M1863.19 122.799C1862.49 133.939 1867.7 139.909 1870.73 142.409C1871.38 142.958 1872.07 143.444 1872.81 143.859C1818.95 145.349 1773.12 143.679 1743.51 141.939C1720.83 140.609 1707.66 139.239 1707.66 139.239C1692.16 115.709 1711.12 87.5891 1730.66 60.3291C1736.73 51.8491 1742.86 43.4391 1748.02 35.3291C1755.96 22.7791 1761.61 10.8191 1761.26 0.0390625H1911.8C1911.8 25.2791 1894.62 60.0391 1872.79 96.3391C1869.32 101.914 1866.6 107.923 1864.69 114.209C1863.89 117.01 1863.38 119.89 1863.19 122.799Z" fill="#F2F3F6"/>
<path d="M1823.59 81.0556C1832.78 72.7165 1834.66 59.8224 1827.8 52.2558C1820.93 44.6891 1807.91 45.3154 1798.72 53.6546C1789.53 61.9937 1787.65 74.8878 1794.51 82.4545C1801.38 90.0211 1814.4 89.3948 1823.59 81.0556Z" fill="#EAEBF0"/>
<path d="M1825.19 29.3108L1811.19 67.4008L1773.6 63.1308C1773.17 64.5339 1772.81 65.9593 1772.53 67.4008C1768.37 88.7408 1782.3 106.051 1803.66 106.051C1825.01 106.051 1845.66 88.7408 1849.84 67.4008C1853.56 48.2908 1842.78 32.4008 1825.17 29.3008L1825.19 29.3108Z" fill="#F9FAFB"/>
<path d="M1832.09 90.4227C1847.57 76.3794 1850.74 54.6668 1839.18 41.9263C1827.62 29.1858 1805.7 30.2419 1790.22 44.2852C1774.74 58.3285 1771.57 80.0411 1783.13 92.7817C1794.69 105.522 1816.61 104.466 1832.09 90.4227Z" stroke="#F9FAFB" stroke-width="2" stroke-miterlimit="10"/>
<path d="M1799.26 49.7776C1800.6 48.5567 1800.88 46.6685 1799.87 45.5601C1798.87 44.4518 1796.96 44.543 1795.62 45.7639C1794.27 46.9848 1793.99 48.8731 1795 49.9815C1796.01 51.0898 1797.91 50.9985 1799.26 49.7776Z" fill="#EAEBF0"/>
<path d="M1797.47 47.8105H1743.86" stroke="#EAEBF0" stroke-width="2" stroke-miterlimit="10"/>
<path d="M1754.22 35.2891H1704.73V60.3191H1754.22V35.2891Z" fill="#F2F3F6"/>
<path d="M1754.18 35.2891V60.2891H1730.62C1736.69 51.8091 1742.82 43.3991 1747.98 35.2891H1754.18Z" fill="#EAEBF0"/>
<path d="M1744.51 158.16C1743.86 158.903 1743.09 159.532 1742.23 160.02C1740.83 160.804 1739.26 161.214 1737.66 161.21H1698.89C1702.72 157.092 1706.01 152.517 1708.72 147.59C1713.72 138.68 1718.32 126.04 1716.41 111.65C1716.41 111.65 1740.16 112.44 1756.82 111.65C1756.81 111.65 1761.18 139.21 1744.51 158.16Z" fill="#FFBF00"/>
<path d="M1742.18 160C1740.78 160.784 1739.21 161.193 1737.61 161.19H1698.85C1695.63 161.19 1691.84 153.62 1696.73 147.57H1736.86C1734.62 151.77 1736.11 162.14 1742.18 160Z" fill="#0A1129"/>
<path d="M1839.85 337.22H1722.95C1722.95 337.22 1709.61 327.38 1716.95 293.68C1762.59 301.68 1804.62 315.72 1839.85 337.22Z" fill="white"/>
<path d="M1859.02 185.49C1859.02 185.49 1830.51 217.56 1819.28 263.08C1819.28 263.08 1863.59 263.36 1891.72 266.72C1891.72 266.72 1906.37 224.28 1928.06 190.26C1928.06 190.26 1872.58 187.39 1859.02 185.49Z" fill="white"/>
<path d="M1892.02 188.29C1878.66 207.48 1864.14 226.43 1864.14 226.43L1832.98 225.89C1839.54 211.18 1848.31 197.557 1858.98 185.49C1865.19 186.35 1877.07 187.4 1892.02 188.29Z" fill="#EAEBF0"/>
<path d="M1892.02 188.289C1886.02 196.879 1879.84 205.399 1874.8 212.219L1900.44 213.909C1900.44 213.909 1886.63 239.459 1875.29 265.189C1881.06 265.609 1886.65 266.119 1891.72 266.719C1891.72 266.719 1906.37 224.279 1928.06 190.259C1928.06 190.259 1910.29 189.389 1892.02 188.289Z" fill="#F2F3F6"/>
<path d="M205.363 281.721L203.783 277.901C203.716 277.743 203.607 277.606 203.468 277.505C203.329 277.405 203.164 277.344 202.993 277.331L169.57 275.001C169.392 274.986 169.222 274.921 169.08 274.813C168.938 274.705 168.831 274.558 168.77 274.391C168.253 272.94 167.326 271.671 166.1 270.739C164.875 269.807 163.405 269.252 161.869 269.141L142.867 267.771C142.717 267.758 142.567 267.783 142.429 267.843C142.292 267.903 142.171 267.996 142.078 268.114C141.985 268.231 141.922 268.37 141.896 268.518C141.87 268.666 141.88 268.818 141.927 268.961L157.609 319.001C157.662 319.18 157.769 319.339 157.916 319.455C158.063 319.572 158.242 319.64 158.429 319.651L206.303 322.531C206.438 322.545 206.575 322.529 206.702 322.483C206.83 322.438 206.946 322.365 207.042 322.269C207.138 322.173 207.211 322.057 207.256 321.93C207.302 321.802 207.318 321.665 207.304 321.531L205.433 282.001C205.428 281.904 205.404 281.809 205.363 281.721Z" fill="#FFBF00"/>
<path d="M211.424 282.231L168.42 279.631C167.953 279.602 167.486 279.678 167.052 279.853C166.618 280.027 166.229 280.296 165.912 280.64C165.595 280.983 165.359 281.393 165.22 281.84C165.081 282.286 165.043 282.758 165.109 283.221C166.21 290.871 167.78 307.941 161.449 315.391C160.934 315.966 160.592 316.674 160.463 317.435C160.334 318.196 160.423 318.978 160.719 319.691V319.761L195.162 320.181C195.162 320.181 218.975 317.731 214.344 284.931C214.242 284.214 213.896 283.554 213.364 283.062C212.832 282.57 212.147 282.277 211.424 282.231Z" fill="#0A1129"/>
<path d="M223.206 288.449L178.541 285.759C178.133 285.734 177.724 285.798 177.343 285.946C176.961 286.094 176.617 286.322 176.332 286.616C176.047 286.909 175.829 287.26 175.692 287.646C175.556 288.031 175.504 288.442 175.541 288.849C176.321 297.399 176.791 319.659 160.739 319.759L207.344 322.569C207.344 322.569 230.676 323.759 225.866 290.889C225.77 290.239 225.454 289.641 224.969 289.196C224.485 288.752 223.862 288.488 223.206 288.449Z" fill="#FFBF00"/>
<path d="M1730.65 203.25L1822.25 204.23" stroke="white" stroke-width="4" stroke-linecap="round" stroke-linejoin="round"/>
<path d="M1741.94 184.51L1833.54 185.49" stroke="white" stroke-width="4" stroke-linecap="round" stroke-linejoin="round"/>
<path d="M1756.16 166.26L1847.77 167.24" stroke="white" stroke-width="4" stroke-linecap="round" stroke-linejoin="round"/>
<path d="M107.856 127.539C109.421 127.349 110.996 127.788 112.236 128.76C113.476 129.732 114.28 131.156 114.47 132.72L120.992 186.456L109.187 187.888L102.666 134.163C102.476 132.599 102.916 131.023 103.887 129.783C104.859 128.543 106.284 127.74 107.848 127.55L107.856 127.539Z" fill="#4CC3FF"/>
<path d="M102.699 134.423L97.9741 134.996L99.4273 146.968L104.153 146.395L102.699 134.423Z" fill="#0A1129"/>
<path d="M97.9824 134.999L101.398 163.143C100.014 163.311 98.6187 162.922 97.5205 162.061C96.4224 161.201 95.7111 159.939 95.543 158.555L93.3945 140.854C93.2265 139.47 93.6154 138.075 94.4758 136.977C95.3362 135.879 96.5975 135.167 97.9824 134.999Z" fill="#0A1129"/>
<path d="M116.485 198.609L109.194 187.879L121.005 186.449L116.485 198.609Z" fill="#0A1129"/>
<path d="M1809.55 265.55L1778.47 255.12C1778.2 255.03 1777.95 254.863 1777.77 254.639C1777.59 254.415 1777.47 254.143 1777.44 253.855C1777.41 253.567 1777.46 253.276 1777.59 253.016C1777.71 252.757 1777.91 252.539 1778.16 252.39C1781.92 250.045 1785.46 247.367 1788.73 244.39C1795.88 237.88 1803.82 228.06 1806.86 214.85C1806.91 214.642 1807 214.447 1807.13 214.277C1807.26 214.108 1807.43 213.968 1807.62 213.867C1807.81 213.766 1808.01 213.706 1808.23 213.691C1808.44 213.676 1808.65 213.707 1808.86 213.78C1814.02 215.67 1830.39 221.6 1843.41 225.4C1843.61 225.458 1843.8 225.558 1843.96 225.692C1844.12 225.827 1844.25 225.993 1844.35 226.181C1844.44 226.369 1844.5 226.574 1844.51 226.784C1844.52 226.994 1844.48 227.204 1844.41 227.4C1841.63 234.04 1830.03 259.61 1814.03 265.4C1812.59 265.958 1811.01 266.011 1809.55 265.55Z" fill="#0A1129"/>
<path d="M1806.86 262.001L1775.77 251.571C1775.5 251.479 1775.25 251.311 1775.07 251.086C1774.89 250.861 1774.78 250.588 1774.74 250.3C1774.71 250.012 1774.76 249.721 1774.89 249.46C1775.02 249.2 1775.22 248.982 1775.46 248.831C1779.22 246.488 1782.76 243.81 1786.03 240.831C1793.19 234.331 1801.13 224.511 1804.17 211.291C1804.21 211.082 1804.31 210.886 1804.44 210.716C1804.57 210.545 1804.73 210.405 1804.92 210.304C1805.11 210.202 1805.32 210.143 1805.54 210.128C1805.75 210.114 1805.96 210.146 1806.17 210.221C1811.34 212.121 1827.7 218.041 1840.73 221.841C1840.93 221.9 1841.12 222.001 1841.28 222.135C1841.44 222.27 1841.57 222.436 1841.66 222.624C1841.76 222.811 1841.81 223.016 1841.82 223.226C1841.83 223.435 1841.8 223.644 1841.73 223.841C1838.95 230.481 1827.35 256.051 1811.35 261.841C1809.91 262.4 1808.33 262.456 1806.86 262.001Z" fill="#4CC3FF"/>
<path d="M1808.89 212.35C1806.98 217.63 1802.05 227.92 1792.24 230.17C1794.48 230.738 1796.8 230.944 1799.1 230.78L1799.32 234.69C1799.32 234.69 1810.03 229.69 1816.14 211.31L1813.14 210.31C1812.3 210.026 1811.39 210.081 1810.59 210.463C1809.8 210.844 1809.19 211.521 1808.89 212.35Z" fill="#0A1129"/>
<path d="M1816.19 211.311L1818.32 212.031C1818.91 212.234 1819.4 212.662 1819.68 213.222C1819.97 213.783 1820.02 214.432 1819.83 215.031L1815.07 213.331L1816.19 211.311Z" fill="#0A1129"/>
</g>
</svg>
