<svg width="804" height="321" viewBox="0 0 804 321" fill="none" xmlns="http://www.w3.org/2000/svg">
<path d="M555.689 106.773L549.092 150.426L572.064 153.896L578.661 110.243L555.689 106.773Z" fill="#000D1A"/>
<path d="M622.846 85.4403C626.818 85.4403 630.037 82.2217 630.037 78.2514C630.037 74.2811 626.818 71.0625 622.846 71.0625C618.875 71.0625 615.655 74.2811 615.655 78.2514C615.655 82.2217 618.875 85.4403 622.846 85.4403Z" fill="#4CC3FF"/>
<path d="M546.697 80.2762C550.668 80.2762 553.888 77.0577 553.888 73.0873C553.888 69.117 550.668 65.8984 546.697 65.8984C542.725 65.8984 539.506 69.117 539.506 73.0873C539.506 77.0577 542.725 80.2762 546.697 80.2762Z" fill="#000D1A"/>
<path d="M783.353 0H703.238V319.998H783.353V0Z" fill="#E9EBF2"/>
<path d="M547.987 224.607H715.038V0H703.238L547.987 155.207V224.607Z" fill="#E9EBF2"/>
<path d="M704.62 155.757H643.312L704.251 94.8359L704.62 155.757Z" fill="white"/>
<path d="M539.506 211.52H588.644C595.005 211.52 600.168 216.681 600.168 223.04V224.054C600.168 230.413 595.005 235.575 588.644 235.575H539.506V211.52Z" fill="#000D1A"/>
<path d="M245.23 319.998H165.115L145.939 0H226.146L245.23 319.998Z" fill="#E9EBF2"/>
<path d="M4.14862 224.607H171.2L157.74 0H145.939L0 155.207L4.14862 224.607Z" fill="#E9EBF2"/>
<path d="M156.726 155.757H95.3262L152.669 94.8359L156.726 155.757Z" fill="white"/>
<path d="M395.409 301.938H472.389V310.048C472.389 315.486 467.964 320.002 462.432 320.002H395.409V301.938Z" fill="#4CC3FF"/>
<path d="M472.389 14.2858V21.9355H395.409V3.87109H461.972C467.687 3.87109 472.389 8.57153 472.389 14.2858Z" fill="#4CC3FF"/>
<path d="M565.779 176.405C563.751 228.202 546.511 267.648 523.555 268.478C497.373 269.4 473.68 219.446 470.729 156.773C467.779 94.101 486.586 42.6727 512.861 41.751C536.278 40.9215 557.666 80.737 564.12 133.824C564.857 140.184 565.41 146.727 565.779 153.456C566.056 161.382 566.056 169.031 565.779 176.405Z" fill="#FFBF00"/>
<path d="M385.546 287.833C385.546 287.833 389.326 296.128 400.297 296.128C411.267 296.128 418.919 284.055 418.919 284.055L385.546 287.833Z" fill="#000D1A"/>
<path d="M383.24 34.7444C383.24 34.7444 396.516 18.7076 411.912 37.2329L382.964 35.0209L383.24 34.7444Z" fill="#000D1A"/>
<path d="M511.628 276.518C539.189 275.137 558.855 220.65 555.553 154.818C552.252 88.986 527.233 36.7385 499.672 38.1199C472.112 39.5013 452.446 93.9883 455.747 159.82C459.049 225.652 484.067 277.899 511.628 276.518Z" fill="#4CC3FF"/>
<path d="M442.519 36.5954L335.208 33.7383L339.633 292.631L449.249 282.308L442.519 36.5954Z" fill="#4CC3FF"/>
<path d="M501.153 38.1544L464.461 37.1406L475.155 279.904L512.585 276.402L501.153 38.1544Z" fill="#4CC3FF"/>
<path d="M523.094 95.9439H508.159V94.5614H523.094C523.279 94.5614 523.555 94.5614 523.74 94.4692C525.215 94.1006 526.229 92.6259 525.86 91.1513C523.832 81.9347 521.158 72.7182 517.932 63.8703C517.563 62.7643 516.456 62.027 515.35 62.027H499.032V60.6445H515.35C517.102 60.6445 518.669 61.7505 519.222 63.4095C522.449 72.3495 525.122 81.5661 527.243 90.8748C527.796 93.0868 526.321 95.3909 524.108 95.8517C523.647 95.8517 523.371 95.9439 523.094 95.9439Z" fill="white"/>
<path d="M512.584 277.047C512.4 277.047 512.308 277.047 512.216 276.955C511.939 276.771 511.847 276.31 512.031 276.033C515.442 271.333 517.839 266.08 519.222 260.365L496.359 262.116C495.99 262.116 495.621 261.84 495.621 261.471C495.621 261.103 495.898 260.734 496.266 260.734L520.052 258.891C520.236 258.891 520.513 258.983 520.605 259.167C520.789 259.351 520.789 259.536 520.789 259.812C519.407 265.987 516.825 271.702 513.137 276.863C513.045 276.955 512.769 277.047 512.584 277.047Z" fill="white"/>
<path d="M339.836 286.885C364.576 286.401 383.549 230.644 382.214 162.348C380.878 94.0515 359.74 39.0784 334.999 39.562C310.259 40.0455 291.286 95.8026 292.621 164.099C293.957 232.395 315.096 287.368 339.836 286.885Z" fill="#4CC3FF"/>
<path d="M335.391 45.3457C356.964 45.3457 375.403 98.1565 376.509 163.225C377.615 228.294 361.021 281.105 339.448 281.105C317.875 281.105 299.437 228.386 298.423 163.225C297.409 98.0644 313.819 45.3457 335.391 45.3457ZM335.207 33.8251C324.052 33.8251 308.379 41.1983 297.316 76.3133C289.941 99.7234 286.253 130.599 286.714 163.318C287.175 196.036 292.061 226.912 300.266 250.322C312.528 285.437 328.385 292.81 339.632 292.81C350.88 292.81 366.46 285.437 377.523 250.322C384.898 226.912 388.586 196.036 388.033 163.318C387.48 130.599 382.686 99.7234 374.573 76.3133C362.311 41.1061 346.454 33.7329 335.207 33.8251Z" fill="white"/>
<path d="M523.28 192.719C523.095 194.931 523.003 197.235 522.819 199.447C520.053 233.18 512.77 264.055 500.97 283.963C493.225 297.05 483.453 305.345 471.837 306.543H471.745C470.823 306.636 469.901 306.728 468.979 306.728C468.057 306.728 467.227 306.636 466.305 306.636L400.942 306.728L441.506 260.737L451.094 162.212L445.839 102.397L431.826 59.9087L413.295 28.7568L395.871 17.7891H463.909C475.34 17.7891 485.205 24.425 493.41 35.6692C512.493 61.6598 523.003 112.166 523.833 162.304C524.11 172.443 523.833 182.673 523.28 192.719Z" fill="#4CC3FF"/>
<path d="M425.464 35.6692C417.167 24.425 407.303 17.7891 395.963 17.7891C384.992 17.7891 375.681 23.9641 367.937 34.3788L367.845 34.5632L382.964 34.9318L383.333 34.6553C387.389 31.1531 391.722 29.2176 396.24 29.2176C401.034 29.2176 405.643 31.3374 409.976 35.2083C428.968 51.9824 443.35 102.489 444.456 162.12C445.378 217.788 434.407 265.53 417.905 285.253C412.65 291.52 406.934 295.023 400.757 295.023C395.687 295.023 390.8 292.626 386.099 288.202L386.006 288.11L371.993 289.401V289.493C380.106 300.184 389.786 306.543 400.849 306.543C413.756 306.543 424.45 297.972 432.932 283.871C448.973 256.774 456.717 209.309 455.888 162.12C455.058 112.166 444.548 61.6598 425.464 35.6692Z" fill="white"/>
<path d="M376.143 185.896C375.958 189.86 375.682 193.638 375.405 197.417C373.285 222.855 368.307 244.606 361.577 259.537H248.918C233.43 259.537 220.984 247.002 220.984 231.61V101.012C220.984 85.5283 233.522 73.0859 248.918 73.0859H361.023C366.278 85.8048 370.427 102.395 373.193 121.196C374.207 128.293 375.037 135.666 375.59 143.316C376.051 149.768 376.419 156.496 376.512 163.316C376.604 170.966 376.512 178.523 376.143 185.896Z" fill="#000D1A"/>
<path d="M300.36 250.229C301.559 253.64 302.757 256.773 303.956 259.63H230.202C225.04 259.63 220.891 255.575 220.707 250.414L215.544 82.9492C215.36 77.6958 219.508 73.2719 224.763 73.1797C224.855 73.1797 224.948 73.1797 225.04 73.1797H298.424C298.055 74.1935 297.687 75.2073 297.41 76.3133C290.035 99.7233 286.347 130.599 286.808 163.317C287.269 196.036 292.155 226.819 300.36 250.229Z" fill="#FFBF00"/>
<path d="M316.585 259.537H303.955C302.756 256.679 301.558 253.546 300.359 250.136C297.962 243.223 296.026 236.219 294.367 229.122C293.537 225.343 292.707 221.564 291.97 217.601C288.835 199.629 287.084 181.472 286.807 163.224C286.254 130.505 290.034 99.6296 297.409 76.2196C297.778 75.1136 298.054 74.0998 298.423 73.0859H310.777C302.664 94.7448 297.778 127.095 298.423 163.224C299.069 203.039 306.167 238.246 316.585 259.537Z" fill="#4CC3FF"/>
<path d="M236.636 91.0383C238.135 89.5128 238.083 87.0328 236.521 85.499C234.959 83.9652 232.478 83.9585 230.979 85.484C229.48 87.0094 229.532 89.4895 231.094 91.0233C232.657 92.557 235.138 92.5638 236.636 91.0383Z" fill="white"/>
<path d="M250.851 91.0852C252.35 89.5597 252.298 87.0797 250.736 85.5459C249.174 84.0121 246.692 84.0054 245.194 85.5308C243.695 87.0563 243.747 89.5363 245.309 91.0701C246.871 92.6039 249.353 92.6106 250.851 91.0852Z" fill="white"/>
<path d="M265.132 91.0656C266.631 89.5402 266.579 87.0601 265.017 85.5263C263.455 83.9926 260.974 83.9858 259.475 85.5113C257.977 87.0368 258.028 89.5168 259.59 91.0506C261.153 92.5844 263.634 92.5911 265.132 91.0656Z" fill="white"/>
<path d="M278.88 229.125H243.202C239.975 229.125 237.302 226.544 237.21 223.318C237.025 220.277 239.33 217.696 242.372 217.512C242.464 217.512 242.649 217.512 242.741 217.512H278.419C281.646 217.512 284.319 220.092 284.412 223.318C284.596 226.36 282.291 228.94 279.249 229.125C279.157 229.125 279.065 229.125 278.88 229.125Z" fill="white"/>
<path d="M359.732 229.125H324.054C320.827 229.125 318.153 226.544 318.061 223.318C317.877 220.277 320.182 217.696 323.224 217.512C323.316 217.512 323.5 217.512 323.593 217.512H359.271C362.497 217.512 365.171 220.092 365.263 223.318C365.448 226.36 363.143 228.94 360.1 229.125C359.916 229.125 359.824 229.125 359.732 229.125Z" fill="#FFBF00"/>
<path d="M259.611 197.421H242.279C239.053 197.421 236.379 194.841 236.287 191.615C236.195 188.574 238.499 185.993 241.542 185.809C241.634 185.809 241.726 185.809 241.818 185.809H259.15C262.377 185.809 265.051 188.389 265.143 191.615C265.327 194.656 263.022 197.237 259.98 197.421C259.888 197.421 259.796 197.421 259.611 197.421Z" fill="white"/>
<path d="M255.278 143.226H237.946C234.72 143.226 232.046 140.645 231.954 137.42C231.862 134.378 234.166 131.798 237.209 131.613C237.301 131.613 237.393 131.613 237.485 131.613H254.817C258.044 131.613 260.718 134.194 260.81 137.42C260.994 140.461 258.689 143.042 255.647 143.226C255.555 143.226 255.463 143.226 255.278 143.226Z" fill="white"/>
<path d="M254.173 121.105H236.841C233.614 121.105 230.94 118.524 230.848 115.299C230.664 112.257 232.969 109.677 236.011 109.492C236.103 109.492 236.288 109.492 236.38 109.492H253.712C256.938 109.492 259.612 112.073 259.704 115.299C259.796 118.34 257.492 120.921 254.449 121.105C254.357 121.105 254.265 121.105 254.173 121.105Z" fill="white"/>
<path d="M376.141 185.901C375.957 189.864 375.68 193.643 375.404 197.421H354.015C350.789 197.421 348.115 194.841 348.023 191.615C348.023 191.523 348.023 191.431 348.023 191.339C347.931 188.297 350.42 185.901 353.37 185.809C353.462 185.809 353.462 185.809 353.554 185.809L376.141 185.901Z" fill="#FFBF00"/>
<path d="M375.589 143.223H327.189C325.714 143.223 324.515 142.117 324.515 140.642L323.962 123.96C323.962 122.486 325.068 121.195 326.543 121.195H326.635H373.192C374.206 128.2 375.036 135.573 375.589 143.223Z" fill="#FFBF00"/>
<path d="M394.948 3.87109H395.87C401.402 3.87109 405.919 8.3872 405.919 13.9171V21.9355H384.899V13.9171C384.899 8.3872 389.417 3.87109 394.948 3.87109Z" fill="white"/>
<path d="M384.899 301.938H405.919V309.956C405.919 315.486 401.402 320.002 395.87 320.002H394.948C389.417 320.002 384.899 315.486 384.899 309.956V301.938Z" fill="white"/>
<path d="M398.686 309.892C398.702 307.143 396.981 304.905 394.842 304.893C392.704 304.88 390.958 307.099 390.942 309.847C390.926 312.596 392.647 314.834 394.785 314.847C396.924 314.859 398.67 312.641 398.686 309.892Z" fill="#000D1A"/>
<path d="M394.892 19.9081C397.031 19.8958 398.751 17.6576 398.736 14.9089C398.72 12.1602 396.973 9.94195 394.835 9.95427C392.696 9.96658 390.976 12.2048 390.992 14.9535C391.007 17.7022 392.754 19.9204 394.892 19.9081Z" fill="#000D1A"/>
<path d="M443.349 140.83H409.054C406.564 140.83 404.444 138.894 404.26 136.406C403.153 124.332 401.402 112.258 398.82 100.369C398.267 97.7883 399.927 95.2077 402.508 94.6547C402.877 94.5625 403.153 94.5625 403.522 94.5625H436.988V95.945H403.522C403.245 95.945 403.061 95.945 402.784 96.0371C400.941 96.4058 399.742 98.2491 400.203 100.092C402.692 111.982 404.536 124.148 405.642 136.313C405.827 138.065 407.302 139.447 409.054 139.447H443.349V140.83Z" fill="white"/>
<path d="M370.887 269.581C370.518 269.581 370.241 269.304 370.241 268.936C370.241 268.567 370.518 268.198 370.887 268.198L428.322 264.512C428.691 264.512 429.059 264.788 429.059 265.157C429.059 265.526 428.783 265.894 428.414 265.894L370.887 269.581C370.979 269.581 370.979 269.581 370.887 269.581Z" fill="white"/>
<path d="M375.037 289.861C374.852 289.861 374.576 289.769 374.484 289.584C374.299 289.308 374.391 288.847 374.668 288.663C383.518 282.856 390.709 269.861 396.056 250.045C398.822 239.446 400.943 228.478 402.325 217.603C402.325 217.234 402.694 216.958 402.971 216.958H410.807C411.821 209.308 412.559 201.013 413.02 192.35H388.128C387.759 192.35 387.39 192.073 387.39 191.612C387.39 191.151 387.667 190.875 388.128 190.875H413.757C413.942 190.875 414.126 190.967 414.218 191.059C414.31 191.151 414.403 191.336 414.403 191.612C413.942 200.737 413.112 209.492 412.098 217.603C412.098 217.972 411.729 218.248 411.452 218.248H403.708C402.325 229.031 400.297 239.815 397.532 250.322C392.092 270.506 384.625 283.778 375.59 289.769C375.313 289.861 375.221 289.861 375.037 289.861Z" fill="white"/>
<path d="M512.678 187.834H468.333C467.135 187.834 465.936 187.373 465.107 186.452C464.277 185.53 463.816 184.424 463.816 183.226C463.816 183.134 463.816 183.134 463.816 183.041C464.093 176.037 464.093 169.032 464 162.212C463.816 150.138 462.986 138.157 461.696 126.452C461.419 123.963 463.171 121.659 465.752 121.383C465.937 121.383 466.121 121.383 466.305 121.383H510.649C512.954 121.383 514.89 123.134 515.167 125.438C516.55 137.42 517.287 149.77 517.564 162.212C517.656 168.387 517.564 175.207 517.379 183.41C517.195 185.899 515.167 187.834 512.678 187.834ZM510.557 122.765H466.213C466.121 122.765 465.936 122.765 465.844 122.765C464.093 122.95 462.894 124.516 463.079 126.268C464.369 137.973 465.199 150.046 465.383 162.212C465.476 169.032 465.476 176.037 465.199 183.134V183.226C465.199 184.055 465.568 184.885 466.121 185.438C466.674 186.083 467.504 186.359 468.333 186.359H512.678C514.337 186.359 515.812 185.069 515.812 183.318C516.089 175.115 516.089 168.387 515.997 162.12C515.812 149.678 514.982 137.327 513.6 125.438C513.507 123.963 512.217 122.765 510.557 122.765Z" fill="white"/>
<path d="M472.482 181.382C471.283 181.382 470.269 180.368 470.269 179.262C470.269 179.262 470.269 179.262 470.269 179.17C470.454 173.548 470.454 167.833 470.362 162.211C470.177 151.52 469.532 140.829 468.518 130.322C468.426 129.124 469.255 128.11 470.454 127.926C470.546 127.926 470.638 127.926 470.73 127.926H506.869C507.976 127.926 508.898 128.755 509.082 129.861C510.188 140.46 510.834 151.428 511.018 162.396C511.11 168.018 511.11 173.64 510.926 179.262C510.926 180.46 509.912 181.382 508.713 181.382H472.482Z" fill="#FFBF00"/>
<path d="M518.669 104.699H450.632V106.082H518.669V104.699Z" fill="white"/>
<path d="M522.357 204.055H454.136V205.437H522.357V204.055Z" fill="white"/>
<path d="M555.823 177.14H542.64V176.403C542.824 169.491 542.732 162.486 542.456 155.574C542.087 148.292 541.534 141.104 540.612 134.007L540.52 133.27H553.795V134.652H541.995C542.824 141.564 543.377 148.569 543.746 155.574C544.023 162.209 544.115 169.03 544.023 175.758H555.823V177.14Z" fill="white"/>
<path d="M563.014 125.711H552.688V127.093H563.014V125.711Z" fill="white"/>
<path d="M565.596 183.312H555.547V184.695H565.596V183.312Z" fill="white"/>
<path d="M455.308 66.4642C456.817 64.8776 456.633 62.2552 454.899 60.6067C453.164 58.9582 450.535 58.908 449.026 60.4945C447.518 62.0811 447.701 64.7035 449.436 66.352C451.17 68.0005 453.799 68.0507 455.308 66.4642Z" fill="#000D1A"/>
<path d="M463.282 94.3001C464.79 92.7136 464.607 90.0911 462.872 88.4426C461.138 86.7941 458.509 86.7439 457 88.3305C455.492 89.917 455.675 92.5395 457.409 94.1879C459.144 95.8364 461.773 95.8866 463.282 94.3001Z" fill="#000D1A"/>
<path d="M459.866 80.1321C461.374 78.5456 461.191 75.9231 459.456 74.2746C457.722 72.6262 455.093 72.576 453.584 74.1625C452.075 75.749 452.259 78.3715 453.993 80.02C455.728 81.6684 458.357 81.7187 459.866 80.1321Z" fill="white"/>
<path d="M510.027 250.354C511.601 248.552 511.54 245.924 509.891 244.484C508.242 243.044 505.629 243.337 504.055 245.139C502.48 246.941 502.541 249.57 504.19 251.009C505.839 252.449 508.453 252.156 510.027 250.354Z" fill="#000D1A"/>
<path d="M515.39 221.963C516.964 220.161 516.904 217.533 515.254 216.093C513.605 214.653 510.992 214.947 509.418 216.749C507.844 218.551 507.904 221.179 509.553 222.619C511.203 224.059 513.816 223.765 515.39 221.963Z" fill="white"/>
<path d="M513.315 236.467C514.889 234.665 514.828 232.037 513.179 230.597C511.53 229.157 508.917 229.451 507.343 231.253C505.768 233.055 505.829 235.683 507.478 237.123C509.127 238.563 511.741 238.269 513.315 236.467Z" fill="#000D1A"/>
<path d="M403.843 80.8979C404.931 79.7541 404.765 77.8318 403.474 76.6042C402.182 75.3766 400.253 75.3087 399.166 76.4524C398.078 77.5962 398.243 79.5186 399.535 80.7462C400.827 81.9738 402.756 82.0417 403.843 80.8979Z" fill="white"/>
<path d="M410.319 104.605C411.407 103.461 411.241 101.539 409.949 100.311C408.658 99.0836 406.729 99.0157 405.641 100.159C404.554 101.303 404.719 103.226 406.011 104.453C407.303 105.681 409.231 105.749 410.319 104.605Z" fill="#000D1A"/>
<path d="M406.94 91.062C408.028 89.9182 407.862 87.9958 406.57 86.7683C405.279 85.5407 403.35 85.4727 402.262 86.6165C401.175 87.7603 401.34 89.6827 402.632 90.9102C403.924 92.1378 405.852 92.2058 406.94 91.062Z" fill="white"/>
<path d="M491.381 168.849C486.126 168.849 481.24 165.992 478.658 161.476C478.013 160.37 478.382 158.988 479.488 158.343C480.594 157.697 481.977 158.066 482.623 159.172C484.466 162.214 487.785 164.149 491.289 164.241C491.473 164.241 491.657 164.241 491.842 164.241C494.239 164.149 496.451 163.043 498.019 161.292C499.586 159.541 500.416 157.237 500.323 154.84C500.047 149.495 495.622 145.163 490.274 145.163C488.984 145.163 487.97 144.149 487.97 142.859C487.97 141.569 488.984 140.555 490.274 140.555C498.111 140.647 504.564 146.822 504.933 154.656C505.117 158.25 503.919 161.753 501.43 164.426C499.033 167.098 495.622 168.665 492.026 168.942C491.934 168.757 491.657 168.849 491.381 168.849Z" fill="white"/>
<path d="M481.148 149.675C480.687 149.675 480.226 149.491 479.765 149.214C478.751 148.477 478.474 147.002 479.212 145.989C479.304 145.896 479.396 145.804 479.488 145.712C480.318 144.791 481.793 144.606 482.715 145.528C483.637 146.357 483.822 147.832 482.9 148.754C482.531 149.399 481.886 149.675 481.148 149.675Z" fill="white"/>
<path d="M479.028 155.666C477.829 155.666 476.815 154.744 476.723 153.546C476.723 153.362 476.723 153.178 476.723 152.993C476.815 151.703 477.921 150.781 479.212 150.874C480.503 150.966 481.425 152.072 481.333 153.27C481.425 154.468 480.411 155.574 479.212 155.666C479.12 155.666 479.12 155.666 479.028 155.666Z" fill="white"/>
<path d="M492.212 131.336H473.589V132.718H492.212V131.336Z" fill="#000D1A"/>
<path d="M506.777 133.456H504.011L503.826 130.691H506.5L506.777 133.456Z" fill="white"/>
<path d="M417.075 62.0244C414.586 62.0244 412.189 60.642 410.991 58.43C403.431 44.513 394.304 36.7711 383.886 35.2965C383.518 35.2043 383.241 34.9278 383.333 34.5591C383.425 34.1905 383.702 33.914 384.071 34.0061C394.949 35.573 404.445 43.5913 412.281 57.877C413.296 59.6281 415.139 60.7341 417.168 60.7341H426.018C426.387 60.7341 426.756 61.0106 426.756 61.4714C426.756 61.9323 426.479 62.2088 426.018 62.2088H417.075C417.075 62.0244 417.075 62.0244 417.075 62.0244Z" fill="white"/>
<path d="M667.836 179.172L639.533 169.587L625.335 195.762L601.55 124.241L635.937 110.785L667.836 179.172Z" fill="#FFBF00"/>
<path d="M619.159 237.42L637.69 217.328L618.422 218.065L619.159 237.42Z" fill="#4CC3FF"/>
<path d="M677.793 95.9453L660.553 125.715H694.94L677.793 95.9453Z" fill="#4CC3FF"/>
<path d="M740.484 122.117H728.684V133.914H740.484V122.117Z" fill="#FFBF00"/>
<path d="M619.49 133.427L585.204 141.863L591.418 167.1L625.703 158.664L619.49 133.427Z" fill="#000D1A"/>
<path d="M697.05 168.792L690.613 185.672L707.497 192.106L713.934 175.227L697.05 168.792Z" fill="white"/>
<path d="M790.54 244.317L758.597 257.773L772.057 289.707L804 276.251L790.54 244.317Z" fill="white"/>
<path d="M685.81 43.4212L671.848 54.8867L679.747 64.5009L693.709 53.0354L685.81 43.4212Z" fill="#000D1A"/>
<path d="M579.701 73.548L600.905 62.0273C600.905 62.0273 615.472 72.7185 625.981 87.9258L593.53 103.778C593.53 103.778 586.062 83.1332 579.701 73.548Z" fill="#FFBF00"/>
<path d="M560.524 48.4777L573.155 33.5469L587.813 47.4639L571.219 61.473L560.524 48.4777Z" fill="#FFBF00"/>
<path d="M523.28 192.715C523.095 194.927 523.003 197.231 522.819 199.443H454.781L455.242 192.715H523.28Z" fill="#000D1A"/>
<path d="M515.903 201.75L514.521 201.658C514.889 197.879 515.35 189.492 515.35 189.492L516.733 189.584C516.733 189.584 516.179 198.064 515.903 201.75Z" fill="#4CC3FF"/>
<path d="M464.277 201.75L462.895 201.658C463.263 197.879 463.724 189.492 463.724 189.492L465.106 189.584C465.106 189.584 464.646 198.064 464.277 201.75Z" fill="#4CC3FF"/>
<path d="M472.759 195.387H468.609V196.769H472.759V195.387Z" fill="white"/>
<path d="M488.431 195.387H484.282V196.769H488.431V195.387Z" fill="white"/>
<path d="M496.267 195.387H492.118V196.769H496.267V195.387Z" fill="white"/>
<path d="M511.94 195.387H507.791V196.769H511.94V195.387Z" fill="white"/>
<path d="M442.614 13.6406V21.1982H441.139V13.6406C441.139 8.29503 436.806 3.87109 431.366 3.87109H435.238C436.529 3.87109 437.727 4.33192 438.649 5.06924C441.139 7.28122 442.614 10.3227 442.614 13.6406Z" fill="white"/>
<path d="M445.469 310.229V302.672H443.994V310.229C443.994 315.575 439.661 319.999 434.222 319.999H438.094C439.292 319.999 440.583 319.538 441.505 318.801C444.086 316.589 445.469 313.547 445.469 310.229Z" fill="white"/>
<path d="M478.843 45.8995H455.703C453.675 42.0286 451.37 38.2498 448.789 34.6553C442.335 25.9918 435.052 20.001 426.755 17.7891H451.923C460.22 20.001 465.568 25.9918 471.929 34.6553C474.51 38.2498 476.815 42.0286 478.843 45.8995Z" fill="#000D1A"/>
<path d="M483.085 278.893C482.163 280.644 481.241 282.395 480.227 283.962C472.667 296.681 466.029 305.344 454.874 306.911H425.926C432.195 306.635 438.279 304.423 443.166 300.46C448.328 296.497 453.03 290.782 457.087 283.87C458.008 282.211 459.023 280.552 459.852 278.801L483.085 278.893Z" fill="#000D1A"/>
<path d="M474.694 284.787H463.17C462.801 284.787 462.433 284.511 462.433 284.05C462.433 283.589 462.709 283.312 463.17 283.312H474.694C475.063 283.312 475.432 283.589 475.432 284.05C475.432 284.511 475.063 284.787 474.694 284.787Z" fill="white"/>
<path d="M471.468 42.0293H459.944C459.575 42.0293 459.206 41.7528 459.206 41.292C459.206 40.8312 459.483 40.5547 459.944 40.5547H471.468C471.836 40.5547 472.205 40.8312 472.205 41.292C472.205 41.7528 471.928 42.0293 471.468 42.0293Z" fill="white"/>
</svg>
