<?xml version="1.0" encoding="utf-8"?>
<!-- Generator: Adobe Illustrator 24.3.0, SVG Export Plug-In . SVG Version: 6.00 Build 0)  -->
<svg version="1.1" id="Layer_1" xmlns="http://www.w3.org/2000/svg" xmlns:xlink="http://www.w3.org/1999/xlink" x="0px" y="0px"
	 viewBox="0 0 872.1 347.2" style="enable-background: new 0 0 872.1 347.2;" xml:space="preserve">
<style type="text/css">
  .st0 { fill: #08112b; }
  .st1 { fill: #4cc3ff; }
  .st2 { fill: #e9ebf2; }
  .st3 { fill: #fff; }
  .st4 { fill: #ffbf00; }
</style>
<g id="Layer_2_1_">
	<g id="Layer_3">
		<g>
			
				<rect x="587.7" y="128.8" transform="matrix(0.1494 -0.9888 0.9888 0.1494 380.4381 725.088)" class="st0" width="47.9" height="25.2"/>
		</g>
		<g>
			<circle class="st1" cx="675.6" cy="84.9" r="7.8"/>
		</g>
		<g>
			<circle class="st0" cx="593" cy="79.3" r="7.8"/>
		</g>
		<g>
			<rect x="762.8" class="st2" width="86.9" height="347.2"/>
		</g>
		<g>
			<polygon class="st2" points="594.4,243.7 775.6,243.7 775.6,0 762.8,0 594.4,168.4 			"/>
		</g>
		<g>
			<polygon class="st3" points="764.3,169 697.8,169 763.9,102.9 			"/>
		</g>
		<g>
			<path class="st0" d="M585.2,229.5h53.3c6.9,0,12.5,5.6,12.5,12.5c0,0,0,0,0,0v1.1c0,6.9-5.6,12.5-12.5,12.5h-53.3l0,0V229.5
				L585.2,229.5z"/>
		</g>
		<g>
			<polygon class="st2" points="266,347.2 179.1,347.2 158.3,0 245.3,0 			"/>
		</g>
		<g>
			<polygon class="st2" points="4.5,243.7 185.7,243.7 171.1,0 158.3,0 0,168.4 			"/>
		</g>
		<g>
			<polygon class="st3" points="170,169 103.4,169 165.6,102.9 			"/>
		</g>
		<g>
			<path class="st1" d="M428.9,327.6h83.5l0,0v8.8c0,5.9-4.8,10.8-10.8,10.8h-72.7l0,0V327.6L428.9,327.6z"/>
		</g>
		<g>
			<path class="st1" d="M512.4,15.5v8.3h-83.5V4.2h72.2C507.3,4.2,512.4,9.3,512.4,15.5C512.4,15.5,512.4,15.5,512.4,15.5z"/>
		</g>
		<g>
			<path class="st4" d="M613.7,191.4c-2.2,56.2-20.9,99-45.8,99.9c-28.4,1-54.1-53.2-57.3-121.2s17.2-123.8,45.7-124.8
				c25.4-0.9,48.6,42.3,55.6,99.9c0.8,6.9,1.4,14,1.8,21.3C614,175.1,614,183.4,613.7,191.4z"/>
		</g>
		<g>
			<path class="st0" d="M418.2,312.3c0,0,4.1,9,16,9s20.2-13.1,20.2-13.1L418.2,312.3z"/>
		</g>
		<g>
			<path class="st0" d="M415.7,37.7c0,0,14.4-17.4,31.1,2.7L415.4,38L415.7,37.7z"/>
		</g>
		<g>
			
				<ellipse transform="matrix(0.9987 -5.007000e-02 5.007000e-02 0.9987 -7.8571 27.6779)" class="st1" cx="548.5" cy="170.7" rx="54.2" ry="129.5"/>
		</g>
		<g>
			<polygon class="st1" points="480,39.7 363.6,36.6 368.4,317.5 487.3,306.3 			"/>
		</g>
		<g>
			<polygon class="st1" points="543.6,41.4 503.8,40.3 515.4,303.7 556,299.9 			"/>
		</g>
		<g>
			<path class="st3" d="M567.4,104.1h-16.2v-1.5h16.2c0.2,0,0.5,0,0.7-0.1c1.6-0.4,2.7-2,2.3-3.6c-2.2-10-5.1-20-8.6-29.6
				c-0.4-1.2-1.6-2-2.8-2c0,0,0,0,0,0h-17.7v-1.5h17.7c0,0,0,0,0,0c1.9,0,3.6,1.2,4.2,3c3.5,9.7,6.4,19.7,8.7,29.8
				c0.6,2.4-1,4.9-3.4,5.4C568,104,567.7,104.1,567.4,104.1z"/>
		</g>
		<g>
			<path class="st3" d="M556,300.6c-0.2,0-0.3,0-0.4-0.1c-0.3-0.2-0.4-0.7-0.2-1c3.7-5.1,6.3-10.8,7.8-17l-24.8,1.9
				c-0.4,0-0.8-0.3-0.8-0.7c0-0.4,0.3-0.8,0.7-0.8l25.8-2c0.2,0,0.5,0.1,0.6,0.3c0.2,0.2,0.2,0.4,0.2,0.7
				c-1.5,6.7-4.3,12.9-8.3,18.5C556.5,300.5,556.2,300.6,556,300.6z"/>
		</g>
		<g>
			
				<ellipse transform="matrix(0.9998 -1.954644e-02 1.954644e-02 0.9998 -3.3916 7.1881)" class="st1" cx="366" cy="177.1" rx="48.6" ry="134.2"/>
		</g>
		<g>
			<path class="st3" d="M363.8,49.2c23.4,0,43.4,57.3,44.6,127.9S391.6,305,368.2,305s-43.4-57.2-44.5-127.9S340.4,49.2,363.8,49.2
				 M363.6,36.7c-12.1,0-29.1,8-41.1,46.1c-8,25.4-12,58.9-11.5,94.4s5.8,69,14.7,94.4c13.3,38.1,30.5,46.1,42.7,46.1
				s29.1-8,41.1-46.1c8-25.4,12-58.9,11.4-94.4s-5.8-69-14.6-94.4C393,44.6,375.8,36.6,363.6,36.7L363.6,36.7z"/>
		</g>
		<g>
			<path class="st1" d="M567.6,209.1c-0.2,2.4-0.3,4.9-0.5,7.3c-3,36.6-10.9,70.1-23.7,91.7c-8.4,14.2-19,23.2-31.6,24.5l0,0h-0.1
				c-1,0.1-2,0.2-3,0.2c-1,0-1.9-0.1-2.9-0.1l-70.9,0.1l44-49.9L489.3,176l-5.7-64.9L468.4,65l-20.1-33.8l-18.9-11.9h73.8
				c12.4,0,23.1,7.2,32,19.4c20.7,28.2,32.1,83,33,137.4C568.5,187.1,568.2,198.2,567.6,209.1z"/>
		</g>
		<g>
			<path class="st3" d="M461.5,38.7c-9-12.2-19.7-19.4-32-19.4c-11.9,0-22,6.7-30.4,18l-0.1,0.2l16.4,0.4l0.4-0.3
				c4.4-3.8,9.1-5.9,14-5.9c5.2,0,10.2,2.3,14.9,6.5c20.6,18.2,36.2,73,37.4,137.7c1,60.4-10.9,112.2-28.8,133.6
				c-5.7,6.8-11.9,10.6-18.6,10.6c-5.5,0-10.8-2.6-15.9-7.4l-0.1-0.1l-15.2,1.4l0,0.1c8.8,11.6,19.3,18.5,31.3,18.5
				c14,0,25.6-9.3,34.8-24.6c17.4-29.4,25.8-80.9,24.9-132.1C493.6,121.7,482.2,66.9,461.5,38.7z"/>
		</g>
		<g>
			<path class="st0" d="M408,201.7c-0.2,4.3-0.5,8.4-0.8,12.5c-2.3,27.6-7.7,51.2-15,67.4H270c-16.8,0-30.3-13.6-30.3-30.3
				c0,0,0,0,0,0V109.6c0-16.8,13.6-30.3,30.3-30.3h121.6c5.7,13.8,10.2,31.8,13.2,52.2c1.1,7.7,2,15.7,2.6,24c0.5,7,0.9,14.3,1,21.7
				C408.5,185.5,408.4,193.7,408,201.7z"/>
		</g>
		<g>
			<path class="st4" d="M325.8,271.5c1.3,3.7,2.6,7.1,3.9,10.2h-80c-5.6,0-10.1-4.4-10.3-10l-5.6-181.7c-0.2-5.7,4.3-10.5,10-10.6
				c0.1,0,0.2,0,0.3,0h79.6c-0.4,1.1-0.8,2.2-1.1,3.4c-8,25.4-12,58.9-11.5,94.4S316.9,246.1,325.8,271.5z"/>
		</g>
		<g>
			<path class="st1" d="M343.4,281.6h-13.7c-1.3-3.1-2.6-6.5-3.9-10.2c-2.6-7.5-4.7-15.1-6.5-22.8c-0.9-4.1-1.8-8.2-2.6-12.5
				c-3.4-19.5-5.3-39.2-5.6-59c-0.6-35.5,3.5-69,11.5-94.4c0.4-1.2,0.7-2.3,1.1-3.4h13.4c-8.8,23.5-14.1,58.6-13.4,97.8
				C324.4,220.3,332.1,258.5,343.4,281.6z"/>
		</g>
		<g>
			
				<ellipse transform="matrix(0.7007 -0.7135 0.7135 0.7007 7.5588 209.5818)" class="st3" cx="253.6" cy="95.8" rx="4.2" ry="4.3"/>
		</g>
		<g>
			<ellipse transform="matrix(0.7007 -0.7135 0.7135 0.7007 12.1878 220.6197)" class="st3" cx="269" cy="95.8" rx="4.2" ry="4.3"/>
		</g>
		<g>
			
				<ellipse transform="matrix(0.7007 -0.7135 0.7135 0.7007 16.8167 231.6576)" class="st3" cx="284.5" cy="95.8" rx="4.2" ry="4.3"/>
		</g>
		<g>
			<path class="st3" d="M302.5,248.6h-38.7c-3.5,0-6.4-2.8-6.5-6.3l0,0c-0.2-3.3,2.3-6.1,5.6-6.3c0.1,0,0.3,0,0.4,0H302
				c3.5,0,6.4,2.8,6.5,6.3l0,0c0.2,3.3-2.3,6.1-5.6,6.3C302.8,248.6,302.7,248.6,302.5,248.6z"/>
		</g>
		<g>
			<path class="st4" d="M390.2,248.6h-38.7c-3.5,0-6.4-2.8-6.5-6.3l0,0c-0.2-3.3,2.3-6.1,5.6-6.3c0.1,0,0.3,0,0.4,0h38.7
				c3.5,0,6.4,2.8,6.5,6.3l0,0c0.2,3.3-2.3,6.1-5.6,6.3C390.4,248.6,390.3,248.6,390.2,248.6z"/>
		</g>
		<g>
			<path class="st3" d="M281.6,214.2h-18.8c-3.5,0-6.4-2.8-6.5-6.3l0,0c-0.1-3.3,2.4-6.1,5.7-6.3c0.1,0,0.2,0,0.3,0h18.8
				c3.5,0,6.4,2.8,6.5,6.3l0,0c0.2,3.3-2.3,6.1-5.6,6.3C281.9,214.2,281.8,214.2,281.6,214.2z"/>
		</g>
		<g>
			<path class="st3" d="M276.9,155.4h-18.8c-3.5,0-6.4-2.8-6.5-6.3l0,0c-0.1-3.3,2.4-6.1,5.7-6.3c0.1,0,0.2,0,0.3,0h18.8
				c3.5,0,6.4,2.8,6.5,6.3l0,0c0.2,3.3-2.3,6.1-5.6,6.3C277.2,155.4,277.1,155.4,276.9,155.4z"/>
		</g>
		<g>
			<path class="st3" d="M275.7,131.4h-18.8c-3.5,0-6.4-2.8-6.5-6.3l0,0c-0.2-3.3,2.3-6.1,5.6-6.3c0.1,0,0.3,0,0.4,0h18.8
				c3.5,0,6.4,2.8,6.5,6.3l0,0c0.1,3.3-2.4,6.1-5.7,6.3C275.9,131.4,275.8,131.4,275.7,131.4z"/>
		</g>
		<g>
			<path class="st4" d="M408,201.7c-0.2,4.3-0.5,8.4-0.8,12.5H384c-3.5,0-6.4-2.8-6.5-6.3c0-0.1,0-0.2,0-0.3c-0.1-3.3,2.6-5.9,5.8-6
				c0.1,0,0.1,0,0.2,0L408,201.7z"/>
		</g>
		<g>
			<path class="st4" d="M407.4,155.4h-52.5c-1.6,0-2.9-1.2-2.9-2.8l-0.6-18.1c0-1.6,1.2-3,2.8-3c0,0,0.1,0,0.1,0h50.5
				C405.9,139.1,406.8,147.1,407.4,155.4z"/>
		</g>
		<g>
			<path class="st3" d="M428.4,4.2h1c6,0,10.9,4.9,10.9,10.9c0,0,0,0,0,0v8.7l0,0h-22.8l0,0v-8.7C417.5,9.1,422.4,4.2,428.4,4.2
				L428.4,4.2z"/>
		</g>
		<g>
			<path class="st3" d="M417.5,327.6h22.8l0,0v8.7c0,6-4.9,10.9-10.9,10.9l0,0h-1c-6,0-10.9-4.9-10.9-10.9l0,0L417.5,327.6
				L417.5,327.6z"/>
		</g>
		<g>
			
				<ellipse transform="matrix(5.759587e-03 -1 1 5.759587e-03 89.5864 762.5711)" class="st0" cx="428.3" cy="336.2" rx="5.4" ry="4.2"/>
		</g>
		<g>
			
				<ellipse transform="matrix(1 -5.759555e-03 5.759555e-03 1 -8.598831e-02 2.4669)" class="st0" cx="428.3" cy="16.2" rx="4.2" ry="5.4"/>
		</g>
		<g>
			<path class="st3" d="M480.9,152.8h-37.2c-2.7,0-5-2.1-5.2-4.8c-1.2-13.1-3.1-26.2-5.9-39.1c-0.6-2.8,1.2-5.6,4-6.2
				c0.4-0.1,0.7-0.1,1.1-0.1H474v1.5h-36.3c-0.3,0-0.5,0-0.8,0.1c-2,0.4-3.3,2.4-2.8,4.4c2.7,12.9,4.7,26.1,5.9,39.3
				c0.2,1.9,1.8,3.4,3.7,3.4h37.2V152.8z"/>
		</g>
		<g>
			<path class="st3" d="M402.3,292.5c-0.4,0-0.7-0.3-0.7-0.7c0-0.4,0.3-0.8,0.7-0.8l62.3-4c0.4,0,0.8,0.3,0.8,0.7
				c0,0.4-0.3,0.8-0.7,0.8L402.3,292.5C402.4,292.5,402.4,292.5,402.3,292.5z"/>
		</g>
		<g>
			<path class="st3" d="M406.8,314.5c-0.2,0-0.5-0.1-0.6-0.3c-0.2-0.3-0.1-0.8,0.2-1c9.6-6.3,17.4-20.4,23.2-41.9
				c3-11.5,5.3-23.4,6.8-35.2c0-0.4,0.4-0.7,0.7-0.7h8.5c1.1-8.3,1.9-17.3,2.4-26.7h-27c-0.4,0-0.8-0.3-0.8-0.8s0.3-0.8,0.8-0.8
				h27.8c0.2,0,0.4,0.1,0.5,0.2s0.2,0.3,0.2,0.6c-0.5,9.9-1.4,19.4-2.5,28.2c0,0.4-0.4,0.7-0.7,0.7h-8.4
				c-1.5,11.7-3.7,23.4-6.7,34.8c-5.9,21.9-14,36.3-23.8,42.8C407.1,314.5,407,314.5,406.8,314.5z"/>
		</g>
		<g>
			<path class="st3" d="M556.1,203.8C556.1,203.8,556.1,203.8,556.1,203.8H508c-1.3,0-2.6-0.5-3.5-1.5s-1.4-2.2-1.4-3.5
				c0-0.1,0-0.1,0-0.2c0.3-7.6,0.3-15.2,0.2-22.6c-0.2-13.1-1.1-26.1-2.5-38.8c-0.3-2.7,1.6-5.2,4.4-5.5c0.2,0,0.4,0,0.6,0h48.1
				c0,0,0,0,0,0c2.5,0,4.6,1.9,4.9,4.4c1.5,13,2.3,26.4,2.6,39.9c0.1,6.7,0,14.1-0.2,23C561,201.7,558.8,203.8,556.1,203.8z
				 M553.8,133.2C553.8,133.2,553.8,133.2,553.8,133.2h-48.1c-0.1,0-0.3,0-0.4,0c-1.9,0.2-3.2,1.9-3,3.8c1.4,12.7,2.3,25.8,2.5,39
				c0.1,7.4,0.1,15-0.2,22.7l0,0.1c0,0.9,0.4,1.8,1,2.4c0.6,0.7,1.5,1,2.4,1h48.1c0,0,0,0,0,0c1.8,0,3.4-1.4,3.4-3.3
				c0.3-8.9,0.3-16.2,0.2-23c-0.2-13.5-1.1-26.9-2.6-39.8C557,134.5,555.6,133.2,553.8,133.2z"/>
		</g>
		<g>
			<path class="st4" d="M512.5,196.8c-1.3,0-2.4-1.1-2.4-2.3c0,0,0,0,0-0.1c0.2-6.1,0.2-12.3,0.1-18.4c-0.2-11.6-0.9-23.2-2-34.6
				c-0.1-1.3,0.8-2.4,2.1-2.6c0.1,0,0.2,0,0.3,0h39.2c1.2,0,2.2,0.9,2.4,2.1c1.2,11.5,1.9,23.4,2.1,35.3c0.1,6.1,0.1,12.2-0.1,18.3
				c0,1.3-1.1,2.3-2.4,2.3L512.5,196.8z"/>
		</g>
		<g>
			<rect x="488.8" y="113.6" class="st3" width="73.8" height="1.5"/>
		</g>
		<g>
			<rect x="492.6" y="221.4" class="st3" width="74" height="1.5"/>
		</g>
		<g>
			<path class="st3" d="M602.9,192.2h-14.3l0-0.8c0.2-7.5,0.1-15.1-0.2-22.6c-0.4-7.9-1-15.7-2-23.4l-0.1-0.8h14.4v1.5h-12.8
				c0.9,7.5,1.5,15.1,1.9,22.7c0.3,7.2,0.4,14.6,0.3,21.9h12.8V192.2z"/>
		</g>
		<g>
			<rect x="599.5" y="136.4" class="st3" width="11.2" height="1.5"/>
		</g>
		<g>
			<rect x="602.6" y="198.9" class="st3" width="10.9" height="1.5"/>
		</g>
		<g>
			
				<ellipse transform="matrix(0.689 -0.7248 0.7248 0.689 102.5722 376.9174)" class="st0" cx="490.5" cy="68.9" rx="4.3" ry="4.7"/>
		</g>
		<g>
			<ellipse transform="matrix(0.689 -0.7248 0.7248 0.689 83.405 392.5471)" class="st0" cx="499.1" cy="99.1" rx="4.3" ry="4.7"/>
		</g>
		<g>
			<ellipse transform="matrix(0.689 -0.7248 0.7248 0.689 93.4123 385.1006)" class="st3" cx="495.4" cy="83.7" rx="4.3" ry="4.7"/>
		</g>
		<g>
			
				<ellipse transform="matrix(0.6578 -0.7532 0.7532 0.6578 -14.2637 506.2475)" class="st0" cx="550" cy="268.8" rx="4.7" ry="4.3"/>
		</g>
		<g>
			
				<ellipse transform="matrix(0.6578 -0.7532 0.7532 0.6578 10.9366 500.0689)" class="st3" cx="555.8" cy="238" rx="4.7" ry="4.3"/>
		</g>
		<g>
			
				<ellipse transform="matrix(0.6578 -0.7532 0.7532 0.6578 -1.6282 503.7538)" class="st0" cx="553.5" cy="253.7" rx="4.7" ry="4.3"/>
		</g>
		<g>
			<ellipse transform="matrix(0.689 -0.7248 0.7248 0.689 73.552 342.1743)" class="st3" cx="435.5" cy="85.4" rx="3.1" ry="3.5"/>
		</g>
		<g>
			
				<ellipse transform="matrix(0.689 -0.7248 0.7248 0.689 57.1265 355.2584)" class="st0" cx="442.5" cy="111.1" rx="3.1" ry="3.5"/>
		</g>
		<g>
			<ellipse transform="matrix(0.689 -0.7248 0.7248 0.689 66.5963 348.0877)" class="st3" cx="438.9" cy="96.4" rx="3.1" ry="3.5"/>
		</g>
		<g>
			<path class="st3" d="M533,183.2C533,183.2,533,183.2,533,183.2c-5.7,0-11-3.1-13.8-8c-0.7-1.2-0.3-2.7,0.9-3.4
				c1.2-0.7,2.7-0.3,3.4,0.9c2,3.3,5.6,5.4,9.4,5.5c0.2,0,0.4,0,0.6,0c2.6-0.1,5-1.3,6.7-3.2c1.7-1.9,2.6-4.4,2.5-7
				c-0.3-5.8-5.1-10.5-10.9-10.5c-1.4,0-2.5-1.1-2.5-2.5c0-1.4,1.1-2.5,2.5-2.5c8.5,0.1,15.5,6.8,15.9,15.3
				c0.2,3.9-1.1,7.7-3.8,10.6c-2.6,2.9-6.3,4.6-10.2,4.9C533.6,183.1,533.3,183.2,533,183.2z"/>
		</g>
		<g>
			<path class="st3" d="M521.9,162.4c-0.5,0-1-0.2-1.5-0.5c-1.1-0.8-1.4-2.4-0.6-3.5c0.1-0.1,0.2-0.2,0.3-0.3c0.9-1,2.5-1.2,3.5-0.2
				c1,0.9,1.2,2.5,0.2,3.5C523.4,162.1,522.7,162.4,521.9,162.4z"/>
		</g>
		<g>
			<path class="st3" d="M519.6,168.9c-1.3,0-2.4-1-2.5-2.3c0-0.2,0-0.4,0-0.6c0.1-1.4,1.3-2.4,2.7-2.3c1.4,0.1,2.4,1.3,2.3,2.6
				c0.1,1.3-1,2.5-2.3,2.6C519.7,168.9,519.7,168.9,519.6,168.9z"/>
		</g>
		<g>
			<rect x="513.7" y="142.5" class="st0" width="20.2" height="1.5"/>
		</g>
		<g>
			<polygon class="st3" points="549.7,144.8 546.7,144.8 546.5,141.8 549.4,141.8 			"/>
		</g>
		<g>
			<path class="st3" d="M452.4,67.3c-2.7,0-5.3-1.5-6.6-3.9c-8.2-15.1-18.1-23.5-29.4-25.1c-0.4-0.1-0.7-0.4-0.6-0.8
				c0.1-0.4,0.4-0.7,0.8-0.6c11.8,1.7,22.1,10.4,30.6,25.9c1.1,1.9,3.1,3.1,5.3,3.1c0,0,0,0,0,0h9.6c0.4,0,0.8,0.3,0.8,0.8
				s-0.3,0.8-0.8,0.8H452.4C452.4,67.3,452.4,67.3,452.4,67.3z"/>
		</g>
		<g>
			<polygon class="st4" points="724.4,194.4 693.7,184 678.3,212.4 652.5,134.8 689.8,120.2 			"/>
		</g>
		<g>
			<polygon class="st1" points="671.6,257.6 691.7,235.8 670.8,236.6 			"/>
		</g>
		<g>
			<polygon class="st1" points="735.2,104.1 716.5,136.4 753.8,136.4 			"/>
		</g>
		<g>
			<rect x="790.4" y="132.5" class="st4" width="12.8" height="12.8"/>
		</g>
		<g>
			
				<rect x="637.6" y="148.9" transform="matrix(0.971 -0.239 0.239 0.971 -19.9276 161.723)" class="st0" width="38.3" height="28.2"/>
		</g>
		<g>
			
				<rect x="752" y="186" transform="matrix(0.3562 -0.9344 0.9344 0.3562 307.4463 837.872)" class="st3" width="19.6" height="19.6"/>
		</g>
		<g>
			
				<rect x="828.7" y="270.9" transform="matrix(0.9215 -0.3883 0.3883 0.9215 -45.9893 351.8374)" class="st3" width="37.6" height="37.6"/>
		</g>
		<g>
			
				<rect x="730.8" y="51.8" transform="matrix(0.7727 -0.6347 0.6347 0.7727 131.1847 483.3612)" class="st0" width="19.6" height="13.5"/>
		</g>
		<g>
			<path class="st4" d="M628.8,79.8l23-12.5c0,0,15.8,11.6,27.2,28.1l-35.2,17.2C643.8,112.6,635.7,90.2,628.8,79.8z"/>
		</g>
		<g>
			<polygon class="st4" points="608,52.6 621.7,36.4 637.6,51.5 619.6,66.7 			"/>
		</g>
		<g>
			<path class="st0" d="M567.6,209.1c-0.2,2.4-0.3,4.9-0.5,7.3h-73.8l0.5-7.3H567.6z"/>
		</g>
		<g>
			<path class="st1" d="M559.6,218.9l-1.5-0.1c0.4-4.1,0.9-13.2,0.9-13.2l1.5,0.1C560.5,205.7,559.9,214.9,559.6,218.9z"/>
		</g>
		<g>
			<path class="st1" d="M503.6,218.9l-1.5-0.1c0.4-4.1,0.9-13.2,0.9-13.2l1.5,0.1C504.5,205.7,504,214.9,503.6,218.9z"/>
		</g>
		<g>
			<rect x="508.3" y="212" class="st3" width="4.5" height="1.5"/>
		</g>
		<g>
			<rect x="525.3" y="212" class="st3" width="4.5" height="1.5"/>
		</g>
		<g>
			<rect x="533.8" y="212" class="st3" width="4.5" height="1.5"/>
		</g>
		<g>
			<rect x="550.8" y="212" class="st3" width="4.5" height="1.5"/>
		</g>
		<g>
			<path class="st3" d="M480.1,14.8V23h-1.6v-8.2c0-5.8-4.7-10.6-10.6-10.6h4.2c1.4,0,2.7,0.5,3.7,1.3
				C478.5,7.9,480.1,11.2,480.1,14.8z"/>
		</g>
		<g>
			<path class="st3" d="M483.2,336.6v-8.2h-1.6v8.2c0,5.8-4.7,10.6-10.6,10.6h4.2c1.3,0,2.7-0.5,3.7-1.3
				C481.7,343.5,483.2,340.2,483.2,336.6z"/>
		</g>
		<g>
			<path class="st0" d="M519.4,49.8h-25.1c-2.2-4.2-4.7-8.3-7.5-12.2c-7-9.4-14.9-15.9-23.9-18.3h27.3c9,2.4,14.8,8.9,21.7,18.3
				C514.7,41.5,517.2,45.6,519.4,49.8z"/>
		</g>
		<g>
			<path class="st0" d="M524,302.6c-1,1.9-2,3.8-3.1,5.5c-8.2,13.8-15.4,23.2-27.5,24.9H462c6.8-0.3,13.4-2.7,18.7-7
				c5.6-4.3,10.7-10.5,15.1-18c1-1.8,2.1-3.6,3-5.5L524,302.6z"/>
		</g>
		<g>
			<path class="st3" d="M514.9,309h-12.5c-0.4,0-0.8-0.3-0.8-0.8s0.3-0.8,0.8-0.8h12.5c0.4,0,0.8,0.3,0.8,0.8S515.3,309,514.9,309z"
				/>
		</g>
		<g>
			<path class="st3" d="M511.4,45.6h-12.5c-0.4,0-0.8-0.3-0.8-0.8s0.3-0.8,0.8-0.8h12.5c0.4,0,0.8,0.3,0.8,0.8
				S511.9,45.6,511.4,45.6z"/>
		</g>
	</g>
</g>
</svg>
