<svg width="520" height="365" viewBox="0 0 520 365" fill="none" xmlns="http://www.w3.org/2000/svg">
<path d="M177.219 54.6074L145.013 63.264L168.59 86.8912L177.219 54.6074Z" fill="#4CC3FF"/>
<path d="M165.398 54.7906L159.007 48.3848L156.659 57.1431L165.398 54.7906Z" fill="#4CC3FF"/>
<path d="M150.632 49.7793L145.063 51.2764L149.138 55.3704L150.632 49.7793Z" fill="#4CC3FF"/>
<path d="M170.978 39.6777L166.73 43.5885L172.238 45.3198L170.978 39.6777Z" fill="#4CC3FF"/>
<path d="M442.804 94.8044C442.153 96.6783 435.405 98.155 427.163 98.155C418.921 98.155 412.173 96.6783 411.522 94.8044C411.551 94.5238 411.595 94.245 411.655 93.9693C412.793 88.1949 419.307 83.7852 427.163 83.7852C435.019 83.7852 441.543 88.2051 442.671 93.9693C442.731 94.245 442.775 94.5238 442.804 94.8044Z" fill="#4CC3FF"/>
<path d="M445.507 302.368H442.082C425.506 278.14 350.281 259.859 259.975 259.859C169.668 259.859 94.5143 278.14 77.8981 302.368H74.4834V312.165C74.4834 312.247 74.4834 312.338 74.4834 312.43C74.4834 341.465 157.544 365.001 259.995 365.001C362.446 365.001 445.507 341.465 445.507 312.43C445.507 312.338 445.507 312.247 445.507 312.165V302.368Z" fill="#000D1A"/>
<path d="M259.995 354.938C362.45 354.938 445.507 331.401 445.507 302.367C445.507 273.334 362.45 249.797 259.995 249.797C157.54 249.797 74.4834 273.334 74.4834 302.367C74.4834 331.401 157.54 354.938 259.995 354.938Z" fill="white"/>
<path d="M259.995 346.17C355.799 346.17 433.464 326.56 433.464 302.368C433.464 278.177 355.799 258.566 259.995 258.566C164.191 258.566 86.5264 278.177 86.5264 302.368C86.5264 326.56 164.191 346.17 259.995 346.17Z" fill="#FFBF00"/>
<path d="M443.626 272.172H76.3633L87.2273 306.289L433.088 305.27L443.626 272.172Z" fill="#FFBF00"/>
<path d="M423.138 283.984L412.173 325.648" stroke="white" stroke-width="1.5" stroke-linecap="round" stroke-linejoin="round"/>
<path d="M99.0869 283.984L110.052 325.648" stroke="white" stroke-width="1.5" stroke-linecap="round" stroke-linejoin="round"/>
<path d="M261.702 289.23V350.335" stroke="white" stroke-width="1.5" stroke-linecap="round" stroke-linejoin="round"/>
<path d="M259.995 326.503C358.432 326.503 438.23 309.76 438.23 289.107C438.23 268.454 358.432 251.711 259.995 251.711C161.558 251.711 81.7598 268.454 81.7598 289.107C81.7598 309.76 161.558 326.503 259.995 326.503Z" stroke="white" stroke-width="1.5" stroke-linecap="round" stroke-linejoin="round"/>
<path d="M469.928 250.448C469.864 254.221 468.714 257.896 466.615 261.029C463.261 266.325 457.468 271.376 449.501 276.081C439.562 281.978 426.299 287.284 410.404 291.948C405.946 293.252 401.282 294.494 396.41 295.676C359.723 304.566 312.059 309.933 260.015 309.933C207.972 309.933 160.298 304.556 123.61 295.676C118.739 294.494 114.071 293.252 109.606 291.948C94.4837 287.549 81.7395 282.497 72.0036 276.927C71.5056 276.652 70.9873 276.367 70.5401 276.081C61.7798 270.887 55.6008 265.286 52.4707 259.39C50.9623 256.649 50.1557 253.577 50.123 250.448C50.123 242.8 55.2044 235.487 64.4932 228.776C65.2351 228.236 65.9973 227.758 66.79 227.177C70.8585 224.498 75.1141 222.115 79.524 220.048C85.4343 217.258 91.4976 214.807 97.685 212.705C136.182 199.466 194.618 190.932 260.036 190.932C325.454 190.932 383.88 199.415 422.376 212.705C428.564 214.807 434.627 217.258 440.537 220.048C444.948 222.119 449.207 224.501 453.281 227.177C463.993 234.326 469.928 242.188 469.928 250.448Z" fill="#000D1A"/>
<path d="M515.355 190.801L507.123 202.665L466.624 261.031L275.309 260.277L238.317 260.124L69.6754 259.462L52.3986 259.391L35.63 235.255L12.906 202.665L4.26758 190.23H13.1499H34.8779L484.267 190.74H506.178L515.355 190.801Z" fill="#000D1A"/>
<path d="M520 168.477H518.303C503.607 131.732 393.575 103.176 259.985 103.176C126.395 103.176 16.3723 131.691 1.67686 168.477H0V176.481C0 176.614 0 176.736 0 176.858C0 217.554 116.405 250.53 259.995 250.53C403.585 250.53 520 217.544 520 176.848C520 176.726 520 176.604 520 176.471V168.477Z" fill="#000D1A"/>
<path d="M259.995 240.722C403.586 240.722 519.99 207.733 519.99 167.04C519.99 126.346 403.586 93.3574 259.995 93.3574C116.404 93.3574 0 126.346 0 167.04C0 207.733 116.404 240.722 259.995 240.722Z" fill="white"/>
<path d="M259.995 228.42C394.269 228.42 503.119 200.939 503.119 167.04C503.119 133.141 394.269 105.66 259.995 105.66C125.721 105.66 16.8701 133.141 16.8701 167.04C16.8701 200.939 125.721 228.42 259.995 228.42Z" stroke="#4CC3FF" stroke-width="1.5" stroke-miterlimit="10"/>
<path d="M275.3 251.232H238.308V298.762H275.3V251.232Z" fill="white"/>
<path d="M275.3 292.336H238.308V298.762H275.3V292.336Z" fill="#4CC3FF"/>
<path d="M139.037 290.86C132.878 289.95 126.872 288.969 121.018 287.917C114.656 286.776 108.494 285.558 102.532 284.261L101.811 277.132L97.5625 235.428C109.514 238.137 122.329 240.52 135.876 242.648L138.58 283.813L139.037 290.86Z" fill="white"/>
<path d="M204.506 249.878V297.632C192.31 296.878 180.328 295.87 168.794 294.648L168.54 287.641L167.076 246.711C179.15 248.035 191.65 249.094 204.506 249.878Z" fill="white"/>
<path d="M71.9626 276.928C71.4646 276.653 70.9463 276.368 70.4992 276.083C61.7388 270.889 55.3667 265.756 52.2061 259.86L35.6712 235.489L32.1143 218.176C32.1143 218.176 38.2119 222.015 64.4421 228.747L65.682 229.063L69.6658 259.432L71.241 271.408L71.9626 276.928Z" fill="white"/>
<path d="M480.548 218.205L473.892 250.53L466.706 261.08C465.834 262.374 464.866 263.599 463.81 264.747L463.739 264.838L463.678 264.899C462.83 265.87 461.931 266.795 460.985 267.669L460.212 268.382L459.44 269.055C458.851 269.564 458.231 270.073 457.59 270.572C457.194 270.888 456.798 271.193 456.381 271.499C455.964 271.804 455.558 272.11 455.121 272.415C454.684 272.721 454.257 273.026 453.81 273.322C453.363 273.617 452.916 273.933 452.448 274.228C451.981 274.523 451.564 274.798 451.107 275.073C450.649 275.348 450.09 275.705 449.572 276.01C446.645 276.886 443.637 277.752 440.558 278.587L441.503 271.366L446.991 229.143C474.268 222.157 480.548 218.205 480.548 218.205Z" fill="white"/>
<path d="M414.714 237.107L410.496 278.75L409.775 285.879C406.252 286.558 402.657 287.237 398.992 287.916C392.752 289.036 386.339 290.079 379.754 291.043C377.64 291.358 375.516 291.664 373.361 291.959L373.819 284.922L376.522 243.778C389.947 241.863 402.732 239.633 414.714 237.107Z" fill="white"/>
<path d="M345.342 247.475L343.879 288.384L343.625 295.381C332.08 296.501 320.159 297.418 307.943 298.029V250.316C320.769 249.644 333.259 248.697 345.342 247.475Z" fill="white"/>
<path d="M70.9566 269.29L71.9729 276.928C71.5867 276.816 70.8956 276.195 70.5094 276.083C69.0528 275.221 67.6706 274.345 66.363 273.455L65.3468 272.793C63.5825 271.581 61.8862 270.272 60.2653 268.872L59.4727 268.17L58.6596 267.406C58.4259 267.192 58.2023 266.968 57.9787 266.744L57.623 266.388C57.4096 266.163 57.1962 265.95 56.9929 265.726C56.434 265.135 55.9055 264.524 55.4075 263.923L54.6961 263.006C54.459 262.701 54.2354 262.395 54.0254 262.09C60.4889 264.585 66.8407 266.978 70.4282 269.107L70.9566 269.29Z" fill="#4CC3FF"/>
<path d="M138.58 283.812L139.037 290.859C132.878 289.949 126.872 288.968 121.018 287.916C114.656 286.775 108.494 285.557 102.532 284.26L101.811 277.131L102.532 277.294C108.488 278.591 114.65 279.809 121.018 280.95C126.73 281.962 132.583 282.915 138.58 283.812Z" fill="#4CC3FF"/>
<path d="M168.794 287.671C180.329 288.893 192.26 289.901 204.506 290.655V297.631C192.311 296.878 180.329 295.869 168.794 294.647L168.54 287.641L168.794 287.671Z" fill="#4CC3FF"/>
<path d="M343.625 288.436H343.879L343.625 295.432C332.08 296.552 320.159 297.469 307.943 298.08V291.104C320.129 290.442 332.08 289.556 343.625 288.436Z" fill="#4CC3FF"/>
<path d="M409.775 278.893L410.496 278.75L409.775 285.879C406.252 286.558 402.657 287.237 398.992 287.916C392.752 289.036 386.339 290.078 379.754 291.042C377.64 291.358 375.516 291.664 373.361 291.959L373.819 284.922C375.851 284.647 377.792 284.361 379.754 284.066C386.339 283.095 392.752 282.053 398.992 280.94C402.65 280.281 406.245 279.599 409.775 278.893Z" fill="#4CC3FF"/>
<path d="M463.809 264.788L463.728 264.879L463.667 264.94C462.819 265.911 461.92 266.836 460.974 267.711L460.202 268.423L459.429 269.096C458.84 269.605 458.22 270.114 457.58 270.613C457.183 270.929 456.787 271.234 456.37 271.54C455.954 271.845 455.547 272.151 455.11 272.456C454.673 272.762 454.246 273.067 453.799 273.363C453.352 273.658 452.905 273.974 452.437 274.269C451.97 274.564 451.553 274.839 451.096 275.114C450.639 275.389 450.08 275.746 449.561 276.051C446.634 276.927 443.626 277.793 440.547 278.628L441.492 271.407C444.988 270.501 455.395 267.802 463.85 264.727L463.809 264.788Z" fill="#4CC3FF"/>
<path d="M129.423 69.4463C128.981 69.4067 128.537 69.4597 128.117 69.6019C127.697 69.7442 127.311 69.9725 126.984 70.2724C126.657 70.5723 126.396 70.9372 126.217 71.3438C126.039 71.7504 125.947 72.1898 125.947 72.634V195.2C125.946 195.954 126.21 196.684 126.693 197.262C127.177 197.84 127.848 198.228 128.59 198.357C156.507 203.113 190.095 206.189 226.569 206.922C226.994 206.929 227.417 206.851 227.811 206.693C228.206 206.535 228.566 206.3 228.869 206.001C229.173 205.703 229.414 205.347 229.579 204.954C229.744 204.562 229.83 204.14 229.831 203.714V91.658L211.945 73.6931C181.853 73.0923 153.875 71.6054 129.423 69.4463Z" fill="#FFBF00"/>
<path d="M371.613 4.91825V89.6198C371.614 89.8754 371.561 90.1283 371.455 90.3609C371.349 90.5936 371.194 90.8004 371.001 90.9671C370.808 91.1337 370.58 91.2562 370.335 91.3261C370.09 91.3959 369.832 91.4114 369.58 91.3715C341.594 87.8593 313.432 85.9247 285.229 85.5767C284.775 85.5533 284.347 85.3566 284.034 85.0271C283.72 84.6976 283.544 84.2601 283.542 83.8047V10.7232L294.243 0.111328C321.287 0.488142 346.846 1.54729 369.966 3.16657C370.411 3.19498 370.829 3.39168 371.135 3.71689C371.44 4.04209 371.611 4.47151 371.613 4.91825Z" fill="#4CC3FF"/>
<path d="M289.731 67.0326L294.568 65.3421L303.817 64.2422L309.711 67.2974L311.713 77.1964L309.213 102.524L295.483 105.641L287.861 102.524L286.245 81.4738L289.731 67.0326Z" fill="#000D1A"/>
<path d="M309.214 102.523C312.882 109.123 311.947 137.72 310.017 158.119L305.545 158.679L296.673 102.523H309.214Z" fill="#FFBF00"/>
<path d="M287.872 102.523C286.205 119.623 284.396 152.64 285.138 158.231L289.549 157.61C293.4 144.869 297.537 123.737 300.85 102.523H287.872Z" fill="#FFBF00"/>
<path d="M276.763 165.034C276.763 165.034 276.458 162.763 284.751 160.726L284.985 155.634L291.56 150.338C291.56 150.338 289.335 161.49 289.101 164.239C287.129 164.779 278.267 166.256 276.763 165.034Z" fill="#000D1A"/>
<path d="M305.484 164.22L305.098 155.869L310.25 155.584C310.25 155.584 310.311 160.126 310.321 164.261L305.484 164.22Z" fill="#000D1A"/>
<path d="M298.563 66.6144C302.486 66.6144 305.667 63.4272 305.667 59.4957C305.667 55.5641 302.486 52.377 298.563 52.377C294.639 52.377 291.459 55.5641 291.459 59.4957C291.459 63.4272 294.639 66.6144 298.563 66.6144Z" fill="#FFBF00"/>
<path d="M294.192 65.1078L294.66 60.3722C294.735 59.6049 295.086 58.8912 295.647 58.3631C296.207 57.8351 296.94 57.5285 297.709 57.5002L300.371 57.3882C301.263 57.3478 302.15 57.2354 303.024 57.0521L304.619 56.7059C305.119 56.6026 305.558 56.3064 305.841 55.8815C306.125 55.4565 306.23 54.9368 306.134 54.4348C305.928 53.3573 305.386 52.373 304.586 51.6243C303.786 50.8756 302.769 50.4012 301.682 50.2695C299.895 50.0453 298.089 50.018 296.296 50.188C295.114 50.317 293.98 50.7285 292.99 51.3877C292 52.047 291.182 52.9347 290.605 53.9765L290.554 54.058C289.977 55.0808 289.644 56.2238 289.583 57.3972C289.521 58.5706 289.732 59.7423 290.198 60.8203L291.499 63.8144C291.721 64.3206 292.117 64.7299 292.616 64.9674C293.114 65.2049 293.681 65.2548 294.213 65.1078H294.192Z" fill="#000D1A"/>
<path d="M295.417 63.0806C296.178 62.7475 296.393 61.554 295.897 60.4149C295.4 59.2758 294.381 58.6223 293.62 58.9555C292.858 59.2886 292.644 60.482 293.14 61.6212C293.636 62.7603 294.656 63.4137 295.417 63.0806Z" fill="#FFBF00"/>
<path d="M303.329 167.02C303.329 168.415 309.132 167.682 310.849 166.613C310.934 166.214 310.931 165.801 310.84 165.403C310.748 165.006 310.571 164.633 310.321 164.311C310.321 164.311 309.711 163.619 306.144 163.945C306.144 163.894 303.309 164.729 303.329 167.02Z" fill="#000D1A"/>
<path d="M310.168 67.5219C312.425 69.0495 314.64 70.6484 316.856 72.2575C319.071 73.8666 321.256 75.5165 323.39 77.2579L320.992 76.7895C323.516 76.2537 326.067 75.8559 328.634 75.5979C329.915 75.4655 331.205 75.3433 332.496 75.2619C333.787 75.1804 335.088 75.1091 336.399 75.1193C336.896 75.1219 337.377 75.2979 337.76 75.6171C338.142 75.9362 338.402 76.3787 338.494 76.8686C338.587 77.3586 338.506 77.8655 338.267 78.3026C338.027 78.7396 337.643 79.0796 337.181 79.2642C335.962 79.7531 334.722 80.1502 333.482 80.5474C332.242 80.9446 331.002 81.2909 329.762 81.6371C327.278 82.3337 324.757 82.8913 322.211 83.3073C321.49 83.4193 320.752 83.3054 320.097 82.9814L319.813 82.8389C317.343 81.6168 314.955 80.303 312.557 78.9689C310.158 77.6348 307.8 76.2803 305.443 74.8952C304.452 74.2942 303.74 73.3236 303.464 72.1967C303.188 71.0699 303.369 69.8792 303.969 68.8866C304.569 67.894 305.537 67.1807 306.662 66.9038C307.786 66.6269 308.975 66.8089 309.965 67.4099L310.168 67.5219Z" fill="#000D1A"/>
<path d="M294.966 73.4591C293.573 75.6283 292.1 77.7467 290.626 79.865C289.152 81.9833 287.577 84.071 286.032 86.1078L285.829 86.3624C285.452 86.8434 284.954 87.2156 284.386 87.441C283.818 87.6664 283.201 87.737 282.597 87.6456C280.052 87.2269 277.531 86.6693 275.046 85.9754C273.796 85.6292 272.546 85.2829 271.317 84.8857C270.087 84.4886 268.847 84.0812 267.628 83.6025C267.152 83.4274 266.755 83.0894 266.504 82.6485C266.254 82.2075 266.167 81.692 266.26 81.1933C266.352 80.6945 266.618 80.2446 267.01 79.9232C267.401 79.6018 267.894 79.4297 268.4 79.4372C269.711 79.4372 271.012 79.4983 272.302 79.5798C273.593 79.6613 274.884 79.7835 276.175 79.9159C278.741 80.172 281.292 80.5664 283.817 81.0972L280.382 82.635C281.459 80.2723 282.638 77.9809 283.837 75.6895C285.037 73.398 286.256 71.127 287.537 68.8966C287.827 68.4011 288.212 67.9678 288.669 67.6213C289.126 67.2748 289.647 67.022 290.202 66.8773C290.757 66.7326 291.335 66.6989 291.903 66.778C292.471 66.8571 293.018 67.0476 293.512 67.3385C294.007 67.6293 294.439 68.015 294.785 68.4733C295.131 68.9317 295.383 69.4538 295.527 70.0099C295.672 70.5659 295.705 71.1451 295.626 71.7142C295.548 72.2833 295.357 72.8312 295.067 73.3267L294.966 73.4591Z" fill="#000D1A"/>
<path d="M340.453 74.3441C339.272 74.333 338.107 74.624 337.069 75.1893L337.882 78.3973L340.504 78.1326L340.453 74.3441Z" fill="#FFBF00"/>
<path d="M340.332 78.1323C341.375 78.1323 342.222 77.2842 342.222 76.238C342.222 75.1918 341.375 74.3438 340.332 74.3438C339.288 74.3438 338.441 75.1918 338.441 76.238C338.441 77.2842 339.288 78.1323 340.332 78.1323Z" fill="#FFBF00"/>
<path d="M337.73 78.4076C338.656 78.4076 339.407 77.6553 339.407 76.7272C339.407 75.7992 338.656 75.0469 337.73 75.0469C336.804 75.0469 336.054 75.7992 336.054 76.7272C336.054 77.6553 336.804 78.4076 337.73 78.4076Z" fill="#FFBF00"/>
<path d="M341.012 74.4763C341.338 74.4763 341.602 74.2118 341.602 73.8856C341.602 73.5594 341.338 73.2949 341.012 73.2949C340.687 73.2949 340.423 73.5594 340.423 73.8856C340.423 74.2118 340.687 74.4763 341.012 74.4763Z" fill="#FFBF00"/>
<path d="M340.85 73.3262C339.608 73.5887 338.46 74.1835 337.527 75.0473L338.92 76.0657C339.471 75.2741 340.273 74.6926 341.196 74.4159L340.85 73.3262Z" fill="#FFBF00"/>
<path d="M343.451 75.9436C343.912 75.9436 344.285 75.5698 344.285 75.1085C344.285 74.6473 343.912 74.2734 343.451 74.2734C342.991 74.2734 342.618 74.6473 342.618 75.1085C342.618 75.5698 342.991 75.9436 343.451 75.9436Z" fill="#FFBF00"/>
<path d="M342.791 74.5877C342.2 74.7737 341.562 74.7412 340.992 74.4961L341.195 77.9282C342.379 77.3902 343.407 76.5597 344.183 75.5145L342.791 74.5877Z" fill="#FFBF00"/>
<path d="M263.653 79.09C264.214 80.2115 265.049 81.1718 266.082 81.8804L268.175 79.0187L267.098 77.1855L263.653 79.09Z" fill="#FFBF00"/>
<path d="M265.473 80.2723C266.578 80.2723 267.474 79.3741 267.474 78.266C267.474 77.158 266.578 76.2598 265.473 76.2598C264.367 76.2598 263.471 77.158 263.471 78.266C263.471 79.3741 264.367 80.2723 265.473 80.2723Z" fill="#FFBF00"/>
<path d="M267.19 82.257C268.167 82.257 268.958 81.4636 268.958 80.4849C268.958 79.5063 268.167 78.7129 267.19 78.7129C266.214 78.7129 265.422 79.5063 265.422 80.4849C265.422 81.4636 266.214 82.257 267.19 82.257Z" fill="#FFBF00"/>
<path d="M283.166 82.013L270.696 86.6569L260.422 67.3784L272.892 62.7344L283.166 82.013Z" fill="#4CC3FF"/>
<path d="M265.473 80.2723C266.578 80.2723 267.474 79.3741 267.474 78.266C267.474 77.158 266.578 76.2598 265.473 76.2598C264.367 76.2598 263.471 77.158 263.471 78.266C263.471 79.3741 264.367 80.2723 265.473 80.2723Z" fill="#FFBF00"/>
<path d="M303.725 56.7154C305.628 56.7154 307.17 55.1697 307.17 53.263C307.17 51.3563 305.628 49.8105 303.725 49.8105C301.823 49.8105 300.28 51.3563 300.28 53.263C300.28 55.1697 301.823 56.7154 303.725 56.7154Z" fill="#000D1A"/>
<path d="M300.28 54.6998C302.182 54.6998 303.725 53.1541 303.725 51.2473C303.725 49.3406 302.182 47.7949 300.28 47.7949C298.377 47.7949 296.835 49.3406 296.835 51.2473C296.835 53.1541 298.377 54.6998 300.28 54.6998Z" fill="#000D1A"/>
<path d="M295.544 54.6998C297.447 54.6998 298.989 53.1541 298.989 51.2473C298.989 49.3406 297.447 47.7949 295.544 47.7949C293.642 47.7949 292.1 49.3406 292.1 51.2473C292.1 53.1541 293.642 54.6998 295.544 54.6998Z" fill="#000D1A"/>
<path d="M291.459 54.6794C292.727 54.6794 293.755 53.6489 293.755 52.3778C293.755 51.1066 292.727 50.0762 291.459 50.0762C290.19 50.0762 289.162 51.1066 289.162 52.3778C289.162 53.6489 290.19 54.6794 291.459 54.6794Z" fill="#000D1A"/>
<path d="M290.605 57.6325C291.874 57.6325 292.902 56.6021 292.902 55.3309C292.902 54.0598 291.874 53.0293 290.605 53.0293C289.337 53.0293 288.309 54.0598 288.309 55.3309C288.309 56.6021 289.337 57.6325 290.605 57.6325Z" fill="#000D1A"/>
<path d="M67.7965 26.0813V116.781C67.7945 117.555 67.5461 118.309 67.0873 118.931C66.6285 119.554 65.9833 120.014 65.2456 120.244C48.5685 125.54 35.4585 131.732 27.125 138.453C20.4887 133.412 16.8809 60.3102 16.8809 54.4848C16.8809 41.3575 49.0766 28.057 66.2721 24.8184C66.4577 24.7823 66.649 24.7879 66.8323 24.8347C67.0155 24.8815 67.1861 24.9684 67.3319 25.0891C67.4776 25.2098 67.5949 25.3614 67.6752 25.533C67.7555 25.7045 67.7969 25.8918 67.7965 26.0813Z" fill="#4CC3FF"/>
<path d="M480.842 44.026C480.677 43.9808 480.504 43.9741 480.336 44.0065C480.168 44.0389 480.01 44.1094 479.874 44.2127C479.737 44.316 479.626 44.4493 479.549 44.6023C479.472 44.7553 479.431 44.924 479.43 45.0953V124.389C494.481 130.887 503.119 138.443 503.119 146.509V57.7135C503.119 52.7334 495.03 48.0691 480.842 44.026Z" fill="#4CC3FF"/>
<path d="M447.072 78.2441C446.639 78.3075 446.243 78.5241 445.956 78.8548C445.669 79.1855 445.51 79.6084 445.507 80.0467V177.703C445.509 177.871 445.548 178.036 445.622 178.187C445.696 178.338 445.803 178.47 445.934 178.575C446.066 178.679 446.219 178.753 446.382 178.79C446.545 178.828 446.715 178.829 446.879 178.792C481.432 170.788 503.12 159.279 503.12 146.509V130.214L500.731 116.974L503.12 81.1772V57.7129C503.12 65.8297 481.534 73.1521 447.072 78.2441Z" fill="#FFBF00"/>
<path d="M351.582 223.909V190.23" stroke="#4CC3FF" stroke-width="1.5" stroke-linecap="round" stroke-linejoin="round"/>
<path d="M65.5498 203.48V169.791" stroke="#4CC3FF" stroke-width="1.5" stroke-linecap="round" stroke-linejoin="round"/>
<path d="M427.163 122.495V97.2793" stroke="#4CC3FF" stroke-width="1.5" stroke-linecap="round" stroke-linejoin="round"/>
<path d="M211.935 73.7441L229.831 91.6784H211.935V73.7441Z" fill="#000D1A"/>
<path d="M294.253 10.7239H283.553L294.253 0V10.7239Z" fill="#000D1A"/>
<path d="M356.054 37.1518L299.671 34.5141V19.9609L356.054 22.5986V37.1518Z" fill="white"/>
<path d="M352.242 35.7148L345.932 48.6385V36.6823L352.242 35.7148Z" fill="white"/>
<path d="M54.2042 45.6693C55.0748 44.7371 55.1194 43.3615 54.3038 42.5967C53.4883 41.832 52.1215 41.9678 51.251 42.9C50.3805 43.8322 50.3359 45.2078 51.1514 45.9726C51.9669 46.7373 53.3337 46.6016 54.2042 45.6693Z" fill="white"/>
<path d="M48.9033 51.2875V50.6968C48.913 50.3287 49.0161 49.9692 49.2028 49.652C49.3894 49.3349 49.6536 49.0706 49.9703 48.884L50.8849 48.3442C51.3225 48.0777 51.8103 47.9044 52.3177 47.835L52.9274 47.7536C53.3405 47.6975 53.7608 47.7358 54.157 47.8656L55.1732 48.1915C55.4813 48.3068 55.7452 48.5165 55.9277 48.7907C56.1101 49.0649 56.2017 49.3898 56.1894 49.7191V50.1163C55.1209 50.804 53.9222 51.263 52.6684 51.4645C51.4146 51.6661 50.1328 51.6058 48.9033 51.2875Z" fill="white"/>
<path d="M57.099 49.0595C59.7796 46.1889 59.9195 41.9553 57.4115 39.6035C54.9035 37.2516 50.6973 37.6721 48.0167 40.5426C45.3361 43.4132 45.1962 47.6468 47.7042 49.9987C50.2122 52.3505 54.4184 51.9301 57.099 49.0595Z" stroke="white" stroke-miterlimit="10"/>
<path d="M54.2003 73.3139C55.0709 72.3817 55.1154 71.006 54.2999 70.2413C53.4844 69.4765 52.1176 69.6123 51.2471 70.5445C50.3766 71.4767 50.332 72.8524 51.1475 73.6171C51.963 74.3818 53.3298 74.2461 54.2003 73.3139Z" fill="white"/>
<path d="M48.9033 78.9268V78.3464C48.9111 77.9778 49.0134 77.6175 49.2002 77.3001C49.3871 76.9826 49.6523 76.7187 49.9703 76.5336L50.8849 75.9836C51.3232 75.7204 51.811 75.5505 52.3177 75.4846L52.9274 75.4031C53.3397 75.3438 53.7601 75.3786 54.157 75.505L55.1732 75.841C55.4822 75.9551 55.747 76.1644 55.9297 76.4389C56.1123 76.7135 56.2032 77.039 56.1894 77.3687V77.7557C55.1227 78.4474 53.9239 78.9088 52.6695 79.1104C51.415 79.312 50.1324 79.2495 48.9033 78.9268Z" fill="white"/>
<path d="M57.0951 76.7021C59.7757 73.8315 59.9156 69.5979 57.4076 67.246C54.8996 64.8942 50.6934 65.3146 48.0128 68.1852C45.3322 71.0558 45.1923 75.2894 47.7003 77.6413C50.2083 79.9931 54.4145 79.5726 57.0951 76.7021Z" stroke="white" stroke-miterlimit="10"/>
<path d="M54.2052 104.009C55.0757 103.077 55.1203 101.701 54.3048 100.937C53.4893 100.172 52.1225 100.308 51.252 101.24C50.3815 102.172 50.3369 103.548 51.1524 104.312C51.9679 105.077 53.3347 104.941 54.2052 104.009Z" fill="white"/>
<path d="M48.9033 109.632V109.041C48.9128 108.674 49.0159 108.316 49.2027 108.001C49.3894 107.685 49.6537 107.423 49.9703 107.239L50.8849 106.689C51.3247 106.427 51.8115 106.254 52.3177 106.179L52.9274 106.098C53.3406 106.047 53.7598 106.085 54.157 106.21L55.1732 106.546C55.4814 106.658 55.7459 106.866 55.9286 107.138C56.1113 107.411 56.2026 107.735 56.1894 108.063V108.461C55.1209 109.148 53.9222 109.607 52.6684 109.809C51.4146 110.01 50.1328 109.95 48.9033 109.632Z" fill="white"/>
<path d="M57.1 107.409C59.7805 104.539 59.9205 100.305 57.4125 97.9531C54.9045 95.6012 50.6983 96.0217 48.0177 98.8922C45.3371 101.763 45.1972 105.996 47.7052 108.348C50.2132 110.7 54.4194 110.28 57.1 107.409Z" stroke="white" stroke-miterlimit="10"/>
<path d="M68.7308 148.934L75.6822 149.626C76.1391 149.705 76.5555 149.937 76.8624 150.286C77.1692 150.634 77.348 151.077 77.3692 151.541V179.802C77.375 180.016 77.3335 180.229 77.2476 180.426C77.1617 180.622 77.0337 180.797 76.8725 180.938C76.7113 181.079 76.5211 181.183 76.3153 181.242C76.1095 181.3 75.8933 181.313 75.6822 181.278L56.5456 178.712C56.0908 178.629 55.6778 178.393 55.3748 178.043C55.0718 177.693 54.8968 177.25 54.8789 176.787V170.748L68.7308 148.934Z" fill="#4CC3FF"/>
<path d="M72.5832 174.445V146.52C72.5686 146.124 72.4165 145.745 72.153 145.449C71.8895 145.154 71.5312 144.959 71.1401 144.9L51.5055 142.273C51.327 142.243 51.1441 142.253 50.9698 142.302C50.7956 142.351 50.6342 142.438 50.4974 142.556C50.3605 142.675 50.2514 142.822 50.178 142.988C50.1046 143.154 50.0686 143.334 50.0726 143.515V171.44C50.0844 171.837 50.234 172.217 50.4957 172.514C50.7573 172.812 51.1146 173.008 51.5055 173.07L71.1401 175.697C71.3199 175.727 71.5041 175.717 71.6796 175.668C71.8551 175.618 72.0176 175.53 72.1554 175.411C72.2932 175.291 72.403 175.143 72.4769 174.976C72.5509 174.809 72.5871 174.627 72.5832 174.445Z" fill="#000D1A"/>
<path d="M68.2123 150.502L54.3096 148.689V146.979L68.2123 148.761V150.502Z" fill="white"/>
<path d="M68.2123 155.379L54.3096 153.566V151.855L68.2123 153.638V155.379Z" fill="white"/>
<path d="M68.2123 160.258L54.3096 158.445V156.734L68.2123 158.517V160.258Z" fill="white"/>
<path d="M68.2123 165.137L54.3096 163.324V161.613L68.2123 163.396V165.137Z" fill="white"/>
<path d="M68.2123 170.014L54.3096 168.201V166.49L68.2123 168.272V170.014Z" fill="white"/>
<path d="M260.411 265.522C260.411 263.626 258.88 262.09 256.992 262.09C255.103 262.09 253.572 263.626 253.572 265.522V280.564C253.572 282.459 255.103 283.996 256.992 283.996C258.88 283.996 260.411 282.459 260.411 280.564V265.522Z" fill="#000D1A"/>
<path d="M256.996 267.996C258.371 267.996 259.486 266.879 259.486 265.501C259.486 264.123 258.371 263.006 256.996 263.006C255.622 263.006 254.507 264.123 254.507 265.501C254.507 266.879 255.622 267.996 256.996 267.996Z" fill="#FFBF00"/>
<path d="M256.996 282.682C258.371 282.682 259.486 281.565 259.486 280.187C259.486 278.808 258.371 277.691 256.996 277.691C255.622 277.691 254.507 278.808 254.507 280.187C254.507 281.565 255.622 282.682 256.996 282.682Z" fill="#FFBF00"/>
<path d="M325.595 281.632C325.15 281.635 324.709 281.548 324.299 281.376C323.888 281.204 323.517 280.95 323.206 280.631C322.896 280.311 322.653 279.932 322.493 279.516C322.332 279.1 322.257 278.656 322.272 278.21L322.699 263.168C322.718 262.242 323.097 261.361 323.756 260.712C324.415 260.063 325.301 259.698 326.225 259.695C326.671 259.692 327.113 259.78 327.524 259.952C327.936 260.125 328.308 260.38 328.618 260.7C328.929 261.021 329.171 261.401 329.331 261.818C329.491 262.236 329.565 262.681 329.548 263.127L329.132 278.169C329.108 279.094 328.725 279.974 328.065 280.62C327.404 281.267 326.519 281.63 325.595 281.632Z" fill="#000D1A"/>
<path d="M327.85 264.928C328.841 263.948 328.875 262.372 327.925 261.407C326.976 260.442 325.402 260.453 324.411 261.432C323.42 262.411 323.386 263.988 324.336 264.953C325.285 265.918 326.858 265.907 327.85 264.928Z" fill="#FFBF00"/>
<path d="M327.424 279.621C328.415 278.642 328.449 277.066 327.499 276.1C326.55 275.135 324.976 275.146 323.985 276.125C322.994 277.105 322.96 278.681 323.91 279.646C324.859 280.612 326.433 280.6 327.424 279.621Z" fill="white"/>
<path d="M391.674 274.503C391.238 274.517 390.804 274.434 390.404 274.262C390.003 274.089 389.644 273.831 389.354 273.505C389.063 273.179 388.847 272.793 388.722 272.374C388.596 271.955 388.563 271.514 388.626 271.082L390.333 256.04C390.454 255.106 390.905 254.246 391.604 253.616C392.303 252.987 393.204 252.629 394.143 252.608C394.578 252.604 395.007 252.694 395.404 252.87C395.801 253.047 396.155 253.306 396.444 253.631C396.732 253.956 396.949 254.339 397.078 254.754C397.207 255.17 397.246 255.608 397.192 256.04L395.495 271.082C395.371 272.015 394.918 272.874 394.217 273.502C393.516 274.13 392.614 274.485 391.674 274.503Z" fill="#000D1A"/>
<path d="M395.375 257.692C396.432 256.691 396.566 255.115 395.676 254.171C394.785 253.226 393.207 253.272 392.15 254.272C391.094 255.273 390.959 256.849 391.85 257.794C392.74 258.738 394.318 258.692 395.375 257.692Z" fill="#4CC3FF"/>
<path d="M393.7 272.374C394.757 271.373 394.891 269.797 394.001 268.852C393.11 267.908 391.532 267.954 390.476 268.954C389.419 269.955 389.284 271.531 390.175 272.475C391.065 273.42 392.644 273.374 393.7 272.374Z" fill="#FFBF00"/>
<path d="M459.613 258.208C459.185 258.224 458.759 258.14 458.368 257.964C457.977 257.789 457.632 257.525 457.359 257.195C457.086 256.864 456.893 256.475 456.794 256.057C456.694 255.64 456.693 255.205 456.788 254.786L459.42 239.744C459.594 238.796 460.086 237.935 460.814 237.304C461.541 236.673 462.462 236.309 463.423 236.271C463.853 236.256 464.28 236.339 464.671 236.515C465.063 236.692 465.409 236.956 465.682 237.288C465.955 237.62 466.149 238.011 466.247 238.429C466.345 238.848 466.346 239.284 466.248 239.703L463.627 254.745C463.448 255.693 462.953 256.551 462.224 257.181C461.495 257.81 460.574 258.172 459.613 258.208Z" fill="#000D1A"/>
<path d="M464.377 241.41C465.482 240.395 465.689 238.82 464.84 237.891C463.99 236.962 462.406 237.031 461.301 238.046C460.196 239.06 459.989 240.636 460.839 241.565C461.688 242.494 463.272 242.424 464.377 241.41Z" fill="#FFBF00"/>
<path d="M461.813 256.097C462.917 255.083 463.125 253.507 462.275 252.578C461.426 251.649 459.842 251.719 458.737 252.733C457.632 253.748 457.425 255.323 458.274 256.252C459.124 257.181 460.708 257.112 461.813 256.097Z" fill="white"/>
<path d="M186.203 281.632C186.648 281.635 187.089 281.548 187.5 281.376C187.912 281.204 188.284 280.951 188.595 280.632C188.906 280.312 189.15 279.933 189.311 279.517C189.473 279.101 189.549 278.657 189.536 278.21L189.109 263.168C189.08 262.252 188.697 261.382 188.042 260.742C187.386 260.102 186.508 259.741 185.593 259.736C185.146 259.733 184.704 259.821 184.292 259.993C183.881 260.166 183.508 260.42 183.197 260.741C182.885 261.061 182.642 261.442 182.481 261.859C182.32 262.276 182.245 262.721 182.26 263.168L182.686 278.21C182.715 279.126 183.098 279.995 183.754 280.634C184.41 281.272 185.288 281.63 186.203 281.632Z" fill="#000D1A"/>
<path d="M187.479 264.892C188.428 263.927 188.395 262.35 187.403 261.371C186.412 260.392 184.839 260.381 183.889 261.346C182.94 262.311 182.973 263.888 183.965 264.867C184.956 265.846 186.529 265.857 187.479 264.892Z" fill="#FFBF00"/>
<path d="M187.903 279.578C188.852 278.612 188.818 277.036 187.827 276.057C186.836 275.077 185.263 275.066 184.313 276.031C183.364 276.997 183.397 278.573 184.389 279.552C185.38 280.532 186.953 280.543 187.903 279.578Z" fill="white"/>
<path d="M120.134 274.503C120.57 274.517 121.004 274.434 121.405 274.262C121.805 274.089 122.164 273.831 122.454 273.505C122.745 273.179 122.961 272.793 123.086 272.374C123.212 271.955 123.245 271.514 123.183 271.082L121.475 256.04C121.354 255.106 120.903 254.246 120.204 253.616C119.505 252.987 118.604 252.629 117.665 252.608C117.231 252.604 116.801 252.694 116.404 252.87C116.007 253.047 115.653 253.306 115.364 253.631C115.076 253.956 114.86 254.339 114.731 254.754C114.602 255.17 114.563 255.608 114.616 256.04L116.323 271.082C116.447 272.014 116.899 272.871 117.597 273.499C118.296 274.126 119.196 274.482 120.134 274.503Z" fill="#000D1A"/>
<path d="M119.943 257.855C120.834 256.91 120.699 255.334 119.643 254.333C118.586 253.333 117.008 253.287 116.117 254.232C115.227 255.176 115.361 256.752 116.418 257.753C117.474 258.753 119.053 258.799 119.943 257.855Z" fill="#4CC3FF"/>
<path d="M121.607 272.542C122.498 271.598 122.363 270.021 121.307 269.021C120.25 268.02 118.672 267.975 117.781 268.919C116.891 269.863 117.025 271.44 118.082 272.44C119.138 273.441 120.717 273.487 121.607 272.542Z" fill="#FFBF00"/>
<path d="M52.1958 258.208C52.6238 258.224 53.0497 258.14 53.4404 257.964C53.8312 257.789 54.1764 257.525 54.4494 257.195C54.7225 256.864 54.916 256.475 55.0151 256.057C55.1141 255.64 55.1161 255.205 55.0208 254.786L52.3889 239.744C52.2138 238.794 51.7207 237.932 50.9909 237.301C50.2612 236.669 49.3384 236.306 48.3749 236.271C47.9458 236.256 47.5189 236.339 47.1272 236.515C46.7355 236.692 46.3896 236.956 46.1164 237.288C45.8431 237.62 45.6499 238.011 45.5517 238.429C45.4534 238.848 45.4528 239.284 45.5499 239.703L48.1717 254.745C48.351 255.695 48.847 256.554 49.5782 257.184C50.3095 257.813 51.2326 258.174 52.1958 258.208Z" fill="#000D1A"/>
<path d="M51.8371 242.492C52.692 241.56 52.4861 239.976 51.3772 238.955C50.2683 237.934 48.6763 237.862 47.8214 238.794C46.9665 239.727 47.1724 241.31 48.2813 242.331C49.3902 243.353 50.9822 243.425 51.8371 242.492Z" fill="#FFBF00"/>
<path d="M53.534 256.238C54.3833 255.309 54.1762 253.734 53.0714 252.719C51.9666 251.705 50.3824 251.635 49.533 252.564C48.6837 253.493 48.8908 255.069 49.9956 256.083C51.1004 257.098 52.6846 257.167 53.534 256.238Z" fill="white"/>
<path d="M193.872 154.968C202.432 146.653 202.213 132.513 193.384 123.386C184.555 114.259 170.459 113.601 161.899 121.917C153.339 130.232 153.558 144.371 162.387 153.498C171.216 162.625 185.312 163.283 193.872 154.968Z" fill="white"/>
<path d="M182.441 95.2422H173.326V104.377H182.441V95.2422Z" fill="white"/>
<path d="M154.921 171.918H145.806V181.053H154.921V171.918Z" fill="white"/>
<path d="M211.639 106.363H206.487V111.527H211.639V106.363Z" fill="white"/>
<path d="M209.069 173.904H203.917V179.068H209.069V173.904Z" fill="white"/>
<path d="M145.805 115.682H140.653V120.845H145.805V115.682Z" fill="white"/>
<path d="M220.888 139.676H215.736V144.839H220.888V139.676Z" fill="white"/>
<path d="M503.12 80.1094V128.769C503.12 137.517 491.991 144.789 475.355 149.657C475.167 149.71 474.97 149.72 474.779 149.684C474.587 149.648 474.407 149.569 474.251 149.451C474.095 149.334 473.969 149.182 473.882 149.007C473.795 148.833 473.749 148.64 473.749 148.445V99.2861C473.751 98.996 473.853 98.7156 474.039 98.4927C474.224 98.2698 474.481 98.1183 474.765 98.064C488.251 95.0292 503.12 88.9289 503.12 80.1094Z" fill="white"/>
<path d="M503.119 80.1094V88.603C503.119 97.4224 488.251 102.606 474.724 105.641C474.44 105.695 474.183 105.847 473.998 106.07C473.812 106.293 473.71 106.573 473.708 106.863V99.2861C473.71 98.9972 473.813 98.7182 473.999 98.497C474.184 98.2758 474.441 98.1263 474.724 98.0742C488.251 95.0292 503.119 88.9288 503.119 80.1094Z" fill="#F6F7F9"/>
<path d="M168.702 137.487C168.696 136.285 168.932 135.094 169.396 133.985C169.859 132.877 170.541 131.873 171.401 131.035C172.26 130.196 173.28 129.54 174.398 129.105C175.516 128.67 176.711 128.466 177.91 128.505C180.367 128.586 182.697 129.618 184.412 131.384C186.127 133.15 187.093 135.512 187.107 137.976" stroke="#000D1A" stroke-width="1.5" stroke-miterlimit="10"/>
<path d="M187.595 143.362H186.437C186.121 143.354 185.821 143.223 185.601 142.996C185.381 142.77 185.258 142.466 185.258 142.15V137.435C185.256 137.281 185.286 137.128 185.345 136.985C185.404 136.843 185.492 136.714 185.602 136.607C185.712 136.499 185.843 136.415 185.986 136.36C186.13 136.304 186.283 136.278 186.437 136.284H187.595C188.205 136.305 188.784 136.561 189.21 137C189.636 137.438 189.877 138.025 189.882 138.636V141.132C189.883 141.43 189.824 141.726 189.709 142.001C189.594 142.276 189.425 142.526 189.211 142.734C188.998 142.942 188.745 143.105 188.467 143.213C188.189 143.321 187.893 143.371 187.595 143.362Z" fill="#000D1A"/>
<path d="M168.184 142.853H169.343C169.496 142.859 169.65 142.833 169.793 142.777C169.937 142.722 170.067 142.638 170.178 142.53C170.288 142.423 170.375 142.294 170.434 142.151C170.493 142.009 170.523 141.856 170.522 141.702V136.987C170.522 136.67 170.399 136.365 170.179 136.137C169.959 135.909 169.659 135.775 169.343 135.765H168.184C167.885 135.755 167.587 135.806 167.308 135.915C167.029 136.023 166.775 136.187 166.561 136.396C166.346 136.605 166.176 136.855 166.061 137.132C165.945 137.408 165.886 137.705 165.888 138.005V140.541C165.903 141.148 166.15 141.725 166.577 142.155C167.004 142.585 167.579 142.835 168.184 142.853Z" fill="#000D1A"/>
<path d="M188.184 138.016C188.19 139.218 187.954 140.409 187.491 141.517C187.027 142.626 186.345 143.629 185.486 144.468C184.626 145.306 183.607 145.963 182.489 146.397C181.371 146.832 180.176 147.036 178.978 146.998" stroke="#000D1A" stroke-miterlimit="10" stroke-linecap="round"/>
<path d="M178.194 145.797C178.607 145.81 178.998 145.983 179.286 146.279C179.574 146.575 179.737 146.972 179.739 147.386V147.508L176.69 147.426V147.304C176.689 147.106 176.727 146.909 176.802 146.726C176.877 146.542 176.988 146.376 177.128 146.235C177.268 146.095 177.434 145.984 177.617 145.909C177.8 145.834 177.997 145.796 178.194 145.797Z" fill="#000D1A"/>
<path d="M489.786 125.407L485.071 122.943C484.98 122.897 484.901 122.831 484.839 122.75C484.777 122.668 484.735 122.574 484.715 122.474C484.674 122.263 484.718 122.043 484.837 121.863L489.837 114.449L491.076 115.244L486.564 121.945L490.568 124.043L489.786 125.407Z" fill="#000D1A"/>
<path d="M503.119 109.55V111.241L500.294 110.09L500.954 108.664L503.119 109.55Z" fill="#000D1A"/>
<path d="M500.264 118.584L503.119 114.021V116.802L501.534 119.338L500.264 118.584Z" fill="#000D1A"/>
<path d="M495.233 121.384L493.78 121.038L496.402 112.463L497.855 112.809L495.233 121.384Z" fill="#000D1A"/>
<path d="M454.968 86.565C463.85 85.1291 494.064 79.6398 501.717 70.5352" stroke="white" stroke-width="1.5" stroke-miterlimit="10" stroke-linecap="round"/>
<path d="M454.968 103.257C457.681 102.819 462.336 102.004 467.671 100.854" stroke="white" stroke-width="1.5" stroke-miterlimit="10" stroke-linecap="round"/>
<path d="M454.968 111.16C457.681 110.701 462.336 109.856 467.671 108.654" stroke="white" stroke-width="1.5" stroke-miterlimit="10" stroke-linecap="round"/>
<path d="M454.968 119.052C457.681 118.573 462.336 117.698 467.671 116.455" stroke="white" stroke-width="1.5" stroke-miterlimit="10" stroke-linecap="round"/>
<path d="M454.968 126.956C457.681 126.457 462.336 125.541 467.671 124.268" stroke="white" stroke-width="1.5" stroke-miterlimit="10" stroke-linecap="round"/>
<path d="M454.968 134.859C457.681 134.329 462.336 133.382 467.671 132.068" stroke="white" stroke-width="1.5" stroke-miterlimit="10" stroke-linecap="round"/>
<path d="M454.968 142.751C457.681 142.211 462.336 141.224 467.671 139.869" stroke="white" stroke-width="1.5" stroke-miterlimit="10" stroke-linecap="round"/>
<path d="M454.968 150.654C457.681 150.094 462.336 149.075 467.671 147.67" stroke="white" stroke-width="1.5" stroke-miterlimit="10" stroke-linecap="round"/>
<path d="M454.968 158.557C457.681 157.967 462.336 156.918 467.671 155.502" stroke="white" stroke-width="1.5" stroke-miterlimit="10" stroke-linecap="round"/>
<path d="M454.968 166.45C457.681 165.85 462.336 164.76 467.671 163.283" stroke="white" stroke-width="1.5" stroke-miterlimit="10" stroke-linecap="round"/>
<path d="M369.662 162.621L342.334 164.139V191.524L369.662 190.006V162.621Z" fill="#4CC3FF"/>
<path d="M342.333 164.137L332.68 159.422V185.972L342.333 191.522V164.137Z" fill="#000D1A"/>
<path d="M355.972 139.422L347.324 139.901V148.567L355.972 148.089V139.422Z" fill="#4CC3FF"/>
<path d="M367.304 152.15L363.097 152.385V156.601L367.304 156.367V152.15Z" fill="#4CC3FF"/>
<path d="M338.807 133.279L334.61 133.514V137.72L338.807 137.485V133.279Z" fill="#4CC3FF"/>
<path d="M427.163 100.64C435.829 100.64 442.854 99.0072 442.854 96.9936C442.854 94.98 435.829 93.3477 427.163 93.3477C418.497 93.3477 411.472 94.98 411.472 96.9936C411.472 99.0072 418.497 100.64 427.163 100.64Z" fill="#000D1A"/>
<path d="M442.783 94.5098H411.472V96.9947H442.783V94.5098Z" fill="#000D1A"/>
<path d="M427.163 98.1551C435.829 98.1551 442.854 96.5228 442.854 94.5092C442.854 92.4956 435.829 90.8633 427.163 90.8633C418.497 90.8633 411.472 92.4956 411.472 94.5092C411.472 96.5228 418.497 98.1551 427.163 98.1551Z" fill="#4CC3FF"/>
<path d="M427.163 86.87C430.475 86.87 433.159 86.0675 433.159 85.0776C433.159 84.0876 430.475 83.2852 427.163 83.2852C423.852 83.2852 421.167 84.0876 421.167 85.0776C421.167 86.0675 423.852 86.87 427.163 86.87Z" fill="white"/>
<path d="M440.313 60.9922H414.012L424.175 85.0879H430.15L440.313 60.9922Z" fill="#FFBF00"/>
<path d="M430.76 83.6634L430.16 85.0892H424.175L423.575 83.6634C425.945 83.1747 428.39 83.1747 430.76 83.6634Z" fill="#4CC3FF"/>
<path d="M430.76 83.6634L430.16 85.0892H424.175L423.575 83.6634C425.945 83.1747 428.39 83.1747 430.76 83.6634Z" fill="#4CC3FF"/>
<path d="M427.163 85.9741C428.818 85.9741 430.161 85.5728 430.161 85.0779C430.161 84.5829 428.818 84.1816 427.163 84.1816C425.507 84.1816 424.165 84.5829 424.165 85.0779C424.165 85.5728 425.507 85.9741 427.163 85.9741Z" fill="#000D1A"/>
<path d="M424.084 65.1895H421.736V67.542H424.084V65.1895Z" fill="white"/>
<path d="M418.209 56.5312H415.861V58.8838H418.209V56.5312Z" fill="#FFBF00"/>
<path d="M436.929 59.8125H434.022V62.7252H436.929V59.8125Z" fill="#FFBF00"/>
<path d="M433.86 51.3887H430.11V55.1466H433.86V51.3887Z" fill="#FFBF00"/>
<path d="M429.51 71.1875H427.163V73.54H429.51V71.1875Z" fill="white"/>
<path d="M436.929 60.9922H434.022V62.7235H436.929V60.9922Z" fill="white"/>
<path d="M16.8809 63.1426C16.8809 63.1426 20.0821 54.6694 38.0398 46.0332" stroke="white" stroke-width="1.5" stroke-miterlimit="10" stroke-linecap="round"/>
<path d="M16.8809 70.9633C16.8809 70.9633 20.0821 62.4901 38.0398 53.8438" stroke="white" stroke-width="1.5" stroke-miterlimit="10" stroke-linecap="round"/>
<path d="M16.8809 92.493C16.8809 92.493 20.0821 84.0198 38.0398 75.3633" stroke="white" stroke-width="1.5" stroke-miterlimit="10" stroke-linecap="round"/>
<path d="M16.8809 117.504C16.8809 117.504 20.0821 109.031 38.0398 100.385" stroke="white" stroke-width="1.5" stroke-miterlimit="10" stroke-linecap="round"/>
<path d="M16.8809 126.059C16.8809 126.059 20.0821 117.585 38.0398 108.949" stroke="white" stroke-width="1.5" stroke-miterlimit="10" stroke-linecap="round"/>
<path d="M16.8809 134.623C16.8809 134.623 20.0821 126.14 38.0398 117.504" stroke="white" stroke-width="1.5" stroke-miterlimit="10" stroke-linecap="round"/>
<path d="M27.1248 70.4337C28.1411 71.2179 29.1573 71.9919 30.3261 72.7455C30.817 73.0772 31.2193 73.5246 31.4975 74.0484C31.7757 74.5722 31.9213 75.1565 31.9216 75.7499V166.226C31.9236 166.464 31.8602 166.697 31.7384 166.901C31.6166 167.105 31.441 167.272 31.2309 167.382C31.0209 167.493 30.7846 167.543 30.5478 167.528C30.3111 167.512 30.0832 167.432 29.8891 167.295C21.4946 161.562 16.8604 155.268 16.8604 148.679V53.8438C16.8807 59.6691 20.4885 65.2602 27.1248 70.4337Z" fill="#FFBF00"/>
</svg>
