<svg width="1920" height="312" viewBox="0 0 1920 312" fill="none" xmlns="http://www.w3.org/2000/svg">
<path d="M1920 312V0C1913.13 0.0202115 1906.25 0.0297044 1899.35 0.0392138C1828.24 0.137278 1755.84 0.237106 1685.81 12.1116C1582.38 29.6463 1485.67 58.8627 1396.56 112.763C1372.53 127.3 1348.17 142.898 1323.44 158.732C1207.82 232.765 1084.14 311.962 948.178 312H1920Z" fill="white"/>
<path d="M947.98 312C915.159 311.991 881.623 307.367 847.312 296.943C765.101 271.966 689.421 236.63 614.839 195.247C545.014 156.504 469.811 119.75 390.968 102.322C318.513 86.3064 255.171 92.3893 182.796 107.125C118.333 120.25 47.9526 146.925 0 191.697V312H947.98Z" fill="white"/>
</svg>
